<svg xmlns="http://www.w3.org/2000/svg" xmlns:xlink="http://www.w3.org/1999/xlink" width="490" height="100" viewBox="0 0 490 100">
  <defs>
    <clipPath id="clip-path">
      <rect id="사각형_2486" data-name="사각형 2486" width="490" height="99.557" transform="translate(0 0.001)" fill="#501d83"/>
    </clipPath>
  </defs>
  <g id="ci_natural" data-name="ci/natural" transform="translate(-100 -1339.022)">
    <rect id="base" width="490" height="100" transform="translate(100 1339.022)" fill="none"/>
    <line id="선_1034" data-name="선 1034" y2="49.591" transform="translate(367.321 1364.1)" fill="none" stroke="#501d83" stroke-width="2"/>
    <g id="그룹_3200" data-name="그룹 3200" transform="translate(100 1339.021)">
      <g id="그룹_3199" data-name="그룹 3199" clip-path="url(#clip-path)">
        <path id="패스_29466" data-name="패스 29466" d="M291.792,28.248c-1.916,0-2.987.882-3,2.09-.014,1.323,1.347,1.915,2.921,2.268l1.637.4c3.123.716,5.453,2.3,5.466,5.339-.013,3.336-2.606,5.478-7.054,5.465-4.407.013-7.216-2.028-7.328-5.943h3.677c.127,1.838,1.588,2.77,3.6,2.77,1.989,0,3.273-.932,3.273-2.292,0-1.246-1.131-1.826-3.123-2.317l-1.989-.478c-3.074-.757-4.962-2.293-4.962-4.962-.013-3.314,2.91-5.517,6.9-5.517,4.043,0,6.7,2.241,6.751,5.465h-3.628c-.151-1.448-1.3-2.292-3.147-2.292" fill="#501d83"/>
        <path id="패스_29467" data-name="패스 29467" d="M300.641,36.761c-.012-4.181,2.556-7.052,6.7-7.052,3.527,0,5.92,2.052,6.07,5.188h-3.5a2.5,2.5,0,0,0-2.519-2.292c-1.789.013-2.972,1.511-2.972,4.106,0,2.645,1.158,4.156,2.972,4.156A2.469,2.469,0,0,0,309.91,38.6h3.5c-.163,3.1-2.442,5.226-6.07,5.24-4.194-.014-6.711-2.91-6.7-7.079" fill="#501d83"/>
        <path id="패스_29468" data-name="패스 29468" d="M319.442,43.562h-3.729V25.327h3.628v6.951h.151a4.036,4.036,0,0,1,4.081-2.569c2.858,0,4.735,1.927,4.735,5.139v8.714h-3.729V35.5c0-1.7-.9-2.694-2.467-2.694a2.576,2.576,0,0,0-2.67,2.846Z" fill="#501d83"/>
        <path id="패스_29469" data-name="패스 29469" d="M330.61,36.761c-.014-4.218,2.568-7.052,6.7-7.052s6.713,2.834,6.725,7.052c-.012,4.233-2.582,7.066-6.725,7.079-4.131-.013-6.713-2.846-6.7-7.079m6.724,4.183c1.9-.013,2.91-1.789,2.9-4.183.014-2.4-.994-4.205-2.9-4.205-1.951,0-2.948,1.8-2.948,4.205s1,4.17,2.948,4.183" fill="#501d83"/>
        <path id="패스_29470" data-name="패스 29470" d="M345.808,36.761c-.014-4.218,2.568-7.052,6.7-7.052s6.713,2.834,6.725,7.052c-.012,4.233-2.582,7.066-6.725,7.079-4.131-.013-6.713-2.846-6.7-7.079m6.724,4.183c1.9-.013,2.91-1.789,2.9-4.183.014-2.4-.994-4.205-2.9-4.205-1.951,0-2.948,1.8-2.948,4.205s1,4.17,2.948,4.183" fill="#501d83"/>
        <rect id="사각형_2479" data-name="사각형 2479" width="3.729" height="18.235" transform="translate(361.558 25.327)" fill="#501d83"/>
        <path id="패스_29471" data-name="패스 29471" d="M373.561,36.761c-.012-4.218,2.568-7.052,6.7-7.052s6.713,2.834,6.727,7.052c-.014,4.233-2.582,7.066-6.727,7.079-4.131-.013-6.711-2.846-6.7-7.079m6.726,4.183c1.9-.013,2.908-1.789,2.9-4.183.012-2.4-.994-4.205-2.9-4.205-1.953,0-2.948,1.8-2.948,4.205s1,4.17,2.948,4.183" fill="#501d83"/>
        <path id="패스_29472" data-name="패스 29472" d="M396.592,32.682h-2.719v10.88h-3.729V32.682H388.2v-2.8h1.94V28.854c0-2.885,1.738-4.385,4.483-4.385a9.813,9.813,0,0,1,2.217.227v2.822c-.542-.051-.932-.063-1.134-.076-1.195.013-1.837.467-1.837,1.612v.831h2.719Z" fill="#501d83"/>
        <path id="패스_29473" data-name="패스 29473" d="M420,43.562h-3.276l-8.008-11.585h-.153V43.562H404.79V25.327h3.323l7.961,11.587h.175V25.327H420Z" fill="#501d83"/>
        <path id="패스_29474" data-name="패스 29474" d="M427.413,35.527c.983-.063,2.822-.151,3.4-.176V34.242c-.014-1.145-.793-1.8-2.192-1.812a2.061,2.061,0,0,0-2.267,1.511H422.8c.227-2.368,2.292-4.232,5.92-4.232,2.984,0,5.806,1.336,5.793,4.634v9.219H430.99V41.674h-.1a4.2,4.2,0,0,1-4.006,2.14c-2.62.013-4.546-1.372-4.559-4.08.013-3.047,2.456-4.043,5.087-4.207m.53,5.718a2.645,2.645,0,0,0,2.872-2.569v-.994c-.566.025-2.167.112-2.8.164-1.3.112-2.117.729-2.117,1.787s.844,1.6,2.041,1.612" fill="#501d83"/>
        <path id="패스_29475" data-name="패스 29475" d="M444.553,32.682h-2.569v6.675c-.013,1.1.528,1.36,1.285,1.385.377,0,1.032-.038,1.486-.076v2.948a11.943,11.943,0,0,1-1.991.125c-2.7.012-4.533-1.2-4.509-3.854v-7.2h-1.888v-2.8h1.888V26.611h3.729v3.274h2.569Z" fill="#501d83"/>
        <path id="패스_29476" data-name="패스 29476" d="M455.653,29.884h3.727V43.561H455.8V41.094h-.151a4.211,4.211,0,0,1-4.158,2.645c-2.732,0-4.609-1.94-4.609-5.139V29.884h3.729v8.06a2.361,2.361,0,0,0,2.393,2.645,2.641,2.641,0,0,0,2.645-2.845Z" fill="#501d83"/>
        <path id="패스_29477" data-name="패스 29477" d="M462.261,29.884h3.6v2.369h.153a3.33,3.33,0,0,1,3.3-2.569,5.76,5.76,0,0,1,1.183.126v3.325a6.308,6.308,0,0,0-1.585-.2,2.774,2.774,0,0,0-2.923,2.847v7.781h-3.727Z" fill="#501d83"/>
        <path id="패스_29478" data-name="패스 29478" d="M476.355,35.527c.983-.063,2.822-.151,3.4-.176V34.242c-.014-1.145-.793-1.8-2.192-1.812a2.061,2.061,0,0,0-2.267,1.511h-3.552c.227-2.368,2.292-4.232,5.92-4.232,2.984,0,5.806,1.336,5.793,4.634v9.219h-3.527V41.674h-.1a4.2,4.2,0,0,1-4.006,2.14c-2.62.013-4.546-1.372-4.559-4.08.013-3.047,2.456-4.043,5.087-4.207m.53,5.718a2.645,2.645,0,0,0,2.872-2.569v-.994c-.566.025-2.167.112-2.8.164-1.3.112-2.117.729-2.117,1.787s.844,1.6,2.041,1.612" fill="#501d83"/>
        <rect id="사각형_2480" data-name="사각형 2480" width="3.729" height="18.235" transform="translate(486.291 25.327)" fill="#501d83"/>
        <path id="패스_29479" data-name="패스 29479" d="M291.792,59.168c-1.916,0-2.987.882-3,2.09-.014,1.323,1.347,1.915,2.921,2.268l1.637.4c3.123.716,5.453,2.3,5.466,5.339-.013,3.336-2.606,5.478-7.054,5.465-4.407.013-7.216-2.028-7.328-5.943h3.677c.127,1.838,1.588,2.77,3.6,2.77,1.989,0,3.273-.932,3.273-2.292,0-1.246-1.131-1.826-3.123-2.317l-1.989-.478c-3.074-.757-4.962-2.293-4.962-4.962-.013-3.314,2.91-5.517,6.9-5.517,4.043,0,6.7,2.241,6.751,5.465h-3.628c-.151-1.448-1.3-2.292-3.147-2.292" fill="#501d83"/>
        <path id="패스_29480" data-name="패스 29480" d="M300.641,67.681c-.012-4.181,2.556-7.052,6.7-7.052,3.527,0,5.92,2.052,6.07,5.188h-3.5a2.5,2.5,0,0,0-2.519-2.292c-1.789.013-2.972,1.511-2.972,4.106,0,2.645,1.158,4.156,2.972,4.156a2.469,2.469,0,0,0,2.519-2.267h3.5c-.163,3.1-2.442,5.226-6.07,5.24-4.194-.014-6.711-2.91-6.7-7.079" fill="#501d83"/>
        <path id="패스_29481" data-name="패스 29481" d="M317.578,55.214a1.907,1.907,0,1,1-2.04,1.915,1.992,1.992,0,0,1,2.04-1.915m-1.865,5.591h3.729V74.482h-3.729Z" fill="#501d83"/>
        <path id="패스_29482" data-name="패스 29482" d="M321.778,67.706c-.013-4.219,2.593-7.077,6.6-7.077,3.59,0,6.423,2.267,6.423,6.926v1.058h-9.344a3.032,3.032,0,0,0,3.147,3.35,2.64,2.64,0,0,0,2.544-1.386H334.7c-.53,2.533-2.8,4.17-6.172,4.183-4.194-.013-6.762-2.721-6.749-7.054m9.495-1.435a2.72,2.72,0,0,0-2.82-2.847,2.927,2.927,0,0,0-3,2.847Z" fill="#501d83"/>
        <path id="패스_29483" data-name="패스 29483" d="M340.855,74.482h-3.729V60.805h3.552V63.2h.152a4.133,4.133,0,0,1,4.105-2.569c2.86,0,4.723,1.951,4.71,5.139v8.714h-3.7v-8.06c-.014-1.686-.919-2.694-2.468-2.694a2.552,2.552,0,0,0-2.62,2.846Z" fill="#501d83"/>
        <path id="패스_29484" data-name="패스 29484" d="M351.974,67.681c-.013-4.181,2.555-7.052,6.7-7.052,3.525,0,5.918,2.052,6.07,5.188h-3.5a2.5,2.5,0,0,0-2.519-2.292c-1.787.013-2.972,1.511-2.972,4.106,0,2.645,1.158,4.156,2.972,4.156a2.468,2.468,0,0,0,2.519-2.267h3.5c-.163,3.1-2.444,5.226-6.07,5.24-4.194-.014-6.713-2.91-6.7-7.079" fill="#501d83"/>
        <path id="패스_29485" data-name="패스 29485" d="M366.492,67.706c-.011-4.219,2.6-7.077,6.6-7.077,3.59,0,6.423,2.267,6.423,6.926v1.058H370.17a3.032,3.032,0,0,0,3.148,3.35,2.635,2.635,0,0,0,2.543-1.386h3.552c-.528,2.533-2.795,4.17-6.17,4.183-4.194-.013-6.762-2.721-6.751-7.054m9.5-1.435a2.72,2.72,0,0,0-2.822-2.847,2.928,2.928,0,0,0-3,2.847Z" fill="#501d83"/>
        <path id="패스_29486" data-name="패스 29486" d="M117.479,24.866h20.937v4.378h-7.838V50.428h-5.261V29.244h-7.838Z" fill="#501d83"/>
        <path id="패스_29487" data-name="패스 29487" d="M137.109,50.428l8.862-25.562h6.815l8.826,25.562h-5.684L154,44.532h-9.251l-1.924,5.9ZM152.662,40.4l-3.2-9.78h-.177L146.1,40.4Z" fill="#501d83"/>
        <path id="패스_29488" data-name="패스 29488" d="M164.508,24.866h17.159v4.378H169.8v6.214h10.981v4.378H169.8V46.05h11.9v4.378H164.508Z" fill="#501d83"/>
        <path id="패스_29489" data-name="패스 29489" d="M201.263,24.866V42.7c0,4.961-3.513,8.085-8.65,8.085-4.625,0-8.244-2.436-8.227-7.485h5.3a2.984,2.984,0,0,0,3.178,3.213c2.03,0,3.142-1.306,3.142-3.813V24.866Z" fill="#501d83"/>
        <path id="패스_29490" data-name="패스 29490" d="M204.122,50.428l8.862-25.562H219.8l8.826,25.562h-5.684l-1.924-5.9h-9.251l-1.924,5.9ZM219.675,40.4l-3.2-9.78H216.3l-3.195,9.78Z" fill="#501d83"/>
        <path id="패스_29491" data-name="패스 29491" d="M231.521,24.866H248.68v4.378H236.817v6.214H247.8v4.378H236.817V46.05h11.9v4.378H231.521Z" fill="#501d83"/>
        <path id="패스_29492" data-name="패스 29492" d="M131.4,68.914a3.224,3.224,0,0,1-6.445,0V59.009h-3.243V69.174c0,3.427,2.573,5.72,6.466,5.709,3.882.011,6.488-2.282,6.488-5.709V59.009H131.4Z" fill="#501d83"/>
        <path id="패스_29493" data-name="패스 29493" d="M147.622,68.957h-.151l-6.834-9.948h-2.855V74.666h3.244V64.718h.13l6.877,9.948h2.811V59.009h-3.222Z" fill="#501d83"/>
        <rect id="사각형_2481" data-name="사각형 2481" width="3.244" height="15.657" transform="translate(153.966 59.009)" fill="#501d83"/>
        <path id="패스_29494" data-name="패스 29494" d="M166.3,70.946h-.151l-3.807-11.937H158.71l5.428,15.657h4.174l5.407-15.657h-3.59Z" fill="#501d83"/>
        <path id="패스_29495" data-name="패스 29495" d="M178.466,68.178h6.726V65.5h-6.726V61.69h7.266V59.009h-10.51V74.666h10.532V71.984h-7.288Z" fill="#501d83"/>
        <path id="패스_29496" data-name="패스 29496" d="M200.466,64.113c0-3.1-2.044-5.1-5.6-5.1h-6.142V74.666h3.244V69.108h2.476l3,5.558h3.59L197.7,68.579a4.525,4.525,0,0,0,2.769-4.466m-6.207,2.357h-2.292v-4.8h2.292c1.925.011,2.865.865,2.855,2.444.01,1.568-.93,2.357-2.855,2.357" fill="#501d83"/>
        <path id="패스_29497" data-name="패스 29497" d="M209.933,65.605l-1.406-.346c-1.351-.3-2.519-.811-2.508-1.946.011-1.038.93-1.795,2.573-1.795,1.59,0,2.574.724,2.7,1.968h3.115c-.044-2.768-2.325-4.693-5.8-4.693-3.428,0-5.936,1.892-5.926,4.736,0,2.292,1.622,3.611,4.261,4.26l1.708.411c1.709.422,2.682.919,2.682,1.99,0,1.168-1.1,1.968-2.812,1.968-1.73,0-2.984-.8-3.092-2.379h-3.158c.1,3.363,2.509,5.114,6.294,5.1,3.817.01,6.044-1.828,6.055-4.693-.011-2.606-2.011-3.969-4.693-4.585" fill="#501d83"/>
        <rect id="사각형_2482" data-name="사각형 2482" width="3.244" height="15.657" transform="translate(216.983 59.009)" fill="#501d83"/>
        <path id="패스_29498" data-name="패스 29498" d="M245.636,59.009l-3.59,6.747h-.151l-3.612-6.747H221.907v2.682h4.8V74.666h3.222V61.691h4.8v-2.5l5.607,9.9v5.579h3.244V69.087l5.709-10.078Z" fill="#501d83"/>
        <rect id="사각형_2483" data-name="사각형 2483" width="24.89" height="24.89" transform="translate(0 0)" fill="#009b88"/>
        <path id="패스_29499" data-name="패스 29499" d="M49.779,0,24.89,24.889V74.668H49.779V24.889H74.668V0Z" fill="#321f78"/>
        <path id="패스_29500" data-name="패스 29500" d="M99.558,24.89H74.668V74.669H49.779V99.114A44.04,44.04,0,0,0,56,99.558,43.557,43.557,0,0,0,99.558,56.023Z" fill="#321f78"/>
        <path id="패스_29501" data-name="패스 29501" d="M49.779,49.779V24.889h24.89Z" fill="#1da03b"/>
        <rect id="사각형_2484" data-name="사각형 2484" width="24.89" height="24.89" transform="translate(0 0)" fill="#009b88"/>
        <path id="패스_29502" data-name="패스 29502" d="M49.779,0,24.89,24.889V74.668H49.779V24.889H74.668V0Z" fill="#321f78"/>
        <path id="패스_29503" data-name="패스 29503" d="M99.558,24.89H74.668V74.669H49.779V99.114A44.04,44.04,0,0,0,56,99.558,43.557,43.557,0,0,0,99.558,56.023Z" fill="#321f78"/>
        <path id="패스_29506" data-name="패스 29506" d="M0,0H24.89V24.89H0Z" transform="translate(0 0)" fill="#00a497"/>
        <path id="패스_29504" data-name="패스 29504" d="M49.779,0,24.89,24.889V74.668H49.779V24.889H74.668V0Z" fill="#501d83"/>
        <path id="패스_29505" data-name="패스 29505" d="M99.558,24.89H74.668V74.669H49.779V99.114A44.04,44.04,0,0,0,56,99.558,43.557,43.557,0,0,0,99.558,56.023Z" fill="#501d83"/>
      </g>
    </g>
  </g>
</svg>
