<svg xmlns="http://www.w3.org/2000/svg" xmlns:xlink="http://www.w3.org/1999/xlink" width="586" height="100" viewBox="0 0 586 100">
  <defs>
    <clipPath id="clip-path">
      <rect id="사각형_2497" data-name="사각형 2497" width="585.072" height="99.557" transform="translate(0 0.001)" fill="#501d83"/>
    </clipPath>
  </defs>
  <g id="ci_science" data-name="ci/science" transform="translate(-100 -1339.022)">
    <rect id="base" width="586" height="100" transform="translate(100 1339.022)" fill="none"/>
    <line id="선_1035" data-name="선 1035" y2="49.591" transform="translate(367.321 1364.1)" fill="none" stroke="#501d83" stroke-width="2"/>
    <g id="그룹_3202" data-name="그룹 3202" transform="translate(100 1339.021)">
      <g id="그룹_3201" data-name="그룹 3201" clip-path="url(#clip-path)">
        <path id="패스_29507" data-name="패스 29507" d="M291.791,28.248c-1.913,0-2.984.882-3,2.09-.012,1.323,1.347,1.915,2.923,2.268l1.636.4c3.124.716,5.454,2.3,5.465,5.339-.011,3.336-2.606,5.478-7.052,5.465-4.407.013-7.216-2.028-7.33-5.945h3.677c.126,1.84,1.588,2.77,3.6,2.77,1.989,0,3.273-.93,3.273-2.29,0-1.246-1.133-1.826-3.123-2.317l-1.989-.48c-3.074-.755-4.964-2.291-4.964-4.962-.011-3.312,2.91-5.515,6.9-5.515,4.043,0,6.7,2.241,6.751,5.465h-3.626c-.153-1.448-1.3-2.292-3.15-2.292" fill="#501d83"/>
        <path id="패스_29508" data-name="패스 29508" d="M300.642,36.761c-.013-4.183,2.555-7.052,6.7-7.052,3.525,0,5.918,2.052,6.07,5.188h-3.5a2.5,2.5,0,0,0-2.519-2.292c-1.787.012-2.972,1.511-2.972,4.1,0,2.644,1.158,4.157,2.972,4.157A2.468,2.468,0,0,0,309.91,38.6h3.5c-.163,3.1-2.444,5.226-6.07,5.24-4.194-.014-6.713-2.912-6.7-7.079" fill="#501d83"/>
        <path id="패스_29509" data-name="패스 29509" d="M319.441,43.562h-3.727V25.327h3.626v6.951h.152a4.033,4.033,0,0,1,4.08-2.569c2.86,0,4.735,1.927,4.735,5.137v8.716H324.58V35.5c0-1.7-.907-2.694-2.469-2.694a2.576,2.576,0,0,0-2.67,2.846Z" fill="#501d83"/>
        <path id="패스_29510" data-name="패스 29510" d="M330.609,36.761c-.012-4.218,2.568-7.052,6.7-7.052s6.713,2.834,6.727,7.052c-.014,4.232-2.582,7.066-6.727,7.079-4.131-.013-6.711-2.847-6.7-7.079m6.726,4.181c1.9-.013,2.908-1.789,2.9-4.181.012-2.406-.994-4.205-2.9-4.205-1.953,0-2.948,1.8-2.948,4.205s.995,4.168,2.948,4.181" fill="#501d83"/>
        <path id="패스_29511" data-name="패스 29511" d="M345.807,36.761c-.012-4.218,2.568-7.052,6.7-7.052s6.713,2.834,6.727,7.052c-.014,4.232-2.582,7.066-6.727,7.079-4.131-.013-6.711-2.847-6.7-7.079m6.726,4.181c1.9-.013,2.908-1.789,2.9-4.181.012-2.406-.994-4.205-2.9-4.205-1.953,0-2.948,1.8-2.948,4.205s.995,4.168,2.948,4.181" fill="#501d83"/>
        <rect id="사각형_2487" data-name="사각형 2487" width="3.727" height="18.235" transform="translate(361.56 25.328)" fill="#501d83"/>
        <path id="패스_29512" data-name="패스 29512" d="M373.563,36.761c-.014-4.218,2.568-7.052,6.7-7.052s6.713,2.834,6.725,7.052c-.012,4.232-2.582,7.066-6.725,7.079-4.131-.013-6.713-2.847-6.7-7.079m6.724,4.181c1.9-.013,2.91-1.789,2.9-4.181.014-2.406-.994-4.205-2.9-4.205-1.951,0-2.948,1.8-2.948,4.205s1,4.168,2.948,4.181" fill="#501d83"/>
        <path id="패스_29513" data-name="패스 29513" d="M396.594,32.682h-2.721v10.88h-3.727V32.682h-1.94v-2.8h1.94V28.852c0-2.885,1.738-4.383,4.483-4.383a9.838,9.838,0,0,1,2.217.227v2.822c-.542-.051-.932-.065-1.134-.076-1.2.011-1.839.465-1.839,1.612v.831h2.721Z" fill="#501d83"/>
        <path id="패스_29514" data-name="패스 29514" d="M404.789,43.562V25.326h6.5c5.489,0,8.853,3.413,8.839,9.093.014,5.705-3.35,9.143-8.915,9.143Zm6.273-3.249c3.476,0,5.288-1.8,5.288-5.894,0-4.054-1.812-5.844-5.263-5.844h-2.519V40.313Z" fill="#501d83"/>
        <path id="패스_29515" data-name="패스 29515" d="M427.212,35.527c.983-.063,2.822-.151,3.4-.178V34.242c-.014-1.145-.793-1.8-2.192-1.812a2.061,2.061,0,0,0-2.267,1.509H422.6c.227-2.366,2.292-4.23,5.92-4.23,2.984,0,5.806,1.334,5.793,4.634v9.219h-3.527v-1.89h-.1a4.2,4.2,0,0,1-4.006,2.142c-2.62.013-4.546-1.372-4.559-4.08.013-3.047,2.456-4.043,5.087-4.207m.53,5.718a2.645,2.645,0,0,0,2.872-2.569v-.994c-.566.023-2.167.112-2.8.164-1.3.112-2.117.728-2.117,1.787s.844,1.6,2.041,1.612" fill="#501d83"/>
        <path id="패스_29516" data-name="패스 29516" d="M444.352,32.682h-2.569v6.673c-.013,1.1.528,1.36,1.285,1.387.377,0,1.032-.038,1.486-.076v2.946a11.594,11.594,0,0,1-1.991.126c-2.695.013-4.533-1.2-4.509-3.853v-7.2h-1.888v-2.8h1.888V26.611h3.729v3.274h2.569Z" fill="#501d83"/>
        <path id="패스_29517" data-name="패스 29517" d="M451.118,35.527c.982-.063,2.82-.151,3.4-.178V34.242c-.012-1.145-.793-1.8-2.192-1.812a2.059,2.059,0,0,0-2.265,1.509h-3.552c.227-2.366,2.292-4.23,5.918-4.23,2.986,0,5.806,1.334,5.795,4.634v9.219H454.7v-1.89h-.1a4.2,4.2,0,0,1-4.005,2.142c-2.619.013-4.547-1.372-4.558-4.08.011-3.047,2.456-4.043,5.087-4.207m.53,5.718a2.643,2.643,0,0,0,2.87-2.569v-.994c-.566.023-2.165.112-2.8.164-1.3.112-2.115.728-2.115,1.787s.844,1.6,2.041,1.612" fill="#501d83"/>
        <path id="패스_29518" data-name="패스 29518" d="M473.819,28.248c-1.915,0-2.986.882-3,2.09-.014,1.323,1.347,1.915,2.921,2.268l1.637.4c3.123.716,5.453,2.3,5.466,5.339-.013,3.336-2.606,5.478-7.054,5.465-4.407.013-7.216-2.028-7.328-5.945h3.677c.126,1.84,1.588,2.77,3.6,2.77,1.989,0,3.273-.93,3.273-2.29,0-1.246-1.131-1.826-3.123-2.317l-1.989-.48c-3.074-.755-4.962-2.291-4.962-4.962-.013-3.312,2.91-5.515,6.9-5.515,4.043,0,6.7,2.241,6.751,5.465h-3.628c-.151-1.448-1.3-2.292-3.148-2.292" fill="#501d83"/>
        <path id="패스_29519" data-name="패스 29519" d="M482.668,36.761c-.011-4.183,2.557-7.052,6.7-7.052,3.527,0,5.92,2.052,6.07,5.188h-3.5a2.5,2.5,0,0,0-2.519-2.292c-1.789.012-2.972,1.511-2.972,4.1,0,2.644,1.158,4.157,2.972,4.157a2.471,2.471,0,0,0,2.519-2.267h3.5c-.163,3.1-2.442,5.226-6.07,5.24-4.194-.014-6.711-2.912-6.7-7.079" fill="#501d83"/>
        <path id="패스_29520" data-name="패스 29520" d="M499.605,24.294a1.907,1.907,0,1,1-2.04,1.914,1.99,1.99,0,0,1,2.04-1.914m-1.865,5.591h3.729V43.562H497.74Z" fill="#501d83"/>
        <path id="패스_29521" data-name="패스 29521" d="M503.8,36.787c-.013-4.219,2.593-7.077,6.6-7.077,3.59,0,6.423,2.267,6.423,6.926v1.058h-9.344a3.032,3.032,0,0,0,3.147,3.35,2.643,2.643,0,0,0,2.544-1.386h3.552c-.53,2.533-2.795,4.169-6.172,4.183-4.194-.014-6.762-2.721-6.749-7.054M513.3,35.35a2.717,2.717,0,0,0-2.82-2.845,2.924,2.924,0,0,0-3,2.845Z" fill="#501d83"/>
        <path id="패스_29522" data-name="패스 29522" d="M522.883,43.562h-3.729V29.885h3.552v2.393h.152a4.133,4.133,0,0,1,4.105-2.569c2.86,0,4.723,1.951,4.71,5.137v8.716h-3.7V35.5c-.014-1.688-.919-2.694-2.468-2.694a2.552,2.552,0,0,0-2.62,2.846Z" fill="#501d83"/>
        <path id="패스_29523" data-name="패스 29523" d="M534,36.761c-.013-4.183,2.555-7.052,6.7-7.052,3.525,0,5.918,2.052,6.07,5.188h-3.5A2.5,2.5,0,0,0,540.75,32.6c-1.787.012-2.972,1.511-2.972,4.1,0,2.644,1.158,4.157,2.972,4.157a2.468,2.468,0,0,0,2.519-2.267h3.5c-.163,3.1-2.444,5.226-6.07,5.24-4.194-.014-6.713-2.912-6.7-7.079" fill="#501d83"/>
        <path id="패스_29524" data-name="패스 29524" d="M548.519,36.787c-.011-4.219,2.6-7.077,6.6-7.077,3.59,0,6.423,2.267,6.423,6.926v1.058H552.2a3.032,3.032,0,0,0,3.147,3.35,2.639,2.639,0,0,0,2.544-1.386h3.552c-.528,2.533-2.795,4.169-6.17,4.183-4.194-.014-6.762-2.721-6.751-7.054m9.5-1.437a2.717,2.717,0,0,0-2.822-2.845,2.925,2.925,0,0,0-3,2.845Z" fill="#501d83"/>
        <path id="패스_29525" data-name="패스 29525" d="M569.279,38.726c0-2.128,1.347-3.413,3.337-4.787a6.81,6.81,0,0,1-1.75-4.18,4.654,4.654,0,0,1,4.962-4.684c2.921.012,4.722,1.976,4.711,4.28a5.048,5.048,0,0,1-2.418,4.207l-1.071.781,3.047,3.5a6.672,6.672,0,0,0,.767-3.15h3.1a9.27,9.27,0,0,1-1.637,5.718l2.746,3.148h-3.905l-1.12-1.259a7.628,7.628,0,0,1-4.672,1.537c-3.779-.013-6.1-2.242-6.1-5.114m6.271,2.09a4.678,4.678,0,0,0,2.481-.756l-3.487-3.891-.128.088a3.037,3.037,0,0,0-1.511,2.267,2.363,2.363,0,0,0,2.645,2.292m-.3-8.6.957-.642a2.327,2.327,0,0,0,1.335-2.016,1.549,1.549,0,0,0-1.688-1.46,1.718,1.718,0,0,0-1.789,1.711,4.366,4.366,0,0,0,1.185,2.407" fill="#501d83"/>
        <path id="패스_29526" data-name="패스 29526" d="M284.008,74.482l6.323-18.237h4.862l6.294,18.237h-4.055l-1.372-4.205h-6.6l-1.371,4.205Zm11.1-7.153-2.28-6.976H292.7l-2.279,6.976Z" fill="#501d83"/>
        <path id="패스_29527" data-name="패스 29527" d="M303.46,60.805h3.6v2.368h.153a3.328,3.328,0,0,1,3.3-2.568,5.76,5.76,0,0,1,1.183.126v3.323a6.4,6.4,0,0,0-1.585-.2,2.775,2.775,0,0,0-2.923,2.847v7.783H303.46Z" fill="#501d83"/>
        <path id="패스_29528" data-name="패스 29528" d="M321.383,63.6h-2.569v6.677c-.013,1.094.528,1.36,1.285,1.383.377,0,1.032-.038,1.486-.074v2.948a12.167,12.167,0,0,1-1.991.125c-2.7.012-4.533-1.2-4.509-3.854V63.6H313.2V60.805h1.888V57.531h3.729v3.274h2.569Z" fill="#501d83"/>
        <path id="패스_29529" data-name="패스 29529" d="M325.581,55.213a1.906,1.906,0,1,1-2.041,1.917,1.994,1.994,0,0,1,2.041-1.917m-1.866,5.592h3.729V74.482h-3.729Z" fill="#501d83"/>
        <path id="패스_29530" data-name="패스 29530" d="M337.614,63.6h-2.721V74.482h-3.727V63.6h-1.94V60.805h1.94V59.772c0-2.883,1.738-4.383,4.483-4.383a9.838,9.838,0,0,1,2.217.227v2.82c-.542-.049-.932-.061-1.134-.074-1.2.013-1.839.467-1.839,1.612v.831h2.721Z" fill="#501d83"/>
        <path id="패스_29531" data-name="패스 29531" d="M341.659,55.213a1.906,1.906,0,1,1-2.041,1.917,2,2,0,0,1,2.041-1.917M339.8,60.805h3.727V74.482H339.8Z" fill="#501d83"/>
        <path id="패스_29532" data-name="패스 29532" d="M345.859,67.682c-.011-4.181,2.557-7.054,6.7-7.054,3.527,0,5.92,2.054,6.07,5.19h-3.5a2.5,2.5,0,0,0-2.519-2.292c-1.789.013-2.972,1.511-2.972,4.106,0,2.645,1.158,4.154,2.972,4.154a2.469,2.469,0,0,0,2.519-2.265h3.5c-.163,3.1-2.442,5.226-6.07,5.238-4.194-.012-6.711-2.908-6.7-7.077" fill="#501d83"/>
        <path id="패스_29533" data-name="패스 29533" d="M362.8,55.213a1.906,1.906,0,1,1-2.04,1.917,1.993,1.993,0,0,1,2.04-1.917m-1.865,5.592h3.729V74.482h-3.729Z" fill="#501d83"/>
        <path id="패스_29534" data-name="패스 29534" d="M371.982,66.447c.982-.063,2.82-.151,3.4-.176V65.162c-.012-1.147-.793-1.8-2.192-1.814a2.06,2.06,0,0,0-2.265,1.513h-3.552c.227-2.368,2.292-4.234,5.918-4.234,2.986,0,5.806,1.338,5.8,4.636v9.219h-3.527V72.594h-.1a4.2,4.2,0,0,1-4.005,2.14c-2.619.013-4.547-1.372-4.558-4.08.011-3.049,2.456-4.043,5.087-4.207m.53,5.718a2.646,2.646,0,0,0,2.87-2.57v-1c-.566.027-2.165.114-2.8.164-1.3.114-2.115.731-2.115,1.789s.844,1.6,2.041,1.612" fill="#501d83"/>
        <rect id="사각형_2488" data-name="사각형 2488" width="3.727" height="18.237" transform="translate(381.918 56.246)" fill="#501d83"/>
        <rect id="사각형_2489" data-name="사각형 2489" width="3.779" height="18.237" transform="translate(394.549 56.246)" fill="#501d83"/>
        <path id="패스_29535" data-name="패스 29535" d="M405.046,74.482h-3.729V60.805h3.552V63.2h.152a4.135,4.135,0,0,1,4.105-2.571c2.86,0,4.723,1.953,4.71,5.141v8.714h-3.7v-8.06c-.014-1.686-.919-2.7-2.468-2.7a2.553,2.553,0,0,0-2.62,2.846Z" fill="#501d83"/>
        <path id="패스_29536" data-name="패스 29536" d="M423.922,63.6h-2.569v6.677c-.013,1.094.528,1.36,1.285,1.383.377,0,1.032-.038,1.486-.074v2.948a12.167,12.167,0,0,1-1.991.125c-2.7.012-4.533-1.2-4.509-3.854V63.6h-1.888V60.805h1.888V57.531h3.729v3.274h2.569Z" fill="#501d83"/>
        <path id="패스_29537" data-name="패스 29537" d="M425.563,67.707c-.012-4.219,2.6-7.079,6.6-7.079,3.59,0,6.424,2.268,6.424,6.928v1.058h-9.344a3.032,3.032,0,0,0,3.147,3.35,2.638,2.638,0,0,0,2.543-1.386h3.552c-.527,2.531-2.794,4.17-6.169,4.181-4.194-.011-6.763-2.719-6.751-7.052m9.5-1.435a2.72,2.72,0,0,0-2.823-2.847,2.927,2.927,0,0,0-3,2.847Z" fill="#501d83"/>
        <rect id="사각형_2490" data-name="사각형 2490" width="3.727" height="18.237" transform="translate(440.913 56.246)" fill="#501d83"/>
        <rect id="사각형_2491" data-name="사각형 2491" width="3.727" height="18.237" transform="translate(447.531 56.246)" fill="#501d83"/>
        <path id="패스_29538" data-name="패스 29538" d="M456.012,55.213a1.906,1.906,0,1,1-2.041,1.917,2,2,0,0,1,2.041-1.917m-1.864,5.592h3.727V74.482h-3.727Z" fill="#501d83"/>
        <path id="패스_29539" data-name="패스 29539" d="M460.589,75.616h3.678c.2,1.1,1.234,1.585,2.721,1.585,1.724,0,2.885-.743,2.9-2.644V72.064h-.175A3.957,3.957,0,0,1,465.8,74.28c-3.086.014-5.567-2.166-5.567-6.724,0-4.623,2.543-6.928,5.567-6.928a4.045,4.045,0,0,1,3.905,2.469h.15V60.805h3.7V74.633c-.014,3.489-2.758,5.265-6.65,5.265-3.779,0-6.108-1.7-6.323-4.282m6.374-4.131c1.864-.011,2.921-1.448,2.921-3.88S468.84,63.6,466.963,63.6c-1.9,0-2.91,1.65-2.9,4.005-.014,2.369,1.006,3.869,2.9,3.88" fill="#501d83"/>
        <path id="패스_29540" data-name="패스 29540" d="M475.888,67.707c-.011-4.219,2.6-7.079,6.6-7.079,3.59,0,6.423,2.268,6.423,6.928v1.058h-9.344a3.033,3.033,0,0,0,3.148,3.35,2.639,2.639,0,0,0,2.543-1.386h3.552c-.528,2.531-2.795,4.17-6.17,4.181-4.194-.011-6.762-2.719-6.751-7.052m9.5-1.435a2.72,2.72,0,0,0-2.822-2.847,2.928,2.928,0,0,0-3,2.847Z" fill="#501d83"/>
        <path id="패스_29541" data-name="패스 29541" d="M494.966,74.482h-3.727V60.805h3.552V63.2h.15a4.139,4.139,0,0,1,4.107-2.571c2.858,0,4.721,1.953,4.71,5.141v8.714h-3.7v-8.06c-.012-1.686-.919-2.7-2.468-2.7a2.553,2.553,0,0,0-2.62,2.846Z" fill="#501d83"/>
        <path id="패스_29542" data-name="패스 29542" d="M506.084,67.682c-.011-4.181,2.557-7.054,6.7-7.054,3.527,0,5.92,2.054,6.071,5.19h-3.5a2.5,2.5,0,0,0-2.519-2.292c-1.789.013-2.972,1.511-2.972,4.106,0,2.645,1.158,4.154,2.972,4.154a2.469,2.469,0,0,0,2.519-2.265h3.5c-.164,3.1-2.443,5.226-6.071,5.238-4.194-.012-6.711-2.908-6.7-7.077" fill="#501d83"/>
        <path id="패스_29543" data-name="패스 29543" d="M520.6,67.707c-.013-4.219,2.593-7.079,6.6-7.079,3.59,0,6.423,2.268,6.423,6.928v1.058h-9.344a3.033,3.033,0,0,0,3.147,3.35,2.643,2.643,0,0,0,2.544-1.386h3.552c-.53,2.531-2.8,4.17-6.172,4.181-4.194-.011-6.762-2.719-6.749-7.052m9.495-1.435a2.719,2.719,0,0,0-2.82-2.847,2.927,2.927,0,0,0-3,2.847Z" fill="#501d83"/>
        <path id="패스_29544" data-name="패스 29544" d="M117.479,24.866h20.937v4.378h-7.838V50.428h-5.261V29.244h-7.838Z" fill="#501d83"/>
        <path id="패스_29545" data-name="패스 29545" d="M137.109,50.428l8.862-25.562h6.815l8.826,25.562h-5.684L154,44.532h-9.251l-1.924,5.9ZM152.662,40.4l-3.2-9.78h-.177L146.1,40.4Z" fill="#501d83"/>
        <path id="패스_29546" data-name="패스 29546" d="M164.508,24.866h17.159v4.378H169.8v6.214h10.981v4.378H169.8V46.05h11.9v4.378H164.508Z" fill="#501d83"/>
        <path id="패스_29547" data-name="패스 29547" d="M201.263,24.866V42.7c0,4.961-3.513,8.085-8.65,8.085-4.625,0-8.244-2.436-8.227-7.485h5.3a2.984,2.984,0,0,0,3.178,3.213c2.03,0,3.142-1.306,3.142-3.813V24.866Z" fill="#501d83"/>
        <path id="패스_29548" data-name="패스 29548" d="M204.122,50.428l8.862-25.562H219.8l8.826,25.562h-5.684l-1.924-5.9h-9.251l-1.924,5.9ZM219.675,40.4l-3.2-9.78H216.3l-3.195,9.78Z" fill="#501d83"/>
        <path id="패스_29549" data-name="패스 29549" d="M231.521,24.866H248.68v4.378H236.817v6.214H247.8v4.378H236.817V46.05h11.9v4.378H231.521Z" fill="#501d83"/>
        <path id="패스_29550" data-name="패스 29550" d="M131.4,68.914a3.224,3.224,0,0,1-6.445,0V59.009h-3.243V69.174c0,3.427,2.573,5.72,6.466,5.709,3.882.011,6.488-2.282,6.488-5.709V59.009H131.4Z" fill="#501d83"/>
        <path id="패스_29551" data-name="패스 29551" d="M147.622,68.957h-.151l-6.834-9.948h-2.855V74.666h3.244V64.718h.13l6.877,9.948h2.811V59.009h-3.222Z" fill="#501d83"/>
        <rect id="사각형_2492" data-name="사각형 2492" width="3.244" height="15.657" transform="translate(153.966 59.009)" fill="#501d83"/>
        <path id="패스_29552" data-name="패스 29552" d="M166.3,70.946h-.151l-3.807-11.937H158.71l5.428,15.657h4.174l5.407-15.657h-3.59Z" fill="#501d83"/>
        <path id="패스_29553" data-name="패스 29553" d="M178.466,68.178h6.726V65.5h-6.726V61.69h7.266V59.009h-10.51V74.666h10.532V71.984h-7.288Z" fill="#501d83"/>
        <path id="패스_29554" data-name="패스 29554" d="M200.466,64.113c0-3.1-2.044-5.1-5.6-5.1h-6.142V74.666h3.244V69.108h2.476l3,5.558h3.59L197.7,68.579a4.525,4.525,0,0,0,2.769-4.466m-6.207,2.357h-2.292v-4.8h2.292c1.925.011,2.865.865,2.855,2.444.01,1.568-.93,2.357-2.855,2.357" fill="#501d83"/>
        <path id="패스_29555" data-name="패스 29555" d="M209.933,65.605l-1.406-.346c-1.351-.3-2.519-.811-2.508-1.946.011-1.038.93-1.795,2.573-1.795,1.59,0,2.574.724,2.7,1.968h3.115c-.044-2.768-2.325-4.693-5.8-4.693-3.428,0-5.936,1.892-5.926,4.736,0,2.292,1.622,3.611,4.261,4.26l1.708.411c1.709.422,2.682.919,2.682,1.99,0,1.168-1.1,1.968-2.812,1.968-1.73,0-2.984-.8-3.092-2.379h-3.158c.1,3.363,2.509,5.114,6.294,5.1,3.817.01,6.044-1.828,6.055-4.693-.011-2.606-2.011-3.969-4.693-4.585" fill="#501d83"/>
        <rect id="사각형_2493" data-name="사각형 2493" width="3.244" height="15.657" transform="translate(216.983 59.009)" fill="#501d83"/>
        <path id="패스_29556" data-name="패스 29556" d="M245.636,59.009l-3.59,6.747h-.151l-3.612-6.747H221.907v2.682h4.8V74.666h3.222V61.691h4.8v-2.5l5.607,9.9v5.579h3.244V69.087l5.709-10.078Z" fill="#501d83"/>
        <rect id="사각형_2494" data-name="사각형 2494" width="24.89" height="24.89" transform="translate(0 0)" fill="#009b88"/>
        <path id="패스_29557" data-name="패스 29557" d="M49.779,0,24.89,24.889V74.668H49.779V24.889H74.668V0Z" fill="#321f78"/>
        <path id="패스_29558" data-name="패스 29558" d="M99.558,24.89H74.668V74.669H49.779V99.114A44.04,44.04,0,0,0,56,99.558,43.557,43.557,0,0,0,99.558,56.023Z" fill="#321f78"/>
        <path id="패스_29559" data-name="패스 29559" d="M49.779,49.779V24.889h24.89Z" fill="#0087dc"/>
        <rect id="사각형_2495" data-name="사각형 2495" width="24.89" height="24.89" transform="translate(0 0)" fill="#009b88"/>
        <path id="패스_29560" data-name="패스 29560" d="M49.779,0,24.89,24.889V74.668H49.779V24.889H74.668V0Z" fill="#501d83"/>
        <path id="패스_29561" data-name="패스 29561" d="M99.558,24.89H74.668V74.669H49.779V99.114A44.04,44.04,0,0,0,56,99.558,43.557,43.557,0,0,0,99.558,56.023Z" fill="#321f78"/>
        <path id="패스_29564" data-name="패스 29564" d="M0,0H24.89V24.89H0Z" transform="translate(0 0)" fill="#00a497"/>
        <path id="패스_29562" data-name="패스 29562" d="M49.779,0,24.89,24.889V74.668H49.779V24.889H74.668V0Z" fill="#501d83"/>
        <path id="패스_29563" data-name="패스 29563" d="M99.558,24.89H74.668V74.669H49.779V99.114A44.04,44.04,0,0,0,56,99.558,43.557,43.557,0,0,0,99.558,56.023Z" fill="#501d83"/>
      </g>
    </g>
  </g>
</svg>
