<svg xmlns="http://www.w3.org/2000/svg" width="350" height="1518" viewBox="0 0 350 1518">
  <g id="diagram_organization" data-name="diagram/organization" transform="translate(-260 382)">
    <g id="bottom" transform="translate(-30 -631)">
      <path id="line" d="M10046,15171l-124-60" transform="translate(-9458 -14438)" fill="none" stroke="#999" stroke-linecap="round" stroke-width="1"/>
      <path id="line-2" data-name="line" d="M10220,15171l122-60" transform="translate(-9878 -14438)" fill="none" stroke="#999" stroke-linecap="round" stroke-width="1"/>
      <rect id="line-3" data-name="line" width="1" height="344" transform="translate(464 389)" fill="#999"/>
      <g id="item" transform="translate(76 -498)">
        <circle id="oval" cx="52" cy="52" r="52" transform="translate(460 1231)" fill="#999"/>
        <path id="패스_31460" data-name="패스 31460" d="M.518-3.99v1.022H5.446V1.078h1.26V-2.968h5V-3.99ZM1.9-5.4H10.29v-5.362H9.03v1.61H3.164v-1.61H1.9ZM3.164-6.44V-8.134H9.03V-6.44Zm9.59,1.316V-4.1H23.94V-5.124H18.956v-1.82H17.7v1.82Zm.644-2.17.476,1.022A6.219,6.219,0,0,0,18.326-8.9a6.217,6.217,0,0,0,4.438,2.632l.49-1.022C20.916-7.6,18.97-8.974,18.97-10.57v-.5H17.682v.5C17.682-8.974,15.736-7.6,13.4-7.294ZM14-1.946h7.266V1.078H22.54V-2.968H14Zm19.866-9.338V1.064h1.288V-11.284ZM25.1-2.2l.672,1.008c4.2-2.03,5.726-5.152,5.726-8.778H25.69v1.036h4.522C29.96-6.034,28.378-3.78,25.1-2.2ZM37.87-10.332V-9.3H42.8a15.081,15.081,0,0,1-.322,3.15l1.246.14a17.316,17.316,0,0,0,.322-3.64v-.686Zm-.742,5.4.14,1.036a46.535,46.535,0,0,0,7.644-.5l-.084-.924c-1.232.168-2.6.266-3.92.322V-7.56h-1.26v2.6C38.738-4.928,37.884-4.928,37.128-4.928ZM38.99.812h8.3V-.238H40.264v-2.59H38.99ZM45.612-2H46.9V-6.258h1.694v-1.05H46.9v-3.976H45.612Z" transform="translate(488 1288)" fill="#fff"/>
      </g>
      <g id="item-2" data-name="item" transform="translate(-47 -498)">
        <circle id="oval-2" data-name="oval" cx="52" cy="52" r="52" transform="translate(460 1231)" fill="#999"/>
        <path id="School" d="M.624-11.456v1.168H8.96v-1.168H5.52v-1.52H4.064v1.52Zm.768,4.4c0,1.552,1.376,2.544,3.392,2.544,2.032,0,3.408-.992,3.408-2.544S6.816-9.632,4.784-9.632C2.768-9.632,1.392-8.608,1.392-7.056Zm.976,4.9h7.744V1.232h1.472V-3.344H2.368Zm.416-4.9c0-.9.8-1.44,2-1.44s2,.544,2,1.44c0,.864-.8,1.44-2,1.44S2.784-6.192,2.784-7.056Zm7.328,2.992h1.472V-7.84h2.032V-9.056H11.584V-12.88H10.112Zm4.464-.5v1.168h5.632V1.232h1.44V-3.392H27.36V-4.56ZM16.16-6.176h9.584V-12.3H24.3v1.84H17.6V-12.3H16.16ZM17.6-7.36V-9.3h6.7V-7.36Z" transform="translate(498 1289)" fill="#fff"/>
      </g>
      <g id="item-3" data-name="item" transform="translate(-170 -498)">
        <circle id="oval-3" data-name="oval" cx="52" cy="52" r="52" transform="translate(460 1231)" fill="#999"/>
        <path id="패스_31459" data-name="패스 31459" d="M11.2-12.9v5.6H9.376v-5.3H8.016V.5h1.36V-6.08H11.2v7.3h1.392V-12.9ZM1.088-2.192h.928a25.08,25.08,0,0,0,5.184-.4l-.16-1.2a23.37,23.37,0,0,1-4.512.384V-10H6.3v-1.184H1.088Zm13.52-9.264v1.168h8.336v-1.168H19.5v-1.52H18.048v1.52Zm.768,4.4c0,1.552,1.376,2.544,3.392,2.544,2.032,0,3.408-.992,3.408-2.544S20.8-9.632,18.768-9.632C16.752-9.632,15.376-8.608,15.376-7.056Zm.976,4.9H24.1V1.232h1.472V-3.344H16.352Zm.416-4.9c0-.9.8-1.44,2-1.44s2,.544,2,1.44c0,.864-.8,1.44-2,1.44S16.768-6.192,16.768-7.056ZM24.1-4.064h1.472V-7.84H27.6V-9.056H25.568V-12.88H24.1Zm6.144-8.272v5.664h3.968v1.44H28.56v1.168H41.312V-5.232H35.648v-1.44h4.016v-5.664H38.208v1.664H31.68v-1.664ZM30.192.944h9.7v-1.2h-8.24V-2.992H30.192ZM31.68-7.824v-1.7h6.528v1.7ZM42.544-4.56v1.168h5.632V1.232h1.44V-3.392h5.712V-4.56Zm1.584-1.616h9.584V-12.3h-1.44v1.84h-6.7V-12.3h-1.44Zm1.44-1.184V-9.3h6.7V-7.36Z" transform="translate(484 1289)" fill="#fff"/>
      </g>
      <g id="set" transform="translate(246 -336)">
        <g id="oval-4" data-name="oval" transform="translate(337 1169)" fill="#999" stroke="#fff" stroke-width="1.5">
          <circle cx="5" cy="5" r="5" stroke="none"/>
          <circle cx="5" cy="5" r="4.25" fill="none"/>
        </g>
        <path id="line-4" data-name="line" d="M9922,15145v-374" transform="translate(-9580 -13592)" fill="none" stroke="#999" stroke-width="1"/>
        <g id="items" transform="translate(30 -34)">
          <g id="item-4" data-name="item" transform="translate(0 784.5)">
            <rect id="base" width="104" height="70" rx="4" transform="translate(260 1282.5)" fill="#f3f3f3"/>
            <path id="패스_31479" data-name="패스 31479" d="M9.366-11.284V1.092H10.64V-11.284ZM1.3-1.946H2.31a29.884,29.884,0,0,0,5.964-.406L8.148-3.43a27.514,27.514,0,0,1-5.586.406V-9.058H7.168v-1.064H1.3Zm11.83-8.092v1.064h2.814V-7.6A6.231,6.231,0,0,1,12.726-2.3l.728,1.008A6.617,6.617,0,0,0,16.59-5.264,6.233,6.233,0,0,0,19.754-1.6L20.468-2.6a5.69,5.69,0,0,1-3.248-5V-8.974h2.828v-1.064ZM21.588,1.078h1.274V-11.27H21.588Zm4.018-11.606v5.46h.91a31.39,31.39,0,0,0,5.376-.294L31.78-6.37a29.42,29.42,0,0,1-4.914.28V-7.378h3.99v-.966h-3.99V-9.52h4.326v-1.008Zm1.582,7.406h6.734v1.036H27.216V.952h8.4V-.056h-7.14V-1.148h6.706V-4.116H27.188Zm4.494-4.34h2.24v2.8h1.26v-6.622h-1.26V-8.5h-2.24Zm10.164-2.87v5.8h3.542v3.024H40.446V-.448H51.632V-1.512h-4.97V-4.536h3.71v-1.05H43.12V-9.3h7.126v-1.036Zm17.01,3.178v1.036H61.6v7.21h1.274V-11.3H61.6v4.144Zm-6.23,4.62.8,1.022a6.631,6.631,0,0,0,3.01-4.018,6.368,6.368,0,0,0,3,3.808l.756-1.022a6.047,6.047,0,0,1-3.122-5.39v-2.114H55.79v2.114A6.4,6.4,0,0,1,52.626-2.534Zm12.936-7.8V-9.3H70.49a15.081,15.081,0,0,1-.322,3.15l1.246.14a17.316,17.316,0,0,0,.322-3.64v-.686Zm-.742,5.4.14,1.036A46.535,46.535,0,0,0,72.6-4.4L72.52-5.32c-1.232.168-2.6.266-3.92.322V-7.56H67.34v2.6C66.43-4.928,65.576-4.928,64.82-4.928ZM66.682.812h8.3V-.238H67.956v-2.59H66.682ZM73.3-2h1.288V-6.258h1.694v-1.05H74.592v-3.976H73.3Z" transform="translate(274 1322.5)" fill="#1f1f1f"/>
          </g>
          <g id="item-5" data-name="item" transform="translate(0 688.5)">
            <g id="base-2" data-name="base" transform="translate(260 1282.5)" fill="#fff" stroke="#dbdbdb" stroke-width="1">
              <rect width="104" height="88" rx="4" stroke="none"/>
              <rect x="0.5" y="0.5" width="103" height="87" rx="3.5" fill="none"/>
            </g>
            <path id="패스_31478" data-name="패스 31478" d="M9.8-11.284v4.9H8.2v-4.634H7.014V.434H8.2V-5.32H9.8V1.064h1.218V-11.284ZM.952-1.918h.812A21.945,21.945,0,0,0,6.3-2.268l-.14-1.05a20.449,20.449,0,0,1-3.948.336V-8.75h3.3V-9.786H.952ZM21.574-11.27V1.078h1.288V-11.27ZM12.81-2.282l.168,1.064a47.275,47.275,0,0,0,7.938-.49l-.084-.938c-1.078.14-2.226.224-3.374.28V-3.584c1.414-.2,2.338-1.036,2.338-2.24,0-1.386-1.218-2.3-3-2.3s-2.982.91-2.982,2.3c0,1.218.924,2.058,2.352,2.24V-2.31C14.966-2.282,13.818-2.282,12.81-2.282Zm.252-6.5h7.49V-9.8H17.458v-1.456H16.17V-9.8H13.062Zm1.96,2.954c0-.812.742-1.316,1.778-1.316,1.064,0,1.792.5,1.792,1.316s-.728,1.3-1.792,1.3C15.764-4.522,15.022-5.026,15.022-5.824ZM31.934-8.456v1.022h1.96v1.386H31.906v1.036h1.988v1.036h1.274V-11.27H33.894v2.814ZM25-9.058h6.888v-1.036H29.148v-1.3H27.86v1.3H25Zm.672,2.772c0,1.33,1.162,2.226,2.814,2.226s2.814-.9,2.814-2.226S30.156-8.512,28.49-8.512,25.676-7.63,25.676-6.286Zm1.2,0c0-.77.63-1.274,1.61-1.274s1.624.5,1.624,1.274-.658,1.274-1.624,1.274S26.88-5.516,26.88-6.286Zm.252,7.2h8.036V-3.458h-1.26v1.19H28.392v-1.19h-1.26ZM28.392-.1v-1.19h5.516V-.1Zm9.3-10.444v1.036h4.1v1.568H37.73v3.766h.882A27.752,27.752,0,0,0,43.82-4.48l-.126-1.036a24.254,24.254,0,0,1-4.7.308v-1.75h4.06v-3.584ZM39.116-2h7.028V1.092h1.274v-4.13h-8.3Zm4.718-3.864h2.31v2.184h1.274V-11.27H46.144v1.792h-2.31v1.05h2.31v1.54h-2.31ZM54.446-8.232v1.05h1.806v4.816h1.2v-8.68h-1.2v2.814Zm-5.012,3.5.714.98a4.9,4.9,0,0,0,2.408-2.772A4.467,4.467,0,0,0,54.81-4.06l.7-.966a4,4,0,0,1-2.352-3.64v-1.75H51.926v1.75A4.459,4.459,0,0,1,49.434-4.732ZM51.772.812h8.47V-.238h-7.2v-2.9H51.772Zm6.9-2.842h1.218v-9.24H58.674ZM70.63-11.3v4.606H68.18v1.036h2.45V1.092H71.9V-11.3ZM62.258-1.834h.952a30.618,30.618,0,0,0,5.6-.378l-.126-1.036a27.574,27.574,0,0,1-5.166.364V-5.7h3.934V-6.72H63.518V-9.128H67.97v-1.036H62.258Z" transform="translate(276 1331.5)" fill="#1f1f1f"/>
          </g>
          <g id="item-6" data-name="item" transform="translate(0 610.5)">
            <g id="base-3" data-name="base" transform="translate(260 1282.5)" fill="#fff" stroke="#dbdbdb" stroke-width="1">
              <rect width="104" height="70" rx="4" stroke="none"/>
              <rect x="0.5" y="0.5" width="103" height="69" rx="3.5" fill="none"/>
            </g>
            <path id="Design_Center" data-name="Design Center" d="M9.366-11.284V1.092H10.64V-11.284ZM1.3-1.946H2.31a29.884,29.884,0,0,0,5.964-.406L8.148-3.43a27.514,27.514,0,0,1-5.586.406V-9.058H7.168v-1.064H1.3Zm11.676-8.092v1.064H15.75V-7.6A6.321,6.321,0,0,1,12.544-2.3l.742,1.008a6.785,6.785,0,0,0,3.094-3.99A6.381,6.381,0,0,0,19.418-1.6L20.146-2.6a5.845,5.845,0,0,1-3.136-5V-8.974h2.66v-1.064ZM21,1.078h1.288V-5.278h1.96V-6.342h-1.96V-11.27H21ZM33.852-11.27V-2.3H35.14V-11.27Zm-8.61,3.906A3.073,3.073,0,0,0,28.49-4.312a3.065,3.065,0,0,0,3.248-3.052A3.059,3.059,0,0,0,28.49-10.43,3.067,3.067,0,0,0,25.242-7.364Zm1.246,0a1.908,1.908,0,0,1,2-1.96,1.912,1.912,0,0,1,2.016,1.96A1.905,1.905,0,0,1,28.49-5.432,1.9,1.9,0,0,1,26.488-7.364ZM27.146.812H35.5V-.238H28.42V-3.206H27.146ZM42.21-8.232v1.05h1.806v4.816h1.2v-8.68h-1.2v2.814ZM37.2-4.732l.714.98A4.9,4.9,0,0,0,40.32-6.524,4.467,4.467,0,0,0,42.574-4.06l.7-.966a4,4,0,0,1-2.352-3.64v-1.75H39.69v1.75A4.459,4.459,0,0,1,37.2-4.732ZM39.536.812h8.47V-.238h-7.2v-2.9H39.536Zm6.9-2.842h1.218v-9.24H46.438ZM58.394-11.3v4.606h-2.45v1.036h2.45V1.092h1.274V-11.3ZM50.022-1.834h.952a30.618,30.618,0,0,0,5.6-.378l-.126-1.036a27.574,27.574,0,0,1-5.166.364V-5.7h3.934V-6.72H51.282V-9.128h4.452v-1.036H50.022Z" transform="translate(282 1322.5)" fill="#1f1f1f"/>
          </g>
          <g id="item-7" data-name="item" transform="translate(0 514.5)">
            <rect id="base-4" data-name="base" width="104" height="88" rx="4" transform="translate(260 1282.5)" fill="#f3f3f3"/>
            <path id="패스_31477" data-name="패스 31477" d="M-30.072-4.284v1.05h2.786v4.3h1.316v-4.3h2.94v4.3h1.3v-4.3h2.842v-1.05Zm1.2-3.808c0,1.666,1.764,2.7,4.354,2.7s4.354-1.036,4.354-2.7-1.75-2.688-4.354-2.688S-28.868-9.758-28.868-8.092Zm1.316,0c0-1.022,1.218-1.68,3.038-1.68s3.052.658,3.052,1.68c0,1.05-1.218,1.68-3.052,1.68S-27.552-7.042-27.552-8.092Zm18.606-3.192V1.064h1.26V-11.284Zm-8.148,9.2h1.05A29.061,29.061,0,0,0-10-2.674l-.168-1.078a28.19,28.19,0,0,1-5.656.574v-6.9h-1.274ZM3.332-11.3v4.55H.616V-10.3H-.644v3.15H-3.85V-10.3H-5.124v8.33H.616V-5.712H3.332v6.8H4.606V-11.3ZM-3.85-3.024V-6.146H-.644v3.122Zm13.664-7.21v2.1A6.328,6.328,0,0,1,6.538-2.52l.77,1.05A6.576,6.576,0,0,0,10.486-5.5,6.394,6.394,0,0,0,13.58-1.708l.756-1.022a6.094,6.094,0,0,1-3.234-5.4v-2.1ZM15.47,1.092h1.274V-11.3H15.47Zm4.158-11.27v8.316h.994a32.507,32.507,0,0,0,5.922-.392l-.126-1.022a32.556,32.556,0,0,1-5.53.364v-2.8H25.2V-6.72H20.888V-9.128h4.774v-1.05Zm8.12,11.256h1.288V-11.27H27.748ZM-32.9,7.654c-1.82,0-3.136,1.666-3.136,4.326s1.316,4.34,3.136,4.34,3.136-1.694,3.136-4.34S-31.066,7.654-32.9,7.654Zm-1.9,4.326c0-1.96.77-3.178,1.9-3.178s1.918,1.218,1.918,3.178-.784,3.192-1.918,3.192S-34.8,13.94-34.8,11.98Zm6.874,7.1h1.288V12.666h1.96V11.6h-1.96V6.73H-27.93ZM-15.106,6.7v12.39h1.274V6.7Zm-8.428,5.278c0,2.646,1.316,4.34,3.164,4.34s3.164-1.694,3.164-4.34-1.33-4.326-3.164-4.326S-23.534,9.32-23.534,11.98Zm1.232,0c0-1.96.8-3.178,1.932-3.178s1.932,1.218,1.932,3.178-.8,3.192-1.932,3.192S-22.3,13.94-22.3,11.98Zm11.172-4.2v6.062h.784a22.81,22.81,0,0,0,4.55-.35l-.126-1.022a20.347,20.347,0,0,1-3.962.364V8.8h3.458V7.78Zm1.792,11.032h8.47V17.748h-7.2V14.822H-9.338ZM-7.2,11.154h2.338v4.382h1.2V6.968h-1.2v3.15H-7.2Zm4.746,4.69h1.218V6.716H-2.45ZM1.274,7.822v8.316h.994a32.507,32.507,0,0,0,5.922-.392l-.126-1.022a32.556,32.556,0,0,1-5.53.364v-2.8H6.846V11.28H2.534V8.872H7.308V7.822Zm8.12,11.256h1.288V6.73H9.394ZM13.51,7.822v8.316H14.5a32.507,32.507,0,0,0,5.922-.392L20.3,14.724a32.556,32.556,0,0,1-5.53.364v-2.8h4.312V11.28H14.77V8.872h4.774V7.822Zm8.12,11.256h1.288V6.73H21.63ZM33.88,6.716V14H31.416v.9H33.88V16.11h1.274V6.716Zm-8.96,5.656.168,1.05c.994,0,2.142-.014,3.332-.07V15.69h1.274V13.282c1.092-.07,2.2-.182,3.248-.35l-.084-.924A65.836,65.836,0,0,1,24.92,12.372Zm.952-3.01c0,1.316,1.246,2.17,3.052,2.17s3.038-.854,3.038-2.17S30.73,7.206,28.924,7.206,25.872,8.06,25.872,9.362Zm.756,9.45h8.82v-1.05H27.9V15.2H26.628Zm.462-9.45c0-.742.756-1.218,1.834-1.218s1.82.476,1.82,1.218S30,10.58,28.924,10.58,27.09,10.118,27.09,9.362Z" transform="translate(309 1322.5)" fill="#1f1f1f"/>
          </g>
          <g id="item-8" data-name="item" transform="translate(0 418.5)">
            <g id="base-5" data-name="base" transform="translate(260 1282.5)" fill="#fff" stroke="#dbdbdb" stroke-width="1">
              <rect width="104" height="88" rx="4" stroke="none"/>
              <rect x="0.5" y="0.5" width="103" height="87" rx="3.5" fill="none"/>
            </g>
            <path id="패스_31476" data-name="패스 31476" d="M-16.534-10.71v1.036H-9.3v.042c0,.392,0,.77-.014,1.19l-7.518.224.168,1.078,7.294-.35a14.668,14.668,0,0,1-.266,1.848l1.26.084a18.859,18.859,0,0,0,.336-4.074V-10.71Zm-1.288,6.958h11.13V-4.774H-12.11V-6.5H-13.4v1.722h-4.424ZM-16.436.9H-7.77V-.154h-7.392v-2.6h-1.274ZM-.294-7.812v1.036H1.218v4.438h1.2v-8.694h-1.2v3.22ZM-5.054-4h.8A21.3,21.3,0,0,0,.252-4.326L.14-5.334a20.694,20.694,0,0,1-3.962.308V-6.678H-.868V-7.686H-3.822V-9.24h3.43v-1.036H-5.054ZM-3.22.812H5.194V-.238h-7.14v-2.8H-3.22ZM3.612-2.03H4.844v-9.254H3.612Zm3.024.49V-.476H17.822V-1.54Zm.588-2.982.5,1.036a6.194,6.194,0,0,0,4.494-2.926A6.25,6.25,0,0,0,16.73-3.486l.476-1.036c-2.478-.42-4.3-1.96-4.326-3.836h3.906V-9.38h-3.92v-1.652H11.592V-9.38H7.672v1.022h3.92C11.564-6.482,9.716-4.942,7.224-4.522ZM-21.224,6.716V19.092h1.274V6.716Zm-8.064,9.338h1.008a29.884,29.884,0,0,0,5.964-.406l-.126-1.078a27.514,27.514,0,0,1-5.586.406V8.942h4.606V7.878h-5.866Zm11.676-8.092V9.026h2.772V10.4A6.321,6.321,0,0,1-18.046,15.7l.742,1.008a6.785,6.785,0,0,0,3.094-3.99A6.381,6.381,0,0,0-11.172,16.4l.728-1.008a5.845,5.845,0,0,1-3.136-5V9.026h2.66V7.962ZM-9.59,19.078H-8.3V12.722h1.96V11.658H-8.3V6.73H-9.59ZM3.262,6.73V15.7H4.55V6.73Zm-8.61,3.906A3.073,3.073,0,0,0-2.1,13.688a3.065,3.065,0,0,0,3.248-3.052A3.059,3.059,0,0,0-2.1,7.57,3.067,3.067,0,0,0-5.348,10.636Zm1.246,0a1.908,1.908,0,0,1,2-1.96,1.912,1.912,0,0,1,2.016,1.96A1.905,1.905,0,0,1-2.1,12.568,1.9,1.9,0,0,1-4.1,10.636Zm.658,8.176H4.914v-1.05H-2.17V14.794H-3.444ZM11.62,9.768v1.05h1.806v4.816h1.2V6.954h-1.2V9.768Zm-5.012,3.5.714.98A4.9,4.9,0,0,0,9.73,11.476a4.467,4.467,0,0,0,2.254,2.464l.7-.966a4,4,0,0,1-2.352-3.64V7.584H9.1v1.75A4.459,4.459,0,0,1,6.608,13.268Zm2.338,5.544h8.47v-1.05h-7.2v-2.9H8.946Zm6.9-2.842h1.218V6.73H15.848ZM27.8,6.7v4.606h-2.45v1.036H27.8v6.748h1.274V6.7Zm-8.372,9.464h.952a30.618,30.618,0,0,0,5.6-.378l-.126-1.036a27.574,27.574,0,0,1-5.166.364V12.3h3.934V11.28H20.692V8.872h4.452V7.836H19.432Z" transform="translate(312 1322.5)" fill="#1f1f1f"/>
          </g>
          <g id="item-9" data-name="item" transform="translate(0 322.5)">
            <g id="base-6" data-name="base" transform="translate(260 1282.5)" fill="#fff" stroke="#dbdbdb" stroke-width="1">
              <rect width="104" height="88" rx="4" stroke="none"/>
              <rect x="0.5" y="0.5" width="103" height="87" rx="3.5" fill="none"/>
            </g>
            <path id="패스_31475" data-name="패스 31475" d="M-10.584-10.094v1.05h7.518v.28a26.467,26.467,0,0,1-.42,5.39l1.26.14a27.288,27.288,0,0,0,.434-5.53v-1.33ZM-11.718-.6H-.546V-1.666h-4.2V-5.7h-1.26v4.032H-7.812V-5.7h-1.26v4.032h-2.646ZM.518-5.376V-4.34h2.87v1.456H1.764v1.022H9.03v2.94H10.3V-2.884H8.792V-4.34h2.884V-5.376Zm1.2-3.248c0,1.5,1.708,2.394,4.368,2.394s4.382-.9,4.382-2.394S8.764-10.99,6.09-10.99,1.722-10.108,1.722-8.624Zm1.316,0C3.038-9.492,4.2-10,6.09-10s3.066.5,3.066,1.372S7.994-7.252,6.09-7.252,3.038-7.742,3.038-8.624Zm1.624,5.74V-4.34H7.546v1.456ZM-29.4,7.906v8.106h5.74V7.906Zm1.26,7.07V8.928h3.234v6.048Zm6.916,4.116h1.274V6.7h-1.274ZM-8.988,6.716V19.092h1.274V6.716Zm-8.064,9.338h1.008a29.884,29.884,0,0,0,5.964-.406l-.126-1.078a27.514,27.514,0,0,1-5.586.406V8.942h4.606V7.878h-5.866ZM-2.3,7.654C-4.1,7.654-5.39,9.32-5.39,11.98S-4.1,16.32-2.3,16.32C-.588,16.32.672,14.808.8,12.4H3.332v6.692H4.606V6.7H3.332v4.676H.784C.6,9.068-.63,7.654-2.3,7.654Zm-1.89,4.326c0-1.96.77-3.178,1.89-3.178s1.89,1.218,1.89,3.178-.756,3.192-1.89,3.192S-4.186,13.94-4.186,11.98ZM11.62,9.768v1.05h1.806v4.816h1.2V6.954h-1.2V9.768Zm-5.012,3.5.714.98A4.9,4.9,0,0,0,9.73,11.476a4.467,4.467,0,0,0,2.254,2.464l.7-.966a4,4,0,0,1-2.352-3.64V7.584H9.1v1.75A4.459,4.459,0,0,1,6.608,13.268Zm2.338,5.544h8.47v-1.05h-7.2v-2.9H8.946Zm6.9-2.842h1.218V6.73H15.848ZM27.8,6.7v4.606h-2.45v1.036H27.8v6.748h1.274V6.7Zm-8.372,9.464h.952a30.618,30.618,0,0,0,5.6-.378l-.126-1.036a27.574,27.574,0,0,1-5.166.364V12.3h3.934V11.28H20.692V8.872h4.452V7.836H19.432Z" transform="translate(312 1322.5)" fill="#1f1f1f"/>
          </g>
          <g id="item-10" data-name="item" transform="translate(0 226.5)">
            <rect id="base-7" data-name="base" width="104" height="88" rx="4" transform="translate(260 1282.5)" fill="#f3f3f3"/>
            <path id="패스_31474" data-name="패스 31474" d="M1.652-10.094v1.05H9.17v.28a26.467,26.467,0,0,1-.42,5.39l1.26.14a27.288,27.288,0,0,0,.434-5.53v-1.33ZM.518-.6H11.69V-1.666H7.49V-5.7H6.23v4.032H4.424V-5.7H3.164v4.032H.518ZM12.754-5.376V-4.34h2.87v1.456H14v1.022h7.266v2.94H22.54V-2.884H21.028V-4.34h2.884V-5.376Zm1.2-3.248c0,1.5,1.708,2.394,4.368,2.394s4.382-.9,4.382-2.394S21-10.99,18.326-10.99,13.958-10.108,13.958-8.624Zm1.316,0c0-.868,1.162-1.372,3.052-1.372s3.066.5,3.066,1.372S20.23-7.252,18.326-7.252,15.274-7.742,15.274-8.624ZM16.9-2.884V-4.34h2.884v1.456Zm9.394-7.826v1.036H33.53v.042c0,.392,0,.77-.014,1.19L26-8.218l.168,1.078,7.294-.35a14.669,14.669,0,0,1-.266,1.848l1.26.084a18.859,18.859,0,0,0,.336-4.074V-10.71ZM25-3.752h11.13V-4.774H30.716V-6.5H29.428v1.722H25ZM26.39.9h8.666V-.154H27.664v-2.6H26.39ZM42.532-7.812v1.036h1.512v4.438h1.2v-8.694h-1.2v3.22ZM37.772-4h.8a21.3,21.3,0,0,0,4.508-.322l-.112-1.008A20.694,20.694,0,0,1,39-5.026V-6.678h2.954V-7.686H39V-9.24h3.43v-1.036H37.772ZM39.606.812H48.02V-.238H40.88v-2.8H39.606ZM46.438-2.03H47.67v-9.254H46.438Zm3.024.49V-.476H60.648V-1.54Zm.588-2.982.5,1.036a6.194,6.194,0,0,0,4.494-2.926,6.25,6.25,0,0,0,4.508,2.926l.476-1.036c-2.478-.42-4.3-1.96-4.326-3.836h3.906V-9.38h-3.92v-1.652H54.418V-9.38H50.5v1.022h3.92C54.39-6.482,52.542-4.942,50.05-4.522Zm20.538-6.762V-4H68.124v.9h2.464V-1.89h1.274v-9.394Zm-8.96,5.656.168,1.05c.994,0,2.142-.014,3.332-.07V-2.31H66.4V-4.718c1.092-.07,2.2-.182,3.248-.35l-.084-.924A65.837,65.837,0,0,1,61.628-5.628Zm.952-3.01c0,1.316,1.246,2.17,3.052,2.17s3.038-.854,3.038-2.17-1.232-2.156-3.038-2.156S62.58-9.94,62.58-8.638Zm.756,9.45h8.82V-.238H64.61V-2.8H63.336Zm.462-9.45c0-.742.756-1.218,1.834-1.218s1.82.476,1.82,1.218S66.71-7.42,65.632-7.42,63.8-7.882,63.8-8.638Z" transform="translate(276 1331.5)" fill="#1f1f1f"/>
          </g>
          <g id="item-11" data-name="item" transform="translate(0 130.5)">
            <rect id="base-8" data-name="base" width="104" height="88" rx="4" transform="translate(260 1282.5)" fill="#f3f3f3"/>
            <path id="패스_31473" data-name="패스 31473" d="M.546-10.024V-9H7.84v-1.022H4.83v-1.33H3.556v1.33Zm.672,3.85c0,1.358,1.2,2.226,2.968,2.226s2.982-.868,2.982-2.226-1.2-2.254-2.982-2.254S1.218-7.532,1.218-6.174ZM2.072-1.89H8.848V1.078h1.288v-4H2.072Zm.364-4.284c0-.784.7-1.26,1.75-1.26s1.75.476,1.75,1.26c0,.756-.7,1.26-1.75,1.26S2.436-5.418,2.436-6.174ZM8.848-3.556h1.288v-3.3h1.778V-7.924H10.136V-11.27H8.848Zm6.4-6.972v1.61a4.164,4.164,0,0,1-2.534,3.7l.672.994A4.716,4.716,0,0,0,15.876-6.9a4.287,4.287,0,0,0,2.38,2.31l.672-.966a3.672,3.672,0,0,1-2.45-3.36v-1.61ZM14.938-1.19c0,1.414,1.6,2.24,4.144,2.24S23.24.224,23.24-1.19s-1.6-2.226-4.158-2.226S14.938-2.59,14.938-1.19Zm1.26,0c0-.784,1.092-1.246,2.884-1.246s2.87.462,2.87,1.246S20.888.084,19.082.084,16.2-.392,16.2-1.19ZM19.32-4.06h1.2V-6.986h1.428v3.318h1.232v-7.6H21.952v3.234H20.524v-3h-1.2Zm8.722-6.524v1.218a4.4,4.4,0,0,1-3.094,4.172l.672,1.036a5.156,5.156,0,0,0,3.094-3.066,4.885,4.885,0,0,0,2.87,2.7L32.27-5.53a4.12,4.12,0,0,1-2.954-3.892v-1.162Zm-1.106,9.3c0,1.5,1.582,2.338,4.158,2.338s4.13-.84,4.13-2.338S33.656-3.64,31.094-3.64,26.936-2.772,26.936-1.288Zm1.288,0c0-.854,1.05-1.344,2.87-1.344,1.792,0,2.87.49,2.87,1.344S32.886.056,31.094.056C29.274.056,28.224-.434,28.224-1.288Zm3.08-6.4h2.59v3.7h1.274v-7.28H33.894v2.52H31.3ZM42.756-3.5c-2.632,0-4.312.854-4.312,2.282s1.68,2.282,4.312,2.282S47.082.21,47.082-1.218,45.388-3.5,42.756-3.5ZM37.24-4.55H48.37V-5.572H42.98V-7.9H41.72v2.324H37.24Zm1.3-5.082H45.71v.014a11.5,11.5,0,0,1-.322,3.136l1.26.14a11.824,11.824,0,0,0,.336-3.276v-1.05H38.542Zm1.176,8.414c0-.812,1.162-1.3,3.038-1.3s3.052.49,3.052,1.3-1.176,1.3-3.052,1.3S39.718-.406,39.718-1.218ZM58.352-11.284V-4H55.888v.9h2.464V-1.89h1.274v-9.394Zm-8.96,5.656.168,1.05c.994,0,2.142-.014,3.332-.07V-2.31h1.274V-4.718c1.092-.07,2.2-.182,3.248-.35l-.084-.924A65.836,65.836,0,0,1,49.392-5.628Zm.952-3.01c0,1.316,1.246,2.17,3.052,2.17s3.038-.854,3.038-2.17S55.2-10.794,53.4-10.794,50.344-9.94,50.344-8.638ZM51.1.812h8.82V-.238H52.374V-2.8H51.1Zm.462-9.45c0-.742.756-1.218,1.834-1.218s1.82.476,1.82,1.218S54.474-7.42,53.4-7.42,51.562-7.882,51.562-8.638Z" transform="translate(282 1331.5)" fill="#1f1f1f"/>
          </g>
          <g id="item-12" data-name="item" transform="translate(0 34.5)">
            <rect id="base-9" data-name="base" width="104" height="88" rx="4" transform="translate(260 1282.5)" fill="#f3f3f3"/>
            <path id="패스_31472" data-name="패스 31472" d="M1.946-10.766V-9.73h7.1a14.423,14.423,0,0,1-.28,3H.518v1.022H11.7V-6.734H10.038A16.293,16.293,0,0,0,10.29-9.94v-.826ZM1.82-3.556H9.058v1.232h-7.2V.952h8.764V-.07h-7.5V-1.358h7.2V-4.564H1.82ZM12.754-1.47V-.42H23.94V-1.47H18.97V-3.682h3.906V-4.718h-7.49V-6.58H22.6V-10.4H14.1v1.036h7.224v1.778h-7.2v3.906H17.7V-1.47Zm21.168-9.8v2.688h-2.7v-2.142H29.96v1.68H26.852v-1.68H25.578v5.39H31.22V-7.56h2.7V-4.9h1.26v-6.37Zm-7.07,4.914V-8.05H29.96v1.694ZM27.188-3.3h6.734v1.078H27.216V.91h8.4V-.1h-7.14v-1.19h6.706V-4.326H27.188ZM43.554-8.442v1.064h2.59v5.32h1.274V-11.27H46.144v2.828ZM37.212-4.774l.672,1.008A5.192,5.192,0,0,0,40.908-6.9,5.138,5.138,0,0,0,43.792-4.06l.672-.994a4.311,4.311,0,0,1-2.94-3.976v-1.512H40.25v1.484A4.586,4.586,0,0,1,37.212-4.774ZM39.424.812h8.288V-.238H40.7V-3.066H39.424ZM50.862-10.332v5.8H54.4v3.024H49.462V-.448H60.648V-1.512h-4.97V-4.536h3.71v-1.05H52.136V-9.3h7.126v-1.036Zm19.726-.952V-4H68.124v.9h2.464V-1.89h1.274v-9.394Zm-8.96,5.656.168,1.05c.994,0,2.142-.014,3.332-.07V-2.31H66.4V-4.718c1.092-.07,2.2-.182,3.248-.35l-.084-.924A65.837,65.837,0,0,1,61.628-5.628Zm.952-3.01c0,1.316,1.246,2.17,3.052,2.17s3.038-.854,3.038-2.17-1.232-2.156-3.038-2.156S62.58-9.94,62.58-8.638Zm.756,9.45h8.82V-.238H64.61V-2.8H63.336Zm.462-9.45c0-.742.756-1.218,1.834-1.218s1.82.476,1.82,1.218S66.71-7.42,65.632-7.42,63.8-7.882,63.8-8.638Z" transform="translate(276 1331.5)" fill="#1f1f1f"/>
          </g>
          <g id="item-13" data-name="item" transform="translate(0 -62)">
            <rect id="base-10" data-name="base" width="104" height="88" rx="4" transform="translate(260 1283)" fill="#f3f3f3"/>
            <path id="패스_31471" data-name="패스 31471" d="M1.652-10.094v1.05H9.17v.28a26.467,26.467,0,0,1-.42,5.39l1.26.14a27.288,27.288,0,0,0,.434-5.53v-1.33ZM.518-.6H11.69V-1.666H7.49V-5.7H6.23v4.032H4.424V-5.7H3.164v4.032H.518ZM12.754-5.376V-4.34h2.87v1.456H14v1.022h7.266v2.94H22.54V-2.884H21.028V-4.34h2.884V-5.376Zm1.2-3.248c0,1.5,1.708,2.394,4.368,2.394s4.382-.9,4.382-2.394S21-10.99,18.326-10.99,13.958-10.108,13.958-8.624Zm1.316,0c0-.868,1.162-1.372,3.052-1.372s3.066.5,3.066,1.372S20.23-7.252,18.326-7.252,15.274-7.742,15.274-8.624ZM16.9-2.884V-4.34h2.884v1.456ZM25-10.052V-9.03h6.888v-1.022H29.148v-1.33H27.86v1.33ZM25.676-6.1c0,1.372,1.176,2.338,2.814,2.338S31.3-4.732,31.3-6.1,30.128-8.428,28.49-8.428,25.676-7.476,25.676-6.1Zm1.2,0c0-.812.658-1.33,1.61-1.33s1.624.518,1.624,1.33S29.442-4.76,28.49-4.76,26.88-5.292,26.88-6.1Zm.014,4.368h7V1.078h1.274V-2.758H26.894Zm5-3.206h2v1.5h1.274V-11.27H33.894V-8.3H31.92V-7.28h1.974v1.3h-2Zm14.2-6.328v9.03h1.274v-9.03ZM37.31-5l.672,1.008A5.26,5.26,0,0,0,41.02-7.154a5.151,5.151,0,0,0,3,2.954l.672-1.022a4.415,4.415,0,0,1-3.038-4.13V-10.6H40.362v1.246A4.69,4.69,0,0,1,37.31-5ZM39.368.812H47.74V-.238H40.656V-3.08H39.368Zm18.984-12.1V-4H55.888v.9h2.464V-1.89h1.274v-9.394Zm-8.96,5.656.168,1.05c.994,0,2.142-.014,3.332-.07V-2.31h1.274V-4.718c1.092-.07,2.2-.182,3.248-.35l-.084-.924A65.836,65.836,0,0,1,49.392-5.628Zm.952-3.01c0,1.316,1.246,2.17,3.052,2.17s3.038-.854,3.038-2.17S55.2-10.794,53.4-10.794,50.344-9.94,50.344-8.638ZM51.1.812h8.82V-.238H52.374V-2.8H51.1Zm.462-9.45c0-.742.756-1.218,1.834-1.218s1.82.476,1.82,1.218S54.474-7.42,53.4-7.42,51.562-7.882,51.562-8.638Z" transform="translate(282 1332)" fill="#1f1f1f"/>
          </g>
        </g>
      </g>
      <g id="set-2" data-name="set" transform="translate(123 -336)">
        <g id="oval-5" data-name="oval" transform="translate(337 1169)" fill="#999" stroke="#fff" stroke-width="1.5">
          <circle cx="5" cy="5" r="5" stroke="none"/>
          <circle cx="5" cy="5" r="4.25" fill="none"/>
        </g>
        <path id="line-5" data-name="line" d="M9922,15145v-374" transform="translate(-9580 -13592)" fill="none" stroke="#999" stroke-width="1"/>
        <g id="items-2" data-name="items" transform="translate(30 -34)">
          <g id="item-14" data-name="item" transform="translate(0 376.5)">
            <rect id="base-11" data-name="base" width="104" height="88" rx="4" transform="translate(260 1282.5)" fill="#f3f3f3"/>
            <path id="패스_31470" data-name="패스 31470" d="M9.366-11.3V1.092H10.64V-11.3ZM1.19-1.876H7.07v-8.372H5.81v3.192H2.464v-3.192H1.19ZM2.464-2.912V-6.048H5.81v3.136ZM12.754-1.6V-.532H23.94V-1.6Zm.532-3.08L13.8-3.654a6.544,6.544,0,0,0,4.55-3.206,6.516,6.516,0,0,0,4.592,3.178l.518-1.036c-2.31-.364-4.452-2.03-4.452-3.948v-.392h3.976v-1.05h-9.3v1.05h3.976v.392C17.668-6.748,15.54-5.04,13.286-4.676ZM33.88-11.284V1.064h1.26V-11.284Zm-8.148,9.2h1.05a29.062,29.062,0,0,0,6.048-.588l-.168-1.078a28.19,28.19,0,0,1-5.656.574v-6.9H25.732ZM42.1-10.472v.938c0,2.03-2.156,3.92-4.452,4.354l.56,1.05A6.628,6.628,0,0,0,42.77-7.588,6.637,6.637,0,0,0,47.334-4.13l.574-1.05c-2.324-.42-4.466-2.31-4.466-4.354v-.938Zm-4.872,9.9H48.412v-1.05H37.226ZM.532,7.948V8.97H7.42V7.948H4.676V6.618H3.388v1.33ZM1.2,11.9c0,1.372,1.176,2.338,2.814,2.338s2.814-.966,2.814-2.338S5.656,9.572,4.018,9.572,1.2,10.524,1.2,11.9Zm1.2,0c0-.812.658-1.33,1.61-1.33s1.624.518,1.624,1.33S4.97,13.24,4.018,13.24,2.408,12.708,2.408,11.9Zm.014,4.368h7v2.814H10.7V15.242H2.422Zm5-3.206h2v1.5H10.7V6.73H9.422V9.7H7.448V10.72H9.422v1.3h-2Zm14.2-6.328v9.03H22.89V6.73ZM12.838,13l.672,1.008a5.26,5.26,0,0,0,3.038-3.164,5.151,5.151,0,0,0,3,2.954l.672-1.022a4.415,4.415,0,0,1-3.038-4.13V7.4H15.89V8.648A4.69,4.69,0,0,1,12.838,13Zm2.058,5.81h8.372v-1.05H16.184V14.92H14.9ZM25.018,7.976V9h7.294V7.976H29.3V6.646H28.028v1.33Zm.672,3.85c0,1.358,1.2,2.226,2.968,2.226s2.982-.868,2.982-2.226-1.2-2.254-2.982-2.254S25.69,10.468,25.69,11.826Zm.854,4.284H33.32v2.968h1.288v-4H26.544Zm.364-4.284c0-.784.7-1.26,1.75-1.26s1.75.476,1.75,1.26c0,.756-.7,1.26-1.75,1.26S26.908,12.582,26.908,11.826Zm6.412,2.618h1.288v-3.3h1.778V10.076H34.608V6.73H33.32Zm3.906-.434v1.022h4.928v4.046h1.26V15.032h5V14.01ZM38.612,12.6H47V7.234h-1.26v1.61H39.872V7.234h-1.26Zm1.26-1.036V9.866h5.866V11.56Z" transform="translate(288 1322.5)" fill="#1f1f1f"/>
          </g>
          <g id="item-15" data-name="item" transform="translate(0 244.5)">
            <rect id="base-12" data-name="base" width="104" height="124" rx="4" transform="translate(260 1282.5)" fill="#f3f3f3"/>
            <path id="패스_31469" data-name="패스 31469" d="M9.814-11.284V1.064h1.218V-11.284ZM.952-1.848h.812A20.512,20.512,0,0,0,6.286-2.2L6.174-3.262a17.739,17.739,0,0,1-3.962.35V-8.75h3.4V-9.8H.952Zm3.822-3.71H7.308V.448h1.2V-11h-1.2v4.382H4.774ZM21.6-11.3V1.092h1.274V-11.3ZM13.174-6.02c0,2.646,1.316,4.34,3.164,4.34S19.5-3.374,19.5-6.02s-1.33-4.326-3.164-4.326S13.174-8.68,13.174-6.02Zm1.232,0c0-1.96.8-3.178,1.932-3.178S18.27-7.98,18.27-6.02s-.8,3.192-1.932,3.192S14.406-4.06,14.406-6.02ZM33.922-11.3v4.606h-2.45v1.036h2.45V1.092H35.2V-11.3ZM25.55-1.834H26.5a30.618,30.618,0,0,0,5.6-.378l-.126-1.036a27.574,27.574,0,0,1-5.166.364V-5.7h3.934V-6.72H26.81V-9.128h4.452v-1.036H25.55ZM37.772-9.968v1.05h5.012a26.546,26.546,0,0,1-.35,4.466l1.246.112a29.153,29.153,0,0,0,.35-4.872v-.756ZM37.1-2.632l.154,1.05a48.541,48.541,0,0,0,7.574-.476l-.07-.924c-1.218.154-2.562.238-3.878.28V-6.426H39.62V-2.66C38.724-2.646,37.87-2.632,37.1-2.632Zm8.372,3.7h1.26V-5.1H48.65V-6.16H46.732v-5.124h-1.26ZM49.49-10.024V-9h7.294v-1.022h-3.01v-1.33H52.5v1.33Zm.672,3.85c0,1.358,1.2,2.226,2.968,2.226s2.982-.868,2.982-2.226-1.2-2.254-2.982-2.254S50.162-7.532,50.162-6.174Zm.854,4.284h6.776V1.078H59.08v-4H51.016Zm.364-4.284c0-.784.7-1.26,1.75-1.26s1.75.476,1.75,1.26c0,.756-.7,1.26-1.75,1.26S51.38-5.418,51.38-6.174Zm6.412,2.618H59.08v-3.3h1.778V-7.924H59.08V-11.27H57.792Zm4.452-6.412v1.05h5.012a26.546,26.546,0,0,1-.35,4.466l1.246.112a29.153,29.153,0,0,0,.35-4.872v-.756Zm-.672,7.336.154,1.05A48.541,48.541,0,0,0,69.3-2.058l-.07-.924c-1.218.154-2.562.238-3.878.28V-6.426h-1.26V-2.66C63.2-2.646,62.342-2.632,61.572-2.632Zm8.372,3.7H71.2V-5.1h1.918V-6.16H71.2v-5.124h-1.26ZM9.38,6.73V15.7h1.288V6.73ZM.77,10.636a3.073,3.073,0,0,0,3.248,3.052,3.064,3.064,0,1,0,0-6.118A3.067,3.067,0,0,0,.77,10.636Zm1.246,0a1.908,1.908,0,0,1,2-1.96,1.947,1.947,0,1,1,0,3.892A1.9,1.9,0,0,1,2.016,10.636Zm.658,8.176h8.358v-1.05H3.948V14.794H2.674ZM18.284,14.5c-2.632,0-4.312.854-4.312,2.282s1.68,2.282,4.312,2.282,4.326-.854,4.326-2.282S20.916,14.5,18.284,14.5Zm-5.516-1.05H23.9V12.428h-5.39V10.1h-1.26v2.324h-4.48Zm1.3-5.082h7.168v.014a11.5,11.5,0,0,1-.322,3.136l1.26.14a11.824,11.824,0,0,0,.336-3.276V7.332H14.07Zm1.176,8.414c0-.812,1.162-1.3,3.038-1.3s3.052.49,3.052,1.3-1.176,1.3-3.052,1.3S15.246,17.594,15.246,16.782Zm10.122-8.82V9.026h2.814V10.4a6.231,6.231,0,0,1-3.22,5.306l.728,1.008a6.617,6.617,0,0,0,3.136-3.976A6.233,6.233,0,0,0,31.99,16.4L32.7,15.4a5.69,5.69,0,0,1-3.248-5V9.026h2.828V7.962Zm8.456,11.116H35.1V6.73H33.824Zm4.9-12.11v4.144h8.414V10.076H40V6.968ZM37.24,13.492H48.4V12.456H37.24Zm1.316,3.276c0,1.442,1.6,2.268,4.242,2.268s4.242-.826,4.242-2.268-1.61-2.24-4.242-2.24S38.556,15.34,38.556,16.768Zm1.288,0c0-.812,1.092-1.246,2.954-1.246s2.94.434,2.94,1.246-1.078,1.26-2.94,1.26S39.844,17.58,39.844,16.768ZM49.49,7.976V9h7.294V7.976h-3.01V6.646H52.5v1.33Zm.672,3.85c0,1.358,1.2,2.226,2.968,2.226s2.982-.868,2.982-2.226-1.2-2.254-2.982-2.254S50.162,10.468,50.162,11.826Zm.854,4.284h6.776v2.968H59.08v-4H51.016Zm.364-4.284c0-.784.7-1.26,1.75-1.26s1.75.476,1.75,1.26c0,.756-.7,1.26-1.75,1.26S51.38,12.582,51.38,11.826Zm6.412,2.618H59.08v-3.3h1.778V10.076H59.08V6.73H57.792ZM61.7,14.01v1.022h4.928v4.046h1.26V15.032h5V14.01ZM63.084,12.6H71.47V7.234H70.21v1.61H64.344V7.234h-1.26Zm1.26-1.036V9.866H70.21V11.56Z" transform="translate(276 1340.5)" fill="#1f1f1f"/>
          </g>
          <g id="item-16" data-name="item" transform="translate(0 148.5)">
            <rect id="base-13" data-name="base" width="104" height="88" rx="4" transform="translate(260 1282.5)" fill="#f3f3f3"/>
            <path id="패스_31468" data-name="패스 31468" d="M.742-10.038v1.064H3.514V-7.6A6.321,6.321,0,0,1,.308-2.3L1.05-1.288a6.785,6.785,0,0,0,3.094-3.99A6.381,6.381,0,0,0,7.182-1.6L7.91-2.6a5.845,5.845,0,0,1-3.136-5V-8.974h2.66v-1.064ZM8.764,1.078h1.288V-5.278h1.96V-6.342h-1.96V-11.27H8.764ZM21.672-11.27v1.862H18.62A3.222,3.222,0,0,0,16.128-10.5a3.056,3.056,0,0,0-3.192,3.122,3.042,3.042,0,0,0,3.192,3.094A3.241,3.241,0,0,0,18.634-5.39h3.038v3.206h1.274V-11.27ZM14.14-7.378a1.911,1.911,0,0,1,1.988-1.988A1.908,1.908,0,0,1,18.1-7.378,1.908,1.908,0,0,1,16.128-5.39,1.911,1.911,0,0,1,14.14-7.378Zm.854,8.19h8.288V-.238h-7v-2.87H14.994Zm4.2-9.17h2.478V-6.44H19.194a2.925,2.925,0,0,0,.14-.938A3.681,3.681,0,0,0,19.194-8.358Zm6.342-1.61v1.05h5.012a26.546,26.546,0,0,1-.35,4.466l1.246.112a29.153,29.153,0,0,0,.35-4.872v-.756Zm-.672,7.336.154,1.05a48.541,48.541,0,0,0,7.574-.476l-.07-.924c-1.218.154-2.562.238-3.878.28V-6.426h-1.26V-2.66C26.488-2.646,25.634-2.632,24.864-2.632Zm8.372,3.7H34.5V-5.1h1.918V-6.16H34.5v-5.124h-1.26Zm4.018-11.088V-9h7.294v-1.022h-3.01v-1.33H40.264v1.33Zm.672,3.85c0,1.358,1.2,2.226,2.968,2.226s2.982-.868,2.982-2.226-1.2-2.254-2.982-2.254S37.926-7.532,37.926-6.174ZM38.78-1.89h6.776V1.078h1.288v-4H38.78Zm.364-4.284c0-.784.7-1.26,1.75-1.26s1.75.476,1.75,1.26c0,.756-.7,1.26-1.75,1.26S39.144-5.418,39.144-6.174Zm6.412,2.618h1.288v-3.3h1.778V-7.924H46.844V-11.27H45.556Zm3.906-.434v1.022H54.39V1.078h1.26V-2.968h5V-3.99ZM50.848-5.4h8.386v-5.362h-1.26v1.61H52.108v-1.61h-1.26Zm1.26-1.036V-8.134h5.866V-6.44Z" transform="translate(282 1331.5)" fill="#1f1f1f"/>
          </g>
          <g id="item-17" data-name="item" transform="translate(0 34.5)">
            <rect id="base-14" data-name="base" width="104" height="106" rx="4" transform="translate(260 1282.5)" fill="#f3f3f3"/>
            <path id="패스_31467" data-name="패스 31467" d="M9.38-11.27V-2.3h1.288V-11.27ZM.77-7.364A3.073,3.073,0,0,0,4.018-4.312,3.065,3.065,0,0,0,7.266-7.364,3.059,3.059,0,0,0,4.018-10.43,3.067,3.067,0,0,0,.77-7.364Zm1.246,0a1.908,1.908,0,0,1,2-1.96,1.912,1.912,0,0,1,2.016,1.96A1.905,1.905,0,0,1,4.018-5.432,1.9,1.9,0,0,1,2.016-7.364ZM2.674.812h8.358V-.238H3.948V-3.206H2.674ZM12.74-5v1.022h5.054v2.408h1.288V-3.976h4.844V-5ZM14.14.826h8.554V-.224h-7.28V-2.73H14.14Zm.028-7.14h8.316v-4.4H14.168Zm1.246-1.022V-9.688h5.81v2.352Zm12.558-2.9v2.1a6.361,6.361,0,0,1-3.164,5.558l.77,1.036a6.667,6.667,0,0,0,3.038-3.976,6.327,6.327,0,0,0,2.912,3.738l.77-1.008a6.144,6.144,0,0,1-3.08-5.348v-2.1ZM33.236,1.078h1.288V-5.264H36.5V-6.342H34.524V-11.27H33.236ZM46.046-11.27V1.078h1.288V-11.27ZM37.282-2.282l.168,1.064a47.275,47.275,0,0,0,7.938-.49L45.3-2.646c-1.078.14-2.226.224-3.374.28V-3.584c1.414-.2,2.338-1.036,2.338-2.24,0-1.386-1.218-2.3-3-2.3s-2.982.91-2.982,2.3c0,1.218.924,2.058,2.352,2.24V-2.31C39.438-2.282,38.29-2.282,37.282-2.282Zm.252-6.5h7.49V-9.8H41.93v-1.456H40.642V-9.8H37.534Zm1.96,2.954c0-.812.742-1.316,1.778-1.316,1.064,0,1.792.5,1.792,1.316s-.728,1.3-1.792,1.3C40.236-4.522,39.494-5.026,39.494-5.824Zm10-4.2V-9h7.294v-1.022h-3.01v-1.33H52.5v1.33Zm.672,3.85c0,1.358,1.2,2.226,2.968,2.226s2.982-.868,2.982-2.226-1.2-2.254-2.982-2.254S50.162-7.532,50.162-6.174Zm.854,4.284h6.776V1.078H59.08v-4H51.016Zm.364-4.284c0-.784.7-1.26,1.75-1.26s1.75.476,1.75,1.26c0,.756-.7,1.26-1.75,1.26S51.38-5.418,51.38-6.174Zm6.412,2.618H59.08v-3.3h1.778V-7.924H59.08V-11.27H57.792ZM61.7-3.99v1.022h4.928V1.078h1.26V-2.968h5V-3.99ZM63.084-5.4H71.47v-5.362H70.21v1.61H64.344v-1.61h-1.26Zm1.26-1.036V-8.134H70.21V-6.44Z" transform="translate(276 1340.5)" fill="#1f1f1f"/>
          </g>
          <g id="item-18" data-name="item" transform="translate(0 -62)">
            <rect id="base-15" data-name="base" width="104" height="88" rx="4" transform="translate(260 1283)" fill="#f3f3f3"/>
            <path id="패스_31466" data-name="패스 31466" d="M.532-10.052V-9.03H7.42v-1.022H4.676v-1.33H3.388v1.33ZM1.2-6.1c0,1.372,1.176,2.338,2.814,2.338S6.832-4.732,6.832-6.1,5.656-8.428,4.018-8.428,1.2-7.476,1.2-6.1Zm1.2,0c0-.812.658-1.33,1.61-1.33s1.624.518,1.624,1.33S4.97-4.76,4.018-4.76,2.408-5.292,2.408-6.1Zm.014,4.368h7V1.078H10.7V-2.758H2.422Zm5-3.206h2v1.5H10.7V-11.27H9.422V-8.3H7.448V-7.28H9.422v1.3h-2Zm14.2-6.328v9.03H22.89v-9.03ZM12.838-5,13.51-3.99a5.26,5.26,0,0,0,3.038-3.164,5.151,5.151,0,0,0,3,2.954l.672-1.022a4.415,4.415,0,0,1-3.038-4.13V-10.6H15.89v1.246A4.69,4.69,0,0,1,12.838-5ZM14.9.812h8.372V-.238H16.184V-3.08H14.9Zm18.97-12.1V1.064h1.288V-11.284ZM25.1-2.2l.672,1.008c4.2-2.03,5.726-5.152,5.726-8.778H25.69v1.036h4.522C29.96-6.034,28.378-3.78,25.1-2.2Zm12.124.672V-.462H48.412V-1.526H43.456v-2.7H42.182v2.7Zm.56-3.29.476,1.008a6.148,6.148,0,0,0,4.55-2.744,6.145,6.145,0,0,0,4.536,2.744l.5-1.008c-2.52-.364-4.34-1.792-4.382-3.556h3.906V-9.408h-3.92V-11.06H42.182v1.652h-3.92v1.036h3.92C42.14-6.608,40.292-5.18,37.786-4.816Zm11.7-5.208V-9h7.294v-1.022h-3.01v-1.33H52.5v1.33Zm.672,3.85c0,1.358,1.2,2.226,2.968,2.226s2.982-.868,2.982-2.226-1.2-2.254-2.982-2.254S50.162-7.532,50.162-6.174Zm.854,4.284h6.776V1.078H59.08v-4H51.016Zm.364-4.284c0-.784.7-1.26,1.75-1.26s1.75.476,1.75,1.26c0,.756-.7,1.26-1.75,1.26S51.38-5.418,51.38-6.174Zm6.412,2.618H59.08v-3.3h1.778V-7.924H59.08V-11.27H57.792ZM61.7-3.99v1.022h4.928V1.078h1.26V-2.968h5V-3.99ZM63.084-5.4H71.47v-5.362H70.21v1.61H64.344v-1.61h-1.26Zm1.26-1.036V-8.134H70.21V-6.44Z" transform="translate(276 1332)" fill="#1f1f1f"/>
          </g>
        </g>
      </g>
      <g id="set-3" data-name="set" transform="translate(0 -336)">
        <g id="oval-6" data-name="oval" transform="translate(337 1169)" fill="#999" stroke="#fff" stroke-width="1.5">
          <circle cx="5" cy="5" r="5" stroke="none"/>
          <circle cx="5" cy="5" r="4.25" fill="none"/>
        </g>
        <path id="line-6" data-name="line" d="M9922,15224.774V14771" transform="translate(-9580 -13592)" fill="none" stroke="#999" stroke-width="1"/>
        <g id="items-3" data-name="items" transform="translate(30 -34)">
          <g id="item-19" data-name="item" transform="translate(0 304.5)">
            <rect id="base-16" data-name="base" width="104" height="70" rx="4" transform="translate(260 1282.5)" fill="#f3f3f3"/>
            <path id="패스_31464" data-name="패스 31464" d="M9.38-11.27V-2.3h1.288V-11.27ZM.77-7.364A3.073,3.073,0,0,0,4.018-4.312,3.065,3.065,0,0,0,7.266-7.364,3.059,3.059,0,0,0,4.018-10.43,3.067,3.067,0,0,0,.77-7.364Zm1.246,0a1.908,1.908,0,0,1,2-1.96,1.912,1.912,0,0,1,2.016,1.96A1.905,1.905,0,0,1,4.018-5.432,1.9,1.9,0,0,1,2.016-7.364ZM2.674.812h8.358V-.238H3.948V-3.206H2.674Zm19.418-12.1v4.928H20.608v-4.662H19.4V.462h1.2V-5.292h1.484V1.064H23.31V-11.284ZM12.586-2.408l.8.994a5.85,5.85,0,0,0,2.478-3.654A5.348,5.348,0,0,0,18.3-1.862l.756-.994c-1.764-.9-2.6-2.912-2.6-5.152V-8.82h2.156V-9.87h-5.7v1.05h2.31v.812C15.218-5.53,14.364-3.416,12.586-2.408ZM25.48-10.752v5.376h5.768v-5.376h-1.26v1.694H26.754v-1.694ZM26.712-3.36h6.65v1.134H26.726V.952h8.316V-.07H28v-1.2h6.622V-4.368h-7.91ZM26.754-6.4v-1.68h3.234V-6.4Zm6.58,1.47h1.288v-2.7h1.764V-8.68H34.622v-2.59H33.334Zm5.32-5.852v1.022h7.1a14.308,14.308,0,0,1-.266,2.9h-8.26v1.022h4.942v1.456h-3.64V-3.36h7.238V-2.2h-7.2V.952h8.764V-.07h-7.5V-1.288h7.2V-4.382H43.442V-5.838h4.97V-6.86H46.76A16,16,0,0,0,47-9.968v-.812ZM58.38-11.3v4.914H55.832V-5.32H58.38V1.092h1.274V-11.3Zm-8.918,9.03.7.98a6.155,6.155,0,0,0,3.01-3.724,5.917,5.917,0,0,0,3.038,3.5l.686-.98a5.479,5.479,0,0,1-3.108-4.83v-.826h2.688V-9.156H53.788v-1.89h-1.26v1.89H49.812v1.008h2.716v.826A5.74,5.74,0,0,1,49.462-2.268Z" transform="translate(282 1322.5)" fill="#1f1f1f"/>
          </g>
          <g id="item-20" data-name="item" transform="translate(0 382.5)">
            <rect id="base-17" data-name="base" width="104" height="70" rx="4" transform="translate(260 1282.5)" fill="#f3f3f3"/>
            <path id="패스_31465" data-name="패스 31465" d="M1.19-10.094v8.106H6.93v-8.106Zm1.26,7.07V-9.072H5.684v6.048ZM9.366,1.092H10.64V-11.3H9.366Zm3.766-11.06v1.036H16.52v2.38H13.146v4.718h.826A23.772,23.772,0,0,0,18.55-2.17l-.1-1.036a24.669,24.669,0,0,1-4.074.308V-5.53h3.374V-9.968Zm6.1,10.4h1.2V-5.4h1.6V1.064h1.218V-11.284H22.036v4.83h-1.6v-4.564h-1.2ZM31.542-7.924v1.05h2.366V-2.24h1.274v-9.03H33.908v3.346ZM24.99-4.774l.658,1.022a5.171,5.171,0,0,0,3.08-3,4.957,4.957,0,0,0,2.94,2.716L32.3-5.04a4.144,4.144,0,0,1-2.954-3.738v-.5H31.99v-1.036H25.382v1.036H28.07v.518A4.374,4.374,0,0,1,24.99-4.774ZM27.23.812h8.288V-.238H28.5V-3.024H27.23Zm10.5-11.354V-9.52h4.312v1.5H37.758v3.654h.98A32.71,32.71,0,0,0,44.59-4.76l-.126-1.05a30,30,0,0,1-5.446.392V-7.042H43.3v-3.5ZM38.78-2.1h6.79V1.078h1.288V-3.136H38.78Zm6.79-1.666h1.288V-5.712h1.778V-6.776H46.858v-1.54h1.778v-1.05H46.858v-1.9H45.57ZM58.38-11.3v4.914H55.832V-5.32H58.38V1.092h1.274V-11.3Zm-8.918,9.03.7.98a6.155,6.155,0,0,0,3.01-3.724,5.917,5.917,0,0,0,3.038,3.5l.686-.98a5.479,5.479,0,0,1-3.108-4.83v-.826h2.688V-9.156H53.788v-1.89h-1.26v1.89H49.812v1.008h2.716v.826A5.74,5.74,0,0,1,49.462-2.268Z" transform="translate(282 1322.5)" fill="#1f1f1f"/>
          </g>
          <g id="item-21" data-name="item" transform="translate(0 244.5)">
            <g id="base-18" data-name="base" transform="translate(260 1282.5)" fill="#fff" stroke="#dbdbdb" stroke-width="1">
              <rect width="104" height="52" rx="4" stroke="none"/>
              <rect x="0.5" y="0.5" width="103" height="51" rx="3.5" fill="none"/>
            </g>
            <path id="IT_Center" data-name="IT Center" d="M1.05,0h1.6V-9.73H1.05ZM4.242-8.428h2.6V0h1.6V-8.428h2.59v-1.3H4.242Zm16.492.2v1.05H22.54v4.816h1.2v-8.68h-1.2v2.814Zm-5.012,3.5.714.98a4.9,4.9,0,0,0,2.408-2.772A4.467,4.467,0,0,0,21.1-4.06l.7-.966a4,4,0,0,1-2.352-3.64v-1.75H18.214v1.75A4.459,4.459,0,0,1,15.722-4.732ZM18.06.812h8.47V-.238h-7.2v-2.9H18.06Zm6.9-2.842H26.18v-9.24H24.962ZM36.918-11.3v4.606h-2.45v1.036h2.45V1.092h1.274V-11.3ZM28.546-1.834H29.5a30.618,30.618,0,0,0,5.6-.378l-.126-1.036a27.574,27.574,0,0,1-5.166.364V-5.7H33.74V-6.72H29.806V-9.128h4.452v-1.036H28.546Z" transform="translate(292 1313.5)" fill="#1f1f1f"/>
          </g>
          <g id="item-22" data-name="item" transform="translate(0 148.5)">
            <rect id="base-19" data-name="base" width="104" height="88" rx="4" transform="translate(260 1282.5)" fill="#f3f3f3"/>
            <path id="패스_31463" data-name="패스 31463" d="M9.366-11.284V1.092H10.64V-11.284ZM1.3-1.946H2.31a29.884,29.884,0,0,0,5.964-.406L8.148-3.43a27.514,27.514,0,0,1-5.586.406V-9.058H7.168v-1.064H1.3Zm11.83-8.092v1.064h2.814V-7.6A6.231,6.231,0,0,1,12.726-2.3l.728,1.008A6.617,6.617,0,0,0,16.59-5.264,6.233,6.233,0,0,0,19.754-1.6L20.468-2.6a5.69,5.69,0,0,1-3.248-5V-8.974h2.828v-1.064ZM21.588,1.078h1.274V-11.27H21.588Zm4.018-11.606v5.46h.91a31.39,31.39,0,0,0,5.376-.294L31.78-6.37a29.42,29.42,0,0,1-4.914.28V-7.378h3.99v-.966h-3.99V-9.52h4.326v-1.008Zm1.582,7.406h6.734v1.036H27.216V.952h8.4V-.056h-7.14V-1.148h6.706V-4.116H27.188Zm4.494-4.34h2.24v2.8h1.26v-6.622h-1.26V-8.5h-2.24ZM43.82-8.12v1.05h2.324v3.136h1.274V-11.27H46.144v3.15ZM37.24-5.026,37.884-4a5.245,5.245,0,0,0,3.094-3.052,4.965,4.965,0,0,0,2.912,2.7l.644-1.008A4.1,4.1,0,0,1,41.58-9.086v-.28h2.646v-1.05H37.618v1.05h2.688v.28A4.43,4.43,0,0,1,37.24-5.026Zm1.946,3.78c0,1.47,1.568,2.31,4.144,2.31s4.13-.84,4.13-2.31S45.892-3.57,43.33-3.57,39.186-2.7,39.186-1.246Zm1.274,0c0-.854,1.064-1.344,2.87-1.344s2.87.49,2.87,1.344S45.122.084,43.33.084,40.46-.406,40.46-1.246Zm9-.294V-.476H60.648V-1.54h-4.97V-4.1h3.668V-10.43H58.072V-8.3H52.024V-10.43H50.75V-4.1H54.4V-1.54Zm2.562-3.584V-7.266h6.048v2.142ZM70.616-11.3v4.914H68.068V-5.32h2.548V1.092H71.89V-11.3ZM61.7-2.268l.7.98a6.155,6.155,0,0,0,3.01-3.724,5.917,5.917,0,0,0,3.038,3.5l.686-.98a5.479,5.479,0,0,1-3.108-4.83v-.826h2.688V-9.156H66.024v-1.89h-1.26v1.89H62.048v1.008h2.716v.826A5.74,5.74,0,0,1,61.7-2.268Z" transform="translate(276 1331.5)" fill="#1f1f1f"/>
          </g>
          <g id="item-23" data-name="item" transform="translate(0 52.5)">
            <rect id="base-20" data-name="base" width="104" height="88" rx="4" transform="translate(260 1282.5)" fill="#f3f3f3"/>
            <path id="패스_31462" data-name="패스 31462" d="M1.652-10.094v1.05H9.17v.28a26.467,26.467,0,0,1-.42,5.39l1.26.14a27.288,27.288,0,0,0,.434-5.53v-1.33ZM.518-.6H11.69V-1.666H7.49V-5.7H6.23v4.032H4.424V-5.7H3.164v4.032H.518Zm12.236-3.57v1.05h4.928V1.092h1.26V-3.122h5v-1.05Zm1.4-1.582h8.358V-10.6H14.154ZM15.4-6.762V-9.576h5.866v2.814Zm9.618-3.262V-9h7.294v-1.022H29.3v-1.33H28.028v1.33Zm.672,3.85c0,1.358,1.2,2.226,2.968,2.226s2.982-.868,2.982-2.226-1.2-2.254-2.982-2.254S25.69-7.532,25.69-6.174Zm.854,4.284H33.32V1.078h1.288v-4H26.544Zm.364-4.284c0-.784.7-1.26,1.75-1.26s1.75.476,1.75,1.26c0,.756-.7,1.26-1.75,1.26S26.908-5.418,26.908-6.174ZM33.32-3.556h1.288v-3.3h1.778V-7.924H34.608V-11.27H33.32Zm6.888-6.678v2.1a6.361,6.361,0,0,1-3.164,5.558l.77,1.036a6.667,6.667,0,0,0,3.038-3.976,6.327,6.327,0,0,0,2.912,3.738l.77-1.008a6.144,6.144,0,0,1-3.08-5.348v-2.1ZM45.472,1.078H46.76V-5.264h1.974V-6.342H46.76V-11.27H45.472ZM58.38-11.3v4.914H55.832V-5.32H58.38V1.092h1.274V-11.3Zm-8.918,9.03.7.98a6.155,6.155,0,0,0,3.01-3.724,5.917,5.917,0,0,0,3.038,3.5l.686-.98a5.479,5.479,0,0,1-3.108-4.83v-.826h2.688V-9.156H53.788v-1.89h-1.26v1.89H49.812v1.008h2.716v.826A5.74,5.74,0,0,1,49.462-2.268Z" transform="translate(282 1331.5)" fill="#1f1f1f"/>
          </g>
          <g id="item-24" data-name="item" transform="translate(0 -62)">
            <rect id="base-21" data-name="base" width="104" height="106" rx="4" transform="translate(260 1283)" fill="#f3f3f3"/>
            <path id="패스_31461" data-name="패스 31461" d="M3.5-10.234v2.1A6.361,6.361,0,0,1,.336-2.576l.77,1.036A6.667,6.667,0,0,0,4.144-5.516,6.327,6.327,0,0,0,7.056-1.778l.77-1.008a6.144,6.144,0,0,1-3.08-5.348v-2.1ZM8.764,1.078h1.288V-5.264h1.974V-6.342H10.052V-11.27H8.764Zm3.99-5.25v1.05h4.928V1.092h1.26V-3.122h5v-1.05Zm1.4-1.582h8.358V-10.6H14.154ZM15.4-6.762V-9.576h5.866v2.814Zm18.466-4.522V1.064h1.288V-11.284ZM25.1-2.2l.672,1.008c4.2-2.03,5.726-5.152,5.726-8.778H25.69v1.036h4.522C29.96-6.034,28.378-3.78,25.1-2.2Zm12.572-8.008v.952h7.21v-.952H41.93v-1.162h-1.3v1.162Zm-.392,5.88.168.994a48.47,48.47,0,0,0,7.784-.49l-.084-.9c-1.022.14-2.128.238-3.22.294V-5.18c1.414-.154,2.324-.812,2.324-1.806,0-1.134-1.19-1.848-2.968-1.848s-2.968.714-2.968,1.848c0,.994.9,1.652,2.31,1.806v.812C39.438-4.326,38.276-4.326,37.282-4.326Zm1.736,2.9h7.056V1.078h1.274v-3.5h-8.33Zm.518-5.558c0-.616.7-.966,1.75-.966s1.75.35,1.75.966c0,.588-.686.966-1.75.966S39.536-6.4,39.536-6.986Zm6.538,4.018h1.274v-8.3H46.074ZM58.38-11.3v4.914H55.832V-5.32H58.38V1.092h1.274V-11.3Zm-8.918,9.03.7.98a6.155,6.155,0,0,0,3.01-3.724,5.917,5.917,0,0,0,3.038,3.5l.686-.98a5.479,5.479,0,0,1-3.108-4.83v-.826h2.688V-9.156H53.788v-1.89h-1.26v1.89H49.812v1.008h2.716v.826A5.74,5.74,0,0,1,49.462-2.268Z" transform="translate(282 1341)" fill="#1f1f1f"/>
          </g>
        </g>
      </g>
    </g>
    <g id="middle" transform="translate(-495 -733)">
      <circle id="oval-7" data-name="oval" cx="70" cy="70" r="70" transform="translate(860 595)" fill="#00a597"/>
      <path id="패스_31458" data-name="패스 31458" d="M.74-5.7v1.46H7.78V1.54h1.8V-4.24h7.14V-5.7ZM2.72-7.72H14.7v-7.66H12.9v2.3H4.52v-2.3H2.72ZM4.52-9.2v-2.42H12.9V-9.2Zm13.7,2.14v1.48H34.16V-7.06H27.1V-9.1H25.28v2.04Zm.86-2.6.56,1.4c2.98-.28,5.46-1.28,6.54-2.92,1.1,1.64,3.56,2.64,6.56,2.92l.54-1.4c-3.44-.26-5.9-1.58-6.08-3.32h5.36v-1.44H27.1v-1.72H25.28v1.72H19.84v1.44h5.34C25-11.24,22.54-9.92,19.08-9.66Zm1.04,8.24c0,1.88,2.24,2.92,6.06,2.92,3.8,0,6.06-1.04,6.06-2.92,0-1.92-2.26-2.96-6.06-2.96C22.36-4.38,20.12-3.34,20.12-1.42Zm1.84,0C21.96-2.46,23.48-3,26.18-3c2.68,0,4.2.54,4.2,1.58,0,1-1.52,1.56-4.2,1.56C23.48.14,21.96-.42,21.96-1.42ZM36.12-14.84v1.48h3.84v.52A6.111,6.111,0,0,1,35.6-7.16l.92,1.44a7.139,7.139,0,0,0,4.4-4.22,6.81,6.81,0,0,0,4.2,3.66L46-7.68a5.646,5.646,0,0,1-4.22-5.18v-.5h3.8v-1.48ZM37.96-1.8c0,2.08,2.22,3.3,5.82,3.3,3.62,0,5.84-1.22,5.84-3.3S47.4-5.08,43.78-5.08C40.18-5.08,37.96-3.88,37.96-1.8Zm1.78,0c0-1.18,1.52-1.84,4.04-1.84,2.54,0,4.04.66,4.04,1.84,0,1.2-1.5,1.88-4.04,1.88C41.26.08,39.74-.6,39.74-1.8ZM47.6-5.52h1.84v-4.7h2.54v-1.5H49.44V-16.1H47.6Z" transform="translate(904 673)" fill="#fff"/>
    </g>
    <g id="top" transform="translate(-495 -977)">
      <circle id="oval-8" data-name="oval" cx="70" cy="70" r="70" transform="translate(860 595)" fill="#501d83"/>
      <path id="President" d="M.74-7.06v1.48H16.68V-7.06H9.62V-9.1H7.8v2.04Zm.86-2.6.56,1.4c2.98-.28,5.46-1.28,6.54-2.92,1.1,1.64,3.56,2.64,6.56,2.92l.54-1.4c-3.44-.26-5.9-1.58-6.08-3.32h5.36v-1.44H9.62v-1.72H7.8v1.72H2.36v1.44H7.7C7.52-11.24,5.06-9.92,1.6-9.66ZM2.64-1.42C2.64.46,4.88,1.5,8.7,1.5c3.8,0,6.06-1.04,6.06-2.92,0-1.92-2.26-2.96-6.06-2.96C4.88-4.38,2.64-3.34,2.64-1.42Zm1.84,0C4.48-2.46,6-3,8.7-3c2.68,0,4.2.54,4.2,1.58,0,1-1.52,1.56-4.2,1.56C6,.14,4.48-.42,4.48-1.42ZM18.64-14.84v1.48h3.84v.52a6.111,6.111,0,0,1-4.36,5.68l.92,1.44a7.139,7.139,0,0,0,4.4-4.22,6.81,6.81,0,0,0,4.2,3.66l.88-1.4a5.646,5.646,0,0,1-4.22-5.18v-.5h3.8v-1.48ZM20.48-1.8c0,2.08,2.22,3.3,5.82,3.3,3.62,0,5.84-1.22,5.84-3.3S29.92-5.08,26.3-5.08C22.7-5.08,20.48-3.88,20.48-1.8Zm1.78,0c0-1.18,1.52-1.84,4.04-1.84,2.54,0,4.04.66,4.04,1.84,0,1.2-1.5,1.88-4.04,1.88C23.78.08,22.26-.6,22.26-1.8Zm7.86-3.72h1.84v-4.7H34.5v-1.5H31.96V-16.1H30.12Z" transform="translate(913 673)" fill="#fff"/>
    </g>
    <g id="side" transform="translate(-778 -606)">
      <rect id="line-7" data-name="line" width="70" height="1" transform="translate(1213 416)" fill="#999"/>
      <g id="item-25" data-name="item" transform="translate(862 -897)">
        <rect id="base-22" data-name="base" width="105" height="72" rx="4" transform="translate(421 1277)" fill="#666"/>
        <path id="패스_31457" data-name="패스 31457" d="M.592-5.648v1.184H13.344V-5.648H7.7V-7.28H6.24v1.632Zm.688-2.08.448,1.12C4.112-6.832,6.1-7.632,6.96-8.944c.88,1.312,2.848,2.112,5.248,2.336l.432-1.12c-2.752-.208-4.72-1.264-4.864-2.656h4.288v-1.152H7.7v-1.376H6.24v1.376H1.888v1.152H6.16C6.016-8.992,4.048-7.936,1.28-7.728Zm.832,6.592C2.112.368,3.9,1.2,6.96,1.2c3.04,0,4.848-.832,4.848-2.336C11.808-2.672,10-3.5,6.96-3.5,3.9-3.5,2.112-2.672,2.112-1.136Zm1.472,0C3.584-1.968,4.8-2.4,6.96-2.4c2.144,0,3.36.432,3.36,1.264C10.32-.336,9.1.112,6.96.112,4.8.112,3.584-.336,3.584-1.136ZM14.912-11.872v1.184h3.072v.416A4.889,4.889,0,0,1,14.5-5.728l.736,1.152a5.711,5.711,0,0,0,3.52-3.376,5.448,5.448,0,0,0,3.36,2.928l.7-1.12a4.517,4.517,0,0,1-3.376-4.144v-.4h3.04v-1.184ZM16.384-1.44c0,1.664,1.776,2.64,4.656,2.64,2.9,0,4.672-.976,4.672-2.64S23.936-4.064,21.04-4.064C18.16-4.064,16.384-3.1,16.384-1.44Zm1.424,0c0-.944,1.216-1.472,3.232-1.472,2.032,0,3.232.528,3.232,1.472,0,.96-1.2,1.5-3.232,1.5C19.024.064,17.808-.48,17.808-1.44ZM24.1-4.416h1.472v-3.76H27.6v-1.2H25.568v-3.5H24.1ZM38.688-12.88v7.248h1.456V-12.88ZM28.608-6.864l.72,1.152A5.858,5.858,0,0,0,32.9-9.1a5.745,5.745,0,0,0,3.5,3.136l.72-1.152a4.688,4.688,0,0,1-3.5-4.32V-12.5H32.144v1.056A4.945,4.945,0,0,1,28.608-6.864ZM30.96-3.792H38.7v1.28H30.992v3.6h9.616V-.08H32.432V-1.44h7.712V-4.928H30.96Z" transform="translate(453 1318)" fill="#fff"/>
      </g>
    </g>
  </g>
</svg>
