<svg id="ico_100_svp02" data-name="ico/100/svp02" xmlns="http://www.w3.org/2000/svg" width="100" height="100" viewBox="0 0 100 100">
  <rect id="base" width="100" height="100" fill="none"/>
  <g id="icon" transform="translate(-4 2)">
    <path id="path" d="M145.828,136.3a2.531,2.531,0,0,1-1.935-.9l-15.3-18.053a4.425,4.425,0,0,1-.788-4.308L135.7,90.691a2.538,2.538,0,0,1,1.514-1.542,2.512,2.512,0,0,1,2.145.179,30.621,30.621,0,0,1,7.13,5.745,1,1,0,0,1-.056,1.4.984.984,0,0,1-1.4-.056,28.632,28.632,0,0,0-6.667-5.373.547.547,0,0,0-.469-.035.561.561,0,0,0-.337.342L129.666,113.7a2.42,2.42,0,0,0,.431,2.355l15.3,18.05a.6.6,0,0,0,.438.2.539.539,0,0,0,.417-.2,28.907,28.907,0,0,0,6.415-18.145c0-.262-.006-.524-.012-.786l.987-.062.988-.023-.988.023.989.016c.007.278.013.555.013.832a30.91,30.91,0,0,1-6.858,19.4,2.509,2.509,0,0,1-1.927.934Z" transform="translate(-78.373 -54.299)" fill="#1a1a1a"/>
    <path id="path-2" data-name="path" d="M42.137,112.593a2.494,2.494,0,0,1-1.6-.584,2.527,2.527,0,0,1-.907-1.944,30.742,30.742,0,0,1,4.64-16.306.984.984,0,0,1,1.362-.314,1,1,0,0,1,.312,1.37,28.735,28.735,0,0,0-4.337,15.229.548.548,0,0,0,.194.435.524.524,0,0,0,.436.115l23.222-4.306a2.4,2.4,0,0,0,1.816-1.553l7.888-22.353a.558.558,0,0,0-.043-.479.538.538,0,0,0-.382-.266,28.647,28.647,0,0,0-11.663.54.994.994,0,1,1-.494-1.925,30.579,30.579,0,0,1,12.473-.577,2.518,2.518,0,0,1,1.77,1.225,2.554,2.554,0,0,1,.2,2.158L69.137,105.4a4.382,4.382,0,0,1-3.319,2.845L42.6,112.55a2.51,2.51,0,0,1-.459.043" transform="translate(-24.525 -48.379)" fill="#1a1a1a"/>
    <path id="path-3" data-name="path" d="M31.666,77.118a6.551,6.551,0,0,1-2-.349c-3.116-1-6.549-5.937-9.522-10.487q-.489-.75-.956-1.47a31.536,31.536,0,0,0-3.7-5.134A50.868,50.868,0,0,0,4.593,53.433a1,1,0,0,1-.509-1.309.986.986,0,0,1,1.3-.512c7.648,3.369,9.4,5,11.314,6.5,1.015.794,2.4,2.922,4.144,5.617.309.476.626.966.952,1.463,1.87,2.862,5.761,8.815,8.473,9.686.861.276,2,.467,2.581-.211.8-.935.594-3.325-.46-5.442a66.158,66.158,0,0,1-3.5-9.336c-.078-.281-.15-.539-.222-.79A17.683,17.683,0,0,1,27.9,55a2.187,2.187,0,0,1,.49-1.6c1.262-1.27,5.663-1.831,10.611,2.5a.992.992,0,1,1-1.27,1.524c-3.937-3.464-7.1-3.14-7.846-2.692a2.255,2.255,0,0,0-.007.241,16.4,16.4,0,0,0,.687,3.584c.071.249.146.515.221.788a64.864,64.864,0,0,0,3.37,8.99c1.227,2.466,1.764,5.781.193,7.625a3.36,3.36,0,0,1-2.684,1.16" transform="translate(0 -30.761)" fill="#1a1a1a"/>
    <path id="path-4" data-name="path" d="M69.093,33.177a.992.992,0,0,1-.988-.987C68.01,18.3,57.843,8.238,54.289,5.809,49.943,2.844,43.635,1.481,37.417,2.16a30.742,30.742,0,0,1-5.3-.032A.994.994,0,0,1,32.3.149a28.861,28.861,0,0,0,4.928.032C43.874-.546,50.675.942,55.4,4.164c4.05,2.767,14.581,13.193,14.682,28.011a.991.991,0,0,1-.981,1Z" transform="translate(-19.377)" fill="#1a1a1a"/>
    <path id="path-5" data-name="path" d="M177.462,103.818a5.454,5.454,0,0,1-4.191-1.6,2.832,2.832,0,0,1,0-3.675,75.682,75.682,0,0,1,5.115-5.922c1.051-1.138,2.044-2.214,2.925-3.237.368-.423.714-.836,1.026-1.229.814-1.027.6-3.585-.479-5.583-.6-1.116-1.228-1.588-1.575-1.56-.271.026-.56.039-.864.052a5.194,5.194,0,0,0-3.964,1.386.984.984,0,0,1-1.4.021,1,1,0,0,1-.021-1.405,7.067,7.067,0,0,1,5.3-1.988c.27-.012.527-.023.767-.045,1.274-.127,2.547.826,3.5,2.594,1.262,2.348,1.79,5.868.284,7.768-.331.416-.7.851-1.079,1.293-.9,1.047-1.9,2.135-2.968,3.287a74.1,74.1,0,0,0-4.977,5.755c-.453.613-.279.969-.077,1.211.76.91,3.271,1.432,6.011.048,1.3-.665,3.009-1.653,4.932-2.856,3.173-1.973,6.719-4.361,9.308-6.105.933-.628,1.758-1.184,2.424-1.626a.986.986,0,0,1,.347-.143,39.9,39.9,0,0,1,11.241-.185.994.994,0,0,1-.16,1.981,38.756,38.756,0,0,0-10.5.115c-.632.42-1.4.934-2.249,1.509-2.6,1.753-6.165,4.154-9.367,6.144-1.968,1.231-3.727,2.249-5.083,2.941a9.4,9.4,0,0,1-4.224,1.053" transform="translate(-105.955 -48.219)" fill="#1a1a1a"/>
    <path id="path-6" data-name="path" d="M155.55,53.25a.985.985,0,0,1-.38-.076,1,1,0,0,1-.532-1.3,18.5,18.5,0,0,1,9.945-10.423c.861-.368,1.644-.735,2.4-1.09,4.715-2.21,8.122-3.807,18.484.209,6.194,2.4,8.348,3.091,10.849,4.141a1,1,0,0,1,.531,1.3.986.986,0,0,1-1.293.534c-2.49-1.045-4.626-1.725-10.8-4.121-9.578-3.712-12.348-2.413-16.937-.263-.772.363-1.57.737-2.463,1.118a16.583,16.583,0,0,0-8.894,9.358.988.988,0,0,1-.913.612" transform="translate(-94.911 -23.249)" fill="#1a1a1a"/>
    <path id="path-7" data-name="path" d="M76.1,196.367a33.954,33.954,0,0,1-31.545-21.522,2.739,2.739,0,0,1,.176-2.343,2.8,2.8,0,0,1,1.94-1.376l25.606-4.68a4.847,4.847,0,0,1,4.534,1.6l2.956,3.439,4.268,4.963L93.7,187.681a2.761,2.761,0,0,1-.713,4.2A33.956,33.956,0,0,1,76.1,196.367" transform="translate(-29.369 -100.367)" fill="#501d83"/>
  </g>
</svg>
