<svg xmlns="http://www.w3.org/2000/svg" width="80" height="80" viewBox="0 0 80 80">
  <g id="ico_80_online" data-name="ico/80/online" transform="translate(-1134 -145)">
    <rect id="base" width="80" height="80" transform="translate(1134 145)" fill="none"/>
    <g id="icon" transform="translate(1136 147)">
      <path id="path" d="M45.166,60.185H57.672a1.921,1.921,0,0,0,1.921-1.921V48.629" transform="translate(3.568 3.842)" fill="none" stroke="#1f1f1f" stroke-linejoin="round" stroke-width="1.8"/>
      <path id="path-2" data-name="path" d="M44.244,66.409V45.132a3.365,3.365,0,0,0-3.365-3.365H4.2a3.367,3.367,0,0,0-3.367,3.36L.8,71.837H44.244" transform="translate(0.063 3.3)" fill="none" stroke="#1f1f1f" stroke-linecap="square" stroke-linejoin="round" stroke-width="1.8"/>
      <path id="path-3" data-name="path" d="M55.11,31.686h9.664a6.252,6.252,0,0,1,6.252,6.252V67.079a5.553,5.553,0,0,1-5.554,5.554H41.063" transform="translate(3.244 2.504)" fill="none" stroke="#1f1f1f" stroke-linecap="round" stroke-linejoin="round" stroke-width="1.8"/>
      <path id="path-4" data-name="path" d="M20.264,38.312v-.373a6.252,6.252,0,0,1,6.252-6.253H33.41" transform="translate(1.602 2.504)" fill="none" stroke="#1f1f1f" stroke-linejoin="round" stroke-width="1.8"/>
      <line id="line" y2="5.233" transform="translate(63.16 47.237)" fill="none" stroke="#1f1f1f" stroke-linecap="round" stroke-linejoin="round" stroke-width="1.8"/>
      <line id="line-2" data-name="line" x2="2.751" transform="translate(35.01 34.189)" fill="none" stroke="#1f1f1f" stroke-linecap="round" stroke-linejoin="round" stroke-width="1.8"/>
      <path id="path-5" data-name="path" d="M62.274,28.731V17.839A16.784,16.784,0,0,0,45.757.8,16.783,16.783,0,0,0,29.241,17.839l.011,10.9" transform="translate(2.311 0.063)" fill="none" stroke="#1f1f1f" stroke-linecap="square" stroke-linejoin="round" stroke-width="1.8"/>
      <path id="path-6" data-name="path" d="M38.1,10.866A10.353,10.353,0,0,0,35.549,17.7c0,8.634,4.347,15.634,9.71,15.634s9.71-7,9.71-15.634v-.027a16.086,16.086,0,0,1-4.137.535C45.018,18.206,40.056,15.157,38.1,10.866Z" transform="translate(2.809 0.858)" fill="#501d83" stroke="#501d83" stroke-linecap="round" stroke-linejoin="round" stroke-width="1.8"/>
      <g id="logo" transform="translate(-634 -3022)" opacity="0">
        <g id="T" transform="translate(649 3075)">
          <path id="right" d="M0,12V4L4,0H8V4H4v8Z" transform="translate(4 0)" fill="#512b81"/>
          <rect id="left" width="4" height="4" fill="#00a497"/>
        </g>
        <g id="J" transform="translate(657 3079)">
          <path id="path-7" data-name="path" d="M158.569,75.285h-4v8h-4v3.929a7,7,0,0,0,8-6.925Z" transform="translate(-150.569 -75.285)" fill="#512b81" stroke="#1f1f1f" stroke-width="1"/>
        </g>
      </g>
    </g>
  </g>
</svg>
