<svg id="icon_flag_hongkong" data-name="icon/flag/hongkong" xmlns="http://www.w3.org/2000/svg" xmlns:xlink="http://www.w3.org/1999/xlink" width="40" height="40" viewBox="0 0 40 40">
  <defs>
    <clipPath id="clip-path">
      <rect id="mask" width="40" height="40" fill="none"/>
    </clipPath>
  </defs>
  <g id="mask-2" data-name="mask" clip-path="url(#clip-path)">
    <path id="패스_29310" data-name="패스 29310" d="M20,40A20,20,0,1,1,40,20,20.022,20.022,0,0,1,20,40" transform="translate(0 -0.001)" fill="#c41912"/>
    <path id="패스_29311" data-name="패스 29311" d="M33.139,34.271" transform="translate(-13.654 -14.121)" fill="#fff"/>
    <path id="패스_29312" data-name="패스 29312" d="M23.4,30.489a4.328,4.328,0,0,1-1.629-.323,5.423,5.423,0,0,1-1.939-1.359l.148-.135a4.475,4.475,0,0,0,5.537,1.077c-2.665.484-3.15-1.822-3.3-2.656A3.189,3.189,0,0,0,18.74,24.84a2.113,2.113,0,0,1-2.746-1.732c-2.5,6.609,5.308,11.472,9.684,6.784a4.942,4.942,0,0,1-2.275.6M19.148,28.77l-.139-.709-.7-.184.633-.354-.045-.718.534.489.673-.265-.305.66.457.556-.718-.085Z" transform="translate(-6.391 -9.522)" fill="#fff"/>
    <path id="패스_29313" data-name="패스 29313" d="M34.008,34.462" transform="translate(-14.012 -14.2)" fill="#fff"/>
    <path id="패스_29314" data-name="패스 29314" d="M27.644,34.889a4.885,4.885,0,0,1-.135,2.351A4.419,4.419,0,0,1,26.7,38.69a5.441,5.441,0,0,1-1.894,1.422l-.085-.18A4.478,4.478,0,0,0,27.46,35c-.359,2.683-2.706,2.432-3.545,2.32A3.186,3.186,0,0,0,20.7,39.928,2.113,2.113,0,0,1,18.2,42.005c5.51,4.42,12.551-1.5,9.442-7.116m-3.8,5.779-.391.606-.139-.709-.7-.179.633-.355-.045-.722.529.493.673-.265-.3.655.458.561Z" transform="translate(-7.5 -14.376)" fill="#fff"/>
    <path id="패스_29315" data-name="패스 29315" d="M34.458,33.691" transform="translate(-14.198 -13.882)" fill="#fff"/>
    <path id="패스_29316" data-name="패스 29316" d="M34.947,33.5a4.948,4.948,0,0,1,2.194.853,4.318,4.318,0,0,1,1.127,1.22,5.43,5.43,0,0,1,.771,2.239l-.2.023a4.471,4.471,0,0,0-3.846-4.128c2.441,1.175,1.476,3.325,1.108,4.088a3.191,3.191,0,0,0,1.49,3.868A2.112,2.112,0,0,1,38.8,44.679c5.91-3.872,2.447-12.4-3.85-11.177m4.061,5.873-.39.61-.139-.709-.7-.184.633-.355-.045-.718.529.489.673-.265-.3.66.457.556Z" transform="translate(-14.399 -13.755)" fill="#fff"/>
    <path id="패스_29317" data-name="패스 29317" d="M33.863,33.028" transform="translate(-13.953 -13.609)" fill="#fff"/>
    <path id="패스_29318" data-name="패스 29318" d="M33.917,28.985a4.91,4.91,0,0,1,1.49-1.822,4.279,4.279,0,0,1,1.508-.7,5.458,5.458,0,0,1,2.369-.041l-.041.2a4.475,4.475,0,0,0-5.115,2.382c1.871-1.956,3.617-.377,4.232.206A3.187,3.187,0,0,0,42.5,29a2.117,2.117,0,0,1,3.244-.22c-1.862-6.816-11.039-6.156-11.824.206m6.583-1.57-.39.606-.139-.709-.7-.179.628-.355-.04-.722.529.493.673-.265-.305.655.462.561Z" transform="translate(-13.975 -9.862)" fill="#fff"/>
    <path id="패스_29319" data-name="패스 29319" d="M33.716,13.944c-7.059-.336-9.27,8.6-3.46,11.307a4.886,4.886,0,0,1-1.27-1.979,4.308,4.308,0,0,1-.2-1.651,5.429,5.429,0,0,1,.695-2.261l.175.1a4.474,4.474,0,0,0,.687,5.6c-1.288-2.382.758-3.558,1.5-3.962a3.191,3.191,0,0,0,1.072-4,2.111,2.111,0,0,1,.794-3.15M30.54,18.978l-.39.61-.143-.709-.7-.184.628-.35-.04-.723.529.489.673-.265-.305.66.462.556Z" transform="translate(-11.096 -5.742)" fill="#fff"/>
  </g>
</svg>
