<svg data-name="ico/100/forum03" xmlns="http://www.w3.org/2000/svg" width="100" height="100" viewBox="0 0 100 100">
    <path style="fill:none" d="M0 0h100v100H0z"/>
    <g data-name="그룹 3079">
        <g data-name="그룹 3085" transform="translate(6.422 12.858)">
            <path data-name="패스 15906" d="M79.688 1A6.318 6.318 0 0 1 86 7.318V59.01a6.317 6.317 0 0 1-6.319 6.318H7.318A6.318 6.318 0 0 1 1 59.01V7.318A6.318 6.318 0 0 1 7.318 1h19.907" transform="translate(.114 .114)" style="stroke-miterlimit:10;stroke-linecap:round;stroke-width:2px;stroke:#000;fill:none"/>
            <path data-name="선 80" transform="translate(1.114 50.05)" style="stroke-miterlimit:10;stroke-linecap:round;stroke-width:2px;stroke:#000;fill:none" d="M0 0h85.006"/>
            <path data-name="선 81" transform="translate(24.204 85.027)" style="stroke-miterlimit:10;stroke-linecap:round;stroke-width:2px;stroke:#000;fill:none" d="M0 0h38.827"/>
            <path data-name="선 82" transform="translate(32.017 66.195)" style="stroke-miterlimit:10;stroke-linecap:round;stroke-width:2px;stroke:#000;fill:none" d="M1.72 0 0 18.832"/>
            <path data-name="선 83" transform="translate(53.825 71.513)" style="stroke-miterlimit:10;stroke-linecap:round;stroke-width:2px;stroke:#000;fill:none" d="m0 0 1.404 13.513"/>
            <circle data-name="타원 66" cx="3.446" cy="3.446" r="3.446" transform="translate(40.17 54.185)" style="stroke-miterlimit:10;stroke-linecap:round;stroke-width:2px;stroke:#000;fill:none"/>
            <g data-name="그룹 3354" transform="translate(-1 3)">
                <path data-name="선 85" transform="translate(10.078 27.642)" style="stroke:#1f1f1f;stroke-miterlimit:10;stroke-linecap:round;stroke-width:2px;fill:none" d="m0 0 9 11"/>
                <path data-name="선 85" d="M4.495-3.3-1.47 12.281" transform="translate(11.078 15.642)" style="stroke:#1f1f1f;stroke-linecap:round;stroke-width:2px;fill:none"/>
                <circle data-name="타원 22" cx="5.5" cy="5.5" r="5.5" transform="translate(9.578 7.142)" style="fill:#61338f"/>
                <circle data-name="타원 23" cx="3" cy="3" r="3" transform="translate(6.578 24.142)" style="fill:#61338f"/>
                <circle data-name="타원 24" cx="4" cy="4" r="4" transform="translate(13.578 32.142)" style="fill:#61338f"/>
            </g>
        </g>
    </g>
    <g data-name="그룹 3086" transform="translate(28.832 2.001)">
        <path data-name="패스 9567" d="M26.441 57.074c-.133 0-.257-.007-.372-.016H13.921a4.262 4.262 0 0 1-4.2-4.146l-.891-7.664c-.288-2.136-1.966-2.6-5.461-3.078-1.661-.228-2.725-.838-3.163-1.813a3.316 3.316 0 0 1 .388-2.907 46.684 46.684 0 0 0 3.614-6.967 33.665 33.665 0 0 0 1.963-8.6c.019-.189.033-.326.045-.407a25.1 25.1 0 1 1 46.222 16.781c-.175.285-.359.572-.548.867a15.671 15.671 0 0 0-2.99 9.624v7.59a.729.729 0 0 1-1.458 0v-7.59a17.136 17.136 0 0 1 3.221-10.41c.184-.286.363-.566.533-.843A23.646 23.646 0 1 0 7.659 21.686c-.009.069-.022.186-.037.345a35.046 35.046 0 0 1-2.045 8.952 47.209 47.209 0 0 1-3.76 7.26c-.015.023-.566.893-.279 1.52.217.477.919.81 2.029.962 3.068.422 6.241.858 6.709 4.34l.9 7.711c.025.315.288 2.8 2.751 2.822h12.247a4.28 4.28 0 0 0 4.3-2.932.729.729 0 1 1 1.364.515 5.766 5.766 0 0 1-5.4 3.888" style="stroke-width:.6px;fill:#1f1f1f;stroke:#1f1f1f"/>
        <path data-name="패스 9568" d="M41.546 24.6a1.48 1.48 0 1 0-2.3-.259l-9.634 9.639H19.97v-4.554l11.958-11.96a1.48 1.48 0 1 0-.464-.466L19.409 29.058a.33.33 0 0 0-.1.232v4.69H7.151a.328.328 0 1 0 0 .656l15.973.042v5.762c-.659.149 1.315.15.657 0v-5.762l5.968-.042a.33.33 0 0 0 .232-.1l9.733-9.733a1.478 1.478 0 0 0 1.833-.2" transform="translate(-1.851 -3.997)" style="fill:#1f1f1f;stroke:#1f1f1f"/>
        <path data-name="패스 9569" d="M23.59 20.87a1.478 1.478 0 0 0 .2-1.833l4.865-4.865a.33.33 0 0 0 .1-.232V3.278a.328.328 0 1 0-.656 0V13.8l-4.768 4.769a1.478 1.478 0 1 0 .259 2.3" transform="translate(-5.713 -.8)" style="fill:#1f1f1f;stroke:#1f1f1f"/>
        <path data-name="패스 9570" d="M38.639 25.041a1.48 1.48 0 1 0 2.3.26l6.373-6.373h15.215a.328.328 0 0 0 0-.656H47.171a.33.33 0 0 0-.232.1l-6.468 6.469a1.478 1.478 0 0 0-1.833.2" transform="translate(-10.362 -4.956)" style="fill:#1f1f1f;stroke:#1f1f1f"/>
        <path data-name="패스 9571" d="M66.256 40.6H54.125a.33.33 0 0 0-.232.1L43.452 51.14a1.48 1.48 0 1 0 .464.464l10.345-10.346h11.995a.328.328 0 0 0 0-.656" transform="translate(-11.17 -11.012)" style="fill:#1f1f1f;stroke:#1f1f1f"/>
        <path data-name="패스 9572" d="M66.744 33.795H51.987a.33.33 0 0 0-.232.1l-7.772 7.771a1.48 1.48 0 1 0 .464.464l7.676-7.676h14.621a.328.328 0 0 0 0-.656" transform="translate(-11.314 -9.166)" style="fill:#1f1f1f;stroke:#1f1f1f"/>
        <path data-name="패스 9574" d="M2.32-.035a2.5 2.5 0 1 1-2.5 2.5 2.5 2.5 0 0 1 2.5-2.5z" transform="translate(29.168 38.999)" style="fill:#1f1f1f"/>
        <circle data-name="타원 19" cx="2.5" cy="2.5" r="2.5" transform="translate(29.168 30.999)" style="fill:#1f1f1f"/>
        <circle data-name="타원 20" cx="2.5" cy="2.5" r="2.5" transform="translate(19.168 34.999)" style="fill:#1f1f1f"/>
        <circle data-name="타원 21" cx="2.5" cy="2.5" r="2.5" transform="translate(36.168 16.999)" style="fill:#1f1f1f"/>
        <path data-name="패스 9573" d="M1.961-.038a2.5 2.5 0 1 1-2.5 2.5 2.5 2.5 0 0 1 2.5-2.5z" transform="translate(27.168 18.999)" style="fill:#1f1f1f"/>
        <path data-name="패스 9575" d="M1.948-.7a2.5 2.5 0 1 1-2.5 2.5 2.5 2.5 0 0 1 2.5-2.5z" transform="translate(29.168 9.999)" style="fill:#1f1f1f"/>
        <path data-name="패스 9576" d="M2.264-1.252a2.5 2.5 0 1 1-2.5 2.5 2.5 2.5 0 0 1 2.5-2.5z" transform="translate(14.249 17.999)" style="fill:#1f1f1f"/>
    </g>
</svg>
