<svg xmlns="http://www.w3.org/2000/svg" width="60.306" height="60.305" viewBox="0 0 60.306 60.305">
  <g id="ico_60_history10" data-name="ico/60/history10" transform="translate(-318.848 -3500.845)">
    <rect id="base" width="60" height="60" transform="translate(319 3501)" fill="none"/>
    <g id="icon" transform="translate(-3167.958 3078.893)">
      <g id="그룹_3165" data-name="그룹 3165" transform="translate(3486.956 423.314)">
        <g id="그룹_3162" data-name="그룹 3162" transform="translate(22.138 22.542)">
          <path id="패스_9835" data-name="패스 9835" d="M3574.815,522.688a7.258,7.258,0,0,1-2.513-14.067.707.707,0,0,1,.883.338.694.694,0,0,1-.307.937l-.012.006c-.023.011-.047.022-.071.031a5.858,5.858,0,1,0,7.52,7.526.7.7,0,1,1,1.314.484A7.283,7.283,0,0,1,3574.815,522.688Z" transform="translate(-3567.559 -508.574)" fill="#1f1f1f" stroke="#1f1f1f" stroke-width="0.3"/>
        </g>
        <g id="그룹_3163" data-name="그룹 3163" transform="translate(11.069 11.069)">
          <path id="패스_9836" data-name="패스 9836" d="M3545.583,503.457a18.328,18.328,0,1,1,7.825-34.9c.032.012.105.047.179.083a.706.706,0,0,1,.322.942.7.7,0,0,1-.933.319c-.05-.025-.087-.044-.126-.06a16.927,16.927,0,1,0,8.045,8.068c-.034-.08-.056-.122-.077-.166a.7.7,0,1,1,1.254-.625c.038.076.075.152.105.227a18.076,18.076,0,0,1,1.737,7.79A18.349,18.349,0,0,1,3545.583,503.457Z" transform="translate(-3527.258 -466.801)" fill="#1f1f1f" stroke="#1f1f1f" stroke-width="0.3"/>
        </g>
        <g id="그룹_3164" data-name="그룹 3164" transform="translate(0 0)">
          <path id="패스_9837" data-name="패스 9837" d="M3516.35,485.294a29.4,29.4,0,1,1,9.4-57.262.7.7,0,1,1-.447,1.327,27.956,27.956,0,1,0,17.589,17.589.7.7,0,0,1,1.328-.447,29.425,29.425,0,0,1-27.869,38.793Z" transform="translate(-3486.956 -426.501)" fill="#1f1f1f" stroke="#1f1f1f" stroke-width="0.3"/>
        </g>
      </g>
      <g id="그룹_3169" data-name="그룹 3169" transform="translate(3515.653 422.107)">
        <g id="그룹_3166" data-name="그룹 3166" transform="translate(0 7.471)">
          <path id="패스_9838" data-name="패스 9838" d="M3592.137,473.143a.7.7,0,0,1-.5-1.2l22.434-22.433a.7.7,0,1,1,.99.99l-22.433,22.433A.7.7,0,0,1,3592.137,473.143Z" transform="translate(-3591.437 -449.309)" fill="#1f1f1f" stroke="#1f1f1f" stroke-width="0.3"/>
        </g>
        <g id="그룹_3167" data-name="그룹 3167" transform="translate(12.193 0)">
          <path id="패스_9839" data-name="패스 9839" d="M3638.671,439.08a.7.7,0,0,1-.673-.508l-2.139-7.471a.7.7,0,0,1,.179-.688l8.1-8.1a.7.7,0,0,1,1.169.3l2.138,7.471a.7.7,0,0,1-.178.688l-8.1,8.1A.7.7,0,0,1,3638.671,439.08Z" transform="translate(-3635.832 -422.107)" fill="#501d83" stroke="#501d83" stroke-width="0.3"/>
        </g>
        <g id="그룹_3168" data-name="그룹 3168" transform="translate(14.332 7.471)">
          <path id="패스_9840" data-name="패스 9840" d="M3651.79,460.95a.7.7,0,0,1-.193-.027l-7.471-2.138a.7.7,0,0,1-.3-1.168l8.1-8.1a.7.7,0,0,1,.688-.178l7.471,2.138a.7.7,0,0,1,.3,1.168l-8.1,8.1A.7.7,0,0,1,3651.79,460.95Zm-6.135-3.185,5.931,1.7,6.969-6.968-5.931-1.7Z" transform="translate(-3643.619 -449.309)" fill="#1f1f1f" stroke="#1f1f1f" stroke-width="0.3"/>
        </g>
      </g>
    </g>
  </g>
</svg>
