<svg xmlns="http://www.w3.org/2000/svg" xmlns:xlink="http://www.w3.org/1999/xlink" width="40" height="60" viewBox="0 0 40 60">
  <defs>
    <linearGradient id="linear-gradient" x1="0.123" y1="0.577" x2="1.038" y2="0.343" gradientUnits="objectBoundingBox">
      <stop offset="0" stop-color="#00a597"/>
      <stop offset="1" stop-color="#00ebd7"/>
    </linearGradient>
  </defs>
  <g id="ico_location" transform="translate(0)">
    <path id="path" d="M15.326,27.876c-.031-.07-.071-.139-.1-.209-.055-.116-.1-.232-.157-.348-.031-.07-.063-.139-.086-.2-.055-.132-.1-.255-.157-.387a1.492,1.492,0,0,1-.063-.17c0-.015-.008-.023-.016-.039-.031-.093-.063-.186-.1-.279s-.071-.186-.1-.286-.071-.217-.1-.325c-.031-.093-.063-.186-.086-.286s-.055-.225-.086-.333c-.024-.093-.047-.186-.071-.286-.024-.116-.047-.232-.071-.341-.024-.093-.039-.186-.063-.286-.024-.116-.039-.24-.063-.356l-.047-.279c-.016-.124-.031-.255-.047-.387-.008-.085-.024-.17-.031-.255-.016-.139-.024-.286-.031-.434,0-.07-.016-.147-.016-.217-.008-.217-.016-.434-.016-.65a10.961,10.961,0,0,1,5.539-9.964l5.586-3A10.969,10.969,0,0,0,19.4,18.524c0,.217,0,.434.016.65a2.01,2.01,0,0,0,.016.217c.008.147.016.286.031.434.008.085.024.17.031.255.016.132.031.255.047.387.016.093.031.178.047.271.016.124.039.24.063.364.016.093.039.186.055.279l.071.348.071.279c.031.116.055.232.086.341.024.093.055.186.086.279.031.108.063.225.1.333l.094.279.118.325a1.1,1.1,0,0,1,.063.17c.047.132.1.263.157.387.031.07.063.139.086.2.055.116.1.232.157.348.031.07.063.139.1.209.055.116.11.225.173.341.031.062.071.132.1.194s.071.132.11.2c.11.194.22.379.33.573.031.054.071.116.1.17q.212.337.448.674c.031.046.063.085.094.132.118.17.244.333.369.5.047.062.094.124.149.186.134.163.267.325.409.48a1.352,1.352,0,0,0,.1.116c.173.194.346.379.526.557.047.046.094.093.141.132.141.139.283.271.432.41.055.046.11.1.165.147.2.178.409.356.621.519.016.015.039.023.055.039.2.155.4.3.6.441.079.054.149.108.228.155l.212.139c.094.062.2.124.3.186.071.039.141.085.212.124.1.062.212.116.314.178.071.039.134.077.2.108.118.062.236.116.354.178a1.9,1.9,0,0,0,.181.085c.165.077.33.147.5.225a.88.88,0,0,1,.126.054c.134.054.267.108.4.155.055.015.1.039.157.054.149.054.306.1.456.147a.252.252,0,0,1,.071.023c.173.054.354.1.534.147.047.015.1.023.149.039l.409.093c.055.008.11.023.157.031l.55.093c.165.023.33.039.495.054A1.08,1.08,0,0,1,32,32.97l.338.023H33c.134,0,.275,0,.409-.008h.071c.157-.008.314-.023.471-.039a.785.785,0,0,0,.134-.015c.11-.015.22-.023.33-.039l.157-.023c.1-.015.2-.031.306-.054.055-.008.1-.023.157-.031.118-.023.228-.054.346-.077l.1-.023c.149-.039.3-.077.448-.124a.459.459,0,0,0,.11-.039c.11-.039.22-.07.322-.108.047-.015.094-.039.149-.054.1-.039.2-.077.3-.116.047-.015.086-.039.134-.054.126-.054.244-.108.369-.163.016,0,.031-.015.047-.023.118-.062.236-.116.354-.178l-5.586,3c-.118.062-.236.124-.354.178h0c-.016,0-.024.015-.039.015-.118.054-.244.116-.369.163-.047.015-.094.039-.134.054-.094.039-.2.077-.3.116-.047.015-.094.039-.149.054-.11.039-.212.077-.322.108-.039.015-.079.023-.118.039-.149.046-.291.085-.44.124h-.016c-.031,0-.055.015-.086.015-.118.031-.228.054-.346.077-.055.008-.1.023-.157.031-.1.023-.2.039-.306.054l-.165.023c-.11.015-.22.031-.33.039a.785.785,0,0,0-.134.015c-.157.015-.314.031-.471.039h-.071c-.134,0-.275.008-.409.008h-.66c-.11,0-.228-.015-.338-.023a.542.542,0,0,1-.157-.015c-.165-.015-.33-.031-.495-.054-.189-.023-.369-.054-.55-.093-.055-.008-.1-.023-.157-.031l-.416-.093c-.047-.015-.1-.023-.149-.039-.181-.046-.354-.093-.534-.147a.252.252,0,0,1-.071-.023c-.157-.046-.306-.1-.456-.147-.055-.015-.1-.039-.157-.054-.134-.046-.267-.1-.4-.155a.879.879,0,0,1-.126-.054c-.157-.062-.314-.132-.471-.2a.06.06,0,0,1-.031-.015,1.9,1.9,0,0,0-.181-.085c-.118-.054-.236-.116-.346-.17-.071-.039-.134-.077-.2-.108-.1-.054-.212-.116-.314-.178-.071-.039-.141-.085-.212-.124-.1-.062-.2-.124-.3-.186l-.212-.139-.141-.093a.6.6,0,0,0-.086-.062c-.2-.139-.409-.286-.6-.441-.016-.015-.039-.023-.055-.039-.212-.17-.416-.341-.621-.519-.024-.023-.047-.039-.071-.062a.936.936,0,0,0-.094-.085c-.149-.132-.291-.271-.432-.41-.047-.046-.094-.093-.141-.132-.181-.178-.354-.364-.526-.557l-.024-.023a.822.822,0,0,0-.079-.093c-.141-.155-.275-.317-.409-.48-.047-.062-.094-.124-.149-.186-.126-.163-.251-.325-.377-.5a1.132,1.132,0,0,1-.071-.1c0-.008-.016-.023-.024-.031q-.236-.325-.448-.674a1.953,1.953,0,0,1-.1-.17c-.118-.186-.228-.379-.33-.573-.024-.039-.047-.077-.063-.108s-.031-.054-.047-.085c-.031-.062-.071-.132-.1-.194-.055-.116-.118-.225-.173-.341Z" transform="translate(-8.553 -1.971)" fill="#008479"/>
    <path id="path-2" data-name="path" d="M26.425,22.6c-.016-.209-.024-.418-.047-.619-.008-.124-.031-.248-.047-.372-.024-.186-.039-.372-.063-.557-.016-.132-.039-.263-.063-.395-.031-.178-.055-.348-.086-.519-.024-.139-.055-.271-.086-.4-.031-.17-.071-.333-.11-.5-.031-.139-.071-.271-.1-.41-.039-.163-.079-.325-.126-.488-.039-.139-.079-.271-.126-.41-.047-.155-.094-.317-.141-.472-.047-.139-.094-.271-.141-.4l-.165-.465c-.031-.077-.063-.163-.094-.24-.071-.186-.149-.379-.228-.565-.039-.1-.086-.194-.126-.294-.071-.17-.149-.333-.228-.5l-.141-.3c-.079-.163-.165-.325-.244-.488-.047-.093-.094-.186-.149-.286-.126-.24-.259-.472-.393-.7V13.2c-.134-.232-.283-.465-.424-.689-.039-.062-.086-.132-.126-.194-.118-.178-.236-.364-.361-.542-.039-.054-.071-.108-.11-.155-.047-.07-.1-.139-.157-.209-.173-.24-.354-.48-.542-.712-.071-.085-.141-.178-.212-.263C21.4,10.2,21.2,9.967,21,9.743l-.165-.186c-.039-.039-.071-.077-.11-.116-.149-.163-.306-.333-.464-.488l-.141-.139c-.189-.186-.377-.372-.574-.557a.936.936,0,0,0-.094-.085c-.165-.155-.338-.3-.5-.449-.063-.054-.118-.108-.181-.155-.181-.155-.361-.3-.55-.449-.031-.023-.055-.046-.086-.07-.212-.163-.424-.325-.644-.48-.063-.046-.118-.085-.181-.124-.157-.108-.306-.217-.464-.317-.1-.07-.2-.132-.306-.2-.141-.093-.283-.178-.424-.263-.1-.062-.2-.124-.306-.178-.149-.085-.3-.17-.456-.255-.1-.054-.2-.108-.3-.163-.165-.085-.338-.17-.5-.255-.086-.039-.173-.085-.259-.124-.236-.108-.479-.217-.723-.317-.063-.023-.126-.046-.181-.07-.189-.077-.385-.155-.581-.225-.079-.031-.149-.054-.228-.077-.22-.077-.44-.147-.66-.217-.039-.008-.071-.023-.11-.031-.251-.077-.511-.147-.77-.209a2.132,2.132,0,0,1-.212-.054c-.2-.046-.393-.093-.6-.132L10,3.309c-.267-.046-.526-.093-.794-.132-.244-.031-.479-.062-.715-.085-.079,0-.149-.015-.22-.015-.165-.015-.33-.023-.495-.031-.086,0-.165,0-.251-.008-.157,0-.314-.008-.479-.008H6.822c-.2,0-.393,0-.581.015h-.1c-.228.015-.456.031-.676.054a1.927,1.927,0,0,0-.2.023c-.157.015-.322.039-.479.062-.079.008-.157.023-.236.039-.149.023-.3.046-.44.077l-.228.046q-.247.046-.495.116c-.047.015-.1.023-.149.039-.212.054-.424.116-.636.178-.055.015-.11.039-.165.054-.157.046-.314.1-.471.155-.071.023-.141.054-.212.077-.141.054-.283.108-.424.17-.063.023-.134.054-.2.077C.953,4.293.78,4.37.6,4.455c-.024.008-.047.023-.071.031-.173.085-.346.17-.519.263l5.586-3c.173-.093.338-.178.519-.263h.008c.016-.008.039-.015.055-.023.173-.085.354-.163.534-.24a2.064,2.064,0,0,1,.2-.077c.141-.062.283-.116.432-.17C7.411.956,7.482.925,7.553.9c.157-.054.314-.108.471-.155.055-.015.11-.039.165-.054C8.4.631,8.613.569,8.825.515h.024A.662.662,0,0,0,8.967.484c.165-.039.33-.077.5-.116L9.69.321c.149-.031.3-.054.44-.077.079-.015.157-.023.236-.039.157-.023.322-.046.479-.062a1.926,1.926,0,0,0,.2-.023c.228-.023.448-.039.676-.054h.1c.2-.008.393-.015.589-.015h.228c.157,0,.314,0,.479.008.086,0,.165,0,.251.008.165.008.33.023.495.031a2.1,2.1,0,0,1,.22.015c.236.023.479.046.715.085.267.039.534.085.794.132l.228.046c.2.039.4.085.6.132a2.132,2.132,0,0,1,.212.054c.259.062.519.132.77.209.031.008.071.023.1.031.22.07.44.139.66.217.079.023.149.054.228.077.2.07.385.147.581.225.063.023.126.046.181.07.228.093.456.194.676.294.016,0,.031.015.047.023.086.039.173.085.259.124.173.085.338.163.5.255.1.054.2.108.3.163.149.085.306.163.456.255.1.062.2.124.306.178l.432.263c.1.062.2.132.3.2l.2.132c.086.062.173.124.267.186.063.039.118.085.181.124.22.155.432.317.644.48.031.023.055.046.086.07.181.147.369.294.55.449l.181.155.181.155c.11.1.22.194.322.294.031.031.063.054.094.085.2.178.385.372.574.557l.141.139c.157.163.314.325.464.488.039.039.071.077.11.116a.36.36,0,0,0,.055.054c.039.039.071.085.11.132.2.225.393.457.581.689.071.085.141.178.212.263.181.232.361.472.534.712a1.7,1.7,0,0,0,.11.139l.047.07c.039.054.071.108.11.155.126.178.244.356.361.542.039.062.086.132.126.194.141.225.283.457.424.689v.015l.33.581a.919.919,0,0,1,.063.124c.047.093.1.186.149.279.086.163.165.325.244.488l.141.3c.079.163.149.333.228.5.039.1.086.194.126.294.079.186.149.372.228.557.031.077.063.163.094.24a.163.163,0,0,0,.024.054c.047.132.094.271.141.41s.094.271.141.4c.055.155.094.317.141.472.039.139.086.271.126.41.047.163.086.325.126.488.031.139.071.271.1.41.039.163.071.333.11.5.031.132.063.271.086.4.031.178.055.348.086.526.024.132.047.263.063.387.024.186.047.372.063.557l.047.372c.024.209.031.418.047.619,0,.1.016.209.024.31.016.31.024.627.024.937a25.383,25.383,0,0,1-3.308,13.881c-.165.317-.338.635-.519.968s-.369.674-.566,1.022-.4.7-.613,1.076l-.33.557c-.558.945-1.171,1.959-1.846,3.058-.267.441-.55.89-.841,1.355-.432.7-.9,1.425-1.375,2.191-.157.255-.322.511-.487.774-.33.526-.676,1.061-1.029,1.618s-.723,1.13-1.1,1.719c-1.509,2.361-3.213,5-5.115,7.974l-5.586,3c15.25-23.822,17.152-26.1,17.136-36.2,0-.31-.008-.627-.024-.937,0-.1-.016-.209-.024-.31Z" transform="translate(7.949 -0.05)" fill="#00a295"/>
    <path id="path-3" data-name="path" d="M24.285,4.024C14.778,2.708,7.094,9.839,7.11,19.942S9.043,32.848,24.387,60.9c15.258-23.814,17.16-26.09,17.144-36.194S33.792,5.34,24.285,4.024Zm.055,30.79C17.748,33.9,12.39,27.475,12.374,20.46S17.693,8.5,24.293,9.413s11.95,7.339,11.966,14.354S30.94,35.728,24.34,34.814" transform="translate(-7.11 -0.912)" fill="url(#linear-gradient)"/>
  </g>
</svg>
