<svg xmlns="http://www.w3.org/2000/svg" width="60" height="60" viewBox="0 0 60 60">
  <g id="ico_60_history08" data-name="ico/60/history08" transform="translate(-319 -3501)">
    <rect id="base" width="60" height="60" transform="translate(319 3501)" fill="none"/>
    <g id="icon" transform="translate(319.216 3506)">
      <rect id="box" width="46" height="24" transform="translate(11.786 2)" fill="none" stroke="#1f1f1f" stroke-linecap="round" stroke-linejoin="round" stroke-width="1.6"/>
      <path id="path" d="M16.57,17.606a7.195,7.195,0,1,1,7.195-7.194A7.2,7.2,0,0,1,16.57,17.606Z" transform="translate(-5.285 -4.217)" fill="#eee"/>
      <path id="path-2" data-name="path" d="M13.486,11.422A4.1,4.1,0,1,1,17.6,7.32,4.112,4.112,0,0,1,13.486,11.422Z" transform="translate(-2.202 -1.139)" fill="#eee" stroke="#1f1f1f" stroke-linecap="round" stroke-linejoin="round" stroke-width="1.6"/>
      <path id="path-3" data-name="path" d="M37.037,46.46a3.8,3.8,0,1,1,3.808-3.8A3.81,3.81,0,0,1,37.037,46.46Z" transform="translate(-6.418 -7.515)" fill="#501d83" stroke="#501d83" stroke-linecap="round" stroke-linejoin="round" stroke-width="1.6"/>
      <path id="path-4" data-name="path" d="M42.664,52.292H30.241A3.935,3.935,0,0,0,26.3,56.223v4.9" transform="translate(-5.085 -10.123)" fill="none" stroke="#1f1f1f" stroke-width="1.6"/>
      <path id="path-5" data-name="path" d="M60.3,46.46a3.8,3.8,0,1,1,3.808-3.8A3.81,3.81,0,0,1,60.3,46.46Z" transform="translate(-10.895 -7.515)" fill="#501d83" stroke="#501d83" stroke-linecap="round" stroke-linejoin="round" stroke-width="1.6"/>
      <path id="path-6" data-name="path" d="M68.348,61.122v-4.9a3.935,3.935,0,0,0-3.938-3.931H53.5a3.935,3.935,0,0,0-3.938,3.931v4.9" transform="translate(-9.562 -10.123)" fill="none" stroke="#1f1f1f" stroke-linecap="square" stroke-width="1.6"/>
      <line id="line" y2="4.375" transform="translate(41.758 16.764)" fill="none" stroke="#1f1f1f" stroke-linecap="round" stroke-linejoin="round" stroke-width="1.6"/>
      <line id="line-2" data-name="line" y2="8.241" transform="translate(46.747 12.898)" fill="none" stroke="#1f1f1f" stroke-linecap="round" stroke-linejoin="round" stroke-width="1.6"/>
      <line id="line-3" data-name="line" y2="12.106" transform="translate(51.736 9.033)" fill="none" stroke="#1f1f1f" stroke-linecap="round" stroke-linejoin="round" stroke-width="1.6"/>
      <path id="path-7" data-name="path" d="M24.972,63.249h0Z" transform="translate(-3.753 -12.25)" fill="none" stroke="#1f1f1f" stroke-linecap="round" stroke-linejoin="round" stroke-width="1.6"/>
      <path id="path-8" data-name="path" d="M15.846,54.258l2.343-32.926H31.236a2.2,2.2,0,1,0,0-4.4H5.149A4.467,4.467,0,0,0,1,21.52c0,.04,0,.111,0,.214l.883,12.417c.21,1.991,2.208,3.133,4.4,3.042l.033.031,1.2,17.034H1" transform="translate(-0.214 -3.26)" fill="#eee"/>
      <path id="path-9" data-name="path" d="M15.846,54.258l2.343-32.926H31.236a2.2,2.2,0,1,0,0-4.4H5.149A4.467,4.467,0,0,0,1,21.52c0,.04,0,.111,0,.214l.883,12.417c.21,1.991,2.208,3.133,4.4,3.042l.033.031,1.2,17.034H1" transform="translate(-0.214 -3.26)" fill="none" stroke="#1f1f1f" stroke-linecap="round" stroke-linejoin="round" stroke-width="1.6"/>
      <line id="line-4" data-name="line" x1="0.991" y1="14.029" transform="translate(5.113 19.934)" fill="none" stroke="#1f1f1f" stroke-linecap="round" stroke-linejoin="round" stroke-width="1.6"/>
    </g>
  </g>
</svg>
