<svg xmlns="http://www.w3.org/2000/svg" width="26.001" height="26" viewBox="0 0 26.001 26">
  <g id="ico_26_youtube" transform="translate(-244 -4274)">
    <rect id="base" width="26" height="26" transform="translate(244 4274)" fill="none"/>
    <g id="icon" transform="translate(-28 -1)">
      <path id="path" d="M-5265.028,3870a55.656,55.656,0,0,1-9.221-.648l-.012,0-.01,0a3.958,3.958,0,0,1-3.206-2.931A24.79,24.79,0,0,1-5278,3861a29.515,29.515,0,0,1,.462-5.4s0-.005,0-.007a3.922,3.922,0,0,1,3.208-2.943l.006,0,.006,0a54.386,54.386,0,0,1,9.232-.65,75.211,75.211,0,0,1,9.229.535l.038.006h.007l.026,0a3.956,3.956,0,0,1,3.207,2.938,24.915,24.915,0,0,1,.578,5.463v.019a34.242,34.242,0,0,1-.567,5.389l-.006.037a.031.031,0,0,0,0,.012,3.925,3.925,0,0,1-3.208,2.943h-.006l-.016,0A55.656,55.656,0,0,1-5265.028,3870Zm-1.294-13h-.057a1.724,1.724,0,0,0-1.62,1.735v4.526a1.729,1.729,0,0,0,1.674,1.737,1.483,1.483,0,0,0,.779-.219l3.742-2.264a1.737,1.737,0,0,0,.8-1.517,1.737,1.737,0,0,0-.8-1.517l-3.742-2.262A1.475,1.475,0,0,0-5266.323,3857Z" transform="translate(5550 427)" fill="#1f1f1f"/>
    </g>
  </g>
</svg>
