<svg xmlns="http://www.w3.org/2000/svg" xmlns:xlink="http://www.w3.org/1999/xlink" width="100" height="100" viewBox="0 0 100 100">
  <defs>
    <clipPath id="clip-path">
      <rect id="사각형_2309" data-name="사각형 2309" width="90.911" height="52.81" transform="translate(0 0)" fill="none" stroke="#fff" stroke-width="1"/>
    </clipPath>
    <clipPath id="clip-path-2">
      <rect id="사각형_2310" data-name="사각형 2310" width="41.495" height="14.01" transform="translate(0 0)" fill="none" stroke="#00a497" stroke-width="1"/>
    </clipPath>
  </defs>
  <g id="ico_100_rsps05" data-name="ico/100/rsps05" transform="translate(-1460 -1574)">
    <rect id="base" width="100" height="100" transform="translate(1460 1574)" fill="#fff" opacity="0"/>
    <g id="ico" transform="translate(0 -8)">
      <g id="그룹_3017" data-name="그룹 3017" transform="translate(1465 1598)" clip-path="url(#clip-path)">
        <path id="패스_9470" data-name="패스 9470" d="M64.348,45.574c0-8.632-6.216-21.988-14.713-23.513a10.949,10.949,0,1,0-8.4,0c-8.494,1.528-14.676,14.883-14.68,23.513" fill="none" stroke="#fff" stroke-linecap="round" stroke-linejoin="round" stroke-width="2"/>
        <path id="패스_9471" data-name="패스 9471" d="M32.625,45.574c0-7.228-5.18-19-12.294-20.282a9.169,9.169,0,1,0-7.032,0C6.183,26.569,1,38.344,1,45.574" fill="none" stroke="#fff" stroke-linecap="round" stroke-linejoin="round" stroke-width="2"/>
        <path id="패스_9472" data-name="패스 9472" d="M32.625,45.875c0,3.278-1.356,5.935-3.028,5.935s-3.028-2.657-3.028-5.935" fill="none" stroke="#fff" stroke-linecap="round" stroke-linejoin="round" stroke-width="2"/>
        <path id="패스_9473" data-name="패스 9473" d="M32.625,45.574c0-7.228-5.18-19-12.294-20.282a9.169,9.169,0,1,0-7.032,0C6.183,26.569,1,38.344,1,45.574" fill="none" stroke="#fff" stroke-linecap="round" stroke-linejoin="round" stroke-width="2"/>
        <path id="패스_9474" data-name="패스 9474" d="M32.625,45.648c0,3.278-1.356,5.935-3.028,5.935s-3.028-2.657-3.028-5.935" fill="none" stroke="#fff" stroke-linecap="round" stroke-linejoin="round" stroke-width="2"/>
        <path id="패스_9475" data-name="패스 9475" d="M58.286,45.574c0-7.228,5.18-19,12.294-20.282a9.169,9.169,0,1,1,7.032,0c7.116,1.277,12.3,13.052,12.3,20.282" fill="none" stroke="#fff" stroke-linecap="round" stroke-linejoin="round" stroke-width="2"/>
        <path id="패스_9476" data-name="패스 9476" d="M58.286,45.648c0,3.278,1.356,5.935,3.028,5.935s3.028-2.657,3.028-5.935" fill="none" stroke="#fff" stroke-linecap="round" stroke-linejoin="round" stroke-width="2"/>
      </g>
      <g id="그룹_3018" data-name="그룹 3018" transform="translate(1514 1652)" clip-path="url(#clip-path-2)">
        <path id="패스_9477" data-name="패스 9477" d="M40.495,1S32.11,13.01,1,13.01" fill="none" stroke="#00a497" stroke-linecap="round" stroke-linejoin="round" stroke-width="2"/>
      </g>
    </g>
  </g>
</svg>
