<svg xmlns="http://www.w3.org/2000/svg" width="100" height="100" viewBox="0 0 100 100">
    <path style="fill:none" d="M0 0h100v100H0z"/>
    <g data-name="그룹 3079">
        <path data-name="선 94" transform="translate(16.5 23.5)" style="stroke-width:2px;stroke-linecap:round;stroke:#1f1f1f;fill:none" d="M0 0v27"/>
        <path data-name="선 95" transform="translate(25.5 37.5)" style="stroke-width:2px;stroke-linecap:round;stroke:#1f1f1f;fill:none" d="M0 0v13"/>
        <path data-name="선 96" transform="translate(34.5 42.5)" style="stroke-width:2px;stroke-linecap:round;stroke:#1f1f1f;fill:none" d="M0 0v8"/>
        <path d="M46.664 52.292H30.241a3.935 3.935 0 0 0-3.941 3.931v8.9" transform="translate(-12.164 29.704)" style="stroke-width:1.6px;stroke-miterlimit:10;stroke-linecap:round;stroke:#1f1f1f;fill:none"/>
        <path data-name="path" d="M26.3 52.292h16.423a3.935 3.935 0 0 1 3.941 3.931v8.9" transform="translate(40.836 29.704)" style="stroke-width:1.6px;stroke-miterlimit:10;stroke-linecap:round;stroke:#1f1f1f;fill:none"/>
        <path data-name="path" d="M62.5 50.86a6 6 0 1 1 6.013-6 6 6 0 0 1-6.013 6z" transform="translate(-12.008 26.313)" style="fill:#501d83;stroke:#501d83;stroke-linejoin:round;stroke-width:1.6px;stroke-linecap:round"/>
        <path data-name="path" d="M62.5 50.86a6 6 0 1 1 6.013-6 6 6 0 0 1-6.013 6z" transform="translate(-36.008 26.313)" style="fill:#501d83;stroke:#501d83;stroke-linejoin:round;stroke-width:1.6px;stroke-linecap:round"/>
        <path data-name="path" d="M62.521 50.86a6 6 0 1 0-6.013-6 6 6 0 0 0 6.013 6z" transform="translate(12.628 26.313)" style="fill:#501d83;stroke:#501d83;stroke-linejoin:round;stroke-width:1.6px;stroke-linecap:round"/>
        <path data-name="path" d="M72.348 65.122v-8.9a3.935 3.935 0 0 0-3.938-3.931H53.5a3.935 3.935 0 0 0-3.938 3.931v8.9" transform="translate(-10.455 29.704)" style="stroke-width:1.6px;stroke-miterlimit:10;stroke-linecap:round;stroke:#1f1f1f;fill:none"/>
    </g>
    <g data-name="그룹 3077">
        <path data-name="패스 9562" d="M75.019 2H82a2 2 0 0 1 2 2l-.031 11.983s.234.861 1 .861S86 15.983 86 15.983V4a4 4 0 0 0-4-4h-6.981s-.894.266-.894 1.016.894.984.894.984" style="fill:#171717" transform="translate(9 11)"/>
        <path data-name="패스 9563" d="M41.136 47c-.01.017.989-.124.989-.969s-.989-1-.989-1L1 45a2 2 0 0 1-2-2V4a2 2 0 0 1 2-2l45.059-.011s.894-.239.894-1.036S46.059 0 46.059 0H1a4 4 0 0 0-4 4v39a4 4 0 0 0 4 4" style="fill:#171717" transform="translate(9 11)"/>
        <path data-name="패스 9564" d="M84 43a2 2 0 0 1-2 2h-2.722s-.934.187-.934 1.016.934.984.934.984H82a4 4 0 0 0 4-4v-3.5s-.125-.925-.984-.925A1.091 1.091 0 0 0 84 39.5" style="fill:#171717" transform="translate(9 11)"/>
    </g>
    <g data-name="그룹 3079">
        <path data-name="패스 15903" d="m59.452 26.978 4.2-4.145-4.513-3.186" transform="translate(21.18 17.103)" style="stroke:#000;stroke-miterlimit:10;stroke-width:2px;stroke-linecap:round;fill:none"/>
        <g data-name="그룹 3075">
            <path data-name="패스 15904" d="m58.029 10.741 13.784 9.382a3.8 3.8 0 0 1 1 5.278L60.171 38.15" transform="translate(21.051 16.085)" style="stroke:#000;stroke-miterlimit:10;stroke-width:2px;stroke-linecap:round;fill:none"/>
            <path data-name="선 78" transform="translate(80.294 37.292)" style="stroke:#000;stroke-miterlimit:10;stroke-width:2px;stroke-linecap:round;fill:none" d="M0 22.902V0"/>
            <path data-name="패스 15905" d="M64.108 11.855C60.2 9.068 57.5 8.54 52.841 8.365c-3.541-.133-8.207 2.055-10.241 3.11l-10.912 5.2-10.542-5.76a3.8 3.8 0 1 0-3.8 6.581l11.88 6.534a3.681 3.681 0 0 0 .94.315c.056.023.111.037.168.057a3.54 3.54 0 0 0 .51.095 3.7 3.7 0 0 0 2.284-.164l8.444-4.13v24.178" transform="translate(16.186 15.813)" style="stroke:#000;stroke-miterlimit:10;stroke-width:2px;stroke-linecap:round;fill:none"/>
            <path data-name="선 79" transform="translate(22.074 20.605)" style="stroke:#000;stroke-miterlimit:10;stroke-width:2px;stroke-linecap:round;fill:none" d="M9.559 6.389 0 0"/>
        </g>
        <path data-name="패스 15908" d="M13.766 6.882A6.883 6.883 0 1 1 6.883 0a6.883 6.883 0 0 1 6.883 6.882" transform="translate(62.999 7.656)" style="fill:none"/>
        <path data-name="패스 15907" d="M13.766 6.882A6.883 6.883 0 1 1 6.883 0a6.883 6.883 0 0 1 6.883 6.882" transform="translate(63 7.656)" style="stroke-width:2px;stroke:#1f1f1f;fill:none"/>
    </g>
</svg>
