<svg xmlns="http://www.w3.org/2000/svg" width="60.303" height="60" viewBox="0 0 60.303 60">
  <g id="ico_60_history01" data-name="ico/60/history01" transform="translate(-318.849 -3501)">
    <rect id="base" width="60" height="60" transform="translate(319 3501)" fill="none"/>
    <g id="icon" transform="translate(-1443.445 2126.446)">
      <g id="그룹_3050" data-name="그룹 3050" transform="translate(1762.446 1402.205)">
        <g id="그룹_3048" data-name="그룹 3048" transform="translate(0 7.861)">
          <path id="패스_9752" data-name="패스 9752" d="M1781.169,1531.431a.589.589,0,0,1-.581-.5l-1.087-6.977a.589.589,0,0,1,.194-.533l8.549-7.5a1.716,1.716,0,0,0-1.988-2.777l-5.994,3.47a13.58,13.58,0,0,1-3.975,1.535l-8.138,1.737a5.716,5.716,0,0,0-4.516,5.978l.313,4.934a.589.589,0,0,1-1.175.074l-.313-4.935a6.888,6.888,0,0,1,5.443-7.2l8.139-1.737a12.4,12.4,0,0,0,3.63-1.4l5.994-3.47a2.893,2.893,0,0,1,3.354,4.681l-8.305,7.282,1.037,6.657a.589.589,0,0,1-.491.672A.607.607,0,0,1,1781.169,1531.431Z" transform="translate(-1762.446 -1511.744)" fill="#1f1f1f" stroke="#1f1f1f" stroke-width="0.3"/>
        </g>
        <g id="그룹_3049" data-name="그룹 3049" transform="translate(3.834)">
          <path id="패스_9753" data-name="패스 9753" d="M1784.549,1488.681a5.5,5.5,0,1,1,.677-.042A5.5,5.5,0,0,1,1784.549,1488.681Zm.006-9.815a4.387,4.387,0,0,0-.532.032,4.319,4.319,0,1,0,4.815,3.757h0A4.325,4.325,0,0,0,1784.555,1478.866Z" transform="translate(-1779.057 -1477.688)" fill="#1f1f1f" stroke="#1f1f1f" stroke-width="0.3"/>
        </g>
      </g>
      <g id="그룹_3054" data-name="그룹 3054" transform="translate(1797.004 1402.206)">
        <g id="그룹_3051" data-name="그룹 3051" transform="translate(1.951 8.523)">
          <path id="패스_9754" data-name="패스 9754" d="M1943.195,1533.641h-.038a.589.589,0,0,1-.55-.625l.313-4.935a5.716,5.716,0,0,0-4.517-5.978l-8.136-1.737a13.576,13.576,0,0,1-3.976-1.536l-5.379-3.116a.589.589,0,1,1,.59-1.018l5.379,3.116a12.407,12.407,0,0,0,3.632,1.4l8.137,1.737a6.888,6.888,0,0,1,5.444,7.2l-.313,4.936A.589.589,0,0,1,1943.195,1533.641Z" transform="translate(-1920.618 -1514.616)" fill="#1f1f1f" stroke="#1f1f1f" stroke-width="0.3"/>
        </g>
        <g id="그룹_3052" data-name="그룹 3052" transform="translate(0 13.068)">
          <path id="패스_9755" data-name="패스 9755" d="M1918.883,1548.784a.606.606,0,0,1-.091-.007.589.589,0,0,1-.491-.672l1.037-6.657-6.972-6.113a.589.589,0,1,1,.776-.885l7.216,6.326a.589.589,0,0,1,.194.533l-1.087,6.977A.588.588,0,0,1,1918.883,1548.784Z" transform="translate(-1912.165 -1534.303)" fill="#1f1f1f" stroke="#1f1f1f" stroke-width="0.3"/>
        </g>
        <g id="그룹_3053" data-name="그룹 3053" transform="translate(10.614 0)">
          <path id="패스_9756" data-name="패스 9756" d="M1963.647,1488.683a5.5,5.5,0,0,1-5.458-6.169h0a5.5,5.5,0,1,1,5.458,6.169Zm-4.29-6.025h0a4.319,4.319,0,1,0,4.815-3.757A4.324,4.324,0,0,0,1959.358,1482.657Z" transform="translate(-1958.148 -1477.691)" fill="#1f1f1f" stroke="#1f1f1f" stroke-width="0.3"/>
        </g>
      </g>
      <g id="그룹_3057" data-name="그룹 3057" transform="translate(1779.066 1379.553)">
        <g id="그룹_3055" data-name="그룹 3055" transform="translate(7.755 7.804)">
          <path id="패스_9757" data-name="패스 9757" d="M1868.638,1455.76a.582.582,0,0,1-.232-.048.588.588,0,0,1-.308-.773l17.691-41.218a.588.588,0,1,1,1.081.464l-17.691,41.218A.588.588,0,0,1,1868.638,1455.76Z" transform="translate(-1868.049 -1413.364)" fill="#1f1f1f" stroke="#1f1f1f" stroke-width="0.3"/>
        </g>
        <g id="그룹_3056" data-name="그룹 3056" transform="translate(0 0)">
          <path id="패스_9758" data-name="패스 9758" d="M1854.827,1401.721a.588.588,0,0,1-.439-.2,10.8,10.8,0,0,0-4.809-3.034c-.308-.1-3.566-.887-3.887-.947-.391-.073-.784-.143-1.177-.214-3.341-.6-6.8-1.215-9.526-3.57a1.536,1.536,0,0,1-.532-1.315,1.581,1.581,0,0,1,.767-1.218c1.448-.859,3.018-1.908,4.792-3.2-.244-2.39-.4-4.732-.488-7.148a1.276,1.276,0,0,1,2.078-1.037c2.458,2.014,5.527,2.563,8.776,3.144,3.777.676,7.683,1.374,10.542,4.568a.587.587,0,0,1,.1.625l-5.659,13.186a.588.588,0,0,1-.446.349A.624.624,0,0,1,1854.827,1401.721Z" transform="translate(-1834.45 -1379.553)" fill="#501d83"/>
        </g>
      </g>
    </g>
  </g>
</svg>
