<svg xmlns="http://www.w3.org/2000/svg" width="100" height="100" viewBox="0 0 100 100">
  <g id="icon_100_social" data-name="icon/100/social" transform="translate(9 1)">
    <rect id="base" width="100" height="100" transform="translate(-9 -1)" fill="none"/>
    <g id="icon" transform="translate(-8)">
      <line id="선_1197" data-name="선 1197" x2="40.577" transform="translate(1.164 96.836)" fill="none" stroke="#1f1f1f" stroke-linecap="round" stroke-linejoin="round" stroke-width="2"/>
      <line id="선_1198" data-name="선 1198" x2="40.811" transform="translate(56.025 96.836)" fill="none" stroke="#1f1f1f" stroke-linecap="round" stroke-linejoin="round" stroke-width="2"/>
      <circle id="타원_64" data-name="타원 64" cx="7.147" cy="7.147" r="7.147" transform="translate(64.993 1.164)" fill="none" stroke="#1f1f1f" stroke-linecap="round" stroke-linejoin="round" stroke-width="2"/>
      <path id="패스_31098" data-name="패스 31098" d="M61.878,75.756l2.1-28.38h0a6.938,6.938,0,0,0,6.938-6.938V21.2a5.771,5.771,0,0,0-5.771-5.771H38.455" transform="translate(17.488 7.016)" fill="none" stroke="#1f1f1f" stroke-linecap="round" stroke-linejoin="round" stroke-width="2"/>
      <circle id="타원_65" data-name="타원 65" cx="7.147" cy="7.147" r="7.147" transform="translate(18.309 1.164)" fill="none" stroke="#1f1f1f" stroke-linecap="round" stroke-linejoin="round" stroke-width="2"/>
      <path id="패스_31099" data-name="패스 31099" d="M15.356,75.756l-2.1-28.38h0a6.938,6.938,0,0,1-6.938-6.938V21.2a5.771,5.771,0,0,1,5.771-5.771H38.779" transform="translate(2.873 7.016)" fill="none" stroke="#1f1f1f" stroke-linecap="round" stroke-linejoin="round" stroke-width="2"/>
      <circle id="white" cx="7.147" cy="7.147" r="7.147" transform="translate(41.65 15.229)" fill="none" stroke="#fff" stroke-linecap="round" stroke-linejoin="round" stroke-width="6.8"/>
      <path id="패스_31101" data-name="패스 31101" d="M35.777,24.763a7.147,7.147,0,1,0-7.147-7.147,7.156,7.156,0,0,0,7.147,7.147" transform="translate(13.021 4.761)" fill="#fff" stroke="#1f1f1f" stroke-width="2"/>
      <circle id="oval" cx="7.147" cy="7.147" r="7.147" transform="translate(41.65 15.229)" fill="#501d83" stroke="#501d83" stroke-linecap="round" stroke-linejoin="round" stroke-width="2"/>
      <path id="패스_31102" data-name="패스 31102" d="M45.817,85.424l2.1-28.38h0a6.938,6.938,0,0,0,6.938-6.938V30.864a5.771,5.771,0,0,0-5.771-5.771H28.218a5.771,5.771,0,0,0-5.771,5.771V50.105a6.939,6.939,0,0,0,6.939,6.938h.045l2.1,28.38" transform="translate(10.209 11.412)" fill="#fff" stroke="#1f1f1f" stroke-width="2"/>
    </g>
  </g>
</svg>
