<svg xmlns="http://www.w3.org/2000/svg" width="60" height="60" viewBox="0 0 60 60">
  <g id="ico_60_history02" data-name="ico/60/history02" transform="translate(-319 -3501)">
    <rect id="base" width="60" height="60" transform="translate(319 3501)" fill="none"/>
    <g id="icon" transform="translate(321.003 3503)">
      <path id="path" d="M183.271,75.3a.59.59,0,0,1-.581-.5l-1.529-9.825a.589.589,0,1,1,1.164-.184l1.529,9.825a.591.591,0,0,1-.583.685" transform="translate(-139.302 -49.329)" fill="#1f1f1f" stroke="#1f1f1f" stroke-width="0.3"/>
      <path id="path-2" data-name="path" d="M49.365,102.4a2.608,2.608,0,0,1-2.568-2.219L40.718,61.162a.6.6,0,0,1,.219-.559.586.586,0,0,1,.591-.081,3.161,3.161,0,0,0,1.719.225.593.593,0,0,1,.181,1.173,4.219,4.219,0,0,1-1.4-.019L47.96,100a1.426,1.426,0,0,0,1.566,1.207l27.747-3.038a1.438,1.438,0,0,0,1.256-1.654l-.192-1.226A.589.589,0,1,1,79.5,95.1l.192,1.226A2.623,2.623,0,0,1,77.4,99.349l-27.747,3.038a2.605,2.605,0,0,1-.29.016" transform="translate(-31.306 -46.404)" fill="#1f1f1f" stroke="#1f1f1f" stroke-width="0.3"/>
      <path id="path-3" data-name="path" d="M7.073,53.939A2.312,2.312,0,0,1,4.8,51.982L.046,21.42c0-.014,0-.028-.006-.041a7.143,7.143,0,0,1-.031-1.122,7.609,7.609,0,0,1,6.6-7.011l.059-.009c.192-.025.359-.046.529-.055a.593.593,0,0,1,.061,1.185c-.14.007-.277.025-.418.044l-.061.009a6.423,6.423,0,0,0-5.59,5.894,6.05,6.05,0,0,0,.024.913l0,.024L5.965,51.8a1.124,1.124,0,0,0,1.272.942l2.9-.434a.593.593,0,0,1,.174,1.174l-2.9.434a2.309,2.309,0,0,1-.338.025" transform="translate(0 -10.114)" fill="#1f1f1f" stroke="#1f1f1f" stroke-width="0.3"/>
      <path id="path-4" data-name="path" d="M34.115,15.524a.594.594,0,0,1-.091-1.179c1.18-.188,2.085-1.936,2.2-4.252,0-.1.007-.2.007-.309,0-3.23-2.288-5.356-5.971-5.547a6.4,6.4,0,0,0-.9.015.593.593,0,0,1-.1-1.182,7.71,7.71,0,0,1,1.065-.018c4.307.224,7.089,2.866,7.089,6.732,0,.119,0,.242-.008.36a8,8,0,0,1-1.17,3.967l26.784-2.817c1.137-.185,2.034-1.932,2.15-4.243,0-.1.008-.205.008-.308,0-3.231-2.288-5.356-5.971-5.547a7.043,7.043,0,0,0-.976.019L37.6,3.385a.593.593,0,0,1-.122-1.18L58.11.034A8,8,0,0,1,59.26.01c4.309.224,7.092,2.867,7.092,6.733,0,.117,0,.239-.009.356-.149,2.979-1.394,5.083-3.172,5.372l-28.994,3.05a.551.551,0,0,1-.062,0" transform="translate(-22.084 0)" fill="#1f1f1f" stroke="#1f1f1f" stroke-width="0.3"/>
      <path id="path-5" data-name="path" d="M96.166,107.994a.594.594,0,0,1-.068-1.183l11.124-1.321a.593.593,0,0,1,.138,1.179L96.235,107.99a.542.542,0,0,1-.07,0" transform="translate(-73.496 -80.94)" fill="#1f1f1f" stroke="#1f1f1f" stroke-width="0.3"/>
      <path id="path-6" data-name="path" d="M81.788,139.737a.594.594,0,0,1-.068-1.183l19.56-2.323a.593.593,0,0,1,.138,1.179l-19.56,2.323a.639.639,0,0,1-.07,0" transform="translate(-62.44 -104.527)" fill="#1f1f1f" stroke="#1f1f1f" stroke-width="0.3"/>
      <path id="path-7" data-name="path" d="M137.022,202.485a.584.584,0,0,1-.268-.065.6.6,0,0,1-.256-.8,2.875,2.875,0,0,1,1.828-1.539,4.3,4.3,0,0,1,3.259.619,1.82,1.82,0,0,0,2.089-.282.586.586,0,0,1,.831.065.6.6,0,0,1-.064.837,2.969,2.969,0,0,1-3.493.379,3.126,3.126,0,0,0-2.315-.472,1.682,1.682,0,0,0-1.085.933.589.589,0,0,1-.525.323" transform="translate(-104.912 -153.439)" fill="#1f1f1f" stroke="#1f1f1f" stroke-width="0.3"/>
      <path id="point" d="M180.966,118.85a1.776,1.776,0,0,1-1.761-1.591l-.268-2.5a8.407,8.407,0,0,1,.634-4.207l6.74-15.669a2.3,2.3,0,0,1,3.033-1.208l2.824,1.232a2.33,2.33,0,0,1,1.2,3.055l-6.74,15.669a8.343,8.343,0,0,1-2.613,3.343h0l-1.992,1.512a1.746,1.746,0,0,1-1.058.361m2.7-2.347h0Z" transform="translate(-137.561 -71.73)" fill="#501d83"/>
    </g>
  </g>
</svg>
