<svg xmlns="http://www.w3.org/2000/svg" width="60.3" height="60" viewBox="0 0 60.3 60">
  <g id="ico_60_history05" data-name="ico/60/history05" transform="translate(-318.85 -3501)">
    <rect id="base" width="60" height="60" transform="translate(319 3501)" fill="none"/>
    <g id="ico_60_history02" data-name="ico/60/history02">
      <rect id="base-2" data-name="base" width="60" height="60" transform="translate(319 3501)" fill="none"/>
      <g id="icon" transform="translate(-1788.37 2445.2)">
        <g id="그룹_3037" data-name="그룹 3037" transform="translate(2123.728 1056.8)">
          <g id="그룹_3035" data-name="그룹 3035" transform="translate(4.434)">
            <g id="그룹_3033" data-name="그룹 3033" transform="translate(0 12.162)">
              <path id="패스_9743" data-name="패스 9743" d="M2188.9,1110.311a.656.656,0,0,1-.578-.964,10.575,10.575,0,0,1,18.262,0,.655.655,0,0,1-.271.886C2205.993,1110.4,2189.134,1110.311,2188.9,1110.311Z" transform="translate(-2188.245 -1104.107)" fill="#501d83"/>
            </g>
            <g id="그룹_3034" data-name="그룹 3034" transform="translate(4.483)">
              <path id="패스_9744" data-name="패스 9744" d="M2210.406,1066.251a4.725,4.725,0,1,1,4.725-4.726A4.731,4.731,0,0,1,2210.406,1066.251Z" transform="translate(-2205.681 -1056.8)" fill="#501d83"/>
            </g>
          </g>
          <g id="그룹_3036" data-name="그룹 3036" transform="translate(0 17.574)">
            <path id="패스_9745" data-name="패스 9745" d="M2193.213,1142.021a.655.655,0,0,1-.656-.656v-10.527a.655.655,0,0,1,.656-.656h3.758v-3.712h-24.661v3.712h3.763a.655.655,0,0,1,.656.656v10.522a.656.656,0,0,1-1.311,0v-9.867h-3.763a.655.655,0,0,1-.656-.656v-5.023a.655.655,0,0,1,.656-.656h25.972a.655.655,0,0,1,.656.656v5.023a.656.656,0,0,1-.656.656h-3.758v9.872A.656.656,0,0,1,2193.213,1142.021Z" transform="translate(-2170.998 -1125.159)" fill="#1f1f1f" stroke="#1f1f1f" stroke-width="0.3"/>
          </g>
        </g>
        <g id="그룹_3047" data-name="그룹 3047" transform="translate(2107.37 1090.02)">
          <g id="그룹_3040" data-name="그룹 3040" transform="translate(18.375 0.855)">
            <g id="그룹_3038" data-name="그룹 3038" transform="translate(0 14.334)">
              <path id="패스_9746" data-name="패스 9746" d="M2201.437,1254.665a.656.656,0,0,1-.656-.656c0-7.052-7.894-7.6-10.314-7.6s-10.314.548-10.314,7.6a.656.656,0,0,1-1.311,0c0-5.5,4.454-8.911,11.625-8.911s11.625,3.414,11.625,8.911A.655.655,0,0,1,2201.437,1254.665Z" transform="translate(-2178.843 -1245.098)" fill="#1f1f1f" stroke="#1f1f1f" stroke-width="0.3"/>
            </g>
            <g id="그룹_3039" data-name="그룹 3039" transform="translate(5.852)">
              <path id="패스_9747" data-name="패스 9747" d="M2207.379,1200.889a5.773,5.773,0,1,1,5.772-5.773A5.779,5.779,0,0,1,2207.379,1200.889Zm0-10.234a4.462,4.462,0,1,0,4.461,4.462A4.467,4.467,0,0,0,2207.379,1190.654Z" transform="translate(-2201.606 -1189.343)" fill="#1f1f1f" stroke="#1f1f1f" stroke-width="0.3"/>
            </g>
          </g>
          <g id="그룹_3043" data-name="그룹 3043" transform="translate(0 0)">
            <g id="그룹_3041" data-name="그룹 3041" transform="translate(0 12.781)">
              <path id="패스_9748" data-name="패스 9748" d="M2108.026,1244.406a.655.655,0,0,1-.656-.656c0-4.948,4-8.021,10.436-8.021a16.472,16.472,0,0,1,7.3,1.831.655.655,0,1,1-.675,1.124,15.212,15.212,0,0,0-6.627-1.644c-2.141,0-9.125.484-9.125,6.71A.655.655,0,0,1,2108.026,1244.406Z" transform="translate(-2107.37 -1235.73)" fill="#1f1f1f" stroke="#1f1f1f" stroke-width="0.3"/>
            </g>
            <g id="그룹_3042" data-name="그룹 3042" transform="translate(5.216)">
              <path id="패스_9749" data-name="패스 9749" d="M2132.878,1196.454a5.219,5.219,0,1,1,5.219-5.219A5.225,5.225,0,0,1,2132.878,1196.454Zm0-9.127a3.908,3.908,0,1,0,3.908,3.908A3.913,3.913,0,0,0,2132.878,1187.327Z" transform="translate(-2127.659 -1186.016)" fill="#1f1f1f" stroke="#1f1f1f" stroke-width="0.3"/>
            </g>
          </g>
          <g id="그룹_3046" data-name="그룹 3046" transform="translate(41.943 0)">
            <g id="그룹_3044" data-name="그룹 3044" transform="translate(0 12.781)">
              <path id="패스_9750" data-name="패스 9750" d="M2287.918,1244.406a.655.655,0,0,1-.656-.656c0-6.226-6.984-6.71-9.125-6.71a15.213,15.213,0,0,0-6.627,1.644.655.655,0,1,1-.675-1.124,16.474,16.474,0,0,1,7.3-1.831c6.437,0,10.436,3.073,10.436,8.021A.655.655,0,0,1,2287.918,1244.406Z" transform="translate(-2270.518 -1235.73)" fill="#1f1f1f" stroke="#1f1f1f" stroke-width="0.3"/>
            </g>
            <g id="그룹_3045" data-name="그룹 3045" transform="translate(2.402)">
              <path id="패스_9751" data-name="패스 9751" d="M2285.08,1196.454a5.219,5.219,0,1,1,5.219-5.219A5.225,5.225,0,0,1,2285.08,1196.454Zm0-9.127a3.908,3.908,0,1,0,3.908,3.908A3.912,3.912,0,0,0,2285.08,1187.327Z" transform="translate(-2279.861 -1186.016)" fill="#1f1f1f" stroke="#1f1f1f" stroke-width="0.3"/>
            </g>
          </g>
        </g>
      </g>
    </g>
  </g>
</svg>
