<svg xmlns="http://www.w3.org/2000/svg" width="36" height="36" viewBox="0 0 36 36">
  <g id="icon_44_play" transform="translate(-539 -475)">
    <g id="outline" transform="translate(2.333 2.333)" fill="none">
      <path d="M554.667,508.667a18,18,0,1,0-18-18A18,18,0,0,0,554.667,508.667Z" stroke="none"/>
      <path d="M 554.6671142578125 507.1670227050781 C 559.07470703125 507.1670227050781 563.2183227539062 505.4508056640625 566.3345947265625 502.33447265625 C 569.4508666992188 499.2181701660156 571.1670532226562 495.0745849609375 571.1670532226562 490.6669921875 C 571.1670532226562 486.2594299316406 569.4508666992188 482.1158752441406 566.3345947265625 478.9995727539062 C 563.2183227539062 475.8832397460938 559.07470703125 474.1670227050781 554.6671142578125 474.1670227050781 C 550.2595825195312 474.1670227050781 546.1160278320312 475.8832397460938 542.9996948242188 478.9995727539062 C 539.8833618164062 482.1159057617188 538.1671142578125 486.2594604492188 538.1671142578125 490.6669921875 C 538.1671142578125 495.0745544433594 539.8833618164062 499.2181396484375 542.9996948242188 502.33447265625 C 546.1160278320312 505.4507751464844 550.2595825195312 507.1670227050781 554.6671142578125 507.1670227050781 M 554.6671142578125 508.6670227050781 C 544.7255859375 508.6670227050781 536.6671142578125 500.608642578125 536.6671142578125 490.6669921875 C 536.6671142578125 480.7254028320312 544.7255859375 472.6670227050781 554.6671142578125 472.6670227050781 C 564.60888671875 472.6670227050781 572.6670532226562 480.7254028320312 572.6670532226562 490.6669921875 C 572.6670532226562 500.608642578125 564.60888671875 508.6670227050781 554.6671142578125 508.6670227050781 Z" stroke="none" fill="#ffffff"/>
    </g>
    <path id="path" d="M547.333,480.667l10.5,7-10.5,7Z" transform="translate(6.654 4.752)" fill="#ffffff"/>
  </g>
</svg>
