<svg xmlns="http://www.w3.org/2000/svg" xmlns:xlink="http://www.w3.org/1999/xlink" width="40" height="40" viewBox="0 0 40 40">
  <defs>
    <clipPath id="clip-path">
      <rect id="mask" width="40" height="40" fill="none"/>
    </clipPath>
  </defs>
  <g id="icon_flag_seoul" data-name="icon/flag/seoul" transform="translate(0 0)">
    <g id="mask-2" data-name="mask" transform="translate(0 0.001)" clip-path="url(#clip-path)">
      <g id="oval" fill="#fff" stroke="#dbdbdb" stroke-width="1">
        <circle cx="20" cy="20" r="20" stroke="none"/>
        <circle cx="20" cy="20" r="19.5" fill="none"/>
      </g>
      <path id="path" d="M29.64,22.285A6.9,6.9,0,0,0,23.4,26.252c-.018.727.049,2.939,1.432,3.814,1.239.785,2.858,1.126,4.81-.884s3.612-1.624,4.487-1.207,2.042,1.423,1.754,4.138h0a6.9,6.9,0,0,0-6.247-9.827" transform="translate(-9.64 -9.182)" fill="#aa0024"/>
      <path id="path-2" data-name="path" d="M35.425,34.892c.287-2.715-.88-3.725-1.754-4.138s-2.535-.8-4.487,1.207-3.571,1.669-4.811.884c-1.382-.875-1.449-3.087-1.431-3.814a6.9,6.9,0,1,0,12.484,5.86" transform="translate(-9.183 -11.962)" fill="#00295b"/>
      <rect id="box" width="1.133" height="6.896" transform="matrix(0.832, -0.554, 0.554, 0.832, 8.521, 23.518)" fill="#070303"/>
      <rect id="box-2" data-name="box" width="1.133" height="6.898" transform="matrix(0.832, -0.554, 0.554, 0.832, 5.66, 25.424)" fill="#070303"/>
      <rect id="box-3" data-name="box" width="1.133" height="3.155" transform="matrix(0.832, -0.555, 0.555, 0.832, 7.09, 24.474)" fill="#070303"/>
      <path id="path-3" data-name="path" d="M15.585,46.478l1.75,2.625.947-.629-1.754-2.629Z" transform="translate(-6.421 -18.89)" fill="#070303"/>
      <rect id="box-4" data-name="box" width="3.155" height="1.132" transform="matrix(0.55, -0.835, 0.835, 0.55, 31.656, 27.425)" fill="#070303"/>
      <rect id="box-5" data-name="box" width="3.158" height="1.132" transform="translate(29.586 30.541) rotate(-56.5)" fill="#070303"/>
      <rect id="box-6" data-name="box" width="3.155" height="1.134" transform="matrix(0.553, -0.833, 0.833, 0.553, 30.221, 26.471)" fill="#070303"/>
      <rect id="box-7" data-name="box" width="3.155" height="1.132" transform="translate(28.154 29.589) rotate(-56.5)" fill="#070303"/>
      <rect id="box-8" data-name="box" width="3.155" height="1.134" transform="matrix(0.554, -0.832, 0.832, 0.554, 26.718, 28.635)" fill="#070303"/>
      <rect id="box-9" data-name="box" width="3.156" height="1.136" transform="matrix(0.553, -0.833, 0.833, 0.553, 28.787, 25.52)" fill="#070303"/>
      <path id="path-4" data-name="path" d="M52.643,22.36l-.947.628-3.805-5.753.947-.628Z" transform="translate(-19.733 -6.843)" fill="#070303"/>
      <path id="path-5" data-name="path" d="M55.577,23.559l.947-.624L54.783,20.3l-.947.629Z" transform="translate(-22.182 -8.365)" fill="#070303"/>
      <path id="path-6" data-name="path" d="M51.272,15l-.947.624,1.741,2.634.947-.624Z" transform="translate(-20.736 -6.179)" fill="#070303"/>
      <rect id="box-10" data-name="box" width="1.13" height="3.157" transform="translate(28.79 14.459) rotate(-33.5)" fill="#070303"/>
      <rect id="box-11" data-name="box" width="1.131" height="3.156" transform="matrix(0.832, -0.554, 0.554, 0.832, 26.723, 11.342)" fill="#070303"/>
      <path id="path-7" data-name="path" d="M15.428,24.611l-.943-.633,3.837-5.73.938.628Z" transform="translate(-5.968 -7.519)" fill="#070303"/>
      <path id="path-8" data-name="path" d="M12.993,22.986l-.943-.633,3.837-5.73.942.628Z" transform="translate(-4.965 -6.849)" fill="#070303"/>
      <path id="path-9" data-name="path" d="M10.567,21.36l-.943-.633L13.461,15l.943.628Z" transform="translate(-3.966 -6.18)" fill="#070303"/>
    </g>
  </g>
</svg>
