<svg xmlns="http://www.w3.org/2000/svg" width="60" height="60" viewBox="0 0 60 60">
  <g id="ico_60_history06" data-name="ico/60/history06" transform="translate(-319 -3501)">
    <rect id="base" width="60" height="60" transform="translate(319 3501)" fill="none"/>
    <g id="icon" transform="translate(-2154.421 1793.722)">
      <g id="그룹_3066" data-name="그룹 3066" transform="translate(2478.421 1728.907)">
        <g id="그룹_3058" data-name="그룹 3058" transform="translate(33.704 0)">
          <path id="패스_9759" data-name="패스 9759" d="M2629.167,1796.925a.636.636,0,0,1-.635-.636v-3.166a3.842,3.842,0,0,0-3.836-3.84H2614.25a.636.636,0,0,1,0-1.271H2624.7a5.115,5.115,0,0,1,5.107,5.112v3.166A.636.636,0,0,1,2629.167,1796.925Z" transform="translate(-2613.615 -1788.012)" fill="#1f1f1f" stroke="#1f1f1f" stroke-width="0.3"/>
        </g>
        <g id="그룹_3059" data-name="그룹 3059" transform="translate(0 0)">
          <path id="패스_9760" data-name="패스 9760" d="M2523.206,1824.383h-39.678a5.113,5.113,0,0,1-5.107-5.107v-26.153a5.115,5.115,0,0,1,5.107-5.112h14.93a.636.636,0,0,1,0,1.271h-14.93a3.842,3.842,0,0,0-3.835,3.84v26.153a3.84,3.84,0,0,0,3.835,3.835h39.678a3.84,3.84,0,0,0,3.835-3.835v-18.583a.636.636,0,1,1,1.271,0v18.583A5.113,5.113,0,0,1,2523.206,1824.383Z" transform="translate(-2478.421 -1788.012)" fill="#1f1f1f" stroke="#1f1f1f" stroke-width="0.3"/>
        </g>
        <g id="그룹_3062" data-name="그룹 3062" transform="translate(5.528 8.4)">
          <path id="패스_9761" data-name="패스 9761" d="M2518.915,1880.751l-17.288-.029c-.344,0-.692-.082-.8-.417a5.1,5.1,0,0,1-.234-1.521c0-3.792,4.3-6.878,9.579-6.878s9.58,3.085,9.58,6.878a5.1,5.1,0,0,1-.234,1.521A.636.636,0,0,1,2518.915,1880.751Z" transform="translate(-2500.597 -1859.392)" fill="#501d83"/>
          <path id="패스_9762" data-name="패스 9762" d="M2524.577,1831.3a4.8,4.8,0,1,1,4.8-4.8A4.8,4.8,0,0,1,2524.577,1831.3Z" transform="translate(-2514.998 -1821.707)" fill="#501d83"/>
        </g>
        <g id="그룹_3065" data-name="그룹 3065" transform="translate(32.231 14.42)">
          <g id="그룹_3063" data-name="그룹 3063">
            <path id="패스_9763" data-name="패스 9763" d="M2617.528,1847.125h-9.187a.636.636,0,1,1,0-1.271h9.187a.636.636,0,0,1,0,1.271Z" transform="translate(-2607.705 -1845.854)" fill="#1f1f1f" stroke="#1f1f1f" stroke-width="0.3"/>
          </g>
          <g id="그룹_3064" data-name="그룹 3064" transform="translate(0 8.048)">
            <path id="패스_9764" data-name="패스 9764" d="M2617.528,1879.409h-9.187a.636.636,0,1,1,0-1.271h9.187a.636.636,0,0,1,0,1.271Z" transform="translate(-2607.705 -1878.137)" fill="#1f1f1f" stroke="#1f1f1f" stroke-width="0.3"/>
          </g>
        </g>
      </g>
      <g id="그룹_3067" data-name="그룹 3067" transform="translate(2497.764 1719.165)">
        <path id="패스_9765" data-name="패스 9765" d="M2561.612,1764.645c-2.518,0-4.128-.81-4.92-2.477-.682-1.436-.682-3.35-.682-5.376s0-3.945.682-5.38c.792-1.667,2.4-2.477,4.92-2.477s4.128.81,4.92,2.477c.683,1.435.683,3.349.683,5.376l-.636,0,.636,0c0,2.026,0,3.941-.683,5.376C2565.74,1763.835,2564.131,1764.645,2561.612,1764.645Zm0-14.438c-2.6,0-3.384.936-3.772,1.751a21.174,21.174,0,0,0,0,9.665c.388.815,1.167,1.751,3.772,1.751s3.385-.936,3.772-1.751a12.39,12.39,0,0,0,.559-4.831v0a12.386,12.386,0,0,0-.559-4.83C2565,1751.142,2564.218,1750.207,2561.612,1750.207Z" transform="translate(-2556.01 -1748.935)" fill="#1f1f1f" stroke="#1f1f1f" stroke-width="0.3"/>
      </g>
      <g id="그룹_3070" data-name="그룹 3070" transform="translate(2481.216 1709.278)">
        <g id="그룹_3068" data-name="그룹 3068" transform="translate(11.523 0)">
          <path id="패스_9766" data-name="패스 9766" d="M2546.37,1720.435a.634.634,0,0,1-.449-.186l-9.887-9.887a.636.636,0,1,1,.9-.9l9.885,9.885a.636.636,0,0,1-.449,1.086Z" transform="translate(-2535.848 -1709.278)" fill="#1f1f1f" stroke="#1f1f1f" stroke-width="0.3"/>
        </g>
        <g id="그룹_3069" data-name="그룹 3069" transform="translate(0)">
          <path id="패스_9767" data-name="패스 9767" d="M2502.651,1722.935a.635.635,0,0,1-.449-.186l-12.385-12.386a.635.635,0,0,1,.9-.9l12.386,12.385a.636.636,0,0,1-.45,1.085Z" transform="translate(-2489.63 -1709.278)" fill="#1f1f1f" stroke="#1f1f1f" stroke-width="0.3"/>
        </g>
      </g>
      <g id="그룹_3074" data-name="그룹 3074" transform="translate(2506.022 1709.278)">
        <g id="그룹_3071" data-name="그룹 3071" transform="translate(5.839 10.209)">
          <path id="패스_9768" data-name="패스 9768" d="M2613.192,1753.677a.636.636,0,0,1-.449-1.085l2.175-2.176a.636.636,0,0,1,.9.9l-2.175,2.176A.634.634,0,0,1,2613.192,1753.677Z" transform="translate(-2612.556 -1750.23)" fill="#1f1f1f" stroke="#1f1f1f" stroke-width="0.3"/>
        </g>
        <g id="그룹_3072" data-name="그룹 3072" transform="translate(10.681)">
          <path id="패스_9769" data-name="패스 9769" d="M2632.611,1718.092a.636.636,0,0,1-.449-1.085l7.54-7.542a.636.636,0,1,1,.9.9l-7.54,7.543A.633.633,0,0,1,2632.611,1718.092Z" transform="translate(-2631.975 -1709.278)" fill="#1f1f1f" stroke="#1f1f1f" stroke-width="0.3"/>
        </g>
        <g id="그룹_3073" data-name="그룹 3073" transform="translate(0 0)">
          <path id="패스_9770" data-name="패스 9770" d="M2589.769,1717.252a.635.635,0,0,1-.448-1.087l.657-.653,6.043-6.048a.636.636,0,1,1,.9.9l-6.7,6.7A.634.634,0,0,1,2589.769,1717.252Z" transform="translate(-2589.133 -1709.278)" fill="#1f1f1f" stroke="#1f1f1f" stroke-width="0.3"/>
        </g>
      </g>
    </g>
  </g>
</svg>
