<svg xmlns="http://www.w3.org/2000/svg" width="40" height="40" viewBox="0 0 40 40">
  <g id="icon_80_qrcode" data-name="icon/80/qrcode" transform="translate(-8 -8)">
    <path id="path" d="M3,15H15V3H3ZM5,5h8v8H5ZM7,7h4v4H7Zm20,8H39V3H27ZM29,5h8v8H29Zm2,2h4v4H31ZM3,39H15V27H3ZM5,29h8v8H5Zm2,2h4v4H7Zm30,4h2v4H35V33h2Zm0-6h2v2H37Zm0-2v2H35V27ZM17,31h2v8H17ZM9,17v4H5V19H3V17Zm8-6h2v2H17Zm6-6V9H21V3h4V5ZM17,5h2V7H17ZM37,21h2v4H35V23h2Zm-2-4v2H31v4H27V21h2V17ZM21,25H19V23H17V21h4Zm12,4h2v2H33Zm4-10v2H35V19ZM19,25v2H17V25ZM31,35h2v4H29V35Zm-6,0h2v2H25v2H21V37h2V35Zm0-2V31h4v2Zm0-10h2v6H25v2H23v2H21V29H19V27h6V25H23V23ZM7,23v2H5V23Zm24,8H29V29h2Zm2-4H29V25h4ZM13,17h2v2H13v2h2v4H13V23H11v2H9V21h2V17Zm6,0V13h6v6H21V17h2V15H21v2Zm0-8h2v2H19Zm-2,8h2v2H17Zm6-6V9h2v2Z" transform="translate(7 7)" fill="#501d83"/>
    <path id="base" d="M0,0H40V40H0Z" transform="translate(8 8)" fill="none"/>
  </g>
</svg>
