<svg xmlns="http://www.w3.org/2000/svg" width="164" height="67" viewBox="0 0 164 67">
  <g id="img_year_2023" data-name="img/year/2023" transform="translate(-1290.001 -2612)">
    <path id="path" d="M28.369-43.82q4.8,0,7.339,2.892a9.844,9.844,0,0,1,2.54,6.7,16.232,16.232,0,0,1-1.764,7.617,23.852,23.852,0,0,1-5.151,6.488,61.788,61.788,0,0,1-8.327,6.277q-4.94,3.174-11.291,6.982A56.537,56.537,0,0,0,18.631-5.1a45.545,45.545,0,0,0,8.75.776q5.5,0,7.48-3.526.565-.564,1.059-.071a1.422,1.422,0,0,1,.212,1.481,14.887,14.887,0,0,1-4.8,5.007A13.092,13.092,0,0,1,24.277.329a27.479,27.479,0,0,1-6.916-.776Q14.4-1.222,12.068-1.927a23.848,23.848,0,0,0-4.234-.917,5.784,5.784,0,0,0-3.74.917A20.436,20.436,0,0,0,2.048-.658Q1.271-.094.566.329-.14.329-.14-.587A2.229,2.229,0,0,1,.566-2.209Q6.635-6.3,12.421-9.615a109.069,109.069,0,0,0,10.3-6.629,32.126,32.126,0,0,0,7.2-7.053A14.5,14.5,0,0,0,32.6-31.972a7.094,7.094,0,0,0-2.258-5.642,8.894,8.894,0,0,0-6.069-1.975,10.133,10.133,0,0,0-7.551,3.1A15.334,15.334,0,0,0,12.7-28.868a.68.68,0,0,1-.988,0A1.8,1.8,0,0,1,11.01-30,16.8,16.8,0,0,1,13.056-35a19.447,19.447,0,0,1,3.67-4.443,17.271,17.271,0,0,1,5.151-3.174A17.155,17.155,0,0,1,28.369-43.82Zm41.212,4.232a16.062,16.062,0,0,0-7.41,1.693,17.975,17.975,0,0,0-5.716,4.584,20.567,20.567,0,0,0-3.67,6.7,24.8,24.8,0,0,0-1.27,7.9q0,6.629,2.964,10.649t9.315,4.02a15.228,15.228,0,0,0,6.633-1.552,17.682,17.682,0,0,0,5.716-4.373,21.949,21.949,0,0,0,3.952-6.7A23.728,23.728,0,0,0,81.578-25.2q0-6.629-2.823-10.508T69.581-39.588ZM59.984.329q-6.351,0-9.738-4.161A16.1,16.1,0,0,1,46.858-14.34a28.492,28.492,0,0,1,1.905-9.733A33.443,33.443,0,0,1,54.2-33.664a31.536,31.536,0,0,1,8.327-7.264A20.379,20.379,0,0,1,73.251-43.82q6.351,0,9.668,4.091a16.041,16.041,0,0,1,3.317,10.438,27.915,27.915,0,0,1-2.258,11.073,34.883,34.883,0,0,1-5.928,9.451,29.087,29.087,0,0,1-8.4,6.629A20.665,20.665,0,0,1,59.984.329ZM116.721-43.82q4.8,0,7.339,2.892a9.844,9.844,0,0,1,2.54,6.7,16.232,16.232,0,0,1-1.764,7.617,23.852,23.852,0,0,1-5.151,6.488,61.787,61.787,0,0,1-8.327,6.277q-4.94,3.174-11.291,6.982A56.537,56.537,0,0,0,106.982-5.1a45.545,45.545,0,0,0,8.75.776q5.5,0,7.48-3.526.565-.564,1.059-.071a1.422,1.422,0,0,1,.212,1.481,14.887,14.887,0,0,1-4.8,5.007A13.092,13.092,0,0,1,112.628.329a27.479,27.479,0,0,1-6.916-.776q-2.964-.776-5.293-1.481a23.848,23.848,0,0,0-4.234-.917,5.784,5.784,0,0,0-3.74.917A20.437,20.437,0,0,0,90.4-.658q-.776.564-1.482.987-.706,0-.706-.917a2.229,2.229,0,0,1,.706-1.622Q94.986-6.3,100.772-9.615a109.069,109.069,0,0,0,10.3-6.629,32.126,32.126,0,0,0,7.2-7.053,14.5,14.5,0,0,0,2.682-8.675,7.094,7.094,0,0,0-2.258-5.642,8.894,8.894,0,0,0-6.069-1.975,10.133,10.133,0,0,0-7.551,3.1,15.334,15.334,0,0,0-4.022,7.617.68.68,0,0,1-.988,0A1.8,1.8,0,0,1,99.361-30,16.8,16.8,0,0,1,101.407-35a19.447,19.447,0,0,1,3.67-4.443,17.271,17.271,0,0,1,5.151-3.174A17.155,17.155,0,0,1,116.721-43.82Zm36.413,0q5.222,0,7.974,2.892a8.96,8.96,0,0,1,2.752,6.277,13.151,13.151,0,0,1-4.8,10.72q-4.8,3.949-14.255,7.758a11.29,11.29,0,0,1,5.716-.212,11.554,11.554,0,0,1,4.869,2.4,12.132,12.132,0,0,1,3.317,4.443,13.657,13.657,0,0,1,1.2,5.642,21.553,21.553,0,0,1-2.682,10.438,29.544,29.544,0,0,1-7.057,8.6,34.826,34.826,0,0,1-10.162,5.854,33.285,33.285,0,0,1-11.855,2.186q-4.516,0-6.492-2.468a12.426,12.426,0,0,1-2.258-7.123,1.37,1.37,0,0,1,.847-.564.715.715,0,0,1,.847.282q2.117,6.488,11.573,6.488a23.985,23.985,0,0,0,8.256-1.411,21.793,21.793,0,0,0,6.775-3.879,18.5,18.5,0,0,0,4.587-5.854,16.164,16.164,0,0,0,1.694-7.335q0-7.617-3.176-11.355t-9.1-3.738a10.5,10.5,0,0,0-6.069,1.834,1,1,0,0,1-.988-.635,1.391,1.391,0,0,1,.141-1.34q6.492-2.68,10.938-4.655a41.136,41.136,0,0,0,7.2-3.949,13.029,13.029,0,0,0,3.952-4.161,10.852,10.852,0,0,0,1.2-5.289,8.914,8.914,0,0,0-2.188-6.136,7.774,7.774,0,0,0-6.139-2.468,10.972,10.972,0,0,0-6.069,1.552,11.913,11.913,0,0,0-3.952,4.373q-.423.423-1.129,0a.837.837,0,0,1-.423-1.128,15.253,15.253,0,0,1,5.363-5.642A17.277,17.277,0,0,1,153.134-43.82Z" transform="translate(1290.141 2655.82)" fill="#fff"/>
  </g>
</svg>
