<svg xmlns="http://www.w3.org/2000/svg" width="179.328" height="61.66" viewBox="0 0 179.328 61.66">
  <g id="year" transform="translate(-1287.86 -2613.18)">
    <path id="패스_31441" data-name="패스 31441" d="M28.14-43.82q4.76,0,7.28,2.87a9.774,9.774,0,0,1,2.52,6.65,16.119,16.119,0,0,1-1.75,7.56,23.672,23.672,0,0,1-5.11,6.44,61.294,61.294,0,0,1-8.26,6.23q-4.9,3.15-11.2,6.93a56.055,56.055,0,0,0,6.86,1.75,45.152,45.152,0,0,0,8.68.77q5.46,0,7.42-3.5.56-.56,1.05-.07a1.412,1.412,0,0,1,.21,1.47,14.772,14.772,0,0,1-4.76,4.97,12.981,12.981,0,0,1-7,1.75,27.243,27.243,0,0,1-6.86-.77q-2.94-.77-5.25-1.47a23.644,23.644,0,0,0-4.2-.91,5.734,5.734,0,0,0-3.71.91A20.269,20.269,0,0,0,2.03-.98Q1.26-.42.56,0q-.7,0-.7-.91a2.213,2.213,0,0,1,.7-1.61Q6.58-6.58,12.32-9.87a108.183,108.183,0,0,0,10.22-6.58,31.876,31.876,0,0,0,7.14-7,14.393,14.393,0,0,0,2.66-8.61,7.043,7.043,0,0,0-2.24-5.6,8.819,8.819,0,0,0-6.02-1.96,10.048,10.048,0,0,0-7.49,3.08,15.222,15.222,0,0,0-3.99,7.56.675.675,0,0,1-.98,0,1.792,1.792,0,0,1-.7-1.12,16.683,16.683,0,0,1,2.03-4.97,19.3,19.3,0,0,1,3.64-4.41,17.13,17.13,0,0,1,5.11-3.15A17.008,17.008,0,0,1,28.14-43.82Zm40.88,4.2a15.925,15.925,0,0,0-7.35,1.68A17.832,17.832,0,0,0,56-33.39a20.417,20.417,0,0,0-3.64,6.65A24.629,24.629,0,0,0,51.1-18.9q0,6.58,2.94,10.57t9.24,3.99a15.1,15.1,0,0,0,6.58-1.54,17.54,17.54,0,0,0,5.67-4.34,21.788,21.788,0,0,0,3.92-6.65,23.564,23.564,0,0,0,1.47-8.47q0-6.58-2.8-10.43T69.02-39.62ZM59.5,0q-6.3,0-9.66-4.13a15.99,15.99,0,0,1-3.36-10.43,28.294,28.294,0,0,1,1.89-9.66,33.2,33.2,0,0,1,5.39-9.52,31.288,31.288,0,0,1,8.26-7.21,20.2,20.2,0,0,1,10.64-2.87q6.3,0,9.59,4.06A15.928,15.928,0,0,1,85.54-29.4,27.721,27.721,0,0,1,83.3-18.41a34.626,34.626,0,0,1-5.88,9.38,28.856,28.856,0,0,1-8.33,6.58A20.489,20.489,0,0,1,59.5,0Zm56.28-43.82q4.76,0,7.28,2.87a9.774,9.774,0,0,1,2.52,6.65,16.119,16.119,0,0,1-1.75,7.56,23.672,23.672,0,0,1-5.11,6.44,61.293,61.293,0,0,1-8.26,6.23q-4.9,3.15-11.2,6.93a56.055,56.055,0,0,0,6.86,1.75,45.152,45.152,0,0,0,8.68.77q5.46,0,7.42-3.5.56-.56,1.05-.07a1.412,1.412,0,0,1,.21,1.47,14.772,14.772,0,0,1-4.76,4.97,12.981,12.981,0,0,1-7,1.75,27.243,27.243,0,0,1-6.86-.77q-2.94-.77-5.25-1.47a23.644,23.644,0,0,0-4.2-.91,5.734,5.734,0,0,0-3.71.91A20.27,20.27,0,0,0,89.67-.98Q88.9-.42,88.2,0q-.7,0-.7-.91a2.213,2.213,0,0,1,.7-1.61q6.02-4.06,11.76-7.35a108.184,108.184,0,0,0,10.22-6.58,31.876,31.876,0,0,0,7.14-7,14.393,14.393,0,0,0,2.66-8.61,7.043,7.043,0,0,0-2.24-5.6,8.819,8.819,0,0,0-6.02-1.96,10.048,10.048,0,0,0-7.49,3.08,15.223,15.223,0,0,0-3.99,7.56.675.675,0,0,1-.98,0,1.792,1.792,0,0,1-.7-1.12,16.683,16.683,0,0,1,2.03-4.97,19.3,19.3,0,0,1,3.64-4.41,17.13,17.13,0,0,1,5.11-3.15A17.008,17.008,0,0,1,115.78-43.82Z" transform="translate(1288 2657)" fill="#fff"/>
    <path id="패스_31442" data-name="패스 31442" d="M176.889-50.425a1.27,1.27,0,0,1,1.029.182.687.687,0,0,1,.182.908,45.568,45.568,0,0,0-6.417,6.78,71.494,71.494,0,0,0-5.085,7.749q-3.148,5.569-6.054,12.107T155.1-8.9a6.159,6.159,0,0,0,1.211.121h1.211a16.51,16.51,0,0,0,6.962-1.271,8.633,8.633,0,0,0,4.056-3.693q.242-.242.666.061a.687.687,0,0,1,.182.908,14.737,14.737,0,0,1-5.448,5.751q-3.269,1.877-9.08,1.877h-1.09Q152.8-2,151.827,1.333t-1.937,6.72a5.324,5.324,0,0,1-2.058,2.119,5.41,5.41,0,0,1-2.906,1.029q-1.211,0-1.332-.726,1.332-3.874,2.664-7.87t2.906-7.991a66.573,66.573,0,0,1-7.385-1.029q-3.269-.666-5.69-1.09a41.2,41.2,0,0,0-4.177-.545,3.986,3.986,0,0,0-2.724.605,4.548,4.548,0,0,1-.484.424,4.548,4.548,0,0,0-.484.424,1.029,1.029,0,0,1-.969,0q-.484-.242-.242-.848a148.513,148.513,0,0,1,11.381-12.47q6.175-6.054,12.713-11.562t13.136-10.291Q170.835-46.551,176.889-50.425ZM150.616-9.019q3.511-8.717,7.325-16.89t7.688-14.71q-4.843,3.269-9.141,6.659c-.587.463-1.959,1.57-1.959,1.57s-4.188,3.5-6.274,5.392q-3.935,3.572-7.688,7.385t-7.506,7.93a76.019,76.019,0,0,0,7.991,1.7A85.128,85.128,0,0,0,150.616-9.019Z" transform="translate(1289 2663.64)" fill="#fff"/>
  </g>
</svg>
