<svg xmlns="http://www.w3.org/2000/svg" width="1400" height="991" viewBox="0 0 1400 991">
  <g id="img_vision_diagram" data-name="img/vision/diagram" transform="translate(-260 -17)">
    <g id="diagram" transform="translate(0 -4)">
      <g id="active_learning" data-name="active learning" transform="translate(1 -53)">
        <line id="line" y2="32" transform="translate(1325.5 955.5)" fill="none" stroke="#999" stroke-linecap="round" stroke-width="1.5" stroke-dasharray="3 5"/>
        <line id="line-2" data-name="line" y2="54" transform="translate(1094.5 931.5)" fill="none" stroke="#999" stroke-linecap="round" stroke-width="1.5" stroke-dasharray="3 5"/>
        <line id="line-3" data-name="line" y2="32" transform="translate(863.5 955.5)" fill="none" stroke="#999" stroke-linecap="round" stroke-width="1.5" stroke-dasharray="3 5"/>
        <line id="line-4" data-name="line" y2="24" transform="translate(1094.5 871.5)" fill="none" stroke="#999" stroke-linecap="round" stroke-width="1.5" stroke-dasharray="3 5"/>
        <path id="path" d="M-258.5,32.5V8.637A8.066,8.066,0,0,1-250.508.5H645.508A8.066,8.066,0,0,1,653.5,8.637V32.5" transform="translate(892 954)" fill="none" stroke="#999" stroke-linecap="round" stroke-width="1.5" stroke-dasharray="3 5"/>
        <g id="icon_16_arrow_fill" data-name="icon/16/arrow/fill" transform="translate(0 -37)">
          <rect id="base" width="16" height="16" transform="translate(1086 892)" fill="none"/>
          <path id="arrow" d="M14,0,0,8l14,8Z" transform="translate(1102 893) rotate(90)" fill="#707070"/>
        </g>
        <text id="Active_Learning-2" data-name="Active Learning" transform="translate(1094 916)" fill="#501d83" font-size="20" font-family="Poppins-SemiBold, Poppins" font-weight="600"><tspan x="-78" y="0">Active Learning</tspan></text>
        <g id="academics" transform="translate(190 168.7)">
          <g id="_5" data-name="5" transform="translate(1249 816.3)">
            <g id="base-2" data-name="base" transform="translate(0 0)" fill="#f9f8fb" stroke="#501d83" stroke-width="2">
              <rect width="220" height="80" rx="7" stroke="none"/>
              <rect x="1" y="1" width="218" height="78" rx="6" fill="none"/>
            </g>
            <text id="Business_Innovation" data-name="Business 
Innovation" transform="translate(110 34)" fill="#501d83" font-size="16" font-family="Poppins-SemiBold, Poppins" font-weight="600"><tspan x="-37" y="0">Business </tspan><tspan x="-43" y="24">Innovation</tspan></text>
          </g>
          <g id="_4" data-name="4" transform="translate(1019 816.3)">
            <g id="base-3" data-name="base" transform="translate(0 0)" fill="#f9f8fb" stroke="#501d83" stroke-width="2">
              <rect width="220" height="80" rx="7" stroke="none"/>
              <rect x="1" y="1" width="218" height="78" rx="6" fill="none"/>
            </g>
            <text id="Data_Science_and_Artificial_Intelligence" data-name="Data Science and
Artificial Intelligence" transform="translate(110 34)" fill="#501d83" font-size="16" font-family="Poppins-SemiBold, Poppins" font-weight="600"><tspan x="-71" y="0">Data Science and</tspan><tspan x="-83" y="24">Artificial Intelligence</tspan></text>
          </g>
          <g id="_3" data-name="3" transform="translate(789 816.3)">
            <g id="base-4" data-name="base" transform="translate(0 0)" fill="#f9f8fb" stroke="#501d83" stroke-width="2">
              <rect width="220" height="80" rx="7" stroke="none"/>
              <rect x="1" y="1" width="218" height="78" rx="6" fill="none"/>
            </g>
            <text id="Natural_Sciences" data-name="Natural 
Sciences" transform="translate(110 34)" fill="#501d83" font-size="16" font-family="Poppins-SemiBold, Poppins" font-weight="600"><tspan x="-32" y="0">Natural </tspan><tspan x="-36" y="24">Sciences</tspan></text>
          </g>
          <g id="_2" data-name="2" transform="translate(559 816.3)">
            <g id="base-5" data-name="base" transform="translate(0 0)" fill="#f9f8fb" stroke="#501d83" stroke-width="2">
              <rect width="220" height="80" rx="8" stroke="none"/>
              <rect x="1" y="1" width="218" height="78" rx="7" fill="none"/>
            </g>
            <text id="Humanities_and_Social_Sciences" data-name="Humanities and
Social Sciences" transform="translate(110 34)" fill="#501d83" font-size="16" font-family="Poppins-SemiBold, Poppins" font-weight="600"><tspan x="-64" y="0">Humanities and</tspan><tspan x="-62" y="24">Social Sciences</tspan></text>
          </g>
          <g id="_1" data-name="1" transform="translate(329 816.3)">
            <g id="base-6" data-name="base" transform="translate(0 0)" fill="#f9f8fb" stroke="#501d83" stroke-width="2">
              <rect width="220" height="80" rx="8" stroke="none"/>
              <rect x="1" y="1" width="218" height="78" rx="7" fill="none"/>
            </g>
            <text id="Innovation_Foundations" data-name="Innovation
Foundations" transform="translate(110 34)" fill="#501d83" font-size="16" font-family="Poppins-SemiBold, Poppins" font-weight="600"><tspan x="-43" y="0">Innovation</tspan><tspan x="-50" y="24">Foundations</tspan></text>
          </g>
        </g>
      </g>
      <g id="six_key" transform="translate(851.445 489)">
        <g id="items" transform="translate(-765.034 157.775)">
          <g id="item" transform="translate(-58.946 -4)">
            <rect id="base-7" data-name="base" width="150" height="128" rx="8" transform="translate(1141.534 15.225)" fill="#501d83"/>
            <text id="Global_Harmony_and_Sustainability" data-name="Global Harmony
and
Sustainability" transform="translate(1216.535 61.225)" fill="#fff" font-size="16" font-family="Poppins-Medium, Poppins" font-weight="500"><tspan x="-65" y="0">Global Harmony</tspan><tspan x="-16" y="24">and</tspan><tspan x="-54" y="48">Sustainability</tspan></text>
          </g>
          <g id="item-2" data-name="item" transform="translate(-212.946 -4)">
            <rect id="base-8" data-name="base" width="150" height="128" rx="8" transform="translate(1141.534 15.225)" fill="#501d83"/>
            <text id="Communication_and_Collaboration" data-name="Communication
and
Collaboration" transform="translate(1216.535 61.225)" fill="#fff" font-size="16" font-family="Poppins-Medium, Poppins" font-weight="500"><tspan x="-66" y="0">Communication</tspan><tspan x="-16" y="24">and</tspan><tspan x="-55" y="48">Collaboration</tspan></text>
          </g>
          <g id="item-3" data-name="item" transform="translate(-366.946 -4)">
            <rect id="base-9" data-name="base" width="150" height="128" rx="8" transform="translate(1141.534 15.225)" fill="#501d83"/>
            <text id="Diversity_and_Empathy" data-name="Diversity
and Empathy" transform="translate(1216.535 73.225)" fill="#fff" font-size="16" font-family="Poppins-Medium, Poppins" font-weight="500"><tspan x="-34" y="0">Diversity</tspan><tspan x="-54" y="24">and Empathy</tspan></text>
          </g>
        </g>
        <g id="items-2" data-name="items" transform="translate(-765.034 25.775)">
          <g id="item-4" data-name="item" transform="translate(-58.946 -4)">
            <rect id="base-10" data-name="base" width="150" height="128" rx="8" transform="translate(1141.534 15.225)" fill="#501d83"/>
            <text id="Self-directed_Learning" data-name="Self-directed
Learning" transform="translate(1216.535 73.225)" fill="#fff" font-size="16" font-family="Poppins-Medium, Poppins" font-weight="500"><tspan x="-52" y="0">Self-directed</tspan><tspan x="-35" y="24">Learning</tspan></text>
          </g>
          <g id="item-5" data-name="item" transform="translate(-212.946 -4)">
            <rect id="base-11" data-name="base" width="150" height="128" rx="8" transform="translate(1141.534 15.225)" fill="#501d83"/>
            <text id="Creative_Thinking" data-name="Creative
Thinking" transform="translate(1216.535 73.225)" fill="#fff" font-size="16" font-family="Poppins-Medium, Poppins" font-weight="500"><tspan x="-34" y="0">Creative</tspan><tspan x="-33" y="24">Thinking</tspan></text>
          </g>
          <g id="item-6" data-name="item" transform="translate(-366.946 -4)">
            <rect id="base-12" data-name="base" width="150" height="128" rx="8" transform="translate(1141.534 15.225)" fill="#501d83"/>
            <text id="Critical_Thinking" data-name="Critical 
Thinking" transform="translate(1216.535 74.225)" fill="#fff" font-size="16" font-family="Poppins-Medium, Poppins" font-weight="500"><tspan x="-30" y="0">Critical </tspan><tspan x="-33" y="24">Thinking</tspan></text>
          </g>
        </g>
      </g>
      <g id="global" transform="translate(911 -34)">
        <line id="line-5" data-name="line" x2="25" transform="translate(439.5 690.5)" fill="none" stroke="#999" stroke-linecap="round" stroke-width="1.5" stroke-dasharray="3 5"/>
        <g id="icon_16_arrow_fill-2" data-name="icon/16/arrow/fill" transform="translate(440 682) rotate(90)">
          <rect id="base-13" data-name="base" width="16" height="16" transform="translate(0 0)" fill="none"/>
          <path id="arrow-2" data-name="arrow" d="M14,16,0,8,14,0Z" transform="translate(0 15) rotate(-90)" fill="#707070"/>
        </g>
        <g id="items-3" data-name="items" transform="translate(-953 -1)">
          <g id="_4-2" data-name="4" transform="translate(-18 155)">
            <rect id="base-14" data-name="base" width="220" height="62" rx="4" transform="translate(1500 604)" fill="#34b5aa"/>
            <text id="Civic_project" data-name="Civic project" transform="translate(1610 641)" fill="#fff" font-size="16" font-family="Poppins-Regular, Poppins"><tspan x="-49" y="0">Civic project</tspan></text>
          </g>
          <g id="_3-2" data-name="3" transform="translate(-26 89)">
            <rect id="base-15" data-name="base" width="220" height="62" rx="4" transform="translate(1508 604)" fill="#34b5aa"/>
            <text id="Study_Tour" data-name="Study Tour" transform="translate(1618 641)" fill="#fff" font-size="16" font-family="Poppins-Regular, Poppins"><tspan x="-41" y="0">Study Tour</tspan></text>
          </g>
          <g id="_2-2" data-name="2" transform="translate(-26 23)">
            <rect id="base-16" data-name="base" width="220" height="62" rx="4" transform="translate(1508 604)" fill="#34b5aa"/>
            <text id="Residential_Campus_Program" data-name="Residential
Campus Program" transform="translate(1618 632)" fill="#fff" font-size="16" font-family="Poppins-Regular, Poppins"><tspan x="-43" y="0">Residential</tspan><tspan x="-71" y="18">Campus Program</tspan></text>
          </g>
          <g id="_1-2" data-name="1" transform="translate(-26 -43)">
            <rect id="base-17" data-name="base" width="220" height="62" rx="4" transform="translate(1508 604)" fill="#34b5aa"/>
            <text id="Residential_Social_Program" data-name="Residential
Social Program" transform="translate(1618 632)" fill="#fff" font-size="16" font-family="Poppins-Regular, Poppins"><tspan x="-43" y="0">Residential</tspan><tspan x="-60" y="18">Social Program</tspan></text>
          </g>
        </g>
        <g id="tit" transform="translate(464.984 603.984)">
          <rect id="box" width="60" height="260" rx="4" transform="translate(0.016 -43.984)" fill="#02a597"/>
          <text id="Global_Engagement" data-name="Global Engagement" transform="translate(24.016 86.016) rotate(90)" fill="#fff" font-size="18" font-family="Poppins-Medium, Poppins" font-weight="500"><tspan x="-90" y="0">Global Engagement</tspan></text>
        </g>
      </g>
      <g id="student_success" transform="translate(-9 -34)">
        <line id="line-6" data-name="line" x2="25" transform="translate(813.5 690.5)" fill="none" stroke="#999" stroke-linecap="round" stroke-width="1.5" stroke-dasharray="3 5"/>
        <g id="icon_16_arrow_fill-3" data-name="icon/16/arrow/fill" transform="translate(1746 -404) rotate(90)">
          <rect id="base-18" data-name="base" width="16" height="16" transform="translate(1086 892)" fill="none"/>
          <path id="arrow-3" data-name="arrow" d="M14,0,0,8l14,8Z" transform="translate(1102 893) rotate(90)" fill="#707070"/>
        </g>
        <g id="items-4" data-name="items" transform="translate(-953 -1)">
          <g id="_4-3" data-name="4" transform="translate(-18 155)">
            <rect id="base-19" data-name="base" width="220" height="62" rx="4" transform="translate(1500 604)" fill="#97999b"/>
            <text id="Career_Development_Program" data-name="Career Development
Program" transform="translate(1610 632)" fill="#fff" font-size="16" font-family="Poppins-Regular, Poppins"><tspan x="-83" y="0">Career Development</tspan><tspan x="-34" y="18">Program</tspan></text>
          </g>
          <g id="_3-3" data-name="3" transform="translate(-26 89)">
            <rect id="base-20" data-name="base" width="220" height="62" rx="4" transform="translate(1508 604)" fill="#97999b"/>
            <text id="Social_Value_Program" data-name="Social Value
Program" transform="translate(1618 632)" fill="#fff" font-size="16" font-family="Poppins-Regular, Poppins"><tspan x="-48" y="0">Social Value</tspan><tspan x="-34" y="18">Program</tspan></text>
          </g>
          <g id="_2-3" data-name="2" transform="translate(-26 23)">
            <rect id="base-21" data-name="base" width="220" height="62" rx="4" transform="translate(1508 604)" fill="#97999b"/>
            <text id="Wellness_Program" data-name="Wellness
Program" transform="translate(1618 632)" fill="#fff" font-size="16" font-family="Poppins-Regular, Poppins"><tspan x="-34" y="0">Wellness</tspan><tspan x="-34" y="18">Program</tspan></text>
          </g>
          <g id="_1-3" data-name="1" transform="translate(-26 -43)">
            <rect id="base-22" data-name="base" width="220" height="62" rx="4" transform="translate(1508 604)" fill="#97999b"/>
            <text id="Self_Leadership_Program" data-name="Self &amp; Leadership
Program" transform="translate(1618 632)" fill="#fff" font-size="16" font-family="Poppins-Regular, Poppins"><tspan x="-67" y="0">Self &amp; Leadership</tspan><tspan x="-34" y="18">Program</tspan></text>
          </g>
        </g>
        <g id="tit-2" data-name="tit" transform="translate(752.984 603.984)">
          <rect id="box-2" data-name="box" width="60" height="260" rx="4" transform="translate(0.016 -43.984)" fill="#5e5e5e"/>
          <text id="Student_Success-2" data-name="Student Success" transform="translate(24.016 86.016) rotate(90)" fill="#fff" font-size="18" font-family="Poppins-Medium, Poppins" font-weight="500"><tspan x="-74" y="0">Student Success</tspan></text>
        </g>
      </g>
      <rect id="divider" width="1140" height="1" transform="translate(520 485)" fill="#6d6e71" opacity="0.5"/>
    </g>
    <g id="leadership" transform="translate(0 28)">
      <g id="item-7" data-name="item" transform="translate(-15 -4347)">
        <g id="_3-4" data-name="3" transform="translate(757 19)">
          <text id="Pioneer_a_brighter_21st_century_future" data-name="Pioneer a brighter 21st century future" transform="translate(713 4735)" fill="#1f1f1f" font-size="16" font-family="Poppins-Medium, Poppins" font-weight="500"><tspan x="-147" y="0">Pioneer a brighter 21st century future</tspan></text>
          <text id="Innovative_Leaders" data-name="Innovative Leaders" transform="translate(713 4704)" fill="#1f1f1f" font-size="18" font-family="Poppins-SemiBold, Poppins" font-weight="600"><tspan x="-86" y="0">Innovative Leaders</tspan></text>
        </g>
        <rect id="divider-2" data-name="divider" width="1" height="56" transform="translate(1282 4704)" fill="#dbdbdb"/>
        <g id="_2-4" data-name="2" transform="translate(382 19)">
          <text id="Build_a_more_sustainable_society" data-name="Build a more sustainable society" transform="translate(730 4735)" fill="#1f1f1f" font-size="16" font-family="Poppins-Medium, Poppins" font-weight="500"><tspan x="-130" y="0">Build a more sustainable society</tspan></text>
          <text id="Future_Leaders" data-name="Future Leaders" transform="translate(730 4704)" fill="#1f1f1f" font-size="18" font-family="Poppins-SemiBold, Poppins" font-weight="600"><tspan x="-67" y="0">Future Leaders</tspan></text>
        </g>
        <rect id="divider-3" data-name="divider" width="1" height="56" transform="translate(941 4704)" fill="#dbdbdb"/>
        <g id="_1-4" data-name="1" transform="translate(41 16)">
          <text id="Build_harmony_between_east_and_west" data-name="Build harmony between east and west" transform="translate(706 4738)" fill="#1f1f1f" font-size="16" font-family="Poppins-Medium, Poppins" font-weight="500"><tspan x="-154" y="0">Build harmony between east and west</tspan></text>
          <text id="Global_Leaders" data-name="Global Leaders" transform="translate(706 4707)" fill="#1f1f1f" font-size="18" font-family="Poppins-SemiBold, Poppins" font-weight="600"><tspan x="-67" y="0">Global Leaders</tspan></text>
        </g>
      </g>
      <rect id="divider-4" data-name="divider" width="1140" height="1" transform="translate(520 316)" fill="#6d6e71" opacity="0.5"/>
    </g>
    <g id="mission" transform="translate(0 14)">
      <text id="Establish_an_innovative_educational_platform_to_cultivate_leaders_capable_of_working_for_the_harmony_of_humanity_and_to_build_a_stronger_digital_society" data-name="Establish an innovative educational platform to cultivate leaders capable of working for
the harmony of humanity and to build a stronger digital society" transform="translate(1090 258)" fill="#1f1f1f" font-size="18" font-family="Poppins-Medium, Poppins" font-weight="500"><tspan x="-395" y="0">Establish an innovative educational platform to cultivate leaders capable of working for</tspan><tspan x="-286" y="26">the harmony of humanity and to build a stronger digital society</tspan></text>
      <rect id="divider-5" data-name="divider" width="1140" height="1" transform="translate(520 198)" fill="#6d6e71" opacity="0.5"/>
    </g>
    <g id="vision">
      <text id="Nurture_self-directed_future-oriented_global_leaders_for_a_harmonious_and_sustainable_world" data-name="Nurture self-directed, future-oriented global leaders
for a harmonious and sustainable world" transform="translate(1090 140)" fill="#1f1f1f" font-size="18" font-family="Poppins-Medium, Poppins" font-weight="500"><tspan x="-235" y="0">Nurture self-directed, future-oriented global leaders</tspan><tspan x="-180" y="26">for a harmonious and sustainable world</tspan></text>
      <rect id="divider-6" data-name="divider" width="1140" height="1" transform="translate(520 80)" fill="#6d6e71" opacity="0.5"/>
    </g>
    <g id="diagram-2" data-name="diagram" transform="translate(260 324.766)">
      <g id="vision-2" data-name="vision">
        <rect id="사각형_2696" data-name="사각형 2696" width="220" height="134" rx="4" transform="translate(0 -244.765)" fill="#501d83"/>
        <text id="Vision-3" data-name="Vision" transform="translate(110 -199.765)" fill="#fff" font-size="20" font-family="Poppins-SemiBold, Poppins" font-weight="600"><tspan x="-30" y="0">Vision</tspan></text>
      </g>
      <g id="mission-2" data-name="mission" transform="translate(0 9)">
        <path id="패스_15929" data-name="패스 15929" d="M216,51.487,111.765.41a4,4,0,0,0-3.53,0L4,51.487a6.023,6.023,0,0,0-4,5.571V195a4,4,0,0,0,4,4H216a4,4,0,0,0,4-4V57.058a6.023,6.023,0,0,0-4-5.571" transform="translate(0 -178.765)" fill="#72499a"/>
        <text id="Mission-3" data-name="Mission" transform="translate(110 -95.765)" fill="#fff" font-size="20" font-family="Poppins-SemiBold, Poppins" font-weight="600"><tspan x="-38" y="0">Mission</tspan></text>
      </g>
      <g id="leadership-2" data-name="leadership" transform="translate(0 23)">
        <path id="패스_15928" data-name="패스 15928" d="M216,51.487,111.765.41a4,4,0,0,0-3.53,0L4,51.487a6.023,6.023,0,0,0-4,5.571V203a4,4,0,0,0,4,4H216a4,4,0,0,0,4-4V57.058a6.023,6.023,0,0,0-4-5.571" transform="translate(0 -60.765)" fill="#9274b2"/>
        <text id="Leadership-3" data-name="Leadership" transform="translate(110 24.235)" fill="#fff" font-size="20" font-family="Poppins-SemiBold, Poppins" font-weight="600"><tspan x="-56" y="0">Leadership</tspan></text>
      </g>
      <g id="curriculum" transform="translate(0 40)">
        <path id="arrow-4" data-name="arrow" d="M216,32.487,111.765-18.59a4,4,0,0,0-3.53,0L4,32.487a6.023,6.023,0,0,0-4,5.571V561a4,4,0,0,0,4,4H216a4,4,0,0,0,4-4V38.058a6.023,6.023,0,0,0-4-5.571" transform="translate(0 78.235)" fill="#b6a0cb"/>
        <text id="Curriculum-2" data-name="Curriculum" transform="translate(110 374.235)" fill="#fff" font-size="20" font-family="Poppins-SemiBold, Poppins" font-weight="600"><tspan x="-57" y="0">Curriculum</tspan></text>
      </g>
    </g>
    <text id="Taejae_University_s_Vision_Mission_Chart" data-name="Taejae University’s Vision &amp; Mission Chart" transform="translate(960 46)" fill="#1f1f1f" font-size="28" font-family="Poppins-SemiBold, Poppins" font-weight="600"><tspan x="-291" y="0">Taejae University’s Vision &amp; Mission Chart</tspan></text>
  </g>
</svg>
