<svg id="earth_hongkong" data-name="earth/hongkong" xmlns="http://www.w3.org/2000/svg" xmlns:xlink="http://www.w3.org/1999/xlink" width="480" height="480" viewBox="0 0 480 480">
  <defs>
    <clipPath id="clip-path">
      <path id="패스_9372" data-name="패스 9372" d="M240,0C107.453,0,0,107.455,0,240S107.453,480,240,480,480,372.549,480,240,372.551,0,240,0Z" fill="none"/>
    </clipPath>
    <radialGradient id="radial-gradient" cx="0.528" cy="0.298" r="0.551" gradientUnits="objectBoundingBox">
      <stop offset="0" stop-color="#fff"/>
      <stop offset="1" stop-color="#f1f1f1"/>
    </radialGradient>
    <clipPath id="clip-path-2">
      <path id="패스_9374" data-name="패스 9374" d="M152.019,457.736c6.06,2.637,12.564,6.519,19.363,8.162a9.552,9.552,0,0,0,1.2.238,37.237,37.237,0,0,0,6.965.248c1.657-.16,1.7-1.167.184-1.625a7.94,7.94,0,0,0-2.618-.09,7.119,7.119,0,0,1-3.026-.2c-1.21-.51-2.494-1.529-3.91-2.141-2.6-1.119-6.635-1.739-10.351-2.855-2.626-.792-5.383-1.813-7.628-2.4a4.386,4.386,0,0,0-.985-.166c-.55,0-.293.35.807.828m240.761-49.4a34.788,34.788,0,0,0-4.535,5.661,21.675,21.675,0,0,0-2.935,4.492c-.574,1.545,1.159,2.131,2.4,1.033.243-.216.485-.44.726-.66a17.349,17.349,0,0,0,3.206-4.814,28.707,28.707,0,0,1,1.42-2.667c.437-.74,1.005-1.521,1.477-2.267a4.5,4.5,0,0,0,.811-2.493,9.984,9.984,0,0,0-2.565,1.717m7.05-11.194c-3.283,1.937-6.279,4.174-7.841,7.822-.649,1.509.305,2.165,1.608,1.141a47.84,47.84,0,0,0,7.177-7.428,11.3,11.3,0,0,0,1.887-2.707c0-.034-.038-.05-.1-.05a9.278,9.278,0,0,0-2.731,1.223M26.239,247.091a8.057,8.057,0,0,1-2.84-.08,7.676,7.676,0,0,0-1.972-.158,10.872,10.872,0,0,0-3.839,1.657c-1.475.756-3.441,1.707-4,3.254a70.309,70.309,0,0,0-2.992,11.754c-.312,1.813-.158,3.966-.72,5.477-.518,1.373-2.027,2.369-2.65,3.808a20.648,20.648,0,0,0-.908,3.046c-.417,1.587-1.616,2.966-2.237,2.9s-.9,1.809-1.005,3.45c-.6,9.1,1.837,17.385,4.632,24.9,1.97,5.291,4.5,10.449,6.5,15.236,3.989,9.567,8,18.635,13.207,26.369a15.247,15.247,0,0,0,4.446,3.68c3.615,2.115,5.994,5.555,8.344,8.762a153.576,153.576,0,0,0,17.811,20.474c3.732,3.562,7.118,6.994,11.68,9.289a17.315,17.315,0,0,1,4.794,3.38c1.558,1.851,3.166,3.938,5.427,5.191,2.2,1.215,4.82,2.063,7.22,3.57,2.713,1.707,4.806,3.67,7.851,4.436a10.136,10.136,0,0,1,4.861,2.653,31.7,31.7,0,0,0,6.785,6.485c1.513.985,4.08,1.485,5.055,2.855.639.894.625,2.731,1.444,3.81,1.448,1.9,4.861,3.368,6.983,4.76,2.425,1.595,5.332,3.09,7.217,4.762,3.338,2.962,5.988,9.595,10.713,8.967,1.647-.224,2.6-2.437,2.112-4.006-2.688-8.746-10.709-12.212-15.891-18.491a11.477,11.477,0,0,0-3.678-3.006,10.786,10.786,0,0,1-3.7-3.006c-.247-.314-.494-.624-.74-.943-1.026-1.293-1.28-2.129-.666-1.727s.34-.664-.736-1.917c-3.817-4.438-7.331-9.545-11.484-14.441-4.644-5.479-9.679-10.609-13.235-17.381-5-9.519-11.973-18.964-16.126-29.765-1.43-3.72-3.16-8.358-2.68-11.976.218-1.633.589-4.056.166-5.647a25.9,25.9,0,0,1-1.1-9.757c.314-2.263,1.721-4.182,1.685-6.189-.071-3.72-2.148-8.244-3.613-11.906a114.731,114.731,0,0,0-10.59-20.955c-1.928-3.056-5.466-7.018-5.775-10-.131-1.237.548-2.669.72-4.048a29.908,29.908,0,0,0-.878-12.686c-.485-1.575-2.391-2.591-4.05-2.7a7.886,7.886,0,0,1-4.7-1.759c-2.419-1.867-3.675-6.561-5.777-7.376a4.077,4.077,0,0,0-1.5-.29c-3.53,0-6.394,4.682-9.57,5.291m122.973-70.16a16.96,16.96,0,0,1-1.661,8.49c-.574,1.363-2.391,3.742-2.407,4.764-.034,2.047,2.9,4.742,4.09,6.429,1.007,1.421,1.77,2.789,2.537,4.12a4.086,4.086,0,0,0,4.46,1.775,28.34,28.34,0,0,0,4.363-1.787,2.482,2.482,0,0,0,.819-3.878c-2.029-2.215-4.626-4.118-5.921-7.136-1.883-4.4-1.764-9.641-4.088-13.451a7.925,7.925,0,0,0-2.32-2.435l-.018,0c-.188,0,.02,1.521.146,3.112m56.439-11.056c-.558.666-1.123,1.319-1.649,2.017-1,1.315-1.23,3.136-.736,3.844s1.889.456,3.224-.518c1.932-1.409,3.93-2.747,5.763-4.254,1.278-1.053.876-2.219-.755-2.535-.368-.064-.732-.144-1.092-.214a4.053,4.053,0,0,0-.831-.084,5.4,5.4,0,0,0-3.924,1.745m-8.332-9.217a19.769,19.769,0,0,0-2.466,1.2c-1.465.78-2.185,2.347-1.119,3.612a19.66,19.66,0,0,0,1.792,1.825,3.781,3.781,0,0,0,4.63-.03c.5-.376,1-.756,1.507-1.121,1.341-.97,1.879-2.919.742-4.052a6.179,6.179,0,0,0-3.973-1.621,3.207,3.207,0,0,0-1.115.182M82.461,108.126c.03.708.026,1.457-.01,2.2a4.741,4.741,0,0,0,2.433,3.932c2.043,1.4,3.008,4.046,3.506,6.549.326,1.613.795,1.657,1.521.178.2-.4.388-.8.556-1.227a4.162,4.162,0,0,0-1.93-4.608,5.636,5.636,0,0,1-2.607-2.115c-.809-1.351-.75-3.094-1-4.808a4.084,4.084,0,0,0-1.883-2.99.246.246,0,0,0-.081-.014c-.453,0-.57,1.351-.508,2.9m114.875-8.5A8.981,8.981,0,0,0,194,101.849c-5.235,6.815,5.144,14.926,3.965,23.582a3.754,3.754,0,0,0,1.946,3.962c2.221,1.137,4.693,2.643,6.609,2.457,1.776-.176,6.137-3.876,6.738-5,2.2-4.136-2.735-9.563-3.241-14.455-.166-1.635-.7-3.764-1.95-4.84a40.259,40.259,0,0,1-6.427-6.771,3.6,3.6,0,0,0-2.891-1.475,3.3,3.3,0,0,0-1.416.314m-40.5-2.719c.916.732.312,2.339-.839,3.314s-3.093.69-4.6.246a1.694,1.694,0,0,1-.661-3.052c1.2-1.047.253-2.211-1.315-1.661-1.141.4-2.193.918-3.247,1.235a18.934,18.934,0,0,0-5.239,2.043c-3.827,2.779-8.613,4.608-10.768,9.045-.718,1.479-1.311,2.8-1.788,2.817s-1.121,1.575-2.019,2.962a10.858,10.858,0,0,1-1.91,2.187c-1.238,1.1-3.661,1.237-5.247.746-.411-.124-.825-.246-1.246-.36-1.6-.448-4.119-.108-5.2,1.139-1.638,1.9-2.638,4.428-3.856,6.745-.767,1.459-2.69,1.711-3.394.222-1.471-3.112-.763-7.28-2.013-10.535-.674-1.761-2.268-3.612-3.37-5.481-1.774-3.014-3.04-5.523-5.777-6.809a3.867,3.867,0,0,0-4.606,1.617c-2.132,4.332.585,8.5,3.845,11.744,1.171,1.167,1,2.691-.012,4-1.042,1.351-1.814,2.976-2.9,4.286-1.062,1.265-2.527,3.15-2.856,4.76-.289,1.419-.623,2.8-.957,4.174a5.76,5.76,0,0,0,1.5,4.936c2.444,2.4,4.7,4.979,7.157,7.366,1.185,1.147,3.277,1.153,4.851.622a7.383,7.383,0,0,1,3.37-.268c4.871.634,8.561,5.235,14.443,5.715a37.506,37.506,0,0,0,7.232-.358,41.5,41.5,0,0,1,7.693-.358c.88.068,2.314.684,3.368.48,2.541-.5,6.692-5.515,7.944-7.146,1.675-2.183,6.564-8.626,4.333-11.664-3.15-4.292-11.573-1.6-17.947-.724-1.647.228-4.264-.326-5.354-1.569-2.729-3.11-3.655-8.59-1.022-11.7,1.068-1.263,2.741-.16,4.24.556,2.33,1.127,5.9-1.091,9.252-2.037,2.842-.808,6.172-2.461,8.662-2.379,2.061.062,4.131,1.515,6.259,1.9a37.981,37.981,0,0,0,16.856-.566c1.606-.422,2.854-2.233,2.2-3.744-2.389-5.479-10.062-6.241-11.429-12.252-.366-1.607-1.189-3.162-2.44-3.484a2.082,2.082,0,0,0-.514-.066c-.947,0-1.456.734-.676,1.357M69.756,86.9c-2.486,1.673-4.98,3.328-6.619,5.841-.9,1.377.107,2.507,1.517,1.635.931-.572,1.752-1.263,2.749-1.773,1.471-.76,3.556-1.921,3.991-3.51.089-.32.172-.65.245-.984.245-1.071-.065-1.661-.706-1.661a2.243,2.243,0,0,0-1.177.452M401.3,66.415A38.368,38.368,0,0,0,411.381,76.1a27.115,27.115,0,0,1,4.493,3.788l.322.344c1.141,1.2,1.371.995.348-.3a85.26,85.26,0,0,0-6.4-7.124c-2.235-2.257-5.164-5.469-7.952-7.4a2.065,2.065,0,0,0-1.048-.452c-.494,0-.512.582.156,1.467m-1.588-3.82a5.4,5.4,0,0,0,.609.49c-.69-.648-1.378-1.3-2.075-1.937.485.5.973,1,1.467,1.447M129.709,58.131l-.314.486c-.846,1.415-2.075,3.678-3.338,4.746a33.38,33.38,0,0,1-8.188,5.293c-1.517.664-4.3.438-4.466-1.2a13.19,13.19,0,0,1,.243-3.128c.251-1.627-.928-2.223-2.482-1.641a16.608,16.608,0,0,1-2.51.732c-1.626.342-3.552-.68-3.2-1.881s-.35-1.647-1.827-.894C98.2,63.422,93.437,68.336,88.58,71.374c-1.594,1-4.288,1.5-5.294,2.859-1.823,2.439-1.036,7.074-3.613,9.045a5.83,5.83,0,0,1-1.988.68c-1.125.308-1.485,1.645-1.1,2s1.827-.05,3.281-.848c4.509-2.453,9.305-4.468,13.767-6.833,4.59-2.429,8.065-5.8,11.834-8.873,1.282-1.047,1.513-.8.736.652a19.868,19.868,0,0,0-1.123,2.517,2.345,2.345,0,0,0,2.122,3.21,47.968,47.968,0,0,0,5.013-.174,44.164,44.164,0,0,1,5.644-.15c1.659.1,3.708-.76,3.661-2.4-.012-.438-.053-.892-.105-1.347a5.576,5.576,0,0,1,2.112-4.68c3.095-2.233,6.151-4.806,7.834-8.1a5.122,5.122,0,0,0,.781-2.793,5.62,5.62,0,0,0-2.433,2m42.071-2.3c.257,1.257,1.655.646,1.566-.418s-.2-2.155-.765-2.155-1.06,1.321-.8,2.573M150.57,47.8c-1.1.39-2.231.744-3.291,1.177-1.535.632-1.262,1.575.386,1.349a13.029,13.029,0,0,0,4.029-1.249c1.493-.728,2.63-1.9,2.332-2.2a.364.364,0,0,0-.257-.072,15.923,15.923,0,0,0-3.2,1m83.994-9.549a39.2,39.2,0,0,0-4.179.53c-1.636.3-1.578.75.081.79a16.932,16.932,0,0,0,4.274-.3c1.511-.332,1.493-1.035.144-1.035-.1,0-.206,0-.32.012m-48.955-.572c-1.5.572-1.1,1.777.483,2.271a12.412,12.412,0,0,1,2.579,1.1,1.545,1.545,0,0,1-.635,2.931,25.072,25.072,0,0,1-5.638-.018,31.337,31.337,0,0,0-4.725-.126c-1.657.128-3.868,1.855-3.562,3.472a4.23,4.23,0,0,0,2.961,3.048c1.57.542,3.413-.152,3.714-.868s2.013-.8,3.678-.844c4.557-.1,7.207-3.462,11.836-4.274,1.634-.286,4.06-.966,4.972-2.341.617-.934,1.238-1.783,2.357-1.843,1.309-.066,2.856,1.645,4.642,2.083,1.614.394,1.327-.322.154-1.435a4.51,4.51,0,0,0-2.389-1.607c-2.292-.338-6.077,1.469-9.145,1.675a18.445,18.445,0,0,1-6.249-.312c-1.594-.462-2.735-1.873-2.508-2.445.156-.388-.364-.724-1.189-.724a3.856,3.856,0,0,0-1.335.256m80.944,1.735a4.145,4.145,0,0,0,3.852,2.691,6.293,6.293,0,0,0,2.506-.486c1.5-.708.184-2.747-1.345-3.392a24.352,24.352,0,0,0-2.4-.908,2.519,2.519,0,0,0-.712-.106,1.83,1.83,0,0,0-1.906,2.2m-16.088-2.945c-2.035.14-4.371.224-6.394.558-1.639.262-1.537.7.115.858,3.348.328,6.273,1.331,9.392,1.6,1.657.14,2.148-.68.993-1.377-1.1-.668-2.318-1.651-3.86-1.651-.081,0-.164,0-.247.01m-90.639-5.529c.9-.322,1.222.722.087.989a1.7,1.7,0,0,1-.356.044c-.734,0-.514-.752.269-1.033m11.757-1.973c-1.6.448-1.93,1.507-2.249,1.219a9.336,9.336,0,0,0-3.564-.989c-7.932-.846-13.426,2.97-19.9,4.322-3.8.8-7.171,1.349-10.11,3.1a51.824,51.824,0,0,1-9.388,4.288c-2.114.726-4.847,1.183-6.59,2.545-1.3,1.021-.437,2.463.947,2.127s1.562,1.063.057,1.761a27.517,27.517,0,0,0-4.157,1.971c-1.361.938-.463,2.523,1.193,2.431,6.485-.37,11.569-4.716,16.254-7.266,2.009-1.093,4.343-1.581,6.5-2.619,1.436-.692,2.357-2.2,3.851-2.861a28.773,28.773,0,0,1,4.7-1.227c1.608-.412,2.626-.906,2.381-.65s1.414.01,3.042-.328c5.391-1.143,11.724-1.021,17.281-2.083,1.632-.312,3.4-1.551,3.817-2.659s-1.005-3.106-2.66-3.222c-.1-.006-.192-.008-.287-.008a3.949,3.949,0,0,0-1.113.15M185.7,28.29c-.421.01-.833.032-1.234.056-1.659.11-3.222,1.441-2.9,2.675a4.24,4.24,0,0,1-1.928,4.112c-.787.464-1.632.864-2.472,1.275-1.5.714-1.329,1.627.318,1.859,3.228.46,5.977.492,7.614-1.891,1.1-1.6,1.321-3.756,2.015-5.615.564-1.5.267-2.473-1.289-2.473l-.121,0m9.989-.012a8.743,8.743,0,0,0-4.42,1.313,1.765,1.765,0,0,0,.931,3.2c3,.122,7.118-1.093,7.339-2.131.376-1.761-2.533-2.383-3.827-2.383h-.022m47.3-.212c-4.27.006-8.2-.028-11.344.9a4.406,4.406,0,0,0-2.9,3.248,3.019,3.019,0,0,1-3.3,2.175,15.3,15.3,0,0,1-1.81-.35c-1.612-.406-2.654-1.209-2.1-1.539s-1.177-.424-2.84-.468a18.014,18.014,0,0,1-7.23-1.877,4.787,4.787,0,0,0-4.756,1.057c-2.442,2.127-5.7,3.448-8.678,5.049-1.46.782-1.323,2.129.336,2.225a22.021,22.021,0,0,0,4.448-.36,19.741,19.741,0,0,1,4.92-.324c3.455.362,6.568,1.743,9.869,1.665,3.148-.076,5.666-1.237,8.585-1.919,1.614-.382,1.936-1.391.275-1.427-.318,0-.645,0-.963-.012-1.665-.016-1.513-.918.15-.932.514-.006,1.038,0,1.564,0,.793.006,1.588.012,2.349-.018,1.659-.068,3.364-1.215,3.406-2.261s1.857-1.573,3.447-1.1c3.216.948,6.651,2.389,9.76,1.749a2.348,2.348,0,0,0,1.485-3.5A6.336,6.336,0,0,0,243,28.066h-.016M224.22,24.938a10.191,10.191,0,0,1-3.983.958c-1.691-.1-3.728-1.533-5.858-1.6-1.663-.062-2.446,1.931-1.315,2.261a11.8,11.8,0,0,0,2.12.3c2.7.268,6.507.922,8.907.948,1.2.018,2.541-.824,4.025-1.341,1.566-.55,2.411-1.815.835-2.331a3.371,3.371,0,0,0-1.05-.158,11.064,11.064,0,0,0-3.682.968m-25.7-.288c-1.535.63-1.287,1.913.378,1.9a19.362,19.362,0,0,0,4.242-.588c1.614-.376,2.021-2,.374-2.205a6.488,6.488,0,0,0-.773-.046,11.6,11.6,0,0,0-4.222.942m34.237-.448a12.379,12.379,0,0,0,5.482.838c1.653-.12,1.653-.954.051-1.4a28.41,28.41,0,0,0-5.189-1.029c-.087-.008-.17-.01-.249-.01-1.43,0-1.56,1.025-.1,1.6m-35.622-3.386c-1.549.422-.973,1.455.485,1.067,1.238-.326,1.145-1.163.154-1.163a2.469,2.469,0,0,0-.639.1m23.36.81c.085.526,1.163,1,2.28.756s1.881-1.551.407-1.839a3.043,3.043,0,0,0-.607-.06c-1.2,0-2.15.686-2.079,1.143m-12.147-1.833c-.637.05-1.272.108-1.871.194-1.645.244-1.59,1.493.069,1.547a8.39,8.39,0,0,0,2.543-.276c1.5-.422.987-1.477-.463-1.477-.089,0-.182,0-.277.012M165.851,9.852a143.822,143.822,0,0,0-17.269,6.2c-1.515.676-2.535,1.283-2.3,1.3s-.961.662-2.508,1.265c-8.789,3.416-17.18,8.022-25.342,12.286-4.788,2.5-9.586,5.067-14.041,7.892q-2.23,1.48-4.42,3.008c-1.434,1.049-2.83,2.121-4.135,3.262-1.246,1.083-1.889,1.709-1.432,1.413s.839-.166.748.054.977-.126,2.047-.514,1.315.666-.119,1.493c-1.632.95-3.661,1.271-5.367,2.2-1.916,1.049-3.76,3.35-5.294,5-1.022,1.1-2.128,2.125-3.146,3.184-1.141,1.2-.69,1.733.807,1.017,11.061-5.3,21.167-11.546,29.752-19.3,1.228-1.109,3.441-1.855,4.707-2.533s2.62-2.775,4.179-3.336c1.725-.624,3.611-.9,5.34-1.647,4.988-2.171,9.232-5.339,14.918-6.663a18.19,18.19,0,0,1,5.033-.23,28.14,28.14,0,0,0,3.874-.008,18.99,18.99,0,0,0,8.383-3c1.367-.934,1.62-2.389.765-2.481s-.388-.556.629-1.259,2.454-1.165,2.753-.48,1.816,1.267,3.475,1.173c4.092-.23,8.17-.792,12.289-.638,1.663.06,1.7.61.051.824a16.253,16.253,0,0,0-3.686.724,15.925,15.925,0,0,1-4.8,1.163,12.018,12.018,0,0,0-2.033.34,5.316,5.316,0,0,0-2.7,1.863c-.6.512.421.966,2.081.892a51.02,51.02,0,0,1,8.743.222c1.647.226,1.639,1.085-.022,1.147a35.206,35.206,0,0,1-4.032-.162,17.8,17.8,0,0,0-6,.144c-1.592.468-1.072,1.661.583,1.817,3.51.33,6.368,1.057,9.993.8,3.92-.278,6.1-2.347,9.281-2.861,1.641-.268,2.219.054,1.323.348s-.3,1.407.872,1.387,2.27-1.079,1.881-1.461.081-.7,1.107-1.217.1-1.145-1.545-.95a29.049,29.049,0,0,1-8.138-.058c-1.632-.292-1.78-1.859-.123-2.021a16.291,16.291,0,0,1,2.988.1,15.829,15.829,0,0,0,3.427.064c1.829-.226,3.609-1.325,5.3-1.9.91-.308,1.914-.472,2.8-.738,1.533-.458.965-2.115-.7-2.145-2.624-.046-5.33.77-7.776,1.2-1.632.288-1.715-.206-.065-.4.858-.1,1.74-.174,2.555-.318,1.636-.278,1.578-2.031-.075-2.159a22.37,22.37,0,0,0-2.292-.012,14.691,14.691,0,0,1-3.591-.194c-.876-.2-1.578-1.031-2.411-1.191-5.694-1.091-11.718.194-16.771,1.149-1.632.3-3.417.852-3.6,1.485s-1.238.022-.657-.34-.386-1.3-1.93-1.219-1.889-1.141-.485-2.021A33.339,33.339,0,0,1,165.9,10a4.673,4.673,0,0,0,1.143-.47,10.562,10.562,0,0,0-1.191.326m65.943-8.72c-2.334.058-4.515,1.213-6.742,1.667a38.161,38.161,0,0,1-7.458.718c-7.446-.024-14.779.332-21.426,2.021-1.61.408-1.549,1.019.111,1.035a56.816,56.816,0,0,0,5.965-.344c3.437-.322,6.777-.644,10.049.146,2.26.55,5.193,2.405,7.7,2.377,1.641-.014,3.641-1.053,5.537-1.665,4.06-1.317,8.106-1.625,12.76-2.139,2.231-.25,4.475-1.049,6.5-.956,1.94.094,3.977,1.041,6.018,1.427a68.1,68.1,0,0,0,19.68.612c1.643-.246,1.643-.96.026-1.329A65.755,65.755,0,0,0,263.8,3.517c-3.251-.394-6.742-1.373-10.108-1.431a49.822,49.822,0,0,0-5.029.26,40.552,40.552,0,0,1-6.044.216c-3.394-.216-7.658-1.433-10.608-1.433l-.22,0" transform="translate(-2.982 -1.13)" fill="none"/>
    </clipPath>
    <radialGradient id="radial-gradient-2" cx="0.555" cy="0.834" r="0.64" gradientUnits="objectBoundingBox">
      <stop offset="0" stop-color="#f1f1f1"/>
      <stop offset="1" stop-color="#e5e5e5"/>
    </radialGradient>
    <clipPath id="clip-path-3">
      <path id="패스_9376" data-name="패스 9376" d="M292.441,460.268c-3.5,1.485-6.946,3.108-11.164,2.239-.947-.2-1.683-1.091-2.648-1.193-2.452-.252-6.524,1.409-10.108,2.145-3.53.728-6.853,2-9.629,2.617-3.764.84-7.062-1.575-11.556-2.141a42.22,42.22,0,0,0-6.315-.146c-2.868.076-5.638.152-7.883-.566-1.408-.45-2.462-1.657-3.851-1.909-5.674-1.01-10.3,1.533-15.339,2.785-1.608.4-3.591,2.053-5.239,2.285a11.637,11.637,0,0,1-3.945-.532,13.83,13.83,0,0,0-5.081-.488c-2.189.308-4.4,1.821-6.742,1.9-3.028.114-5.7-.716-8.312-1.073-1.643-.222-4.272.37-5.931.494a45.536,45.536,0,0,1-5.486-.082c-1.529-.084-3.065-.164-4.481-.134-1.665.036-2.638.426-2.272.682s.186.942,1.011,1.363a32.938,32.938,0,0,0,4.256,1.839c14.253,4.578,30.664,7.39,46.97,8.818,1.424.12,2.86.266,4.3.418q6.882.4,13.856.406c5.235,0,10.432-.186,15.584-.514,3.536-.418,7.074-.88,10.547-1.265a238.35,238.35,0,0,0,63.3-15.952c.6-.242,1.525-.536,2.371-.846,1.3-.48.755-.628-.9-.452-.435.044-.888.072-1.355.086-1.661.058-2.907-.316-2.526-.452s-.864-.352-2.474.05a65.345,65.345,0,0,1-7.278,1.755c-1.651.21-3.083-.352-2.915-.868s-1.572-.148-3.2.166c-3.338.644-6.4.026-10.027-.5-1.647-.236-3.095-.77-2.9-1.2.083-.184-.109-.282-.473-.282a6.171,6.171,0,0,0-2.164.546M408.32,407.385q-3.389,3.155-6.576,6.511c-1.082,1.137-1,1.3.083.408q3.817-3.614,7.468-7.4c.089-.162.093-.248.018-.248-.125,0-.465.23-.993.728m-216.6-89.447c-2.154,4.967-6.028,8.234-10.743,10.667a7.547,7.547,0,0,0-3.578,4.132c-1.606,6.589-1.234,14.743.162,21.4a6.135,6.135,0,0,0,3.536,3.872,45.1,45.1,0,0,0,4.323,1.543,3.991,3.991,0,0,0,4.371-2.045c3.2-7.272,3.263-18.68,6.52-26.2.718-1.645,2.191-2.831,2.411-4.52.457-3.552-1.515-7.012-3.512-9.471a10.005,10.005,0,0,0-2.27-2.2,22.773,22.773,0,0,0-1.22,2.815m271.66-4.55c-1.632,4.662-2.955,10.013-5.383,13.557-.926,1.361-2.221.9-2.1-.736.275-3.852,2.158-6.992,2.812-10.5.3-1.623-.957-3.8-2.618-3.826l-.457.008A5.382,5.382,0,0,0,451.449,315c-.6,1.453-1.169,2.948-1.8,4.37-.668,1.507-2.421,1.459-4.07,1.693-2.1.288-3.912,2.785-5.448,4.306a109.231,109.231,0,0,0-11.546,13.727,10.752,10.752,0,0,1-4.561,3.35c-11.192,3.838-17.73,10.813-21.442,21.493-2.041,5.889-1.73,11.84-5.053,17.143a45.9,45.9,0,0,1-3.769,4.356,4.068,4.068,0,0,0-.279,4.536c.805,1.015,3.156.862,4.5-.106,1.428-1.037,2.662-2.147,4.6-2.359a5.581,5.581,0,0,1,1.513.136,5.338,5.338,0,0,0,1.861.1c1.786-.31,3.384-2.225,5.3-3.57a16.4,16.4,0,0,1,7.349-3.28c1.643-.224,3.338,1.3,2.929,2.893-.5,1.943-1.7,3.816-2.367,5.8-.528,1.561-1.173,4.046-2.122,5.4a57.166,57.166,0,0,0-3.9,5.973,2.914,2.914,0,0,0-.378,2.293,239.863,239.863,0,0,0,50.729-84.135,41.321,41.321,0,0,0,1.2-6.133c.038-.342.093-.814.1-1.253,0-.17-.047-.25-.131-.25-.263,0-.86.738-1.27,1.907m-56.055-18.625c2.911,3.1,8.213,4.226,13.2,4.544,1.657.1,2.632-1.243,1.5-2.449-2.8-3-8.2-3.442-13.337-4.134a3.158,3.158,0,0,0-.423-.03c-1.359,0-1.97.974-.941,2.069m34.746-19.6c-.951,3.426-2.2,7.336-1.687,10.729.253,1.625,1.418,1.549,1.645-.076.1-.77.188-1.557.293-2.323.229-1.631,1.284-1.859,1.509-.406s1.422.984,1.707-.634c.522-2.948.793-6.239-.469-8.342a1.291,1.291,0,0,0-1.119-.708,2.222,2.222,0,0,0-1.879,1.761m21.454-1.427a49.43,49.43,0,0,0-.3,6.749c.006,1.645,1.335,3.546,2.247,4.917,1.942,2.925,1,7.508-.243,11.218-.524,1.563-.674,2.819-.235,2.775s.973,1.573.908,3.212c-.042,1.053-.186,2.1-.279,3.132-.144,1.631.779,1.843,1.325.29.287-.814.538-1.665.817-2.487.372-1.081.732-1.309.787-.816q2.3-8.5,3.977-17.239a17.688,17.688,0,0,0-.833-5.031c-.522-1.559-2.375-2.893-3.74-2.667a1.951,1.951,0,0,1-2.525-2.049c.008-.782.018-1.569-.04-2.291-.063-.744-.409-1.087-.787-1.087-.453,0-.955.49-1.082,1.375M436.745,245.1a51.877,51.877,0,0,1-14.805,16.226,8.715,8.715,0,0,0-3.253,4.532c-.789,4-.823,8.746.394,12.312.528,1.557,2.609,2.191,4.27,2.177a15.333,15.333,0,0,1,6.067,1.475,2.812,2.812,0,0,0,3.722-1.667c2.007-4.782,5.806-9.991,6.514-16.46.121-1.115-.113-2.323,0-3.578.4-4.544,2.448-9.213,1.685-13.8a7.8,7.8,0,0,0-.933-2.565,1.067,1.067,0,0,0-.965-.55,3.8,3.8,0,0,0-2.7,1.9M454.4,234.445a5.019,5.019,0,0,0-.87,4.476,29.965,29.965,0,0,0,.983,2.925c.633,1.523,1.671,1.239,1.936-.38a22.008,22.008,0,0,0,.429-6.229c-.136-.96-.663-1.4-1.256-1.4a1.72,1.72,0,0,0-1.222.608m-135.909-.116a12.054,12.054,0,0,0-.1,6.465c.32,1.613,2.053,2.647,3.356,1.623a6.255,6.255,0,0,0,2.609-5.389,6.051,6.051,0,0,0-2.017-3.346,2.6,2.6,0,0,0-1.792-.716,2.112,2.112,0,0,0-2.061,1.363m125.159-32.659c.026.672.032,1.3.01,1.939a16.208,16.208,0,0,0,.892,5.625,13.69,13.69,0,0,0,1,2.161c.866,1.4,2.268.49,2.2-1.151-.152-3.71-.56-7.17-2.1-9.5a1.366,1.366,0,0,0-1.048-.744c-.556,0-.993.644-.955,1.675m-3.574-25.759c.006,1.159-.087,2.349-.022,3.408.1,1.643.963,1.377,1.034-.262a22.346,22.346,0,0,0-.018-3.6c-.091-.7-.289-1.021-.486-1.021-.257,0-.51.542-.508,1.473m4.768-31.982a28.371,28.371,0,0,0,1.21,3.416c.668,1.5,1.183,1.259.811-.346a19.465,19.465,0,0,0-1.088-3.574c-.285-.64-.583-.93-.793-.93-.285,0-.413.53-.14,1.435M83.391,126.7c-1.26.578-.562,3.11.991,2.527a2.713,2.713,0,0,0,.552-.284c1.2-.808.087-2.351-1.046-2.351a1.187,1.187,0,0,0-.5.108m359.028-6.521c2.32,4.752,4.539,9.957,3.491,15.9-.208,1.191-1.066,2.327-.961,3.57a4.431,4.431,0,0,0,1.05,2.293c.866,1.115,1.76.912,1.471-.388s.194-1.925,1.013-1.713,1.634-1.283,1.531-2.925c-.433-6.637-3.8-12.274-7.155-16.995-.447-.624-.728-.932-.831-.932s0,.4.39,1.193m-8.35-14.559a26.106,26.106,0,0,0,3.324,5.421c1.078,1.235,2.007.62,1.351-.852-.781-1.211-1.572-2.407-2.371-3.6-.479-.548-.967-1.077-1.489-1.585-.492-.474-.844-.7-1.034-.7-.271,0-.218.458.218,1.323M74.545,74.822a17.688,17.688,0,0,0-6.629,5.789c-1.017,1.3-.457,2.249,1.1,1.671,3.075-1.139,5.071-3.348,6.779-5.839.72-1.047.49-1.847-.35-1.847a2.23,2.23,0,0,0-.9.226M86.17,66.538c-1.592,1.073-3.332,2.057-4.426,3.584-1.03,1.437-1.513,3.462-2.411,5-2.274,3.92-5.452,6.371-8.087,9.507-1.066,1.265-.425,2.467,1.224,2.271a20.714,20.714,0,0,0,5.069-1.311,7.9,7.9,0,0,0,4.015-3.878c.787-2.117,1.258-4.282,2.353-6.589,1.454-3.05,4.2-5.265,5.091-7.58a3.016,3.016,0,0,0-.275-2.9c-.136,0-1.181.966-2.553,1.891M97.286,45.943c-2.6.6-4.392,2.509-5.895,4.3-1.058,1.263-.635,1.933.9,1.311a20.4,20.4,0,0,0,5.888-3.578c1.1-.956.819-2.1-.364-2.1a2.3,2.3,0,0,0-.532.066M344.295,26.61a22.373,22.373,0,0,0,2.664,1.451c1.525.656,1.736-.008.275-.788-.878-.47-1.774-.93-2.666-1.309a3.288,3.288,0,0,0-1.068-.312c-.388,0-.142.378.795.958m-96.024-1.515c-1.9.224-3.94.174-5.747.266-8.486.43-15.044,2.941-20.148,7.06a1.6,1.6,0,0,0,.6,2.982,13.248,13.248,0,0,0,2.616.488,3.254,3.254,0,0,0,3.372-2.293c.131-1.125,1.378-2.447,2.82-3.26a21.554,21.554,0,0,1,3.283-1.645c4.329-1.563,9.689-1.171,13.9-2.537,1.58-.512,2.737-1.481,2.6-1.661a.157.157,0,0,0-.119-.032c-.413,0-1.744.454-3.178.632M139.517,319.484a20.017,20.017,0,0,1-4.618-9.513c-.334-1.609.922-2.621,2.2-1.563,2.5,2.071,3.825,5.885,4.349,10.177.123,1.009-.225,1.587-.769,1.587a1.7,1.7,0,0,1-1.159-.688m-18.683-21.267a17.91,17.91,0,0,1-5.2-9.435c-.348-1.609.459-1.945,1.4-.588a59.3,59.3,0,0,1,4.869,9.217c.419.926.368,1.451-.01,1.451a1.9,1.9,0,0,1-1.06-.644m4.092-22.423c-.1-1.191-.036-2.369-.014-3.644.026-1.647,1.208-3.888,2.806-3.438a6.508,6.508,0,0,1,3.346,3.1c.874,1.4.115,2.893-1.254,3.826-.627.43-1.2.908-1.778,1.385a2.152,2.152,0,0,1-1.347.508,1.769,1.769,0,0,1-1.758-1.739M203.56,131.583c-1.117-.392-2.207-.8-3.281-1.233a3.555,3.555,0,0,1-1.851-4c1.236-7.9-8.34-14.533-4.762-22.171.653-1.4,1.972-2.105,3.4-2.821a3.428,3.428,0,0,1,4.266,1.015,44.425,44.425,0,0,0,6.2,6.505c1.236,1.1,1.784,3.266,1.918,4.9.435,5.165,5.613,9.987,3.469,14.207-.734,1.441-2.4,2.089-4.005,2.883a9.3,9.3,0,0,1-3.86.94,4.61,4.61,0,0,1-1.5-.222M365.925,81.72c.581-1.919,1.764-3.926,1.843-5.927.067-1.641.374-2.183,1.59-1.1a5.132,5.132,0,0,1,1.7,2.343c.617,2.617-1.022,4.438-2.864,5.871a2.111,2.111,0,0,1-1.27.494c-.779,0-1.315-.628-1-1.677M159.8,58.838a2.088,2.088,0,0,1,2.81-1.179c1.179.522.783,1.945-.773,2.4a3.528,3.528,0,0,1-.979.154c-.943,0-1.414-.534-1.058-1.375m12.256-2.217c-.125-.954.16-1.735.425-1.735s.419.694.419,1.549c0,.48-.229.78-.449.78-.172,0-.34-.18-.394-.594M266.67,39.6l-.024-.112c-.362-1.607.583-2.183,2.011-1.345q1.208.714,2.468,1.369c1.467.768,2.231,2.851.615,3.224a6.46,6.46,0,0,1-1.448.146h0c-1.659,0-3.257-1.679-3.617-3.282M306.4,24.811a10.039,10.039,0,0,1-5.263.68,11.8,11.8,0,0,0-5.079.686,26.9,26.9,0,0,1-4.626.69c-1.651.194-3.315,2.1-4.792,2.847a17.618,17.618,0,0,1-3.736,1.091c-1.62.37-1.94,1.827-.514,2.223s1.157,1.067-.5.952c-2.994-.2-5.977-1.011-9.032-1-4.145.008-8.237.618-11.573-.5-1.57-.526-3.7-.606-4.972.452-1.768,1.471-3.58,3.356-3.192,5.283A2.01,2.01,0,0,0,254.3,39.54c.9.488.111,1.061-1.525.79-4.766-.78-9.445-2.923-14.819-1.637-1.392.334-2.579,1.443-4.092,1.663a29.432,29.432,0,0,1-6.5-.076,37.338,37.338,0,0,0-6.024-.16c-5.1.448-9.647,3.268-13.237,2.861-1.647-.188-3.309-2.075-4.812-1.9a3.549,3.549,0,0,0-2.221,1.681c-.945,1.263-3.237,2-4.865,2.329-4.517.9-7.244,4.254-11.85,4.27-1.659,0-3.54.048-3.86.856a1.476,1.476,0,0,1-1.034,1.1c-2.8.882-6.779-2.909-4.812-5.235,1.284-1.525,4.388-1.125,7.6-.724,2.4.3,4.865.6,6.681.094,1.6-.446,1.361-2.719-.083-3.526-3.427-1.9-8.12-2.553-12.9-3.116-1.649-.19-3.645-1.655-5.191-2.269-3.322-1.321-9.133-.108-13.68.732-4.438.814-9.758,1.089-12.756,2.379-1.549.664-2.353,2.105-3.851,2.855-2.46,1.237-5.089,1.921-7.222,3.1-2.46,1.359-4.458,2.945-6.5,4.044-4.705,2.543-11.037,2.867-15.165,5.717-1.315.908-2.021,2.347-3.611,4.05-.912.98-3.427,2.765-3.37,4.28.085,2.293,3.5,1.5,6.073.664,1.574-.52,2.383.372,2.209,2a8.6,8.6,0,0,0,.1,2.673c.36,1.607,3.026,1.9,4.547,1.243a34.678,34.678,0,0,0,8.658-5.547,23.253,23.253,0,0,0,3.591-4.64c4.062-6.431,12.1-8.935,19.5-12.078,1.525-.644,3.143-.7,3.791-.21s-.413,1.525-1.94,2.181c-.744.32-1.481.65-2.249.954a21.305,21.305,0,0,0-4.984,2.972c-2.086,1.727-4.58,3.048-6.74,4.694-1.319,1.007-.926,2.415.732,2.517,4.3.266,8.771-1.273,12.835-1.309,1.659-.016,2.195,1.543.579,1.929-1.264.3-2.783.324-4.094.526-1.533.236-3.121.382-4.574.628-1.638.284-3.394,1.361-2.949,1.9s-.971,1.5-2.438,2.267a73.013,73.013,0,0,0-6.651,4.25c-2.7,1.845-6.309,4.836-9.627,5.241-1.359.17-2.68-.39-4.088-.474a32.843,32.843,0,0,0-5.033.244,40.843,40.843,0,0,1-4.493.27,2.1,2.1,0,0,1-1.928-3.058,33.246,33.246,0,0,1,1.45-3.026c.787-1.443.38-1.9-.955-.922-3.253,2.373-5.706,5.355-9.024,7.446-6.342,3.99-14.182,6.741-19.974,11.19A56.156,56.156,0,0,1,66.868,93.8c-1.5.712-2.723,2.229-2.266,3.232a4.12,4.12,0,0,1,.532,1.9c-.093,1.727-3.164,7.124-4.092,8.092-2.611,2.711-6,1.893-9.388,2.143-4.95.372-6.971,6.617-8.664,10-1.266,2.529-2.51,4.74-3.781,7.306-.73,1.473-.767,4.064.655,4.912a5.489,5.489,0,0,0,3.845.634c.975-.188,2.2-1.451,3.37-2.139,1.262-.736,2.941-1.227,3.851-1.9,2.177-1.619,3.4-4.458,4.7-6.675.835-1.423,2.994-3,4.365-3.922,6.2-4.17,11.037-10.279,20.665-10.475,1.661-.038,3.649,1.325,3.847,2.956.227,1.829.117,3.662,1.08,5.025a6.341,6.341,0,0,0,2.86,1.881c1.5.694,1.893,3.236,1.163,4.71a18.689,18.689,0,0,0-.878,1.917c-.574,1.545.88,2.553,2.037,1.379,1.321-1.349,2.12-3.218,3.245-4.754.975-1.335,1.151-2.919-.03-4.072-2.984-2.929-6.081-6.9-4.119-11.034a3.643,3.643,0,0,1,4.578-1.455c2.468,1.353,3.518,3.742,5.108,6.425,1.208,2.049,2.965,3.956,3.607,5.953,1.048,3.26.492,7.29,1.986,10.317a2.177,2.177,0,0,0,3.762.01c1.351-2.239,2.171-5,3.762-7A5.073,5.073,0,0,1,117.852,118c1.495.634,2.9,1.411,4.327,1.167a3.852,3.852,0,0,0,2.215-1.585,23.182,23.182,0,0,0,3.135-4.546c2.735-5.909,8.221-9.1,13.383-12.612,1.365-.932,3.829-1.4,5.391-1.955.825-.292,1.665-.7,2.557-1.047,1.549-.6,2.132.352.912,1.319s-.6,2.623.965,3.162l.546.2a5.621,5.621,0,0,0,4.97-.552l.117-.082c1.331-.986,1.784-2.623,1.177-3.2s0-1.115.888-.993,1.329,1.825,1.705,3.426c1.319,5.675,8.312,6.691,11.093,11.4a2.728,2.728,0,0,1-1.825,3.782,39.828,39.828,0,0,1-20.362-.628,10.388,10.388,0,0,0-5.63-.062c-3.028,1.025-6.811,2.161-9.447,3.036-2.672.878-4.157,1.1-5.387.446-1.463-.784-3.105-1.259-4.331-.148a6.081,6.081,0,0,0-2.075,3.27c-1.024,4.644,3.085,10.463,5.779,10.954,2.794.5,7.412-1.467,11.55-1.667,4.481-.224,9.263.1,9.388,3.806.044,1.335-1.424,3.562-2.168,5a23.79,23.79,0,0,1-2.887,4.524c-1.744,2.129-5.106,6.329-7.942,6.665a10.861,10.861,0,0,1-2.407-.474,40.023,40.023,0,0,0-8.761.334c-3.277.372-6.376.748-9.052.14-4.608-1.039-7.094-4.8-11.791-5.477-7.042-1.008-9.137,5.271-15.058,6.189a6.461,6.461,0,0,1-5.237-1.925,8.19,8.19,0,0,0-3.054-2.831c-3.9-1.829-11.144-1.669-11.312-6.191-.081-2.151,2.128-4.08,3.5-6.073.939-1.357-.279-2.729-1.938-2.8-5.409-.232-10.227-.978-15.046.054-3.392.734-6.386,2.969-9.59,4.108a26.105,26.105,0,0,0-5.405,2.339A12.857,12.857,0,0,1,38.9,139.6c-1.495.716-3.936,1.607-5.12,2.759a31.821,31.821,0,0,0-7.628,11.382,17.724,17.724,0,0,1-3.123,4.894c-6.121,6.409-11.273,15.946-14.217,26.73-1.58,5.8-2.118,12.827-3.37,19.048-.583,2.907-1.293,6.089-1.683,9.523-.386,3.388-1,7.58-.481,10.479.3,1.7,1.831,4.07,2.405,6.189.993,3.664.835,8.264,2.889,12.138,1.46,2.757,4.4,7.82,7.464,7.858,1.725.028,2.565-1.563,4.329-1.9a11.21,11.21,0,0,1,3.259-.024,9.294,9.294,0,0,0,5.545-1.551c1.539-1.183,2.941-2.5,5.069-3.1,1.6-.45,3.744.772,4.691,2.125,2.164,3.094,4.707,6.339,8.775,6.771,1.651.174,3.437,1.091,3.813,2.689a35.313,35.313,0,0,1,.862,10.473c-.142,2.067-1.169,4.292-.961,5.953.348,2.767,4.193,6.952,6.014,9.761C62,288.817,64.694,294.916,67.78,302.98c1.471,3.838,3.943,8.266,3.611,12.382-.19,2.355-1.586,4.592-1.687,6.91-.316,7.566,2.749,14.067,6.983,19.284,4.331,5.341,8.563,9.709,11.073,15.954,4.877,12.122,16.193,18.081,21.968,27.824a7.2,7.2,0,0,0,4.309,3.31c5.365.8,11.251-.278,16.484-1.147a8.009,8.009,0,0,0,4.592-2.971c1.875-2.683,3.932-5.143,5.6-8.927,2.049-4.652,1.6-10.687,3.849-14.521.657-1.119,2.739-2.111,3.131-3.334.858-2.683.144-6.884-.241-9.525a38.134,38.134,0,0,0-1.092-4.466,6.335,6.335,0,0,1,1.371-5.165,58.268,58.268,0,0,1,5.5-5.367c1.606-1.369,7.887-4.716,8.425-6.669.407-1.483-.552-5.843-.963-7.858-2.1-10.265-6.542-18.413-7.153-29.643a11.808,11.808,0,0,1,1.357-5.593c11.9-20.348,36.34-28.294,43.993-52.845a3.556,3.556,0,0,0-1.867-4.238c-6.619-2.365-15.4.992-22.975,1.229-1.665.054-3.322-1.409-4.056-2.883-3.269-6.519-10.687-9.049-14.354-15.312-1.683-2.873-2.436-6.507-4.335-9.523-1.786-2.837-4.369-5.275-5.771-8.332-2.1-4.57-2.984-9.709-4.816-14.525-1.444-3.788-3.305-7.406-4.412-11.38a2.367,2.367,0,0,1,1.639-3.162c1.256-.2,2.69,1.063,3.439,2.529,3.342,6.549,9.855,10.95,11.85,17.969,1.141,4.006.892,7.46,3.131,10.473,1.774,2.391,4.559,4.224,6.5,7.38,2.636,4.3,3.291,9.8,4.4,15.188a3.333,3.333,0,0,0,3.643,2.545c17.14-2.385,32.343-9.575,45.4-16.064,2.053-1.025,4.928-2.021,6.257-3.1,1.183-.954,2.029-2.923,3.129-4.286,2.68-3.316,5.977-6.705,7.735-10.745a3.531,3.531,0,0,0-1.721-4.238c-6.35-3.384-15.151-7.744-23.275-4.852a3.3,3.3,0,0,1-4.048-1.4c-2.624-4.444-6.576-7.57-9.969-11.25-1.121-1.217-.633-2.625.85-3.368.534-.268,1.054-.54,1.6-.8a4.944,4.944,0,0,1,5.108.97c2.043,2.233,3.714,5.159,6.633,6.163,2.116.726,4.511.516,6.738.952,3.168.614,6.024,2.809,9.147,3.81,10.278,3.282,21,2.375,32.131,2.175a10.573,10.573,0,0,1,5.466,1.685c8.273,5.983,15.386,13.113,24.3,18.463a8.607,8.607,0,0,1,3.374,4.362c3.934,13.631,11.423,23.744,16.278,36.463a3.827,3.827,0,0,0,3.993,2.423,32.946,32.946,0,0,0,4.533-1.241c1.572-.532,3.68-2.113,3.969-3.728.421-2.361-.182-4.983.069-7.746.388-4.284,2.144-8.278,2.717-12.27a7.328,7.328,0,0,1,2.717-4.554c9.936-6.825,15.416-18.063,29.849-20.44a8.76,8.76,0,0,1,5.506,1.273,35.6,35.6,0,0,1,13.954,18.141,3.634,3.634,0,0,0,3.839,2.457c.92-.156,1.819-.338,2.721-.512a3.438,3.438,0,0,1,3.89,2.305c2.488,9.425.637,21.925,3.886,29.551,1.976,4.636,6.137,8.642,6.113,14.669a2.319,2.319,0,0,1-3.212,2.1c-3.113-1.189-5.617-2.972-8.387-4.5-1.454-.8-2.425,0-1.762,1.5a61.385,61.385,0,0,0,4.357,7.418c5.7,9.189,8.6,21.173,16.417,28.15,1.234,1.1,3.647,1.309,4.754.08,3.467-3.86,3.619-11.484.918-16.16a13.514,13.514,0,0,1-1.8-5.287c-.212-4.334-1.78-7.23-2.957-11.07-1.1-3.584-1.228-7.238-2.65-10.007-1.236-2.415-3.7-4.022-5.535-5.945-3.785-3.99-6.2-11.676-3.708-17.455a4.377,4.377,0,0,1,4.527-2.235c6.358,1.571,7.246,8.556,11.368,12.334,1.216,1.117,3.1.4,4.351-.678,1.819-1.585,4.11-2.475,5.367-4.348,1.442-2.155,2.292-6.075,2.4-9.287.18-5.139-2.692-9.561-5.294-13.095-1.912-2.6-4.82-5.171-5.051-7.382-.19-1.749.5-3.784.987-5.641a5.166,5.166,0,0,1,3.319-3.574,2.526,2.526,0,0,1,3.03,2.655c-.071.946-.194,1.909-.257,2.879-.1,1.641,1.268,2.189,2.225.844,1.746-2.449,2.751-5.755,4.651-8.118,2.931-3.636,7.185-5.293,9.869-8.1,6.633-6.93,5.891-22.523,1.685-30.95-2.114-4.236-5.909-7.216-7.964-11.944a6.352,6.352,0,0,1-.012-4.506c.431-.974-1-2.369-2.369-3.3a15.95,15.95,0,0,1-3.969-3.914,2.02,2.02,0,0,1,1.3-3.342c4.46-.242,8.2,4.162,10.606,7.474a69.969,69.969,0,0,1,5.413,9c.75,1.465,2.363,1.685,2.781.09.926-3.524-2.316-6.783-4.1-10.039-2.2-4.02-4.244-7.5-5.148-12.292-.307-1.619.04-3.4.807-3.55s.813-2.153.463-3.762c-1.539-7.076-5.025-12.222-8.455-17.423-.908-1.373-.686-1.541.326-.244l.289.374c1.026,1.295,1.41.978.487-.388a74.481,74.481,0,0,0-9.956-11.6,7.519,7.519,0,0,0-3.839-1.919,6.906,6.906,0,0,1-3.661-2.4,76.1,76.1,0,0,1-5.4-8.286c-.617-1.045-.807-1.651-.579-1.629A240.5,240.5,0,0,0,354.63,30.858l-.154-.084c-1.473-.768-1.683-.462-.425.614l.473.41c1.24,1.1,1.495,1.961.795,2.129a4.385,4.385,0,0,1-3.212-.564,38.6,38.6,0,0,0-8.213-3.266c-1.6-.44-3.16-.08-2.733.53s-.829,1.153-2.45.786c-1.458-.332-2.792-.786-4.373-1-1.641-.218-4.284-.5-5.656-1.425-2.44-1.649-4.81-4-7.932-4.346a7.938,7.938,0,0,0-2.381.228,9.082,9.082,0,0,1-1.952.25,13.8,13.8,0,0,1-4.812-1.341,3,3,0,0,0-1.107-.194,11.256,11.256,0,0,0-4.1,1.221M166.244,20.084c-1.63.324-3.315,1.631-3.534,2.785s1.7,1.7,3.269,1.171a20.406,20.406,0,0,1,3.981-1.027c1.649-.206,3.443-.116,3.647.246s1.278.324,1.96-.652,2.842-1.451,4.5-1.607a11.422,11.422,0,0,0,1.715-.286c1.606-.418,1.153-1.543-.51-1.543-.287,0-.574,0-.862,0a75.762,75.762,0,0,0-14.164.914m121.82-2.047c-.791.5-.138,1.939,1.467,2.367a52.459,52.459,0,0,0,6.669.908c2.713.334,5.621,1.459,8.154,1.529,1.661.056,2.055-1.545.572-1.783-.945-.15-1.946-.138-2.711-.222-4.27-.464-9.176-2.615-12.515-3.1a3.479,3.479,0,0,0-.459-.034,2.067,2.067,0,0,0-1.177.332m-56.472-.49c-.864.1-.522.694-.083,1.1s.979.116,1.414-.13c.407-.234-.366-.985-1.179-.985a1.288,1.288,0,0,0-.152.01m-74.94-3.562a282.2,282.2,0,0,0-28.933,12.206,241.02,241.02,0,0,0-28.7,17.325c-.144.27.488.108,1.533-.6,7.687-5.267,16.521-9.633,25.235-14.221,4.533-2.383,9.451-5.4,14.443-7.38,3.92-1.557,8.619-2.609,12.275-4.282.459-.214,1.05-.466,1.558-.738.837-.45.916-1.087.7-1a7.058,7.058,0,0,1,2.247-1.145c.846-.294,1.115-.494.876-.494a4.9,4.9,0,0,0-1.23.33m6.3-2.213c-.878.254-.5.376.291.176.542-.138.617-.286.33-.286a2.484,2.484,0,0,0-.621.11M236.854,0a240.74,240.74,0,0,0-54.01,6.109c-3.566.858-7.039,1.809-10.389,2.851-1.584.5-2.237.894-1.517.63s.443.064-.415.586-2.189,1.231-3.022,1.673.538.936,2.175.65c12.78-2.209,26.291-6.3,40.117-7.614a60.85,60.85,0,0,1,6.344-.142,44.352,44.352,0,0,0,9.542-.572c2.332-.5,4.57-1.739,6.738-1.665a25,25,0,0,1,2.65.71,9.157,9.157,0,0,0,1.723.01,10.5,10.5,0,0,1,1.645-.01c1.6.162,3.162.894,4.572.954a42.318,42.318,0,0,0,5.429-.234,43.731,43.731,0,0,1,5.405-.244c6.673.252,13.788,2.219,20.938,3.332,6.9,1.081,13.772,2.821,20.455,3.814a20.981,20.981,0,0,0,3.35.144,23.124,23.124,0,0,1,2.911.09c6.285.748,14.538,4.006,20.888,5.577,1.612.4,3.411.554,3.2.332l-.077-.066A239.309,239.309,0,0,0,236.854,0Z" transform="translate(-3.078)" fill="none"/>
    </clipPath>
    <radialGradient id="radial-gradient-3" cx="0.526" cy="0.296" r="0.548" gradientUnits="objectBoundingBox">
      <stop offset="0" stop-color="#fff"/>
      <stop offset="1" stop-color="#888"/>
    </radialGradient>
  </defs>
  <g id="base">
    <g id="그룹_2967" data-name="그룹 2967" clip-path="url(#clip-path)">
      <path id="패스_9371" data-name="패스 9371" d="M.537.536,679.19,4.21l3.674,678.435L4.211,678.971Z" transform="translate(-242.949 225.744) rotate(-43.3)" fill="url(#radial-gradient)"/>
    </g>
  </g>
  <g id="그룹_2969" data-name="그룹 2969" transform="translate(6.032 2.261)">
    <g id="그룹_2968" data-name="그룹 2968" clip-path="url(#clip-path-2)">
      <path id="패스_9373" data-name="패스 9373" d="M.493.49,621.418,3.844,624.79,627.5,3.865,624.147Z" transform="translate(-235.621 212.999) rotate(-42.572)" fill="url(#radial-gradient-2)"/>
    </g>
  </g>
  <g id="그룹_2971" data-name="그룹 2971" transform="translate(6.227)">
    <g id="그룹_2970" data-name="그룹 2970" clip-path="url(#clip-path-3)">
      <path id="패스_9375" data-name="패스 9375" d="M.531.531,671.755,4.163l3.636,671.444L4.168,671.975Z" transform="matrix(0.728, -0.685, 0.685, 0.728, -243.23, 225.279)" fill="url(#radial-gradient-3)"/>
    </g>
  </g>
</svg>
