<svg id="img_logo_m" data-name="img/logo/m" xmlns="http://www.w3.org/2000/svg" width="90" height="36" viewBox="0 0 90 36">
  <g id="T">
    <path id="right" d="M0,27V9L9,0h9V9H9V27Z" transform="translate(8.999 0)" fill="#fff"/>
    <rect id="left" width="9" height="9" fill="#fff"/>
  </g>
  <g id="J" transform="translate(18 9)">
    <path id="path" d="M168.569,75.285h-9v18h-9v8.839a15.756,15.756,0,0,0,18-15.582Z" transform="translate(-150.569 -75.285)" fill="#fff"/>
  </g>
  <g id="txt" transform="translate(42.231 8.999)">
    <g id="그룹_3005" data-name="그룹 3005" transform="translate(0)">
      <path id="패스_9415" data-name="패스 9415" d="M56.008,11.855H63.6V13.43H60.755v7.624H58.849V13.43H56.008Z" transform="translate(-56.008 -11.855)" fill="#fff"/>
      <path id="패스_9416" data-name="패스 9416" d="M65.367,21.054l3.212-9.2h2.47l3.2,9.2h-2.06l-.7-2.123H68.137l-.7,2.123ZM71,17.445l-1.158-3.52h-.065l-1.158,3.52Z" transform="translate(-58.253 -11.855)" fill="#fff"/>
      <path id="패스_9417" data-name="패스 9417" d="M78.429,11.855h6.219V13.43h-4.3v2.237h3.979v1.575H80.349v2.237h4.312v1.575H78.429Z" transform="translate(-61.386 -11.855)" fill="#fff"/>
      <path id="패스_9418" data-name="패스 9418" d="M94.022,11.855v6.417a2.85,2.85,0,0,1-3.135,2.909c-1.676,0-2.987-.876-2.981-2.693h1.919a1.077,1.077,0,0,0,1.152,1.156c.736,0,1.139-.47,1.139-1.372V11.855Z" transform="translate(-63.659 -11.855)" fill="#fff"/>
      <path id="패스_9419" data-name="패스 9419" d="M97.316,21.054l3.212-9.2H103l3.2,9.2h-2.06l-.7-2.123h-3.353l-.7,2.123Zm5.637-3.609-1.158-3.52h-.065l-1.158,3.52Z" transform="translate(-65.916 -11.855)" fill="#fff"/>
      <path id="패스_9420" data-name="패스 9420" d="M110.378,11.855H116.6V13.43h-4.3v2.237h3.979v1.575H112.3v2.237h4.312v1.575h-6.232Z" transform="translate(-69.048 -11.855)" fill="#fff"/>
      <path id="패스_9421" data-name="패스 9421" d="M61.535,31.7a1.169,1.169,0,0,1-2.335,0V28.133H58.024v3.658a2.368,2.368,0,0,0,4.695,0V28.133H61.535Z" transform="translate(-56.492 -15.846)" fill="#fff"/>
      <path id="패스_9422" data-name="패스 9422" d="M69.254,31.713H69.2l-2.477-3.58H65.688v5.635h1.175v-3.58h.047l2.493,3.58h1.019V28.132H69.254Z" transform="translate(-58.33 -15.845)" fill="#fff"/>
      <rect id="사각형_2299" data-name="사각형 2299" width="1.176" height="5.635" transform="translate(13.223 12.287)" fill="#fff"/>
      <path id="패스_9423" data-name="패스 9423" d="M78.417,32.429h-.055l-1.38-4.3H75.666l1.967,5.634h1.513L81.1,28.133H79.8Z" transform="translate(-60.723 -15.846)" fill="#fff"/>
      <path id="패스_9424" data-name="패스 9424" d="M84.713,31.432H87.15v-.965H84.713V29.1h2.633v-.965H83.537v5.635h3.818V32.8H84.713Z" transform="translate(-62.611 -15.845)" fill="#fff"/>
      <path id="패스_9425" data-name="패스 9425" d="M94.229,29.97a1.79,1.79,0,0,0-2.03-1.837H89.974v5.635h1.175v-2h.9l1.086,2h1.3l-1.207-2.191a1.627,1.627,0,0,0,1-1.607m-2.249.848h-.831V29.09h.831c.7,0,1.038.312,1.035.879s-.337.848-1.035.848" transform="translate(-64.155 -15.846)" fill="#fff"/>
      <path id="패스_9426" data-name="패스 9426" d="M99.211,30.481l-.509-.125c-.49-.109-.913-.292-.909-.7,0-.374.337-.646.933-.646.576,0,.933.261.98.709h1.128c-.015-1-.842-1.689-2.1-1.689-1.242,0-2.151.681-2.147,1.7,0,.825.588,1.3,1.544,1.533l.62.148c.619.152.971.331.971.716,0,.42-.4.708-1.019.708s-1.082-.288-1.121-.856H96.436c.036,1.21.909,1.84,2.28,1.837s2.191-.657,2.195-1.689c0-.938-.729-1.428-1.7-1.65" transform="translate(-65.705 -15.82)" fill="#fff"/>
      <rect id="사각형_2300" data-name="사각형 2300" width="1.176" height="5.635" transform="translate(36.061 12.287)" fill="#fff"/>
      <path id="패스_9427" data-name="패스 9427" d="M114.394,28.133l-1.3,2.428h-.055l-1.308-2.428h-5.935V29.1h1.74v4.67H108.7V29.1h1.74v-.9l2.032,3.561v2.008h1.176V31.76l2.068-3.627Z" transform="translate(-67.949 -15.846)" fill="#fff"/>
    </g>
  </g>
</svg>
