<svg id="earth_newyork" data-name="earth/newyork" xmlns="http://www.w3.org/2000/svg" xmlns:xlink="http://www.w3.org/1999/xlink" width="480" height="480" viewBox="0 0 480 480">
  <defs>
    <clipPath id="clip-path">
      <path id="패스_9390" data-name="패스 9390" d="M240.006,0C107.455,0,0,107.453,0,240S107.455,480,240.006,480,480,372.549,480,240,372.555,0,240.006,0Z" fill="none"/>
    </clipPath>
    <radialGradient id="radial-gradient" cx="0.529" cy="0.299" r="0.551" gradientUnits="objectBoundingBox">
      <stop offset="0" stop-color="#fff"/>
      <stop offset="1" stop-color="#f1f1f1"/>
    </radialGradient>
    <clipPath id="clip-path-2">
      <path id="패스_9392" data-name="패스 9392" d="M308.457,463.258c-1.665.274-3.338.828-5.1.954-1.659.124-2.749-.234-2.529-.38s-1.08-.4-2.729-.178c-2.593.36-5.2,1.041-7.442.806-1.653-.17-4.023-.438-5.547.218-3.667,1.567-7.456,3.028-10.964,4.76-1.487.734-2,2.109-2.614,2.679s.338,1,1.99.818a143.306,143.306,0,0,0,35.127-8.62c1.325-.5,1.442-1.115.425-1.115a3.979,3.979,0,0,0-.617.056m-164.281-2.972-.047-.024Zm49.539-1.5a12.732,12.732,0,0,1-2.729.092,20.745,20.745,0,0,0-3.016.058c-2.9.338-5.233,1.231-7.458.952-2.1-.262-3.912-1.559-5.539-1.193-.959.166-.842,1.393-1.926,1.429-4.958.43-8.275-.772-11.963-1.6a8.76,8.76,0,0,0-3.241.2,12.939,12.939,0,0,1-2.34.286c-.283,0-.579-.016-.876-.038-1.659-.1-3.572.89-4.843.91s-1.547.452-.744.842.1.394-1.56.264l-.146-.02a11.818,11.818,0,0,1-3.16-.68,21.638,21.638,0,0,0,2.535,1.2,253.586,253.586,0,0,0,32.837,10.075,64.776,64.776,0,0,0,11.728,1.853c1.665.022,2.417-.332,2.539-.66s.924-.578,1.5-.392,1.094-.29.714-.588,1.234-.738,2.872-1.027c2.976-.518,6.008-1.465,8.811-1.807,7.891-.961,15.823,1.129,23.706,1.419,1.661.056,3.287-.594,3.265-1.4s1.266-1.967,2.929-1.973c2.128-.018,4.236.6,6.2.76a14.942,14.942,0,0,0,2.844-.11,15.68,15.68,0,0,1,2.694-.126c1.865.124,3.564,1.5,5.294,1.665a14.689,14.689,0,0,0,5.725-1.045c1.594-.48,3.845-.02,5.112-.006s2.314-1.065,1.942-1.073.146-.454.933-.764,1.6-.794,1.272-.92c-.251-.09-.528-.1-.065-.242a48.647,48.647,0,0,1,5.781-1.665,1.9,1.9,0,0,1,1.252.424c.631.392,1.424-1.379.421-1.765a47.544,47.544,0,0,1-4.527-1.8,14.747,14.747,0,0,0-3.645-1.383c-5.9-1.231-9.52,2.055-14.443,2.379-1.479.1-3.04.078-4.626.056a47.947,47.947,0,0,0-6.2.184c-4.618.55-8.771,2.559-12.034,2.383-2.836-.154-5.785-2.185-8.909-2.859-3.35-.724-7.052-2.217-9.629-2.143-1.242.038-2.373.922-3.609,1.189-3.969.866-7.624-.354-11.039-1.979a2.577,2.577,0,0,0-1.127-.248c-1.135,0-2.294.636-3.514.888M70.822,408.54a25.563,25.563,0,0,0,2.915,2.4c1.349.956,1.689.542.858-.88a9.441,9.441,0,0,0-2.864-3.566,1.413,1.413,0,0,0-.7-.218c-.916,0-1.183,1.333-.206,2.265M413.01,352.472q-.85.48-1.7.97a16.57,16.57,0,0,0-4.329,3.906c-7.313,10.141-16.632,18.3-25.71,26.7-1.214,1.121-.86,2.245.8,2.381a24.289,24.289,0,0,0,4.95-.044c1.649-.21,3.629-1.891,4.62-3.21,7.5-10.055,17.663-17.475,23.319-29.359a7.473,7.473,0,0,0,.949-2.733,17.714,17.714,0,0,0-2.9,1.393m-82.831-37.481c-2.049,2.693-4.284,6.693-4.046,9.665.142,1.741,1.521,3.348,1.924,5.235,1.649,7.738.579,17.493,2.462,25.023a3.148,3.148,0,0,0,3.837,2.175c1.351-.42,2.583-.966,3.853-1.465a6.846,6.846,0,0,0,3.732-3.818c1.956-6.509,3.611-13.863,2.895-21.347a6.787,6.787,0,0,0-3.042-4.394,19.245,19.245,0,0,1-8.411-10.439,19.553,19.553,0,0,0-.991-2.879,9.519,9.519,0,0,0-2.213,2.245M35.1,309.934a3.96,3.96,0,0,0-3.016,3.86c.439,3.38,2.518,6.872,2.32,9.193A4.141,4.141,0,0,1,33.1,325.43a2.95,2.95,0,0,1-3.718.736,5.849,5.849,0,0,1-2.189-1.511c-2.181-2.781-3.564-9.433-5.3-13.591-.637-1.519-2.045-1.389-2.294.236a38.743,38.743,0,0,0,.131,8.588c.583,6.884,4.058,13.643,4.576,20.48.083,1.067-.129,2.909,0,4.044,1.133,10.013,8.449,22.189,13.964,29.525a154.6,154.6,0,0,0,15.161,17.379c1.857,1.837,3.374,4.188,5.3,5.713a8.527,8.527,0,0,0,7.319,2.033A2.8,2.8,0,0,0,67.8,395.2c-.916-1.9-2.015-3.824-1.788-5.521.225-1.631,1.616-3.74,1.612-5.383-.006-.65-.006-1.289.008-1.917.038-1.647,1.179-4.058,2.8-4.358a11.05,11.05,0,0,1,2.978-.04,30.172,30.172,0,0,1,9.386,2.623c2.917,1.417,5.448,4.432,8.664,4.762a11.185,11.185,0,0,0,2.678-.13,8.8,8.8,0,0,1,2.616-.106c2.166.348,3.631,1.675,5.411,2.7a6.108,6.108,0,0,0,5.448-.246l.38-.248a3.154,3.154,0,0,0,.463-4.372c-2.446-3.3-4.651-6.639-4.717-11.884-.045-3.108.643-5.893.239-8.57-2.039-13.477-12-19.422-24.99-22.66A9.38,9.38,0,0,1,74.4,336.69c-3.609-4.928-9.085-9.819-13.992-13.7-1.547-1.229-4.46-4.256-6.257-4.524a6.325,6.325,0,0,0-2.8.392,3.7,3.7,0,0,1-4.189-1.811c-.716-1.457-1.363-2.98-2.045-4.478a5.58,5.58,0,0,0-4.315-2.9c-.637-.032-1.264-.052-1.883-.052a20.258,20.258,0,0,0-3.811.32M108.21,290.3c-6.777.788-14.16.972-18.234,4.442-1.254,1.071-.546,2.289,1.115,2.227,6.532-.238,14.087-1.215,18.193-4.794,1.141-.993.682-1.9-.668-1.9a3.261,3.261,0,0,0-.407.026M61.563,271.1c-2.134,1.965-2.346,5.861-1.938,9.193.2,1.629,1.657,2.1,2.274.578l.14-.346c.6-1.535,1.966-1.279,2.086.356.069.916.1,1.873.214,2.739.214,1.633,1.918,1.573,2.284-.03.767-3.41-.344-7.518-1.434-10.876a2.927,2.927,0,0,0-2.506-2.057,1.614,1.614,0,0,0-1.119.442m-32.187-.754a17.28,17.28,0,0,0-.777,3.4c-.293,1.617-2.211,2.391-3.825,1.991a12.712,12.712,0,0,0-4.808-.37c-6,.742-11.645,7.5-11.791,14.045-.03,1.475.617,3.022.718,4.522.182,2.469-.1,4.973-.024,7.516.04,1.641,1.768,2.573,2.423,1.063a11.911,11.911,0,0,0,.676-2.8c.249-1.621,1.529-2.009,2.537-.7a20.759,20.759,0,0,1,2.516,4.268c.661,1.507,2.168,1.969,2.737.428.918-2.477,1.07-5.845,3.277-6.733,1.535-.618,3.028-1.371,2.142-2.759-1-1.575-2.569-2.827-2.561-4.806.01-2.573,2.806-5.849,5.822-7.426,1.471-.766,3.1-2.215,3.394-3.836a23.487,23.487,0,0,0,.439-6.817,1.993,1.993,0,0,0-1.8-1.775,1.15,1.15,0,0,0-1.09.788M68.229,242.49c-2.363,4.726,1.179,10.447,1.321,16.444.125,5.109,1.782,8.694,3.854,12.62,1.236,2.355,2.508,4.5,3.613,6.435a3.768,3.768,0,0,0,4.286,1.663A25.05,25.05,0,0,1,90.652,278c1.657.094,4.029-.422,4.806-1.871,1.73-3.262,2.156-8.25,1.363-12.424a7.75,7.75,0,0,0-3.4-4.364c-6.117-3.6-11.886-7.622-16.654-13.025-1.123-1.277-2.5-3.65-4.058-5.065a2.13,2.13,0,0,0-1.45-.5,3.569,3.569,0,0,0-3.034,1.737m269.117-7.734c-.411.06-.819.126-1.234.182-1.647.22-2.642,1.485-1.922,2.966,1.657,3.448,4.28,6.5,6.386,9.133.4.508.765,1.2,1.169,1.777.674.964,1.784-.258,1.709-1.9a31.848,31.848,0,0,0-2.015-9.735,4.027,4.027,0,0,0-3.621-2.461,3.1,3.1,0,0,0-.473.036m-292.264-1.8a18.55,18.55,0,0,0,.518,6.219c.38,1.6,1.8,1.911,2.719.538a23.648,23.648,0,0,0,1.792-3.266,3.866,3.866,0,0,0-1.341-4.412l-.316-.252a2.32,2.32,0,0,0-1.444-.516,1.881,1.881,0,0,0-1.928,1.689m162.624-1.483a5.582,5.582,0,0,0-2.164,3.656c-.075,1.871,1.242,3.794,3.032,5.017a2.273,2.273,0,0,0,3.386-1.739c.49-2.5.674-4.784-.218-6.693a1.969,1.969,0,0,0-1.881-1.107,3.223,3.223,0,0,0-2.154.866M60.218,198.118a14.228,14.228,0,0,0-1.094,1.645,11.5,11.5,0,0,0-1.521,5.483c.04,1,.1,1.941.17,2.867.119,1.643,1.513,2.425,2.611,1.2A13.556,13.556,0,0,0,62.19,206.6c.771-1.447.813-3.906.666-5.545-.051-.58-.077-1.177-.1-1.765-.038-1.083-.682-1.807-1.41-1.807a1.471,1.471,0,0,0-1.133.638m3.241-24.823a19.873,19.873,0,0,0,.5,3.4c.3,1.613,1.519,2.027,1.458.378a29.958,29.958,0,0,0-.5-3.286c-.261-1.623.02-3.106-.129-3.168l-.016,0a3.108,3.108,0,0,0-1.319,2.675M288.8,153.917c-1.507.7-3.833,1.363-5.286,1.053-.894-.19-1.742-.4-2.638-.556-1.723-.3-4.088-1.079-5.53-.954-1.6.14-3.852,1.8-5.534,2.619-1.011.488-1.956,1.009-2.931,1.447A4.956,4.956,0,0,0,264,161.433c-.358,4.81-2.114,8.232-3.079,12.43-.37,1.6.87,2.647,2.148,1.6,2.175-1.771,4.009-4.686,6.738-5.335a20.76,20.76,0,0,1,7.108.1,33.225,33.225,0,0,0,4.205.374c7.454-.042,16.891-.46,22.86-2.615,2.939-1.065,5.191-3.184,8.186-3.812,1.179-.248,2.264-.322,3.342-.476a2.381,2.381,0,0,0,1.768-3.46c-.876-1.821-1.966-3.722-2.988-5.573a7.278,7.278,0,0,0-4.323-3.332,33.707,33.707,0,0,0-6.05-.526,37.3,37.3,0,0,0-15.121,3.11M48.87,140.732a16.833,16.833,0,0,0-.769,3.838c-.2,1.631.647,2.059,1.2.506a28.97,28.97,0,0,0,.835-3.3c.233-1.041-.117-1.817-.554-1.817-.239,0-.5.23-.714.772m368.244-14.539c.819,1.049,2.777-.562,1.7-1.5a1.171,1.171,0,0,0-.775-.308,1.133,1.133,0,0,0-.922,1.809m-375.789-8.6c-3.228,4.306-6.052,11.58-4.082,16.879a5.021,5.021,0,0,0,4.481,2.787l.121-.006c1.653-.174,3.182.44,3.15,1.891s1.628,1.3,2.484.262.1-3-.993-4.242a29.769,29.769,0,0,1-5-8.2,8.607,8.607,0,0,1,.138-5.511c.376-1.011.71-2.055,1.07-3.078a11.978,11.978,0,0,0,.912-2.986l-.018,0a7.6,7.6,0,0,0-2.266,2.209m278.5,62.612a6.185,6.185,0,0,1,4.254-1.085c8.441.736,15.645,3.292,19.931,7.722,1.145,1.193.516,2.2-1.09,1.765-7.329-1.959-11.765-7.336-20.775-7.086l-.154,0c-1.588,0-2.842-.644-2.166-1.319m20.111-2.083-.049-.018c-1.6-.422-3.619-1.269-4.214-2.8-.386-.98-.738-1.991-1.173-2.931-.69-1.5-.093-2.857,1.23-1.863,1.774,1.331,2.3,4.31,4.044,5.921,1.013.942,1.57,1.791.777,1.791a2.515,2.515,0,0,1-.615-.1m4.25-65.851c-1.147.028-3.591,1.623-4.574,2.621-3.305,3.356-4,9.877-3.046,15.662a4.967,4.967,0,0,1-1.819,4.616c-1.663,1.147-3.518,2.451-5.482,4-1.408,1.113-6.965,4.6-7.464,6.193-.918,2.919.105,5.905.854,8.75.421,1.591,1.44,2.773,2.053,2s2.674-.48,4.175.222l1.076.516a2.232,2.232,0,0,1,.686,3.6c-2.069,2.693-3.637,5.875-5.793,8.486a19.422,19.422,0,0,0-2.571,3.81c-.35.89-2.069.634-3.625.054-7.141-2.655-15.813,1.5-21.351,5.131a3.637,3.637,0,0,0-1.092,4.336c.5,1.375,1.009,2.745,2.241,3.094a3.2,3.2,0,0,0,1.926-.274c1.036-.326,1.715,1.367,1.806,3.006a9.109,9.109,0,0,0,2.286,5.6c2.575,3.216,4.335,4.168,8.18,6.191,12.477,6.541,27.092,13.693,42.516,16.234a2.99,2.99,0,0,0,3.423-2.509c.8-5.471,1.55-11,3.455-15.376a3.279,3.279,0,0,0-1.276-3.978l-.3-.264c-1.181-1.155.229-2.845,1.877-2.635.287.036.564.084.833.134,1.636.31,4.07-.038,4.735-1.543,1.2-2.7.825-6.453,1.539-9.829,1.469-6.946,6.416-11.292,8.767-17.383.595-1.539,1.665-2.715,2.66-2.581s1.768,1.537,1.529,3.168c-.736,5-2.638,9.689-3.568,14.417-1.216,6.189-2.009,11.628-5.055,16.911-2.561,4.428-3.769,10.775-6.74,15-3.451,4.894-8.484,7.672-10.834,12.662-.7,1.489-2.308,2.974-3.963,2.885-6.651-.35-14.645-3.542-20.236-1.2-1.535.642-2.29,2.93-1.817,4.5.237.766.492,1.509.773,2.225a4.006,4.006,0,0,0,4.143,2.255c4.515-.612,8.186-.558,11.957-1.657,8.241-2.415,10.879-10.463,23.344-9.049,4.036.458,5.53,3.354,8.429,4.524,2.312.932,5.314.722,8.377.514,3.445-.236,6.969-.472,9.673.914,1.345.69,2.433,2.745,3.611,4.044,1.264,1.393,2.684,2.613,3.856,3.812,2.065,2.133,5.2,7.07,7.695,7.86a13.594,13.594,0,0,0,4.224.5,8.559,8.559,0,0,1,5.2,2.245c4.782,4.989,7.572,11.948,10.082,19.192.536,1.559,2.342,3.072,3.684,4.038,3.012,2.179,4.112,6.249,7.818,7.746,1.541.618,3.417-.686,4.284-2.091,1.121-1.815,2.435-3.636,2.743-5.917.239-1.763-.469-3.826-.479-5.715a52.557,52.557,0,0,1,1.034-10.665c.316-1.615,2.075-2.475,3.613-3.086,1.641-.642,2.438-2.273,3.3-4.106.783-1.677,1.309-4.472,2.4-4.764,1.73-.452,2.632,1.137,3.491,2.669.8,1.435,3.253,1.9,4.57,2.785a2.019,2.019,0,0,0,3.279-1.117c.091-.33.164-.684.239-1.021.071-2.327.109-4.668.109-7.01a239.394,239.394,0,0,0-15.9-86.048c-2.059-4.913-3.864-10.455-7.1-13.829a30.431,30.431,0,0,0-6.014-4.524c-1.74-1.059-4.531-3.386-5.779-3.81-2.585-.872-5.433-.376-8.077-.022-1.645.224-2.551,1.527-1.73,2.958.71,1.259,1.523,2.425,2.251,3.67.829,1.429,1.479,4.208.37,5.427-1.539,1.677-4.566,2.143-6.05,3.446-1.282,1.117-1.669,4.11-3.372,4.524-4.6,1.115-7.59-5.655-12.275-6.189-4.187-.48-6.635,4.464-10.353,5.471-2.879.782-5.334.34-7.828-.1a21.83,21.83,0,0,0-5.836-.48c-1.653.142-4.1-.106-5.383-1.153a32.558,32.558,0,0,1-5.261-5.641c-1.723-2.285-5.585-6.966-5.053-10,.793-4.538,9.149-2.4,14.358-1.381,1.626.316,4.127-.37,4.9-1.825,1.936-3.628,1.153-9.2-1.448-12.194-1.086-1.245-2.753-.989-3.212-.072s-2.593.658-4.147.072c-2.9-1.1-5.935-2.083-9.012-3.02a10.686,10.686,0,0,0-5.642.306,29.753,29.753,0,0,1-14.085.97c-1.887-.344-3.9-1.907-5.7-1.907l-.081,0m-19.173-5.937c.049,1.227.965,1.035,1.038-.022a4.916,4.916,0,0,0-.154-1.9l-.19-.214-.014,0a2.693,2.693,0,0,0-.68,2.139m24.1-2.571c-1.092,1.007-.172,1.513.939.51.69-.622.581-1.055.142-1.055a1.757,1.757,0,0,0-1.08.544M47.5,102.643c-2.057,1.1-4.333,2.257-4.952,4.116-.522,1.563,1.764,3.288,3.2,2.467,1.732-.993,2.628-3.268,3.324-5.337.354-1.063.178-1.617-.435-1.617a2.623,2.623,0,0,0-1.139.37m244.871-3.376c-1.556.578-2.039,3.118-1.926,4.756.065.962.1,1.955.16,2.917a3.619,3.619,0,0,0,3.378,3.216q.6,0,1.222-.02c1.663-.04,3.645-1.231,3.769-2.869.309-4.068-2.292-8.226-5.367-8.226a3.541,3.541,0,0,0-1.236.226m11.035,1.147a14.7,14.7,0,0,0,4.4,5.779,3.321,3.321,0,0,0,4.42.016c.251-.24.5-.484.728-.742,1.123-1.215.755-3.494-.261-4.8l-.206-.268a7.93,7.93,0,0,0-4.752-2.541c-.653-.088-1.283-.2-1.942-.278a2.281,2.281,0,0,0-.305-.02,2.131,2.131,0,0,0-2.077,2.851m-23.975-8.046a1.933,1.933,0,0,0,.492,3.45A33.145,33.145,0,0,0,296.957,97.9c1.643-.246,2.6-1.977,1.523-3.226-2.371-2.737-6.979-4.254-11.4-4.254a14.293,14.293,0,0,0-7.65,1.949M167.609,88.614a6.926,6.926,0,0,0,.872,1.183,3.131,3.131,0,0,0,3.959.3c.983-.68.1-2.183-1.39-2.9-.51-.246-1.026-.482-1.58-.686a2.106,2.106,0,0,0-.748-.144,1.373,1.373,0,0,0-1.113,2.251m237.469-15.25a78.172,78.172,0,0,0,6.876,6.956c1.125,1.011,1.473.854.773-.2-1.992-2.289-4.027-4.528-6.1-6.743-.3-.25-.613-.49-.924-.722a2.267,2.267,0,0,0-1.066-.538c-.34,0-.233.466.447,1.245m-10.565-8.738c2.092,3.044,4.853,5.123,7.2,8.358,3.3,4.56,5.134,9.493,10.1,11.574,1.535.638,2.239-.362,1.222-1.665-1.7-2.155-3.744-4.034-5.551-6.1-3.977-4.55-7.442-9.341-12.014-13.009a2.075,2.075,0,0,0-1.1-.546c-.431,0-.457.52.14,1.385M73.535,57.078q-8.778,7.7-16.781,16.208c-1.169,1.383-2.3,2.785-3.33,4.22-.346.484-.894,1.033-1.295,1.631-.641.95.534.976,1.671-.228,6.435-6.815,13.031-14.135,19.051-20.843.6-.662.823-1,.716-1a.076.076,0,0,0-.032.008m140.826-5.743c-.724.524-.146,1.343.326,1.649s1.06-.294,1.177-.944a.849.849,0,0,0-.9-.91,1.026,1.026,0,0,0-.607.206m151.553-1.021c1.315,1.883,2.895,3.628,4.157,5.361.971,1.335.3,2.039-1.226,1.4-.666-.282-1.345-.552-2.007-.786-1.564-.548-2.049.332-.945,1.559,3.556,3.952,7.418,7.6,12.564,9.971,1.509.7,3.41-.212,2.955-1.791a10.575,10.575,0,0,0-1.121-2.345c-.846-1.415-.239-2.027,1.268-1.341l.415.176c1.535.612,2.346-1.245,1.384-2.585a31.866,31.866,0,0,0-6.681-6.475c-2.735-2.069-6.192-3.172-9.526-4.508a2.831,2.831,0,0,0-1.013-.238c-.75,0-.916.6-.225,1.6M186.632,42.528a1.772,1.772,0,0,0,.348,3.306,17.662,17.662,0,0,0,8.783.35c1.622-.364,2.872-1.609,2.682-2.249a4.112,4.112,0,0,0-3.008-2.019,19.615,19.615,0,0,0-3.595-.334,12.939,12.939,0,0,0-5.211.946m67.122-5.275c-.755.128-.609.772.255.79s1.2-.566,1.137-.722c-.034-.09-.257-.142-.593-.142a5,5,0,0,0-.8.074m11.221.252a49.688,49.688,0,0,0,6.981,1.859c1.614.374,3.182.254,3.5-.39s-1.189-.878-2.848-.874a27.368,27.368,0,0,1-7.313-1.437,3.527,3.527,0,0,0-.866-.134c-.765,0-.653.5.546.976M376.835,93.222a26.672,26.672,0,0,1-4.24-1.011,4.831,4.831,0,0,1-2.883-4.32c.047-.572.115-1.149.162-1.719.14-1.637.522-2.907.55-2.245s1.1,1.967,2.575,2.713c2.294,1.149,4.584,2.083,5.87,4.252.757,1.277-.174,2.369-1.564,2.369a2.98,2.98,0,0,1-.471-.04m-35.9-35.558c-1.347-.534-2.779-1.7-1.887-2.225a2.2,2.2,0,0,1,2.929.91c.514.878.419,1.5-.259,1.5a2.163,2.163,0,0,1-.783-.182m-10.492-3.47c-.17-.9-.56-1.665-.265-1.675s.738.664.92,1.517c.1.47-.061.744-.251.744-.156,0-.332-.18-.4-.586m-51.578-7.156a2.421,2.421,0,0,1,3.224-1.333c1.841.6,3.578,1.309,5.35,1.983,1.549.586,1.5,1.251-.162,1.281-.953.018-1.946-.006-2.937-.028-.969-.024-1.94-.046-2.87-.032l-.079,0c-1.628,0-2.953-.756-2.527-1.873m45.6-13.171c-1.56.576-3.042,2.413-4.683,2.653a31.136,31.136,0,0,0-3.15.592c-1.612.41-1.6,1.757-.018,2.271a70.788,70.788,0,0,1,7.015,2.205c1.515.684,2.2,2.729,2.45,4.12s.138,2.853.672,3.12-.577,1.595-2.227,1.543-2.529.622-1.434.886.49.652-1.143.368c-7.511-1.3-13.211-4.4-21.456-4.977a7.879,7.879,0,0,1-4.709-2.535c-.229-.256-.465-.51-.694-.756a13.742,13.742,0,0,0-4.845-3.014c-.835-.288-1.622-.612-2.425-.93-1.552-.6-2.692-.216-2.071.45s.047,2.821-1.527,3.35a9.545,9.545,0,0,1-4.851.054c-1.622-.348-3.5.13-4.171,1.6a8.338,8.338,0,0,1-4.143,3.6c-4.26,1.637-7.812,3.974-9.93,7.732a3.954,3.954,0,0,0,1.064,4.7c4.511,3.354,10.581,4.929,17.247,6.839,5.919,1.7,10.721,4.24,16.968,4.552a8.074,8.074,0,0,1,5,2.2c1.774,1.955,3.572,3.884,5.361,5.815,1.129,1.207,2.577,1.223,3.429.14a4.136,4.136,0,0,0,1.011-2.231c.172-1.721-1.181-3.1-1.2-4.76A5.724,5.724,0,0,1,311.289,70c.892-1.391.1-3.59-1.242-4.57-2.644-1.935-5.251-3.764-6.186-7.354a3.651,3.651,0,0,1,2.411-4.09c4.907-1.263,10.853.6,14.32,2.569,2.332,1.321,3.886,3.72,6.259,4.76a15.5,15.5,0,0,0,3.839.922c1.643.26,3.374-.174,3.8-1.375s2.019-1.611,3.451-.784c2.227,1.289,4.3,2.8,6.483,4.332,2.765,1.947,5.971,4.991,8.664,6.429,4.185,2.233,8.9,3.362,12.544,6.249,1.3,1.029.8,2.631-.119,4a9.62,9.62,0,0,1-1.831,2.611c-2.508,2.113-6.162,1.671-9.8,1.227a25.637,25.637,0,0,0-6.083-.274c-1.916.242-2.579,2-3.611,3.334-.3.392-.668.754-.981,1.109-.54.616.615,1.619,2.28,1.595a40.6,40.6,0,0,0,5.1-.584c1.643-.24,3.228.748,2.7,1.727s-.239,2.421.516,2.731,1.216.376,1.216.8,1.444,1.323,2.828,2.223a10.452,10.452,0,0,0,2.183,1.159,1.33,1.33,0,0,0,1.307-2.3c-1.2-1.039-.623-1.887.886-1.185.57.264,1.125.552,1.673.774,1.533.642,3.924,1.169,5.247,2.173,3.9,2.967,8.615,5.819,11.393,9.537,1.258,1.687,1.63,3.778,2.887,5.475.682.922,3.388,3.468,4.574,3.576a4.436,4.436,0,0,0,2.541-.9,4.061,4.061,0,0,1,4.687,1.041c1.612,2.043,2.65,4.656,4.106,6.857.906,1.373,2.713,1.157,2.976-.466.558-3.412-.862-7.5-.348-11.53.437-3.384,1.1-7.41,2.7-9.693.945-1.353,3.113-.63,3.961.786,1.266,2.115,2.257,4.46,1.521,7.242a10.777,10.777,0,0,1-1.725,2.943c-.912,1.369.168,3.584,1.121,4.935a49.873,49.873,0,0,0,2.812,4.136c1.084,1.245,2.164.456,1.463-1.033-.409-.874-.886-1.681-1.329-2.521-.769-1.453.255-3.314.935-4.81.787-1.719.6-4.06.447-6.389a2.341,2.341,0,0,1,2.864-2.547c4.725,1.107,7.513,3.992,10.5,6.952,1.936,1.915,4.337,3.738,5.779,5.477,1.879,2.263,2.927,5.661,5.055,8.1,1.236,1.413,3.463,3.788,5.053,4.524a2.294,2.294,0,0,0,.783.118c.439.034.724-.992.368-2.6-.878-3.928-3.538-6.876-5.725-10.852-.928-1.689-1.841-3.528-2.889-5.239-1.07-1.745-1.982-3.52-3.176-4.408-1.325-.995-4.044-.995-5.207-2.167a29.8,29.8,0,0,1-5.581-8.188c-.445-1.177-.659-2.375-1.066-3.418-.6-1.535-2.646-2.453-3.51-2.988a25.551,25.551,0,0,1-3.724-2.919c-6.374-6.141-15.5-9.791-22.027-15.436-1.679-1.455-3.02-3.38-4.768-4.68-1.329-.985-1.725-.336-.692.95a33.407,33.407,0,0,1,2.3,3.284c.864,1.4.136,2.841-1.517,2.689a36.771,36.771,0,0,0-5.191-.576c-.991.058-1.847.788-2.891.712-3.265-.236-6.663-3.762-9.141-5.477a69.34,69.34,0,0,0-6.714-4.1c-1.467-.782-2.531-1.749-2.454-2.227s-1.378-1.547-3-1.883c-2.5-.522-5.547-.5-7.705-1.359-1.545-.612-.92-1.853.73-1.633,3.085.41,5.969,1.245,9.174,1.237,1.659-.006,2.116-1.3.815-2.321-2.314-1.817-5.085-3.18-7.418-4.973a24.914,24.914,0,0,0-5.065-2.935c-.655-.258-1.295-.546-1.916-.842-1.495-.712-2.569-1.841-2.3-2.407s-.585-2.059-1.922-3.028a10.093,10.093,0,0,1-3-2.825c-.844-1.419-1.845-3.49-3.362-3.692s-2.525-.884-2.094-.818-.688-.626-2.314-.948a21.158,21.158,0,0,0-3.934-.44,7.359,7.359,0,0,0-2.512.366m-88.083-3.114c-.443.056-.9.1-1.359.116-1.663.076-2.5,1.295-1.123,2.211A28.764,28.764,0,0,0,237.14,34.8c1.493.728,2,1.865,1.181,2.041s-1.582.846-1.446,1.625,1.539,1.593,3.2,1.585a19.034,19.034,0,0,0,4.867-.592c1.6-.44,2.885-1.7,2.935-2.311s.664-1.1,1.1-.908.6-1.311-.49-2.551c-1.469-1.669-3.817-2.465-6.329-3.1a7.5,7.5,0,0,0-1.806-.184,32.78,32.78,0,0,0-3.973.354m30.929-2.829c.227.032.461.054.7.07,1.657.118,3,.76,3,1.419s.8.822,1.515-.036,1-1.557-.53-2.211a11.221,11.221,0,0,0-4.238-.732h-.034c-1.632,0-2.045,1.271-.411,1.491M131.857,24.179a18.135,18.135,0,0,0-1.835.512c-1.564.554-1.092,1.725.51,1.287a9.589,9.589,0,0,0,1.863-.728c1.183-.612,1.159-1.179.263-1.179a3.583,3.583,0,0,0-.8.108m115.933-.54a30.851,30.851,0,0,0,6.5,1.143c1.653.128,1.81-.546.208-.974a40.254,40.254,0,0,0-6.481-1.037,5.23,5.23,0,0,0-.526-.028c-1.141,0-1.1.474.3.9m-108.8,57.475a15.143,15.143,0,0,1-5.3-3.692,4.432,4.432,0,0,1,0-5.009c.989-1.275,2.09-1.4,2.2-.278a9.286,9.286,0,0,0,2.073,4.29,27.892,27.892,0,0,1,2.45,3.2c.663,1.039.386,1.747-.427,1.747a2.424,2.424,0,0,1-.985-.254m35.986-58.366a23.184,23.184,0,0,1-5.183-.206,10.05,10.05,0,0,0-5.454,1.691c-1.153.778-2.322,1.543-3.487,2.311a13,13,0,0,1-5.482,1.557c-2.462.166-4.76.908-7.244,1.3-1.643.264-3.239-.2-3.239-.822s-1.588-1-3.237-.77a27.027,27.027,0,0,0-9.938,3.24,11.852,11.852,0,0,1-5.415,1.235h-.439c-.22,0-.441,0-.657,0-1.667-.01-2.411-.9-2.4-1.6s-1.408-1.289-3.057-1.1a35.485,35.485,0,0,0-8.617,2.371c-1.556.582-2.646.39-1.956.032s-.364-.266-1.823.53a64.314,64.314,0,0,0-6.617,4.032c-1.341.97-1.392,1.295-.239.574s2.3,1.049,1.448,2.459c-.2.338-.425.678-.651,1.023-.894,1.385-.846,2.619-.17,2.431s.283,1.223-1.07,2.169c-.227.154-.455.306-.7.442-1.444.81-3.075.26-2.856-.56s-1.56-1.109-3.057-.4c-2.968,1.4-5.108,3.624-7.5,5.581A8.558,8.558,0,0,1,82.676,51.9a10.3,10.3,0,0,0-3.451,1.617,26.386,26.386,0,0,0-4.377,4.474c-.38.454-.87.872-1.266,1.283-.694.716.6,1.085,2.229.742,1.847-.388,3.866-.576,4.57-.122,1.721,1.111.6,2.547.241,4.76-.591,3.708-.475,7.776-2.642,9.287-1.446,1.009-3.307.952-5.267.9a12.987,12.987,0,0,0-5.087.53c-1.159.448-2.114,2.177-3.129,3.336-2.644,3.014-5.251,5.427-7,8.692-.783,1.453-.032,2,1.068.776.888-.982,1.7-2.069,2.561-2.976,1.141-1.195,1.6-.664.785.766-3.046,5.3-5.686,13.679-3.653,20.254a4.453,4.453,0,0,0,3,2.861,4.115,4.115,0,0,1,2.891,2.867c1.278,5.1-1.594,9.419-3.489,13.187-1.4,2.767-4.1,5.913-4.1,7.854a4.332,4.332,0,0,0,1.891,3.236c1.3,1.021,3.083.014,3.71-1.5,3.394-8.232,10.472-17.463,20.145-15.852a1.952,1.952,0,0,1,1.206,3.254,10.931,10.931,0,0,1-4.088,3.728,10.1,10.1,0,0,1-1.782.516,1.989,1.989,0,0,0-.726,3.068c.965.966,1.1,3.152.459,4.666a25.534,25.534,0,0,1-2.765,5.081c-1.626,2.291-4.173,4.082-5.292,6.431-4.513,9.433-1.036,21.763,4.333,28.09,3.285,3.884,10.027,6.193,14.682,9.287,4.383,2.923,6.592,7.026,9.7,10.035,1.189,1.149,2.593.532,2.294-1.085-.176-.967-.445-1.925-.587-2.9a2.675,2.675,0,0,1,3.141-2.741c.443.074.872.162,1.3.26a5.648,5.648,0,0,1,3.851,3.548c.271,1.011.5,2.059.746,3.1a7.174,7.174,0,0,1-.931,5.365c-3.514,4.4-9.333,8.4-10.13,14.9-.455,3.672.7,9.131,3.129,11.908,1.861,2.125,4.824,2.948,7.222,4.614,1.359.946,3.437,1.551,4.737.524,5.037-3.974,6.491-11.5,14.4-12.636a4.7,4.7,0,0,1,4.4,2.509,15.182,15.182,0,0,1,1.493,8.8c-1.208,7.89-9.311,9.185-12.519,15.476-1.525,3-1.861,7.006-3.368,10.479-1.353,3.11-3.354,6.149-3.6,9.661a9,9,0,0,1-2.114,4.788c-3.791,4.388-4.24,13.6.362,17.155,1.309,1.011,3.9.634,5.263-.314,6.111-4.254,10.009-10.841,13.808-17.243,3.815-6.441,8.494-12.446,12.256-18.83.835-1.421.192-2.155-1.321-1.477-3.623,1.627-6.878,3.606-10.905,4.828a2.588,2.588,0,0,1-3.423-2.209,11.068,11.068,0,0,1,.983-4.7c2.895-6.019,8.2-9.7,8.909-18.091.595-7.094-.516-15.684,1.58-21.615.552-1.551,2.628-2.407,4.266-2.133,1.206.2,2.431.378,3.678.546a3.851,3.851,0,0,0,3.906-2.491,33.125,33.125,0,0,1,9.914-14.543c2.128-1.807,5.535-4.83,7.944-5.243,3.694-.632,8.927,1.573,12.275,3.1,9.73,4.424,16.739,12.56,24.436,17.9a8.559,8.559,0,0,1,3.014,4.554c1.094,4.826,3.336,9.293,3.054,14.6a18.931,18.931,0,0,0,.619,5.411,6.249,6.249,0,0,0,3.75,3.468,36.089,36.089,0,0,0,4.984,1.339,3.949,3.949,0,0,0,4.048-2.441c4.5-11.214,10.909-20.542,14.7-32.456a4,4,0,0,0-1.673-4.474c-1.479-.8-3.065-1.495-4.559-2.283a6.105,6.105,0,0,1-2.605-4.548c-.6-6.767-4.414-10.1-8.368-13.695-5.395-4.9-11.463-11.588-17.413-15.59a11.368,11.368,0,0,1-3.649-4.322,24.405,24.405,0,0,0-1.258-2.667,2.768,2.768,0,0,0-4.08-.8c-1.161,1.049-.937,3.258.053,4.572,4.705,6.267,9.348,13.181,13.749,19.262.971,1.337.392,2.193-1,1.3-2.215-1.425-3.841-3.8-5.893-5.557-2.292-1.959-7.044-4.484-8.425-7.146a33.469,33.469,0,0,1-1.448-4.524c-3.425-10.317-8.037-17.887-16.988-22.353a10.967,10.967,0,0,1-4.133-3.86c-1.157-2.1-2.411-4.162-3.667-6.4s-4.61-7.152-4.816-9.527c-.125-1.551.748-4.224,1.208-6.187,1.22-5.249,3.338-10.031,3.781-15.838.129-1.639-.708-4.108-2.1-5-.613-.386-1.274-.726-1.938-1.057-1.481-.75-2.45-2.8-2.785-4.4-.732-3.516-3.305-5.211-4.155-8.608a8.225,8.225,0,0,0-2.891-4.38c-.453-.318-.9-.65-1.371-.956-1.388-.908-2.288-2.161-1.972-3.438s-.152-2.455-1.119-2.107a3.427,3.427,0,0,1-1.81.306c-1.015-.184-1.734-1.527-2.652-2.141-4.634-3.106-11.362-4.1-17.346-5.775a10.522,10.522,0,0,0-5.537.466c-2.947,1.039-6.619,1.291-9.368,1.975a22.389,22.389,0,0,0-7.224,3.334,46,46,0,0,1-11.556,5.575c-1.58.51-1.788.074-.35-.75A32.4,32.4,0,0,0,99.1,64.019c1.268-1.061.746-2.759-.85-3.218-2.707-.77-5.717-1.555-5.593-3.772.105-1.893,3.524-3.528,6.01-4.924a14.858,14.858,0,0,1,5.419-1.677,8.883,8.883,0,0,0,2.759-.574c1.533-.638,1.153-2.725-.075-2.759s-1.723-2.023-.227-2.741a8.682,8.682,0,0,1,3.087-.706c1.657-.116,3.87-1,4.216-2.605l.028-.134c.35-1.611,2.5-2.855,4.116-3.256,4.533-1.121,9.5-3.278,14.138-3.95,2.862-.422,4,.752,5.779,1.189a27.123,27.123,0,0,0,6.17.438c.955,0,1.885,0,2.739.036,4.333.21,7.636,1.767,11.067,2.141,6.774.746,14.055-2.215,21.183-2.379,9.722-.218,18.551,2.361,28.045,3.152,1.657.138,3.562,1.7,5.172,2.107a9.847,9.847,0,0,0,3.129-.018,22.953,22.953,0,0,1,4.177.166,17.259,17.259,0,0,0,4.725.07c1.458-.326,2.466-1.939,3.849-2.379a1.459,1.459,0,0,1,.837.108,1.7,1.7,0,0,0,.611.13,3.488,3.488,0,0,0,1.628-.666c.793-.578-.063-1.557-1.723-1.567a33.7,33.7,0,0,0-6.338.79,27.818,27.818,0,0,1-7.768.726,20.529,20.529,0,0,1-5.344-1.393c-1.56-.574-1.5-1.067.16-1.109.3-.006.6-.024.888-.046,1.655-.16,1.289-1.569-.378-1.587-.512-.006-1.013.006-1.509.018-.746.018-1.481.036-2.207-.008-1.657-.092-2.876-1.429-2.525-2.327s-.8-1.725-2.425-1.375c-3.433.74-6.742,2.657-9.732,2.177-1.636-.266-1.709-2.169-.6-3.4a4.77,4.77,0,0,1,2.486-1.667c1.9-.43,5.381.1,8.423.24,2.68.118,5.848.294,7.464.948,1.189.484,1.808,1.791,2.648,2.143a7.274,7.274,0,0,0,4.218.434c1.62-.366.74-2.221-.92-2.353a15.351,15.351,0,0,1-5.223-.936c-.9-.422-1.428-1.663-2.409-2.145-3.3-1.617-7.711-.6-11.168-1.791a11.6,11.6,0,0,0-5.241-.334,14.208,14.208,0,0,1-3.809-.014c-2.733-.342-4.9-2.523-6.738-2.623-.053,0-.1,0-.156,0-1.964,0-3.965,1.847-6.342,2.151M196.153,16.8c-1.078.228-2.241.016-3.37.236-1.673.33-3.15,1.223-4.574,1.429-1.042.154-2.069.046-2.965.126-1.636.136-1.02,1.983.641,1.917,2.5-.108,5.235-1.007,7.865-1.329,2.658-.326,5.559-.308,7.82-1.065,1.572-.534,1.446-2.6-.212-2.619h-.04c-1.671,0-3.328.918-5.164,1.3M186.66,2.762a130.83,130.83,0,0,0-30.033,7.072c-1.57.548-2.015,1.009-.947.684s.935-.012-.14.6-.4,1.515,1.256,1.5c8.7-.08,14.573-3.642,22.99-4.158.785-.046,1.6-.016,2.427.014a22.843,22.843,0,0,0,2.866-.014c4.871-.42,9.871-1.879,14.688-2.855,4-.814,8.01-1.119,11.793-2.019,1.614-.388,1.537-.9-.117-.78-6.346.482-13.525,2.845-20.091,1.675-1.636-.292-2.893-1.255-2.458-1.5.3-.17-.1-.29-.941-.29-.358,0-.8.022-1.295.072m87.731-.272c-.392.116.289.98,1.914,1.353,1.256.282,2.634.338,3.854.57,9.279,1.761,19.09,4.318,27.871,6.269,1.618.358,1.671.186.105-.37-2.605-.926-5.261-1.861-7.974-2.747q-7.935-2.359-16.08-4.18c-2.262-.4-4.574-.714-6.936-.918-.726-.062-1.268-.09-1.681-.09a3.64,3.64,0,0,0-1.072.114" transform="translate(-8.173 -2.376)" fill="none"/>
    </clipPath>
    <radialGradient id="radial-gradient-2" cx="0.503" cy="0.534" r="0.759" gradientUnits="objectBoundingBox">
      <stop offset="0" stop-color="#f1f1f1"/>
      <stop offset="1" stop-color="#efefef"/>
    </radialGradient>
    <clipPath id="clip-path-3">
      <path id="패스_9394" data-name="패스 9394" d="M278.641,458.241c-2.5.648-5.069,1.361-7.671,2.123-3.52,1.039-7.592,1.465-10.594,2.859-1.693.784-2.814,2.823-4.81,2.853-.9.016-1.776-.688-2.65-.712-2.227-.058-4.2.912-6.166,1.871-1.487.728-2.3,1.491-3.016,1.859s-2.494.37-4.145.588c-2.456.324-4.8,1.593-7.373,1.4-1.871-.15-3.574-1.311-5.537-1.429a14.412,14.412,0,0,0-2.353.114,14.783,14.783,0,0,1-2.219.122c-2.551-.108-5.126-.892-7.656-.814-1.659.054-3.216,1.123-3.166,1.893s-1.594,1.419-3.255,1.4c-8.075-.084-16.381-2.675-24.193-1.523-1.4.2-2.733,1-4.1,1.187-2.219.316-4.381.222-6.429.406-1.659.144-2.676.806-2.31,1.1s-.736.152-2.073.42a17.849,17.849,0,0,1-2.423.456,6.848,6.848,0,0,1-1.181-.216c-.645-.15-.635.212-.332.3s-1.026.224-2.666-.032c-9.329-1.471-18.09-4.154-26.133-6.4-1.6-.442-1.636-.338-.061.188a242.1,242.1,0,0,0,52.276,10.687c1.966.186,3.965.408,5.978.626,4.752.276,9.53.436,14.35.436q6.287,0,12.505-.318c2.31-.266,4.612-.538,6.886-.744,18.647-1.7,35.829-4.814,50.589-9.735,1.574-.526,1.517-.734-.089-.33-6.845,1.7-14.749,4.7-23.908,5.053a4.156,4.156,0,0,1-3.073-.9c-.4-.414.273-1.177,1.77-1.889,4.865-2.317,10.1-3.9,14.9-6.243,1.434-.7,2.431-2.109,3.849-2.855,2.195-1.155,4.829-1.593,7.019-2.717,1.171-.612,1.149-1.195.273-1.195a3.37,3.37,0,0,0-.823.12m-238.353-48.6a83.325,83.325,0,0,0,12.894,12.7c1.293,1.031,1.434.87.305-.334-3.728-3.942-8.223-8.847-12.732-12.807a2.611,2.611,0,0,0-1.032-.69c-.2,0-.03.394.564,1.129m-9.1-10.753a59.8,59.8,0,0,0,8.209,8.538c1.285,1.043,1.657.664.641-.638a47.867,47.867,0,0,0-8.245-8.55,2.371,2.371,0,0,0-1.07-.574c-.3,0-.174.444.465,1.225M338.62,193.26c-1.663.022-2.727,2.115-1.543,3.266a8.7,8.7,0,0,0,8.557,1.567c1.545-.6,1.121-2.3-.4-2.986a16.421,16.421,0,0,0-6.5-1.849l-.117,0m-42.3-10.763c-.874.94.765,1.881,2.429,1.807,9.048-.4,14.022,5.481,21.962,7.274,1.616.366,2.324-.73,1.252-1.985-4.311-5.045-11.945-7.844-21.035-8.584-.142-.012-.287-.016-.433-.016a6.255,6.255,0,0,0-4.175,1.5m14.56-8.078c.52,1.223.977,2.519,1.541,3.7.71,1.485,2.97,2.455,4.58,2.845.265.064.528.12.779.162,1.643.276.829-1.357-.376-2.487-2.019-1.9-2.826-5.375-5-6.581a1.472,1.472,0,0,0-.71-.21c-.955,0-1.339,1.333-.813,2.575m35.642-86.324c-.065.79-.134,1.613-.142,2.429a5.356,5.356,0,0,0,3.059,4.322,20.813,20.813,0,0,0,4.94,1.225c1.649.218,2.876-1.131,2.084-2.573-1.238-2.241-3.433-3.53-5.771-4.682a5.331,5.331,0,0,1-2.763-2.629,1.6,1.6,0,0,0-1.088-1.037l-.01,0a13.662,13.662,0,0,0-.307,2.948M255.51,49.281c-.378,1.365.91,2.345,2.575,2.3,1.121-.028,2.28-.018,3.437-.01,1.284.012,2.567.022,3.8-.02,1.661-.052,1.78-.81.251-1.447-2.146-.886-4.365-1.691-6.657-2.433a3.2,3.2,0,0,0-.981-.16,2.435,2.435,0,0,0-2.427,1.767m92.8-4.078a55.574,55.574,0,0,0,9.014,6.711,3.745,3.745,0,0,0,1.044.45q-5.295-4.232-10.822-8.168c-.142.064.089.416.765,1.007M80.823,36.911l-.208.128C78.351,38.5,76.07,39.99,73.808,41.5A241.346,241.346,0,0,0,51.654,58.542c-.485.454-.993.9-1.46,1.363-1.185,1.155-.92,1.487.427.526,2.257-1.607,4.313-3.416,7.088-4.51A19.885,19.885,0,0,0,62.9,53.2a34.2,34.2,0,0,1,6.489-5.021,4.058,4.058,0,0,1,2.684-.688c.3.11.239.386.229.938s1.244,1.145,2.828.64a8.974,8.974,0,0,0,3.629-2.3c1.167-1.173,1.285-2.467.637-2.317s-.069-1.277.74-2.715c.366-.642.684-1.279,1.03-1.883.815-1.433,1.96-2.753,1.618-2.919s-.166-.67.3-.995c.1-.07.111-.1.055-.1a8.3,8.3,0,0,0-2.31,1.075M217.592,30.2c-1.45.8-.439,2.629,1.163,3.072a12.885,12.885,0,0,0,5.338.67c1.636-.3,1.762-3.006.265-3.722a8.4,8.4,0,0,0-3.538-.756,6.759,6.759,0,0,0-3.228.736m72.2,83.222a4.613,4.613,0,0,1,3.152-1.623c1.661.088.9,2.539-.7,2.99-.417.118-.846.226-1.27.332a3.043,3.043,0,0,1-.7.092c-1.1,0-1.467-.81-.481-1.791m9.983-3.572c-.2-.06-.413-.126-.623-.19-1.584-.5-1.8-1.539-.172-1.857.271-.052.548-.1.825-.146,1.636-.274,2.982.072,2.878.93a1.916,1.916,0,0,1-2.037,1.391,3.162,3.162,0,0,1-.872-.128m-31.6-.772c-.061-.965-.081-1.961-.142-2.923-.109-1.639.579-4.006,2.223-4.254,3.206-.48,5.393,3.422,5.338,7.214-.02,1.643-1.881,2.911-3.546,2.911h-.479a3.4,3.4,0,0,1-3.394-2.947m16.739-1a13.906,13.906,0,0,1-3.894-5.059,1.948,1.948,0,0,1,2.322-2.613c.49.1.975.208,1.481.3a10.657,10.657,0,0,1,4.683,2.525c.813.71,1.616,1.393,1.681,2.375a3.424,3.424,0,0,1-1.649,2.789,3.26,3.26,0,0,1-2.033.662,3.865,3.865,0,0,1-2.591-.976M257.6,97.992c-1.554-.59-1.867-2.245-.441-3.084,5.092-2.972,13.181-1.907,17.431,1.749a1.755,1.755,0,0,1-.959,3.126,22.232,22.232,0,0,1-4.491.436,33.555,33.555,0,0,1-11.54-2.227M145.664,91.569l-.324-.408c-.979-1.329.038-2.219,1.582-1.619l.532.208c1.539.618,2.431,2.077,1.618,2.527a2.7,2.7,0,0,1-1.264.3,2.772,2.772,0,0,1-2.144-1.013m46.248-36.617c-.3-.192-.757-.71-.237-1.021s.856.044.823.45c-.026.33-.2.624-.421.624a.312.312,0,0,1-.166-.054M164.66,48.014c-1.592-.458-1.9-2.375-.354-2.984a16.18,16.18,0,0,1,7.667-.446,4.643,4.643,0,0,1,3.148,1.623c.314.538-.9,1.731-2.525,2.077a16.127,16.127,0,0,1-3.36.34,16.953,16.953,0,0,1-4.576-.61m95.051-14.866c-1.434-.136-.839-1.353.289-1.141,1.064.2,1.145,1.151-.051,1.151-.075,0-.154,0-.239-.01m-30.583-.776c.032.734.026,1.421-.008,2.171-.091,1.637.208,3.778,1.244,4.26s-.047,1.451-1.533.72c-.334-.158-.651-.336-.975-.512-1.465-.768-3.063-.184-3.2.59s-1.893,1.7-3.52,2.047a24.22,24.22,0,0,1-6.973.38c-3.16-.208-6.576-1.959-8.909-1.669-1.384.176-2.429,1.751-3.849,2.149a12,12,0,0,1-4.9-.028,17.817,17.817,0,0,0-3.528-.258,11.705,11.705,0,0,1-5.126-1.165c-1.879-.852-4.333-.8-7.385-1.175-6.669-.818-14.245-2.345-20.461-2.615A57.688,57.688,0,0,0,147,38.442a55.5,55.5,0,0,1-10.581,1.207c-2.34-.036-3.69-1.151-5.773-1.665-3.973-.991-8.714-.512-12.924-.93-1.651-.162-4.058-1.421-5.708-1.593-2.864-.294-6.588,1.079-10.009,2.045-4.121,1.171-9.956,1.793-11.751,5.207a4.51,4.51,0,0,1-3.528,2.767,7.269,7.269,0,0,0-4.27,1.6A1.709,1.709,0,0,0,83.3,50.1c1.285.032.781,1.935-.88,2.007-.447.022-.914.014-1.382.008a11.082,11.082,0,0,0-2.628.158c-1.444.336-4.135,2.457-5.292,3.33-1.778,1.333-4.321,3.16-4.094,4.766.3,2.1,3.39,2.539,5.953,3.284,1.6.458,1.7,2.127.332,3.052-2.692,1.8-5.755,3.23-8.577,4.9-1.428.844-1.27,1.129.293.572,3.479-1.243,6.781-2.241,10.179-3.71,4.149-1.791,7.355-5.047,11.316-6.429,3.645-1.271,7.839-1.033,11.5-2.277a11.107,11.107,0,0,1,5.6-.492c6.127,1.649,12.382,3.182,17.253,6.079,1.432.846,3.184,1.777,4.038,1.541s1.266.748.9,2.073.637,2.421,2.059,3.274a13.216,13.216,0,0,1,1.414,1.009,10.175,10.175,0,0,1,2.913,4.586c1.015,3.228,3.508,4.981,4.1,8.62a5.821,5.821,0,0,0,2.779,4.23,17.715,17.715,0,0,1,1.855.987c1.4.884,2.164,3.374,2.011,5.007-.613,6.793-3.091,12.754-4.412,19.336a9.863,9.863,0,0,0,.884,5.581c2.371,4.49,4.845,8.889,7.29,13.311a11.019,11.019,0,0,0,4.2,3.8c9.408,4.6,14.52,13.455,17.649,24.272a11.268,11.268,0,0,0,3.067,4.8c1.592,1.325,3.216,2.647,4.928,4.03,2.812,2.275,4.913,5.359,7.95,6.819,1.495.716,2.148-.324,1.226-1.687-4.345-6.391-9.459-13.125-14.008-19.8-.93-1.361-1.169-3.518-.081-4.36s2.391-.156,3.166,1.3c.445.84.928,1.639,1.339,2.517a11.386,11.386,0,0,0,3.475,4.35A67.769,67.769,0,0,1,193.7,171.079c5.528,5.743,12.786,9.573,13.654,19.168a5.772,5.772,0,0,0,2.761,4.31c10.132,5.137,18.91,10.759,31.965,12.236a26.245,26.245,0,0,0,4.772-.07,24.474,24.474,0,0,1,6.06.07c2.1.376,4.29,2.961,6.02,4.524,1.964,1.781,4.21,3.71,6.5,4.282,2.415.6,5.286.088,7.942.718,3.686.866,9.738,5.023,12.275,7.14,3.059,2.559,4.125,7.1,7.222,9.049,1.274.8,2.921.8,4.333,1.429,4.187,1.857,8.067,3.81,13,4.046a18.746,18.746,0,0,0,4.048-.28,3.358,3.358,0,0,1,3.813,2.177c1.758,5.677,3.356,11.336,1.527,16.674-.975,2.843-4.422,5.569-6.738,7.86-2.411,2.385-5.174,5-6.018,8.568-.924,3.88,1.2,6.841.479,10.713-.453,2.479-3.817,4.863-3.37,7.858.109.724,1.556,1.795,2.411,2.857,5.456,6.8,7.786,15.444,10.092,24.5a12.483,12.483,0,0,0,2.895,4.961c1.681,1.645,3.38,3.334,5.3,5.069,1.869,1.683,6.588,4.975,7.464,7.144.591,1.461.275,5.265-.239,8.1-1.723,9.323-8.033,19.22-11.8,27.38-1.491,3.236-2.255,6.589-3.611,9.527-2.826,6.121-7.578,10-11.071,15-3.172,4.538-5.356,9.561-8.427,13.663-.991,1.319-1.149,2.5-.425,2.011s.8.762-.042,2.181a8.949,8.949,0,0,1-3.176,3.422,12.224,12.224,0,0,0-4.112,3.566c-3.524,5.737-10.877,8.786-10.28,17.463.115,1.643,1.58,3.77,3.233,3.97.615.08,1.278.114,1.938.144,1.661.08,4.187-.506,5.035-1.911,1.244-2.049,1.155-4.278,3.018-6.651a20.8,20.8,0,0,1,3.133-2.379c1.094-.814,2.14-1.681,3.127-2.385,2.4-1.7,5.925-2.7,6.876-5.625.506-1.563,1.264-3.612,2.66-4.5a30.946,30.946,0,0,0,8.613-7.582,8.118,8.118,0,0,1,4.361-2.757,16.575,16.575,0,0,0,5.2-1.981,35.94,35.94,0,0,1,10.513-5.427,11.508,11.508,0,0,0,4.988-2.861c1.537-1.865,2.965-3.96,4.922-5.213,2.3-1.471,5.334-1.689,7.7-3.092a40.433,40.433,0,0,0,4.329-3.576,159.765,159.765,0,0,0,25.686-26.63,16.675,16.675,0,0,1,4.4-3.83,45.688,45.688,0,0,1,6.977-3.486,11.878,11.878,0,0,0,4.679-3.212c2.571-3.254,5.431-6.3,7.839-9.985,2.955-4.52,4.1-9.747,6.5-15.474,2-4.76,5.043-9.5,7.944-14.045,2.64-4.134,6.384-10.4,6.5-15.718.053-2.3-1.181-4.69-1.926-7.146-.413-1.367-.674-2.823-1.137-4.122a4.6,4.6,0,0,0-3.546-2.783,7.2,7.2,0,0,1-4.319-1.947c-1.93-2.023-3.437-4.458-5.694-6.151-1.329-.988-3.1-2.669-3.635-4.23a82.842,82.842,0,0,0-4.054-10.523c-1.46-2.9-5.195-9.415-8.186-10.477a2.831,2.831,0,0,0-1.092-.016,4.472,4.472,0,0,1-1.07.016,20.976,20.976,0,0,1-2.725-.812c-1.509-.438-3.732-1.113-4.877-2.307-3.544-3.7-7.112-7.36-10.456-11.256a9.717,9.717,0,0,0-4.812-3.1,29.431,29.431,0,0,0-6.726.026c-3.139.252-6.216.5-8.913-.65-1.861-.794-2.925-2.763-4.574-3.574-2.638-1.295-7.972-1.481-11.8-.714-7.3,1.465-9.8,7.752-17.326,9.289-2.243.452-4.659.444-7.224.71-2.2.234-5.138,1.5-7.464,1.195-1.309-.18-4.185-2.085-5.771-3.1-1.926-1.229-4.21-2.8-4.816-4.284-1.452-3.558.063-9.429-.259-14.447a4.569,4.569,0,0,0-3.372-3.7c-4.756-1.033-10.217-1.367-14.554-2.815a3.119,3.119,0,0,1-1.752-3.99c1.529-4.224,3.028-8.646,2.893-13.515a2.784,2.784,0,0,0-3.267-2.591c-1.837.316-3.552.748-5.356,1.089-1.634.314-3.564,1.323-4.163,2.477a11.582,11.582,0,0,1-1.222,2.017c-2.539,3.146-9.536,7.214-13.954,6.429-.884-.156-3.226-1.809-4.333-2.623-4.017-2.941-7.99-7.46-9.151-12.38-1.756-7.492,2.512-13.249,3.125-19.884a5.136,5.136,0,0,1,2.816-4.03c1.978-.87,3.781-1.9,5.723-2.805a9.743,9.743,0,0,1,5.731-.566c2.51.71,4.95,1.757,7.642,1.335,1.119-.176,2.387-1.369,3.607-1.907a33.781,33.781,0,0,1,19.7-2.133,7.191,7.191,0,0,1,4.3,3.348c2.363,4.446,4.824,8.78,7.139,13.269.757,1.461,2.781,2.441,3.94,1.261a9.679,9.679,0,0,0,1.673-2.477c.722-1.475.277-3.894-.554-5.319a27.377,27.377,0,0,1-4.03-13.781,6.588,6.588,0,0,1,2.508-4.728c3.487-2.585,6.853-5.293,10.321-7.9a5.378,5.378,0,0,0,1.861-4.7c-1.139-7.836.461-15.71,7.252-18.1a4.675,4.675,0,0,0,3.008-3.61A9.6,9.6,0,0,1,328.211,105c1.363-.946,3.754-.42,5.34.06a10.824,10.824,0,0,0,8.112-.63c1.422-.846.661-2.347-.957-2.721a19.93,19.93,0,0,1-8.492-3.926,4.208,4.208,0,0,1-1.2-4.02c.291-1.075-1.465-2.1-3.1-1.815a42.817,42.817,0,0,1-4.857.82c-1.659.1-1.962-1.157-1.117-2.569a5.371,5.371,0,0,1,1.986-2.215c3.014-1.659,7.042-.13,11.2.108,1.659.1,4.377-.442,5.579-1.583a34.973,34.973,0,0,0,2.363-2.807c1.066-1.261,1.513-3.028.259-4.11-3.6-3.142-8.656-4.35-12.9-6.611-3.061-1.625-5.694-4.592-8.668-6.663a64.97,64.97,0,0,0-7.167-4.4c-1.471-.764-2.927-.244-3.309,1.047s-2.286,1.551-3.888,1.129c-.32-.09-.649-.164-.985-.244a14.3,14.3,0,0,1-5.023-2.767c-4.43-3.718-12.584-6.883-18.592-4.915-1.58.516-2.158,2.593-1.93,4.216a8.794,8.794,0,0,0,.939,3.554c1.149,1.829,3.3,2.705,5.079,3.9a3.9,3.9,0,0,1,.924,4.76,5.716,5.716,0,0,0-.945,3.248c.032,1.483,1.256,2.821,1.2,4.284a3.864,3.864,0,0,1-.955,2.341c-.88,1.121-2.393.8-3.406-.5-.765-.982-1.63-1.985-2.62-3.03-1.28-1.357-3.568-4.278-5.051-4.76a3.128,3.128,0,0,0-1.493.09,4.373,4.373,0,0,1-1.157.148c-5.935-.4-12.77-3.3-19.251-5.241-5.31-1.589-10.764-3.168-14.506-6.211a3.9,3.9,0,0,1-.712-4.752,17.751,17.751,0,0,1,9.443-7.008,7.8,7.8,0,0,0,4.112-3.506c.674-1.477,2.624-1.931,4.256-1.617,3.166.608,7.082.2,7.272-2.381.087-1.195-.781-1.885-1.667-2.629-1.272-1.067-.548-3.336,1.1-3.114l.366.058c1.626.306,2.834.406,2.438-.06s.8.1,1.946.622,1.005,2.317.022,1.735-2.609-.5-2.9.436.9,2.183,2.2,2.331a5.606,5.606,0,0,1,2.28.62c2.312,1.261,3.388,5.107,5.294,5.713a5.829,5.829,0,0,0,2.175.062,9.713,9.713,0,0,1,1.436-.062c7.315.512,14.091,4.1,21.557,5.193,1.643.236,2.468-.568,1.341-.872s-.73-.594.787-.63,1.873-2.059.445-2.9c-1.173-.692-2.575-1.155-3.849-1.747-1.5-.7-1.2-2.223.421-1.909.5.094,1,.208,1.491.286a1.5,1.5,0,0,0,.983-2.775,22.421,22.421,0,0,0-5.607-2.027c-3.028-.894-6.358-1.767-8.9-3.334-1.1-.674-1.976-1.927-3.131-2.379-4.183-1.649-9.431-1.011-14.441-3.1-6.823-2.833-12.614-3.648-19.978-2.141a.973.973,0,0,0-.674.636c-.237.48-.445.234-.585-.432s-1.786-1.323-3.433-1.107a9.137,9.137,0,0,0-.92.172,4.1,4.1,0,0,0-2.81,3.1c-.053.922,1.295,2.037,2.887,2.511,1.964.588,3.886,1.219,5.692,1.961,1.541.626,2.719,1.987,2.454,2.835s-2.227.92-3.839.524c-4.693-1.157-9.491-2.219-12.794-4.756A3.239,3.239,0,0,1,235.1,32.2c.953-1.115-.115-2.6-1.774-2.709q-.719-.048-1.469-.072h-.087a2.68,2.68,0,0,0-2.642,2.949m-51.856-3.082c-1.278.032-2.585.066-3.908.044a9.253,9.253,0,0,0-5.11,1.933l-.158.124a1.9,1.9,0,0,0,.961,3.35c3.093.434,6.425-1.109,9.659-1.959,1.606-.424,2.69.324,2.367,1.361s1.2,2.163,2.858,2.155c1.068-.006,2.183-.052,3.208-.024,1.661.048,1.657.928-.006.96-.427.008-.86.016-1.278.038-1.659.078-1.4,1.073.2,1.5,2.719.722,5.328,1.837,8.362,1.833,3.2-.006,6.813-1.433,10.586-1.669a25.788,25.788,0,0,1,4.719.338,27.115,27.115,0,0,0,4.653.346c1.665-.078,1.9-1.585.477-2.429-2.223-1.309-4.7-2.363-6.212-4.37-1-1.319-2.607-2.653-4.121-1.963a22.566,22.566,0,0,1-4.329,1.887c-2.674.624-7.22.916-10.108-.238-1.137-.454-1.857-1.933-3.127-2.381a20.314,20.314,0,0,0-6.73-.886c-.969,0-1.958.026-2.965.054m51.352-1.047c1.206.032,1.384-1.613-.265-1.7-.042,0-.083,0-.121,0-1.493,0-.791,1.667.386,1.7M188.566,25.6c-1.365.8-.916,1.427.6,2.085a9.5,9.5,0,0,0,3.815,1.251,31.915,31.915,0,0,0,3.37-.714c2.452-.324,5.174-.006,7.292-.478,1.622-.362,1.442-2.409-.216-2.353-2.2.082-4.369,1.661-6.594,1.643-1.752-.018-3.7-2.049-5.535-2.147q-.124-.006-.243-.006a4.761,4.761,0,0,0-2.492.72m26.048-.616c-1.639.276-1.345,1.795.269,2.169a18.827,18.827,0,0,0,4.258.522c1.655,0,2.082-1.485.538-2.089a10.606,10.606,0,0,0-3.744-.708,7.9,7.9,0,0,0-1.321.106m-26.2-1.523a75.013,75.013,0,0,0-8.8,1.451c-1.592.464-1.422,1.433.241,1.419a19.219,19.219,0,0,0,6.3-1.185c1.56-.566,2.777-1.419,2.638-1.6a.263.263,0,0,0-.233-.106.686.686,0,0,0-.144.018m34.508-.438c1.282.362,2.126-.718.68-1.107a2.173,2.173,0,0,0-.562-.08c-1,0-1.222.872-.117,1.187m-26.172-1.307-.053.012c-1.618.37-1.341,1.591-.227,1.825a3.023,3.023,0,0,0,2.654-.81c.348-.4-.427-1.1-1.653-1.1a3.461,3.461,0,0,0-.722.078m13.215-.14c.259.492,1.7.852,3.354.962.253.014.494.028.736.04,1.657.062,1.491-1.245-.158-1.469-.358-.046-.714-.088-1.074-.132a8.93,8.93,0,0,0-.985-.056c-1.2,0-2.086.266-1.873.654m33.812-6.451c-.975.208-1.76.822-2.648.954a25.888,25.888,0,0,1-4.2.176,19.784,19.784,0,0,0-3.969.2c-1.624.326-1.424,1.833.231,2.015.781.08,1.592.138,2.34.252,1.645.252,1.367.989-.255.634-3.024-.67-6.384-1.607-9.341-1.275-1.651.186-1.647,1.419-.18,2.193a17.39,17.39,0,0,0,7.665,2.465,22.563,22.563,0,0,0,2.686-.126,18.615,18.615,0,0,1,3.03-.1c1.661.15,1.161,1.757-.479,2.011a37.228,37.228,0,0,1-9.977.166c-1.647-.2-2.636,1.169-1,1.457a9.814,9.814,0,0,0,2.035.054,9.885,9.885,0,0,1,2.5.114c1.335.3,2.425,1.849,3.854,2.381,5.033,1.871,10.786.158,16.733-.346,1.655-.14,2.065-1.217.447-1.595a20.509,20.509,0,0,0-6.143.016,27.783,27.783,0,0,1-5.063.186c-1.657-.164-1.515-1.087.14-1.249a83.089,83.089,0,0,1,11.344-.3c1.659.072,3.247-.32,2.816-.762s.077-.622.761-.914a2.587,2.587,0,0,0,1.1-2.125c.04-.764,1.908-.808,3.449-1.419,1.159-.466,1.9-1.317,2.816-1.729a7.775,7.775,0,0,1,1.885-.374c1.052-.178.388-1.887-1.232-2.263-2.7-.616-6.3-.432-9.556-.694-2-.16-4.651-.38-7.165-.38a23.29,23.29,0,0,0-4.628.38m45.146-1.071-.31-.138c-.237-.072-.358-.106-.374-.106s.216.086.684.244m-4.788-.532c.364.144-.771.59-2.419.72s-2.454.822-2.26,1.115-1.363.87-3.024.866c-1.471-.01-3.04-.166-4.481-.1-1.659.076-2.654.792-2.537,1.081s-.568.786-1.444.968-.629,1.5.144,1.809-.065.874-1.582,1.047-1.384,2.255.063,3.07c3.645,2.053,8.273,1.765,13.761,1.743,4.345-.016,9.576,1.595,13,3.1,2.731,1.2,4.958,3.508,7.942,4.526,2.357.8,4.527.93,6.421,1.693,1.543.62,2.128,1.623,1.677,1.615s.56,1.4,2.126,1.607,2.838,1.041,2.978,1.625a8.34,8.34,0,0,0,2.191,3.16q12.2,11.34,30.112,17.049c1.584.5,2.239-.3,1.264-1.637-2.077-2.837-4.568-5.263-6.2-8.532-.738-1.477-.973-3.132-.649-3.438s.37-1.123-.5-2.227a2.9,2.9,0,0,1-.708-2.3c0-.44.156-.684.579-.542s-.344-1.095-1.639-2.133a112.41,112.41,0,0,0-11.12-7.814,238.716,238.716,0,0,0-25.243-12.542q-6.2-2.491-12.633-4.648c-.417-.14-.755-.252-1.03-.346.148.138-.57.136-1.806-.278-.223-.072-.449-.148-.668-.214A5.857,5.857,0,0,0,284.8,13.3c-.6,0-.886.134-.67.222m-.67-1.3c1.282.454,1.511.24.522-.166-.378-.128-.767-.246-1.145-.37a1.6,1.6,0,0,0-.3-.042c-.293,0,0,.246.924.578M208.738,0a240.315,240.315,0,0,0-62.259,8.174c-4.157,1.181-8.118,2.485-11.846,3.926q-2.318.9.034.08a155.984,155.984,0,0,1,24.3-5.835c1.636-.284,2.571-.2,1.974-.066s-.188.308.74.382,1.558.37,1.323.626c-.138.142-.142.236.368.218,2.3-.132,4.426-.054,6.489.026a53.544,53.544,0,0,0,6.752-.026c4.762-.414,9.277-2.5,13.719-2.145,3.92.322,10.717,1.219,13.721,2.383,1.814.7,3.083,2.073,4.814,2.141,3.506.14,7.315-2.191,11.073-2.617A92.11,92.11,0,0,1,235.8,7.35a130.551,130.551,0,0,0,13.159.342c1.657-.066,3.726-1.113,5.013-1.193.425-.024.781-.022,1.054-.022.546,0,.767.008.595-.22-.269-.34,1.291-.5,2.933-.254a142.2,142.2,0,0,1,17.712,4.006c1.6.452,1.63.36.061-.176-1.38-.474-2.794-.922-4.222-1.359A240.208,240.208,0,0,0,208.738,0Z" transform="translate(-30.57)" fill="none"/>
    </clipPath>
    <radialGradient id="radial-gradient-3" cx="0.479" cy="0.366" r="0.604" gradientUnits="objectBoundingBox">
      <stop offset="0" stop-color="#fff"/>
      <stop offset="1" stop-color="#888"/>
    </radialGradient>
  </defs>
  <g id="base">
    <g id="그룹_2982" data-name="그룹 2982" clip-path="url(#clip-path)">
      <path id="패스_9389" data-name="패스 9389" d="M0,0,678.653,3.673l3.674,678.435L3.674,678.435Z" transform="translate(-242.191 225.766) rotate(-43.3)" fill="url(#radial-gradient)"/>
    </g>
  </g>
  <g id="그룹_2984" data-name="그룹 2984" transform="translate(16.534 4.754)">
    <g id="그룹_2983" data-name="그룹 2983" clip-path="url(#clip-path-2)">
      <path id="패스_9391" data-name="패스 9391" d="M0,0,660.21,3.566l3.57,660.36L3.57,660.36Z" transform="matrix(0.736, -0.677, 0.677, 0.736, -237.273, 215.591)" fill="url(#radial-gradient-2)"/>
    </g>
  </g>
  <g id="그룹_2986" data-name="그룹 2986" transform="translate(61.838)">
    <g id="그룹_2985" data-name="그룹 2985" clip-path="url(#clip-path-3)">
      <path id="패스_9393" data-name="패스 9393" d="M0,0,619.736,3.354,623.11,626.4,3.374,623.051Z" transform="translate(-242.306 225.301) rotate(-43.244)" fill="url(#radial-gradient-3)"/>
    </g>
  </g>
</svg>
