<svg xmlns="http://www.w3.org/2000/svg" width="1920" height="364" viewBox="0 0 1920 364">
  <g id="diagram_coremajor" data-name="diagram/coremajor" transform="translate(0 -1537)">
    <path id="base" d="M0,0H798A182,182,0,0,1,980,182v0A182,182,0,0,1,798,364H0a0,0,0,0,1,0,0V0A0,0,0,0,1,0,0Z" transform="translate(0 1537)" fill="#501d83"/>
    <path id="base-2" data-name="base" d="M182,0H980a0,0,0,0,1,0,0V364a0,0,0,0,1,0,0H182A182,182,0,0,1,0,182v0A182,182,0,0,1,182,0Z" transform="translate(940 1537)" fill="#00a497"/>
    <path id="교차_1" data-name="교차 1" d="M23940,69a181.251,181.251,0,0,1,20-83.031,182.352,182.352,0,0,1,0,166.061A181.251,181.251,0,0,1,23940,69Z" transform="translate(-23000 1650)" fill="#fff"/>
  </g>
</svg>
