<svg xmlns="http://www.w3.org/2000/svg" xmlns:xlink="http://www.w3.org/1999/xlink" width="747" height="674" viewBox="0 0 747 674">
  <defs>
    <clipPath id="clip-path">
      <path id="base" d="M831.181,2135.069l-208.692-114.93c-3.122-1.8-5.654-.339-5.654,3.261v170.487a12.486,12.486,0,0,0,5.654,9.782L831.18,2318.6c3.123,1.8,5.654.342,5.654-3.261V2144.851a12.479,12.479,0,0,0-5.653-9.782" transform="translate(-615.834 -2013.369)" fill="#999"/>
    </clipPath>
    <linearGradient id="linear-gradient" x1="-0.027" y1="0.022" x2="0.714" y2="0.687" gradientUnits="objectBoundingBox">
      <stop offset="0" stop-color="#793f08"/>
      <stop offset="1" stop-color="#622412"/>
    </linearGradient>
    <linearGradient id="linear-gradient-2" x1="-0.127" y1="0.017" x2="0.673" y2="0.657" gradientUnits="objectBoundingBox">
      <stop offset="0" stop-color="#fed19d"/>
      <stop offset="1" stop-color="#ffac8d"/>
    </linearGradient>
    <linearGradient id="linear-gradient-3" x1="0.912" y1="0.376" x2="-0.459" y2="0.834" gradientUnits="objectBoundingBox">
      <stop offset="0" stop-color="#ffac8d"/>
      <stop offset="1" stop-color="#fee2a4"/>
    </linearGradient>
    <linearGradient id="linear-gradient-4" y1="0.015" x2="1" y2="0.953" gradientUnits="objectBoundingBox">
      <stop offset="0" stop-color="#fee3a4"/>
      <stop offset="1" stop-color="#ffae8d"/>
    </linearGradient>
    <linearGradient id="linear-gradient-5" x1="-0.019" y1="0.374" x2="1.015" y2="0.56" gradientUnits="objectBoundingBox">
      <stop offset="0" stop-color="#fee9a7"/>
      <stop offset="1" stop-color="#ffab8c"/>
    </linearGradient>
    <linearGradient id="linear-gradient-6" x2="1" y2="0.972" gradientUnits="objectBoundingBox">
      <stop offset="0" stop-color="#773d09"/>
      <stop offset="1" stop-color="#642711"/>
    </linearGradient>
  </defs>
  <g id="img_if_course" data-name="img/if/course" transform="translate(-7321 -137.167)">
    <g id="hand" transform="translate(7321 497.167)">
      <path id="패스_9554" data-name="패스 9554" d="M358.7,89.3c11.463-11.917,31.79-10.714,31.79-10.714H478.8a22.035,22.035,0,0,0,0-44.071H419.355c-1.037,0-6.484-.5-6.484-.5-11.933-.854-24.293-12.811-83.113-12.383S243.236,57.5,243.236,57.5L-19.914,314H161.74L278.461,191.864s14.057-20.149,54.5-20.582H477.207S516.783,170.2,543.817,139s94.074-97.063,94.074-97.063l.712-.609a23.972,23.972,0,0,0,.956-33.844c-9.067-9.609-22.977-10.006-33.784-.956L582.922,24.514,511.687,77.065S505.3,81.73,492.78,81.7H391.016s-19.423-.663-30.057,9.556Z" transform="translate(19.914 0)" fill="#424242"/>
      <path id="패스_9553" data-name="패스 9553" d="M18.778,28.317H4.125A4.128,4.128,0,0,1,0,24.186V4.133A4.128,4.128,0,0,1,4.125,0H18.778a9.5,9.5,0,0,1,9.488,9.5v9.307a9.5,9.5,0,0,1-9.488,9.5" transform="translate(479.37 42.238)" fill="#525252" opacity="0.5"/>
    </g>
    <g id="people" transform="translate(7847 133.167)">
      <path id="base-2" data-name="base" d="M831.181,2135.069l-208.692-114.93c-3.122-1.8-5.654-.339-5.654,3.261v170.487a12.486,12.486,0,0,0,5.654,9.782L831.18,2318.6c3.123,1.8,5.654.342,5.654-3.261V2144.851a12.479,12.479,0,0,0-5.653-9.782" transform="translate(-615.834 -2013.369)" fill="#999"/>
      <path id="mic" d="M1432.7,2112.629v-9.181a8.814,8.814,0,0,0-4-6.9c-2.209-1.275-4-.254-4,2.281v9.181a8.921,8.921,0,0,0,2.982,6.144v4.867l-2.109-1.218v1.669l6.255,3.611v-1.669l-2.109-1.218v-4.867c1.714.469,2.982-.572,2.982-2.7" transform="translate(-1223.561 -1966.341)" fill="#dbdbdb"/>
      <g id="mask" clip-path="url(#clip-path)">
        <g id="people-2" data-name="people" transform="translate(7 6)">
          <path id="hair" d="M942.727,2384.2l.028.016q.56.323,1.113.691c18.586,12.348,19.314,45.717,30.513,65.861,3.422,6.155,7.305,11.9,10.518,18.218a54.243,54.243,0,0,1,6.079,24.4v.191c-.027,13.553-5.759,24.514-13.6,27.937-5.281,2.306-12.257,1.924-19.072-1.969l-.234-.135a37.491,37.491,0,0,1-11.677-11.15c-4.987-7.154-8.6-15.929-11.054-24.543-3.482-12.222-5.475-24.978-7.777-37.067-2.45-12.867-4.389-25.855-4.165-37.7.169-8.911,1.6-16.866,5.036-22.981a7.592,7.592,0,0,1,6.97-3.969,14.99,14.99,0,0,1,7.317,2.2" transform="translate(-846.517 -2289.845)" fill="url(#linear-gradient)"/>
          <path id="hand-2" data-name="hand" d="M1251.411,2340.371c.939,1.025,1.938-.777,2.922-2.579.927-1.7,1.839-3.4,2.672-2.728,1.717,1.38-5.629,14.889-5.269,16.483s7.086,34.455,11.056,45.5c2.39-.144,4.717-.332,6.936-.544.892,7.236,2.949,14.3,4.121,21.57-7.7.066-16.538-.554-18.776-2.945-6.813-7.278-10.174-53.315-11.268-62.175s-4.007-12.164-5.667-17.445-7.4-10.225-6.782-11.615c.328-.736,2.033,1.266,3.745,3.269,1.517,1.774,3.039,3.549,3.613,3.418,1.223-.278-4.941-12.122-4.313-13.208.6-1.036,2.5,2.4,4.279,5.833,1.653,3.2,3.2,6.391,3.482,5.985.591-.841-5.181-16.119-3.12-15.586s5.016,16.115,6.074,15.833-3.619-14.664-1.623-15.894a.081.081,0,0,1,.043-.012c1.151,0,6.075,24.873,7.875,26.839" transform="translate(-1206.368 -2238.492)" fill="url(#linear-gradient-2)"/>
          <path id="hand-3" data-name="hand" d="M834.051,2595.52a.2.2,0,0,1,.171.128c2,3.534-2.682,12.515-1.624,14.019.523.742,1.508-1.849,2.619-4.441,1.139-2.656,2.412-5.313,3.455-4.379,2.061,1.847-3.711,10.46-3.12,11.984.269.694,1.662-.528,3.209-1.75,1.85-1.462,3.921-2.924,4.552-1.107s-5.535,6.538-4.313,8.228c.579.8,2.119.777,3.647.753,1.7-.026,3.385-.052,3.71,1.056a1.038,1.038,0,0,1,.046.281v.021c-.023,1.637-5.257.293-6.828,3.481-1.659,3.366-4.571,3.3-5.667,10.9s-4.455,49.753-11.268,49.164a2.726,2.726,0,0,1-1.014-.4h0c-3.282-1.892-11.26-10.083-18.091-18.029,1.172-5.921,3.561-10.908,4.453-17.115,2.219,2.775,4.546,5.65,6.936,8.553,3.97-6.461,10.7-31.56,11.057-32.734s-6.986-23.17-5.269-22.567,3.771,11.652,5.594,11.767c.873.055,2.479-4.426,4.034-8.906,1.546-4.453,3.04-8.906,3.713-8.906" transform="translate(-671.981 -2449.984)" fill="url(#linear-gradient-3)"/>
          <path id="shirt" d="M969.513,2634.336c3.552-1.21,10.97,2.916,10.97,2.916l11.9,5.412s5.324,3.826,10.769,8.744h0a69.7,69.7,0,0,1,7.72,8c4.357,4.661,9.949,10.881,15.127,17.355-.892,6.207-3.781,14.882-4.953,20.8-4.41-5.13-8.121-8.073-11.09-9.729l-6.887,39.888s-21.34-11.912-36-20c0,0-1.681-24.336-1.78-47.937a76.146,76.146,0,0,1-10.831.958c-1.172-7.274-4.061-19.285-4.953-26.521,2.93-.281,5.93-.382,8.735-.382,4.733,0,8.912.289,11.268.492" transform="translate(-888.074 -2478.727)" fill="#ce0019"/>
          <path id="neck" d="M1085.313,2550.354s.041.526.116,1.424c.363,4.313,1.867,18.821,3.152,23.391,1.423,5.062-5.659,12.713-12.607,8.771l-.119-.069a10.854,10.854,0,0,1-1.763-1.3,2.362,2.362,0,0,1-.591-1.791v-.082c.025-3.468,3.122-9.849,3.015-11-.255-2.73-.6-6.454-.952-10.271-.2-2.153-.4-4.336-.588-6.387-.537-5.83-.974-10.6-.974-10.6Z" transform="translate(-981.832 -2410.174)" fill="url(#linear-gradient-4)"/>
          <path id="face" d="M1063.329,2412.148l.077.044q.84.488,1.765,1.135s5.707,2.927,8.952,11.225a52.953,52.953,0,0,1,2.923,13.7,1.789,1.789,0,0,1,1.81.536c1.146,1.082,1.848,3.317,1.859,5.558v.106a9.846,9.846,0,0,1-.208,2c-.6,2.806-2.311,3.923-3.822,2.5l-.008-.01c-.809,4.149-2.571,7.511-5.758,8.912a7,7,0,0,1-6.554-.43l-.106-.061c-5.488-3.214-9.781-12.849-11.1-21.666-1.051-.768-2.254-2.946-2.978-5.586-.917-3.345-.711-6.129.459-6.216.571-.042,1.267.573,1.936,1.595-.021-7.9,1.06-14.907,6-14.907a9.87,9.87,0,0,1,4.757,1.57" transform="translate(-967.808 -2311.277)" fill="url(#linear-gradient-5)"/>
          <path id="mouth" d="M1099.569,2538.807l8.72,4.173s.044,4.462-3.782,2.779a8.543,8.543,0,0,1-4.938-6.952" transform="translate(-1007.874 -2407.449)" fill="#fff"/>
          <path id="hair-2" data-name="hair" d="M1060.975,2453.1s0-.083-.01-.234c.008.149.01.231.01.234m-16.68-40.542.07.04a33.331,33.331,0,0,1,10.627,10.159c4.839,7.23,5.868,27.69,5.974,30.109-.076-1.509-.717-9.915-5.6-13.923-5.371-4.411-12.04-26.9-12.04-26.9s.355.165.966.516" transform="translate(-946.499 -2312.373)" fill="url(#linear-gradient-6)"/>
        </g>
      </g>
      <path id="light" d="M239.779,4301.965l219,121v181l-317,68Z" transform="translate(-237.779 -4297.964)" fill="#fff" opacity="0.1"/>
    </g>
  </g>
</svg>
