<svg xmlns="http://www.w3.org/2000/svg" xmlns:xlink="http://www.w3.org/1999/xlink" width="340" height="136" viewBox="0 0 340 136">
  <defs>
    <clipPath id="clip-path">
      <rect id="mask" width="340" height="136" transform="translate(0)" fill="none"/>
    </clipPath>
  </defs>
  <g id="img_logo01" data-name="img/logo01" transform="translate(0)" clip-path="url(#clip-path)">
    <g id="symbol">
      <rect id="사각형_2503" data-name="사각형 2503" width="34.83" height="33.089" transform="translate(0 0.745)" fill="#00a597"/>
      <g id="그룹_3307" data-name="그룹 3307" transform="translate(33.946)">
        <path id="패스_29297" data-name="패스 29297" d="M193.557,180.578l-33.946,33.946v67.892h33.946V214.524H227.5V180.578Z" transform="translate(-159.611 -180.578)" fill="#501d83"/>
        <path id="패스_29298" data-name="패스 29298" d="M290.664,243.739H256.718v67.892H222.772v33.34A59.425,59.425,0,0,0,290.664,286.2Z" transform="translate(-188.826 -209.793)" fill="#501d83"/>
      </g>
    </g>
    <g id="txt" transform="translate(160.225 33.914)">
      <g id="그룹_3311" data-name="그룹 3311">
        <path id="패스_29299" data-name="패스 29299" d="M394.572,243.679h28.556v5.971h-10.69v28.893h-7.175V249.65h-10.69Z" transform="translate(-394.572 -243.679)" fill="#501d83"/>
        <path id="패스_29300" data-name="패스 29300" d="M444.389,278.543l12.087-34.864h9.294l12.039,34.864h-7.753l-2.624-8.042H454.814l-2.624,8.042ZM465.6,264.867l-4.358-13.338H461l-4.358,13.338Z" transform="translate(-417.615 -243.679)" fill="#501d83"/>
        <path id="패스_29301" data-name="패스 29301" d="M513.917,243.679h23.4v5.971H521.14v8.476h14.976V264.1H521.14v8.475h16.228v5.971H513.917Z" transform="translate(-449.775 -243.679)" fill="#501d83"/>
        <path id="패스_29302" data-name="패스 29302" d="M587.379,243.679V268c0,6.766-4.791,11.027-11.8,11.027-6.308,0-11.244-3.323-11.22-10.208h7.223a4.07,4.07,0,0,0,4.333,4.382c2.769,0,4.286-1.782,4.286-5.2V243.679Z" transform="translate(-473.108 -243.679)" fill="#501d83"/>
        <path id="패스_29303" data-name="패스 29303" d="M614.446,278.543l12.087-34.864h9.294l12.038,34.864h-7.753l-2.624-8.042H624.871l-2.624,8.042Zm21.212-13.676L631.3,251.528h-.241L626.7,264.867Z" transform="translate(-496.275 -243.679)" fill="#501d83"/>
        <path id="패스_29304" data-name="패스 29304" d="M683.974,243.679h23.4v5.971H691.2v8.476h14.976V264.1H691.2v8.475h16.228v5.971H683.974Z" transform="translate(-528.435 -243.679)" fill="#501d83"/>
      </g>
      <g id="그룹_3312" data-name="그룹 3312" transform="translate(5.766 46.272)">
        <path id="패스_29305" data-name="패스 29305" d="M418.514,343.831a4.4,4.4,0,0,1-8.79,0V330.322H405.3v13.863c0,4.675,3.51,7.8,8.819,7.787,5.294.014,8.849-3.112,8.849-7.787V330.322h-4.453Z" transform="translate(-405.3 -330.027)" fill="#501d83"/>
        <path id="패스_29306" data-name="패스 29306" d="M459.516,343.89h-.206l-9.32-13.568H446.1v21.354h4.424V338.109h.177l9.379,13.568h3.834V330.322h-4.395Z" transform="translate(-424.17 -330.028)" fill="#501d83"/>
        <rect id="사각형_2504" data-name="사각형 2504" width="4.424" height="21.354" transform="translate(43.998 0.295)" fill="#501d83"/>
        <path id="패스_29307" data-name="패스 29307" d="M509.558,346.6h-.206l-5.191-16.281h-4.955l7.4,21.354H512.3l7.374-21.354h-4.9Z" transform="translate(-448.736 -330.028)" fill="#501d83"/>
        <path id="패스_29308" data-name="패스 29308" d="M545.531,342.828H554.7v-3.657h-9.173V333.98h9.91v-3.657H541.107v21.354h14.364v-3.657h-9.94Z" transform="translate(-468.117 -330.028)" fill="#501d83"/>
        <path id="패스_29309" data-name="패스 29309" d="M591.383,337.284c0-4.232-2.787-6.96-7.639-6.96h-8.376v21.354h4.424V344.1h3.377l4.085,7.58h4.9l-4.543-8.3A6.171,6.171,0,0,0,591.383,337.284Zm-8.465,3.215h-3.127v-6.548h3.127c2.625.015,3.908,1.18,3.893,3.333C586.826,339.422,585.543,340.5,582.918,340.5Z" transform="translate(-483.965 -330.028)" fill="#501d83"/>
        <path id="패스_29310" data-name="패스 29310" d="M620.205,339.065l-1.917-.472c-1.843-.413-3.436-1.106-3.421-2.655.014-1.416,1.268-2.448,3.509-2.448,2.168,0,3.51.988,3.687,2.684h4.247c-.059-3.775-3.171-6.4-7.9-6.4-4.675,0-8.1,2.581-8.082,6.459,0,3.126,2.212,4.926,5.81,5.811l2.33.56c2.33.575,3.658,1.254,3.658,2.714,0,1.593-1.5,2.684-3.834,2.684-2.36,0-4.07-1.091-4.218-3.245h-4.307c.133,4.587,3.421,6.976,8.583,6.961,5.206.015,8.244-2.492,8.259-6.4C626.591,341.763,623.863,339.905,620.205,339.065Z" transform="translate(-499.875 -329.774)" fill="#501d83"/>
        <rect id="사각형_2505" data-name="사각형 2505" width="4.424" height="21.354" transform="translate(129.946 0.295)" fill="#501d83"/>
        <path id="패스_29311" data-name="패스 29311" d="M691.941,330.322l-4.9,9.2h-.207l-4.925-9.2H659.578v3.657h6.548v17.7h4.395v-17.7h6.548V330.57l7.646,13.5v7.61h4.424v-7.61l7.787-13.745Z" transform="translate(-522.916 -330.028)" fill="#501d83"/>
      </g>
    </g>
  </g>
</svg>
