<svg xmlns="http://www.w3.org/2000/svg" xmlns:xlink="http://www.w3.org/1999/xlink" width="400" height="400" viewBox="0 0 400 400">
  <defs>
    <clipPath id="clip-path">
      <path id="패스_832" data-name="패스 832" d="M181.725,0A181.725,181.725,0,1,1,0,181.725,181.725,181.725,0,0,1,181.725,0Z" transform="translate(18 855)" fill="none" stroke="red" stroke-width="6"/>
    </clipPath>
    <clipPath id="clip-path-2">
      <rect id="사각형_217" data-name="사각형 217" width="342.891" height="220.258" fill="none" stroke="#707070" stroke-width="6"/>
    </clipPath>
    <clipPath id="clip-path-3">
      <rect id="사각형_219" data-name="사각형 219" width="323.391" height="182.006" fill="none" stroke="#fff" stroke-width="6"/>
    </clipPath>
    <clipPath id="clip-path-4">
      <rect id="사각형_218" data-name="사각형 218" width="85.402" height="109.465" fill="none" stroke="#fff" stroke-width="1"/>
    </clipPath>
    <clipPath id="clip-path-5">
      <rect id="사각형_218-2" data-name="사각형 218" width="85.402" height="109.465" transform="translate(0 0)" fill="none" stroke="#fff" stroke-width="1"/>
    </clipPath>
  </defs>
  <g id="토론" transform="translate(0 -837)">
    <rect id="사각형_199" data-name="사각형 199" width="400" height="400" transform="translate(0 837)" fill="#d6dae1" opacity="0"/>
    <g id="마스크_그룹_7" data-name="마스크 그룹 7" clip-path="url(#clip-path)">
      <g id="그룹_182" data-name="그룹 182" transform="translate(163.108 877.636)">
        <g id="그룹_181" data-name="그룹 181" transform="translate(-130 100.444)" clip-path="url(#clip-path-2)">
          <g id="그룹_187" data-name="그룹 187" transform="translate(5.74 3.598)">
            <g id="그룹_186" data-name="그룹 186" transform="translate(0 0)" clip-path="url(#clip-path-3)">
              <path id="패스_843" data-name="패스 843" d="M308.615,55.6A32.627,32.627,0,0,0,318.647,31.85c0-17.568-13.417-31.85-29.9-31.85s-29.9,14.282-29.9,31.85A32.525,32.525,0,0,0,270.489,57a20.221,20.221,0,0,0-12.8,18.779v1.952L248.918,106.1H197.326c-4.892-.222-10.057,2.026-14.109,6.2a21.905,21.905,0,0,0-6.35,13.763,17.073,17.073,0,0,0,3.089,10.353H143.411a17.073,17.073,0,0,0,3.089-10.353,21.777,21.777,0,0,0-6.35-13.763c-4.052-4.176-9.192-6.375-13.837-6.2H74.448L65.676,77.734V75.782A20.221,20.221,0,0,0,52.877,57,32.525,32.525,0,0,0,64.515,31.85C64.515,14.282,51.1,0,34.617,0s-29.9,14.282-29.9,31.85A32.723,32.723,0,0,0,14.751,55.6,15.166,15.166,0,0,0,0,70.742V181.907H10.106V70.742a5.051,5.051,0,0,1,5.041-5.065H45.464A10.118,10.118,0,0,1,55.57,75.782v2.446l-.3.074.3.939v3.187l.939-.124L60.636,95.6l5.041,16.333,1.334,4.275h59.549c1.952-.148,4.324,1.062,6.325,3.138a11.988,11.988,0,0,1,3.533,7.24c.1,1.952-1.062,4.324-3.138,6.3a11.925,11.925,0,0,1-6.968,3.533H60.562a8.069,8.069,0,0,1-4.991-1.433c-2.026-1.483-3.706-4.4-5.263-10.081L38.546,84.653l-1.631-5.609-9.686,2.842L40.6,127.646c1.359,4.991,4.324,15.838,14.974,18.359v35.9H65.676V146.524h11a15.569,15.569,0,0,0-.865,5.065v15.147h5.164l.371,15.27,10.106-.222-.124-4.942-.247-10.106h141.36v15.171h10.106V166.736h4.769V161.7c0-1.68.074-3.286.148-4.843.148-3.509.3-7.091-.494-10.328H257.69v35.383H267.8V145.98c10.674-2.52,13.615-13.343,14.949-18.26l13.417-45.835-9.711-2.842-1.631,5.609L273.034,125c-1.557,5.683-3.187,8.574-5.238,10.032a8.374,8.374,0,0,1-5.041,1.384H197.3a12.067,12.067,0,0,1-7.215-3.533c-2.076-1.977-3.237-4.349-3.138-6.3a12.127,12.127,0,0,1,3.533-7.24,9.052,9.052,0,0,1,6.573-3.138h59.3l1.334-4.275L262.755,95.6l4.1-13.293.939.124V79.242l.3-.939-.3-.074V75.782A10.134,10.134,0,0,1,277.9,65.676h30.318a5.072,5.072,0,0,1,5.065,5.065V181.907h10.081V70.742A15.166,15.166,0,0,0,308.615,55.6M268.957,31.85c0-11.984,8.871-21.744,19.792-21.744s19.792,9.76,19.792,21.744-8.871,21.744-19.792,21.744-19.792-9.76-19.792-21.744M236.613,147.809c1.087,1.112.914,4.917.741,8.6v.222H85.913v-5.041a5.051,5.051,0,0,1,5.041-5.065H230.559c4.373,0,5.683.89,6.054,1.285m-202-137.7c10.921,0,19.792,9.76,19.792,21.744S45.539,53.594,34.617,53.594,14.825,43.834,14.825,31.85,23.7,10.106,34.617,10.106" transform="translate(0 -0.01)" stroke="#fff" stroke-width="6"/>
            </g>
          </g>
        </g>
        <g id="그룹_184" data-name="그룹 184" transform="matrix(0.996, -0.087, 0.087, 0.996, 33.495, 28.293)">
          <g id="그룹_183" data-name="그룹 183" transform="translate(0 0)" clip-path="url(#clip-path-4)">
            <path id="패스_842" data-name="패스 842" d="M31.688,66.911a8.046,8.046,0,0,1,4.37,5.279l.543,2.082,1.364,5.25,1.364,5.235,1.364,5.25,2.727,10.485,3.2-.821,5.352,9.8,19.825-5.147-.1-11.174,3.2-.821-2.727-10.5L70.8,76.589l-1.364-5.25-1.364-5.25-.528-2.082a7.912,7.912,0,0,1,1.188-6.657,29.807,29.807,0,1,0-37.041,9.561M20.4,43.742A24.39,24.39,0,1,1,64.315,54.2a13.346,13.346,0,0,0-2.024,11.174l.543,2.082-10.5,2.727L49.461,59.066,43.947,52.76l14.121-3.666L56.7,43.859,34.093,49.725,44.534,61.676,47.1,71.545l-5.25,1.364-.543-2.082a13.505,13.505,0,0,0-7.288-8.813A24.469,24.469,0,0,1,20.4,43.742m45.942,56.4L54.7,103.16l-2.669-4.9,14.253-3.71Zm1.936-11.7L47.305,93.892l-1.364-5.25,20.984-5.455Zm-2.713-10.5L44.578,83.393l-1.364-5.235,5.25-1.364L53.7,75.43,64.2,72.7ZM38.272,5.25l-5.25,1.364-1.364-5.25L36.909,0ZM6.613,29.929l-5.25,1.364L0,26.043l5.25-1.364ZM22.48,73.744l-5.25,1.364-1.364-5.25,5.25-1.364ZM69.154,5.616,63.919,6.98,62.556,1.745,67.805.381Zm9.18,67.615-1.364-5.25,5.235-1.364,1.364,5.25ZM78.8,53.508l5.25-1.364,1.364,5.25-5.25,1.364Z" transform="translate(0 -0.001)" stroke="#fff" stroke-width="1"/>
          </g>
        </g>
        <g id="그룹_185" data-name="그룹 185" transform="matrix(-0.996, -0.087, 0.087, -0.996, 28.572, 137.342)">
          <g id="그룹_183-2" data-name="그룹 183" transform="translate(0 0)" clip-path="url(#clip-path-5)">
            <path id="패스_842-2" data-name="패스 842" d="M31.688,42.554a8.046,8.046,0,0,0,4.37-5.279l.543-2.082,1.364-5.25,1.364-5.235,1.364-5.25L43.419,8.974l3.2.821L51.968,0,71.794,5.147l-.1,11.174,3.2.821-2.727,10.5L70.8,32.876l-1.364,5.25-1.364,5.25-.528,2.082a7.912,7.912,0,0,0,1.188,6.657,29.807,29.807,0,1,1-37.041-9.561M20.4,65.723A24.39,24.39,0,1,0,64.315,55.268a13.346,13.346,0,0,1-2.024-11.174l.543-2.082-10.5-2.727L49.461,50.4,43.947,56.7l14.121,3.666L56.7,65.606,34.093,59.74,44.534,47.789,47.1,37.921l-5.25-1.364-.543,2.082a13.505,13.505,0,0,1-7.288,8.813A24.469,24.469,0,0,0,20.4,65.723m45.942-56.4L54.7,6.305l-2.669,4.9,14.253,3.71Zm1.936,11.7L47.305,15.573l-1.364,5.25,20.984,5.455Zm-2.713,10.5L44.578,26.072l-1.364,5.235,5.25,1.364L53.7,34.035l10.5,2.727ZM38.272,104.215l-5.25-1.364-1.364,5.25,5.25,1.364ZM6.613,79.536l-5.25-1.364L0,83.422l5.25,1.364ZM22.48,35.721l-5.25-1.364-1.364,5.25,5.25,1.364Zm46.675,68.128-5.235-1.364-1.364,5.235,5.25,1.364Zm9.179-67.615-1.364,5.25L82.2,42.848l1.364-5.25ZM78.8,55.957l5.25,1.364,1.364-5.25-5.25-1.364Z" transform="translate(0 0.001)" stroke="#fff" stroke-width="1"/>
          </g>
        </g>
      </g>
    </g>
    <g id="패스_841" data-name="패스 841" transform="translate(18 855)" fill="none">
      <path d="M181.725,0A181.725,181.725,0,1,1,0,181.725,181.725,181.725,0,0,1,181.725,0Z" stroke="none"/>
      <path d="M 181.724853515625 6 C 84.82986450195312 6 6 84.82986450195312 6 181.724853515625 C 6 278.6198425292969 84.82986450195312 357.44970703125 181.724853515625 357.44970703125 C 278.6198425292969 357.44970703125 357.44970703125 278.6198425292969 357.44970703125 181.724853515625 C 357.44970703125 84.82986450195312 278.6198425292969 6 181.724853515625 6 M 181.724853515625 0 C 282.0886840820312 0 363.44970703125 81.36102294921875 363.44970703125 181.724853515625 C 363.44970703125 282.0886840820312 282.0886840820312 363.44970703125 181.724853515625 363.44970703125 C 81.36102294921875 363.44970703125 0 282.0886840820312 0 181.724853515625 C 0 81.36102294921875 81.36102294921875 0 181.724853515625 0 Z" stroke="none" fill="red"/>
    </g>
  </g>
</svg>
