<svg xmlns="http://www.w3.org/2000/svg" xmlns:xlink="http://www.w3.org/1999/xlink" width="564" height="100" viewBox="0 0 564 100">
  <defs>
    <clipPath id="clip-path">
      <rect id="사각형_2505" data-name="사각형 2505" width="512.7" height="99.557" transform="translate(0 0.001)" fill="#501d83"/>
    </clipPath>
  </defs>
  <g id="logo_intro_05" transform="translate(-100 -1339.021)">
    <rect id="base" width="564" height="100" transform="translate(100 1339.022)" fill="#fff"/>
    <g id="business_innovation" data-name="business innovation" transform="translate(100 1339.022)">
      <line id="선_1036" data-name="선 1036" y2="49.591" transform="translate(267.322 25.077)" fill="none" stroke="#501d83" stroke-width="2"/>
      <g id="그룹_3204" data-name="그룹 3204" transform="translate(0 -0.001)">
        <g id="그룹_3203" data-name="그룹 3203" clip-path="url(#clip-path)">
          <path id="패스_29589" data-name="패스 29589" d="M117.479,24.866h20.937v4.378h-7.838V50.428h-5.261V29.244h-7.838Z" fill="#501d83"/>
          <path id="패스_29590" data-name="패스 29590" d="M137.109,50.428l8.862-25.562h6.815l8.826,25.562h-5.684L154,44.532h-9.251l-1.924,5.9ZM152.662,40.4l-3.2-9.78h-.177L146.1,40.4Z" fill="#501d83"/>
          <path id="패스_29591" data-name="패스 29591" d="M164.508,24.866h17.159v4.378H169.8v6.214h10.981v4.378H169.8V46.05h11.9v4.378H164.508Z" fill="#501d83"/>
          <path id="패스_29592" data-name="패스 29592" d="M201.263,24.866V42.7c0,4.961-3.513,8.085-8.65,8.085-4.625,0-8.244-2.436-8.227-7.485h5.3a2.984,2.984,0,0,0,3.178,3.213c2.03,0,3.142-1.306,3.142-3.813V24.866Z" fill="#501d83"/>
          <path id="패스_29593" data-name="패스 29593" d="M204.122,50.428l8.862-25.562H219.8l8.826,25.562h-5.684l-1.924-5.9h-9.251l-1.924,5.9ZM219.675,40.4l-3.2-9.78H216.3l-3.2,9.78Z" fill="#501d83"/>
          <path id="패스_29594" data-name="패스 29594" d="M231.521,24.866H248.68v4.378H236.817v6.214H247.8v4.378H236.817V46.05h11.9v4.378h-17.2Z" fill="#501d83"/>
          <path id="패스_29595" data-name="패스 29595" d="M131.4,68.914a3.224,3.224,0,0,1-6.445,0V59.009h-3.243V69.174c0,3.427,2.573,5.72,6.466,5.709,3.882.011,6.488-2.282,6.488-5.709V59.009H131.4Z" fill="#501d83"/>
          <path id="패스_29596" data-name="패스 29596" d="M147.622,68.957h-.151l-6.834-9.948h-2.855V74.666h3.244V64.718h.13l6.877,9.948h2.811V59.009h-3.222Z" fill="#501d83"/>
          <rect id="사각형_2500" data-name="사각형 2500" width="3.244" height="15.657" transform="translate(153.966 59.009)" fill="#501d83"/>
          <path id="패스_29597" data-name="패스 29597" d="M166.3,70.946h-.151l-3.807-11.937H158.71l5.428,15.657h4.174l5.407-15.657h-3.59Z" fill="#501d83"/>
          <path id="패스_29598" data-name="패스 29598" d="M178.466,68.178h6.726V65.5h-6.726V61.69h7.266V59.009h-10.51V74.666h10.532V71.984h-7.288Z" fill="#501d83"/>
          <path id="패스_29599" data-name="패스 29599" d="M200.466,64.113c0-3.1-2.044-5.1-5.6-5.1h-6.142V74.666h3.244V69.108h2.476l3,5.558h3.59L197.7,68.579a4.525,4.525,0,0,0,2.769-4.466m-6.207,2.357H191.97v-4.8h2.292c1.925.011,2.865.865,2.855,2.444.01,1.568-.93,2.357-2.855,2.357" fill="#501d83"/>
          <path id="패스_29600" data-name="패스 29600" d="M209.933,65.605l-1.406-.346c-1.351-.3-2.519-.811-2.508-1.946.011-1.038.93-1.795,2.573-1.795,1.59,0,2.574.724,2.7,1.968h3.115c-.044-2.768-2.325-4.693-5.8-4.693-3.428,0-5.936,1.892-5.926,4.736,0,2.292,1.622,3.611,4.261,4.26l1.708.411c1.709.422,2.682.919,2.682,1.99,0,1.168-1.1,1.968-2.812,1.968-1.73,0-2.984-.8-3.092-2.379H202.27c.1,3.363,2.509,5.114,6.294,5.1,3.817.01,6.044-1.828,6.055-4.693-.011-2.606-2.011-3.969-4.693-4.585" fill="#501d83"/>
          <rect id="사각형_2501" data-name="사각형 2501" width="3.244" height="15.657" transform="translate(216.983 59.009)" fill="#501d83"/>
          <path id="패스_29601" data-name="패스 29601" d="M245.636,59.009l-3.59,6.747H241.9l-3.612-6.747H221.907v2.682h4.8V74.666h3.222V61.691h4.8v-2.5l5.607,9.9V74.67h3.244V69.087l5.709-10.078Z" fill="#501d83"/>
          <rect id="사각형_2502" data-name="사각형 2502" width="24.89" height="24.89" fill="#009b88"/>
          <path id="패스_29602" data-name="패스 29602" d="M49.779,0,24.89,24.889V74.668H49.779V24.889H74.668V0Z" fill="#321f78"/>
          <path id="패스_29603" data-name="패스 29603" d="M99.558,24.89H74.668V74.669H49.779V99.114A44.04,44.04,0,0,0,56,99.558,43.557,43.557,0,0,0,99.558,56.022Z" fill="#321f78"/>
          <path id="패스_29604" data-name="패스 29604" d="M49.779,49.779V24.889h24.89Z" fill="#ff6727"/>
          <rect id="사각형_2503" data-name="사각형 2503" width="24.89" height="24.89" fill="#009b88"/>
          <path id="패스_29605" data-name="패스 29605" d="M49.779,0,24.89,24.889V74.668H49.779V24.889H74.668V0Z" fill="#321f78"/>
          <path id="패스_29606" data-name="패스 29606" d="M99.558,24.89H74.668V74.669H49.779V99.114A44.04,44.04,0,0,0,56,99.558,43.557,43.557,0,0,0,99.558,56.022Z" fill="#321f78"/>
          <rect id="사각형_2504" data-name="사각형 2504" width="24.89" height="24.89" fill="#00a497"/>
          <path id="패스_29607" data-name="패스 29607" d="M49.779,0,24.89,24.889V74.668H49.779V24.889H74.668V0Z" fill="#501d83"/>
          <path id="패스_29608" data-name="패스 29608" d="M99.558,24.89H74.668V74.669H49.779V99.114A44.04,44.04,0,0,0,56,99.558,43.557,43.557,0,0,0,99.558,56.022Z" fill="#501d83"/>
          <path id="패스_31406" data-name="패스 31406" d="M15.576-19.536V2.04h2.976V-19.536ZM1.824-3H12.336V-17.784H9.408v5.256H4.776v-5.256H1.824ZM4.776-5.376V-10.2H9.408v4.824ZM21.744-3.048V-.6H41.208V-3.048Zm.768-5.52,1.176,2.376a10.621,10.621,0,0,0,7.776-5.184c1.368,2.568,4.128,4.416,7.872,5.088l1.152-2.376C35.712-9.36,33-12.216,33-15.264v-.048h6.528v-2.376H23.352v2.376H29.88v.048C29.88-12.216,27.192-9.288,22.512-8.568Zm35.16-10.944v21.5h2.952v-21.5ZM43.848-3.312h1.9A51.156,51.156,0,0,0,56.256-4.32L55.92-6.792a49.439,49.439,0,0,1-9.12.936V-17.448H43.848ZM71.736-18.264v1.56c0,3.144-2.832,6.552-7.56,7.368l1.272,2.472a11.079,11.079,0,0,0,7.872-5.592,10.922,10.922,0,0,0,7.848,5.592l1.3-2.472c-4.776-.816-7.56-4.152-7.56-7.368v-1.56ZM63.7-.672H83.16V-3.1H63.7Zm21-16.968v2.352H96.528V-17.64H92.256v-2.04h-3v2.04ZM85.7-10.416c0,2.376,2.16,4.128,5.016,4.128,2.9,0,5.04-1.752,5.04-4.128s-2.136-4.1-5.04-4.1C87.864-14.52,85.7-12.792,85.7-10.416Zm2.28,7.944H99.6V2.016h3v-6.84H87.984Zm.5-7.944c0-1.176.936-1.848,2.232-1.848,1.32,0,2.28.672,2.28,1.848s-.96,1.848-2.28,1.848C89.424-8.568,88.488-9.24,88.488-10.416ZM96.7-8.16h2.9v2.328h3V-19.488h-3v4.848H96.744v2.352H99.6v1.776H96.7Zm23.76-11.328V-3.816h3V-19.488Zm-14.9,10.416,1.536,2.352a8.643,8.643,0,0,0,5.16-4.872A8.264,8.264,0,0,0,117.24-7.08l1.536-2.376a6.871,6.871,0,0,1-5.04-6.744v-2.136h-3.024V-16.2A7.4,7.4,0,0,1,105.552-9.072Zm3.624,10.68h14.832V-.768H112.152V-5.3h-2.976Zm17.448-19.2v2.352h12.648v-2.352h-4.848v-2.04h-2.976v2.04Zm1.056,7.032c0,2.376,2.16,3.96,5.28,3.96,3.1,0,5.256-1.584,5.256-3.96s-2.16-3.96-5.256-3.96C129.84-14.52,127.68-12.936,127.68-10.56Zm1.512,7.824H140.52V2.016H143.5V-5.112h-14.3Zm1.344-7.824c0-1.128.96-1.7,2.424-1.7,1.416,0,2.4.576,2.4,1.7,0,1.1-.984,1.728-2.4,1.728C131.5-8.832,130.536-9.456,130.536-10.56Zm9.984,4.536H143.5V-11.5h2.9V-13.92h-2.9v-5.568H140.52Zm7.08-1.032v2.328h8.16V2.016h2.976V-4.728h8.328V-7.056Zm2.232-2.112h14.9v-9.48h-2.928v2.472H152.76v-2.472h-2.928Zm2.928-2.376v-2.3h9.048v2.3Z" transform="translate(284 59)" fill="#501d83"/>
        </g>
      </g>
    </g>
  </g>
</svg>
