<svg id="school_of_innovation_foundations" data-name="school of innovation foundations" xmlns="http://www.w3.org/2000/svg" width="304" height="138.532" viewBox="0 0 304 138.532">
  <g id="그룹_489" data-name="그룹 489">
    <g id="그룹_476" data-name="그룹 476" transform="translate(139.614 29.551)">
      <g id="그룹_475" data-name="그룹 475">
        <g id="그룹_473" data-name="그룹 473">
          <path id="패스_1534" data-name="패스 1534" d="M959.6,2018.089h24.881v5.2h-9.313v25.177h-6.253v-25.177H959.6Z" transform="translate(-959.603 -2018.089)" fill="#501d83"/>
          <path id="패스_1535" data-name="패스 1535" d="M970.487,2048.469l10.531-30.379h8.1l10.488,30.379h-6.754l-2.287-7.007H979.571l-2.287,7.007Zm18.483-11.917-3.8-11.622h-.208l-3.8,11.622Z" transform="translate(-947.157 -2018.089)" fill="#501d83"/>
          <path id="패스_1536" data-name="패스 1536" d="M985.678,2018.089h20.391v5.2h-14.1v7.387h13.05v5.2h-13.05v7.384h14.141v5.2H985.678Z" transform="translate(-929.787 -2018.089)" fill="#501d83"/>
          <path id="패스_1537" data-name="패스 1537" d="M1016.756,2018.089v21.19c0,5.895-4.176,9.607-10.28,9.607-5.5,0-9.8-2.894-9.776-8.9h6.293a3.547,3.547,0,0,0,3.777,3.819c2.411,0,3.734-1.552,3.734-4.531v-21.19Z" transform="translate(-917.185 -2018.089)" fill="#501d83"/>
          <path id="패스_1538" data-name="패스 1538" d="M1007.641,2048.469l10.533-30.379h8.1l10.49,30.379h-6.756l-2.287-7.007h-10.994l-2.287,7.007Zm18.483-11.917-3.8-11.622h-.21l-3.8,11.622Z" transform="translate(-904.672 -2018.089)" fill="#501d83"/>
          <path id="패스_1539" data-name="패스 1539" d="M1022.832,2018.089h20.391v5.2h-14.1v7.387h13.05v5.2h-13.05v7.384h14.141v5.2h-20.434Z" transform="translate(-887.302 -2018.089)" fill="#501d83"/>
        </g>
        <g id="그룹_474" data-name="그룹 474" transform="translate(5.024 40.319)">
          <path id="패스_1540" data-name="패스 1540" d="M973.462,2048.789a3.833,3.833,0,0,1-7.661,0v-11.77h-3.854V2049.1c0,4.075,3.059,6.8,7.684,6.786,4.613.013,7.71-2.711,7.71-6.786v-12.079h-3.88Z" transform="translate(-961.947 -2036.762)" fill="#501d83"/>
          <path id="패스_1541" data-name="패스 1541" d="M982.554,2048.841h-.18l-8.121-11.822H970.86v18.607h3.855V2043.8h.154l8.173,11.823h3.341v-18.607h-3.83Z" transform="translate(-951.755 -2036.762)" fill="#501d83"/>
          <rect id="사각형_152" data-name="사각형 152" width="3.855" height="18.607" transform="translate(38.338 0.257)" fill="#501d83"/>
          <path id="패스_1542" data-name="패스 1542" d="M991.484,2051.206h-.18l-4.523-14.187h-4.317l6.451,18.607h4.96l6.425-18.607h-4.266Z" transform="translate(-938.487 -2036.762)" fill="#501d83"/>
          <path id="패스_1543" data-name="패스 1543" d="M995.473,2047.916h7.993v-3.187h-7.993v-4.523h8.635v-3.187H991.618v18.607h12.516v-3.187h-8.661Z" transform="translate(-928.019 -2036.762)" fill="#501d83"/>
          <path id="패스_1544" data-name="패스 1544" d="M1013.059,2043.085c0-3.688-2.428-6.066-6.658-6.066h-7.3v18.607h3.856v-6.606h2.941l3.56,6.606h4.265l-3.957-7.234A5.378,5.378,0,0,0,1013.059,2043.085Zm-7.376,2.8h-2.724v-5.7h2.724c2.287.013,3.4,1.027,3.391,2.9C1009.087,2044.948,1007.971,2045.885,1005.683,2045.885Z" transform="translate(-919.46 -2036.762)" fill="#501d83"/>
          <path id="패스_1545" data-name="패스 1545" d="M1015.717,2045l-1.67-.412c-1.608-.36-2.994-.964-2.981-2.313.013-1.234,1.1-2.133,3.057-2.133,1.89,0,3.059.86,3.213,2.338h3.7c-.052-3.29-2.763-5.577-6.889-5.577-4.073,0-7.054,2.249-7.041,5.629,0,2.725,1.927,4.291,5.063,5.063l2.03.489c2.032.5,3.187,1.091,3.187,2.364,0,1.387-1.31,2.338-3.34,2.338-2.058,0-3.547-.952-3.676-2.827h-3.753c.116,4,2.981,6.079,7.479,6.066,4.538.013,7.185-2.171,7.2-5.577C1021.282,2047.346,1018.9,2045.728,1015.717,2045Z" transform="translate(-910.866 -2036.899)" fill="#501d83"/>
          <rect id="사각형_153" data-name="사각형 153" width="3.855" height="18.607" transform="translate(113.229 0.257)" fill="#501d83"/>
          <path id="패스_1546" data-name="패스 1546" d="M1045.7,2037.019l-4.266,8.019h-.18l-4.292-8.019H1017.5v3.187h5.706v15.42h3.829v-15.42h5.706v-2.971L1039.4,2049v6.631h3.855V2049l6.785-11.977Z" transform="translate(-898.421 -2036.762)" fill="#501d83"/>
        </g>
      </g>
      <g id="그룹_490" data-name="그룹 490" transform="translate(5.629 76.306)">
        <path id="패스_1554" data-name="패스 1554" d="M966.985,2055.975c-1.237,0-1.929.568-1.938,1.352-.009.853.87,1.237,1.888,1.464l1.059.261c2.019.463,3.526,1.492,3.535,3.453-.009,2.159-1.685,3.543-4.561,3.535-2.849.009-4.667-1.312-4.739-3.845h2.379c.082,1.189,1.025,1.792,2.328,1.792,1.286,0,2.118-.6,2.118-1.481,0-.806-.733-1.181-2.021-1.5l-1.284-.309c-1.989-.491-3.209-1.483-3.209-3.209-.009-2.144,1.88-3.566,4.463-3.566,2.613,0,4.332,1.449,4.364,3.532h-2.345C968.923,2056.522,968.184,2055.975,966.985,2055.975Z" transform="translate(-962.229 -2053.418)" fill="#501d83"/>
        <path id="패스_1555" data-name="패스 1555" d="M967.128,2059.882c-.009-2.7,1.653-4.562,4.332-4.562,2.281,0,3.828,1.327,3.925,3.357h-2.261a1.619,1.619,0,0,0-1.629-1.483c-1.157.008-1.925.977-1.925,2.658,0,1.708.75,2.686,1.925,2.686a1.6,1.6,0,0,0,1.629-1.466h2.261c-.1,2-1.58,3.38-3.925,3.389C968.746,2064.452,967.12,2062.579,967.128,2059.882Z" transform="translate(-956.627 -2051.82)" fill="#501d83"/>
        <path id="패스_1556" data-name="패스 1556" d="M974.094,2065.792h-2.411V2054h2.347v4.5h.1a2.61,2.61,0,0,1,2.639-1.663c1.85,0,3.063,1.248,3.063,3.325v5.635h-2.411v-5.213a1.529,1.529,0,0,0-1.595-1.743,1.666,1.666,0,0,0-1.728,1.841Z" transform="translate(-951.419 -2053.332)" fill="#501d83"/>
        <path id="패스_1557" data-name="패스 1557" d="M976.186,2059.882c-.009-2.727,1.663-4.562,4.334-4.562s4.341,1.835,4.349,4.562c-.009,2.737-1.67,4.57-4.349,4.578C977.849,2064.452,976.177,2062.62,976.186,2059.882Zm4.351,2.705c1.228-.009,1.878-1.158,1.874-2.705s-.645-2.718-1.874-2.718c-1.262,0-1.908,1.165-1.908,2.718S979.275,2062.579,980.537,2062.587Z" transform="translate(-946.269 -2051.82)" fill="#501d83"/>
        <path id="패스_1558" data-name="패스 1558" d="M980.781,2059.882c-.009-2.727,1.661-4.562,4.332-4.562s4.343,1.835,4.351,4.562c-.009,2.737-1.672,4.57-4.351,4.578C982.442,2064.452,980.772,2062.62,980.781,2059.882Zm4.349,2.705c1.228-.009,1.88-1.158,1.874-2.705s-.645-2.718-1.874-2.718c-1.262,0-1.906,1.165-1.906,2.718S983.868,2062.579,985.13,2062.587Z" transform="translate(-941.015 -2051.82)" fill="#501d83"/>
        <path id="패스_1559" data-name="패스 1559" d="M987.954,2065.792h-2.411V2054h2.411Z" transform="translate(-935.57 -2053.332)" fill="#501d83"/>
        <path id="패스_1560" data-name="패스 1560" d="M989.172,2059.882c-.009-2.727,1.661-4.562,4.332-4.562s4.341,1.835,4.349,4.562c-.009,2.737-1.67,4.57-4.349,4.578C990.833,2064.452,989.163,2062.62,989.172,2059.882Zm4.349,2.705c1.228-.009,1.88-1.158,1.874-2.705s-.645-2.718-1.874-2.718c-1.262,0-1.908,1.165-1.908,2.718S992.259,2062.579,993.521,2062.587Z" transform="translate(-931.42 -2051.82)" fill="#501d83"/>
        <path id="패스_1561" data-name="패스 1561" d="M999.024,2059.051h-1.76v7.037h-2.411v-7.037H993.6v-1.807h1.254v-.668a2.612,2.612,0,0,1,2.9-2.834,6.258,6.258,0,0,1,1.434.148v1.822c-.349-.03-.6-.038-.733-.047-.774.009-1.19.3-1.19,1.042v.538h1.76Z" transform="translate(-926.358 -2053.627)" fill="#501d83"/>
        <path id="패스_1562" data-name="패스 1562" d="M1001.056,2065.792h-2.444V2054h2.444Z" transform="translate(-920.625 -2053.332)" fill="#501d83"/>
        <path id="패스_1563" data-name="패스 1563" d="M1003.069,2064.281h-2.411v-8.844h2.3v1.547h.1a2.678,2.678,0,0,1,2.656-1.663c1.85,0,3.052,1.262,3.046,3.325v5.635h-2.394v-5.213a1.542,1.542,0,0,0-1.6-1.743,1.65,1.65,0,0,0-1.693,1.841Z" transform="translate(-918.286 -2051.82)" fill="#501d83"/>
        <path id="패스_1564" data-name="패스 1564" d="M1007.724,2064.281h-2.411v-8.844h2.3v1.547h.1a2.678,2.678,0,0,1,2.656-1.663c1.85,0,3.052,1.262,3.048,3.325v5.635h-2.4v-5.213a1.542,1.542,0,0,0-1.6-1.743,1.65,1.65,0,0,0-1.694,1.841Z" transform="translate(-912.963 -2051.82)" fill="#501d83"/>
        <path id="패스_1565" data-name="패스 1565" d="M1009.8,2059.882c-.007-2.727,1.663-4.562,4.334-4.562s4.341,1.835,4.349,4.562c-.009,2.737-1.67,4.57-4.349,4.578C1011.464,2064.452,1009.794,2062.62,1009.8,2059.882Zm4.351,2.705c1.228-.009,1.88-1.158,1.873-2.705s-.645-2.718-1.873-2.718c-1.263,0-1.908,1.165-1.908,2.718S1012.89,2062.579,1014.152,2062.587Z" transform="translate(-907.831 -2051.82)" fill="#501d83"/>
        <path id="패스_1566" data-name="패스 1566" d="M1019.9,2064.219h-2.7l-3.1-8.844h2.542l1.856,6.351h.1l1.856-6.351h2.559Z" transform="translate(-902.915 -2051.759)" fill="#501d83"/>
        <path id="패스_1567" data-name="패스 1567" d="M1021.787,2059.084c.635-.04,1.824-.1,2.2-.116v-.716c-.009-.739-.512-1.164-1.417-1.17a1.325,1.325,0,0,0-1.464.978h-2.3c.148-1.533,1.483-2.74,3.826-2.74,1.933,0,3.755.866,3.749,3v5.961H1024.1v-1.222h-.064a2.716,2.716,0,0,1-2.592,1.385c-1.693.009-2.939-.887-2.947-2.639C1018.505,2059.835,1020.085,2059.19,1021.787,2059.084Zm.341,3.7a1.71,1.71,0,0,0,1.856-1.664v-.641c-.366.015-1.4.073-1.8.1-.84.075-1.37.472-1.37,1.155S1021.356,2062.774,1022.128,2062.782Z" transform="translate(-897.887 -2051.82)" fill="#501d83"/>
        <path id="패스_1568" data-name="패스 1568" d="M1028.036,2058.312h-1.663v4.317c-.009.709.341.881.832.894.244,0,.667-.021.96-.047v1.908a7.875,7.875,0,0,1-1.286.079c-1.743.009-2.932-.773-2.917-2.49v-4.66h-1.22V2056.5h1.22v-2.118h2.411v2.118h1.663Z" transform="translate(-893.033 -2052.889)" fill="#501d83"/>
        <path id="패스_1569" data-name="패스 1569" d="M1027.186,2053.688a1.232,1.232,0,1,1-1.318,1.239A1.286,1.286,0,0,1,1027.186,2053.688Zm-1.2,3.616h2.411v8.844h-2.411Z" transform="translate(-889.459 -2053.688)" fill="#501d83"/>
        <path id="패스_1570" data-name="패스 1570" d="M1027.755,2059.882c-.009-2.727,1.661-4.562,4.332-4.562s4.341,1.835,4.349,4.562c-.009,2.737-1.67,4.57-4.349,4.578C1029.416,2064.452,1027.746,2062.62,1027.755,2059.882Zm4.349,2.705c1.228-.009,1.88-1.158,1.873-2.705s-.645-2.718-1.873-2.718c-1.263,0-1.908,1.165-1.908,2.718S1030.841,2062.579,1032.1,2062.587Z" transform="translate(-887.301 -2051.82)" fill="#501d83"/>
        <path id="패스_1571" data-name="패스 1571" d="M1034.927,2064.281h-2.411v-8.844h2.3v1.547h.1a2.677,2.677,0,0,1,2.656-1.663c1.85,0,3.054,1.262,3.048,3.325v5.635h-2.4v-5.213a1.541,1.541,0,0,0-1.6-1.743,1.652,1.652,0,0,0-1.694,1.841Z" transform="translate(-881.857 -2051.82)" fill="#501d83"/>
        <path id="패스_1572" data-name="패스 1572" d="M962.412,2063.346h7.768v2.019h-5.326v2.868h4.821v2.019h-4.821v4.887h-2.442Z" transform="translate(-962.02 -2042.645)" fill="#501d83"/>
        <path id="패스_1573" data-name="패스 1573" d="M966.3,2069.229c-.007-2.729,1.663-4.561,4.334-4.561s4.341,1.833,4.349,4.561c-.008,2.735-1.67,4.57-4.349,4.579C967.964,2073.8,966.294,2071.964,966.3,2069.229Zm4.351,2.706c1.228-.009,1.88-1.157,1.873-2.706s-.645-2.719-1.873-2.719c-1.262,0-1.908,1.164-1.908,2.719S969.39,2071.926,970.652,2071.935Z" transform="translate(-957.573 -2041.133)" fill="#501d83"/>
        <path id="패스_1574" data-name="패스 1574" d="M976.732,2064.722h2.412v8.844h-2.313v-1.6h-.1a2.72,2.72,0,0,1-2.688,1.708c-1.766,0-2.981-1.254-2.981-3.32v-5.636h2.411v5.211a1.526,1.526,0,0,0,1.548,1.71,1.709,1.709,0,0,0,1.71-1.839Z" transform="translate(-952.127 -2041.071)" fill="#501d83"/>
        <path id="패스_1575" data-name="패스 1575" d="M978.122,2073.627h-2.411v-8.844h2.3v1.546h.1a2.677,2.677,0,0,1,2.656-1.662c1.848,0,3.052,1.263,3.046,3.325v5.635h-2.394v-5.212a1.542,1.542,0,0,0-1.6-1.743,1.65,1.65,0,0,0-1.693,1.841Z" transform="translate(-946.812 -2041.133)" fill="#501d83"/>
        <path id="패스_1576" data-name="패스 1576" d="M980.207,2070.724c0-3.029,1.644-4.544,3.6-4.544a2.581,2.581,0,0,1,2.508,1.6h.082v-4.431H988.8v11.793h-2.377v-1.417h-.114a2.6,2.6,0,0,1-2.508,1.563C981.787,2075.285,980.207,2073.682,980.207,2070.724Zm4.347,2.641c1.207-.008,1.891-1.061,1.891-2.658s-.677-2.6-1.891-2.6-1.88,1.067-1.871,2.6C982.674,2072.274,983.334,2073.356,984.554,2073.365Z" transform="translate(-941.671 -2042.645)" fill="#501d83"/>
        <path id="패스_1577" data-name="패스 1577" d="M988.222,2068.432c.632-.043,1.822-.1,2.2-.116v-.716c-.009-.742-.512-1.164-1.417-1.172a1.334,1.334,0,0,0-1.466.978h-2.3c.146-1.533,1.481-2.737,3.826-2.737,1.931,0,3.755.864,3.747,3v5.963h-2.279V2072.4h-.066a2.717,2.717,0,0,1-2.592,1.387c-1.693.008-2.938-.888-2.947-2.641C984.939,2069.18,986.521,2068.537,988.222,2068.432Zm.341,3.7a1.709,1.709,0,0,0,1.856-1.661v-.643c-.366.017-1.4.073-1.807.107-.838.072-1.37.471-1.37,1.155S987.789,2072.121,988.563,2072.127Z" transform="translate(-936.271 -2041.133)" fill="#501d83"/>
        <path id="패스_1578" data-name="패스 1578" d="M994.469,2067.66h-1.661v4.317c-.009.707.341.878.832.9.244,0,.667-.025.96-.049v1.905a7.666,7.666,0,0,1-1.288.079c-1.74.009-2.93-.771-2.915-2.491v-4.658h-1.222v-1.807H990.4v-2.12h2.411v2.12h1.661Z" transform="translate(-931.417 -2042.202)" fill="#501d83"/>
        <path id="패스_1579" data-name="패스 1579" d="M993.621,2063.034a1.233,1.233,0,1,1-1.32,1.239A1.291,1.291,0,0,1,993.621,2063.034Zm-1.207,3.618h2.411v8.844h-2.411Z" transform="translate(-927.842 -2043.001)" fill="#501d83"/>
        <path id="패스_1580" data-name="패스 1580" d="M994.188,2069.229c-.009-2.729,1.663-4.561,4.334-4.561s4.34,1.833,4.349,4.561c-.009,2.735-1.67,4.57-4.349,4.579C995.851,2073.8,994.179,2071.964,994.188,2069.229Zm4.349,2.706c1.23-.009,1.88-1.157,1.874-2.706s-.643-2.719-1.874-2.719c-1.26,0-1.906,1.164-1.906,2.719S997.277,2071.926,998.537,2071.935Z" transform="translate(-925.684 -2041.133)" fill="#501d83"/>
        <path id="패스_1581" data-name="패스 1581" d="M1001.361,2073.627H998.95v-8.844h2.3v1.546h.1a2.678,2.678,0,0,1,2.654-1.662c1.852,0,3.054,1.263,3.048,3.325v5.635h-2.394v-5.212a1.541,1.541,0,0,0-1.6-1.743,1.65,1.65,0,0,0-1.693,1.841Z" transform="translate(-920.239 -2041.133)" fill="#501d83"/>
        <path id="패스_1582" data-name="패스 1582" d="M1007.422,2066.379c-.782.008-1.378.375-1.37.913-.009.4.3.709,1.14.878l1.582.326c1.717.358,2.548,1.125,2.555,2.394-.007,1.743-1.569,2.909-3.925,2.917-2.386-.008-3.787-1.076-3.989-2.8h2.427c.114.692.675,1.05,1.563,1.059.879-.008,1.468-.358,1.468-.928,0-.455-.375-.742-1.207-.911l-1.466-.293c-1.687-.334-2.549-1.2-2.54-2.511-.009-1.693,1.449-2.752,3.728-2.752,2.231,0,3.618,1.059,3.747,2.737h-2.261A1.329,1.329,0,0,0,1007.422,2066.379Z" transform="translate(-915.132 -2041.133)" fill="#501d83"/>
      </g>
    </g>
    <g id="그룹_488" data-name="그룹 488">
      <g id="그룹_479" data-name="그룹 479">
        <g id="그룹_478" data-name="그룹 478">
          <rect id="사각형_154" data-name="사각형 154" width="29.579" height="29.579" fill="#118f82"/>
          <g id="그룹_477" data-name="그룹 477" transform="translate(29.579 0)">
            <path id="패스_1547" data-name="패스 1547" d="M937.848,2004.3l-29.579,29.579v59.158h29.579v-59.158h29.579V2004.3Z" transform="translate(-908.269 -2004.303)" fill="#371c66"/>
            <path id="패스_1548" data-name="패스 1548" d="M981.226,2018.1h-29.58v59.158H922.068v29.05a51.786,51.786,0,0,0,59.158-51.21Z" transform="translate(-892.489 -1988.523)" fill="#371c66"/>
          </g>
          <path id="패스_1549" data-name="패스 1549" d="M922.068,2047.681V2018.1h29.579Z" transform="translate(-862.91 -1988.523)" fill="#9587b4"/>
        </g>
      </g>
      <g id="그룹_483" data-name="그룹 483">
        <g id="그룹_482" data-name="그룹 482">
          <g id="그룹_481" data-name="그룹 481">
            <rect id="사각형_155" data-name="사각형 155" width="29.579" height="29.579" fill="#118f82"/>
            <g id="그룹_480" data-name="그룹 480" transform="translate(29.579 0)">
              <path id="패스_1550" data-name="패스 1550" d="M937.847,2004.3l-29.579,29.579v59.158h29.579v-59.158h29.579V2004.3Z" transform="translate(-908.268 -2004.303)" fill="#371c66"/>
              <path id="패스_1551" data-name="패스 1551" d="M981.226,2018.1h-29.58v59.158H922.068v29.05a51.786,51.786,0,0,0,59.158-51.21Z" transform="translate(-892.489 -1988.523)" fill="#371c66"/>
            </g>
          </g>
        </g>
      </g>
      <g id="그룹_487" data-name="그룹 487">
        <g id="그룹_486" data-name="그룹 486">
          <g id="그룹_485" data-name="그룹 485">
            <rect id="사각형_156" data-name="사각형 156" width="29.579" height="29.579" fill="#00a497"/>
            <g id="그룹_484" data-name="그룹 484" transform="translate(29.579 0)">
              <path id="패스_1552" data-name="패스 1552" d="M937.847,2004.3l-29.579,29.579v59.158h29.579v-59.158h29.579V2004.3Z" transform="translate(-908.268 -2004.303)" fill="#501d83"/>
              <path id="패스_1553" data-name="패스 1553" d="M981.226,2018.1h-29.58v59.158H922.068v29.05a51.786,51.786,0,0,0,59.158-51.21Z" transform="translate(-892.489 -1988.523)" fill="#501d83"/>
            </g>
          </g>
        </g>
      </g>
    </g>
  </g>
  <rect id="사각형_157" data-name="사각형 157" width="150.94" height="0.71" transform="translate(144.639 97.842)" fill="#501d83"/>
</svg>
