<svg xmlns="http://www.w3.org/2000/svg" xmlns:xlink="http://www.w3.org/1999/xlink" width="585.072" height="100" viewBox="0 0 585.072 100">
  <defs>
    <clipPath id="clip-path">
      <rect id="사각형_2497" data-name="사각형 2497" width="585.072" height="99.557" transform="translate(0 0.001)" fill="#501d83"/>
    </clipPath>
  </defs>
  <g id="logo_intro_04" transform="translate(-100 -1339.021)">
    <rect id="base" width="585" height="100" transform="translate(100 1339.022)" fill="#fff"/>
    <g id="data_science" data-name="data science" transform="translate(100 1339.022)">
      <line id="선_1035" data-name="선 1035" y2="49.591" transform="translate(267.321 25.077)" fill="none" stroke="#501d83" stroke-width="2"/>
      <g id="그룹_3202" data-name="그룹 3202" transform="translate(0 -0.001)">
        <g id="그룹_3201" data-name="그룹 3201" clip-path="url(#clip-path)">
          <path id="패스_29544" data-name="패스 29544" d="M117.479,24.866h20.937v4.378h-7.838V50.428h-5.261V29.244h-7.838Z" fill="#501d83"/>
          <path id="패스_29545" data-name="패스 29545" d="M137.109,50.428l8.862-25.562h6.815l8.826,25.562h-5.684L154,44.532h-9.251l-1.924,5.9ZM152.662,40.4l-3.2-9.78h-.177L146.1,40.4Z" fill="#501d83"/>
          <path id="패스_29546" data-name="패스 29546" d="M164.508,24.866h17.159v4.378H169.8v6.214h10.981v4.378H169.8V46.05h11.9v4.378H164.508Z" fill="#501d83"/>
          <path id="패스_29547" data-name="패스 29547" d="M201.263,24.866V42.7c0,4.961-3.513,8.085-8.65,8.085-4.625,0-8.244-2.436-8.227-7.485h5.3a2.984,2.984,0,0,0,3.178,3.213c2.03,0,3.142-1.306,3.142-3.813V24.866Z" fill="#501d83"/>
          <path id="패스_29548" data-name="패스 29548" d="M204.122,50.428l8.862-25.562H219.8l8.826,25.562h-5.684l-1.924-5.9h-9.251l-1.924,5.9ZM219.675,40.4l-3.2-9.78H216.3l-3.2,9.78Z" fill="#501d83"/>
          <path id="패스_29549" data-name="패스 29549" d="M231.521,24.866H248.68v4.378H236.817v6.214H247.8v4.378H236.817V46.05h11.9v4.378h-17.2Z" fill="#501d83"/>
          <path id="패스_29550" data-name="패스 29550" d="M131.4,68.914a3.224,3.224,0,0,1-6.445,0V59.009h-3.243V69.174c0,3.427,2.573,5.72,6.466,5.709,3.882.011,6.488-2.282,6.488-5.709V59.009H131.4Z" fill="#501d83"/>
          <path id="패스_29551" data-name="패스 29551" d="M147.622,68.957h-.151l-6.834-9.948h-2.855V74.666h3.244V64.718h.13l6.877,9.948h2.811V59.009h-3.222Z" fill="#501d83"/>
          <rect id="사각형_2492" data-name="사각형 2492" width="3.244" height="15.657" transform="translate(153.966 59.009)" fill="#501d83"/>
          <path id="패스_29552" data-name="패스 29552" d="M166.3,70.946h-.151l-3.807-11.937H158.71l5.428,15.657h4.174l5.407-15.657h-3.59Z" fill="#501d83"/>
          <path id="패스_29553" data-name="패스 29553" d="M178.466,68.178h6.726V65.5h-6.726V61.69h7.266V59.009h-10.51V74.666h10.532V71.984h-7.288Z" fill="#501d83"/>
          <path id="패스_29554" data-name="패스 29554" d="M200.466,64.113c0-3.1-2.044-5.1-5.6-5.1h-6.142V74.666h3.244V69.108h2.476l3,5.558h3.59L197.7,68.579a4.525,4.525,0,0,0,2.769-4.466m-6.207,2.357H191.97v-4.8h2.292c1.925.011,2.865.865,2.855,2.444.01,1.568-.93,2.357-2.855,2.357" fill="#501d83"/>
          <path id="패스_29555" data-name="패스 29555" d="M209.933,65.605l-1.406-.346c-1.351-.3-2.519-.811-2.508-1.946.011-1.038.93-1.795,2.573-1.795,1.59,0,2.574.724,2.7,1.968h3.115c-.044-2.768-2.325-4.693-5.8-4.693-3.428,0-5.936,1.892-5.926,4.736,0,2.292,1.622,3.611,4.261,4.26l1.708.411c1.709.422,2.682.919,2.682,1.99,0,1.168-1.1,1.968-2.812,1.968-1.73,0-2.984-.8-3.092-2.379H202.27c.1,3.363,2.509,5.114,6.294,5.1,3.817.01,6.044-1.828,6.055-4.693-.011-2.606-2.011-3.969-4.693-4.585" fill="#501d83"/>
          <rect id="사각형_2493" data-name="사각형 2493" width="3.244" height="15.657" transform="translate(216.983 59.009)" fill="#501d83"/>
          <path id="패스_29556" data-name="패스 29556" d="M245.636,59.009l-3.59,6.747H241.9l-3.612-6.747H221.907v2.682h4.8V74.666h3.222V61.691h4.8v-2.5l5.607,9.9V74.67h3.244V69.087l5.709-10.078Z" fill="#501d83"/>
          <rect id="사각형_2494" data-name="사각형 2494" width="24.89" height="24.89" fill="#009b88"/>
          <path id="패스_29557" data-name="패스 29557" d="M49.779,0,24.89,24.889V74.668H49.779V24.889H74.668V0Z" fill="#321f78"/>
          <path id="패스_29558" data-name="패스 29558" d="M99.558,24.89H74.668V74.669H49.779V99.114A44.04,44.04,0,0,0,56,99.558,43.557,43.557,0,0,0,99.558,56.022Z" fill="#321f78"/>
          <path id="패스_29559" data-name="패스 29559" d="M49.779,49.779V24.889h24.89Z" fill="#0087dc"/>
          <rect id="사각형_2495" data-name="사각형 2495" width="24.89" height="24.89" fill="#009b88"/>
          <path id="패스_29560" data-name="패스 29560" d="M49.779,0,24.89,24.889V74.668H49.779V24.889H74.668V0Z" fill="#501d83"/>
          <path id="패스_29561" data-name="패스 29561" d="M99.558,24.89H74.668V74.669H49.779V99.114A44.04,44.04,0,0,0,56,99.558,43.557,43.557,0,0,0,99.558,56.022Z" fill="#321f78"/>
          <path id="패스_29564" data-name="패스 29564" d="M0,0H24.89V24.89H0Z" fill="#00a497"/>
          <path id="패스_29562" data-name="패스 29562" d="M49.779,0,24.89,24.889V74.668H49.779V24.889H74.668V0Z" fill="#501d83"/>
          <path id="패스_29563" data-name="패스 29563" d="M99.558,24.89H74.668V74.669H49.779V99.114A44.04,44.04,0,0,0,56,99.558,43.557,43.557,0,0,0,99.558,56.022Z" fill="#501d83"/>
          <path id="패스_31405" data-name="패스 31405" d="M16.368-19.512v21.5H19.2v-21.5Zm-15,16.7H2.856a37.037,37.037,0,0,0,7.7-.576l-.24-2.424A29.567,29.567,0,0,1,4.3-5.256v-9.432h5.28v-2.376H1.368ZM8.112-9.216h3.816V1.032h2.784V-19.1H11.928v7.488H8.112Zm28.416-10.32V2.04h3V-19.536ZM22.32-10.344c0,4.728,2.4,7.68,5.664,7.68,3.24,0,5.616-2.952,5.616-7.68,0-4.7-2.376-7.656-5.616-7.656C24.72-18,22.32-15.048,22.32-10.344Zm2.88,0c0-3.216,1.128-4.968,2.784-4.968,1.632,0,2.76,1.752,2.76,4.968s-1.128,4.992-2.76,4.992C26.328-5.352,25.2-7.128,25.2-10.344Zm32.544-9.192v7.656H53.976v2.4h3.768V2.04H60.7V-19.536ZM43.656-2.832h1.728a56.8,56.8,0,0,0,9.552-.6l-.288-2.352a50.466,50.466,0,0,1-8.04.528V-9.384h6.264v-2.328H46.608v-3.576h7.008v-2.4h-9.96Zm20.928-14.52v2.376H72.72a44.073,44.073,0,0,1-.576,7.368l2.9.24a46.408,46.408,0,0,0,.6-8.28v-1.7ZM63.48-4.776l.288,2.4A79.638,79.638,0,0,0,76.7-3.216l-.144-2.16c-1.968.24-4.1.384-6.216.48v-6.288H67.416v6.36C66.024-4.8,64.68-4.776,63.48-4.776ZM77.568,1.992H80.52V-8.376h2.952v-2.448H80.52v-8.688H77.568Zm7.1-19.584v2.352H97.32v-2.352H92.472v-2.04H89.5v2.04Zm1.056,7.032c0,2.376,2.16,3.96,5.28,3.96,3.1,0,5.256-1.584,5.256-3.96s-2.16-3.96-5.256-3.96C87.888-14.52,85.728-12.936,85.728-10.56ZM87.24-2.736H98.568V2.016h2.976V-5.112H87.24Zm1.344-7.824c0-1.128.96-1.7,2.424-1.7,1.416,0,2.4.576,2.4,1.7,0,1.1-.984,1.728-2.4,1.728C89.544-8.832,88.584-9.456,88.584-10.56Zm9.984,4.536h2.976V-11.5h2.9V-13.92h-2.9v-5.568H98.568Zm7.968-11.328v2.376h8.136a44.073,44.073,0,0,1-.576,7.368l2.9.24a46.408,46.408,0,0,0,.6-8.28v-1.7Zm-1.1,12.576.288,2.4a79.638,79.638,0,0,0,12.936-.84l-.144-2.16c-1.968.24-4.1.384-6.216.48v-6.288h-2.928v6.36C107.976-4.8,106.632-4.776,105.432-4.776ZM119.52,1.992h2.952V-8.376h2.952v-2.448h-2.952v-8.688H119.52Zm27.456-21.48v15.48h3v-15.48Zm-14.544,6.816a5.538,5.538,0,0,0,5.832,5.448,5.524,5.524,0,0,0,5.832-5.448c0-3.192-2.544-5.448-5.832-5.448A5.509,5.509,0,0,0,132.432-12.672Zm2.9,0a2.771,2.771,0,0,1,2.928-2.88,2.758,2.758,0,0,1,2.928,2.88,2.765,2.765,0,0,1-2.928,2.856A2.778,2.778,0,0,1,135.336-12.672Zm.36,14.28H150.5V-.768H138.648v-4.8H135.7Zm27-7.68c-4.608,0-7.584,1.512-7.584,4.056,0,2.52,2.976,4.032,7.584,4.032,4.656,0,7.632-1.512,7.632-4.032C170.328-4.56,167.352-6.072,162.7-6.072Zm-9.552-1.416h19.368V-9.864h-9.144v-3.768h-2.976v3.768h-7.248Zm2.184-8.664h11.9a18.733,18.733,0,0,1-.552,4.848l2.928.312a21.432,21.432,0,0,0,.576-5.76V-18.5H155.328Zm2.736,14.136c0-1.2,1.7-1.824,4.632-1.824,2.976,0,4.68.624,4.68,1.824,0,1.176-1.7,1.8-4.68,1.8C159.768-.216,158.064-.84,158.064-2.016Zm16.68-15.408v2.448h4.536v1.368c0,3.648-1.848,7.608-5.376,9.216l1.68,2.352A10.4,10.4,0,0,0,180.84-8.4a9.907,9.907,0,0,0,5.184,5.832l1.632-2.352a9.329,9.329,0,0,1-5.376-8.688v-1.368h4.512v-2.448ZM188.88,2.016h2.976v-21.5H188.88Zm8.664-21.144v7.416h14.808v-2.376H200.5v-5.04ZM195.1-7.44h19.416V-9.816H195.1Zm2.184,5.4c0,2.544,2.808,4.008,7.44,4.008,4.656,0,7.464-1.464,7.464-4.008,0-2.52-2.808-3.96-7.464-3.96C200.088-6,197.28-4.56,197.28-2.04Zm3,0c0-1.152,1.536-1.7,4.44-1.7,2.952,0,4.464.552,4.464,1.7S207.672-.312,204.72-.312C201.816-.312,200.28-.888,200.28-2.04Zm15.768-15.552v2.352H228.7v-2.352h-4.848v-2.04h-2.976v2.04ZM217.1-10.56c0,2.376,2.16,3.96,5.28,3.96,3.1,0,5.256-1.584,5.256-3.96s-2.16-3.96-5.256-3.96C219.264-14.52,217.1-12.936,217.1-10.56Zm1.512,7.824h11.328V2.016h2.976V-5.112h-14.3Zm1.344-7.824c0-1.128.96-1.7,2.424-1.7,1.416,0,2.4.576,2.4,1.7,0,1.1-.984,1.728-2.4,1.728C220.92-8.832,219.96-9.456,219.96-10.56Zm9.984,4.536h2.976V-11.5h2.9V-13.92h-2.9v-5.568h-2.976Zm7.08-1.032v2.328h8.16V2.016h2.976V-4.728h8.328V-7.056Zm2.232-2.112h14.9v-9.48h-2.928v2.472h-9.048v-2.472h-2.928Zm2.928-2.376v-2.3h9.048v2.3Z" transform="translate(284 59)" fill="#501d83"/>
        </g>
      </g>
    </g>
  </g>
</svg>
