<svg id="if" xmlns="http://www.w3.org/2000/svg" xmlns:xlink="http://www.w3.org/1999/xlink" width="530" height="100" viewBox="0 0 530 100">
  <defs>
    <clipPath id="clip-path">
      <rect id="사각형_2470" data-name="사각형 2470" width="529.459" height="99.557" transform="translate(0 0.001)" fill="#501d83"/>
    </clipPath>
  </defs>
  <rect id="base" width="530" height="100" fill="#fff"/>
  <line id="선_1032" data-name="선 1032" y2="49.591" transform="translate(267.322 25.077)" fill="none" stroke="#501d83" stroke-width="2"/>
  <g id="그룹_3195" data-name="그룹 3195" clip-path="url(#clip-path)">
    <path id="패스_29367" data-name="패스 29367" d="M291.791,28.248c-1.913,0-2.984.88-3,2.09-.012,1.323,1.347,1.915,2.923,2.268l1.636.4c3.124.718,5.454,2.305,5.465,5.339-.011,3.338-2.606,5.48-7.052,5.467-4.407.013-7.216-2.028-7.33-5.945h3.677c.126,1.839,1.588,2.77,3.6,2.77,1.989,0,3.273-.931,3.273-2.292,0-1.246-1.133-1.825-3.123-2.317l-1.989-.478c-3.074-.755-4.964-2.293-4.964-4.962-.011-3.312,2.91-5.517,6.9-5.517,4.043,0,6.7,2.243,6.751,5.467h-3.626c-.153-1.448-1.3-2.292-3.15-2.292" fill="#501d83"/>
    <path id="패스_29368" data-name="패스 29368" d="M300.642,36.761c-.013-4.183,2.555-7.054,6.7-7.054,3.525,0,5.918,2.054,6.07,5.19h-3.5a2.5,2.5,0,0,0-2.519-2.292c-1.787.012-2.972,1.511-2.972,4.1,0,2.644,1.158,4.155,2.972,4.155A2.466,2.466,0,0,0,309.91,38.6h3.5c-.163,3.1-2.444,5.226-6.07,5.238-4.194-.012-6.713-2.91-6.7-7.077" fill="#501d83"/>
    <path id="패스_29369" data-name="패스 29369" d="M319.441,43.562h-3.727V25.325h3.626v6.953h.152a4.034,4.034,0,0,1,4.08-2.571c2.86,0,4.735,1.929,4.735,5.139v8.716H324.58V35.5c0-1.7-.907-2.7-2.469-2.7a2.577,2.577,0,0,0-2.67,2.846Z" fill="#501d83"/>
    <path id="패스_29370" data-name="패스 29370" d="M330.609,36.761c-.012-4.218,2.568-7.054,6.7-7.054s6.713,2.836,6.727,7.054c-.014,4.231-2.582,7.066-6.727,7.077-4.131-.011-6.711-2.846-6.7-7.077m6.726,4.181c1.9-.013,2.908-1.789,2.9-4.181.012-2.406-.994-4.207-2.9-4.207-1.953,0-2.948,1.8-2.948,4.207s.995,4.168,2.948,4.181" fill="#501d83"/>
    <path id="패스_29371" data-name="패스 29371" d="M345.807,36.761c-.012-4.218,2.568-7.054,6.7-7.054s6.713,2.836,6.727,7.054c-.014,4.231-2.582,7.066-6.727,7.077-4.131-.011-6.711-2.846-6.7-7.077m6.726,4.181c1.9-.013,2.908-1.789,2.9-4.181.012-2.406-.994-4.207-2.9-4.207-1.953,0-2.948,1.8-2.948,4.207s.995,4.168,2.948,4.181" fill="#501d83"/>
    <rect id="사각형_2463" data-name="사각형 2463" width="3.727" height="18.237" transform="translate(361.56 25.325)" fill="#501d83"/>
    <path id="패스_29372" data-name="패스 29372" d="M373.563,36.761c-.014-4.218,2.568-7.054,6.7-7.054s6.713,2.836,6.725,7.054c-.012,4.231-2.582,7.066-6.725,7.077-4.131-.011-6.713-2.846-6.7-7.077m6.724,4.181c1.9-.013,2.91-1.789,2.9-4.181.014-2.406-.994-4.207-2.9-4.207-1.951,0-2.948,1.8-2.948,4.207s1,4.168,2.948,4.181" fill="#501d83"/>
    <path id="패스_29373" data-name="패스 29373" d="M396.594,32.68h-2.721V43.562h-3.727V32.68h-1.94v-2.8h1.94V28.852c0-2.885,1.738-4.383,4.483-4.383a9.838,9.838,0,0,1,2.217.227v2.82c-.542-.049-.932-.063-1.134-.074-1.2.011-1.839.465-1.839,1.612v.831h2.721Z" fill="#501d83"/>
    <rect id="사각형_2464" data-name="사각형 2464" width="3.779" height="18.237" transform="translate(404.789 25.325)" fill="#501d83"/>
    <path id="패스_29374" data-name="패스 29374" d="M415.286,43.562h-3.729V29.885h3.552v2.393h.152a4.135,4.135,0,0,1,4.105-2.571c2.86,0,4.723,1.953,4.71,5.139v8.716h-3.7V35.5c-.014-1.688-.919-2.7-2.468-2.7a2.553,2.553,0,0,0-2.62,2.846Z" fill="#501d83"/>
    <path id="패스_29375" data-name="패스 29375" d="M430.686,43.562h-3.729V29.885h3.552v2.393h.152a4.135,4.135,0,0,1,4.1-2.571c2.86,0,4.723,1.953,4.71,5.139v8.716h-3.7V35.5c-.014-1.688-.919-2.7-2.468-2.7a2.553,2.553,0,0,0-2.62,2.846Z" fill="#501d83"/>
    <path id="패스_29376" data-name="패스 29376" d="M441.8,36.761c-.014-4.218,2.568-7.054,6.7-7.054s6.713,2.836,6.725,7.054c-.012,4.231-2.582,7.066-6.725,7.077-4.131-.011-6.713-2.846-6.7-7.077m6.724,4.181c1.9-.013,2.91-1.789,2.9-4.181.014-2.406-.994-4.207-2.9-4.207-1.951,0-2.948,1.8-2.948,4.207s1,4.168,2.948,4.181" fill="#501d83"/>
    <path id="패스_29377" data-name="패스 29377" d="M464.987,43.562h-4.181l-4.784-13.677h3.929l2.871,9.822h.151l2.871-9.822H469.8Z" fill="#501d83"/>
    <path id="패스_29378" data-name="패스 29378" d="M475.651,35.527c.984-.063,2.822-.151,3.4-.178V34.242c-.014-1.147-.793-1.8-2.192-1.814a2.062,2.062,0,0,0-2.267,1.511h-3.552c.227-2.366,2.292-4.232,5.92-4.232,2.984,0,5.806,1.336,5.793,4.636v9.219h-3.527v-1.89h-.1a4.2,4.2,0,0,1-4.006,2.142c-2.62.013-4.546-1.372-4.559-4.08.013-3.049,2.456-4.043,5.087-4.207m.53,5.718a2.647,2.647,0,0,0,2.872-2.57V37.68c-.566.025-2.167.114-2.8.164-1.3.114-2.117.73-2.117,1.789s.844,1.6,2.041,1.612" fill="#501d83"/>
    <path id="패스_29379" data-name="패스 29379" d="M492.791,32.68h-2.569v6.675c-.013,1.1.528,1.36,1.285,1.385.377,0,1.033-.038,1.486-.074v2.946a11.726,11.726,0,0,1-1.991.125c-2.7.014-4.533-1.2-4.509-3.852v-7.2h-1.888v-2.8h1.888V26.611h3.729v3.274h2.569Z" fill="#501d83"/>
    <path id="패스_29380" data-name="패스 29380" d="M496.989,24.292a1.907,1.907,0,1,1-2.041,1.915,1.994,1.994,0,0,1,2.041-1.915m-1.865,5.593h3.729V43.562h-3.729Z" fill="#501d83"/>
    <path id="패스_29381" data-name="패스 29381" d="M501.189,36.761c-.014-4.218,2.568-7.054,6.7-7.054s6.713,2.836,6.725,7.054c-.012,4.231-2.582,7.066-6.725,7.077-4.131-.011-6.713-2.846-6.7-7.077m6.724,4.181c1.9-.013,2.91-1.789,2.9-4.181.014-2.406-.994-4.207-2.9-4.207-1.951,0-2.948,1.8-2.948,4.207s1,4.168,2.948,4.181" fill="#501d83"/>
    <path id="패스_29382" data-name="패스 29382" d="M520.669,43.562H516.94V29.885h3.552v2.393h.151a4.135,4.135,0,0,1,4.1-2.571c2.86,0,4.723,1.953,4.71,5.139v8.716h-3.7V35.5c-.014-1.688-.919-2.7-2.467-2.7a2.553,2.553,0,0,0-2.62,2.846Z" fill="#501d83"/>
    <path id="패스_29383" data-name="패스 29383" d="M285.042,56.245h12.014V59.37h-8.237V63.8h7.456v3.123h-7.456v7.557h-3.777Z" fill="#501d83"/>
    <path id="패스_29384" data-name="패스 29384" d="M297.911,67.681c-.011-4.218,2.568-7.054,6.7-7.054s6.712,2.836,6.726,7.054c-.014,4.231-2.582,7.066-6.726,7.077-4.132-.011-6.711-2.846-6.7-7.077m6.727,4.181c1.9-.013,2.908-1.789,2.9-4.181.012-2.406-.995-4.207-2.9-4.207-1.953,0-2.949,1.8-2.949,4.207s1,4.168,2.949,4.181" fill="#501d83"/>
    <path id="패스_29385" data-name="패스 29385" d="M322.429,60.8h3.727V74.481H322.58V72.012h-.151a4.208,4.208,0,0,1-4.156,2.645c-2.732,0-4.609-1.94-4.609-5.137V60.8h3.727v8.06a2.362,2.362,0,0,0,2.393,2.645,2.643,2.643,0,0,0,2.645-2.847Z" fill="#501d83"/>
    <path id="패스_29386" data-name="패스 29386" d="M332.766,74.482h-3.729V60.805h3.552V63.2h.152a4.135,4.135,0,0,1,4.105-2.571c2.86,0,4.723,1.953,4.71,5.139v8.716h-3.7v-8.06c-.014-1.688-.919-2.7-2.468-2.7a2.553,2.553,0,0,0-2.62,2.846Z" fill="#501d83"/>
    <path id="패스_29387" data-name="패스 29387" d="M343.91,67.654c0-4.683,2.543-7.027,5.565-7.027a3.994,3.994,0,0,1,3.88,2.47h.126V56.245h3.727V74.482H353.53V72.29h-.175a4.018,4.018,0,0,1-3.88,2.419c-3.123,0-5.565-2.481-5.565-7.055m6.724,4.082c1.864-.013,2.923-1.637,2.923-4.106s-1.046-4.03-2.923-4.03c-1.9,0-2.91,1.65-2.9,4.03-.014,2.418,1.008,4.093,2.9,4.106" fill="#501d83"/>
    <path id="패스_29388" data-name="패스 29388" d="M364.621,66.447c.983-.063,2.822-.151,3.4-.178V65.162c-.014-1.147-.793-1.8-2.192-1.814a2.062,2.062,0,0,0-2.267,1.511h-3.552c.227-2.366,2.292-4.232,5.92-4.232,2.984,0,5.806,1.336,5.793,4.636v9.219H368.2v-1.89h-.1a4.2,4.2,0,0,1-4.006,2.142c-2.62.013-4.546-1.372-4.559-4.08.013-3.049,2.456-4.043,5.087-4.207m.53,5.718a2.647,2.647,0,0,0,2.872-2.57v-1c-.566.025-2.167.114-2.8.164-1.3.114-2.117.73-2.117,1.789s.844,1.6,2.041,1.612" fill="#501d83"/>
    <path id="패스_29389" data-name="패스 29389" d="M381.762,63.6h-2.569v6.675c-.013,1.1.527,1.36,1.284,1.385.377,0,1.033-.038,1.487-.074v2.946a11.742,11.742,0,0,1-1.991.125c-2.7.014-4.534-1.2-4.509-3.852V63.6h-1.888V60.805h1.888V57.531h3.729v3.274h2.569Z" fill="#501d83"/>
    <path id="패스_29390" data-name="패스 29390" d="M385.959,55.212a1.907,1.907,0,1,1-2.041,1.915,1.994,1.994,0,0,1,2.041-1.915m-1.865,5.593h3.729V74.482h-3.729Z" fill="#501d83"/>
    <path id="패스_29391" data-name="패스 29391" d="M390.159,67.681c-.014-4.218,2.568-7.054,6.7-7.054s6.713,2.836,6.725,7.054c-.012,4.231-2.582,7.066-6.725,7.077-4.131-.011-6.713-2.846-6.7-7.077m6.724,4.181c1.9-.013,2.91-1.789,2.9-4.181.014-2.406-.994-4.207-2.9-4.207-1.951,0-2.948,1.8-2.948,4.207s1,4.168,2.948,4.181" fill="#501d83"/>
    <path id="패스_29392" data-name="패스 29392" d="M409.638,74.482h-3.729V60.805h3.552V63.2h.152a4.135,4.135,0,0,1,4.1-2.571c2.86,0,4.723,1.953,4.71,5.139v8.716h-3.7v-8.06c-.014-1.688-.919-2.7-2.468-2.7a2.553,2.553,0,0,0-2.62,2.846Z" fill="#501d83"/>
    <path id="패스_29393" data-name="패스 29393" d="M426.877,63.272c-1.21.013-2.128.579-2.117,1.412-.011.617.467,1.1,1.764,1.359l2.443.5c2.658.554,3.943,1.737,3.954,3.7-.011,2.694-2.429,4.5-6.069,4.508-3.691-.011-5.857-1.661-6.172-4.331h3.754c.176,1.069,1.044,1.624,2.418,1.637,1.359-.013,2.266-.555,2.266-1.437,0-.705-.579-1.145-1.864-1.41l-2.267-.453c-2.607-.517-3.941-1.851-3.929-3.88-.012-2.618,2.242-4.257,5.768-4.257,3.45,0,5.592,1.639,5.794,4.232h-3.5a2.052,2.052,0,0,0-2.241-1.587" fill="#501d83"/>
    <path id="패스_29394" data-name="패스 29394" d="M117.479,24.866h20.937v4.378h-7.838V50.428h-5.261V29.244h-7.838Z" fill="#501d83"/>
    <path id="패스_29395" data-name="패스 29395" d="M137.109,50.428l8.862-25.562h6.815l8.826,25.562h-5.684L154,44.532h-9.251l-1.924,5.9ZM152.662,40.4l-3.2-9.78h-.177L146.1,40.4Z" fill="#501d83"/>
    <path id="패스_29396" data-name="패스 29396" d="M164.508,24.866h17.159v4.378H169.8v6.214h10.981v4.378H169.8V46.05h11.9v4.378H164.508Z" fill="#501d83"/>
    <path id="패스_29397" data-name="패스 29397" d="M201.263,24.866V42.7c0,4.961-3.513,8.085-8.65,8.085-4.625,0-8.244-2.436-8.227-7.485h5.3a2.984,2.984,0,0,0,3.178,3.213c2.03,0,3.142-1.306,3.142-3.813V24.866Z" fill="#501d83"/>
    <path id="패스_29398" data-name="패스 29398" d="M204.122,50.428l8.862-25.562H219.8l8.826,25.562h-5.684l-1.924-5.9h-9.251l-1.924,5.9ZM219.675,40.4l-3.2-9.78H216.3l-3.195,9.78Z" fill="#501d83"/>
    <path id="패스_29399" data-name="패스 29399" d="M231.521,24.866H248.68v4.378H236.817v6.214H247.8v4.378H236.817V46.05h11.9v4.378H231.521Z" fill="#501d83"/>
    <path id="패스_29400" data-name="패스 29400" d="M131.4,68.914a3.224,3.224,0,0,1-6.445,0V59.009h-3.243V69.174c0,3.427,2.573,5.72,6.466,5.709,3.882.011,6.488-2.282,6.488-5.709V59.009H131.4Z" fill="#501d83"/>
    <path id="패스_29401" data-name="패스 29401" d="M147.622,68.957h-.151l-6.834-9.948h-2.855V74.666h3.244V64.718h.13l6.877,9.948h2.811V59.009h-3.222Z" fill="#501d83"/>
    <rect id="사각형_2465" data-name="사각형 2465" width="3.244" height="15.657" transform="translate(153.966 59.009)" fill="#501d83"/>
    <path id="패스_29402" data-name="패스 29402" d="M166.3,70.946h-.151l-3.807-11.937H158.71l5.428,15.657h4.174l5.407-15.657h-3.59Z" fill="#501d83"/>
    <path id="패스_29403" data-name="패스 29403" d="M178.466,68.178h6.726V65.5h-6.726V61.69h7.266V59.009h-10.51V74.666h10.532V71.984h-7.288Z" fill="#501d83"/>
    <path id="패스_29404" data-name="패스 29404" d="M200.466,64.113c0-3.1-2.044-5.1-5.6-5.1h-6.142V74.666h3.244V69.108h2.476l3,5.558h3.59L197.7,68.579a4.525,4.525,0,0,0,2.769-4.466m-6.207,2.357h-2.292v-4.8h2.292c1.925.011,2.865.865,2.855,2.444.01,1.568-.93,2.357-2.855,2.357" fill="#501d83"/>
    <path id="패스_29405" data-name="패스 29405" d="M209.933,65.605l-1.406-.346c-1.351-.3-2.519-.811-2.508-1.946.011-1.038.93-1.795,2.573-1.795,1.59,0,2.574.724,2.7,1.968h3.115c-.044-2.768-2.325-4.693-5.8-4.693-3.428,0-5.936,1.892-5.926,4.736,0,2.292,1.622,3.611,4.261,4.26l1.708.411c1.709.422,2.682.919,2.682,1.99,0,1.168-1.1,1.968-2.812,1.968-1.73,0-2.984-.8-3.092-2.379h-3.158c.1,3.363,2.509,5.114,6.294,5.1,3.817.01,6.044-1.828,6.055-4.693-.011-2.606-2.011-3.969-4.693-4.585" fill="#501d83"/>
    <rect id="사각형_2466" data-name="사각형 2466" width="3.244" height="15.657" transform="translate(216.983 59.009)" fill="#501d83"/>
    <path id="패스_29406" data-name="패스 29406" d="M245.636,59.009l-3.59,6.747h-.151l-3.612-6.747H221.907v2.682h4.8V74.666h3.222V61.691h4.8v-2.5l5.607,9.9v5.579h3.244V69.087l5.709-10.078Z" fill="#501d83"/>
    <rect id="사각형_2467" data-name="사각형 2467" width="24.89" height="24.89" transform="translate(0 0)" fill="#009b88"/>
    <path id="패스_29407" data-name="패스 29407" d="M49.779,0,24.89,24.889V74.668H49.779V24.889H74.668V0Z" fill="#321f78"/>
    <path id="패스_29408" data-name="패스 29408" d="M99.558,24.89H74.668V74.669H49.779V99.114A44.04,44.04,0,0,0,56,99.558,43.557,43.557,0,0,0,99.558,56.023Z" fill="#321f78"/>
    <path id="패스_29409" data-name="패스 29409" d="M49.779,49.779V24.889h24.89Z" fill="#a192bb"/>
    <rect id="사각형_2468" data-name="사각형 2468" width="24.89" height="24.89" transform="translate(0 0)" fill="#009b88"/>
    <path id="패스_29410" data-name="패스 29410" d="M49.779,0,24.89,24.889V74.668H49.779V24.889H74.668V0Z" fill="#321f78"/>
    <path id="패스_29411" data-name="패스 29411" d="M99.558,24.89H74.668V74.669H49.779V99.114A44.04,44.04,0,0,0,56,99.558,43.557,43.557,0,0,0,99.558,56.023Z" fill="#321f78"/>
    <path id="패스_29414" data-name="패스 29414" d="M0,0H24.89V24.89H0Z" transform="translate(0 0)" fill="#00a497"/>
    <path id="패스_29412" data-name="패스 29412" d="M49.779,0,24.89,24.889V74.668H49.779V24.889H74.668V0Z" fill="#501d83"/>
    <path id="패스_29413" data-name="패스 29413" d="M99.558,24.89H74.668V74.669H49.779V99.114A44.04,44.04,0,0,0,56,99.558,43.557,43.557,0,0,0,99.558,56.023Z" fill="#501d83"/>
  </g>
</svg>
