<svg id="school_of_business_innovation" data-name="school of business innovation" xmlns="http://www.w3.org/2000/svg" width="304" height="142.15" viewBox="0 0 304 142.15">
  <g id="그룹_511" data-name="그룹 511">
    <g id="그룹_498" data-name="그룹 498" transform="translate(143.26 30.324)">
      <g id="그룹_497" data-name="그룹 497">
        <g id="그룹_495" data-name="그룹 495">
          <path id="패스_1607" data-name="패스 1607" d="M960.1,2160.972h25.534v5.338h-9.559v25.833h-6.416V2166.31H960.1Z" transform="translate(-960.104 -2160.972)" fill="#501d83"/>
          <path id="패스_1608" data-name="패스 1608" d="M970.988,2192.144l10.808-31.171h8.31l10.764,31.171h-6.933l-2.347-7.19H980.309l-2.345,7.19Zm18.966-12.227-3.9-11.928h-.216l-3.9,11.928Z" transform="translate(-947.049 -2160.972)" fill="#501d83"/>
          <path id="패스_1609" data-name="패스 1609" d="M986.179,2160.972H1007.1v5.338H992.637v7.578h13.39v5.34h-13.39v7.577h14.51v5.338H986.179Z" transform="translate(-928.828 -2160.972)" fill="#501d83"/>
          <path id="패스_1610" data-name="패스 1610" d="M1017.781,2160.972v21.742c0,6.051-4.284,9.861-10.549,9.861-5.639,0-10.054-2.972-10.032-9.128h6.458a3.64,3.64,0,0,0,3.875,3.917c2.477,0,3.832-1.592,3.832-4.65v-21.742Z" transform="translate(-915.609 -2160.972)" fill="#501d83"/>
          <path id="패스_1611" data-name="패스 1611" d="M1008.143,2192.144l10.806-31.171h8.31l10.764,31.171h-6.933l-2.347-7.19h-11.279l-2.347,7.19Zm18.966-12.227-3.9-11.928H1023l-3.9,11.928Z" transform="translate(-902.483 -2160.972)" fill="#501d83"/>
          <path id="패스_1612" data-name="패스 1612" d="M1023.333,2160.972h20.926v5.338h-14.468v7.578h13.39v5.34h-13.39v7.577h14.51v5.338h-20.968Z" transform="translate(-884.263 -2160.972)" fill="#501d83"/>
        </g>
        <g id="그룹_496" data-name="그룹 496" transform="translate(5.156 41.372)">
          <path id="패스_1613" data-name="패스 1613" d="M974.264,2191.979a3.932,3.932,0,0,1-7.859,0V2179.9h-3.957V2192.3c0,4.179,3.139,6.975,7.885,6.961,4.735.014,7.912-2.782,7.912-6.961V2179.9h-3.981Z" transform="translate(-962.448 -2179.638)" fill="#501d83"/>
          <path id="패스_1614" data-name="패스 1614" d="M983.361,2192.032h-.185l-8.333-12.131h-3.481v19.093h3.956v-12.131h.158l8.386,12.131h3.428V2179.9h-3.929Z" transform="translate(-951.757 -2179.638)" fill="#501d83"/>
          <rect id="사각형_159" data-name="사각형 159" width="3.956" height="19.093" transform="translate(39.34 0.263)" fill="#501d83"/>
          <path id="패스_1615" data-name="패스 1615" d="M992.221,2194.459h-.185L987.4,2179.9h-4.43l6.619,19.093h5.09l6.593-19.093h-4.378Z" transform="translate(-937.839 -2179.638)" fill="#501d83"/>
          <path id="패스_1616" data-name="패스 1616" d="M996.075,2191.083h8.2v-3.27h-8.2v-4.642h8.861v-3.27H992.119v19.093h12.843v-3.27h-8.887Z" transform="translate(-926.858 -2179.638)" fill="#501d83"/>
          <path id="패스_1617" data-name="패스 1617" d="M1013.925,2186.124c0-3.783-2.492-6.222-6.829-6.222H999.6v19.091h3.957v-6.776h3.02l3.651,6.776h4.379l-4.062-7.423A5.517,5.517,0,0,0,1013.925,2186.124Zm-7.568,2.875h-2.8v-5.855h2.8c2.347.014,3.5,1.056,3.482,2.98C1009.851,2188.036,1008.7,2189,1006.356,2189Z" transform="translate(-917.881 -2179.638)" fill="#501d83"/>
          <path id="패스_1618" data-name="패스 1618" d="M1016.455,2188.09l-1.713-.422c-1.65-.37-3.073-.99-3.06-2.373.013-1.267,1.135-2.191,3.139-2.191,1.938,0,3.139.884,3.3,2.4h3.8c-.053-3.374-2.835-5.721-7.067-5.721-4.181,0-7.24,2.308-7.228,5.774,0,2.8,1.98,4.405,5.2,5.2l2.083.5c2.083.514,3.271,1.122,3.271,2.426,0,1.425-1.346,2.4-3.429,2.4-2.109,0-3.64-.976-3.772-2.9h-3.849c.119,4.1,3.06,6.235,7.674,6.222,4.654.014,7.37-2.228,7.384-5.723C1022.164,2190.5,1019.725,2188.839,1016.455,2188.09Z" transform="translate(-908.865 -2179.782)" fill="#501d83"/>
          <rect id="사각형_160" data-name="사각형 160" width="3.956" height="19.093" transform="translate(116.187 0.263)" fill="#501d83"/>
          <path id="패스_1619" data-name="패스 1619" d="M1046.939,2179.9l-4.378,8.228h-.185l-4.4-8.228H1018v3.27h5.854v15.823h3.929v-15.823h5.854v-3.048l6.837,12.068v6.8h3.956v-6.8l6.962-12.29Z" transform="translate(-895.812 -2179.638)" fill="#501d83"/>
        </g>
      </g>
    </g>
    <g id="그룹_510" data-name="그룹 510">
      <g id="그룹_501" data-name="그룹 501">
        <g id="그룹_500" data-name="그룹 500">
          <rect id="사각형_161" data-name="사각형 161" width="30.352" height="30.352" fill="#118f82"/>
          <g id="그룹_499" data-name="그룹 499" transform="translate(30.352 0.001)">
            <path id="패스_1620" data-name="패스 1620" d="M939.121,2147.186l-30.351,30.352v60.7h30.351v-60.7h30.351v-30.352Z" transform="translate(-908.77 -2147.186)" fill="#371c66"/>
            <path id="패스_1621" data-name="패스 1621" d="M983.272,2160.985H952.922v60.7H922.569v29.81a53.653,53.653,0,0,0,7.588.541,53.114,53.114,0,0,0,53.115-53.088Z" transform="translate(-892.218 -2130.633)" fill="#371c66"/>
          </g>
          <path id="패스_1622" data-name="패스 1622" d="M922.569,2191.337v-30.352h30.352Z" transform="translate(-861.866 -2130.633)" fill="#e44416"/>
        </g>
      </g>
      <g id="그룹_505" data-name="그룹 505">
        <g id="그룹_504" data-name="그룹 504">
          <g id="그룹_503" data-name="그룹 503">
            <rect id="사각형_162" data-name="사각형 162" width="30.352" height="30.352" fill="#118f82"/>
            <g id="그룹_502" data-name="그룹 502" transform="translate(30.352 0.001)">
              <path id="패스_1623" data-name="패스 1623" d="M939.121,2147.186l-30.351,30.352v60.7h30.351v-60.7h30.351v-30.352Z" transform="translate(-908.77 -2147.186)" fill="#371c66"/>
              <path id="패스_1624" data-name="패스 1624" d="M983.272,2160.985H952.922v60.7H922.569v29.81a53.653,53.653,0,0,0,7.588.541,53.114,53.114,0,0,0,53.115-53.088Z" transform="translate(-892.218 -2130.633)" fill="#371c66"/>
            </g>
          </g>
        </g>
      </g>
      <g id="그룹_509" data-name="그룹 509">
        <g id="그룹_508" data-name="그룹 508">
          <g id="그룹_507" data-name="그룹 507">
            <rect id="사각형_163" data-name="사각형 163" width="30.352" height="30.352" fill="#00a497"/>
            <g id="그룹_506" data-name="그룹 506" transform="translate(30.352 0.001)">
              <path id="패스_1625" data-name="패스 1625" d="M939.121,2147.186l-30.351,30.352v60.7h30.351v-60.7h30.351v-30.352Z" transform="translate(-908.77 -2147.186)" fill="#501d83"/>
              <path id="패스_1626" data-name="패스 1626" d="M983.272,2160.985H952.922v60.7H922.569v29.81a53.653,53.653,0,0,0,7.588.541,53.114,53.114,0,0,0,53.115-53.088Z" transform="translate(-892.218 -2130.633)" fill="#501d83"/>
            </g>
          </g>
        </g>
      </g>
    </g>
  </g>
  <g id="그룹_512" data-name="그룹 512" transform="translate(149.035 108.621)">
    <path id="패스_1627" data-name="패스 1627" d="M967.611,2198.912c-1.269,0-1.979.583-1.988,1.388-.009.875.893,1.269,1.938,1.5l1.087.269c2.072.475,3.618,1.531,3.627,3.543-.009,2.212-1.729,3.636-4.68,3.627-2.923.009-4.788-1.346-4.863-3.946h2.442c.083,1.22,1.051,1.838,2.388,1.838,1.32,0,2.173-.618,2.173-1.52,0-.827-.752-1.212-2.074-1.54l-1.318-.314c-2.041-.5-3.292-1.525-3.292-3.293-.009-2.2,1.929-3.66,4.579-3.66,2.681,0,4.445,1.485,4.478,3.625H969.7C969.6,2199.473,968.84,2198.912,967.611,2198.912Z" transform="translate(-962.73 -2196.286)" fill="#501d83"/>
    <path id="패스_1628" data-name="패스 1628" d="M967.629,2202.885c-.009-2.775,1.7-4.68,4.445-4.68,2.34,0,3.928,1.361,4.027,3.444h-2.323a1.659,1.659,0,0,0-1.669-1.522c-1.188.009-1.975,1-1.975,2.725,0,1.755.77,2.756,1.975,2.756a1.636,1.636,0,0,0,1.669-1.5H976.1c-.108,2.055-1.621,3.469-4.027,3.478C969.29,2207.574,967.62,2205.652,967.629,2202.885Z" transform="translate(-956.854 -2194.61)" fill="#501d83"/>
    <path id="패스_1629" data-name="패스 1629" d="M974.658,2208.984h-2.474v-12.1h2.408v4.612h.1a2.679,2.679,0,0,1,2.708-1.7c1.9,0,3.143,1.28,3.143,3.411v5.783h-2.474v-5.35a1.568,1.568,0,0,0-1.636-1.788,1.709,1.709,0,0,0-1.773,1.89Z" transform="translate(-951.39 -2196.196)" fill="#501d83"/>
    <path id="패스_1630" data-name="패스 1630" d="M976.687,2202.885c-.009-2.8,1.707-4.68,4.447-4.68s4.454,1.883,4.463,4.68c-.009,2.807-1.713,4.689-4.463,4.7C978.394,2207.574,976.678,2205.691,976.687,2202.885Zm4.463,2.776c1.262-.009,1.929-1.188,1.925-2.776s-.662-2.791-1.925-2.791c-1.293,0-1.955,1.194-1.955,2.791S979.856,2205.652,981.15,2205.66Z" transform="translate(-945.989 -2194.61)" fill="#501d83"/>
    <path id="패스_1631" data-name="패스 1631" d="M981.282,2202.885c-.009-2.8,1.7-4.68,4.445-4.68s4.456,1.883,4.465,4.68c-.009,2.807-1.716,4.689-4.465,4.7C982.987,2207.574,981.273,2205.691,981.282,2202.885Zm4.463,2.776c1.26-.009,1.929-1.188,1.922-2.776s-.662-2.791-1.922-2.791c-1.3,0-1.955,1.194-1.955,2.791S984.449,2205.652,985.745,2205.66Z" transform="translate(-940.477 -2194.61)" fill="#501d83"/>
    <path id="패스_1632" data-name="패스 1632" d="M988.518,2208.984h-2.474v-12.1h2.474Z" transform="translate(-934.766 -2196.196)" fill="#501d83"/>
    <path id="패스_1633" data-name="패스 1633" d="M989.673,2202.885c-.009-2.8,1.7-4.68,4.445-4.68s4.454,1.883,4.463,4.68c-.009,2.807-1.714,4.689-4.463,4.7C991.378,2207.574,989.664,2205.691,989.673,2202.885Zm4.463,2.776c1.26-.009,1.929-1.188,1.922-2.776s-.662-2.791-1.922-2.791c-1.3,0-1.958,1.194-1.958,2.791S992.84,2205.652,994.136,2205.66Z" transform="translate(-930.413 -2194.61)" fill="#501d83"/>
    <path id="패스_1634" data-name="패스 1634" d="M999.667,2202.072h-1.806v7.221h-2.474v-7.221H994.1v-1.854h1.287v-.686a2.68,2.68,0,0,1,2.976-2.908,6.467,6.467,0,0,1,1.471.149v1.872c-.358-.033-.62-.042-.752-.048-.794.006-1.221.308-1.221,1.069v.552h1.806Z" transform="translate(-925.103 -2196.506)" fill="#501d83"/>
    <path id="패스_1635" data-name="패스 1635" d="M999.113,2196.882h4.813c2.666,0,4.021,1.289,4.012,3.11a2.568,2.568,0,0,1-2.173,2.591v.114a2.825,2.825,0,0,1,2.657,2.943c-.009,1.922-1.445,3.343-4.179,3.343h-5.129Zm4.443,5.065c1.056.006,1.848-.585,1.839-1.555.009-.877-.642-1.469-1.786-1.469h-1.988v3.024Zm.185,4.961c1.456.009,2.083-.591,2.074-1.5a1.771,1.771,0,0,0-2.006-1.737h-2.188v3.239Z" transform="translate(-919.09 -2196.196)" fill="#501d83"/>
    <path id="패스_1636" data-name="패스 1636" d="M1009.865,2198.258h2.474v9.075h-2.373v-1.639h-.1a2.791,2.791,0,0,1-2.758,1.755c-1.812,0-3.057-1.287-3.057-3.409v-5.782h2.474v5.347a1.567,1.567,0,0,0,1.586,1.755,1.755,1.755,0,0,0,1.755-1.887Z" transform="translate(-913.169 -2194.545)" fill="#501d83"/>
    <path id="패스_1637" data-name="패스 1637" d="M1012.618,2199.959c-.8.009-1.414.385-1.406.937-.009.409.31.728,1.17.9l1.623.335c1.762.367,2.615,1.154,2.622,2.457-.007,1.788-1.612,2.985-4.027,2.994-2.448-.009-3.886-1.1-4.093-2.877h2.488c.119.71.7,1.078,1.606,1.086.9-.009,1.5-.367,1.5-.953,0-.466-.383-.761-1.236-.935l-1.507-.3c-1.729-.343-2.613-1.227-2.6-2.575-.009-1.738,1.487-2.824,3.825-2.824,2.29,0,3.713,1.086,3.844,2.809H1014.1A1.361,1.361,0,0,0,1012.618,2199.959Z" transform="translate(-907.822 -2194.61)" fill="#501d83"/>
    <path id="패스_1638" data-name="패스 1638" d="M1014.2,2196.57a1.266,1.266,0,1,1-1.355,1.271A1.325,1.325,0,0,1,1014.2,2196.57Zm-1.238,3.713h2.474v9.075h-2.474Z" transform="translate(-902.622 -2196.57)" fill="#501d83"/>
    <path id="패스_1639" data-name="패스 1639" d="M1017.37,2207.4H1014.9v-9.075h2.355v1.586h.1a2.748,2.748,0,0,1,2.725-1.7c1.9,0,3.132,1.3,3.128,3.411v5.783h-2.459v-5.35a1.581,1.581,0,0,0-1.639-1.788,1.694,1.694,0,0,0-1.738,1.89Z" transform="translate(-900.158 -2194.61)" fill="#501d83"/>
    <path id="패스_1640" data-name="패스 1640" d="M1019.384,2202.9c-.007-2.8,1.725-4.7,4.381-4.7,2.382,0,4.26,1.506,4.26,4.6v.7h-6.2a2.013,2.013,0,0,0,2.09,2.224,1.756,1.756,0,0,0,1.689-.919h2.356c-.352,1.68-1.856,2.767-4.093,2.776C1021.082,2207.574,1019.377,2205.775,1019.384,2202.9Zm6.3-.955a1.8,1.8,0,0,0-1.874-1.887,1.942,1.942,0,0,0-1.989,1.887Z" transform="translate(-894.775 -2194.61)" fill="#501d83"/>
    <path id="패스_1641" data-name="패스 1641" d="M1027.946,2199.959c-.8.009-1.414.385-1.406.937-.009.409.31.728,1.17.9l1.623.335c1.762.367,2.615,1.154,2.622,2.457-.007,1.788-1.61,2.985-4.027,2.994-2.448-.009-3.886-1.1-4.093-2.877h2.487c.119.71.7,1.078,1.606,1.086.9-.009,1.506-.367,1.506-.953,0-.466-.385-.761-1.238-.935l-1.506-.3c-1.729-.343-2.613-1.227-2.6-2.575-.009-1.738,1.487-2.824,3.825-2.824,2.29,0,3.713,1.086,3.845,2.809h-2.321A1.364,1.364,0,0,0,1027.946,2199.959Z" transform="translate(-889.436 -2194.61)" fill="#501d83"/>
    <path id="패스_1642" data-name="패스 1642" d="M1032.145,2199.959c-.8.009-1.414.385-1.405.937-.009.409.31.728,1.172.9l1.621.335c1.764.367,2.615,1.154,2.621,2.457-.006,1.788-1.61,2.985-4.027,2.994-2.448-.009-3.884-1.1-4.093-2.877h2.49c.116.71.693,1.078,1.6,1.086.9-.009,1.507-.367,1.507-.953,0-.466-.385-.761-1.238-.935l-1.5-.3c-1.729-.343-2.615-1.227-2.606-2.575-.009-1.738,1.487-2.824,3.825-2.824,2.29,0,3.713,1.086,3.845,2.809h-2.321A1.364,1.364,0,0,0,1032.145,2199.959Z" transform="translate(-884.4 -2194.61)" fill="#501d83"/>
    <path id="패스_1643" data-name="패스 1643" d="M965.418,2218.329h-2.505v-12.1h2.505Z" transform="translate(-962.51 -2184.984)" fill="#501d83"/>
    <path id="패스_1644" data-name="패스 1644" d="M967.434,2216.743h-2.475v-9.075h2.356v1.588h.1a2.746,2.746,0,0,1,2.723-1.7c1.9,0,3.134,1.3,3.128,3.412v5.78H970.81V2211.4a1.584,1.584,0,0,0-1.639-1.791,1.7,1.7,0,0,0-1.738,1.891Z" transform="translate(-960.056 -2183.399)" fill="#501d83"/>
    <path id="패스_1645" data-name="패스 1645" d="M972.089,2216.743h-2.474v-9.075h2.355v1.588h.1a2.749,2.749,0,0,1,2.725-1.7c1.9,0,3.132,1.3,3.125,3.412v5.78h-2.457V2211.4a1.583,1.583,0,0,0-1.639-1.791,1.7,1.7,0,0,0-1.738,1.891Z" transform="translate(-954.473 -2183.399)" fill="#501d83"/>
    <path id="패스_1646" data-name="패스 1646" d="M974.1,2212.232c-.009-2.8,1.707-4.681,4.448-4.681s4.454,1.881,4.463,4.681c-.009,2.807-1.713,4.689-4.463,4.7S974.093,2215.038,974.1,2212.232Zm4.465,2.773c1.26-.006,1.927-1.188,1.922-2.773s-.662-2.792-1.922-2.792c-1.3,0-1.958,1.194-1.958,2.792S977.271,2215,978.567,2215.005Z" transform="translate(-949.09 -2183.399)" fill="#501d83"/>
    <path id="패스_1647" data-name="패스 1647" d="M984.351,2216.679h-2.776L978.4,2207.6h2.608l1.905,6.517h.1l1.9-6.517h2.624Z" transform="translate(-943.933 -2183.335)" fill="#501d83"/>
    <path id="패스_1648" data-name="패스 1648" d="M986.173,2211.413c.651-.043,1.87-.1,2.255-.119v-.735c-.009-.761-.526-1.194-1.454-1.2a1.368,1.368,0,0,0-1.5,1h-2.356c.149-1.572,1.522-2.809,3.926-2.809,1.984,0,3.854.887,3.845,3.075v6.117h-2.338v-1.254h-.066a2.79,2.79,0,0,1-2.659,1.423c-1.738.009-3.018-.91-3.024-2.709C982.8,2212.181,984.427,2211.519,986.173,2211.413Zm.35,3.792a1.755,1.755,0,0,0,1.9-1.7v-.66c-.376.018-1.436.075-1.854.11-.86.075-1.4.484-1.4,1.185S985.731,2215.2,986.523,2215.205Z" transform="translate(-938.66 -2183.399)" fill="#501d83"/>
    <path id="패스_1649" data-name="패스 1649" d="M992.472,2210.646h-1.7v4.43c-.009.726.35.9.853.919.251,0,.684-.026.985-.052v1.958a7.85,7.85,0,0,1-1.322.081c-1.786.009-3.007-.792-2.991-2.555v-4.78h-1.251v-1.856h1.251v-2.173h2.475v2.173h1.7Z" transform="translate(-933.568 -2184.52)" fill="#501d83"/>
    <path id="패스_1650" data-name="패스 1650" d="M991.521,2205.917a1.264,1.264,0,1,1-1.353,1.271A1.322,1.322,0,0,1,991.521,2205.917Zm-1.238,3.71h2.474v9.075h-2.474Z" transform="translate(-929.819 -2185.359)" fill="#501d83"/>
    <path id="패스_1651" data-name="패스 1651" d="M992.054,2212.232c-.009-2.8,1.707-4.681,4.447-4.681s4.454,1.881,4.463,4.681c-.009,2.807-1.713,4.689-4.463,4.7S992.045,2215.038,992.054,2212.232Zm4.465,2.773c1.26-.006,1.929-1.188,1.922-2.773s-.662-2.792-1.922-2.792c-1.3,0-1.958,1.194-1.958,2.792S995.223,2215,996.519,2215.005Z" transform="translate(-927.557 -2183.399)" fill="#501d83"/>
    <path id="패스_1652" data-name="패스 1652" d="M999.29,2216.743h-2.474v-9.075h2.356v1.588h.1a2.749,2.749,0,0,1,2.725-1.7c1.9,0,3.132,1.3,3.125,3.412v5.78h-2.457V2211.4a1.583,1.583,0,0,0-1.639-1.791,1.7,1.7,0,0,0-1.738,1.891Z" transform="translate(-921.845 -2183.399)" fill="#501d83"/>
  </g>
  <rect id="사각형_164" data-name="사각형 164" width="154.883" height="0.728" transform="translate(148.415 100.397)" fill="#501d83"/>
</svg>
