<svg id="school_of_humanities_social_sciences" data-name="school of humanities &amp; social sciences" xmlns="http://www.w3.org/2000/svg" width="304" height="135.447" viewBox="0 0 304 135.447">
  <g id="그룹_961" data-name="그룹 961" transform="translate(136.452 28.896)">
    <g id="그룹_960" data-name="그룹 960">
      <g id="그룹_958" data-name="그룹 958">
        <path id="패스_2522" data-name="패스 2522" d="M302.261,141.88h24.328v5.092h-9.115v24.621h-6.119V146.951H302.24V141.88Z" transform="translate(-302.24 -141.88)" fill="#501d83"/>
        <path id="패스_2523" data-name="패스 2523" d="M313.14,171.572l10.288-29.692h7.921L341.6,171.572H335l-2.242-6.852H322l-2.242,6.852Zm18.062-11.65-3.709-11.357h-.21l-3.709,11.357Z" transform="translate(-290.3 -141.88)" fill="#501d83"/>
        <path id="패스_2524" data-name="패스 2524" d="M328.33,141.88h19.927v5.092H334.47V154.2H347.23v5.092H334.47v7.229H348.3v5.092H328.33V141.88Z" transform="translate(-273.661 -141.88)" fill="#501d83"/>
        <path id="패스_2525" data-name="패스 2525" d="M358.953,141.88V162.6c0,5.762-4.086,9.387-10.058,9.387-5.364,0-9.576-2.829-9.555-8.7h6.16a3.455,3.455,0,0,0,3.688,3.73c2.368,0,3.646-1.509,3.646-4.421V141.88Z" transform="translate(-261.601 -141.88)" fill="#501d83"/>
        <path id="패스_2526" data-name="패스 2526" d="M350.29,171.572l10.288-29.692H368.5l10.247,29.692h-6.6L369.9,164.72H359.154l-2.242,6.852Zm18.062-11.65-3.709-11.357h-.21l-3.709,11.357Z" transform="translate(-249.606 -141.88)" fill="#501d83"/>
        <path id="패스_2527" data-name="패스 2527" d="M365.48,141.88h19.927v5.092H371.62V154.2H384.38v5.092H371.62v7.229h13.83v5.092H365.48V141.88Z" transform="translate(-232.967 -141.88)" fill="#501d83"/>
      </g>
      <g id="그룹_959" data-name="그룹 959" transform="translate(4.924 39.393)">
        <path id="패스_2528" data-name="패스 2528" d="M315.863,172.314a3.51,3.51,0,0,1-3.751,3.625,3.556,3.556,0,0,1-3.751-3.625v-11.5H304.59v11.818c0,3.981,3,6.642,7.522,6.642,4.505.021,7.543-2.64,7.543-6.642V160.81h-3.793Z" transform="translate(-304.59 -160.538)" fill="#501d83"/>
        <path id="패스_2529" data-name="패스 2529" d="M324.93,172.356h-.168l-7.942-11.546H313.51V179h3.772V167.431h.147L325.412,179h3.269V160.81H324.93Z" transform="translate(-294.819 -160.538)" fill="#501d83"/>
        <rect id="사각형_278" data-name="사각형 278" width="3.772" height="18.188" transform="translate(37.487 0.272)" fill="#501d83"/>
        <path id="패스_2530" data-name="패스 2530" d="M333.932,174.681h-.168l-4.421-13.871H325.11L331.417,179h4.861l6.265-18.188h-4.17Z" transform="translate(-282.112 -160.538)" fill="#501d83"/>
        <path id="패스_2531" data-name="패스 2531" d="M338.021,171.455h7.816v-3.122h-7.816v-4.421h8.444v-3.1h-12.2V179h12.237v-3.122h-8.486Z" transform="translate(-272.079 -160.538)" fill="#501d83"/>
        <path id="패스_2532" data-name="패스 2532" d="M355.4,166.74c0-3.6-2.368-5.93-6.517-5.93H341.74V179h3.772v-6.454h2.871L351.861,179h4.17l-3.876-7.082A5.208,5.208,0,0,0,355.4,166.74Zm-7.208,2.724h-2.661V163.89h2.661c2.242.021,3.332,1.006,3.311,2.829C351.525,168.563,350.436,169.464,348.194,169.464Z" transform="translate(-263.896 -160.538)" fill="#501d83"/>
        <path id="패스_2533" data-name="패스 2533" d="M358.144,168.6l-1.634-.4c-1.572-.356-2.934-.943-2.913-2.263.021-1.215,1.09-2.1,3-2.1,1.844,0,3,.838,3.143,2.284h3.625c-.042-3.206-2.7-5.448-6.726-5.448-3.981,0-6.894,2.2-6.894,5.511,0,2.661,1.886,4.191,4.945,4.945l1.991.482c1.991.482,3.122,1.069,3.122,2.3,0,1.362-1.278,2.284-3.269,2.284-2.012,0-3.457-.922-3.583-2.766H349.28c.1,3.9,2.913,5.951,7.313,5.93,4.442.021,7.02-2.116,7.041-5.448C363.591,170.906,361.266,169.334,358.144,168.6Z" transform="translate(-255.637 -160.68)" fill="#501d83"/>
        <rect id="사각형_279" data-name="사각형 279" width="3.772" height="18.188" transform="translate(110.7 0.272)" fill="#501d83"/>
        <path id="패스_2534" data-name="패스 2534" d="M387.725,160.81l-4.17,7.837h-.189l-4.191-7.837H360.15v3.1h5.574V179h3.751V163.911h5.574V161.02l6.517,11.483V179h3.772v-6.5l6.621-11.692Z" transform="translate(-243.73 -160.538)" fill="#501d83"/>
      </g>
    </g>
  </g>
  <g id="그룹_973" data-name="그룹 973">
    <g id="그룹_964" data-name="그룹 964">
      <g id="그룹_963" data-name="그룹 963">
        <rect id="사각형_280" data-name="사각형 280" width="28.916" height="28.916" fill="#009f94"/>
        <g id="그룹_962" data-name="그룹 962" transform="translate(28.916)">
          <path id="패스_2535" data-name="패스 2535" d="M279.836,128.09,250.92,157.006v57.833h28.916V157.006h28.916V128.09Z" transform="translate(-250.92 -128.09)" fill="#512678"/>
          <path id="패스_2536" data-name="패스 2536" d="M322.553,141.89H293.636v57.833H264.72v28.393a51.5,51.5,0,0,0,7.229.524,50.62,50.62,0,0,0,50.6-50.583Z" transform="translate(-235.803 -112.974)" fill="#512678"/>
        </g>
        <path id="패스_2537" data-name="패스 2537" d="M264.72,170.806V141.89h28.916Z" transform="translate(-206.887 -112.974)" fill="#cc1517"/>
      </g>
    </g>
    <g id="그룹_968" data-name="그룹 968">
      <g id="그룹_967" data-name="그룹 967">
        <g id="그룹_966" data-name="그룹 966">
          <rect id="사각형_281" data-name="사각형 281" width="28.916" height="28.916" fill="#009f94"/>
          <g id="그룹_965" data-name="그룹 965" transform="translate(28.916)">
            <path id="패스_2538" data-name="패스 2538" d="M279.836,128.09,250.92,157.006v57.833h28.916V157.006h28.916V128.09Z" transform="translate(-250.92 -128.09)" fill="#512678"/>
            <path id="패스_2539" data-name="패스 2539" d="M322.553,141.89H293.636v57.833H264.72v28.393a51.5,51.5,0,0,0,7.229.524,50.62,50.62,0,0,0,50.6-50.583Z" transform="translate(-235.803 -112.974)" fill="#512678"/>
          </g>
        </g>
      </g>
    </g>
    <g id="그룹_972" data-name="그룹 972">
      <g id="그룹_971" data-name="그룹 971">
        <g id="그룹_970" data-name="그룹 970">
          <rect id="사각형_282" data-name="사각형 282" width="28.916" height="28.916" fill="#00a497"/>
          <g id="그룹_969" data-name="그룹 969" transform="translate(28.916)">
            <path id="패스_2540" data-name="패스 2540" d="M279.836,128.09,250.92,157.006v57.833h28.916V157.006h28.916V128.09Z" transform="translate(-250.92 -128.09)" fill="#501d83"/>
            <path id="패스_2541" data-name="패스 2541" d="M322.553,141.89H293.636v57.833H264.72v28.393a51.5,51.5,0,0,0,7.229.524,50.62,50.62,0,0,0,50.6-50.583Z" transform="translate(-235.803 -112.974)" fill="#501d83"/>
          </g>
        </g>
      </g>
    </g>
  </g>
  <g id="그룹_1734" data-name="그룹 1734">
    <path id="패스_2542" data-name="패스 2542" d="M309.532,179.711c-1.215,0-1.886.566-1.886,1.32,0,.838.859,1.215,1.844,1.425l1.027.251c1.97.461,3.457,1.467,3.457,3.374,0,2.116-1.655,3.457-4.463,3.457-2.787,0-4.568-1.278-4.631-3.751h2.326c.084,1.152,1.006,1.76,2.284,1.76,1.257,0,2.074-.587,2.074-1.446,0-.8-.712-1.152-1.97-1.467l-1.257-.293c-1.949-.482-3.143-1.446-3.143-3.143,0-2.1,1.844-3.478,4.358-3.478,2.556,0,4.233,1.425,4.275,3.457h-2.284C311.418,180.234,310.705,179.711,309.532,179.711Z" transform="translate(-162.896 -73.726)" fill="#501d83"/>
    <path id="패스_2543" data-name="패스 2543" d="M309.78,183.573c0-2.64,1.613-4.463,4.233-4.463,2.221,0,3.751,1.3,3.835,3.29h-2.221a1.563,1.563,0,0,0-1.593-1.446c-1.132,0-1.886.964-1.886,2.6,0,1.676.733,2.619,1.886,2.619a1.569,1.569,0,0,0,1.593-1.425h2.221c-.1,1.949-1.551,3.311-3.835,3.311C311.372,188.036,309.78,186.213,309.78,183.573Z" transform="translate(-157.529 -72.203)" fill="#501d83"/>
    <path id="패스_2544" data-name="패스 2544" d="M316.687,189.315H314.34V177.79h2.284v4.4h.084a2.557,2.557,0,0,1,2.577-1.634,2.912,2.912,0,0,1,3,3.248v5.511h-2.347v-5.092a1.487,1.487,0,0,0-1.551-1.7,1.636,1.636,0,0,0-1.7,1.8v4.987Z" transform="translate(-152.534 -73.648)" fill="#501d83"/>
    <path id="패스_2545" data-name="패스 2545" d="M318.84,183.573c0-2.661,1.634-4.463,4.233-4.463,2.619,0,4.254,1.8,4.254,4.463,0,2.682-1.634,4.463-4.254,4.484A4.1,4.1,0,0,1,318.84,183.573Zm4.254,2.64c1.194,0,1.844-1.132,1.823-2.64,0-1.53-.629-2.661-1.823-2.661-1.236,0-1.865,1.132-1.865,2.661C321.229,185.082,321.857,186.213,323.094,186.213Z" transform="translate(-147.604 -72.203)" fill="#501d83"/>
    <path id="패스_2546" data-name="패스 2546" d="M323.43,183.573c0-2.661,1.634-4.463,4.233-4.463,2.619,0,4.254,1.8,4.254,4.463,0,2.682-1.634,4.463-4.254,4.484C325.064,188.036,323.43,186.234,323.43,183.573Zm4.254,2.64c1.194,0,1.844-1.132,1.823-2.64,0-1.53-.629-2.661-1.823-2.661-1.236,0-1.865,1.132-1.865,2.661C325.819,185.082,326.447,186.213,327.684,186.213Z" transform="translate(-142.577 -72.203)" fill="#501d83"/>
    <path id="패스_2547" data-name="패스 2547" d="M330.547,189.315H328.2V177.79h2.347Z" transform="translate(-137.352 -73.648)" fill="#501d83"/>
    <path id="패스_2548" data-name="패스 2548" d="M331.82,183.573c0-2.661,1.634-4.463,4.233-4.463,2.619,0,4.254,1.8,4.254,4.463,0,2.682-1.634,4.463-4.254,4.484C333.454,188.036,331.82,186.234,331.82,183.573Zm4.254,2.64c1.194,0,1.844-1.132,1.823-2.64,0-1.53-.629-2.661-1.823-2.661-1.236,0-1.865,1.132-1.865,2.661C334.209,185.082,334.837,186.213,336.074,186.213Z" transform="translate(-133.386 -72.203)" fill="#501d83"/>
    <path id="패스_2549" data-name="패스 2549" d="M341.54,182.716h-1.718v6.873h-2.347v-6.873H336.26v-1.76h1.215v-.65a2.543,2.543,0,0,1,2.829-2.766,5.778,5.778,0,0,1,1.4.147v1.781c-.335-.021-.587-.042-.712-.042-.754,0-1.152.293-1.152,1.027v.524h1.718v1.739Z" transform="translate(-128.522 -73.923)" fill="#501d83"/>
    <path id="패스_2550" data-name="패스 2550" d="M341.26,177.79h2.389v4.777h5.008V177.79h2.41v11.525h-2.41v-4.777h-5.008v4.777H341.26Z" transform="translate(-123.045 -73.648)" fill="#501d83"/>
    <path id="패스_2551" data-name="패스 2551" d="M352.393,179.16h2.347v8.654h-2.263v-1.572h-.1a2.663,2.663,0,0,1-2.619,1.676c-1.718,0-2.913-1.215-2.913-3.248V179.16h2.347v5.092a1.5,1.5,0,0,0,1.509,1.676,1.675,1.675,0,0,0,1.676-1.8V179.16Z" transform="translate(-116.933 -72.148)" fill="#501d83"/>
    <path id="패스_2552" data-name="패스 2552" d="M351.49,179.226h2.242v1.509h.1a2.429,2.429,0,0,1,2.41-1.634,2.266,2.266,0,0,1,2.347,1.634h.084a2.8,2.8,0,0,1,5.343,1.32v5.8h-2.347v-5.343a1.307,1.307,0,0,0-1.362-1.467,1.368,1.368,0,0,0-1.4,1.53v5.28h-2.284v-5.406a1.283,1.283,0,0,0-1.341-1.4,1.478,1.478,0,0,0-1.425,1.613v5.2h-2.347v-8.633Z" transform="translate(-111.84 -72.214)" fill="#501d83"/>
    <path id="패스_2553" data-name="패스 2553" d="M361.345,182.787c.629-.042,1.781-.1,2.158-.1v-.691c0-.733-.5-1.132-1.383-1.152a1.28,1.28,0,0,0-1.425.964h-2.242c.147-1.488,1.446-2.682,3.751-2.682,1.886,0,3.667.838,3.667,2.934v5.825H363.65v-1.194h-.063a2.679,2.679,0,0,1-2.535,1.362c-1.655,0-2.871-.859-2.892-2.577C358.139,183.5,359.669,182.871,361.345,182.787Zm.335,3.6a1.687,1.687,0,0,0,1.823-1.634v-.629c-.356.021-1.362.063-1.76.1-.817.063-1.341.461-1.341,1.132C360.381,186.035,360.926,186.391,361.68,186.391Z" transform="translate(-104.533 -72.191)" fill="#501d83"/>
    <path id="패스_2554" data-name="패스 2554" d="M365.037,187.88H362.69v-8.654h2.242v1.509h.1a2.65,2.65,0,0,1,2.6-1.634c1.8,0,2.976,1.236,2.976,3.248v5.511h-2.347v-5.092a1.5,1.5,0,0,0-1.572-1.7,1.616,1.616,0,0,0-1.655,1.8Z" transform="translate(-99.571 -72.214)" fill="#501d83"/>
    <path id="패스_2555" data-name="패스 2555" d="M368.579,177.48a1.258,1.258,0,0,1,1.278,1.215,1.241,1.241,0,0,1-1.278,1.194,1.208,1.208,0,1,1,0-2.41ZM367.406,181h2.347v8.654h-2.347Z" transform="translate(-94.543 -73.988)" fill="#501d83"/>
    <path id="패스_2556" data-name="패스 2556" d="M374.216,182h-1.634v4.212c0,.691.335.859.817.88.23,0,.65-.021.943-.042v1.865a7.943,7.943,0,0,1-1.257.084c-1.7,0-2.871-.754-2.85-2.431v-4.547H369.04v-1.76h1.194V178.19h2.347v2.074h1.634V182Z" transform="translate(-92.615 -73.211)" fill="#501d83"/>
    <path id="패스_2557" data-name="패스 2557" d="M373.469,177.48a1.258,1.258,0,0,1,1.278,1.215,1.241,1.241,0,0,1-1.278,1.194,1.208,1.208,0,1,1,0-2.41ZM372.275,181h2.347v8.654h-2.347Z" transform="translate(-89.187 -73.988)" fill="#501d83"/>
    <path id="패스_2558" data-name="패스 2558" d="M374.06,183.594c0-2.661,1.634-4.484,4.17-4.484,2.263,0,4.065,1.425,4.065,4.379v.671h-5.909a1.917,1.917,0,0,0,1.991,2.116,1.665,1.665,0,0,0,1.613-.88h2.242c-.335,1.592-1.76,2.64-3.9,2.64C375.674,188.036,374.039,186.318,374.06,183.594Zm5.993-.922a1.722,1.722,0,0,0-1.781-1.8,1.835,1.835,0,0,0-1.886,1.8Z" transform="translate(-87.117 -72.203)" fill="#501d83"/>
    <path id="패스_2559" data-name="패스 2559" d="M382.428,180.775c-.775,0-1.341.356-1.341.9,0,.4.293.691,1.111.859l1.551.314c1.676.356,2.494,1.09,2.494,2.347,0,1.7-1.53,2.85-3.835,2.85-2.326,0-3.709-1.048-3.9-2.745h2.368c.1.671.671,1.027,1.53,1.027s1.425-.356,1.425-.9c0-.44-.356-.733-1.173-.88l-1.425-.293c-1.655-.335-2.494-1.173-2.473-2.452,0-1.655,1.425-2.682,3.646-2.682,2.179,0,3.541,1.027,3.667,2.682h-2.221A1.318,1.318,0,0,0,382.428,180.775Z" transform="translate(-82.242 -72.191)" fill="#501d83"/>
    <path id="패스_2560" data-name="패스 2560" d="M304.88,195.682c0-1.341.859-2.158,2.116-3.017a4.332,4.332,0,0,1-1.111-2.64,2.937,2.937,0,0,1,3.143-2.954,2.756,2.756,0,0,1,2.976,2.7,3.228,3.228,0,0,1-1.53,2.661l-.671.5,1.928,2.221a4.3,4.3,0,0,0,.482-1.991h1.949a5.9,5.9,0,0,1-1.027,3.6l1.739,1.991H312.4l-.712-.8a4.8,4.8,0,0,1-2.954.964C306.347,198.909,304.88,197.484,304.88,195.682Zm3.96,1.32a2.992,2.992,0,0,0,1.572-.482l-2.2-2.452-.084.063a1.927,1.927,0,0,0-.964,1.425A1.514,1.514,0,0,0,308.84,197Zm-.189-5.448.608-.4a1.421,1.421,0,0,0,.838-1.278.984.984,0,0,0-1.069-.922,1.092,1.092,0,0,0-1.132,1.09A2.839,2.839,0,0,0,308.652,191.554Z" transform="translate(-162.896 -63.483)" fill="#501d83"/>
    <path id="패스_2561" data-name="패스 2561" d="M316.382,189.061c-1.215,0-1.886.566-1.886,1.32,0,.838.859,1.215,1.844,1.425l1.027.251c1.97.461,3.457,1.467,3.457,3.374,0,2.116-1.655,3.457-4.463,3.457-2.787,0-4.568-1.278-4.631-3.751h2.326c.084,1.152,1.006,1.76,2.284,1.76,1.257,0,2.074-.587,2.074-1.446,0-.8-.712-1.152-1.97-1.467l-1.257-.293c-1.949-.482-3.143-1.446-3.143-3.143,0-2.1,1.844-3.478,4.358-3.478,2.556,0,4.233,1.425,4.275,3.457h-2.284C318.268,189.584,317.534,189.061,316.382,189.061Z" transform="translate(-155.393 -63.483)" fill="#501d83"/>
    <path id="패스_2562" data-name="패스 2562" d="M316.63,192.913c0-2.661,1.634-4.463,4.233-4.463,2.619,0,4.254,1.8,4.254,4.463,0,2.682-1.634,4.463-4.254,4.484C318.244,197.4,316.609,195.6,316.63,192.913Zm4.233,2.661c1.194,0,1.844-1.132,1.823-2.64,0-1.53-.629-2.661-1.823-2.661-1.236,0-1.865,1.132-1.865,2.661C319,194.443,319.647,195.553,320.863,195.574Z" transform="translate(-150.025 -61.972)" fill="#501d83"/>
    <path id="패스_2563" data-name="패스 2563" d="M321.22,192.913c0-2.64,1.613-4.463,4.233-4.463,2.221,0,3.751,1.3,3.835,3.29h-2.221a1.563,1.563,0,0,0-1.593-1.446c-1.132,0-1.886.964-1.886,2.6,0,1.676.733,2.619,1.886,2.619a1.555,1.555,0,0,0,1.593-1.425h2.221c-.1,1.949-1.551,3.311-3.835,3.311C322.813,197.4,321.22,195.553,321.22,192.913Z" transform="translate(-144.998 -61.972)" fill="#501d83"/>
    <path id="패스_2564" data-name="패스 2564" d="M327.019,186.82a1.258,1.258,0,0,1,1.278,1.215,1.241,1.241,0,0,1-1.278,1.194,1.26,1.26,0,0,1-1.3-1.194A1.277,1.277,0,0,1,327.019,186.82Zm-1.173,3.541h2.347v8.654h-2.347Z" transform="translate(-140.068 -63.757)" fill="#501d83"/>
    <path id="패스_2565" data-name="패스 2565" d="M330.775,192.127c.629-.042,1.781-.1,2.158-.1v-.691c0-.733-.5-1.132-1.383-1.152a1.28,1.28,0,0,0-1.425.964h-2.242c.147-1.488,1.446-2.682,3.751-2.682,1.886,0,3.667.838,3.667,2.934v5.825H333.08v-1.194h-.063a2.679,2.679,0,0,1-2.535,1.362c-1.655,0-2.871-.859-2.892-2.577C327.569,192.86,329.12,192.232,330.775,192.127Zm.335,3.625a1.687,1.687,0,0,0,1.823-1.634v-.629c-.356.021-1.362.063-1.76.1-.817.063-1.341.461-1.341,1.132S330.356,195.731,331.11,195.752Z" transform="translate(-138.02 -61.961)" fill="#501d83"/>
    <path id="패스_2566" data-name="패스 2566" d="M334.477,198.665H332.13V187.14h2.347Z" transform="translate(-133.046 -63.406)" fill="#501d83"/>
    <path id="패스_2567" data-name="패스 2567" d="M340.412,189.061c-1.215,0-1.886.566-1.886,1.32,0,.838.859,1.215,1.844,1.425l1.027.251c1.97.461,3.457,1.467,3.457,3.374,0,2.116-1.655,3.457-4.463,3.457-2.787,0-4.568-1.278-4.631-3.751h2.326c.084,1.152,1.006,1.76,2.284,1.76,1.257,0,2.074-.587,2.074-1.446,0-.8-.712-1.152-1.97-1.467l-1.257-.293c-1.949-.482-3.143-1.446-3.143-3.143,0-2.1,1.844-3.478,4.358-3.478,2.556,0,4.233,1.425,4.275,3.457h-2.284C342.3,189.584,341.564,189.061,340.412,189.061Z" transform="translate(-129.07 -63.483)" fill="#501d83"/>
    <path id="패스_2568" data-name="패스 2568" d="M340.66,192.913c0-2.64,1.613-4.463,4.233-4.463,2.221,0,3.751,1.3,3.835,3.29h-2.221a1.563,1.563,0,0,0-1.593-1.446c-1.132,0-1.886.964-1.886,2.6,0,1.676.733,2.619,1.886,2.619a1.555,1.555,0,0,0,1.593-1.425h2.221c-.1,1.949-1.551,3.311-3.835,3.311C342.232,197.4,340.639,195.553,340.66,192.913Z" transform="translate(-123.703 -61.972)" fill="#501d83"/>
    <path id="패스_2569" data-name="패스 2569" d="M346.449,186.82a1.258,1.258,0,0,1,1.278,1.215,1.241,1.241,0,0,1-1.278,1.194,1.26,1.26,0,0,1-1.3-1.194A1.306,1.306,0,0,1,346.449,186.82Zm-1.173,3.541h2.347v8.654h-2.347Z" transform="translate(-118.785 -63.757)" fill="#501d83"/>
    <path id="패스_2570" data-name="패스 2570" d="M347.05,192.934c0-2.661,1.634-4.484,4.17-4.484,2.263,0,4.065,1.425,4.065,4.379v.671h-5.909a1.917,1.917,0,0,0,1.991,2.116,1.665,1.665,0,0,0,1.613-.88h2.242c-.335,1.592-1.76,2.64-3.9,2.64C348.664,197.4,347.029,195.679,347.05,192.934Zm5.993-.9a1.722,1.722,0,0,0-1.781-1.8,1.835,1.835,0,0,0-1.886,1.8Z" transform="translate(-116.703 -61.972)" fill="#501d83"/>
    <path id="패스_2571" data-name="패스 2571" d="M354.037,197.23H351.69v-8.654h2.242v1.509h.1a2.65,2.65,0,0,1,2.6-1.634c1.8,0,2.975,1.236,2.975,3.248v5.511h-2.347v-5.092a1.5,1.5,0,0,0-1.572-1.7,1.616,1.616,0,0,0-1.655,1.8Z" transform="translate(-111.621 -61.972)" fill="#501d83"/>
    <path id="패스_2572" data-name="패스 2572" d="M356.17,192.913c0-2.64,1.613-4.463,4.233-4.463,2.221,0,3.751,1.3,3.835,3.29h-2.221a1.563,1.563,0,0,0-1.593-1.446c-1.132,0-1.886.964-1.886,2.6,0,1.676.733,2.619,1.886,2.619a1.556,1.556,0,0,0,1.593-1.425h2.221c-.1,1.949-1.551,3.311-3.835,3.311C357.762,197.4,356.17,195.553,356.17,192.913Z" transform="translate(-106.713 -61.972)" fill="#501d83"/>
    <path id="패스_2573" data-name="패스 2573" d="M360.56,192.934c0-2.661,1.634-4.484,4.17-4.484,2.263,0,4.065,1.425,4.065,4.379v.671h-5.909a1.917,1.917,0,0,0,1.991,2.116,1.665,1.665,0,0,0,1.613-.88h2.242c-.335,1.592-1.76,2.64-3.9,2.64C362.173,197.4,360.56,195.679,360.56,192.934Zm6.014-.9a1.722,1.722,0,0,0-1.781-1.8,1.835,1.835,0,0,0-1.886,1.8Z" transform="translate(-101.904 -61.972)" fill="#501d83"/>
    <path id="패스_2574" data-name="패스 2574" d="M368.928,190.115c-.775,0-1.341.356-1.341.9,0,.4.293.691,1.111.859l1.551.314c1.676.356,2.494,1.09,2.494,2.347,0,1.7-1.53,2.85-3.835,2.85-2.326,0-3.709-1.048-3.9-2.745h2.368c.1.671.671,1.027,1.53,1.027s1.425-.356,1.425-.9c0-.44-.356-.733-1.173-.88l-1.425-.293c-1.655-.335-2.494-1.173-2.494-2.452,0-1.655,1.425-2.682,3.646-2.682,2.179,0,3.541,1.027,3.667,2.682h-2.221C370.248,190.513,369.725,190.136,368.928,190.115Z" transform="translate(-97.03 -61.961)" fill="#501d83"/>
  </g>
  <rect id="사각형_283" data-name="사각형 283" width="147.558" height="0.691" transform="translate(141.397 95.655)" fill="#501d83"/>
</svg>
