<svg xmlns="http://www.w3.org/2000/svg" xmlns:xlink="http://www.w3.org/1999/xlink" width="490.02" height="100" viewBox="0 0 490.02 100">
  <defs>
    <clipPath id="clip-path">
      <rect id="사각형_2486" data-name="사각형 2486" width="490.02" height="99.557" transform="translate(0 0.001)" fill="#501d83"/>
    </clipPath>
  </defs>
  <g id="logo_intro_03" transform="translate(-100 -1339.021)">
    <rect id="base" width="490" height="100" transform="translate(100 1339.022)" fill="#fff"/>
    <g id="natural_science" data-name="natural science" transform="translate(100 1339.022)">
      <line id="선_1034" data-name="선 1034" y2="49.591" transform="translate(267.321 25.077)" fill="none" stroke="#501d83" stroke-width="2"/>
      <g id="그룹_3200" data-name="그룹 3200" transform="translate(0 -0.001)">
        <g id="그룹_3199" data-name="그룹 3199" clip-path="url(#clip-path)">
          <path id="패스_29486" data-name="패스 29486" d="M117.479,24.866h20.937v4.378h-7.838V50.428h-5.261V29.244h-7.838Z" fill="#501d83"/>
          <path id="패스_29487" data-name="패스 29487" d="M137.109,50.428l8.862-25.562h6.815l8.826,25.562h-5.684L154,44.532h-9.251l-1.924,5.9ZM152.662,40.4l-3.2-9.78h-.177L146.1,40.4Z" fill="#501d83"/>
          <path id="패스_29488" data-name="패스 29488" d="M164.508,24.866h17.159v4.378H169.8v6.214h10.981v4.378H169.8V46.05h11.9v4.378H164.508Z" fill="#501d83"/>
          <path id="패스_29489" data-name="패스 29489" d="M201.263,24.866V42.7c0,4.961-3.513,8.085-8.65,8.085-4.625,0-8.244-2.436-8.227-7.485h5.3a2.984,2.984,0,0,0,3.178,3.213c2.03,0,3.142-1.306,3.142-3.813V24.866Z" fill="#501d83"/>
          <path id="패스_29490" data-name="패스 29490" d="M204.122,50.428l8.862-25.562H219.8l8.826,25.562h-5.684l-1.924-5.9h-9.251l-1.924,5.9ZM219.675,40.4l-3.2-9.78H216.3l-3.2,9.78Z" fill="#501d83"/>
          <path id="패스_29491" data-name="패스 29491" d="M231.521,24.866H248.68v4.378H236.817v6.214H247.8v4.378H236.817V46.05h11.9v4.378h-17.2Z" fill="#501d83"/>
          <path id="패스_29492" data-name="패스 29492" d="M131.4,68.914a3.224,3.224,0,0,1-6.445,0V59.009h-3.243V69.174c0,3.427,2.573,5.72,6.466,5.709,3.882.011,6.488-2.282,6.488-5.709V59.009H131.4Z" fill="#501d83"/>
          <path id="패스_29493" data-name="패스 29493" d="M147.622,68.957h-.151l-6.834-9.948h-2.855V74.666h3.244V64.718h.13l6.877,9.948h2.811V59.009h-3.222Z" fill="#501d83"/>
          <rect id="사각형_2481" data-name="사각형 2481" width="3.244" height="15.657" transform="translate(153.966 59.009)" fill="#501d83"/>
          <path id="패스_29494" data-name="패스 29494" d="M166.3,70.946h-.151l-3.807-11.937H158.71l5.428,15.657h4.174l5.407-15.657h-3.59Z" fill="#501d83"/>
          <path id="패스_29495" data-name="패스 29495" d="M178.466,68.178h6.726V65.5h-6.726V61.69h7.266V59.009h-10.51V74.666h10.532V71.984h-7.288Z" fill="#501d83"/>
          <path id="패스_29496" data-name="패스 29496" d="M200.466,64.113c0-3.1-2.044-5.1-5.6-5.1h-6.142V74.666h3.244V69.108h2.476l3,5.558h3.59L197.7,68.579a4.525,4.525,0,0,0,2.769-4.466m-6.207,2.357H191.97v-4.8h2.292c1.925.011,2.865.865,2.855,2.444.01,1.568-.93,2.357-2.855,2.357" fill="#501d83"/>
          <path id="패스_29497" data-name="패스 29497" d="M209.933,65.605l-1.406-.346c-1.351-.3-2.519-.811-2.508-1.946.011-1.038.93-1.795,2.573-1.795,1.59,0,2.574.724,2.7,1.968h3.115c-.044-2.768-2.325-4.693-5.8-4.693-3.428,0-5.936,1.892-5.926,4.736,0,2.292,1.622,3.611,4.261,4.26l1.708.411c1.709.422,2.682.919,2.682,1.99,0,1.168-1.1,1.968-2.812,1.968-1.73,0-2.984-.8-3.092-2.379H202.27c.1,3.363,2.509,5.114,6.294,5.1,3.817.01,6.044-1.828,6.055-4.693-.011-2.606-2.011-3.969-4.693-4.585" fill="#501d83"/>
          <rect id="사각형_2482" data-name="사각형 2482" width="3.244" height="15.657" transform="translate(216.983 59.009)" fill="#501d83"/>
          <path id="패스_29498" data-name="패스 29498" d="M245.636,59.009l-3.59,6.747H241.9l-3.612-6.747H221.907v2.682h4.8V74.666h3.222V61.691h4.8v-2.5l5.607,9.9V74.67h3.244V69.087l5.709-10.078Z" fill="#501d83"/>
          <rect id="사각형_2483" data-name="사각형 2483" width="24.89" height="24.89" fill="#009b88"/>
          <path id="패스_29499" data-name="패스 29499" d="M49.779,0,24.89,24.889V74.668H49.779V24.889H74.668V0Z" fill="#321f78"/>
          <path id="패스_29500" data-name="패스 29500" d="M99.558,24.89H74.668V74.669H49.779V99.114A44.04,44.04,0,0,0,56,99.558,43.557,43.557,0,0,0,99.558,56.022Z" fill="#321f78"/>
          <path id="패스_29501" data-name="패스 29501" d="M49.779,49.779V24.889h24.89Z" fill="#1da03b"/>
          <rect id="사각형_2484" data-name="사각형 2484" width="24.89" height="24.89" fill="#009b88"/>
          <path id="패스_29502" data-name="패스 29502" d="M49.779,0,24.89,24.889V74.668H49.779V24.889H74.668V0Z" fill="#321f78"/>
          <path id="패스_29503" data-name="패스 29503" d="M99.558,24.89H74.668V74.669H49.779V99.114A44.04,44.04,0,0,0,56,99.558,43.557,43.557,0,0,0,99.558,56.022Z" fill="#321f78"/>
          <path id="패스_29506" data-name="패스 29506" d="M0,0H24.89V24.89H0Z" fill="#00a497"/>
          <path id="패스_29504" data-name="패스 29504" d="M49.779,0,24.89,24.889V74.668H49.779V24.889H74.668V0Z" fill="#501d83"/>
          <path id="패스_29505" data-name="패스 29505" d="M99.558,24.89H74.668V74.669H49.779V99.114A44.04,44.04,0,0,0,56,99.558,43.557,43.557,0,0,0,99.558,56.022Z" fill="#501d83"/>
          <path id="패스_31404" data-name="패스 31404" d="M1.1-17.424v2.448H5.616v1.368c0,3.528-1.848,7.56-5.328,9.216L1.968-2.04A10.67,10.67,0,0,0,7.152-8.472a10.117,10.117,0,0,0,5.04,5.9L13.824-4.92a9.652,9.652,0,0,1-5.232-8.688v-1.368h4.32v-2.448ZM14.568,2.016h2.976v-10.8h3.168v-2.448H17.544v-8.256H14.568ZM36.7-19.488v3H31.848a5.75,5.75,0,0,0-4.2-1.728,5.457,5.457,0,0,0-5.664,5.544,5.471,5.471,0,0,0,5.664,5.544,5.676,5.676,0,0,0,4.2-1.752H36.7v5.112h3v-15.72Zm-11.9,6.816A2.74,2.74,0,0,1,27.648-15.6a2.734,2.734,0,0,1,2.832,2.928A2.741,2.741,0,0,1,27.648-9.72,2.747,2.747,0,0,1,24.792-12.672Zm.72,14.28H40.176V-.768H28.512V-5.3h-3Zm7.632-15.72H36.7v2.856H33.144a5.452,5.452,0,0,0,.168-1.416A6.959,6.959,0,0,0,33.144-14.112Zm10.464-3.24v2.376h8.136a44.073,44.073,0,0,1-.576,7.368l2.9.24a46.407,46.407,0,0,0,.6-8.28v-1.7ZM42.5-4.776l.288,2.4a79.638,79.638,0,0,0,12.936-.84l-.144-2.16c-1.968.24-4.1.384-6.216.48v-6.288H46.44v6.36C45.048-4.8,43.7-4.776,42.5-4.776ZM56.592,1.992h2.952V-8.376H62.5v-2.448H59.544v-8.688H56.592Zm7.1-19.584v2.352H76.344v-2.352H71.5v-2.04H68.52v2.04Zm1.056,7.032c0,2.376,2.16,3.96,5.28,3.96,3.1,0,5.256-1.584,5.256-3.96s-2.16-3.96-5.256-3.96C66.912-14.52,64.752-12.936,64.752-10.56Zm1.512,7.824H77.592V2.016h2.976V-5.112h-14.3Zm1.344-7.824c0-1.128.96-1.7,2.424-1.7,1.416,0,2.4.576,2.4,1.7,0,1.1-.984,1.728-2.4,1.728C68.568-8.832,67.608-9.456,67.608-10.56Zm9.984,4.536h2.976V-11.5h2.9V-13.92h-2.9v-5.568H77.592Zm7.08-1.032v2.328h8.16V2.016h2.976V-4.728h8.328V-7.056ZM86.9-9.168h14.9v-9.48H98.88v2.472H89.832v-2.472H86.9Zm2.928-2.376v-2.3H98.88v2.3Z" transform="translate(284 59)" fill="#501d83"/>
        </g>
      </g>
    </g>
  </g>
</svg>
