<svg id="logo_data_science" xmlns="http://www.w3.org/2000/svg" xmlns:xlink="http://www.w3.org/1999/xlink" width="304" height="133" viewBox="0 0 304 133">
  <defs>
    <clipPath id="clip-path">
      <rect id="사각형_168" data-name="사각형 168" width="304" height="133" fill="none"/>
    </clipPath>
  </defs>
  <path id="패스_746" data-name="패스 746" d="M130.268,27.573h23.217v4.855h-8.692v23.49H138.96V32.428h-8.692Z" fill="#501d83"/>
  <path id="패스_747" data-name="패스 747" d="M152.036,55.919l9.827-28.345h7.556l9.788,28.345h-6.3l-2.133-6.538H160.512l-2.134,6.538ZM169.282,44.8l-3.543-10.845h-.2L162,44.8Z" fill="#501d83"/>
  <path id="패스_748" data-name="패스 748" d="M182.417,27.573h19.027v4.855H188.29v6.89h12.176v4.855H188.29v6.891h13.194v4.854H182.417Z" fill="#501d83"/>
  <g id="그룹_66" data-name="그룹 66">
    <g id="그룹_65" data-name="그룹 65" clip-path="url(#clip-path)">
      <path id="패스_749" data-name="패스 749" d="M223.173,27.573V47.344c0,5.5-3.9,8.966-9.592,8.966-5.129,0-9.142-2.7-9.122-8.3h5.872a3.31,3.31,0,0,0,3.524,3.563c2.251,0,3.485-1.449,3.485-4.229V27.573Z" fill="#501d83"/>
      <path id="패스_750" data-name="패스 750" d="M226.345,55.919l9.827-28.345h7.556l9.788,28.345h-6.3l-2.133-6.538H234.821l-2.134,6.538ZM243.591,44.8l-3.543-10.845h-.2L236.309,44.8Z" fill="#501d83"/>
      <path id="패스_751" data-name="패스 751" d="M256.726,27.573h19.027v4.855H262.6v6.89h12.176v4.855H262.6v6.891h13.193v4.854H256.726Z" fill="#501d83"/>
      <path id="패스_752" data-name="패스 752" d="M145.7,76.416a3.575,3.575,0,0,1-7.146,0V65.433h-3.6V76.7c0,3.8,2.853,6.343,7.17,6.331,4.3.012,7.194-2.53,7.194-6.331V65.433H145.7Z" fill="#501d83"/>
      <path id="패스_753" data-name="패스 753" d="M163.693,76.464h-.168l-7.578-11.031h-3.165V82.795h3.6V71.764h.144l7.626,11.031h3.117V65.433h-3.573Z" fill="#501d83"/>
      <rect id="사각형_158" data-name="사각형 158" width="3.597" height="17.362" transform="translate(170.728 65.433)" fill="#501d83"/>
      <path id="패스_754" data-name="패스 754" d="M184.406,78.67h-.168l-4.22-13.237h-4.029L182.008,82.8h4.628l5.995-17.362H188.65Z" fill="#501d83"/>
      <path id="패스_755" data-name="패스 755" d="M197.9,75.6h7.458V72.627H197.9v-4.22h8.057V65.433H194.3V82.795h11.678V79.822H197.9Z" fill="#501d83"/>
      <path id="패스_756" data-name="패스 756" d="M222.289,71.092c0-3.441-2.266-5.659-6.211-5.659h-6.81V82.794h3.6V76.632h2.746l3.321,6.162h3.981l-3.693-6.75a5.017,5.017,0,0,0,3.069-4.952m-6.882,2.614h-2.542V68.382h2.542c2.134.012,3.177.96,3.165,2.71.012,1.739-1.031,2.614-3.165,2.614" fill="#501d83"/>
      <path id="패스_757" data-name="패스 757" d="M232.788,72.747l-1.559-.384c-1.5-.335-2.793-.9-2.781-2.158.012-1.151,1.031-1.99,2.853-1.99,1.763,0,2.854.8,3,2.182h3.453c-.048-3.07-2.578-5.2-6.427-5.2-3.8,0-6.582,2.1-6.57,5.252,0,2.542,1.8,4,4.724,4.724l1.894.456c1.9.467,2.974,1.019,2.974,2.206,0,1.295-1.223,2.182-3.118,2.182-1.918,0-3.309-.887-3.429-2.638h-3.5c.108,3.729,2.782,5.672,6.978,5.66,4.233.012,6.7-2.027,6.715-5.2-.012-2.89-2.23-4.4-5.2-5.084" fill="#501d83"/>
      <rect id="사각형_159" data-name="사각형 159" width="3.597" height="17.362" transform="translate(240.605 65.433)" fill="#501d83"/>
      <path id="패스_758" data-name="패스 758" d="M272.377,65.433,268.4,72.915h-.168l-4-7.482H246.065v2.974h5.324V82.8h3.573V68.407h5.323V65.635L266.5,76.608V82.8h3.6V76.608l6.331-11.175Z" fill="#501d83"/>
      <rect id="사각형_160" data-name="사각형 160" width="27.599" height="27.599" transform="translate(0 0)" fill="#00a597"/>
      <path id="패스_759" data-name="패스 759" d="M55.2,0,27.6,27.6V82.8H55.2V27.6H82.8V0Z" fill="#501d83"/>
      <path id="패스_760" data-name="패스 760" d="M110.4,27.6H82.8V82.8H55.2V109.9a48.314,48.314,0,0,0,55.2-47.782Z" fill="#501d83"/>
      <path id="패스_761" data-name="패스 761" d="M55.2,55.2V27.6H82.8Z" fill="#0087dc"/>
      <rect id="사각형_161" data-name="사각형 161" width="27.599" height="27.599" transform="translate(0 0.001)" fill="#00a597"/>
      <path id="패스_762" data-name="패스 762" d="M55.2,0,27.6,27.6V82.8H55.2V27.6H82.8V0Z" fill="#501d83"/>
      <path id="패스_763" data-name="패스 763" d="M110.4,27.6H82.8V82.8H55.2V109.9a48.314,48.314,0,0,0,55.2-47.782Z" fill="#501d83"/>
      <rect id="사각형_162" data-name="사각형 162" width="27.599" height="27.599" transform="translate(0 0.001)" fill="#00a597"/>
      <path id="패스_764" data-name="패스 764" d="M55.2,0,27.6,27.6V82.8H55.2V27.6H82.8V0Z" fill="#501d83"/>
      <path id="패스_765" data-name="패스 765" d="M110.4,27.6H82.8V82.8H55.2V109.9a48.314,48.314,0,0,0,55.2-47.782Z" fill="#501d83"/>
      <path id="패스_766" data-name="패스 766" d="M139.958,101.157c-1.154,0-1.8.531-1.809,1.262-.007.8.813,1.154,1.764,1.367l.986.244c1.885.432,3.291,1.391,3.3,3.221-.008,2.013-1.572,3.306-4.256,3.3-2.658.007-4.353-1.225-4.421-3.588h2.218c.076,1.109.957,1.672,2.174,1.672,1.2,0,1.975-.563,1.975-1.383,0-.752-.684-1.1-1.885-1.4l-1.2-.287c-1.856-.457-2.994-1.385-2.994-2.994-.008-2,1.753-3.328,4.164-3.328,2.439,0,4.043,1.352,4.072,3.3h-2.188c-.091-.873-.783-1.383-1.9-1.383" fill="#501d83"/>
      <path id="패스_767" data-name="패스 767" d="M145.317,106.294a3.9,3.9,0,0,1,4.043-4.256c2.127,0,3.572,1.238,3.662,3.131h-2.111a1.512,1.512,0,0,0-1.52-1.383c-1.08.008-1.8.912-1.8,2.477,0,1.6.7,2.508,1.8,2.508a1.491,1.491,0,0,0,1.52-1.368h2.111c-.1,1.87-1.475,3.155-3.662,3.162-2.531-.007-4.051-1.755-4.043-4.271" fill="#501d83"/>
      <path id="패스_768" data-name="패스 768" d="M156.679,110.4h-2.25v-11h2.189v4.195h.09a2.438,2.438,0,0,1,2.463-1.55,2.778,2.778,0,0,1,2.858,3.1V110.4h-2.25v-4.863a1.427,1.427,0,0,0-1.489-1.627,1.555,1.555,0,0,0-1.611,1.719Z" fill="#501d83"/>
      <path id="패스_769" data-name="패스 769" d="M163.434,106.294a3.89,3.89,0,0,1,4.043-4.256c2.5,0,4.051,1.711,4.059,4.256-.008,2.552-1.559,4.263-4.059,4.271a3.9,3.9,0,0,1-4.043-4.271m4.059,2.523c1.146-.008,1.754-1.08,1.748-2.523s-.6-2.538-1.748-2.538c-1.178,0-1.779,1.086-1.779,2.538s.6,2.515,1.779,2.523" fill="#501d83"/>
      <path id="패스_770" data-name="패스 770" d="M172.624,106.294a3.89,3.89,0,0,1,4.043-4.256c2.5,0,4.051,1.711,4.059,4.256-.008,2.552-1.559,4.263-4.059,4.271a3.9,3.9,0,0,1-4.043-4.271m4.059,2.523c1.146-.008,1.754-1.08,1.748-2.523s-.6-2.538-1.748-2.538c-1.178,0-1.779,1.086-1.779,2.538s.6,2.515,1.779,2.523" fill="#501d83"/>
      <rect id="사각형_163" data-name="사각형 163" width="2.25" height="11.004" transform="translate(182.147 99.393)" fill="#501d83"/>
      <path id="패스_771" data-name="패스 771" d="M189.4,106.294a3.89,3.89,0,0,1,4.043-4.256c2.5,0,4.051,1.711,4.059,4.256-.008,2.552-1.559,4.263-4.059,4.271a3.9,3.9,0,0,1-4.043-4.271m4.059,2.523c1.146-.008,1.754-1.08,1.748-2.523s-.6-2.538-1.748-2.538c-1.178,0-1.779,1.086-1.779,2.538s.6,2.515,1.779,2.523" fill="#501d83"/>
      <path id="패스_772" data-name="패스 772" d="M203.321,103.833H201.68V110.4h-2.25v-6.564h-1.17v-1.687h1.17v-.624a2.436,2.436,0,0,1,2.705-2.644,5.834,5.834,0,0,1,1.338.137v1.7c-.326-.029-.562-.037-.683-.045-.723.008-1.11.281-1.11.973v.5h1.641Z" fill="#501d83"/>
      <path id="패스_773" data-name="패스 773" d="M208.286,110.4v-11h3.92c3.314,0,5.342,2.061,5.334,5.486.008,3.444-2.02,5.518-5.379,5.518Zm3.783-1.961c2.1,0,3.191-1.086,3.191-3.557,0-2.445-1.093-3.525-3.175-3.525h-1.52v7.082Z" fill="#501d83"/>
      <path id="패스_774" data-name="패스 774" d="M221.839,105.55c.591-.039,1.7-.092,2.05-.108v-.668c-.007-.691-.478-1.086-1.322-1.093a1.241,1.241,0,0,0-1.367.912h-2.143c.137-1.43,1.383-2.555,3.571-2.555,1.8,0,3.5.807,3.5,2.8V110.4H224v-1.14h-.061a2.535,2.535,0,0,1-2.418,1.293,2.425,2.425,0,0,1-2.75-2.463c.008-1.838,1.483-2.44,3.071-2.537m.318,3.449a1.6,1.6,0,0,0,1.732-1.551v-.6c-.341.015-1.306.068-1.685.1-.783.069-1.277.44-1.277,1.078s.509.965,1.23.973" fill="#501d83"/>
      <path id="패스_775" data-name="패스 775" d="M232.2,103.833h-1.551v4.027c-.008.66.319.821.776.836.228,0,.623-.023.9-.047v1.78a7.271,7.271,0,0,1-1.2.074c-1.625.008-2.734-.721-2.721-2.324v-4.346h-1.138v-1.687H228.4v-1.977h2.25v1.977H232.2Z" fill="#501d83"/>
      <path id="패스_776" data-name="패스 776" d="M236.292,105.55c.591-.039,1.7-.092,2.05-.108v-.668c-.007-.691-.478-1.086-1.322-1.093a1.241,1.241,0,0,0-1.367.912H233.51c.137-1.43,1.383-2.555,3.571-2.555,1.8,0,3.5.807,3.5,2.8V110.4H238.45v-1.14h-.061a2.535,2.535,0,0,1-2.418,1.293,2.425,2.425,0,0,1-2.75-2.463c.008-1.838,1.483-2.44,3.071-2.537M236.61,109a1.6,1.6,0,0,0,1.732-1.551v-.6c-.341.015-1.306.068-1.685.1-.783.069-1.277.44-1.277,1.078s.509.965,1.23.973" fill="#501d83"/>
      <path id="패스_777" data-name="패스 777" d="M250.013,101.157c-1.154,0-1.8.531-1.809,1.262-.007.8.813,1.154,1.764,1.367l.986.244c1.885.432,3.291,1.391,3.3,3.221-.008,2.013-1.572,3.306-4.256,3.3-2.658.007-4.353-1.225-4.421-3.588h2.218c.076,1.109.957,1.672,2.174,1.672,1.2,0,1.975-.563,1.975-1.383,0-.752-.684-1.1-1.885-1.4l-1.2-.287c-1.856-.457-2.994-1.385-2.994-2.994-.008-2,1.753-3.328,4.164-3.328,2.439,0,4.043,1.352,4.072,3.3h-2.188c-.091-.873-.783-1.383-1.9-1.383" fill="#501d83"/>
      <path id="패스_778" data-name="패스 778" d="M255.372,106.294a3.9,3.9,0,0,1,4.043-4.256c2.127,0,3.572,1.238,3.662,3.131h-2.111a1.512,1.512,0,0,0-1.52-1.383c-1.08.008-1.8.912-1.8,2.477,0,1.6.7,2.508,1.8,2.508a1.491,1.491,0,0,0,1.52-1.368h2.111c-.1,1.87-1.475,3.155-3.662,3.162-2.531-.007-4.051-1.755-4.043-4.271" fill="#501d83"/>
      <path id="패스_779" data-name="패스 779" d="M265.608,98.77a1.15,1.15,0,1,1-1.23,1.156,1.2,1.2,0,0,1,1.23-1.156m-1.125,3.375h2.25V110.4h-2.25Z" fill="#501d83"/>
      <path id="패스_780" data-name="패스 780" d="M268.152,106.309c-.008-2.547,1.566-4.271,3.982-4.271,2.166,0,3.875,1.369,3.875,4.179v.639H270.37a1.832,1.832,0,0,0,1.9,2.022,1.6,1.6,0,0,0,1.535-.836h2.142c-.318,1.527-1.687,2.515-3.724,2.523-2.529-.008-4.08-1.643-4.072-4.256m5.73-.867a1.64,1.64,0,0,0-1.7-1.717,1.767,1.767,0,0,0-1.809,1.717Z" fill="#501d83"/>
      <path id="패스_781" data-name="패스 781" d="M279.681,110.4h-2.25v-8.252h2.143v1.443h.091a2.5,2.5,0,0,1,2.477-1.55,2.77,2.77,0,0,1,2.844,3.1V110.4h-2.235v-4.863a1.438,1.438,0,0,0-1.49-1.627,1.541,1.541,0,0,0-1.58,1.719Z" fill="#501d83"/>
      <path id="패스_782" data-name="패스 782" d="M286.407,106.294a3.9,3.9,0,0,1,4.043-4.256c2.127,0,3.572,1.238,3.662,3.131H292a1.512,1.512,0,0,0-1.52-1.383c-1.08.008-1.795.912-1.795,2.477,0,1.6.7,2.508,1.795,2.508A1.491,1.491,0,0,0,292,107.4h2.111c-.1,1.87-1.475,3.155-3.662,3.162-2.531-.007-4.051-1.755-4.043-4.271" fill="#501d83"/>
      <path id="패스_783" data-name="패스 783" d="M295.185,106.309c-.008-2.547,1.566-4.271,3.982-4.271,2.166,0,3.875,1.369,3.875,4.179v.639H297.4a1.832,1.832,0,0,0,1.9,2.022,1.6,1.6,0,0,0,1.535-.836h2.142c-.32,1.527-1.687,2.515-3.722,2.523-2.531-.008-4.082-1.643-4.074-4.256m5.73-.867a1.64,1.64,0,0,0-1.7-1.717,1.767,1.767,0,0,0-1.809,1.717Z" fill="#501d83"/>
      <path id="패스_784" data-name="패스 784" d="M135.52,126.173c0-1.285.813-2.059,2.014-2.887a4.117,4.117,0,0,1-1.057-2.523,2.809,2.809,0,0,1,2.995-2.827,2.625,2.625,0,0,1,2.841,2.582,3.042,3.042,0,0,1-1.459,2.539l-.646.471,1.84,2.113a4.014,4.014,0,0,0,.463-1.9h1.869a5.585,5.585,0,0,1-.987,3.449l1.657,1.9h-2.356l-.677-.76a4.6,4.6,0,0,1-2.819.928c-2.279-.008-3.678-1.354-3.678-3.086m3.784,1.261a2.824,2.824,0,0,0,1.5-.457L138.7,124.63l-.076.053a1.834,1.834,0,0,0-.912,1.369,1.426,1.426,0,0,0,1.6,1.382m-.182-5.189.578-.389a1.4,1.4,0,0,0,.805-1.215.934.934,0,0,0-1.018-.882,1.037,1.037,0,0,0-1.08,1.033,2.644,2.644,0,0,0,.715,1.453" fill="#501d83"/>
      <path id="패스_785" data-name="패스 785" d="M148.954,129.09l3.814-11H155.7l3.8,11h-2.448l-.828-2.537h-3.982l-.828,2.537Zm6.693-4.316-1.375-4.209H154.2l-1.375,4.209Z" fill="#501d83"/>
      <path id="패스_786" data-name="패스 786" d="M160.712,120.839h2.174v1.428h.092a2.008,2.008,0,0,1,1.99-1.549,3.606,3.606,0,0,1,.715.074V122.8a3.885,3.885,0,0,0-.957-.123,1.672,1.672,0,0,0-1.764,1.719v4.695h-2.25Z" fill="#501d83"/>
      <path id="패스_787" data-name="패스 787" d="M171.54,122.524h-1.551v4.029c-.008.66.319.821.776.834.228,0,.623-.021.9-.045v1.78a7.254,7.254,0,0,1-1.2.074c-1.625.008-2.734-.721-2.721-2.324v-4.348H166.6v-1.686h1.138v-1.976h2.25v1.976h1.551Z" fill="#501d83"/>
      <path id="패스_788" data-name="패스 788" d="M174.083,117.463a1.15,1.15,0,1,1-1.23,1.157,1.191,1.191,0,0,1,1.23-1.157m-1.125,3.375h2.25v8.252h-2.25Z" fill="#501d83"/>
      <path id="패스_789" data-name="패스 789" d="M181.352,122.524h-1.641v6.566h-2.25v-6.566h-1.17v-1.686h1.17v-.623a2.436,2.436,0,0,1,2.705-2.644,5.834,5.834,0,0,1,1.338.137v1.7c-.326-.03-.562-.037-.683-.045-.723.008-1.11.281-1.11.972v.5h1.641Z" fill="#501d83"/>
      <path id="패스_790" data-name="패스 790" d="M183.806,117.463a1.15,1.15,0,1,1-1.231,1.157,1.2,1.2,0,0,1,1.231-1.157m-1.125,3.375h2.25v8.252h-2.25Z" fill="#501d83"/>
      <path id="패스_791" data-name="패스 791" d="M186.349,124.987a3.9,3.9,0,0,1,4.043-4.256c2.127,0,3.572,1.238,3.662,3.131h-2.111a1.512,1.512,0,0,0-1.52-1.383c-1.08.008-1.795.912-1.795,2.479,0,1.6.7,2.506,1.795,2.506a1.491,1.491,0,0,0,1.52-1.368h2.111c-.1,1.87-1.475,3.155-3.662,3.162-2.531-.007-4.051-1.755-4.043-4.271" fill="#501d83"/>
      <path id="패스_792" data-name="패스 792" d="M196.585,117.463a1.15,1.15,0,1,1-1.231,1.157,1.2,1.2,0,0,1,1.231-1.157m-1.125,3.375h2.25v8.252h-2.25Z" fill="#501d83"/>
      <path id="패스_793" data-name="패스 793" d="M202.138,124.243c.591-.039,1.7-.092,2.05-.108v-.668c-.007-.691-.478-1.086-1.322-1.093a1.241,1.241,0,0,0-1.367.912h-2.143c.137-1.43,1.383-2.555,3.571-2.555,1.8,0,3.5.807,3.5,2.8v5.562H204.3v-1.14h-.061a2.535,2.535,0,0,1-2.418,1.293,2.425,2.425,0,0,1-2.75-2.463c.008-1.838,1.483-2.44,3.071-2.537m.318,3.449a1.6,1.6,0,0,0,1.732-1.551v-.6c-.341.015-1.306.068-1.685.1-.783.069-1.277.44-1.277,1.078s.509.965,1.23.973" fill="#501d83"/>
      <rect id="사각형_164" data-name="사각형 164" width="2.25" height="11.004" transform="translate(208.149 118.086)" fill="#501d83"/>
      <rect id="사각형_165" data-name="사각형 165" width="2.279" height="11.004" transform="translate(215.788 118.086)" fill="#501d83"/>
      <path id="패스_794" data-name="패스 794" d="M222.13,129.09h-2.25v-8.252h2.143v1.443h.091a2.5,2.5,0,0,1,2.477-1.55,2.77,2.77,0,0,1,2.844,3.1v5.258H225.2v-4.863a1.438,1.438,0,0,0-1.49-1.627,1.541,1.541,0,0,0-1.58,1.719Z" fill="#501d83"/>
      <path id="패스_795" data-name="패스 795" d="M233.538,122.524h-1.551v4.029c-.008.66.319.821.776.834.228,0,.623-.021.9-.045v1.78a7.272,7.272,0,0,1-1.2.074c-1.625.008-2.734-.721-2.721-2.324v-4.348H228.6v-1.686h1.138v-1.976h2.25v1.976h1.551Z" fill="#501d83"/>
      <path id="패스_796" data-name="패스 796" d="M234.538,125c-.008-2.547,1.566-4.271,3.982-4.271,2.166,0,3.875,1.369,3.875,4.179v.639h-5.639a1.832,1.832,0,0,0,1.9,2.022,1.6,1.6,0,0,0,1.535-.836h2.142c-.318,1.527-1.687,2.515-3.724,2.523-2.529-.008-4.08-1.643-4.072-4.256m5.73-.867a1.64,1.64,0,0,0-1.7-1.717,1.767,1.767,0,0,0-1.809,1.717Z" fill="#501d83"/>
      <rect id="사각형_166" data-name="사각형 166" width="2.25" height="11.004" transform="translate(243.817 118.086)" fill="#501d83"/>
      <rect id="사각형_167" data-name="사각형 167" width="2.25" height="11.004" transform="translate(247.819 118.086)" fill="#501d83"/>
      <path id="패스_797" data-name="패스 797" d="M252.946,117.463a1.15,1.15,0,1,1-1.23,1.157,1.191,1.191,0,0,1,1.23-1.157m-1.125,3.375h2.25v8.252h-2.25Z" fill="#501d83"/>
      <path id="패스_798" data-name="패스 798" d="M255.717,129.774h2.219c.121.662.744.957,1.641.957,1.041,0,1.74-.447,1.748-1.6v-1.5h-.106a2.389,2.389,0,0,1-2.355,1.337c-1.864.008-3.36-1.306-3.36-4.058,0-2.789,1.536-4.18,3.36-4.18a2.439,2.439,0,0,1,2.355,1.49h.09v-1.382h2.234v8.343c-.007,2.1-1.664,3.176-4.011,3.176-2.28,0-3.686-1.025-3.815-2.584m3.846-2.492c1.123-.008,1.762-.873,1.762-2.34s-.631-2.418-1.762-2.418c-1.148,0-1.756,1-1.748,2.418-.008,1.428.607,2.332,1.748,2.34" fill="#501d83"/>
      <path id="패스_799" data-name="패스 799" d="M264.968,125c-.008-2.547,1.566-4.271,3.982-4.271,2.166,0,3.875,1.369,3.875,4.179v.639h-5.639a1.832,1.832,0,0,0,1.9,2.022,1.6,1.6,0,0,0,1.535-.836h2.142c-.318,1.527-1.687,2.515-3.724,2.523-2.529-.008-4.08-1.643-4.072-4.256m5.73-.867a1.64,1.64,0,0,0-1.7-1.717,1.767,1.767,0,0,0-1.809,1.717Z" fill="#501d83"/>
      <path id="패스_800" data-name="패스 800" d="M276.5,129.09h-2.25v-8.252h2.143v1.443h.091a2.5,2.5,0,0,1,2.477-1.55,2.77,2.77,0,0,1,2.844,3.1v5.258h-2.235v-4.863a1.438,1.438,0,0,0-1.49-1.627,1.541,1.541,0,0,0-1.58,1.719Z" fill="#501d83"/>
      <path id="패스_801" data-name="패스 801" d="M283.224,124.987a3.9,3.9,0,0,1,4.043-4.256c2.127,0,3.572,1.238,3.662,3.131h-2.111a1.512,1.512,0,0,0-1.52-1.383c-1.08.008-1.8.912-1.8,2.479,0,1.6.7,2.506,1.8,2.506a1.491,1.491,0,0,0,1.52-1.368h2.111c-.1,1.87-1.475,3.155-3.662,3.162-2.531-.007-4.051-1.755-4.043-4.271" fill="#501d83"/>
      <path id="패스_802" data-name="패스 802" d="M292,125c-.008-2.547,1.566-4.271,3.982-4.271,2.166,0,3.875,1.369,3.875,4.179v.639h-5.639a1.832,1.832,0,0,0,1.9,2.022,1.6,1.6,0,0,0,1.535-.836H299.8c-.32,1.527-1.687,2.515-3.722,2.523-2.531-.008-4.082-1.643-4.074-4.256m5.73-.867a1.64,1.64,0,0,0-1.7-1.717,1.767,1.767,0,0,0-1.809,1.717Z" fill="#501d83"/>
      <line id="선_2" data-name="선 2" x2="141.474" transform="translate(135.959 91.624)" fill="none" stroke="#501d83" stroke-width="0.3"/>
    </g>
  </g>
</svg>
