<svg id="logo_intro_02" xmlns="http://www.w3.org/2000/svg" xmlns:xlink="http://www.w3.org/1999/xlink" width="564" height="100" viewBox="0 0 564 100">
  <defs>
    <clipPath id="clip-path">
      <rect id="사각형_2478" data-name="사각형 2478" width="563.708" height="99.557" transform="translate(0 0.001)" fill="#501d83"/>
    </clipPath>
  </defs>
  <rect id="base" width="564" height="100" fill="#fff"/>
  <line id="선_1033" data-name="선 1033" y2="49.591" transform="translate(267.321 25.076)" fill="none" stroke="#501d83" stroke-width="2"/>
  <g id="그룹_3197" data-name="그룹 3197" clip-path="url(#clip-path)">
    <path id="패스_29446" data-name="패스 29446" d="M117.479,24.866h20.937v4.378h-7.838V50.428h-5.261V29.244h-7.838Z" fill="#501d83"/>
    <path id="패스_29447" data-name="패스 29447" d="M137.109,50.428l8.862-25.562h6.815l8.826,25.562h-5.684L154,44.532h-9.251l-1.924,5.9ZM152.662,40.4l-3.2-9.78h-.177L146.1,40.4Z" fill="#501d83"/>
    <path id="패스_29448" data-name="패스 29448" d="M164.508,24.866h17.159v4.378H169.8v6.214h10.981v4.378H169.8V46.05h11.9v4.378H164.508Z" fill="#501d83"/>
    <path id="패스_29449" data-name="패스 29449" d="M201.263,24.866V42.7c0,4.961-3.513,8.085-8.65,8.085-4.625,0-8.244-2.436-8.227-7.485h5.3a2.984,2.984,0,0,0,3.178,3.213c2.03,0,3.142-1.306,3.142-3.813V24.866Z" fill="#501d83"/>
    <path id="패스_29450" data-name="패스 29450" d="M204.122,50.428l8.862-25.562H219.8l8.826,25.562h-5.684l-1.924-5.9h-9.251l-1.924,5.9ZM219.675,40.4l-3.2-9.78H216.3l-3.2,9.78Z" fill="#501d83"/>
    <path id="패스_29451" data-name="패스 29451" d="M231.521,24.866H248.68v4.378H236.817v6.214H247.8v4.378H236.817V46.05h11.9v4.378h-17.2Z" fill="#501d83"/>
    <path id="패스_29452" data-name="패스 29452" d="M131.4,68.914a3.224,3.224,0,0,1-6.445,0V59.009h-3.243V69.174c0,3.427,2.573,5.72,6.466,5.709,3.882.011,6.488-2.282,6.488-5.709V59.009H131.4Z" fill="#501d83"/>
    <path id="패스_29453" data-name="패스 29453" d="M147.622,68.957h-.151l-6.834-9.948h-2.855V74.666h3.244V64.718h.13l6.877,9.948h2.811V59.009h-3.222Z" fill="#501d83"/>
    <rect id="사각형_2473" data-name="사각형 2473" width="3.244" height="15.657" transform="translate(153.966 59.009)" fill="#501d83"/>
    <path id="패스_29454" data-name="패스 29454" d="M166.3,70.946h-.151l-3.807-11.937H158.71l5.428,15.657h4.174l5.407-15.657h-3.59Z" fill="#501d83"/>
    <path id="패스_29455" data-name="패스 29455" d="M178.466,68.178h6.726V65.5h-6.726V61.69h7.266V59.009h-10.51V74.666h10.532V71.984h-7.288Z" fill="#501d83"/>
    <path id="패스_29456" data-name="패스 29456" d="M200.466,64.113c0-3.1-2.044-5.1-5.6-5.1h-6.142V74.666h3.244V69.108h2.476l3,5.558h3.59L197.7,68.579a4.525,4.525,0,0,0,2.769-4.466m-6.207,2.357H191.97v-4.8h2.292c1.925.011,2.865.865,2.855,2.444.01,1.568-.93,2.357-2.855,2.357" fill="#501d83"/>
    <path id="패스_29457" data-name="패스 29457" d="M209.933,65.605l-1.406-.346c-1.351-.3-2.519-.811-2.508-1.946.011-1.038.93-1.795,2.573-1.795,1.59,0,2.574.724,2.7,1.968h3.115c-.044-2.768-2.325-4.693-5.8-4.693-3.428,0-5.936,1.892-5.926,4.736,0,2.292,1.622,3.611,4.261,4.26l1.708.411c1.709.422,2.682.919,2.682,1.99,0,1.168-1.1,1.968-2.812,1.968-1.73,0-2.984-.8-3.092-2.379H202.27c.1,3.363,2.509,5.114,6.294,5.1,3.817.01,6.044-1.828,6.055-4.693-.011-2.606-2.011-3.969-4.693-4.585" fill="#501d83"/>
    <rect id="사각형_2474" data-name="사각형 2474" width="3.244" height="15.657" transform="translate(216.983 59.009)" fill="#501d83"/>
    <path id="패스_29458" data-name="패스 29458" d="M245.636,59.009l-3.59,6.747H241.9l-3.612-6.747H221.907v2.682h4.8V74.666h3.222V61.691h4.8v-2.5l5.607,9.9V74.67h3.244V69.087l5.709-10.078Z" fill="#501d83"/>
    <rect id="사각형_2475" data-name="사각형 2475" width="24.89" height="24.89" fill="#009b88"/>
    <path id="패스_29459" data-name="패스 29459" d="M49.779,0,24.89,24.889V74.668H49.779V24.889H74.668V0Z" fill="#321f78"/>
    <path id="패스_29460" data-name="패스 29460" d="M99.558,24.89H74.668V74.669H49.779V99.114A44.04,44.04,0,0,0,56,99.558,43.557,43.557,0,0,0,99.558,56.022Z" fill="#321f78"/>
    <path id="패스_29461" data-name="패스 29461" d="M49.779,49.779V24.889h24.89Z" fill="#ce0019"/>
    <rect id="사각형_2476" data-name="사각형 2476" width="24.89" height="24.89" fill="#009b88"/>
    <path id="패스_29462" data-name="패스 29462" d="M49.779,0,24.89,24.889V74.668H49.779V24.889H74.668V0Z" fill="#501d83"/>
    <path id="패스_29463" data-name="패스 29463" d="M99.558,24.89H74.668V74.669H49.779V99.114A44.04,44.04,0,0,0,56,99.558,43.557,43.557,0,0,0,99.558,56.022Z" fill="#321f78"/>
    <rect id="사각형_2477" data-name="사각형 2477" width="24.89" height="24.89" fill="#00a497"/>
    <path id="패스_29464" data-name="패스 29464" d="M49.779,0,24.89,24.889V74.668H49.779V24.889H74.668V0Z" fill="#501d83"/>
    <path id="패스_29465" data-name="패스 29465" d="M99.558,24.89H74.668V74.669H49.779V99.114A44.04,44.04,0,0,0,56,99.558,43.557,43.557,0,0,0,99.558,56.022Z" fill="#501d83"/>
  </g>
  <path id="패스_31403" data-name="패스 31403" d="M15.6-19.488v15.48h3v-15.48ZM1.056-12.672A5.538,5.538,0,0,0,6.888-7.224a5.524,5.524,0,0,0,5.832-5.448c0-3.192-2.544-5.448-5.832-5.448A5.509,5.509,0,0,0,1.056-12.672Zm2.9,0a2.771,2.771,0,0,1,2.928-2.88,2.758,2.758,0,0,1,2.928,2.88A2.765,2.765,0,0,1,6.888-9.816,2.778,2.778,0,0,1,3.96-12.672Zm.36,14.28H19.128V-.768H7.272v-4.8H4.32Zm17.4-10.44v2.376h8.472v3.7h3v-3.7h7.992V-8.832ZM23.976,1.632H39.024V-.744H26.952V-4.608H23.976Zm.144-12.24H38.712v-7.968H24.12Zm2.9-2.376v-3.264h8.76v3.264Zm20.568-4.824v3.168c0,4.008-1.752,8.136-5.328,9.816l1.8,2.4A10.422,10.422,0,0,0,49.08-8.712a9.968,9.968,0,0,0,4.7,5.88l1.8-2.352c-3.432-1.68-5.04-5.592-5.04-9.456v-3.168ZM56.52,2.016H59.5V-8.712h3.192v-2.472H59.5v-8.3H56.52Zm22.056-21.5v21.5h2.976v-21.5ZM63.768-4.032l.36,2.4A75.837,75.837,0,0,0,77.64-2.52l-.192-2.136c-1.7.216-3.5.36-5.3.456V-5.928c2.352-.432,3.864-1.92,3.864-3.936,0-2.4-2.184-4.008-5.352-4.008-3.144,0-5.328,1.608-5.328,4.008,0,2.016,1.512,3.48,3.84,3.912V-4.08C67.248-4.032,65.4-4.032,63.768-4.032Zm.408-10.752h12.96v-2.328H72.144v-2.3H69.168v2.3H64.176Zm3.984,4.92c0-1.152,1.032-1.776,2.5-1.776,1.488,0,2.52.624,2.52,1.776,0,1.176-1.032,1.8-2.52,1.8C69.192-8.064,68.16-8.688,68.16-9.864Zm16.512-7.728v2.352H97.32v-2.352H92.472v-2.04H89.5v2.04Zm1.056,7.032c0,2.376,2.16,3.96,5.28,3.96,3.1,0,5.256-1.584,5.256-3.96s-2.16-3.96-5.256-3.96C87.888-14.52,85.728-12.936,85.728-10.56ZM87.24-2.736H98.568V2.016h2.976V-5.112H87.24Zm1.344-7.824c0-1.128.96-1.7,2.424-1.7,1.416,0,2.4.576,2.4,1.7,0,1.1-.984,1.728-2.4,1.728C89.544-8.832,88.584-9.456,88.584-10.56Zm9.984,4.536h2.976V-11.5h2.9V-13.92h-2.9v-5.568H98.568Zm7.08-1.032v2.328h8.16V2.016h2.976V-4.728h8.328V-7.056Zm2.232-2.112h14.9v-9.48h-2.928v2.472h-9.048v-2.472H107.88Zm2.928-2.376v-2.3h9.048v2.3Z" transform="translate(282 59)" fill="#501d83"/>
</svg>
