<svg xmlns="http://www.w3.org/2000/svg" xmlns:xlink="http://www.w3.org/1999/xlink" width="161" height="56" viewBox="0 0 161 56">
  <defs>
    <clipPath id="clip-path">
      <rect id="사각형_2762" data-name="사각형 2762" width="161" height="56" fill="none"/>
    </clipPath>
  </defs>
  <g id="partner_woongjin" transform="translate(28 9)">
    <g id="mask" transform="translate(-28 -9)" clip-path="url(#clip-path)">
      <path id="패스_31360" data-name="패스 31360" d="M175.192,31.681l-.168-.013c-.033-.009-.2-.07-.2-.07l-.045-.042a.143.143,0,0,1-.047-.242l.206-.2a.6.6,0,0,1,.173-.139c.056-.03.1-.058.176-.093.106-.058.22-.106.346-.165s.039-.013.187-.082a.238.238,0,0,0,.056-.031c-.009-.019-.016-.043-.027-.064-.263-.514-.534-1.087-.825-1.593-.051-.082-.1-.17-.149-.256l-.073.046-.541.343-.306.216-.089.035h-.176a.6.6,0,0,1-.219-.043c-.113-.014-.15-.163-.15-.163l-.022-.069.022-.071.06-.086.105-.156.229-.223c.239-.154.463-.387.7-.548.012-.013.024-.02.035-.03a8.238,8.238,0,0,0-1.439-1.927c-.037.046-.073.087-.11.136-.226.341-.575.619-.8.965l-.251.143c-.136.071-.208,0-.208,0-.083-.014-.141-.117-.141-.117l-.041-.072a.2.2,0,0,1-.047-.194l.02-.164.114-.229a1.7,1.7,0,0,0,.241-.359l.155-.2c.118-.15.243-.3.359-.45a5.086,5.086,0,0,0-1.445-.535,1.16,1.16,0,0,0-.73.139,6.146,6.146,0,0,0-.209.686,5.671,5.671,0,0,0-.135.7,1.214,1.214,0,0,1-.065.243c-.034.241-.059.459-.115.708-.037.189-.091.4-.127.56-.049.179-.075.346-.12.524a8.718,8.718,0,0,0-.217,1.216c-.021.173-.03.416-.041.581a5.393,5.393,0,0,0-.069.594c.021.377-.075.7-.051,1.066a1.411,1.411,0,0,0,.374.99,2.926,2.926,0,0,0,.477.316,5.651,5.651,0,0,0,.733.237,1.966,1.966,0,0,0,.68.1,4.751,4.751,0,0,0,.949-.28,4.924,4.924,0,0,1,2.192.23c.134.023.273.054.408.087a1.5,1.5,0,0,0,.519-.258,2.686,2.686,0,0,0,.787-1.095,3.154,3.154,0,0,0-.018-1.031c-.219.116-.413.235-.656.375a.754.754,0,0,1-.232.046" transform="translate(-71.261 -10.515)" fill="#f7b500"/>
      <path id="패스_31361" data-name="패스 31361" d="M184.424,23.1a.576.576,0,0,0-.1-.309,1.829,1.829,0,0,0-.345-.213.735.735,0,0,0-.71.146l-.157.115c-.025.016-.039.039-.066.054-.056.04-.106.061-.166.1-.077.047-.142.136-.224.2-.194.154-.463.343-.646.52a2.978,2.978,0,0,1-.7.549,1.56,1.56,0,0,0-.286.233,1.994,1.994,0,0,1-.256.154,6.179,6.179,0,0,0-.815.491c-.182.139-.5.35-.706.542a2.509,2.509,0,0,1-.283.248c-.09.066-.2.147-.294.217a3.324,3.324,0,0,0-.29.212c-.087.076-.2.124-.287.2a3.928,3.928,0,0,1-.493.37c-.01.01-.023.018-.034.031-.235.16-.459.394-.7.548l-.229.223-.105.156-.06.086-.021.071.021.069s.037.149.15.163a.6.6,0,0,0,.219.043h.176l.09-.035.306-.216.541-.343.073-.046.71-.433c.429-.242.695-.509,1.082-.718l.076-.053c.071-.031.214-.091.286-.126a6.022,6.022,0,0,0,.915-.542c.286-.2.613-.424.921-.614a3.361,3.361,0,0,0,.485-.3.336.336,0,0,1,.07-.06l1.079-.656.51-.423c.052-.035.1-.077.147-.107.17-.153.141-.329.112-.551" transform="translate(-74.416 -9.506)" fill="#5c5e5e"/>
      <path id="패스_31362" data-name="패스 31362" d="M177.872,18.525a.552.552,0,0,0-.234-.161c-.191-.053-.349.082-.49.167a1.226,1.226,0,0,0-.371.261c-.054.077-.084.174-.147.254s-.1.139-.152.21-.091.15-.146.227a2.729,2.729,0,0,1-.156.237,1.3,1.3,0,0,0-.243.339,1.2,1.2,0,0,1-.2.262c-.221.261-.35.527-.564.81a2.165,2.165,0,0,0-.257.366,2.725,2.725,0,0,1-.162.272,1.441,1.441,0,0,1-.235.305,1.776,1.776,0,0,0-.227.323c-.079.122-.123.183-.195.28,0,.008-.015.019-.017.023-.116.148-.241.3-.359.45l-.154.195a1.717,1.717,0,0,1-.241.359l-.114.229-.021.165a.2.2,0,0,0,.047.194l.042.072s.058.1.141.117c0,0,.072.07.208,0l.251-.143c.224-.346.574-.625.8-.965.036-.049.072-.091.109-.137a7.66,7.66,0,0,0,.563-.736,4.324,4.324,0,0,1,.293-.423c.233-.3.462-.589.718-.864a5.982,5.982,0,0,0,.666-.839c.146-.217.392-.376.545-.583a1.329,1.329,0,0,0,.257-.443,1.526,1.526,0,0,0,.122-.6.327.327,0,0,0-.076-.226" transform="translate(-73.034 -7.74)" fill="#5c5e5e"/>
      <path id="패스_31363" data-name="패스 31363" d="M185.469,30.405a.286.286,0,0,0-.306-.182,1.82,1.82,0,0,0-.365.089,2.2,2.2,0,0,0-.348.151c-.1.042-.178.11-.274.156a4.432,4.432,0,0,0-.611.342,6.456,6.456,0,0,1-1.066.572,8.289,8.289,0,0,0-.907.539,2,2,0,0,1-.311.18c-.56.239-.616.313-.924.44-.131.058-.21.087-.319.138a.223.223,0,0,1-.056.031c-.147.069-.053.024-.187.082s-.239.106-.345.165c-.073.035-.121.062-.176.093a.606.606,0,0,0-.174.139l-.205.2a.143.143,0,0,0,.047.242l.045.042s.166.061.2.07l.168.013a.754.754,0,0,0,.232-.046c.242-.14.437-.258.656-.375a5.13,5.13,0,0,1,.542-.241c.3-.112.619-.217.912-.352a14.374,14.374,0,0,1,1.5-.7,5.472,5.472,0,0,0,.923-.4,4.872,4.872,0,0,1,.808-.352.813.813,0,0,0,.309-.183,1.31,1.31,0,0,0,.246-.285.842.842,0,0,0-.012-.567" transform="translate(-75.422 -12.745)" fill="#5c5e5e"/>
      <path id="패스_31364" data-name="패스 31364" d="M177.06,32.209c-.422-.2-.976-.34-1.4-.528a10.77,10.77,0,0,0-1.547-.535c-.134-.033-.273-.065-.408-.087a4.923,4.923,0,0,0-2.192-.23,4.785,4.785,0,0,1-.948.28,1.966,1.966,0,0,1-.68-.1,5.658,5.658,0,0,1-.733-.237,2.888,2.888,0,0,1-.477-.316,1.409,1.409,0,0,1-.374-.989c-.023-.364.073-.689.051-1.066a5.27,5.27,0,0,1,.069-.594c.011-.164.02-.408.041-.581a8.7,8.7,0,0,1,.217-1.216c.045-.178.072-.346.12-.524s.09-.372.127-.561c.055-.249.08-.467.115-.708a1.309,1.309,0,0,0,.065-.243,5.65,5.65,0,0,1,.135-.7,5.917,5.917,0,0,1,.209-.686c.04-.1.083-.2.128-.293.2-.4.326-.88.546-1.293a2.727,2.727,0,0,0,.154-.281c.032-.058.075-.142.075-.142s.08-.116.171-.253c.123-.2.1-.127.178-.263a.262.262,0,0,0,.077-.114.432.432,0,0,0,.079-.164.641.641,0,0,0-.066-.415c-.09-.141-.22-.339-.427-.354a1,1,0,0,0-.519.2.754.754,0,0,0-.2.2,2.166,2.166,0,0,0-.45.794c-.1.361-.247.711-.332,1.079s-.264.608-.372.972a6.085,6.085,0,0,0-.179.59,4.288,4.288,0,0,0-.059.6c-.04.229-.142.752-.173.925a9.2,9.2,0,0,1-.258,1.336,7.163,7.163,0,0,0-.457,2.265,8.911,8.911,0,0,0,.182,2.247,1.72,1.72,0,0,0,.2.418c.032.058.067.112.1.168a1.463,1.463,0,0,0,.2.24c.068.063.12.11.177.172a1.786,1.786,0,0,0,.43.295,1.94,1.94,0,0,0,.423.261,1.965,1.965,0,0,0,.451.131,2.092,2.092,0,0,0,.564,0,4.051,4.051,0,0,1,.734-.077c.189.008.357.017.556.008a6.669,6.669,0,0,1,1.2-.192,5.421,5.421,0,0,1,1.295.422,4.338,4.338,0,0,1,.768.294c.2.124.389.255.566.375a7.573,7.573,0,0,0,1.11.633c.23.1.378.219.538.3a8.808,8.808,0,0,0,.947.329c.18.058.4.167.555.058a.5.5,0,0,0,.171-.388c.154-.839-.826-1.132-1.48-1.447" transform="translate(-70.582 -8.017)" fill="#5c5e5e"/>
      <path id="패스_31365" data-name="패스 31365" d="M150.16,4.762a2.649,2.649,0,0,1,1.2.107l.876.329a2.065,2.065,0,0,1,.878.4l.5.408a8.608,8.608,0,0,1,.97.849,1.972,1.972,0,0,1,.287.472l.123.245a3.944,3.944,0,0,1,.369,1.367,1.44,1.44,0,0,1-.109.876l-.149.435a4.373,4.373,0,0,1-.371.906,5.141,5.141,0,0,1-.856,1,2.36,2.36,0,0,1-.62.372l-.464.244-.179.127-.376.235c-.021.009-.036.012-.053.019l.492.028.254.04a2.1,2.1,0,0,0,.648.048,2.514,2.514,0,0,0,.628-.192l.542-.175.659-.136a1.808,1.808,0,0,0,1.086-.74l.15-.23a3.593,3.593,0,0,0,.615-1.256l.192-.932.025-.673V8.319a3.579,3.579,0,0,0-.063-.972l-.041-.168a3.979,3.979,0,0,0-.523-1.431,8.941,8.941,0,0,0-1.144-1.32,8.363,8.363,0,0,0-1.1-.418c-3.253-.434-5.2.367-6.212,1.8a3.45,3.45,0,0,1,1.779-1.05" transform="translate(-62.575 -1.642)" fill="#f07400"/>
      <path id="패스_31366" data-name="패스 31366" d="M158.866,9.981l.046.275.042.229s-.03.631-.035.653a2.875,2.875,0,0,1-.328.832l-.176.361a2.684,2.684,0,0,1-.474.673l-.293.345-.361.354-.186.157-.252.252-.362.35-.216.13-.374.246a2.232,2.232,0,0,1-.854.453l-.092.035a8.394,8.394,0,0,1-2.189.487,11.505,11.505,0,0,1-3.212-.258,2.283,2.283,0,0,1-.393-.123,4.63,4.63,0,0,0,3.095,2.2,7.051,7.051,0,0,0,7.438-6.728,5.13,5.13,0,0,0-1.036-2.6,2.872,2.872,0,0,1,.195.8Z" transform="translate(-62.903 -3.502)" fill="#f07400"/>
      <path id="패스_31367" data-name="패스 31367" d="M151.8,13.168a3.384,3.384,0,0,0,1.5-.967l.265-.3a1.993,1.993,0,0,0,.469-.626,1.383,1.383,0,0,0,0-.622l-.019-.167a5.788,5.788,0,0,0-.384-1.735,3.215,3.215,0,0,0-.636-.964c-.005,0-.48-.542-.48-.542a1.042,1.042,0,0,0-.083-.077,2.006,2.006,0,0,0-1.221-.628l-.922.078a2.509,2.509,0,0,0-1.12.627l-.316.245a2.988,2.988,0,0,0-.778.789l-.4.673a3.354,3.354,0,0,0-.449,1.529,1.939,1.939,0,0,0,.379,1.4l.174.222a2.564,2.564,0,0,0,.566.6l.512.21.648.37a2.413,2.413,0,0,0,2.236-.1Z" transform="translate(-62.084 -2.759)" fill="#f07400"/>
      <path id="패스_31368" data-name="패스 31368" d="M148.838.1l-1.076.33-.684.343a3.243,3.243,0,0,0-1.063.75l-.324.542s-.3.414-.324.444l-.17.32-.227.231A5.373,5.373,0,0,0,144.1,5.1l-.152.731-.014.679a4.822,4.822,0,0,0,0,1.285l.056.377.11.641.335.941a1.751,1.751,0,0,0,.43.733l.221.275a.946.946,0,0,0,.371.37l.688.382a5.872,5.872,0,0,0,.787.418,2.265,2.265,0,0,0,.393.123,11.509,11.509,0,0,0,3.213.258,8.392,8.392,0,0,0,2.189-.486l.091-.035a2.218,2.218,0,0,0,.854-.453l.374-.246.216-.13.362-.35.253-.252.186-.158.361-.353.293-.345a2.689,2.689,0,0,0,.474-.672l.176-.361a2.9,2.9,0,0,0,.327-.833c0-.021.036-.651.036-.651l-.043-.231-.046-.275L156.63,5.6a2.877,2.877,0,0,0-.195-.8c-.117-.308-.449-.993-.449-.993a4.808,4.808,0,0,0-.5-.751l-.421-.558a11.375,11.375,0,0,0-1.136-1.38,1.739,1.739,0,0,0-.761-.342L151.838.352a5.116,5.116,0,0,0-1.881-.346ZM148.1,10.533l-.648-.371-.512-.21a2.564,2.564,0,0,1-.566-.6l-.174-.222a1.939,1.939,0,0,1-.379-1.4,3.349,3.349,0,0,1,.449-1.529l.4-.673a2.99,2.99,0,0,1,.779-.789l.316-.245a2.511,2.511,0,0,1,1.12-.627l.922-.077a2,2,0,0,1,1.221.627,1.042,1.042,0,0,1,.083.077s.474.539.48.542a3.214,3.214,0,0,1,.636.964,5.806,5.806,0,0,1,.384,1.735l.019.167a1.393,1.393,0,0,1,0,.622,2,2,0,0,1-.469.625l-.265.3a3.387,3.387,0,0,1-1.5.967l-.06.027a2.415,2.415,0,0,1-2.236.1m7.471-3.854V7.3l-.025.672-.192.932a3.6,3.6,0,0,1-.614,1.256l-.15.23a1.807,1.807,0,0,1-1.086.74l-.659.136-.542.175a2.521,2.521,0,0,1-.628.192,2.113,2.113,0,0,1-.648-.048l-.255-.04-.492-.029.052-.018.376-.235.179-.127.464-.245a2.36,2.36,0,0,0,.62-.372,5.107,5.107,0,0,0,.856-1,4.3,4.3,0,0,0,.371-.906l.149-.435a1.439,1.439,0,0,0,.11-.875,3.934,3.934,0,0,0-.37-1.367l-.123-.246a1.969,1.969,0,0,0-.287-.471,8.612,8.612,0,0,0-.97-.85l-.5-.408a2.072,2.072,0,0,0-.878-.4l-.875-.33a2.659,2.659,0,0,0-1.2-.106,3.446,3.446,0,0,0-1.779,1.05,3.568,3.568,0,0,0-.666.954,4.03,4.03,0,0,0-.515,2.188l.019.218a2.183,2.183,0,0,0,.186.86,2.358,2.358,0,0,1,.179.617,3.058,3.058,0,0,0,.407,1.046l-.313-.279-.518-.487a2.272,2.272,0,0,1-.5-.9l-.3-.518-.079-.114a1.218,1.218,0,0,1-.1-.642l0-.708a4.809,4.809,0,0,1,.445-1.283l.158-.361a2.96,2.96,0,0,1,.45-.712l.559-.666.188-.3.241-.364a3.56,3.56,0,0,1,.582-.483l.246-.182.77-.533a3.646,3.646,0,0,1,1.58-.538l.874.006a8.461,8.461,0,0,1,1.49.426l.4.245.252.166a7.32,7.32,0,0,1,1.278.969,8.912,8.912,0,0,1,1.144,1.32,3.979,3.979,0,0,1,.523,1.431l.042.168a3.6,3.6,0,0,1,.062.972" transform="translate(-60.684 0)" fill="#5c5e5e"/>
      <path id="패스_31369" data-name="패스 31369" d="M130.067,48.111c-.8,0-1.312.625-1.333,1.582v7.253c0,1.067-.2,1.731-.636,2.023l-.513.365a1.354,1.354,0,0,0-.641,1.181,1.434,1.434,0,0,0,1.553,1.426,3.168,3.168,0,0,0,2.747-2.5,5.945,5.945,0,0,0,.131-1.856V49.693c0-.938-.518-1.582-1.309-1.582" transform="translate(-53.535 -20.29)" fill="#3c4148"/>
      <path id="패스_31370" data-name="패스 31370" d="M140.246,48.111c-.775,0-1.3.625-1.313,1.582V57c0,.944.538,1.58,1.33,1.58.774,0,1.29-.62,1.313-1.58V49.693a1.4,1.4,0,0,0-1.329-1.582" transform="translate(-58.591 -20.29)" fill="#3c4148"/>
      <path id="패스_31371" data-name="패스 31371" d="M93.81,48.111a5.116,5.116,0,0,0-4.961,5.366v3.485c0,.969.552,1.626,1.364,1.626.8,0,1.318-.638,1.34-1.626V53.4a2.242,2.242,0,1,1,4.471-.067v3.632c0,.969.541,1.626,1.354,1.626.8,0,1.319-.638,1.341-1.626V53.411a5.1,5.1,0,0,0-4.909-5.3" transform="translate(-37.469 -20.29)" fill="#3c4148"/>
      <path id="패스_31372" data-name="패스 31372" d="M152.246,48.111a5.12,5.12,0,0,0-4.97,5.366v3.485a1.436,1.436,0,0,0,1.369,1.626c.8,0,1.319-.638,1.343-1.626V53.4a2.244,2.244,0,1,1,4.476-.067v3.632c0,.969.533,1.626,1.345,1.626s1.318-.638,1.341-1.626V53.411a5.1,5.1,0,0,0-4.9-5.3" transform="translate(-62.109 -20.29)" fill="#3c4148"/>
      <path id="패스_31373" data-name="패스 31373" d="M36.559,48.111c-.793,0-1.313.625-1.334,1.579V53.9a1.71,1.71,0,0,1-1.6,1.844,1.613,1.613,0,0,1-1.453-.981,3.484,3.484,0,0,1-.179-1.473v-3.6c0-.937-.534-1.579-1.307-1.579h-.02c-.776,0-1.292.625-1.309,1.579V53.9a1.715,1.715,0,0,1-1.612,1.844,1.622,1.622,0,0,1-1.454-.981,3.616,3.616,0,0,1-.175-1.473v-3.6a1.4,1.4,0,0,0-1.335-1.579c-.773,0-1.283.625-1.309,1.579v3.851a5.857,5.857,0,0,0,.575,2.783,4.389,4.389,0,0,0,3.715,2.263,4.1,4.1,0,0,0,2.924-1.283,4.23,4.23,0,0,0,2.954,1.283,4.136,4.136,0,0,0,3.294-1.713,5.049,5.049,0,0,0,.936-3.247V49.69c0-.937-.539-1.579-1.309-1.579" transform="translate(-9.898 -20.29)" fill="#3c4148"/>
      <path id="패스_31374" data-name="패스 31374" d="M61.723,54.835a4.93,4.93,0,0,0,4.7,3.811A5.278,5.278,0,0,0,66.45,48.11,5.022,5.022,0,0,0,61.7,51.987H60.058a5.029,5.029,0,0,0-4.768-3.847,5.284,5.284,0,0,0-.022,10.541,4.97,4.97,0,0,0,4.768-3.846ZM66.45,51a2.414,2.414,0,1,1-2.24,2.4A2.314,2.314,0,0,1,66.45,51M55.267,55.84a2.414,2.414,0,1,1,2.266-2.479,2.318,2.318,0,0,1-2.266,2.479" transform="translate(-21.241 -20.289)" fill="#3c4148"/>
      <path id="패스_31375" data-name="패스 31375" d="M114.87,59.243V57.781a4.925,4.925,0,1,0-6.236-4.722,4.943,4.943,0,0,0,3.6,4.74v1.424A4.97,4.97,0,0,0,108.664,64a4.892,4.892,0,1,0,6.206-4.755m-3.554-6.184a2.234,2.234,0,1,1,2.222,2.24,2.227,2.227,0,0,1-2.222-2.24m2.258,13.179a2.243,2.243,0,1,1,2.237-2.223,2.241,2.241,0,0,1-2.237,2.223" transform="translate(-45.813 -20.29)" fill="#3c4148"/>
      <path id="패스_31376" data-name="패스 31376" d="M15.459,38.491c-.279-.222-.466-.378-.466-.378-.483-.381-.9-.663-1.378-1.044-.079-.068-.235-.235-.313-.3-.145-.116-.286-.23-.426-.341s-.29-.2-.43-.31c-.1-.084-.2-.2-.3-.281-.223-.18-.441-.356-.648-.527-.237-.2-.462-.345-.682-.525-.227-.2-.444-.422-.651-.6L10,34.039l-.069.191a2.652,2.652,0,0,0-.1.91l-.051.721A56.606,56.606,0,0,1,8.32,41.849c1.312-.316,2-.663,3.417-1.073a22.455,22.455,0,0,0,2.215-.929c.836-.341,1.4-.4,2.188-.807-.125-.1-.244-.183-.364-.279s-.226-.2-.317-.269" transform="translate(-3.509 -14.355)" fill="#0091d9"/>
      <path id="패스_31377" data-name="패스 31377" d="M7.2,21.783c.55-.535.228-1.24.056-1.755a1.683,1.683,0,0,0-2.7-.354c-.317.488-.808,1.15-.357,1.819a2.68,2.68,0,0,0,3,.291" transform="translate(-1.695 -8.076)" fill="#c11d2a"/>
      <path id="패스_31378" data-name="패스 31378" d="M5.45,24.76c.119.411.194.828.21.862.005.285.013.571-.006.853-.006.12,0,.2-.013.327-.01.1-.04.234-.051.331a12.613,12.613,0,0,1-.272,1.345c-.069.271-.147.547-.223.821-.1.345-.155.593-.225.827-.064.2-.167.438-.236.647-.123.4-.25.807-.375,1.229-.152.511-.217,1.062-.336,1.6-.1.422-.306.891-.389,1.28-.052.277-.142.525-.169.749-.019.134.02.243,0,.364.025.009.153.378.252.41.155.057.487-.231.512-.225.009-.054.073-.13.122-.293.032-.123.042-.322.086-.478.079-.313.231-.542.316-.852l.16-.928a56.607,56.607,0,0,0,1.461-5.989l.051-.721a2.652,2.652,0,0,1,.1-.91l.069-.191.173.145c.207.18.424.407.651.6.221.18.446.33.682.526.208.171.426.346.649.526.1.084.194.2.3.282.14.11.289.2.43.309l.426.341c.077.064.234.231.313.3.477.381.9.663,1.377,1.044,0,0,.186.156.466.378.091.073.21.184.317.27s.238.176.364.278c.031.025.065.047.1.077.066.051.126.131.189.186.079.057.161.094.235.156.211.167.422.391.6.535.12.1.22.12.312.194.172.139.287.226.3.239a1.582,1.582,0,0,0,.286,0,.468.468,0,0,0,.212-.086.817.817,0,0,0,.23-.444c.016-.084-.107-.209-.091-.226-.108-.1-.188-.209-.31-.32s-.344-.253-.489-.382c-.333-.279-.668-.579-1.05-.881-.138-.108-.346-.224-.491-.334-.353-.268-.663-.537-1.024-.8s-.726-.561-1.072-.816c-.518-.368-1-.681-1.408-.975-.139-.1-.246-.193-.376-.278-.213-.142-.459-.271-.666-.413a1.072,1.072,0,0,1-.138-.113,1.393,1.393,0,0,1-.153-.09,6.656,6.656,0,0,1-.571-.456c-.077-.068-.156-.122-.238-.206-.108-.108-.218-.249-.328-.376l-.245-.467L6.2,24.088c.127-.049.253-.1.389-.15a6.991,6.991,0,0,0,.663-.291c.26-.127.575-.218.83-.355s.459-.316.712-.481c.325-.207.66-.432.992-.679.23-.177.492-.321.807-.6.253-.224.547-.559.8-.819a10.519,10.519,0,0,0,.736-.848c.078-.091.221-.2.3-.292a14.119,14.119,0,0,0,1.39-1.93,7.105,7.105,0,0,0,.6-1.284,3.079,3.079,0,0,0,.146-1.313,3.1,3.1,0,0,0-.169-.5,2,2,0,0,0-.8.115,2.587,2.587,0,0,0-1.18,1.667c-.07.213-.195.449-.275.672a3.767,3.767,0,0,1-.407.941c-.119.175-.354.359-.5.53A9.339,9.339,0,0,1,10.11,19.65c-.179.152-.32.345-.508.49-.228.185-.5.32-.732.5-.358.271-.7.538-1.017.788A11.539,11.539,0,0,1,6.5,22.3c-.269.161-.514.3-.777.44-.015-.089-.039-.208-.034-.2a5.033,5.033,0,0,0-.282-.8c-.058-.13-.1-.266-.152-.374-.075-.157-.158-.28-.186-.372a.337.337,0,0,0-.272-.232.642.642,0,0,0-.214.076c-.037.025-.056.071-.086.1a1.47,1.47,0,0,0,.049.29c.023.116.037.222.059.316a4.665,4.665,0,0,0,.1.52l.095.528s.152.476.171.521c-.176.079-.359.16-.564.243-.159.066-.455.157-.63.23-.274.117-.658.3-1.15.49-.236.087-.541.158-.787.254-.307.125-.61.209-.874.34-.149.071-.286.182-.407.251a2.529,2.529,0,0,0-.475.308c-.151.168-.087.337.168.462.169.082.6-.054.6-.054.322-.088.641-.17.954-.254s.652-.14.966-.22c.275-.07.534-.169.8-.243.611-.167,1.2-.338,1.782-.53Z" transform="translate(0 -6.136)" fill="#5c5e5e"/>
      <path id="패스_31379" data-name="패스 31379" d="M90.434,81.991l-.251-.006a4.576,4.576,0,0,0-1.026.17,3.523,3.523,0,0,1-.64.088,3.623,3.623,0,0,0-.463.047l-.326.064a3.266,3.266,0,0,1-.546.1l-.566.036a8.824,8.824,0,0,0-1.937.256,10.027,10.027,0,0,0-1.118.419l-.125.051v.049a.665.665,0,0,0,.142.059,6.767,6.767,0,0,0,1.081.337,14.637,14.637,0,0,1,1.988.589,7.116,7.116,0,0,0,.739.267c.474.108.372.124.843.231.293.062.263.176.565.22.176.031.334.058.511.1.087.014.184.069.248.082a.253.253,0,0,0,.318-.169c-.008-.043.06-.108.082-.147a1.49,1.49,0,0,0,.146-.427,4.056,4.056,0,0,0,.185-.445,9.32,9.32,0,0,1,.688-1.712,3.041,3.041,0,0,1,.082-.319c-.023,0-.176.048-.176.048a1.592,1.592,0,0,1-.442.013" transform="translate(-35.187 -34.552)" fill="#c11d2a"/>
      <path id="패스_31380" data-name="패스 31380" d="M77.607,85.548c-.054-.152-.131-.356-.175-.473a3.584,3.584,0,0,0-.951.437l-.126.084c-.317.225-.616.445-.962.647l-.269.143c-.01.009-.279.29-.279.29l-.45.5c-.132.16-.109.054-.236.216l-.684.565-.6.431s-.171.193-.365.371a2.714,2.714,0,0,1-.332.262.185.185,0,0,0-.061.122.123.123,0,0,0,.036.088l.322.217a1.558,1.558,0,0,1,.546.341l1.055.431.674.4s.386.256.364.243l.552.26.138.091s.309.152.354.173a.128.128,0,0,0,.105.037c.1-.042.179-.344.2-.524a2.112,2.112,0,0,1,.186-.786,2.037,2.037,0,0,0,.192-.711L77,88.878a4.63,4.63,0,0,0,.333-1.3l.085-.522s.172-.926.232-1.218a1.021,1.021,0,0,0-.021-.115,1.592,1.592,0,0,0-.026-.175" transform="translate(-30.414 -35.878)" fill="#a29c00"/>
      <path id="패스_31381" data-name="패스 31381" d="M85.4,70.2a4.434,4.434,0,0,1-.624,1.831,5.779,5.779,0,0,0-.5,1.136l-.173.542-.2.67-.067.28-.072.316-.1.405-.066.265-.076.309-.12.437a1.21,1.21,0,0,1-.052.182,1.5,1.5,0,0,1,.208.068l.059-.01a3.535,3.535,0,0,1,.435-.029,3.166,3.166,0,0,1,.334-.12c.474-.139.432-.282.84-.587.219-.164.7-.363.917-.518.279-.2.751-.473,1.03-.637l.791-.521c.06-.024.18-.076.3-.132,0,0,.253-.111.033-.47-.231-.3-.552-.689-.671-.854a5.125,5.125,0,0,0-.45-.629c-.152-.169-.274-.53-.447-.684-.153-.136-.6-1.072-.759-1.2-.3-.249-.441-.717-.751-.924l-.005.006a1.121,1.121,0,0,1,.185.68c0,.064,0,.125,0,.186" transform="translate(-35.153 -29.238)" fill="#f7b500"/>
      <path id="패스_31382" data-name="패스 31382" d="M85.7,75.863c-.143-.629-1.487-.472-1.642-.453h0a2.159,2.159,0,0,0-.378.08,1.828,1.828,0,0,1-.526.087c-.238.024-.487.048-.725.084l-.537.07a5.537,5.537,0,0,0-.915.157,5.31,5.31,0,0,1-1.065.23,5.674,5.674,0,0,1-.583,0,2.7,2.7,0,0,0-.965.095,4.543,4.543,0,0,1-.592.122l-.269.04a4.5,4.5,0,0,1-.556.039,3.535,3.535,0,0,0-.435.029l-.058.009a1.553,1.553,0,0,0-.208-.067,1.1,1.1,0,0,0,.052-.182l.12-.437.076-.309.066-.265.1-.406.072-.316.067-.28.2-.671.174-.542a5.714,5.714,0,0,1,.5-1.136,4.438,4.438,0,0,0,.624-1.831c0-.06,0-.122,0-.186a1.061,1.061,0,0,0-.19-.673.519.519,0,0,0-.311-.207l-.145-.061-.134.014a.664.664,0,0,0-.516.219,1.078,1.078,0,0,0-.134.372l-.106.357-.084.275-.068.3a3.187,3.187,0,0,1-.237.724c-.045.108-.1.218-.152.351a2.327,2.327,0,0,0-.076.324,2.029,2.029,0,0,1-.115.391,2.259,2.259,0,0,0-.169.689,3.028,3.028,0,0,1-.1.511l-.179.611-.112.411a10.22,10.22,0,0,0-.349,1.454,2.417,2.417,0,0,1-.494-.39s-.85-.854-1.048-1.116a4.285,4.285,0,0,0-.649-.643c-.13-.119-.266-.232-.391-.361a8.558,8.558,0,0,1-.779-.855s-.419-.537-.555-.734c-.114-.165-.232-.323-.382-.505a.723.723,0,0,0-.261-.223l-.139-.091-.171-.036a.646.646,0,0,0-.227.15.428.428,0,0,0-.063.241.472.472,0,0,0,.016.147.675.675,0,0,0,.242.375l.106.1a2.383,2.383,0,0,1,.338.619,3.027,3.027,0,0,0,.309.588,8.194,8.194,0,0,0,.715.97l.231.249a3.609,3.609,0,0,1,.244.387,2.208,2.208,0,0,0,.407.579,4.427,4.427,0,0,1,.32.384s.612.774.774,1.05a3.76,3.76,0,0,0,.228.334,6.644,6.644,0,0,0-.815.322s-1.056.56-1.335.676a5.989,5.989,0,0,1-.609.215,5.949,5.949,0,0,0-.676.248,3.864,3.864,0,0,0-.623.369l-.349.232c-.2.115-.974.478-1.142.568l-.767.449c-.567.312-.977.538-1.057,1.129a1.5,1.5,0,0,0-.018.215.828.828,0,0,0,.565.8c.56.264.778.173,1.363-.073l.234-.14a3.581,3.581,0,0,1,.53-.383l.224-.134s.654-.455.819-.547l.486-.243c.2-.094.393-.19.583-.295a3.465,3.465,0,0,0,.494-.359l.136-.112a3.662,3.662,0,0,1,.676-.405l.147-.078.269-.143c.346-.2.645-.422.962-.647l.126-.084a3.6,3.6,0,0,1,.951-.437c.045.117.121.322.175.473a1.616,1.616,0,0,1,.026.175,1.019,1.019,0,0,1,.021.115,2.693,2.693,0,0,0,.082.318l.061.243a3.105,3.105,0,0,0,.237.6,2.276,2.276,0,0,1,.242.667,7.5,7.5,0,0,0,.756,1.974c.29.594.436.944.436.944.165.391.46,1.114.8,1.258.167.064.254.027.3-.017a.271.271,0,0,0,.071-.2.664.664,0,0,0-.056-.251l-.108-.274a2.913,2.913,0,0,1-.167-.411l-.186-.577a10.981,10.981,0,0,1-.349-1.206,2.7,2.7,0,0,0-.109-.357,1.8,1.8,0,0,1-.116-.438,5.075,5.075,0,0,0-.178-.7l-.241-.9c-.059-.257-.122-.52-.2-.791l-.039-.116a3.639,3.639,0,0,1-.22-1.007v-.061l.125-.051a10.143,10.143,0,0,1,1.118-.418,8.824,8.824,0,0,1,1.937-.256l.566-.036a3.267,3.267,0,0,0,.546-.1l.326-.064a3.843,3.843,0,0,1,.463-.047,3.473,3.473,0,0,0,.64-.087,4.576,4.576,0,0,1,1.026-.17l.251.006a1.558,1.558,0,0,0,.438-.013,2.62,2.62,0,0,1,.475-.1,3.292,3.292,0,0,0,.486-.021l.146-.009c.262-.01.671-.035.818-.228a.287.287,0,0,0,.046-.252" transform="translate(-28.043 -29.052)" fill="#5c5e5e"/>
      <path id="패스_31383" data-name="패스 31383" d="M169.863,77.528c.359.043.59.149.959.211a3.912,3.912,0,0,0,.559.119,1.409,1.409,0,0,1,.5.09h.012a.224.224,0,0,0,.031.026c.123.02.239.031.367.058.316.066.658.208.977.3.231.067.4.107.622.182a4.895,4.895,0,0,0,1.046.159c.119.017.266.072.374.075,0,0,.258.046.11-.169a8.553,8.553,0,0,1-.645-.667c-.137-.178-.325-.379-.45-.566a11.489,11.489,0,0,1-.622-.987c-.14-.243-.038-.291-.167-.541-.155-.326-.4-.88-.525-1.222-.1-.316-.178-.7-.257-.946-.12-.375-.139-.943-.219-1.323-.058-.272-.144-1.289-.206-1.861a6.842,6.842,0,0,1-.017-.826.273.273,0,0,0-.028-.043c-.043-.046-.109-.18-.36,0a4.654,4.654,0,0,0-.457.462c-.023.033-.238.409-.256.449a5.318,5.318,0,0,0-.6.851c-.648,1.09-1.177,1.94-1.5,2.437-.541.815-1.035,1.5-1.528,2.338-.182.311-.35.6-.1.82a3.406,3.406,0,0,0,.969.393c.212.086.427.154.636.219a.319.319,0,0,1,.091-.053,2.184,2.184,0,0,1,.675.012" transform="translate(-70.582 -29.313)" fill="#c11d2a"/>
      <path id="패스_31384" data-name="패스 31384" d="M177.676,59.627c.457-.8-.15-1.413-.557-2.048-1.171-.568-2.487-.568-3.066.631-.124.715-.47,1.441.217,2.008a3.067,3.067,0,0,0,3.406-.592" transform="translate(-73.318 -24.127)" fill="#0091d9"/>
      <path id="패스_31385" data-name="패스 31385" d="M178.735,77.3a.717.717,0,0,0-.3-.365c-.077-.051-.267-.211-.285-.23a7.256,7.256,0,0,1-.7-.679c-.149-.162-.309-.282-.446-.457s-.247-.406-.376-.593a7.873,7.873,0,0,1-.507-.8c-.079-.154-.252-.5-.324-.662-.139-.3-.269-.644-.393-.944-.064-.159-.066-.346-.118-.5-.1-.258-.108-.39-.2-.72-.066-.227-.161-.8-.2-1.027-.082-.341-.1-1.169-.14-1.445a8.656,8.656,0,0,1-.084-1.278l-.023-.8-.1-.594-.086-1.044c-.223-.537-.5-.4-.688.019a2.752,2.752,0,0,0-.124.353c-.022.087-.04.18-.057.282-.04.212-.065.4-.088.578-.038.4,0,1.254,0,1.271a6.837,6.837,0,0,0,.017.826c.062.572.149,1.589.206,1.861.08.379.1.948.219,1.323.079.242.156.63.257.946.121.342.37.9.525,1.222.128.25.027.3.167.541a11.53,11.53,0,0,0,.621.987c.125.187.313.389.45.566a8.453,8.453,0,0,0,.646.667c.148.215-.11.169-.11.169-.108,0-.255-.057-.374-.075a4.895,4.895,0,0,1-1.047-.159c-.224-.075-.391-.115-.622-.182-.319-.094-.661-.236-.977-.3-.127-.027-.244-.038-.367-.058a.225.225,0,0,1-.032-.026h-.011a1.41,1.41,0,0,0-.5-.09,3.888,3.888,0,0,1-.559-.119c-.368-.062-.6-.168-.959-.211a2.184,2.184,0,0,0-.675-.012.327.327,0,0,0-.091.053.219.219,0,0,0-.043.358,1.161,1.161,0,0,0,.441.163,5.946,5.946,0,0,1,.634.2,5,5,0,0,0,.6.185,1.872,1.872,0,0,1,.305.062c.067.023.145.058.215.081.013.006.328.1.487.153.108.042.29.156.4.2.325.107.664.215,1.018.318.262.073.537.149.8.231.03.009.4.107.55.146.17.046.328.089.5.133a2.941,2.941,0,0,0,.585.1c.381.013.777.053,1.163.034s.984-.189.807-.646" transform="translate(-71.756 -27.329)" fill="#5c5e5e"/>
      <path id="패스_31386" data-name="패스 31386" d="M139.767,34.686a2.416,2.416,0,0,0,.494-.324c.329-.306.7-.629,1.029-.934.221-.2.379-.4.578-.607.242-.254.526-.508.759-.784a2.751,2.751,0,0,0,.47-1.17,1.527,1.527,0,0,0-.029-.97c-.121-.182-.806-.338-.869-.06a2.627,2.627,0,0,0-1.378.472,3.562,3.562,0,0,0-.615.592,3.127,3.127,0,0,0-.264.306c-.06.087-.163.159-.212.243s-.046.18-.1.263-.106.115-.141.186a2.715,2.715,0,0,1-.229.446,5.8,5.8,0,0,1-.649.629,1.8,1.8,0,0,0-.265.389c-.151.252-.327.456-.494.692a.772.772,0,0,0-.092.279,4.667,4.667,0,0,1-.522.937c-.009.056-.139.254-.145.328a1.48,1.48,0,0,0,.236.414l.005,0,.408-.128.708-.271,1.014-.619.128-.071c-.023-.019-.027-.062.172-.237" transform="translate(-57.816 -12.519)" fill="#b80069"/>
      <path id="패스_31387" data-name="패스 31387" d="M128.054,35.234c-.046-.056-.108-.073-.156-.12a.722.722,0,0,1-.19-.313,2.114,2.114,0,0,0-.542-.72c-.146-.15-.245-.345-.383-.5a4.543,4.543,0,0,0-.884-.556,2.089,2.089,0,0,1-.25-.232,5.019,5.019,0,0,0-.817-.5,3.2,3.2,0,0,0-.8-.444c-.209-.058-.435-.03-.649-.071-.356-.065-.7-.185-1.051-.246-.427-.072-.859-.158-1.287-.193a12.159,12.159,0,0,0-1.252-.158,1.106,1.106,0,0,0-.626.093,1.017,1.017,0,0,0-.261.62,4.126,4.126,0,0,0,.09,1.605,1.475,1.475,0,0,0,.122.294c.171.242.3.551.482.772a5.528,5.528,0,0,1,.535.706,3.29,3.29,0,0,0,.633.714c.182.122.55.217.733.352.076.058.088.029.167.1a1.663,1.663,0,0,0,.561.315c.605.245,1.216.493,1.814.771a2.844,2.844,0,0,0,1.879.209c.408-.1.817-.175,1.211-.277a3.023,3.023,0,0,0,.873-.462,1.5,1.5,0,0,0,.487-.524,1.109,1.109,0,0,0,.109-.273l-.022-.019a5.96,5.96,0,0,0-.529-.944" transform="translate(-50.129 -13.152)" fill="#a29c00"/>
      <path id="패스_31388" data-name="패스 31388" d="M135.3,29.405a.765.765,0,0,0-.665-.29,3.269,3.269,0,0,0-.516-.046c-.156.014-.556.11-.7.146a4.986,4.986,0,0,0-.832.437,3.185,3.185,0,0,0-.8.6,9.085,9.085,0,0,0-.771.891c-.291.3-.4.618-.686.88a3.823,3.823,0,0,0-.7.91,5.732,5.732,0,0,1-.382.557c-.086.117-.128.262-.228.4a4.835,4.835,0,0,1-.446.671c-.06.069-.328-.507-.328-.507a6.718,6.718,0,0,0-.427-.581,2.1,2.1,0,0,0-.285-.381,11.347,11.347,0,0,0-1.286-1.113c-.23-.141-.333-.27-.752-.586a6.939,6.939,0,0,0-.823-.6,4.591,4.591,0,0,1-.69-.351.99.99,0,0,0-.326-.239,11.309,11.309,0,0,0-2.855-1,5.213,5.213,0,0,0-1.022-.147c-.123.007-.544.028-.653.045a2.547,2.547,0,0,0-.663.226,1.551,1.551,0,0,0-.648,1.1,3.669,3.669,0,0,0-.016.753,4.32,4.32,0,0,0,0,.634c.017-.01.035.416.047.4a.933.933,0,0,0,.067.328c.039.138.1.257.135.4.049.2.176.289.252.485.061.17.123.149.179.314a3.957,3.957,0,0,0,.6.9,4.741,4.741,0,0,0,.511.553,2.905,2.905,0,0,0,.371.338c.119.091.253.135.376.243a11.158,11.158,0,0,0,1.045.844,10.616,10.616,0,0,0,1.3.415c.349.093.692.168,1.059.235.4.068.722.065,1.117.111a3.9,3.9,0,0,0,.67-.017c.16-.008.313-.038.468-.058a2.276,2.276,0,0,0,.683-.169c.192-.09.384-.192.579-.292a2.816,2.816,0,0,0,.524-.335c.115-.1.188-.237.3-.335a.721.721,0,0,0,.247-.283c.266.1.246.428.308.567a.809.809,0,0,1,.1.371c.005.134.053.252.054.373a2.649,2.649,0,0,1-.061.717c-.017.078-.095.247-.046.334.09.179.273-.049.322-.122.177-.257.324-.365.363-.688.01-.1.1-.262.075-.376.008-.1-.01-.3.008-.416l-.03-.207a2.984,2.984,0,0,0-.1-.493.512.512,0,0,0-.142-.21,1.5,1.5,0,0,1-.236-.414c.006-.075.135-.272.145-.328a4.642,4.642,0,0,0,.522-.938.763.763,0,0,1,.093-.278c.168-.236.343-.441.494-.692a1.825,1.825,0,0,1,.265-.389,5.755,5.755,0,0,0,.649-.629,2.737,2.737,0,0,0,.23-.446,2.3,2.3,0,0,1,.141-.186c.051-.082.051-.187.1-.263s.152-.156.211-.243a3.208,3.208,0,0,1,.264-.306,3.629,3.629,0,0,1,.615-.593,2.626,2.626,0,0,1,1.378-.472c.064-.278.748-.122.869.06a1.527,1.527,0,0,1,.029.97,2.743,2.743,0,0,1-.47,1.17c-.233.276-.517.53-.759.784-.2.2-.356.408-.578.607-.332.3-.7.627-1.028.934a2.444,2.444,0,0,1-.5.324c-.2.175-.2.218-.172.237.008.007.019.01.019.016a1.589,1.589,0,0,0,.408-.189c.12-.076.368-.209.482-.3.317-.236.631-.523.944-.758.149-.114.311-.277.453-.4.165-.153.384-.268.547-.42a5.723,5.723,0,0,0,.74-.8,6.641,6.641,0,0,0,.346-.774,2.4,2.4,0,0,0,.131-.846.979.979,0,0,0-.219-.793m-7.265,6.168a1.5,1.5,0,0,1-.487.524,3.016,3.016,0,0,1-.873.462c-.393.1-.8.176-1.21.277a2.844,2.844,0,0,1-1.879-.209c-.6-.278-1.209-.526-1.815-.771a1.665,1.665,0,0,1-.561-.316c-.079-.066-.091-.036-.167-.1-.182-.134-.551-.229-.733-.351a3.3,3.3,0,0,1-.633-.714,5.435,5.435,0,0,0-.535-.705c-.185-.221-.312-.53-.482-.773a1.47,1.47,0,0,1-.122-.293A4.126,4.126,0,0,1,118.45,31a1.025,1.025,0,0,1,.261-.62,1.105,1.105,0,0,1,.626-.093,12.138,12.138,0,0,1,1.252.158c.427.035.86.121,1.287.193.348.061.693.181,1.05.246.213.04.441.012.649.071a3.2,3.2,0,0,1,.8.444,5,5,0,0,1,.817.5,2.048,2.048,0,0,0,.251.231,4.542,4.542,0,0,1,.884.557c.138.154.237.348.383.5a2.115,2.115,0,0,1,.542.72.718.718,0,0,0,.19.313c.047.046.11.064.155.12a5.984,5.984,0,0,1,.529.944l.022.019a1.1,1.1,0,0,1-.109.274" transform="translate(-49.673 -12.254)" fill="#5c5e5e"/>
      <path id="패스_31389" data-name="패스 31389" d="M212.14,53.462a6.173,6.173,0,0,0,.989,1.2,4.753,4.753,0,0,0,1.372.873l.054.028a.688.688,0,0,0,.847-.344.634.634,0,0,0-.184-.71,4.915,4.915,0,0,1-1.638-1.158,3.222,3.222,0,0,1-.7-1.95v-.449h1.663a.584.584,0,1,0,0-1.168h-4.8a.584.584,0,1,0,0,1.168h1.581v.479a3.333,3.333,0,0,1-.649,1.848A5.39,5.39,0,0,1,209.03,54.8a.606.606,0,0,0-.165.8.689.689,0,0,0,.95.253l.059-.028a5.6,5.6,0,0,0,1.445-1.163,4.29,4.29,0,0,0,.822-1.2" transform="translate(-88.048 -20.995)" fill="#3c4148"/>
      <path id="패스_31390" data-name="패스 31390" d="M199.4,58.008h-8.97a.579.579,0,1,0,0,1.159h3.691v.758a2.552,2.552,0,0,0-2.09,2.406,2.972,2.972,0,0,0,5.875,0,2.592,2.592,0,0,0-2.188-2.418v-.746H199.4a.579.579,0,1,0,0-1.159m-3.037,4.323a1.435,1.435,0,0,1-2.862,0,1.4,1.4,0,0,1,1.466-1.356,1.368,1.368,0,0,1,1.4,1.356" transform="translate(-80.062 -24.463)" fill="#3c4148"/>
      <path id="패스_31391" data-name="패스 31391" d="M196.424,53.443a2.68,2.68,0,1,0-2.964-2.665,2.827,2.827,0,0,0,2.964,2.665m0-4.1a1.455,1.455,0,0,1,1.491,1.432,1.5,1.5,0,0,1-3,0,1.456,1.456,0,0,1,1.5-1.432" transform="translate(-81.586 -20.291)" fill="#3c4148"/>
      <path id="패스_31392" data-name="패스 31392" d="M247.252,53.079a.623.623,0,0,0-.612.63.639.639,0,0,0,.612.638h4.829c-.061.382-.15.726-.2,1.181a.646.646,0,0,0,.625.682.752.752,0,0,0,.837-.442,35.265,35.265,0,0,0,.437-4.777.8.8,0,0,0-.868-.767h-5.588a.654.654,0,0,0-.611.666.6.6,0,0,0,.611.531h4.895c.009.23.021.847-.028,1.657Z" transform="translate(-104.013 -21.181)" fill="#3c4148"/>
      <path id="패스_31393" data-name="패스 31393" d="M219.046,64.685h-4.2a.329.329,0,0,1-.363-.339V62.68a.733.733,0,0,0-1.465,0v2.338a.869.869,0,0,0,1,.905h5.034a.582.582,0,0,0,.589-.579.657.657,0,0,0-.589-.659" transform="translate(-89.833 -26.131)" fill="#3c4148"/>
      <path id="패스_31394" data-name="패스 31394" d="M222.316,56.926a.717.717,0,0,0,.733-.705V49.262a.733.733,0,0,0-1.467,0V56.22a.722.722,0,0,0,.733.705" transform="translate(-93.446 -20.473)" fill="#3c4148"/>
      <path id="패스_31395" data-name="패스 31395" d="M271.338,61.419h-5.173a.62.62,0,0,0-.581.637.53.53,0,0,0,.581.526h4.341a.327.327,0,0,1,.358.343v2.037a.727.727,0,1,0,1.454,0v-2.6a.879.879,0,0,0-.98-.938" transform="translate(-112.002 -25.902)" fill="#3c4148"/>
      <path id="패스_31396" data-name="패스 31396" d="M275.64,48.543a.674.674,0,0,0-.722.67v5.663a.726.726,0,0,0,1.446,0V49.213a.675.675,0,0,0-.723-.67" transform="translate(-115.939 -20.472)" fill="#3c4148"/>
      <path id="패스_31397" data-name="패스 31397" d="M268.4,54.317V49.985a.726.726,0,1,0-1.451,0v1.188h-2.3V49.958a.725.725,0,1,0-1.45,0V54.3a.851.851,0,0,0,.8.813h3.591a.843.843,0,0,0,.81-.8m-1.451-.656a.312.312,0,0,1-.354.274H265.02a.329.329,0,0,1-.368-.3V52.3h2.3Z" transform="translate(-110.997 -20.754)" fill="#3c4148"/>
      <path id="패스_31398" data-name="패스 31398" d="M230.2,55.3a5.932,5.932,0,0,0,1.1-1.778,8.052,8.052,0,0,0,1.339,1.741.579.579,0,0,0,.848-.215.629.629,0,0,0-.148-.834h.005a3.3,3.3,0,0,1-1.133-1.781,4.227,4.227,0,0,1-.245-1.737v-.563a.74.74,0,0,0-.718-.751.71.71,0,0,0-.67.747v.567a6.825,6.825,0,0,1-.108,1.314,3.615,3.615,0,0,1-.545,1.493,3.542,3.542,0,0,1-.519-1.451,6.3,6.3,0,0,1-.093-1.355v-.567a.72.72,0,0,0-.691-.747c-.4,0-.618.33-.623.747v.567a4.446,4.446,0,0,1-.238,1.683,4.049,4.049,0,0,1-1.29,1.955.707.707,0,0,0-.04.882.74.74,0,0,0,1.031.129,13.063,13.063,0,0,0,1.142-1.792,9.164,9.164,0,0,0,1.1,1.747.343.343,0,0,0,.488,0" transform="translate(-95.433 -20.825)" fill="#3c4148"/>
      <path id="패스_31399" data-name="패스 31399" d="M234.756,60.429a2.8,2.8,0,0,0-2.879,2.679,2.887,2.887,0,0,0,5.746,0,2.782,2.782,0,0,0-2.868-2.679m-.034,4.073a1.4,1.4,0,0,1-1.371-1.395,1.391,1.391,0,1,1,2.781,0,1.461,1.461,0,0,1-1.41,1.395" transform="translate(-97.787 -25.484)" fill="#3c4148"/>
      <path id="패스_31400" data-name="패스 31400" d="M253.634,61.217h-9.049a.64.64,0,0,0-.635.645.577.577,0,0,0,.635.558h9.049a.561.561,0,0,0,.611-.558.626.626,0,0,0-.611-.645" transform="translate(-102.879 -25.817)" fill="#3c4148"/>
      <path id="패스_31401" data-name="패스 31401" d="M240.3,48.543a.668.668,0,0,0-.711.67v5.86a.712.712,0,0,0,.711.652.728.728,0,0,0,.743-.652v-5.86a.683.683,0,0,0-.743-.67" transform="translate(-101.041 -20.472)" fill="#3c4148"/>
    </g>
  </g>
</svg>
