<svg xmlns="http://www.w3.org/2000/svg" xmlns:xlink="http://www.w3.org/1999/xlink" width="120" height="56" viewBox="0 0 120 56">
  <defs>
    <clipPath id="clip-path">
      <rect id="mask" width="120" height="56" transform="translate(0 -4)" fill="none"/>
    </clipPath>
  </defs>
  <g id="partner_holdings" transform="translate(0 4)">
    <g id="mask-2" data-name="mask" clip-path="url(#clip-path)">
      <g id="icon">
        <path id="패스_31264" data-name="패스 31264" d="M301.421,146.145h1.555v3.109h3.255v-3.109H307.8v7.5h-1.565v-3.11h-3.255v3.11h-1.555Z" transform="translate(-242.849 -117.746)" fill="#231916"/>
        <path id="패스_31265" data-name="패스 31265" d="M343.5,153.323c-2,0-3.514-1.415-3.514-3.856s1.513-3.856,3.514-3.856c1.985,0,3.5,1.4,3.5,3.856s-1.518,3.856-3.5,3.856m0-1.379c1.156-.005,1.923-.876,1.917-2.477s-.762-2.472-1.917-2.477-1.928.871-1.928,2.477.762,2.472,1.928,2.477" transform="translate(-273.917 -117.316)" fill="#231916"/>
        <path id="패스_31266" data-name="패스 31266" d="M381.855,146.145h1.555v6.219h3.234v1.285h-4.789Z" transform="translate(-307.651 -117.746)" fill="#231916"/>
        <path id="패스_31267" data-name="패스 31267" d="M411.671,153.649v-7.5h2.674a3.753,3.753,0,0,1-.031,7.5Zm2.581-1.337c1.43,0,2.177-.741,2.177-2.425,0-1.669-.746-2.4-2.166-2.4h-1.036v4.83Z" transform="translate(-331.674 -117.746)" fill="#231916"/>
        <rect id="사각형_2744" data-name="사각형 2744" width="1.555" height="7.504" transform="translate(87.439 28.399)" fill="#231916"/>
        <path id="패스_31268" data-name="패스 31268" d="M470.735,153.649h-1.347l-3.3-4.768h-.062v4.768h-1.555v-7.5h1.368l3.275,4.768h.073v-4.768h1.544Z" transform="translate(-374.217 -117.746)" fill="#231916"/>
        <path id="패스_31269" data-name="패스 31269" d="M505.986,146.991c-1.161.005-1.948.891-1.948,2.467s.762,2.482,1.959,2.488a1.549,1.549,0,0,0,1.731-1.555H506.1v-1.171h3.13v.933a3.025,3.025,0,0,1-3.244,3.172c-2.1,0-3.534-1.472-3.534-3.845,0-2.436,1.523-3.866,3.5-3.866a3.046,3.046,0,0,1,3.2,2.519h-1.575a1.563,1.563,0,0,0-1.6-1.14" transform="translate(-404.813 -117.316)" fill="#231916"/>
        <path id="패스_31270" data-name="패스 31270" d="M544.948,146.918c-.788,0-1.228.363-1.233.86-.005.544.554.788,1.2.933l.674.166c1.285.3,2.244.948,2.249,2.2-.005,1.373-1.073,2.254-2.9,2.249-1.814.005-2.97-.834-3.016-2.446h1.513c.052.757.653,1.14,1.482,1.14s1.347-.383,1.347-.943c0-.513-.466-.751-1.285-.954l-.819-.2c-1.264-.311-2.042-.943-2.042-2.042-.005-1.363,1.2-2.27,2.84-2.27,1.664,0,2.757.922,2.778,2.249h-1.493c-.062-.6-.534-.943-1.3-.943" transform="translate(-436.613 -117.316)" fill="#231916"/>
        <path id="패스_31271" data-name="패스 31271" d="M292.323,62.218h10.095v2.111h-3.779V74.542H296.1V64.328h-3.779Z" transform="translate(-235.518 -50.127)" fill="#231916"/>
        <path id="패스_31272" data-name="패스 31272" d="M341.028,74.543,345.3,62.218h3.285l4.256,12.325H350.1l-.928-2.843h-4.46l-.928,2.843Zm7.5-4.835-1.541-4.715H346.9l-1.541,4.715Z" transform="translate(-274.758 -50.127)" fill="#231916"/>
        <path id="패스_31273" data-name="패스 31273" d="M409.006,62.218h8.273v2.111h-5.72v3h5.294v2.111H411.56v3H417.3v2.111h-8.29Z" transform="translate(-329.526 -50.127)" fill="#231916"/>
        <path id="패스_31274" data-name="패스 31274" d="M466.462,62.218v8.6c0,2.392-1.694,3.9-4.171,3.9-2.23,0-3.975-1.175-3.966-3.609h2.553a1.439,1.439,0,0,0,1.532,1.549c.979,0,1.515-.63,1.515-1.838v-8.6Z" transform="translate(-369.262 -50.127)" fill="#231916"/>
        <path id="패스_31275" data-name="패스 31275" d="M507.294,74.543l4.273-12.325h3.285l4.256,12.325h-2.741l-.928-2.843h-4.46l-.928,2.843Zm7.5-4.835-1.541-4.715h-.085l-1.541,4.715Z" transform="translate(-408.715 -50.127)" fill="#231916"/>
        <path id="패스_31276" data-name="패스 31276" d="M575.272,62.218h8.273v2.111h-5.72v3h5.294v2.111h-5.294v3h5.737v2.111h-8.29Z" transform="translate(-463.482 -50.127)" fill="#231916"/>
        <rect id="사각형_2745" data-name="사각형 2745" width="12" height="12" fill="#ffb100"/>
        <path id="패스_31277" data-name="패스 31277" d="M73.753,0l-12,12V36h12V12h12V0Z" transform="translate(-49.754 -0.001)" fill="#002c77"/>
        <path id="패스_31278" data-name="패스 31278" d="M147.506,61.753h-12v24h-12V97.539a21.006,21.006,0,0,0,24-20.776Z" transform="translate(-99.506 -49.753)" fill="#002c77"/>
      </g>
    </g>
  </g>
</svg>
