<svg xmlns="http://www.w3.org/2000/svg" xmlns:xlink="http://www.w3.org/1999/xlink" width="126" height="56" viewBox="0 0 126 56">
  <defs>
    <clipPath id="clip-path">
      <rect id="mask" width="126" height="56" transform="translate(0 -4)" fill="none"/>
    </clipPath>
  </defs>
  <g id="partner_foundation" transform="translate(0 4)">
    <g id="mask-2" data-name="mask" clip-path="url(#clip-path)">
      <g id="logo">
        <path id="패스_31209" data-name="패스 31209" d="M292.323,62.218h10.095v2.111h-3.779V74.542H296.1V64.328h-3.779Z" transform="translate(-235.518 -50.127)" fill="#231916"/>
        <path id="패스_31210" data-name="패스 31210" d="M341.028,74.543,345.3,62.218h3.285l4.256,12.325H350.1l-.928-2.843h-4.46l-.928,2.843Zm7.5-4.835-1.541-4.715H346.9l-1.541,4.715Z" transform="translate(-274.758 -50.127)" fill="#231916"/>
        <path id="패스_31211" data-name="패스 31211" d="M409.006,62.218h8.273v2.111h-5.72v3h5.294v2.111H411.56v3H417.3v2.111h-8.29Z" transform="translate(-329.526 -50.127)" fill="#231916"/>
        <path id="패스_31212" data-name="패스 31212" d="M466.462,62.218v8.6c0,2.392-1.694,3.9-4.171,3.9-2.23,0-3.975-1.175-3.966-3.609h2.553a1.439,1.439,0,0,0,1.532,1.549c.979,0,1.515-.63,1.515-1.838v-8.6Z" transform="translate(-369.262 -50.127)" fill="#231916"/>
        <path id="패스_31213" data-name="패스 31213" d="M507.294,74.543l4.273-12.325h3.285l4.256,12.325h-2.741l-.928-2.843h-4.46l-.928,2.843Zm7.5-4.835-1.541-4.715h-.085l-1.541,4.715Z" transform="translate(-408.715 -50.127)" fill="#231916"/>
        <path id="패스_31214" data-name="패스 31214" d="M575.272,62.218h8.273v2.111h-5.72v3h5.294v2.111h-5.294v3h5.737v2.111h-8.29Z" transform="translate(-463.482 -50.127)" fill="#231916"/>
        <path id="패스_31215" data-name="패스 31215" d="M307.667,146.141v4.9c0,1.653-1.257,2.758-3.128,2.753s-3.118-1.1-3.118-2.753v-4.9h1.564v4.775a1.555,1.555,0,0,0,3.107,0v-4.775Z" transform="translate(-242.848 -117.742)" fill="#231916"/>
        <path id="패스_31216" data-name="패스 31216" d="M346.405,153.69H345.05l-3.316-4.8h-.063v4.8h-1.564v-7.549h1.376l3.295,4.8h.073v-4.8h1.554Z" transform="translate(-274.017 -117.742)" fill="#231916"/>
        <rect id="사각형_2735" data-name="사각형 2735" width="1.564" height="7.549" transform="translate(73.66 28.398)" fill="#231916"/>
        <path id="패스_31217" data-name="패스 31217" d="M395.043,151.9h.073l1.846-5.755h1.731l-2.607,7.549h-2.012l-2.617-7.549h1.752Z" transform="translate(-315.387 -117.742)" fill="#231916"/>
        <path id="패스_31218" data-name="패스 31218" d="M433.093,146.141h5.067v1.293h-3.5v1.835H437.9v1.293h-3.243V152.4h3.514v1.293h-5.078Z" transform="translate(-348.934 -117.742)" fill="#231916"/>
        <path id="패스_31219" data-name="패스 31219" d="M465.448,146.141h2.961a2.388,2.388,0,0,1,2.7,2.461,2.181,2.181,0,0,1-1.335,2.153l1.606,2.935H469.65l-1.444-2.68h-1.194v2.68h-1.564Zm2.669,3.6c.928,0,1.381-.38,1.376-1.137s-.449-1.173-1.376-1.178h-1.105v2.315Z" transform="translate(-375 -117.742)" fill="#231916"/>
        <path id="패스_31220" data-name="패스 31220" d="M501.92,146.918c-.792,0-1.236.365-1.241.865-.005.547.558.792,1.209.938l.678.167c1.293.3,2.257.954,2.263,2.21-.005,1.381-1.079,2.268-2.92,2.263-1.825.005-2.987-.839-3.034-2.461H500.4c.052.761.657,1.147,1.491,1.147s1.355-.386,1.355-.949c0-.516-.469-.756-1.293-.959l-.824-.2c-1.272-.313-2.054-.949-2.054-2.054-.005-1.371,1.2-2.283,2.857-2.283,1.673,0,2.773.928,2.794,2.263h-1.5c-.063-.6-.537-.949-1.3-.949" transform="translate(-401.932 -117.31)" fill="#231916"/>
        <rect id="사각형_2736" data-name="사각형 2736" width="1.564" height="7.549" transform="translate(103.919 28.398)" fill="#231916"/>
        <path id="패스_31221" data-name="패스 31221" d="M547.864,146.141h6.183v1.293h-2.315v6.256h-1.553v-6.256h-2.315Z" transform="translate(-441.4 -117.742)" fill="#231916"/>
        <path id="패스_31222" data-name="패스 31222" d="M584.073,146.141l1.741,3.253h.073l1.731-3.253h1.762L586.627,151v2.69h-1.564V151l-2.753-4.859Z" transform="translate(-469.153 -117.742)" fill="#231916"/>
        <rect id="사각형_2737" data-name="사각형 2737" width="12" height="12" fill="#00a597"/>
        <path id="패스_31223" data-name="패스 31223" d="M73.753,0l-12,12V36h12V12h12V0Z" transform="translate(-49.753 -0.001)" fill="#501d83"/>
        <path id="패스_31224" data-name="패스 31224" d="M147.506,61.753h-12v24h-12V97.539a21.006,21.006,0,0,0,24-20.776Z" transform="translate(-99.506 -49.753)" fill="#501d83"/>
        <path id="패스_31225" data-name="패스 31225" d="M301.421,205.146h4.944v1.285h-3.389v1.824h3.068v1.285h-3.068v3.11h-1.555Z" transform="translate(-242.849 -165.281)" fill="#231916"/>
        <path id="패스_31226" data-name="패스 31226" d="M334.912,212.324c-2,0-3.514-1.415-3.514-3.856s1.513-3.856,3.514-3.856c1.985,0,3.5,1.4,3.5,3.856s-1.518,3.856-3.5,3.856m0-1.379c1.156-.005,1.923-.876,1.917-2.477s-.762-2.472-1.917-2.477-1.928.871-1.928,2.477.762,2.472,1.928,2.477" transform="translate(-267 -164.852)" fill="#231916"/>
        <path id="패스_31227" data-name="패스 31227" d="M379.476,205.146v4.872c0,1.643-1.249,2.742-3.109,2.736s-3.1-1.093-3.1-2.736v-4.872h1.555v4.747a1.545,1.545,0,0,0,3.089,0v-4.747Z" transform="translate(-300.733 -165.281)" fill="#231916"/>
        <path id="패스_31228" data-name="패스 31228" d="M417.984,212.65h-1.347l-3.3-4.768h-.062v4.768h-1.555v-7.5h1.368l3.275,4.768h.073v-4.768h1.544Z" transform="translate(-331.716 -165.281)" fill="#231916"/>
        <path id="패스_31229" data-name="패스 31229" d="M450.447,212.65v-7.5h2.674a3.753,3.753,0,0,1-.031,7.5Zm2.581-1.337c1.43,0,2.177-.741,2.177-2.425,0-1.669-.746-2.4-2.166-2.4H452v4.83Z" transform="translate(-362.914 -165.281)" fill="#231916"/>
        <path id="패스_31230" data-name="패스 31230" d="M484.4,212.65l2.6-7.5h2l2.591,7.5h-1.669l-.565-1.731h-2.716l-.565,1.731Zm4.566-2.944-.938-2.871h-.052l-.938,2.871Z" transform="translate(-390.268 -165.281)" fill="#231916"/>
        <path id="패스_31231" data-name="패스 31231" d="M519.546,205.146h6.146v1.285h-2.3v6.219h-1.544v-6.219h-2.3Z" transform="translate(-418.586 -165.281)" fill="#231916"/>
        <rect id="사각형_2738" data-name="사각형 2738" width="1.555" height="7.504" transform="translate(108.07 39.865)" fill="#231916"/>
        <path id="패스_31232" data-name="패스 31232" d="M573.411,212.324c-2,0-3.514-1.415-3.514-3.856s1.513-3.856,3.514-3.856c1.985,0,3.5,1.4,3.5,3.856s-1.518,3.856-3.5,3.856m0-1.379c1.156-.005,1.923-.876,1.917-2.477s-.762-2.472-1.917-2.477-1.928.871-1.928,2.477.762,2.472,1.928,2.477" transform="translate(-459.152 -164.852)" fill="#231916"/>
        <path id="패스_31233" data-name="패스 31233" d="M618.027,212.65H616.68l-3.3-4.768h-.062v4.768h-1.555v-7.5h1.368l3.275,4.768h.073v-4.768h1.544Z" transform="translate(-492.886 -165.281)" fill="#231916"/>
      </g>
    </g>
  </g>
</svg>
