<svg xmlns="http://www.w3.org/2000/svg" xmlns:xlink="http://www.w3.org/1999/xlink" width="100" height="100" viewBox="0 0 100 100">
  <defs>
    <clipPath id="clip-path">
      <rect id="사각형_2317" data-name="사각형 2317" width="96.446" height="96.534" transform="translate(0 0)" fill="none" stroke="#1f1f1f" stroke-width="1"/>
    </clipPath>
  </defs>
  <g id="ico_100_cpog01" data-name="ico/100/cpog01" transform="translate(0 -0.063)">
    <rect id="base" width="100" height="100" transform="translate(0 0.063)" fill="#fff" opacity="0"/>
    <g id="ico">
      <g id="그룹_3031" data-name="그룹 3031" transform="translate(2 2.063)" clip-path="url(#clip-path)">
        <path id="패스_9490" data-name="패스 9490" d="M67.985,28.976A39.027,39.027,0,1,1,59,22.161" fill="none" stroke="#1f1f1f" stroke-linecap="round" stroke-linejoin="round" stroke-width="2"/>
        <circle id="타원_13" data-name="타원 13" cx="26.361" cy="26.361" r="26.361" transform="translate(13.753 30.059)" fill="none" stroke="#1f1f1f" stroke-linecap="round" stroke-linejoin="round" stroke-width="2"/>
        <line id="선_59" data-name="선 59" x1="46.008" y2="46.008" transform="translate(40.114 10.24)" fill="none" stroke="#1f1f1f" stroke-linecap="round" stroke-linejoin="round" stroke-width="2"/>
        <path id="패스_9491" data-name="패스 9491" d="M73.066,22.822V12.837a4.439,4.439,0,0,1,.794-2.982l7.471-7.47s1.954-2,3.616-1.192a2.613,2.613,0,0,1,1.447,2.192V9.92" fill="none" stroke="#1f1f1f" stroke-linecap="round" stroke-linejoin="round" stroke-width="2"/>
        <line id="선_60" data-name="선 60" y2="12.289" transform="translate(79.358 4.357)" fill="none" stroke="#1f1f1f" stroke-linecap="round" stroke-linejoin="round" stroke-width="2"/>
        <path id="패스_9492" data-name="패스 9492" d="M73.624,23.379h9.985a4.439,4.439,0,0,0,2.982-.794l7.47-7.471s2-1.954,1.192-3.616a2.613,2.613,0,0,0-2.192-1.447H90.969" fill="none" stroke="#1f1f1f" stroke-linecap="round" stroke-linejoin="round" stroke-width="2"/>
        <line id="선_61" data-name="선 61" x1="12.289" transform="translate(79.8 17.087)" fill="none" stroke="#1f1f1f" stroke-linecap="round" stroke-linejoin="round" stroke-width="2"/>
      </g>
      <circle id="타원_14" data-name="타원 14" cx="13" cy="13" r="13" transform="translate(29 45.063)" fill="#501d83"/>
    </g>
  </g>
</svg>
