<svg xmlns="http://www.w3.org/2000/svg" xmlns:xlink="http://www.w3.org/1999/xlink" width="350" height="460" viewBox="0 0 350 460">
  <defs>
    <clipPath id="clip-path">
      <rect id="사각형_2505" data-name="사각형 2505" width="307.618" height="59.734" fill="#501d83"/>
    </clipPath>
    <clipPath id="clip-path-2">
      <rect id="사각형_2497" data-name="사각형 2497" width="350" height="59.734" fill="#501d83"/>
    </clipPath>
    <clipPath id="clip-path-3">
      <rect id="사각형_2486" data-name="사각형 2486" width="293.999" height="59.734" fill="#501d83"/>
    </clipPath>
    <clipPath id="clip-path-4">
      <rect id="사각형_2478" data-name="사각형 2478" width="338" height="59.734" transform="translate(0 0)" fill="#501d83"/>
    </clipPath>
    <clipPath id="clip-path-5">
      <rect id="사각형_2470" data-name="사각형 2470" width="317.675" height="59.734" transform="translate(0 0)" fill="#501d83"/>
    </clipPath>
  </defs>
  <g id="img_logo_schools" data-name="img/logo/schools" transform="translate(-20 -115)">
    <g id="ci_business" data-name="ci/business" transform="translate(-80 -824.021)">
      <rect id="base" width="308" height="60" transform="translate(100 1339.022)" fill="none"/>
      <g id="business_innovation" data-name="business innovation" transform="translate(100 1339.022)">
        <line id="선_1036" data-name="선 1036" y2="29.754" transform="translate(160.393 15.046)" fill="none" stroke="#501d83" stroke-width="2"/>
        <g id="그룹_3204" data-name="그룹 3204" transform="translate(0 0)">
          <g id="그룹_3203" data-name="그룹 3203" clip-path="url(#clip-path)">
            <path id="패스_29565" data-name="패스 29565" d="M288.849,26.979c-1.148,0-1.79.529-1.8,1.254-.007.794.808,1.149,1.754,1.361l.982.242c1.874.43,3.272,1.382,3.279,3.2-.007,2-1.564,3.287-4.231,3.279-2.644.008-4.33-1.217-4.4-3.566h2.206c.076,1.1.953,1.662,2.162,1.662,1.193,0,1.964-.559,1.964-1.375,0-.748-.68-1.1-1.874-1.39l-1.193-.287c-1.844-.454-2.978-1.376-2.978-2.977-.007-1.988,1.746-3.31,4.141-3.31,2.426,0,4.021,1.345,4.051,3.279h-2.176c-.092-.869-.779-1.375-1.89-1.375" transform="translate(-113.775 -10.03)" fill="#501d83"/>
            <path id="패스_29566" data-name="패스 29566" d="M300.642,33.94a3.873,3.873,0,0,1,4.02-4.231c2.115,0,3.551,1.231,3.642,3.113h-2.1a1.5,1.5,0,0,0-1.511-1.375c-1.072.008-1.783.907-1.783,2.464,0,1.587.695,2.494,1.783,2.494a1.481,1.481,0,0,0,1.511-1.36h2.1c-.1,1.859-1.466,3.136-3.642,3.144-2.516-.008-4.028-1.746-4.02-4.247" transform="translate(-120.258 -11.884)" fill="#501d83"/>
            <path id="패스_29567" data-name="패스 29567" d="M317.95,36.268h-2.236V25.327h2.176V29.5h.091a2.421,2.421,0,0,1,2.448-1.541,2.76,2.76,0,0,1,2.841,3.083v5.228h-2.236V31.432a1.419,1.419,0,0,0-1.481-1.616,1.545,1.545,0,0,0-1.6,1.708Z" transform="translate(-126.287 -10.131)" fill="#501d83"/>
            <path id="패스_29568" data-name="패스 29568" d="M330.609,33.94a3.866,3.866,0,0,1,4.019-4.231c2.487,0,4.028,1.7,4.036,4.231-.008,2.54-1.549,4.24-4.036,4.247a3.879,3.879,0,0,1-4.019-4.247m4.036,2.51c1.141-.008,1.745-1.073,1.738-2.51s-.6-2.523-1.738-2.523c-1.172,0-1.769,1.081-1.769,2.523s.6,2.5,1.769,2.51" transform="translate(-132.245 -11.884)" fill="#501d83"/>
            <path id="패스_29569" data-name="패스 29569" d="M345.807,33.94a3.866,3.866,0,0,1,4.019-4.231c2.487,0,4.028,1.7,4.036,4.231-.008,2.54-1.549,4.24-4.036,4.247a3.879,3.879,0,0,1-4.019-4.247m4.036,2.51c1.141-.008,1.745-1.073,1.738-2.51s-.6-2.523-1.738-2.523c-1.172,0-1.769,1.081-1.769,2.523s.6,2.5,1.769,2.51" transform="translate(-138.324 -11.884)" fill="#501d83"/>
            <rect id="사각형_2498" data-name="사각형 2498" width="2.236" height="10.941" transform="translate(216.935 15.196)" fill="#501d83"/>
            <path id="패스_29570" data-name="패스 29570" d="M373.563,33.94a3.866,3.866,0,0,1,4.019-4.231c2.486,0,4.028,1.7,4.035,4.231s-1.549,4.24-4.035,4.247a3.878,3.878,0,0,1-4.019-4.247m4.034,2.51c1.141-.008,1.746-1.073,1.738-2.51.008-1.442-.6-2.523-1.738-2.523-1.171,0-1.769,1.081-1.769,2.523s.6,2.5,1.769,2.51" transform="translate(-149.426 -11.884)" fill="#501d83"/>
            <path id="패스_29571" data-name="패스 29571" d="M393.239,29.4h-1.633v6.528H389.37V29.4h-1.164V27.719h1.164V27.1a2.423,2.423,0,0,1,2.69-2.631,5.9,5.9,0,0,1,1.33.136V26.3c-.325-.031-.559-.038-.68-.046-.718.008-1.1.28-1.1.967v.5h1.633Z" transform="translate(-155.284 -9.788)" fill="#501d83"/>
            <path id="패스_29572" data-name="패스 29572" d="M404.789,25.327h4.352c2.41,0,3.635,1.163,3.628,2.811A2.319,2.319,0,0,1,410.8,30.48v.106a2.553,2.553,0,0,1,2.4,2.66c-.008,1.738-1.307,3.022-3.778,3.022h-4.64Zm4.02,4.579a1.459,1.459,0,0,0,1.662-1.405c.008-.793-.582-1.33-1.616-1.33h-1.8v2.735Zm.167,4.489c1.315.008,1.88-.536,1.874-1.361a1.6,1.6,0,0,0-1.813-1.571h-1.98v2.932Z" transform="translate(-161.917 -10.131)" fill="#501d83"/>
            <path id="패스_29573" data-name="패스 29573" d="M426.379,29.884h2.236V38.09H426.47V36.61h-.091a2.527,2.527,0,0,1-2.495,1.587c-1.639,0-2.765-1.164-2.765-3.083v-5.23h2.237V34.72a1.416,1.416,0,0,0,1.436,1.587,1.585,1.585,0,0,0,1.587-1.707Z" transform="translate(-168.449 -11.954)" fill="#501d83"/>
            <path id="패스_29574" data-name="패스 29574" d="M439.581,31.3c-.725.008-1.277.347-1.269.846-.008.37.279.658,1.058.817l1.465.3c1.595.332,2.366,1.042,2.374,2.222-.008,1.616-1.459,2.7-3.643,2.7-2.213-.008-3.513-1-3.7-2.6h2.252c.106.643.628.976,1.451.982s1.361-.333,1.361-.861c0-.423-.348-.688-1.118-.846l-1.36-.272c-1.564-.31-2.366-1.112-2.357-2.328-.008-1.572,1.344-2.554,3.46-2.554,2.071,0,3.355.982,3.476,2.539h-2.1a1.231,1.231,0,0,0-1.346-.952" transform="translate(-174.346 -11.884)" fill="#501d83"/>
            <path id="패스_29575" data-name="패스 29575" d="M451.433,24.294a1.144,1.144,0,1,1-1.225,1.149,1.2,1.2,0,0,1,1.225-1.149m-1.12,3.355h2.237v8.206h-2.237Z" transform="translate(-180.085 -9.718)" fill="#501d83"/>
            <path id="패스_29576" data-name="패스 29576" d="M459.238,38.021H457V29.815h2.131V31.25h.091a2.48,2.48,0,0,1,2.463-1.541,2.753,2.753,0,0,1,2.826,3.083v5.228h-2.221V33.185a1.43,1.43,0,0,0-1.481-1.616,1.531,1.531,0,0,0-1.572,1.708Z" transform="translate(-182.802 -11.884)" fill="#501d83"/>
            <path id="패스_29577" data-name="패스 29577" d="M471.848,33.955c-.008-2.531,1.556-4.246,3.959-4.246,2.154,0,3.854,1.36,3.854,4.156V34.5h-5.606a1.819,1.819,0,0,0,1.888,2.01,1.584,1.584,0,0,0,1.526-.832H479.6c-.318,1.52-1.677,2.5-3.7,2.51-2.516-.008-4.057-1.633-4.049-4.232m5.7-.861a1.632,1.632,0,0,0-1.692-1.708,1.756,1.756,0,0,0-1.8,1.708Z" transform="translate(-188.741 -11.884)" fill="#501d83"/>
            <path id="패스_29578" data-name="패스 29578" d="M490.286,31.3c-.726.008-1.277.347-1.27.846-.007.37.28.658,1.058.817l1.466.3c1.595.332,2.366,1.042,2.372,2.222-.007,1.616-1.457,2.7-3.641,2.7-2.215-.008-3.514-1-3.7-2.6h2.252c.1.643.626.976,1.451.982s1.36-.333,1.36-.861c0-.423-.347-.688-1.118-.846l-1.36-.272c-1.564-.31-2.365-1.112-2.357-2.328-.007-1.572,1.345-2.554,3.461-2.554,2.07,0,3.355.982,3.476,2.539h-2.1a1.23,1.23,0,0,0-1.345-.952" transform="translate(-194.629 -11.884)" fill="#501d83"/>
            <path id="패스_29579" data-name="패스 29579" d="M504.175,31.3c-.725.008-1.277.347-1.269.846-.008.37.279.658,1.057.817l1.466.3c1.595.332,2.366,1.042,2.374,2.222-.008,1.616-1.459,2.7-3.643,2.7-2.213-.008-3.513-1-3.7-2.6h2.252c.106.643.628.976,1.451.982s1.361-.333,1.361-.861c0-.423-.348-.688-1.118-.846l-1.36-.272c-1.564-.31-2.366-1.112-2.357-2.328-.008-1.572,1.344-2.554,3.46-2.554,2.071,0,3.355.982,3.476,2.539h-2.1a1.231,1.231,0,0,0-1.346-.952" transform="translate(-200.184 -11.884)" fill="#501d83"/>
            <rect id="사각형_2499" data-name="사각형 2499" width="2.266" height="10.941" transform="translate(171.024 33.748)" fill="#501d83"/>
            <path id="패스_29580" data-name="패스 29580" d="M294.046,68.941H291.81V60.735h2.131V62.17h.09a2.483,2.483,0,0,1,2.464-1.541,2.754,2.754,0,0,1,2.826,3.083v5.228H297.1V64.1a1.429,1.429,0,0,0-1.481-1.616,1.531,1.531,0,0,0-1.572,1.708Z" transform="translate(-116.725 -24.252)" fill="#501d83"/>
            <path id="패스_29581" data-name="패스 29581" d="M309.446,68.941H307.21V60.735h2.131V62.17h.09a2.483,2.483,0,0,1,2.464-1.541,2.754,2.754,0,0,1,2.826,3.083v5.228H312.5V64.1a1.429,1.429,0,0,0-1.481-1.616,1.531,1.531,0,0,0-1.572,1.708Z" transform="translate(-122.885 -24.252)" fill="#501d83"/>
            <path id="패스_29582" data-name="패스 29582" d="M322.056,64.86a3.866,3.866,0,0,1,4.019-4.231c2.487,0,4.028,1.7,4.036,4.231-.008,2.54-1.549,4.24-4.036,4.247a3.879,3.879,0,0,1-4.019-4.247m4.036,2.51c1.141-.008,1.745-1.073,1.738-2.51s-.6-2.523-1.738-2.523c-1.172,0-1.769,1.081-1.769,2.523s.6,2.5,1.769,2.51" transform="translate(-128.823 -24.252)" fill="#501d83"/>
            <path id="패스_29583" data-name="패스 29583" d="M341.652,69.011h-2.509l-2.872-8.206h2.357l1.723,5.894h.091l1.723-5.894h2.373Z" transform="translate(-134.51 -24.322)" fill="#501d83"/>
            <path id="패스_29584" data-name="패스 29584" d="M353.869,64.12c.589-.038,1.692-.091,2.04-.106v-.665c-.007-.687-.476-1.08-1.315-1.087a1.235,1.235,0,0,0-1.359.907H351.1c.136-1.421,1.375-2.539,3.551-2.539,1.792,0,3.484.8,3.477,2.78v5.531h-2.116V67.808h-.061a2.518,2.518,0,0,1-2.4,1.284,2.41,2.41,0,0,1-2.735-2.448c.007-1.828,1.474-2.426,3.052-2.524m.318,3.431a1.586,1.586,0,0,0,1.722-1.541v-.6c-.34.015-1.3.067-1.678.1-.778.067-1.269.437-1.269,1.072s.506.961,1.225.967" transform="translate(-140.328 -24.252)" fill="#501d83"/>
            <path id="패스_29585" data-name="패스 29585" d="M369.768,61.174h-1.541v4c-.007.658.318.816.771.831.227,0,.619-.023.892-.046v1.769a7.147,7.147,0,0,1-1.193.075c-1.617.007-2.72-.718-2.705-2.312V61.174h-1.134V59.5h1.134V57.531h2.236V59.5h1.541Z" transform="translate(-145.943 -23.013)" fill="#501d83"/>
            <path id="패스_29586" data-name="패스 29586" d="M376.424,55.214a1.144,1.144,0,1,1-1.225,1.149,1.2,1.2,0,0,1,1.225-1.149m-1.118,3.355h2.236v8.206h-2.236Z" transform="translate(-150.081 -22.086)" fill="#501d83"/>
            <path id="패스_29587" data-name="패스 29587" d="M381.44,64.86a3.866,3.866,0,0,1,4.019-4.231c2.487,0,4.028,1.7,4.036,4.231-.008,2.54-1.549,4.24-4.036,4.247a3.879,3.879,0,0,1-4.019-4.247m4.036,2.51c1.141-.008,1.745-1.073,1.738-2.51s-.6-2.523-1.738-2.523c-1.172,0-1.769,1.081-1.769,2.523s.6,2.5,1.769,2.51" transform="translate(-152.577 -24.252)" fill="#501d83"/>
            <path id="패스_29588" data-name="패스 29588" d="M399.428,68.941h-2.236V60.735h2.131V62.17h.09a2.483,2.483,0,0,1,2.464-1.541,2.754,2.754,0,0,1,2.826,3.083v5.228h-2.222V64.1A1.429,1.429,0,0,0,401,62.488a1.531,1.531,0,0,0-1.572,1.708Z" transform="translate(-158.878 -24.252)" fill="#501d83"/>
            <path id="패스_29589" data-name="패스 29589" d="M117.479,24.866h12.562v2.627h-4.7V40.2h-3.157V27.493h-4.7Z" transform="translate(-46.992 -9.947)" fill="#501d83"/>
            <path id="패스_29590" data-name="패스 29590" d="M137.109,40.2l5.317-15.337h4.089l5.3,15.337H148.4l-1.154-3.538H141.7L140.541,40.2Zm9.332-6.016-1.917-5.868h-.106L142.5,34.187Z" transform="translate(-54.844 -9.947)" fill="#501d83"/>
            <path id="패스_29591" data-name="패스 29591" d="M164.508,24.866h10.3v2.627h-7.118v3.728h6.589v2.627h-6.589v3.728h7.139V40.2H164.508Z" transform="translate(-65.804 -9.947)" fill="#501d83"/>
            <path id="패스_29592" data-name="패스 29592" d="M194.512,24.866v10.7c0,2.977-2.108,4.851-5.19,4.851-2.775,0-4.946-1.462-4.936-4.491h3.178a1.791,1.791,0,0,0,1.907,1.928c1.218,0,1.885-.784,1.885-2.288v-10.7Z" transform="translate(-73.755 -9.947)" fill="#501d83"/>
            <path id="패스_29593" data-name="패스 29593" d="M204.122,40.2l5.317-15.337h4.089l5.3,15.337h-3.41l-1.154-3.538h-5.551L207.554,40.2Zm9.332-6.016-1.917-5.868h-.106l-1.917,5.868Z" transform="translate(-81.649 -9.947)" fill="#501d83"/>
            <path id="패스_29594" data-name="패스 29594" d="M231.521,24.866h10.3v2.627H234.7v3.728h6.589v2.627H234.7v3.728h7.139V40.2H231.521Z" transform="translate(-92.609 -9.947)" fill="#501d83"/>
            <path id="패스_29595" data-name="패스 29595" d="M127.52,64.952a1.935,1.935,0,0,1-3.867,0V59.009h-1.946v6.1c0,2.056,1.544,3.432,3.88,3.425s3.893-1.369,3.893-3.425v-6.1h-1.96Z" transform="translate(-48.683 -23.604)" fill="#501d83"/>
            <path id="패스_29596" data-name="패스 29596" d="M143.686,64.977H143.6l-4.1-5.969h-1.713V68.4h1.946V62.434h.078l4.126,5.969h1.687V59.009h-1.933Z" transform="translate(-55.113 -23.604)" fill="#501d83"/>
            <rect id="사각형_2500" data-name="사각형 2500" width="1.946" height="9.394" transform="translate(92.379 35.405)" fill="#501d83"/>
            <path id="패스_29597" data-name="패스 29597" d="M163.265,66.171h-.091l-2.284-7.162h-2.18l3.257,9.394h2.5l3.244-9.394h-2.154Z" transform="translate(-63.485 -23.604)" fill="#501d83"/>
            <path id="패스_29598" data-name="패스 29598" d="M177.168,64.511H181.2V62.9h-4.036V60.618h4.36V59.009h-6.306V68.4h6.319V66.794h-4.373Z" transform="translate(-70.089 -23.604)" fill="#501d83"/>
            <path id="패스_29599" data-name="패스 29599" d="M195.769,62.071c0-1.862-1.226-3.062-3.361-3.062h-3.685V68.4h1.946V65.068h1.486l1.8,3.335h2.154l-2-3.652a2.715,2.715,0,0,0,1.661-2.68m-3.724,1.414h-1.375V60.6h1.375c1.155.007,1.719.519,1.713,1.466s-.558,1.414-1.713,1.414" transform="translate(-75.49 -23.604)" fill="#501d83"/>
            <path id="패스_29600" data-name="패스 29600" d="M206.871,62.88l-.844-.208c-.811-.182-1.511-.487-1.5-1.168.007-.623.558-1.077,1.544-1.077.954,0,1.544.434,1.622,1.181h1.869c-.026-1.661-1.395-2.816-3.478-2.816-2.057,0-3.562,1.135-3.556,2.842,0,1.375.973,2.167,2.557,2.556l1.025.247c1.025.253,1.609.551,1.609,1.194,0,.7-.662,1.181-1.687,1.181s-1.79-.48-1.855-1.427h-1.895c.059,2.018,1.505,3.068,3.776,3.062,2.29.006,3.626-1.1,3.633-2.816-.007-1.564-1.207-2.381-2.816-2.751" transform="translate(-80.911 -23.518)" fill="#501d83"/>
            <rect id="사각형_2501" data-name="사각형 2501" width="1.946" height="9.394" transform="translate(130.189 35.405)" fill="#501d83"/>
            <path id="패스_29601" data-name="패스 29601" d="M236.144,59.009l-2.154,4.048H233.9l-2.167-4.048h-9.826v1.609h2.881V68.4h1.933V60.618H229.6v-1.5l3.364,5.938V68.4h1.946V65.056l3.425-6.047Z" transform="translate(-88.763 -23.604)" fill="#501d83"/>
            <rect id="사각형_2502" data-name="사각형 2502" width="14.934" height="14.934" transform="translate(0 0)" fill="#009b88"/>
            <path id="패스_29602" data-name="패스 29602" d="M39.823,0,24.89,14.934V44.8H39.823V14.934H54.757V0Z" transform="translate(-9.956 0)" fill="#321f78"/>
            <path id="패스_29603" data-name="패스 29603" d="M79.646,24.89H64.712V54.757H49.779V69.424a26.424,26.424,0,0,0,3.734.266A26.134,26.134,0,0,0,79.646,43.57Z" transform="translate(-19.912 -9.956)" fill="#321f78"/>
            <path id="패스_29604" data-name="패스 29604" d="M49.779,39.823V24.889H64.713Z" transform="translate(-19.912 -9.956)" fill="#ff6727"/>
            <rect id="사각형_2503" data-name="사각형 2503" width="14.934" height="14.934" transform="translate(0 -0.001)" fill="#009b88"/>
            <path id="패스_29605" data-name="패스 29605" d="M39.823,0,24.89,14.934V44.8H39.823V14.934H54.757V0Z" transform="translate(-9.956 0)" fill="#321f78"/>
            <path id="패스_29606" data-name="패스 29606" d="M79.646,24.89H64.712V54.757H49.779V69.424a26.424,26.424,0,0,0,3.734.266A26.134,26.134,0,0,0,79.646,43.57Z" transform="translate(-19.912 -9.956)" fill="#321f78"/>
            <rect id="사각형_2504" data-name="사각형 2504" width="14.934" height="14.934" transform="translate(0 -0.001)" fill="#00a497"/>
            <path id="패스_29607" data-name="패스 29607" d="M39.823,0,24.89,14.934V44.8H39.823V14.934H54.757V0Z" transform="translate(-9.956 0)" fill="#501d83"/>
            <path id="패스_29608" data-name="패스 29608" d="M79.646,24.89H64.712V54.757H49.779V69.424a26.424,26.424,0,0,0,3.734.266A26.134,26.134,0,0,0,79.646,43.57Z" transform="translate(-19.912 -9.956)" fill="#501d83"/>
          </g>
        </g>
      </g>
    </g>
    <g id="ci_science" data-name="ci/science" transform="translate(-80 -924.021)">
      <rect id="base-2" data-name="base" width="350" height="60" transform="translate(100 1339.022)" fill="none"/>
      <line id="선_1035" data-name="선 1035" y2="29.754" transform="translate(260.392 1354.068)" fill="none" stroke="#501d83" stroke-width="2"/>
      <g id="그룹_3202" data-name="그룹 3202" transform="translate(100 1339.022)">
        <g id="그룹_3201" data-name="그룹 3201" transform="translate(0 0)" clip-path="url(#clip-path-2)">
          <path id="패스_29507" data-name="패스 29507" d="M288.849,26.979c-1.148,0-1.79.529-1.8,1.254-.007.794.808,1.149,1.754,1.361l.982.242c1.874.43,3.272,1.382,3.279,3.2-.007,2-1.564,3.287-4.231,3.279-2.644.008-4.33-1.217-4.4-3.567h2.206c.076,1.1.953,1.662,2.162,1.662,1.193,0,1.964-.558,1.964-1.374,0-.748-.68-1.1-1.874-1.39l-1.193-.288c-1.844-.453-2.978-1.375-2.978-2.977-.007-1.987,1.746-3.309,4.141-3.309,2.426,0,4.021,1.345,4.051,3.279h-2.176c-.092-.869-.779-1.375-1.89-1.375" transform="translate(-113.775 -10.03)" fill="#501d83"/>
          <path id="패스_29508" data-name="패스 29508" d="M300.642,33.94a3.873,3.873,0,0,1,4.02-4.231c2.115,0,3.551,1.231,3.642,3.113h-2.1a1.5,1.5,0,0,0-1.511-1.375c-1.072.007-1.783.907-1.783,2.463,0,1.586.695,2.494,1.783,2.494a1.481,1.481,0,0,0,1.511-1.36h2.1c-.1,1.859-1.466,3.136-3.642,3.144-2.516-.008-4.028-1.747-4.02-4.247" transform="translate(-120.258 -11.884)" fill="#501d83"/>
          <path id="패스_29509" data-name="패스 29509" d="M317.95,36.268h-2.236V25.327h2.176V29.5h.091a2.42,2.42,0,0,1,2.448-1.541,2.76,2.76,0,0,1,2.841,3.082v5.23h-2.236V31.432a1.419,1.419,0,0,0-1.481-1.616,1.545,1.545,0,0,0-1.6,1.708Z" transform="translate(-126.287 -10.131)" fill="#501d83"/>
          <path id="패스_29510" data-name="패스 29510" d="M330.609,33.94a3.866,3.866,0,0,1,4.019-4.231c2.487,0,4.028,1.7,4.036,4.231-.008,2.539-1.549,4.24-4.036,4.247a3.879,3.879,0,0,1-4.019-4.247m4.036,2.509c1.141-.008,1.745-1.073,1.738-2.509s-.6-2.523-1.738-2.523c-1.172,0-1.769,1.079-1.769,2.523s.6,2.5,1.769,2.509" transform="translate(-132.245 -11.884)" fill="#501d83"/>
          <path id="패스_29511" data-name="패스 29511" d="M345.807,33.94a3.866,3.866,0,0,1,4.019-4.231c2.487,0,4.028,1.7,4.036,4.231-.008,2.539-1.549,4.24-4.036,4.247a3.879,3.879,0,0,1-4.019-4.247m4.036,2.509c1.141-.008,1.745-1.073,1.738-2.509s-.6-2.523-1.738-2.523c-1.172,0-1.769,1.079-1.769,2.523s.6,2.5,1.769,2.509" transform="translate(-138.324 -11.884)" fill="#501d83"/>
          <rect id="사각형_2487" data-name="사각형 2487" width="2.236" height="10.941" transform="translate(216.935 15.196)" fill="#501d83"/>
          <path id="패스_29512" data-name="패스 29512" d="M373.563,33.94a3.866,3.866,0,0,1,4.019-4.231c2.486,0,4.028,1.7,4.035,4.231s-1.549,4.24-4.035,4.247a3.879,3.879,0,0,1-4.019-4.247m4.034,2.509c1.141-.008,1.746-1.073,1.738-2.509.008-1.444-.6-2.523-1.738-2.523-1.171,0-1.769,1.079-1.769,2.523s.6,2.5,1.769,2.509" transform="translate(-149.426 -11.884)" fill="#501d83"/>
          <path id="패스_29513" data-name="패스 29513" d="M393.239,29.4h-1.633v6.528H389.37V29.4h-1.164V27.719h1.164V27.1a2.422,2.422,0,0,1,2.69-2.63,5.9,5.9,0,0,1,1.33.136V26.3c-.325-.031-.559-.039-.68-.046-.718.007-1.1.279-1.1.967v.5h1.633Z" transform="translate(-155.284 -9.788)" fill="#501d83"/>
          <path id="패스_29514" data-name="패스 29514" d="M404.789,36.268V25.326h3.9c3.293,0,5.312,2.048,5.3,5.456.008,3.423-2.01,5.486-5.349,5.486Zm3.764-1.949c2.086,0,3.173-1.081,3.173-3.536,0-2.432-1.087-3.506-3.158-3.506h-1.511v7.043Z" transform="translate(-161.917 -10.131)" fill="#501d83"/>
          <path id="패스_29515" data-name="패스 29515" d="M425.177,33.2c.59-.038,1.693-.091,2.041-.107v-.664c-.008-.687-.476-1.08-1.315-1.087a1.237,1.237,0,0,0-1.36.905h-2.131c.136-1.42,1.375-2.538,3.552-2.538,1.79,0,3.484.8,3.476,2.78v5.531h-2.116V36.887h-.059a2.519,2.519,0,0,1-2.4,1.285,2.411,2.411,0,0,1-2.735-2.448c.008-1.828,1.474-2.426,3.052-2.524m.318,3.431a1.587,1.587,0,0,0,1.723-1.541v-.6c-.34.014-1.3.067-1.678.1-.778.067-1.27.437-1.27,1.072s.506.961,1.225.967" transform="translate(-168.851 -11.884)" fill="#501d83"/>
          <path id="패스_29516" data-name="패스 29516" d="M441.078,30.254h-1.541v4c-.008.659.317.816.771.832.226,0,.619-.023.892-.046v1.768a6.955,6.955,0,0,1-1.195.076c-1.617.008-2.72-.718-2.705-2.312V30.254h-1.133V28.575H437.3V26.611h2.237v1.964h1.541Z" transform="translate(-174.468 -10.645)" fill="#501d83"/>
          <path id="패스_29517" data-name="패스 29517" d="M449.083,33.2c.589-.038,1.692-.091,2.04-.107v-.664c-.007-.687-.476-1.08-1.315-1.087a1.235,1.235,0,0,0-1.359.905h-2.131c.136-1.42,1.375-2.538,3.551-2.538,1.792,0,3.484.8,3.477,2.78v5.531h-2.116V36.887h-.061a2.517,2.517,0,0,1-2.4,1.285,2.41,2.41,0,0,1-2.735-2.448c.007-1.828,1.474-2.426,3.052-2.524m.318,3.431a1.586,1.586,0,0,0,1.722-1.541v-.6c-.34.014-1.3.067-1.678.1-.778.067-1.269.437-1.269,1.072s.506.961,1.225.967" transform="translate(-178.414 -11.884)" fill="#501d83"/>
          <path id="패스_29518" data-name="패스 29518" d="M470.877,26.979c-1.149,0-1.792.529-1.8,1.254-.008.794.808,1.149,1.753,1.361l.982.242c1.874.43,3.272,1.382,3.28,3.2-.008,2-1.564,3.287-4.232,3.279-2.644.008-4.33-1.217-4.4-3.567h2.206c.076,1.1.953,1.662,2.161,1.662s1.964-.558,1.964-1.374c0-.748-.679-1.1-1.874-1.39l-1.193-.288c-1.844-.453-2.977-1.375-2.977-2.977-.008-1.987,1.746-3.309,4.141-3.309,2.426,0,4.019,1.345,4.051,3.279h-2.177c-.091-.869-.779-1.375-1.889-1.375" transform="translate(-186.587 -10.03)" fill="#501d83"/>
          <path id="패스_29519" data-name="패스 29519" d="M482.668,33.94a3.874,3.874,0,0,1,4.02-4.231c2.116,0,3.552,1.231,3.642,3.113h-2.1a1.5,1.5,0,0,0-1.511-1.375c-1.073.007-1.783.907-1.783,2.463,0,1.586.695,2.494,1.783,2.494a1.482,1.482,0,0,0,1.511-1.36h2.1c-.1,1.859-1.465,3.136-3.642,3.144-2.516-.008-4.027-1.747-4.02-4.247" transform="translate(-193.069 -11.884)" fill="#501d83"/>
          <path id="패스_29520" data-name="패스 29520" d="M498.789,24.294a1.144,1.144,0,1,1-1.224,1.148,1.194,1.194,0,0,1,1.224-1.148m-1.119,3.355h2.237v8.206H497.67Z" transform="translate(-199.027 -9.718)" fill="#501d83"/>
          <path id="패스_29521" data-name="패스 29521" d="M503.8,33.956c-.008-2.531,1.556-4.246,3.959-4.246,2.154,0,3.854,1.36,3.854,4.156V34.5h-5.606a1.819,1.819,0,0,0,1.888,2.01,1.586,1.586,0,0,0,1.526-.832h2.131c-.318,1.52-1.677,2.5-3.7,2.51-2.516-.008-4.057-1.633-4.049-4.232m5.7-.862a1.63,1.63,0,0,0-1.692-1.707,1.754,1.754,0,0,0-1.8,1.707Z" transform="translate(-201.523 -11.884)" fill="#501d83"/>
          <path id="패스_29522" data-name="패스 29522" d="M521.391,38.021h-2.237V29.815h2.131V31.25h.091a2.48,2.48,0,0,1,2.463-1.541,2.752,2.752,0,0,1,2.826,3.082v5.23h-2.221V33.185a1.429,1.429,0,0,0-1.481-1.616,1.531,1.531,0,0,0-1.572,1.708Z" transform="translate(-207.663 -11.884)" fill="#501d83"/>
          <path id="패스_29523" data-name="패스 29523" d="M534,33.94a3.873,3.873,0,0,1,4.02-4.231c2.115,0,3.551,1.231,3.642,3.113h-2.1a1.5,1.5,0,0,0-1.511-1.375c-1.072.007-1.783.907-1.783,2.463,0,1.586.695,2.494,1.783,2.494a1.481,1.481,0,0,0,1.511-1.36h2.1c-.1,1.859-1.466,3.136-3.642,3.144-2.516-.008-4.028-1.747-4.02-4.247" transform="translate(-213.602 -11.884)" fill="#501d83"/>
          <path id="패스_29524" data-name="패스 29524" d="M548.519,33.956c-.007-2.531,1.557-4.246,3.959-4.246,2.154,0,3.854,1.36,3.854,4.156V34.5h-5.606a1.819,1.819,0,0,0,1.888,2.01,1.584,1.584,0,0,0,1.526-.832h2.131c-.317,1.52-1.677,2.5-3.7,2.51-2.516-.008-4.057-1.633-4.051-4.232m5.7-.862a1.631,1.631,0,0,0-1.693-1.707,1.755,1.755,0,0,0-1.8,1.707Z" transform="translate(-219.409 -11.884)" fill="#501d83"/>
          <path id="패스_29525" data-name="패스 29525" d="M569.279,33.266c0-1.277.808-2.048,2-2.872a4.086,4.086,0,0,1-1.05-2.508,2.792,2.792,0,0,1,2.977-2.81,2.613,2.613,0,0,1,2.827,2.568,3.029,3.029,0,0,1-1.451,2.524l-.643.469,1.828,2.1a4,4,0,0,0,.46-1.89h1.859a5.562,5.562,0,0,1-.982,3.431l1.648,1.889h-2.343l-.672-.755a4.577,4.577,0,0,1-2.8.922c-2.267-.008-3.658-1.345-3.658-3.068m3.763,1.254a2.807,2.807,0,0,0,1.489-.454l-2.092-2.335-.077.053a1.822,1.822,0,0,0-.907,1.36,1.418,1.418,0,0,0,1.587,1.375m-.181-5.161.574-.385a1.4,1.4,0,0,0,.8-1.21.929.929,0,0,0-1.013-.876,1.031,1.031,0,0,0-1.073,1.027,2.62,2.62,0,0,0,.711,1.444" transform="translate(-228.713 -10.03)" fill="#501d83"/>
          <path id="패스_29526" data-name="패스 29526" d="M284.008,67.187,287.8,56.245h2.917L294.5,67.187h-2.433l-.823-2.523h-3.96l-.823,2.523Zm6.657-4.292L289.3,58.71h-.076L287.854,62.9Z" transform="translate(-113.604 -22.498)" fill="#501d83"/>
          <path id="패스_29527" data-name="패스 29527" d="M303.46,60.725h2.161v1.421h.092a2,2,0,0,1,1.979-1.541,3.456,3.456,0,0,1,.71.076v1.994a3.841,3.841,0,0,0-.951-.121,1.665,1.665,0,0,0-1.754,1.708v4.67H303.46Z" transform="translate(-121.385 -24.242)" fill="#501d83"/>
          <path id="패스_29528" data-name="패스 29528" d="M318.109,61.172h-1.541v4.006c-.008.656.317.816.771.83.226,0,.619-.023.892-.044v1.769a7.3,7.3,0,0,1-1.195.075c-1.617.007-2.72-.718-2.705-2.312V61.172H313.2V59.5h1.133V57.531h2.237V59.5h1.541Z" transform="translate(-125.28 -23.013)" fill="#501d83"/>
          <path id="패스_29529" data-name="패스 29529" d="M324.765,55.213a1.144,1.144,0,1,1-1.225,1.15,1.2,1.2,0,0,1,1.225-1.15m-1.12,3.355h2.237v8.206h-2.237Z" transform="translate(-129.417 -22.086)" fill="#501d83"/>
          <path id="패스_29530" data-name="패스 29530" d="M334.259,60.316h-1.633v6.529H330.39V60.316h-1.164V58.639h1.164v-.62a2.423,2.423,0,0,1,2.69-2.63,5.9,5.9,0,0,1,1.33.136v1.692c-.325-.029-.559-.037-.68-.044-.718.008-1.1.28-1.1.967v.5h1.633Z" transform="translate(-131.691 -22.156)" fill="#501d83"/>
          <path id="패스_29531" data-name="패스 29531" d="M340.843,55.213a1.144,1.144,0,1,1-1.225,1.15,1.2,1.2,0,0,1,1.225-1.15m-1.118,3.355h2.236v8.206h-2.236Z" transform="translate(-135.848 -22.086)" fill="#501d83"/>
          <path id="패스_29532" data-name="패스 29532" d="M345.859,64.86a3.876,3.876,0,0,1,4.02-4.232c2.116,0,3.552,1.232,3.642,3.114h-2.1a1.5,1.5,0,0,0-1.511-1.375c-1.073.008-1.783.907-1.783,2.464,0,1.587.695,2.492,1.783,2.492a1.481,1.481,0,0,0,1.511-1.359h2.1c-.1,1.859-1.465,3.136-3.642,3.143-2.516-.007-4.027-1.745-4.02-4.246" transform="translate(-138.345 -24.252)" fill="#501d83"/>
          <path id="패스_29533" data-name="패스 29533" d="M361.98,55.213a1.144,1.144,0,1,1-1.224,1.15,1.2,1.2,0,0,1,1.224-1.15m-1.119,3.355H363.1v8.206h-2.237Z" transform="translate(-144.303 -22.086)" fill="#501d83"/>
          <path id="패스_29534" data-name="패스 29534" d="M369.947,64.119c.589-.038,1.692-.091,2.04-.106v-.665c-.007-.688-.476-1.08-1.315-1.088a1.236,1.236,0,0,0-1.359.908h-2.131c.136-1.421,1.375-2.54,3.551-2.54,1.792,0,3.484.8,3.477,2.782V68.94h-2.116V67.807h-.061a2.52,2.52,0,0,1-2.4,1.284,2.41,2.41,0,0,1-2.735-2.448c.007-1.829,1.474-2.426,3.052-2.524m.318,3.431a1.587,1.587,0,0,0,1.722-1.542v-.6c-.34.016-1.3.068-1.678.1-.778.068-1.269.439-1.269,1.073s.506.959,1.225.967" transform="translate(-146.759 -24.251)" fill="#501d83"/>
          <rect id="사각형_2488" data-name="사각형 2488" width="2.236" height="10.942" transform="translate(229.15 33.747)" fill="#501d83"/>
          <rect id="사각형_2489" data-name="사각형 2489" width="2.267" height="10.942" transform="translate(236.728 33.747)" fill="#501d83"/>
          <path id="패스_29535" data-name="패스 29535" d="M403.554,68.94h-2.237V60.734h2.131V62.17h.091A2.481,2.481,0,0,1,406,60.627a2.754,2.754,0,0,1,2.826,3.085V68.94h-2.221V64.1a1.431,1.431,0,0,0-1.481-1.618,1.532,1.532,0,0,0-1.572,1.708Z" transform="translate(-160.528 -24.251)" fill="#501d83"/>
          <path id="패스_29536" data-name="패스 29536" d="M420.648,61.172h-1.541v4.006c-.008.656.317.816.771.83.226,0,.619-.023.892-.044v1.769a7.3,7.3,0,0,1-1.195.075c-1.617.007-2.72-.718-2.705-2.312V61.172h-1.133V59.5h1.133V57.531h2.237V59.5h1.541Z" transform="translate(-166.296 -23.013)" fill="#501d83"/>
          <path id="패스_29537" data-name="패스 29537" d="M425.563,64.875c-.007-2.531,1.557-4.247,3.959-4.247,2.154,0,3.854,1.361,3.854,4.157v.635H427.77a1.819,1.819,0,0,0,1.888,2.01,1.583,1.583,0,0,0,1.526-.832h2.131c-.316,1.519-1.676,2.5-3.7,2.509-2.516-.007-4.058-1.631-4.051-4.231m5.7-.861a1.632,1.632,0,0,0-1.694-1.708,1.756,1.756,0,0,0-1.8,1.708Z" transform="translate(-170.226 -24.252)" fill="#501d83"/>
          <rect id="사각형_2490" data-name="사각형 2490" width="2.236" height="10.942" transform="translate(264.547 33.747)" fill="#501d83"/>
          <rect id="사각형_2491" data-name="사각형 2491" width="2.236" height="10.942" transform="translate(268.517 33.747)" fill="#501d83"/>
          <path id="패스_29538" data-name="패스 29538" d="M455.2,55.213a1.144,1.144,0,1,1-1.225,1.15,1.2,1.2,0,0,1,1.225-1.15m-1.118,3.355h2.236v8.206h-2.236Z" transform="translate(-181.59 -22.086)" fill="#501d83"/>
          <path id="패스_29539" data-name="패스 29539" d="M460.448,69.621h2.207c.121.658.74.951,1.633.951,1.034,0,1.731-.446,1.738-1.586v-1.5h-.1a2.374,2.374,0,0,1-2.343,1.33c-1.852.008-3.34-1.3-3.34-4.034,0-2.774,1.526-4.157,3.34-4.157a2.427,2.427,0,0,1,2.343,1.481h.09V60.734h2.222v8.3c-.008,2.093-1.655,3.159-3.99,3.159-2.267,0-3.665-1.02-3.794-2.569m3.824-2.479c1.118-.007,1.753-.869,1.753-2.328s-.626-2.4-1.753-2.4c-1.141,0-1.746.99-1.738,2.4-.008,1.421.6,2.321,1.738,2.328" transform="translate(-184.096 -24.252)" fill="#501d83"/>
          <path id="패스_29540" data-name="패스 29540" d="M475.888,64.875c-.007-2.531,1.557-4.247,3.959-4.247,2.154,0,3.854,1.361,3.854,4.157v.635h-5.606a1.82,1.82,0,0,0,1.889,2.01,1.583,1.583,0,0,0,1.526-.832h2.131c-.317,1.519-1.677,2.5-3.7,2.509-2.516-.007-4.057-1.631-4.051-4.231m5.7-.861a1.632,1.632,0,0,0-1.693-1.708,1.757,1.757,0,0,0-1.8,1.708Z" transform="translate(-190.357 -24.252)" fill="#501d83"/>
          <path id="패스_29541" data-name="패스 29541" d="M493.475,68.94h-2.236V60.734h2.131V62.17h.09a2.483,2.483,0,0,1,2.464-1.543,2.755,2.755,0,0,1,2.826,3.085V68.94h-2.222V64.1a1.43,1.43,0,0,0-1.481-1.618,1.532,1.532,0,0,0-1.572,1.708Z" transform="translate(-196.497 -24.251)" fill="#501d83"/>
          <path id="패스_29542" data-name="패스 29542" d="M506.084,64.86a3.876,3.876,0,0,1,4.02-4.232c2.116,0,3.552,1.232,3.643,3.114h-2.1a1.5,1.5,0,0,0-1.511-1.375c-1.073.008-1.783.907-1.783,2.464,0,1.587.695,2.492,1.783,2.492a1.481,1.481,0,0,0,1.511-1.359h2.1c-.1,1.859-1.466,3.136-3.643,3.143-2.516-.007-4.027-1.745-4.02-4.246" transform="translate(-202.435 -24.252)" fill="#501d83"/>
          <path id="패스_29543" data-name="패스 29543" d="M520.6,64.875c-.008-2.531,1.556-4.247,3.959-4.247,2.154,0,3.854,1.361,3.854,4.157v.635h-5.606a1.82,1.82,0,0,0,1.888,2.01,1.586,1.586,0,0,0,1.526-.832h2.131c-.318,1.519-1.677,2.5-3.7,2.509-2.516-.007-4.057-1.631-4.049-4.231m5.7-.861a1.631,1.631,0,0,0-1.692-1.708,1.756,1.756,0,0,0-1.8,1.708Z" transform="translate(-208.243 -24.252)" fill="#501d83"/>
          <path id="패스_29544" data-name="패스 29544" d="M117.479,24.866h12.562v2.627h-4.7V40.2h-3.157V27.493h-4.7Z" transform="translate(-46.992 -9.947)" fill="#501d83"/>
          <path id="패스_29545" data-name="패스 29545" d="M137.109,40.2l5.317-15.337h4.089l5.3,15.337H148.4l-1.154-3.538H141.7L140.541,40.2Zm9.332-6.016-1.917-5.868h-.106L142.5,34.187Z" transform="translate(-54.844 -9.947)" fill="#501d83"/>
          <path id="패스_29546" data-name="패스 29546" d="M164.508,24.866h10.3v2.627h-7.118v3.728h6.589v2.627h-6.589v3.728h7.139V40.2H164.508Z" transform="translate(-65.804 -9.947)" fill="#501d83"/>
          <path id="패스_29547" data-name="패스 29547" d="M194.512,24.866v10.7c0,2.977-2.108,4.851-5.19,4.851-2.775,0-4.946-1.462-4.936-4.491h3.178a1.791,1.791,0,0,0,1.907,1.928c1.218,0,1.885-.784,1.885-2.288v-10.7Z" transform="translate(-73.755 -9.947)" fill="#501d83"/>
          <path id="패스_29548" data-name="패스 29548" d="M204.122,40.2l5.317-15.337h4.089l5.3,15.337h-3.41l-1.154-3.538h-5.551L207.554,40.2Zm9.332-6.016-1.917-5.868h-.106l-1.917,5.868Z" transform="translate(-81.649 -9.947)" fill="#501d83"/>
          <path id="패스_29549" data-name="패스 29549" d="M231.521,24.866h10.3v2.627H234.7v3.728h6.589v2.627H234.7v3.728h7.139V40.2H231.521Z" transform="translate(-92.609 -9.947)" fill="#501d83"/>
          <path id="패스_29550" data-name="패스 29550" d="M127.52,64.952a1.935,1.935,0,0,1-3.867,0V59.009h-1.946v6.1c0,2.056,1.544,3.432,3.88,3.425s3.893-1.369,3.893-3.425v-6.1h-1.96Z" transform="translate(-48.683 -23.604)" fill="#501d83"/>
          <path id="패스_29551" data-name="패스 29551" d="M143.686,64.977H143.6l-4.1-5.969h-1.713V68.4h1.946V62.434h.078l4.126,5.969h1.687V59.009h-1.933Z" transform="translate(-55.113 -23.604)" fill="#501d83"/>
          <rect id="사각형_2492" data-name="사각형 2492" width="1.946" height="9.394" transform="translate(92.379 35.405)" fill="#501d83"/>
          <path id="패스_29552" data-name="패스 29552" d="M163.265,66.171h-.091l-2.284-7.162h-2.18l3.257,9.394h2.5l3.244-9.394h-2.154Z" transform="translate(-63.485 -23.604)" fill="#501d83"/>
          <path id="패스_29553" data-name="패스 29553" d="M177.168,64.511H181.2V62.9h-4.036V60.618h4.36V59.009h-6.306V68.4h6.319V66.794h-4.373Z" transform="translate(-70.089 -23.604)" fill="#501d83"/>
          <path id="패스_29554" data-name="패스 29554" d="M195.769,62.071c0-1.862-1.226-3.062-3.361-3.062h-3.685V68.4h1.946V65.068h1.486l1.8,3.335h2.154l-2-3.652a2.715,2.715,0,0,0,1.661-2.68m-3.724,1.414h-1.375V60.6h1.375c1.155.007,1.719.519,1.713,1.466s-.558,1.414-1.713,1.414" transform="translate(-75.49 -23.604)" fill="#501d83"/>
          <path id="패스_29555" data-name="패스 29555" d="M206.871,62.88l-.844-.208c-.811-.182-1.511-.487-1.5-1.168.007-.623.558-1.077,1.544-1.077.954,0,1.544.434,1.622,1.181h1.869c-.026-1.661-1.395-2.816-3.478-2.816-2.057,0-3.562,1.135-3.556,2.842,0,1.375.973,2.167,2.557,2.556l1.025.247c1.025.253,1.609.551,1.609,1.194,0,.7-.662,1.181-1.687,1.181s-1.79-.48-1.855-1.427h-1.895c.059,2.018,1.505,3.068,3.776,3.062,2.29.006,3.626-1.1,3.633-2.816-.007-1.564-1.207-2.381-2.816-2.751" transform="translate(-80.911 -23.518)" fill="#501d83"/>
          <rect id="사각형_2493" data-name="사각형 2493" width="1.946" height="9.394" transform="translate(130.189 35.405)" fill="#501d83"/>
          <path id="패스_29556" data-name="패스 29556" d="M236.144,59.009l-2.154,4.048H233.9l-2.167-4.048h-9.826v1.609h2.881V68.4h1.933V60.618H229.6v-1.5l3.364,5.938V68.4h1.946V65.056l3.425-6.047Z" transform="translate(-88.763 -23.604)" fill="#501d83"/>
          <rect id="사각형_2494" data-name="사각형 2494" width="14.934" height="14.934" transform="translate(0 0)" fill="#009b88"/>
          <path id="패스_29557" data-name="패스 29557" d="M39.823,0,24.89,14.934V44.8H39.823V14.934H54.757V0Z" transform="translate(-9.956 0)" fill="#321f78"/>
          <path id="패스_29558" data-name="패스 29558" d="M79.646,24.89H64.712V54.757H49.779V69.424a26.424,26.424,0,0,0,3.734.266A26.134,26.134,0,0,0,79.646,43.57Z" transform="translate(-19.912 -9.956)" fill="#321f78"/>
          <path id="패스_29559" data-name="패스 29559" d="M49.779,39.823V24.889H64.713Z" transform="translate(-19.912 -9.956)" fill="#0087dc"/>
          <rect id="사각형_2495" data-name="사각형 2495" width="14.934" height="14.934" transform="translate(0 -0.001)" fill="#009b88"/>
          <path id="패스_29560" data-name="패스 29560" d="M39.823,0,24.89,14.934V44.8H39.823V14.934H54.757V0Z" transform="translate(-9.956 0)" fill="#501d83"/>
          <path id="패스_29561" data-name="패스 29561" d="M79.646,24.89H64.712V54.757H49.779V69.424a26.424,26.424,0,0,0,3.734.266A26.134,26.134,0,0,0,79.646,43.57Z" transform="translate(-19.912 -9.956)" fill="#321f78"/>
          <path id="패스_29564" data-name="패스 29564" d="M0,0H14.934V14.934H0Z" transform="translate(0 -0.001)" fill="#00a497"/>
          <path id="패스_29562" data-name="패스 29562" d="M39.823,0,24.89,14.934V44.8H39.823V14.934H54.757V0Z" transform="translate(-9.956 0)" fill="#501d83"/>
          <path id="패스_29563" data-name="패스 29563" d="M79.646,24.89H64.712V54.757H49.779V69.424a26.424,26.424,0,0,0,3.734.266A26.134,26.134,0,0,0,79.646,43.57Z" transform="translate(-19.912 -9.956)" fill="#501d83"/>
        </g>
      </g>
    </g>
    <g id="ci_natural" data-name="ci/natural" transform="translate(-80 -1024.021)">
      <rect id="base-3" data-name="base" width="293.999" height="60" transform="translate(100 1339.022)" fill="none"/>
      <line id="선_1034" data-name="선 1034" y2="29.754" transform="translate(260.392 1354.068)" fill="none" stroke="#501d83" stroke-width="2"/>
      <g id="그룹_3200" data-name="그룹 3200" transform="translate(100 1339.022)">
        <g id="그룹_3199" data-name="그룹 3199" transform="translate(0 0)" clip-path="url(#clip-path-3)">
          <path id="패스_29466" data-name="패스 29466" d="M288.85,26.979c-1.15,0-1.792.529-1.8,1.254-.008.794.808,1.149,1.753,1.361l.982.242c1.874.43,3.272,1.382,3.28,3.2-.008,2-1.564,3.287-4.232,3.279-2.644.008-4.33-1.217-4.4-3.566h2.206c.076,1.1.953,1.662,2.161,1.662,1.193,0,1.964-.559,1.964-1.375,0-.748-.679-1.1-1.874-1.39l-1.193-.287c-1.844-.454-2.977-1.376-2.977-2.977-.008-1.988,1.746-3.31,4.141-3.31,2.426,0,4.02,1.345,4.051,3.279h-2.177c-.091-.869-.779-1.375-1.888-1.375" transform="translate(-113.775 -10.03)" fill="#501d83"/>
          <path id="패스_29467" data-name="패스 29467" d="M300.641,33.94a3.874,3.874,0,0,1,4.019-4.231c2.116,0,3.552,1.231,3.642,3.113h-2.1a1.5,1.5,0,0,0-1.511-1.375c-1.073.008-1.783.907-1.783,2.464,0,1.587.695,2.494,1.783,2.494a1.482,1.482,0,0,0,1.511-1.36h2.1c-.1,1.859-1.465,3.136-3.642,3.144-2.516-.008-4.027-1.746-4.019-4.247" transform="translate(-120.257 -11.884)" fill="#501d83"/>
          <path id="패스_29468" data-name="패스 29468" d="M317.95,36.268h-2.237V25.327h2.177V29.5h.091a2.422,2.422,0,0,1,2.449-1.541,2.761,2.761,0,0,1,2.841,3.083v5.228h-2.237V31.432a1.418,1.418,0,0,0-1.48-1.616,1.545,1.545,0,0,0-1.6,1.708Z" transform="translate(-126.286 -10.131)" fill="#501d83"/>
          <path id="패스_29469" data-name="패스 29469" d="M330.61,33.94a3.866,3.866,0,0,1,4.019-4.231c2.486,0,4.028,1.7,4.035,4.231s-1.549,4.24-4.035,4.247a3.878,3.878,0,0,1-4.019-4.247m4.034,2.51c1.141-.008,1.746-1.073,1.738-2.51.008-1.442-.6-2.523-1.738-2.523-1.171,0-1.769,1.081-1.769,2.523s.6,2.5,1.769,2.51" transform="translate(-132.245 -11.884)" fill="#501d83"/>
          <path id="패스_29470" data-name="패스 29470" d="M345.808,33.94a3.866,3.866,0,0,1,4.019-4.231c2.486,0,4.028,1.7,4.035,4.231s-1.549,4.24-4.035,4.247a3.878,3.878,0,0,1-4.019-4.247m4.034,2.51c1.141-.008,1.746-1.073,1.738-2.51.008-1.442-.6-2.523-1.738-2.523-1.171,0-1.769,1.081-1.769,2.523s.6,2.5,1.769,2.51" transform="translate(-138.324 -11.884)" fill="#501d83"/>
          <rect id="사각형_2479" data-name="사각형 2479" width="2.237" height="10.941" transform="translate(216.934 15.196)" fill="#501d83"/>
          <path id="패스_29471" data-name="패스 29471" d="M373.561,33.94a3.866,3.866,0,0,1,4.019-4.231c2.487,0,4.028,1.7,4.036,4.231-.008,2.54-1.549,4.24-4.036,4.247a3.879,3.879,0,0,1-4.019-4.247m4.036,2.51c1.141-.008,1.745-1.073,1.738-2.51s-.6-2.523-1.738-2.523c-1.172,0-1.769,1.081-1.769,2.523s.6,2.5,1.769,2.51" transform="translate(-149.425 -11.884)" fill="#501d83"/>
          <path id="패스_29472" data-name="패스 29472" d="M393.237,29.4h-1.631v6.528h-2.237V29.4H388.2V27.719h1.164V27.1a2.423,2.423,0,0,1,2.69-2.631,5.888,5.888,0,0,1,1.33.136V26.3c-.325-.031-.559-.038-.68-.046-.717.008-1.1.28-1.1.967v.5h1.631Z" transform="translate(-155.283 -9.788)" fill="#501d83"/>
          <path id="패스_29473" data-name="패스 29473" d="M413.918,36.268h-1.966l-4.8-6.951h-.092v6.951H404.79V25.327h1.994l4.777,6.952h.1V25.327h2.252Z" transform="translate(-161.917 -10.131)" fill="#501d83"/>
          <path id="패스_29474" data-name="패스 29474" d="M425.378,33.2c.59-.038,1.693-.091,2.041-.106v-.665c-.008-.687-.476-1.08-1.315-1.087a1.236,1.236,0,0,0-1.36.907h-2.131c.136-1.421,1.375-2.539,3.552-2.539,1.79,0,3.484.8,3.476,2.78v5.531h-2.116V36.888h-.059a2.52,2.52,0,0,1-2.4,1.284,2.411,2.411,0,0,1-2.735-2.448c.008-1.828,1.474-2.426,3.052-2.524m.318,3.431a1.587,1.587,0,0,0,1.723-1.541v-.6c-.34.015-1.3.067-1.678.1-.778.067-1.27.437-1.27,1.072s.506.961,1.225.967" transform="translate(-168.932 -11.884)" fill="#501d83"/>
          <path id="패스_29475" data-name="패스 29475" d="M441.279,30.254h-1.541v4c-.008.658.317.816.771.831.226,0,.619-.023.892-.046v1.769a7.166,7.166,0,0,1-1.195.075c-1.617.007-2.72-.718-2.705-2.312V30.254h-1.133V28.575H437.5V26.611h2.237v1.964h1.541Z" transform="translate(-174.548 -10.645)" fill="#501d83"/>
          <path id="패스_29476" data-name="패스 29476" d="M452.146,29.884h2.236V38.09h-2.146V36.61h-.091a2.527,2.527,0,0,1-2.495,1.587c-1.639,0-2.765-1.164-2.765-3.083v-5.23h2.237V34.72a1.416,1.416,0,0,0,1.436,1.587,1.585,1.585,0,0,0,1.587-1.707Z" transform="translate(-178.756 -11.954)" fill="#501d83"/>
          <path id="패스_29477" data-name="패스 29477" d="M462.261,29.8h2.161v1.421h.092a2,2,0,0,1,1.979-1.541,3.456,3.456,0,0,1,.71.076v1.995a3.785,3.785,0,0,0-.951-.121,1.664,1.664,0,0,0-1.754,1.708V38.01h-2.236Z" transform="translate(-184.906 -11.874)" fill="#501d83"/>
          <path id="패스_29478" data-name="패스 29478" d="M474.32,33.2c.59-.038,1.693-.091,2.041-.106v-.665c-.008-.687-.476-1.08-1.315-1.087a1.236,1.236,0,0,0-1.36.907h-2.131c.136-1.421,1.375-2.539,3.552-2.539,1.79,0,3.484.8,3.476,2.78v5.531h-2.116V36.888h-.059a2.52,2.52,0,0,1-2.4,1.284,2.411,2.411,0,0,1-2.735-2.448c.008-1.828,1.474-2.426,3.052-2.524m.318,3.431a1.587,1.587,0,0,0,1.723-1.541v-.6c-.34.015-1.3.067-1.678.1-.778.067-1.27.437-1.27,1.072s.506.961,1.225.967" transform="translate(-188.509 -11.884)" fill="#501d83"/>
          <rect id="사각형_2480" data-name="사각형 2480" width="2.237" height="10.941" transform="translate(291.773 15.196)" fill="#501d83"/>
          <path id="패스_29479" data-name="패스 29479" d="M288.85,57.9c-1.15,0-1.792.529-1.8,1.254-.008.794.808,1.149,1.753,1.361l.982.242c1.874.43,3.272,1.382,3.28,3.2-.008,2-1.564,3.287-4.232,3.279-2.644.008-4.33-1.217-4.4-3.566h2.206c.076,1.1.953,1.662,2.161,1.662,1.193,0,1.964-.559,1.964-1.375,0-.748-.679-1.1-1.874-1.39l-1.193-.287c-1.844-.454-2.977-1.376-2.977-2.977-.008-1.988,1.746-3.31,4.141-3.31,2.426,0,4.02,1.345,4.051,3.279h-2.177c-.091-.869-.779-1.375-1.888-1.375" transform="translate(-113.775 -22.398)" fill="#501d83"/>
          <path id="패스_29480" data-name="패스 29480" d="M300.641,64.86a3.874,3.874,0,0,1,4.019-4.231c2.116,0,3.552,1.231,3.642,3.113h-2.1a1.5,1.5,0,0,0-1.511-1.375c-1.073.008-1.783.907-1.783,2.464,0,1.587.695,2.494,1.783,2.494a1.482,1.482,0,0,0,1.511-1.36h2.1c-.1,1.859-1.465,3.136-3.642,3.144-2.516-.008-4.027-1.746-4.019-4.247" transform="translate(-120.257 -24.252)" fill="#501d83"/>
          <path id="패스_29481" data-name="패스 29481" d="M316.762,55.214a1.144,1.144,0,1,1-1.224,1.149,1.2,1.2,0,0,1,1.224-1.149m-1.119,3.355h2.237v8.206h-2.237Z" transform="translate(-126.216 -22.086)" fill="#501d83"/>
          <path id="패스_29482" data-name="패스 29482" d="M321.778,64.875c-.008-2.531,1.556-4.246,3.959-4.246,2.154,0,3.854,1.36,3.854,4.156v.635h-5.606a1.819,1.819,0,0,0,1.888,2.01A1.584,1.584,0,0,0,327.4,66.6h2.131c-.318,1.52-1.677,2.5-3.7,2.51-2.516-.008-4.057-1.633-4.049-4.232m5.7-.861a1.632,1.632,0,0,0-1.692-1.708,1.756,1.756,0,0,0-1.8,1.708Z" transform="translate(-128.712 -24.252)" fill="#501d83"/>
          <path id="패스_29483" data-name="패스 29483" d="M339.363,68.941h-2.237V60.735h2.131V62.17h.091a2.48,2.48,0,0,1,2.463-1.541,2.753,2.753,0,0,1,2.826,3.083v5.228h-2.221V64.1a1.43,1.43,0,0,0-1.481-1.616,1.531,1.531,0,0,0-1.572,1.708Z" transform="translate(-134.851 -24.252)" fill="#501d83"/>
          <path id="패스_29484" data-name="패스 29484" d="M351.974,64.86a3.873,3.873,0,0,1,4.02-4.231c2.115,0,3.551,1.231,3.642,3.113h-2.1a1.5,1.5,0,0,0-1.511-1.375c-1.072.008-1.783.907-1.783,2.464,0,1.587.695,2.494,1.783,2.494a1.481,1.481,0,0,0,1.511-1.36h2.1c-.1,1.859-1.466,3.136-3.642,3.144-2.516-.008-4.028-1.746-4.02-4.247" transform="translate(-140.791 -24.252)" fill="#501d83"/>
          <path id="패스_29485" data-name="패스 29485" d="M366.492,64.875c-.007-2.531,1.557-4.246,3.959-4.246,2.154,0,3.854,1.36,3.854,4.156v.635H368.7a1.819,1.819,0,0,0,1.889,2.01,1.581,1.581,0,0,0,1.526-.832h2.131c-.317,1.52-1.677,2.5-3.7,2.51-2.516-.008-4.057-1.633-4.051-4.232m5.7-.861a1.632,1.632,0,0,0-1.693-1.708,1.757,1.757,0,0,0-1.8,1.708Z" transform="translate(-146.598 -24.252)" fill="#501d83"/>
          <path id="패스_29486" data-name="패스 29486" d="M117.479,24.866h12.562v2.627h-4.7V40.2h-3.157V27.493h-4.7Z" transform="translate(-46.992 -9.947)" fill="#501d83"/>
          <path id="패스_29487" data-name="패스 29487" d="M137.109,40.2l5.317-15.337h4.089l5.3,15.337H148.4l-1.154-3.538H141.7L140.541,40.2Zm9.332-6.016-1.917-5.868h-.106L142.5,34.187Z" transform="translate(-54.844 -9.947)" fill="#501d83"/>
          <path id="패스_29488" data-name="패스 29488" d="M164.508,24.866h10.3v2.627h-7.118v3.728h6.589v2.627h-6.589v3.728h7.139V40.2H164.508Z" transform="translate(-65.804 -9.947)" fill="#501d83"/>
          <path id="패스_29489" data-name="패스 29489" d="M194.512,24.866v10.7c0,2.977-2.108,4.851-5.19,4.851-2.775,0-4.946-1.462-4.936-4.491h3.178a1.791,1.791,0,0,0,1.907,1.928c1.218,0,1.885-.784,1.885-2.288v-10.7Z" transform="translate(-73.755 -9.947)" fill="#501d83"/>
          <path id="패스_29490" data-name="패스 29490" d="M204.122,40.2l5.317-15.337h4.089l5.3,15.337h-3.41l-1.154-3.538h-5.551L207.554,40.2Zm9.332-6.016-1.917-5.868h-.106l-1.917,5.868Z" transform="translate(-81.649 -9.947)" fill="#501d83"/>
          <path id="패스_29491" data-name="패스 29491" d="M231.521,24.866h10.3v2.627H234.7v3.728h6.589v2.627H234.7v3.728h7.139V40.2H231.521Z" transform="translate(-92.609 -9.947)" fill="#501d83"/>
          <path id="패스_29492" data-name="패스 29492" d="M127.52,64.952a1.935,1.935,0,0,1-3.867,0V59.009h-1.946v6.1c0,2.056,1.544,3.432,3.88,3.425s3.893-1.369,3.893-3.425v-6.1h-1.96Z" transform="translate(-48.683 -23.604)" fill="#501d83"/>
          <path id="패스_29493" data-name="패스 29493" d="M143.686,64.977H143.6l-4.1-5.969h-1.713V68.4h1.946V62.434h.078l4.126,5.969h1.687V59.009h-1.933Z" transform="translate(-55.113 -23.604)" fill="#501d83"/>
          <rect id="사각형_2481" data-name="사각형 2481" width="1.946" height="9.394" transform="translate(92.379 35.405)" fill="#501d83"/>
          <path id="패스_29494" data-name="패스 29494" d="M163.265,66.171h-.091l-2.284-7.162h-2.18l3.257,9.394h2.5l3.244-9.394h-2.154Z" transform="translate(-63.485 -23.604)" fill="#501d83"/>
          <path id="패스_29495" data-name="패스 29495" d="M177.168,64.511H181.2V62.9h-4.036V60.618h4.36V59.009h-6.306V68.4h6.319V66.794h-4.373Z" transform="translate(-70.089 -23.604)" fill="#501d83"/>
          <path id="패스_29496" data-name="패스 29496" d="M195.769,62.071c0-1.862-1.226-3.062-3.361-3.062h-3.685V68.4h1.946V65.068h1.486l1.8,3.335h2.154l-2-3.652a2.715,2.715,0,0,0,1.661-2.68m-3.724,1.414h-1.375V60.6h1.375c1.155.007,1.719.519,1.713,1.466s-.558,1.414-1.713,1.414" transform="translate(-75.49 -23.604)" fill="#501d83"/>
          <path id="패스_29497" data-name="패스 29497" d="M206.871,62.88l-.844-.208c-.811-.182-1.511-.487-1.5-1.168.007-.623.558-1.077,1.544-1.077.954,0,1.544.434,1.622,1.181h1.869c-.026-1.661-1.395-2.816-3.478-2.816-2.057,0-3.562,1.135-3.556,2.842,0,1.375.973,2.167,2.557,2.556l1.025.247c1.025.253,1.609.551,1.609,1.194,0,.7-.662,1.181-1.687,1.181s-1.79-.48-1.855-1.427h-1.895c.059,2.018,1.505,3.068,3.776,3.062,2.29.006,3.626-1.1,3.633-2.816-.007-1.564-1.207-2.381-2.816-2.751" transform="translate(-80.911 -23.518)" fill="#501d83"/>
          <rect id="사각형_2482" data-name="사각형 2482" width="1.946" height="9.394" transform="translate(130.189 35.405)" fill="#501d83"/>
          <path id="패스_29498" data-name="패스 29498" d="M236.144,59.009l-2.154,4.048H233.9l-2.167-4.048h-9.826v1.609h2.881V68.4h1.933V60.618H229.6v-1.5l3.364,5.938V68.4h1.946V65.056l3.425-6.047Z" transform="translate(-88.763 -23.604)" fill="#501d83"/>
          <rect id="사각형_2483" data-name="사각형 2483" width="14.934" height="14.934" transform="translate(0 0)" fill="#009b88"/>
          <path id="패스_29499" data-name="패스 29499" d="M39.823,0,24.89,14.934V44.8H39.823V14.934H54.757V0Z" transform="translate(-9.956 0)" fill="#321f78"/>
          <path id="패스_29500" data-name="패스 29500" d="M79.646,24.89H64.712V54.757H49.779V69.424a26.424,26.424,0,0,0,3.734.266A26.134,26.134,0,0,0,79.646,43.57Z" transform="translate(-19.912 -9.956)" fill="#321f78"/>
          <path id="패스_29501" data-name="패스 29501" d="M49.779,39.823V24.889H64.713Z" transform="translate(-19.912 -9.956)" fill="#1da03b"/>
          <rect id="사각형_2484" data-name="사각형 2484" width="14.934" height="14.934" transform="translate(0 -0.001)" fill="#009b88"/>
          <path id="패스_29502" data-name="패스 29502" d="M39.823,0,24.89,14.934V44.8H39.823V14.934H54.757V0Z" transform="translate(-9.956 0)" fill="#321f78"/>
          <path id="패스_29503" data-name="패스 29503" d="M79.646,24.89H64.712V54.757H49.779V69.424a26.424,26.424,0,0,0,3.734.266A26.134,26.134,0,0,0,79.646,43.57Z" transform="translate(-19.912 -9.956)" fill="#321f78"/>
          <path id="패스_29506" data-name="패스 29506" d="M0,0H14.934V14.934H0Z" transform="translate(0 -0.001)" fill="#00a497"/>
          <path id="패스_29504" data-name="패스 29504" d="M39.823,0,24.89,14.934V44.8H39.823V14.934H54.757V0Z" transform="translate(-9.956 0)" fill="#501d83"/>
          <path id="패스_29505" data-name="패스 29505" d="M79.646,24.89H64.712V54.757H49.779V69.424a26.424,26.424,0,0,0,3.734.266A26.134,26.134,0,0,0,79.646,43.57Z" transform="translate(-19.912 -9.956)" fill="#501d83"/>
        </g>
      </g>
    </g>
    <g id="ci_humanities" data-name="ci/humanities" transform="translate(-658 -410)">
      <rect id="base-4" data-name="base" width="338" height="60" transform="translate(678 625)" fill="none"/>
      <line id="선_1033" data-name="선 1033" y2="29.755" transform="translate(838.393 640.046)" fill="none" stroke="#501d83" stroke-width="2"/>
      <g id="그룹_3197" data-name="그룹 3197" transform="translate(678 625)" clip-path="url(#clip-path-4)">
        <path id="패스_29415" data-name="패스 29415" d="M288.85,26.978c-1.15,0-1.792.528-1.8,1.254-.008.794.808,1.149,1.753,1.361l.982.241c1.874.431,3.272,1.383,3.28,3.2-.008,2-1.564,3.288-4.232,3.28-2.644.008-4.33-1.217-4.4-3.567h2.206c.076,1.1.953,1.662,2.161,1.662s1.964-.559,1.964-1.375c0-.748-.679-1.095-1.874-1.39L287.7,31.36c-1.844-.453-2.977-1.376-2.977-2.977-.008-1.987,1.746-3.31,4.141-3.31,2.426,0,4.02,1.346,4.051,3.28h-2.177c-.091-.869-.779-1.375-1.888-1.375" transform="translate(-113.774 -10.03)" fill="#501d83"/>
        <path id="패스_29416" data-name="패스 29416" d="M300.641,33.939a3.874,3.874,0,0,1,4.019-4.232c2.116,0,3.552,1.232,3.642,3.114h-2.1a1.5,1.5,0,0,0-1.511-1.375c-1.073.007-1.783.907-1.783,2.463,0,1.586.695,2.493,1.783,2.493a1.481,1.481,0,0,0,1.511-1.359h2.1c-.1,1.859-1.465,3.136-3.642,3.143-2.516-.007-4.027-1.746-4.019-4.246" transform="translate(-120.256 -11.883)" fill="#501d83"/>
        <path id="패스_29417" data-name="패스 29417" d="M317.95,36.267h-2.237V25.325h2.177V29.5h.091a2.421,2.421,0,0,1,2.449-1.543,2.761,2.761,0,0,1,2.841,3.083v5.23h-2.237V31.431a1.418,1.418,0,0,0-1.48-1.618,1.546,1.546,0,0,0-1.6,1.708Z" transform="translate(-126.285 -10.13)" fill="#501d83"/>
        <path id="패스_29418" data-name="패스 29418" d="M330.61,33.939a3.867,3.867,0,0,1,4.019-4.232c2.486,0,4.028,1.7,4.035,4.232s-1.549,4.24-4.035,4.246a3.877,3.877,0,0,1-4.019-4.246m4.034,2.509c1.141-.008,1.746-1.073,1.738-2.509.008-1.444-.6-2.524-1.738-2.524-1.171,0-1.769,1.081-1.769,2.524s.6,2.5,1.769,2.509" transform="translate(-132.244 -11.883)" fill="#501d83"/>
        <path id="패스_29419" data-name="패스 29419" d="M345.808,33.939a3.867,3.867,0,0,1,4.019-4.232c2.486,0,4.028,1.7,4.035,4.232s-1.549,4.24-4.035,4.246a3.877,3.877,0,0,1-4.019-4.246m4.034,2.509c1.141-.008,1.746-1.073,1.738-2.509.008-1.444-.6-2.524-1.738-2.524-1.171,0-1.769,1.081-1.769,2.524s.6,2.5,1.769,2.509" transform="translate(-138.323 -11.883)" fill="#501d83"/>
        <rect id="사각형_2471" data-name="사각형 2471" width="2.237" height="10.942" transform="translate(216.935 15.194)" fill="#501d83"/>
        <path id="패스_29420" data-name="패스 29420" d="M373.561,33.939a3.867,3.867,0,0,1,4.019-4.232c2.487,0,4.028,1.7,4.036,4.232-.008,2.539-1.549,4.24-4.036,4.246a3.878,3.878,0,0,1-4.019-4.246m4.036,2.509c1.141-.008,1.745-1.073,1.738-2.509s-.6-2.524-1.738-2.524c-1.172,0-1.769,1.081-1.769,2.524s.6,2.5,1.769,2.509" transform="translate(-149.424 -11.883)" fill="#501d83"/>
        <path id="패스_29421" data-name="패스 29421" d="M393.237,29.4h-1.631v6.529h-2.237V29.4H388.2V27.719h1.164V27.1a2.422,2.422,0,0,1,2.69-2.63,5.888,5.888,0,0,1,1.33.136V26.3c-.325-.029-.559-.038-.68-.044-.717.007-1.1.279-1.1.967v.5h1.631Z" transform="translate(-155.282 -9.788)" fill="#501d83"/>
        <path id="패스_29422" data-name="패스 29422" d="M404.79,25.325h2.266v4.534H411.8V25.325h2.282V36.267H411.8V31.733h-4.745v4.534H404.79Z" transform="translate(-161.916 -10.13)" fill="#501d83"/>
        <path id="패스_29423" data-name="패스 29423" d="M428.518,29.884h2.236V38.09h-2.146V36.609h-.091a2.527,2.527,0,0,1-2.495,1.587c-1.639,0-2.765-1.164-2.765-3.082v-5.23H425.5V34.72a1.417,1.417,0,0,0,1.436,1.587,1.587,1.587,0,0,0,1.587-1.708Z" transform="translate(-169.303 -11.954)" fill="#501d83"/>
        <path id="패스_29424" data-name="패스 29424" d="M438.633,29.813h2.131v1.436h.09a2.3,2.3,0,0,1,2.282-1.542,2.181,2.181,0,0,1,2.236,1.542h.076a2.655,2.655,0,0,1,5.063,1.255v5.516h-2.237V32.941a1.23,1.23,0,0,0-1.284-1.39A1.292,1.292,0,0,0,445.661,33v5.018h-2.177V32.88a1.218,1.218,0,0,0-1.269-1.33,1.391,1.391,0,0,0-1.346,1.541v4.927h-2.236Z" transform="translate(-175.453 -11.883)" fill="#501d83"/>
        <path id="패스_29425" data-name="패스 29425" d="M463.676,33.2c.59-.038,1.693-.091,2.041-.107v-.664c-.008-.688-.476-1.08-1.315-1.088a1.237,1.237,0,0,0-1.36.907h-2.131c.136-1.42,1.375-2.539,3.552-2.539,1.79,0,3.484.8,3.476,2.782V38.02h-2.116V36.886h-.059a2.521,2.521,0,0,1-2.4,1.285,2.411,2.411,0,0,1-2.735-2.448c.008-1.829,1.474-2.426,3.052-2.524m.318,3.431a1.588,1.588,0,0,0,1.723-1.542v-.6c-.34.015-1.3.068-1.678.1-.778.068-1.27.438-1.27,1.073s.506.959,1.225.967" transform="translate(-184.25 -11.883)" fill="#501d83"/>
        <path id="패스_29426" data-name="패스 29426" d="M477.884,38.02h-2.237V29.814h2.131V31.25h.091a2.481,2.481,0,0,1,2.463-1.543,2.753,2.753,0,0,1,2.826,3.083v5.23h-2.221V33.184a1.43,1.43,0,0,0-1.481-1.618,1.532,1.532,0,0,0-1.572,1.708Z" transform="translate(-190.259 -11.883)" fill="#501d83"/>
        <path id="패스_29427" data-name="패스 29427" d="M492.1,24.292a1.144,1.144,0,1,1-1.225,1.149,1.2,1.2,0,0,1,1.225-1.149m-1.119,3.356h2.237v8.206h-2.237Z" transform="translate(-196.348 -9.717)" fill="#501d83"/>
        <path id="패스_29428" data-name="패스 29428" d="M501.595,30.252h-1.541v4c-.008.658.317.816.771.831.226,0,.619-.023.892-.044v1.768a7.035,7.035,0,0,1-1.195.075c-1.617.008-2.72-.718-2.705-2.311V30.252h-1.133V28.575h1.133V26.611h2.237v1.964h1.541Z" transform="translate(-198.673 -10.645)" fill="#501d83"/>
        <path id="패스_29429" data-name="패스 29429" d="M508.251,24.292a1.144,1.144,0,1,1-1.225,1.149,1.2,1.2,0,0,1,1.225-1.149m-1.12,3.356h2.237v8.206h-2.237Z" transform="translate(-202.81 -9.717)" fill="#501d83"/>
        <path id="패스_29430" data-name="패스 29430" d="M513.266,33.954c-.008-2.531,1.556-4.247,3.959-4.247,2.154,0,3.854,1.36,3.854,4.157V34.5h-5.606a1.82,1.82,0,0,0,1.888,2.01,1.588,1.588,0,0,0,1.526-.832h2.131c-.318,1.519-1.677,2.5-3.7,2.509-2.516-.007-4.057-1.631-4.049-4.231m5.7-.862a1.63,1.63,0,0,0-1.692-1.707,1.754,1.754,0,0,0-1.8,1.707Z" transform="translate(-205.306 -11.883)" fill="#501d83"/>
        <path id="패스_29431" data-name="패스 29431" d="M531.7,31.294c-.726.008-1.277.347-1.27.847-.007.37.28.658,1.059.815l1.465.3c1.595.332,2.366,1.042,2.372,2.221-.007,1.616-1.457,2.7-3.641,2.7-2.215-.007-3.514-1-3.7-2.6h2.252c.1.641.626.974,1.451.982.815-.008,1.36-.333,1.36-.862,0-.423-.347-.687-1.118-.846l-1.36-.272c-1.564-.31-2.365-1.111-2.357-2.328-.007-1.571,1.345-2.554,3.461-2.554,2.07,0,3.355.983,3.476,2.539h-2.1a1.231,1.231,0,0,0-1.345-.952" transform="translate(-211.194 -11.883)" fill="#501d83"/>
        <path id="패스_29432" data-name="패스 29432" d="M547.915,33.265c0-1.277.808-2.048,2-2.872a4.089,4.089,0,0,1-1.05-2.508,2.794,2.794,0,0,1,2.977-2.812,2.615,2.615,0,0,1,2.827,2.569,3.029,3.029,0,0,1-1.451,2.524l-.643.469,1.828,2.1a3.994,3.994,0,0,0,.46-1.889h1.859a5.555,5.555,0,0,1-.982,3.43l1.648,1.89h-2.343l-.672-.755a4.568,4.568,0,0,1-2.8.921c-2.267-.007-3.658-1.344-3.658-3.067m3.763,1.254a2.807,2.807,0,0,0,1.489-.454l-2.092-2.335-.077.053a1.823,1.823,0,0,0-.907,1.36,1.419,1.419,0,0,0,1.587,1.375m-.181-5.161.574-.385a1.4,1.4,0,0,0,.8-1.21.931.931,0,0,0-1.013-.877,1.031,1.031,0,0,0-1.073,1.028,2.62,2.62,0,0,0,.711,1.444" transform="translate(-219.166 -10.03)" fill="#501d83"/>
        <path id="패스_29433" data-name="패스 29433" d="M288.85,57.9c-1.15,0-1.792.528-1.8,1.254-.008.794.808,1.149,1.753,1.361l.982.241c1.874.431,3.272,1.383,3.28,3.2-.008,2-1.564,3.288-4.232,3.28-2.644.008-4.33-1.217-4.4-3.567h2.206c.076,1.1.953,1.662,2.161,1.662s1.964-.559,1.964-1.375c0-.748-.679-1.095-1.874-1.39L287.7,62.28c-1.844-.453-2.977-1.376-2.977-2.977-.008-1.987,1.746-3.31,4.141-3.31,2.426,0,4.02,1.346,4.051,3.28h-2.177c-.091-.869-.779-1.375-1.888-1.375" transform="translate(-113.774 -22.398)" fill="#501d83"/>
        <path id="패스_29434" data-name="패스 29434" d="M300.641,64.859a3.867,3.867,0,0,1,4.019-4.232c2.487,0,4.028,1.7,4.036,4.232-.008,2.539-1.549,4.24-4.036,4.246a3.878,3.878,0,0,1-4.019-4.246m4.036,2.509c1.141-.008,1.745-1.073,1.738-2.509s-.6-2.524-1.738-2.524c-1.172,0-1.769,1.081-1.769,2.524s.6,2.5,1.769,2.509" transform="translate(-120.256 -24.251)" fill="#501d83"/>
        <path id="패스_29435" data-name="패스 29435" d="M315.839,64.859a3.875,3.875,0,0,1,4.02-4.232c2.116,0,3.552,1.232,3.642,3.114h-2.1a1.5,1.5,0,0,0-1.511-1.375c-1.073.007-1.783.907-1.783,2.463,0,1.586.695,2.493,1.783,2.493a1.481,1.481,0,0,0,1.511-1.359h2.1c-.1,1.859-1.465,3.136-3.642,3.143-2.516-.007-4.027-1.746-4.02-4.246" transform="translate(-126.336 -24.251)" fill="#501d83"/>
        <path id="패스_29436" data-name="패스 29436" d="M331.96,55.212a1.144,1.144,0,1,1-1.224,1.149,1.2,1.2,0,0,1,1.224-1.149m-1.119,3.356h2.237v8.206h-2.237Z" transform="translate(-132.294 -22.085)" fill="#501d83"/>
        <path id="패스_29437" data-name="패스 29437" d="M339.927,64.119c.589-.038,1.692-.091,2.04-.107v-.664c-.007-.688-.476-1.08-1.315-1.088a1.236,1.236,0,0,0-1.359.907h-2.131c.136-1.42,1.375-2.539,3.551-2.539,1.792,0,3.484.8,3.477,2.782V68.94h-2.116V67.806h-.061a2.519,2.519,0,0,1-2.4,1.285,2.41,2.41,0,0,1-2.735-2.448c.007-1.829,1.474-2.426,3.052-2.524m.318,3.431a1.587,1.587,0,0,0,1.722-1.542v-.6c-.34.015-1.3.068-1.678.1-.778.068-1.269.438-1.269,1.073s.506.959,1.225.967" transform="translate(-134.75 -24.251)" fill="#501d83"/>
        <rect id="사각형_2472" data-name="사각형 2472" width="2.236" height="10.942" transform="translate(211.139 33.746)" fill="#501d83"/>
        <path id="패스_29438" data-name="패스 29438" d="M368.338,57.9c-1.149,0-1.792.528-1.8,1.254-.008.794.808,1.149,1.753,1.361l.982.241c1.874.431,3.272,1.383,3.28,3.2-.008,2-1.564,3.288-4.232,3.28-2.644.008-4.33-1.217-4.4-3.567h2.206c.076,1.1.953,1.662,2.161,1.662,1.193,0,1.964-.559,1.964-1.375,0-.748-.679-1.095-1.874-1.39l-1.193-.287c-1.844-.453-2.977-1.376-2.977-2.977-.008-1.987,1.746-3.31,4.141-3.31,2.426,0,4.019,1.346,4.051,3.28h-2.177c-.091-.869-.779-1.375-1.889-1.375" transform="translate(-145.57 -22.398)" fill="#501d83"/>
        <path id="패스_29439" data-name="패스 29439" d="M380.129,64.859a3.875,3.875,0,0,1,4.02-4.232c2.116,0,3.552,1.232,3.642,3.114h-2.1a1.5,1.5,0,0,0-1.511-1.375c-1.073.007-1.783.907-1.783,2.463,0,1.586.695,2.493,1.783,2.493a1.481,1.481,0,0,0,1.511-1.359h2.1c-.1,1.859-1.465,3.136-3.642,3.143-2.516-.007-4.027-1.746-4.02-4.246" transform="translate(-152.052 -24.251)" fill="#501d83"/>
        <path id="패스_29440" data-name="패스 29440" d="M396.251,55.212a1.144,1.144,0,1,1-1.225,1.149,1.2,1.2,0,0,1,1.225-1.149m-1.119,3.356h2.237v8.206h-2.237Z" transform="translate(-158.01 -22.085)" fill="#501d83"/>
        <path id="패스_29441" data-name="패스 29441" d="M401.267,64.874c-.008-2.531,1.556-4.247,3.959-4.247,2.154,0,3.854,1.36,3.854,4.157v.635h-5.606a1.82,1.82,0,0,0,1.888,2.01,1.588,1.588,0,0,0,1.526-.832h2.131c-.318,1.519-1.677,2.5-3.7,2.509-2.516-.007-4.057-1.631-4.049-4.231m5.7-.862a1.63,1.63,0,0,0-1.692-1.707,1.754,1.754,0,0,0-1.8,1.707Z" transform="translate(-160.507 -24.251)" fill="#501d83"/>
        <path id="패스_29442" data-name="패스 29442" d="M418.852,68.94h-2.237V60.734h2.131V62.17h.091a2.481,2.481,0,0,1,2.463-1.543,2.753,2.753,0,0,1,2.826,3.083v5.23h-2.221V64.1a1.43,1.43,0,0,0-1.481-1.618,1.532,1.532,0,0,0-1.572,1.708Z" transform="translate(-166.646 -24.251)" fill="#501d83"/>
        <path id="패스_29443" data-name="패스 29443" d="M431.463,64.859a3.874,3.874,0,0,1,4.02-4.232c2.115,0,3.551,1.232,3.642,3.114h-2.1a1.5,1.5,0,0,0-1.511-1.375c-1.072.007-1.783.907-1.783,2.463,0,1.586.695,2.493,1.783,2.493a1.48,1.48,0,0,0,1.511-1.359h2.1c-.1,1.859-1.466,3.136-3.642,3.143-2.516-.007-4.028-1.746-4.02-4.246" transform="translate(-172.585 -24.251)" fill="#501d83"/>
        <path id="패스_29444" data-name="패스 29444" d="M445.98,64.874c-.007-2.531,1.557-4.247,3.959-4.247,2.154,0,3.854,1.36,3.854,4.157v.635h-5.606a1.82,1.82,0,0,0,1.889,2.01A1.585,1.585,0,0,0,451.6,66.6h2.131c-.317,1.519-1.677,2.5-3.7,2.509-2.516-.007-4.057-1.631-4.051-4.231m5.7-.862a1.63,1.63,0,0,0-1.693-1.707,1.755,1.755,0,0,0-1.8,1.707Z" transform="translate(-178.392 -24.251)" fill="#501d83"/>
        <path id="패스_29445" data-name="패스 29445" d="M464.418,62.214c-.725.008-1.277.347-1.269.847-.008.37.279.658,1.057.815l1.466.3c1.595.332,2.366,1.042,2.374,2.221-.008,1.616-1.459,2.7-3.643,2.7-2.213-.007-3.513-1-3.7-2.6h2.252c.106.641.628.974,1.451.982.817-.008,1.361-.333,1.361-.862,0-.423-.348-.687-1.118-.846l-1.36-.272c-1.564-.31-2.366-1.111-2.357-2.328-.008-1.571,1.344-2.554,3.46-2.554,2.071,0,3.355.983,3.476,2.539h-2.1a1.232,1.232,0,0,0-1.346-.952" transform="translate(-184.28 -24.251)" fill="#501d83"/>
        <path id="패스_29446" data-name="패스 29446" d="M117.479,24.866h12.562v2.627h-4.7V40.2h-3.157V27.493h-4.7Z" transform="translate(-46.991 -9.947)" fill="#501d83"/>
        <path id="패스_29447" data-name="패스 29447" d="M137.109,40.2l5.317-15.337h4.089l5.3,15.337H148.4l-1.154-3.538H141.7L140.541,40.2Zm9.332-6.016-1.917-5.868h-.106L142.5,34.187Z" transform="translate(-54.844 -9.947)" fill="#501d83"/>
        <path id="패스_29448" data-name="패스 29448" d="M164.508,24.866h10.3v2.627h-7.118v3.728h6.589v2.627h-6.589v3.728h7.139V40.2H164.508Z" transform="translate(-65.803 -9.947)" fill="#501d83"/>
        <path id="패스_29449" data-name="패스 29449" d="M194.512,24.866v10.7c0,2.977-2.108,4.851-5.19,4.851-2.775,0-4.946-1.462-4.936-4.491h3.178a1.791,1.791,0,0,0,1.907,1.928c1.218,0,1.885-.784,1.885-2.288v-10.7Z" transform="translate(-73.754 -9.947)" fill="#501d83"/>
        <path id="패스_29450" data-name="패스 29450" d="M204.122,40.2l5.317-15.337h4.089l5.3,15.337h-3.41l-1.154-3.538h-5.551L207.554,40.2Zm9.332-6.016-1.917-5.868h-.106l-1.917,5.868Z" transform="translate(-81.649 -9.947)" fill="#501d83"/>
        <path id="패스_29451" data-name="패스 29451" d="M231.521,24.866h10.3v2.627H234.7v3.728h6.589v2.627H234.7v3.728h7.139V40.2H231.521Z" transform="translate(-92.608 -9.947)" fill="#501d83"/>
        <path id="패스_29452" data-name="패스 29452" d="M127.52,64.952a1.935,1.935,0,0,1-3.867,0V59.009h-1.946v6.1c0,2.056,1.544,3.432,3.88,3.425s3.893-1.369,3.893-3.425v-6.1h-1.96Z" transform="translate(-48.683 -23.604)" fill="#501d83"/>
        <path id="패스_29453" data-name="패스 29453" d="M143.686,64.978H143.6l-4.1-5.969h-1.713V68.4h1.946V62.434h.078l4.126,5.969h1.687V59.009h-1.933Z" transform="translate(-55.113 -23.604)" fill="#501d83"/>
        <rect id="사각형_2473" data-name="사각형 2473" width="1.946" height="9.394" transform="translate(92.38 35.405)" fill="#501d83"/>
        <path id="패스_29454" data-name="패스 29454" d="M163.265,66.171h-.091l-2.284-7.162h-2.18l3.257,9.394h2.5l3.244-9.394h-2.154Z" transform="translate(-63.484 -23.604)" fill="#501d83"/>
        <path id="패스_29455" data-name="패스 29455" d="M177.168,64.511H181.2V62.9h-4.036V60.618h4.36V59.009h-6.306V68.4h6.319V66.794h-4.373Z" transform="translate(-70.089 -23.604)" fill="#501d83"/>
        <path id="패스_29456" data-name="패스 29456" d="M195.769,62.071c0-1.862-1.226-3.062-3.361-3.062h-3.685V68.4h1.946V65.068h1.486l1.8,3.335h2.154l-2-3.652a2.715,2.715,0,0,0,1.661-2.68m-3.724,1.414h-1.375V60.6h1.375c1.155.007,1.719.519,1.713,1.466s-.558,1.414-1.713,1.414" transform="translate(-75.489 -23.604)" fill="#501d83"/>
        <path id="패스_29457" data-name="패스 29457" d="M206.871,62.88l-.844-.208c-.811-.182-1.511-.487-1.5-1.168.007-.623.558-1.077,1.544-1.077.954,0,1.544.434,1.622,1.181h1.869c-.026-1.661-1.4-2.816-3.478-2.816-2.057,0-3.562,1.135-3.556,2.842,0,1.375.973,2.167,2.557,2.556l1.025.247c1.025.253,1.609.551,1.609,1.194,0,.7-.662,1.181-1.687,1.181s-1.79-.48-1.855-1.427h-1.895c.059,2.018,1.505,3.068,3.776,3.062,2.29.006,3.626-1.1,3.633-2.816-.007-1.564-1.207-2.381-2.816-2.751" transform="translate(-80.911 -23.518)" fill="#501d83"/>
        <rect id="사각형_2474" data-name="사각형 2474" width="1.946" height="9.394" transform="translate(130.19 35.405)" fill="#501d83"/>
        <path id="패스_29458" data-name="패스 29458" d="M236.144,59.009l-2.154,4.048H233.9l-2.167-4.048h-9.826v1.609h2.881V68.4h1.933V60.618H229.6v-1.5l3.364,5.938V68.4h1.946V65.056l3.425-6.047Z" transform="translate(-88.763 -23.604)" fill="#501d83"/>
        <rect id="사각형_2475" data-name="사각형 2475" width="14.934" height="14.934" transform="translate(0 0)" fill="#009b88"/>
        <path id="패스_29459" data-name="패스 29459" d="M39.823,0,24.89,14.934V44.8H39.823V14.934H54.757V0Z" transform="translate(-9.956 0)" fill="#321f78"/>
        <path id="패스_29460" data-name="패스 29460" d="M79.646,24.89H64.712V54.757H49.779V69.424a26.424,26.424,0,0,0,3.734.266A26.134,26.134,0,0,0,79.646,43.57Z" transform="translate(-19.912 -9.956)" fill="#321f78"/>
        <path id="패스_29461" data-name="패스 29461" d="M49.779,39.823V24.889H64.713Z" transform="translate(-19.912 -9.956)" fill="#ce0019"/>
        <rect id="사각형_2476" data-name="사각형 2476" width="14.934" height="14.934" transform="translate(0 -0.001)" fill="#009b88"/>
        <path id="패스_29462" data-name="패스 29462" d="M39.823,0,24.89,14.934V44.8H39.823V14.934H54.757V0Z" transform="translate(-9.956 0)" fill="#501d83"/>
        <path id="패스_29463" data-name="패스 29463" d="M79.646,24.89H64.712V54.757H49.779V69.424a26.424,26.424,0,0,0,3.734.266A26.134,26.134,0,0,0,79.646,43.57Z" transform="translate(-19.912 -9.956)" fill="#321f78"/>
        <rect id="사각형_2477" data-name="사각형 2477" width="14.934" height="14.934" transform="translate(0 -0.001)" fill="#00a497"/>
        <path id="패스_29464" data-name="패스 29464" d="M39.823,0,24.89,14.934V44.8H39.823V14.934H54.757V0Z" transform="translate(-9.956 0)" fill="#501d83"/>
        <path id="패스_29465" data-name="패스 29465" d="M79.646,24.89H64.712V54.757H49.779V69.424a26.424,26.424,0,0,0,3.734.266A26.134,26.134,0,0,0,79.646,43.57Z" transform="translate(-19.912 -9.956)" fill="#501d83"/>
      </g>
    </g>
    <g id="ci_innovation" data-name="ci/innovation" transform="translate(-388 -319)">
      <rect id="base-5" data-name="base" width="318" height="60" transform="translate(408 434)" fill="none"/>
      <line id="선_1032" data-name="선 1032" y2="29.755" transform="translate(568.393 449.047)" fill="none" stroke="#501d83" stroke-width="2"/>
      <g id="그룹_3195" data-name="그룹 3195" transform="translate(408 434)" clip-path="url(#clip-path-5)">
        <path id="패스_29367" data-name="패스 29367" d="M288.849,26.978c-1.148,0-1.79.528-1.8,1.254-.007.794.808,1.149,1.754,1.361l.982.241c1.874.431,3.272,1.383,3.279,3.2-.007,2-1.564,3.288-4.231,3.28-2.644.008-4.33-1.217-4.4-3.567h2.206c.076,1.1.953,1.662,2.162,1.662,1.193,0,1.964-.559,1.964-1.375,0-.748-.68-1.095-1.874-1.39L287.7,31.36c-1.844-.453-2.978-1.376-2.978-2.977-.007-1.987,1.746-3.31,4.141-3.31,2.426,0,4.021,1.346,4.051,3.28h-2.176c-.092-.869-.779-1.375-1.89-1.375" transform="translate(-113.774 -10.03)" fill="#501d83"/>
        <path id="패스_29368" data-name="패스 29368" d="M300.642,33.939a3.874,3.874,0,0,1,4.02-4.232c2.115,0,3.551,1.232,3.642,3.114h-2.1a1.5,1.5,0,0,0-1.511-1.375c-1.072.007-1.783.907-1.783,2.463,0,1.586.695,2.493,1.783,2.493a1.48,1.48,0,0,0,1.511-1.359h2.1c-.1,1.859-1.466,3.136-3.642,3.143-2.516-.007-4.028-1.746-4.02-4.246" transform="translate(-120.257 -11.883)" fill="#501d83"/>
        <path id="패스_29369" data-name="패스 29369" d="M317.95,36.267h-2.236V25.325h2.176V29.5h.091a2.421,2.421,0,0,1,2.448-1.543,2.761,2.761,0,0,1,2.841,3.083v5.23h-2.236V31.431a1.419,1.419,0,0,0-1.481-1.618,1.546,1.546,0,0,0-1.6,1.708Z" transform="translate(-126.286 -10.13)" fill="#501d83"/>
        <path id="패스_29370" data-name="패스 29370" d="M330.609,33.939a3.867,3.867,0,0,1,4.019-4.232c2.487,0,4.028,1.7,4.036,4.232-.008,2.539-1.549,4.24-4.036,4.246a3.878,3.878,0,0,1-4.019-4.246m4.036,2.509c1.141-.008,1.745-1.073,1.738-2.509s-.6-2.524-1.738-2.524c-1.172,0-1.769,1.081-1.769,2.524s.6,2.5,1.769,2.509" transform="translate(-132.244 -11.883)" fill="#501d83"/>
        <path id="패스_29371" data-name="패스 29371" d="M345.807,33.939a3.867,3.867,0,0,1,4.019-4.232c2.487,0,4.028,1.7,4.036,4.232-.008,2.539-1.549,4.24-4.036,4.246a3.878,3.878,0,0,1-4.019-4.246m4.036,2.509c1.141-.008,1.745-1.073,1.738-2.509s-.6-2.524-1.738-2.524c-1.172,0-1.769,1.081-1.769,2.524s.6,2.5,1.769,2.509" transform="translate(-138.323 -11.883)" fill="#501d83"/>
        <rect id="사각형_2463" data-name="사각형 2463" width="2.236" height="10.942" transform="translate(216.936 15.194)" fill="#501d83"/>
        <path id="패스_29372" data-name="패스 29372" d="M373.563,33.939a3.867,3.867,0,0,1,4.019-4.232c2.486,0,4.028,1.7,4.035,4.232s-1.549,4.24-4.035,4.246a3.877,3.877,0,0,1-4.019-4.246m4.034,2.509c1.141-.008,1.746-1.073,1.738-2.509.008-1.444-.6-2.524-1.738-2.524-1.171,0-1.769,1.081-1.769,2.524s.6,2.5,1.769,2.509" transform="translate(-149.425 -11.883)" fill="#501d83"/>
        <path id="패스_29373" data-name="패스 29373" d="M393.239,29.4h-1.633v6.529H389.37V29.4h-1.164V27.719h1.164V27.1a2.422,2.422,0,0,1,2.69-2.63,5.9,5.9,0,0,1,1.33.136V26.3c-.325-.029-.559-.038-.68-.044-.718.007-1.1.279-1.1.967v.5h1.633Z" transform="translate(-155.282 -9.788)" fill="#501d83"/>
        <rect id="사각형_2464" data-name="사각형 2464" width="2.267" height="10.942" transform="translate(242.873 15.194)" fill="#501d83"/>
        <path id="패스_29374" data-name="패스 29374" d="M413.794,38.02h-2.237V29.814h2.131V31.25h.091a2.481,2.481,0,0,1,2.463-1.543,2.753,2.753,0,0,1,2.826,3.083v5.23h-2.221V33.184a1.43,1.43,0,0,0-1.481-1.618,1.532,1.532,0,0,0-1.572,1.708Z" transform="translate(-164.623 -11.883)" fill="#501d83"/>
        <path id="패스_29375" data-name="패스 29375" d="M429.194,38.02h-2.237V29.814h2.131V31.25h.091a2.481,2.481,0,0,1,2.463-1.543,2.753,2.753,0,0,1,2.826,3.083v5.23h-2.221V33.184a1.43,1.43,0,0,0-1.481-1.618,1.532,1.532,0,0,0-1.572,1.708Z" transform="translate(-170.783 -11.883)" fill="#501d83"/>
        <path id="패스_29376" data-name="패스 29376" d="M441.8,33.939a3.867,3.867,0,0,1,4.019-4.232c2.486,0,4.028,1.7,4.035,4.232s-1.549,4.24-4.035,4.246a3.877,3.877,0,0,1-4.019-4.246m4.034,2.509c1.141-.008,1.746-1.073,1.738-2.509.008-1.444-.6-2.524-1.738-2.524-1.171,0-1.769,1.081-1.769,2.524s.6,2.5,1.769,2.509" transform="translate(-176.722 -11.883)" fill="#501d83"/>
        <path id="패스_29377" data-name="패스 29377" d="M461.4,38.091h-2.509l-2.87-8.206h2.357l1.723,5.893h.091l1.723-5.893h2.372Z" transform="translate(-182.409 -11.954)" fill="#501d83"/>
        <path id="패스_29378" data-name="패스 29378" d="M473.616,33.2c.59-.038,1.693-.091,2.041-.107v-.664c-.008-.688-.476-1.08-1.315-1.088a1.237,1.237,0,0,0-1.36.907h-2.131c.136-1.42,1.375-2.539,3.552-2.539,1.79,0,3.484.8,3.476,2.782V38.02h-2.116V36.886H475.7a2.521,2.521,0,0,1-2.4,1.285,2.411,2.411,0,0,1-2.735-2.448c.008-1.829,1.474-2.426,3.052-2.524m.318,3.431a1.588,1.588,0,0,0,1.723-1.542v-.6c-.34.015-1.3.068-1.678.1-.778.068-1.27.438-1.27,1.073s.506.959,1.225.967" transform="translate(-188.226 -11.883)" fill="#501d83"/>
        <path id="패스_29379" data-name="패스 29379" d="M489.517,30.252h-1.541v4c-.008.658.317.816.771.831.226,0,.62-.023.892-.044v1.768a7.035,7.035,0,0,1-1.195.075c-1.617.008-2.72-.718-2.705-2.311V30.252h-1.133V28.575h1.133V26.611h2.237v1.964h1.541Z" transform="translate(-193.842 -10.645)" fill="#501d83"/>
        <path id="패스_29380" data-name="패스 29380" d="M496.173,24.292a1.144,1.144,0,1,1-1.225,1.149,1.2,1.2,0,0,1,1.225-1.149m-1.119,3.356h2.237v8.206h-2.237Z" transform="translate(-197.979 -9.717)" fill="#501d83"/>
        <path id="패스_29381" data-name="패스 29381" d="M501.189,33.939a3.867,3.867,0,0,1,4.019-4.232c2.486,0,4.028,1.7,4.035,4.232s-1.549,4.24-4.035,4.246a3.877,3.877,0,0,1-4.019-4.246m4.034,2.509c1.141-.008,1.746-1.073,1.738-2.509.008-1.444-.6-2.524-1.738-2.524-1.171,0-1.769,1.081-1.769,2.524s.6,2.5,1.769,2.509" transform="translate(-200.476 -11.883)" fill="#501d83"/>
        <path id="패스_29382" data-name="패스 29382" d="M519.177,38.02H516.94V29.814h2.131V31.25h.091a2.481,2.481,0,0,1,2.463-1.543,2.753,2.753,0,0,1,2.826,3.083v5.23H522.23V33.184a1.43,1.43,0,0,0-1.48-1.618,1.532,1.532,0,0,0-1.572,1.708Z" transform="translate(-206.776 -11.883)" fill="#501d83"/>
        <path id="패스_29383" data-name="패스 29383" d="M285.042,56.245h7.208V58.12h-4.942v2.659h4.474v1.874h-4.474v4.534h-2.266Z" transform="translate(-114.017 -22.498)" fill="#501d83"/>
        <path id="패스_29384" data-name="패스 29384" d="M297.911,64.859a3.868,3.868,0,0,1,4.02-4.232c2.486,0,4.027,1.7,4.036,4.232-.008,2.539-1.549,4.24-4.036,4.246s-4.027-1.708-4.02-4.246m4.036,2.509c1.141-.008,1.745-1.073,1.738-2.509s-.6-2.524-1.738-2.524c-1.172,0-1.769,1.081-1.769,2.524s.6,2.5,1.769,2.509" transform="translate(-119.164 -24.251)" fill="#501d83"/>
        <path id="패스_29385" data-name="패스 29385" d="M318.923,60.8h2.236V69.01h-2.146V67.529h-.091a2.525,2.525,0,0,1-2.494,1.587c-1.639,0-2.765-1.164-2.765-3.082V60.8H315.9V65.64a1.417,1.417,0,0,0,1.436,1.587,1.586,1.586,0,0,0,1.587-1.708Z" transform="translate(-125.466 -24.322)" fill="#501d83"/>
        <path id="패스_29386" data-name="패스 29386" d="M331.274,68.94h-2.237V60.734h2.131V62.17h.091a2.481,2.481,0,0,1,2.463-1.543,2.753,2.753,0,0,1,2.826,3.083v5.23h-2.221V64.1a1.43,1.43,0,0,0-1.481-1.618,1.532,1.532,0,0,0-1.572,1.708Z" transform="translate(-131.615 -24.251)" fill="#501d83"/>
        <path id="패스_29387" data-name="패스 29387" d="M343.91,63.09c0-2.81,1.526-4.216,3.339-4.216a2.4,2.4,0,0,1,2.328,1.482h.076V56.245h2.236V67.187h-2.207V65.872h-.1a2.411,2.411,0,0,1-2.328,1.451c-1.874,0-3.339-1.489-3.339-4.233m4.034,2.449c1.118-.008,1.754-.982,1.754-2.464s-.628-2.418-1.754-2.418-1.746.99-1.738,2.418c-.008,1.451.6,2.456,1.738,2.464" transform="translate(-137.564 -22.498)" fill="#501d83"/>
        <path id="패스_29388" data-name="패스 29388" d="M362.586,64.119c.59-.038,1.693-.091,2.041-.107v-.664c-.008-.688-.476-1.08-1.315-1.088a1.237,1.237,0,0,0-1.36.907h-2.131c.136-1.42,1.375-2.539,3.552-2.539,1.79,0,3.484.8,3.476,2.782V68.94h-2.116V67.806h-.059a2.521,2.521,0,0,1-2.4,1.285,2.411,2.411,0,0,1-2.735-2.448c.008-1.829,1.474-2.426,3.052-2.524m.318,3.431a1.588,1.588,0,0,0,1.723-1.542v-.6c-.34.015-1.3.068-1.678.1-.778.068-1.27.438-1.27,1.073s.506.959,1.225.967" transform="translate(-143.814 -24.251)" fill="#501d83"/>
        <path id="패스_29389" data-name="패스 29389" d="M378.488,61.172h-1.541v4c-.008.658.316.816.77.831.226,0,.62-.023.892-.044v1.768a7.045,7.045,0,0,1-1.195.075c-1.618.008-2.72-.718-2.705-2.311V61.172h-1.133V59.5h1.133V57.531h2.237V59.5h1.541Z" transform="translate(-149.43 -23.013)" fill="#501d83"/>
        <path id="패스_29390" data-name="패스 29390" d="M385.143,55.212a1.144,1.144,0,1,1-1.225,1.149,1.2,1.2,0,0,1,1.225-1.149m-1.119,3.356h2.237v8.206h-2.237Z" transform="translate(-153.567 -22.085)" fill="#501d83"/>
        <path id="패스_29391" data-name="패스 29391" d="M390.159,64.859a3.867,3.867,0,0,1,4.019-4.232c2.486,0,4.028,1.7,4.035,4.232s-1.549,4.24-4.035,4.246a3.877,3.877,0,0,1-4.019-4.246m4.034,2.509c1.141-.008,1.746-1.073,1.738-2.509.008-1.444-.6-2.524-1.738-2.524-1.171,0-1.769,1.081-1.769,2.524s.6,2.5,1.769,2.509" transform="translate(-156.064 -24.251)" fill="#501d83"/>
        <path id="패스_29392" data-name="패스 29392" d="M408.146,68.94h-2.237V60.734h2.131V62.17h.091a2.481,2.481,0,0,1,2.463-1.543,2.753,2.753,0,0,1,2.826,3.083v5.23H411.2V64.1a1.43,1.43,0,0,0-1.481-1.618,1.532,1.532,0,0,0-1.572,1.708Z" transform="translate(-162.364 -24.251)" fill="#501d83"/>
        <path id="패스_29393" data-name="패스 29393" d="M424.4,62.214c-.726.008-1.277.347-1.27.847-.007.37.28.658,1.058.815l1.466.3c1.595.332,2.366,1.042,2.372,2.221-.007,1.616-1.457,2.7-3.641,2.7-2.215-.007-3.514-1-3.7-2.6h2.252c.106.641.626.974,1.451.982.815-.008,1.36-.333,1.36-.862,0-.423-.347-.687-1.118-.846l-1.36-.272c-1.564-.31-2.365-1.111-2.357-2.328-.007-1.571,1.345-2.554,3.461-2.554,2.07,0,3.355.983,3.476,2.539h-2.1a1.231,1.231,0,0,0-1.345-.952" transform="translate(-168.272 -24.251)" fill="#501d83"/>
        <path id="패스_29394" data-name="패스 29394" d="M117.479,24.866h12.562v2.627h-4.7V40.2h-3.157V27.493h-4.7Z" transform="translate(-46.991 -9.947)" fill="#501d83"/>
        <path id="패스_29395" data-name="패스 29395" d="M137.109,40.2l5.317-15.337h4.089l5.3,15.337H148.4l-1.154-3.538H141.7L140.541,40.2Zm9.332-6.016-1.917-5.868h-.106L142.5,34.187Z" transform="translate(-54.844 -9.947)" fill="#501d83"/>
        <path id="패스_29396" data-name="패스 29396" d="M164.508,24.866h10.3v2.627h-7.118v3.728h6.589v2.627h-6.589v3.728h7.139V40.2H164.508Z" transform="translate(-65.803 -9.947)" fill="#501d83"/>
        <path id="패스_29397" data-name="패스 29397" d="M194.512,24.866v10.7c0,2.977-2.108,4.851-5.19,4.851-2.775,0-4.946-1.462-4.936-4.491h3.178a1.791,1.791,0,0,0,1.907,1.928c1.218,0,1.885-.784,1.885-2.288v-10.7Z" transform="translate(-73.754 -9.947)" fill="#501d83"/>
        <path id="패스_29398" data-name="패스 29398" d="M204.122,40.2l5.317-15.337h4.089l5.3,15.337h-3.41l-1.154-3.538h-5.551L207.554,40.2Zm9.332-6.016-1.917-5.868h-.106l-1.917,5.868Z" transform="translate(-81.649 -9.947)" fill="#501d83"/>
        <path id="패스_29399" data-name="패스 29399" d="M231.521,24.866h10.3v2.627H234.7v3.728h6.589v2.627H234.7v3.728h7.139V40.2H231.521Z" transform="translate(-92.608 -9.947)" fill="#501d83"/>
        <path id="패스_29400" data-name="패스 29400" d="M127.52,64.952a1.935,1.935,0,0,1-3.867,0V59.009h-1.946v6.1c0,2.056,1.544,3.432,3.88,3.425s3.893-1.369,3.893-3.425v-6.1h-1.96Z" transform="translate(-48.683 -23.604)" fill="#501d83"/>
        <path id="패스_29401" data-name="패스 29401" d="M143.686,64.978H143.6l-4.1-5.969h-1.713V68.4h1.946V62.434h.078l4.126,5.969h1.687V59.009h-1.933Z" transform="translate(-55.113 -23.604)" fill="#501d83"/>
        <rect id="사각형_2465" data-name="사각형 2465" width="1.946" height="9.394" transform="translate(92.38 35.405)" fill="#501d83"/>
        <path id="패스_29402" data-name="패스 29402" d="M163.265,66.171h-.091l-2.284-7.162h-2.18l3.257,9.394h2.5l3.244-9.394h-2.154Z" transform="translate(-63.484 -23.604)" fill="#501d83"/>
        <path id="패스_29403" data-name="패스 29403" d="M177.168,64.511H181.2V62.9h-4.036V60.618h4.36V59.009h-6.306V68.4h6.319V66.794h-4.373Z" transform="translate(-70.089 -23.604)" fill="#501d83"/>
        <path id="패스_29404" data-name="패스 29404" d="M195.769,62.071c0-1.862-1.226-3.062-3.361-3.062h-3.685V68.4h1.946V65.068h1.486l1.8,3.335h2.154l-2-3.652a2.715,2.715,0,0,0,1.661-2.68m-3.724,1.414h-1.375V60.6h1.375c1.155.007,1.719.519,1.713,1.466s-.558,1.414-1.713,1.414" transform="translate(-75.489 -23.604)" fill="#501d83"/>
        <path id="패스_29405" data-name="패스 29405" d="M206.871,62.88l-.844-.208c-.811-.182-1.511-.487-1.5-1.168.007-.623.558-1.077,1.544-1.077.954,0,1.544.434,1.622,1.181h1.869c-.026-1.661-1.4-2.816-3.478-2.816-2.057,0-3.562,1.135-3.556,2.842,0,1.375.973,2.167,2.557,2.556l1.025.247c1.025.253,1.609.551,1.609,1.194,0,.7-.662,1.181-1.687,1.181s-1.79-.48-1.855-1.427h-1.895c.059,2.018,1.505,3.068,3.776,3.062,2.29.006,3.626-1.1,3.633-2.816-.007-1.564-1.207-2.381-2.816-2.751" transform="translate(-80.911 -23.518)" fill="#501d83"/>
        <rect id="사각형_2466" data-name="사각형 2466" width="1.946" height="9.394" transform="translate(130.19 35.405)" fill="#501d83"/>
        <path id="패스_29406" data-name="패스 29406" d="M236.144,59.009l-2.154,4.048H233.9l-2.167-4.048h-9.826v1.609h2.881V68.4h1.933V60.618H229.6v-1.5l3.364,5.938V68.4h1.946V65.056l3.425-6.047Z" transform="translate(-88.763 -23.604)" fill="#501d83"/>
        <rect id="사각형_2467" data-name="사각형 2467" width="14.934" height="14.934" transform="translate(0 0)" fill="#009b88"/>
        <path id="패스_29407" data-name="패스 29407" d="M39.823,0,24.89,14.934V44.8H39.823V14.934H54.757V0Z" transform="translate(-9.956 0)" fill="#321f78"/>
        <path id="패스_29408" data-name="패스 29408" d="M79.646,24.89H64.712V54.757H49.779V69.424a26.424,26.424,0,0,0,3.734.266A26.134,26.134,0,0,0,79.646,43.57Z" transform="translate(-19.912 -9.956)" fill="#321f78"/>
        <path id="패스_29409" data-name="패스 29409" d="M49.779,39.823V24.889H64.713Z" transform="translate(-19.912 -9.956)" fill="#a192bb"/>
        <rect id="사각형_2468" data-name="사각형 2468" width="14.934" height="14.934" transform="translate(0 -0.001)" fill="#009b88"/>
        <path id="패스_29410" data-name="패스 29410" d="M39.823,0,24.89,14.934V44.8H39.823V14.934H54.757V0Z" transform="translate(-9.956 0)" fill="#321f78"/>
        <path id="패스_29411" data-name="패스 29411" d="M79.646,24.89H64.712V54.757H49.779V69.424a26.424,26.424,0,0,0,3.734.266A26.134,26.134,0,0,0,79.646,43.57Z" transform="translate(-19.912 -9.956)" fill="#321f78"/>
        <path id="패스_29414" data-name="패스 29414" d="M0,0H14.934V14.934H0Z" transform="translate(0 -0.001)" fill="#00a497"/>
        <path id="패스_29412" data-name="패스 29412" d="M39.823,0,24.89,14.934V44.8H39.823V14.934H54.757V0Z" transform="translate(-9.956 0)" fill="#501d83"/>
        <path id="패스_29413" data-name="패스 29413" d="M79.646,24.89H64.712V54.757H49.779V69.424a26.424,26.424,0,0,0,3.734.266A26.134,26.134,0,0,0,79.646,43.57Z" transform="translate(-19.912 -9.956)" fill="#501d83"/>
      </g>
    </g>
  </g>
</svg>
