<svg xmlns="http://www.w3.org/2000/svg" xmlns:xlink="http://www.w3.org/1999/xlink" width="363.966" height="75" viewBox="0 0 363.966 75">
  <defs>
    <linearGradient id="linear-gradient" x1="1" y1="0.5" x2="-0.001" y2="0.5" gradientUnits="objectBoundingBox">
      <stop offset="0.2" stop-color="#ed1b23"/>
      <stop offset="0.4" stop-color="#d71820"/>
      <stop offset="0.7" stop-color="#b10f15"/>
    </linearGradient>
    <linearGradient id="linear-gradient-2" x1="0.5" x2="0.5" y2="0.992" gradientUnits="objectBoundingBox">
      <stop offset="0.2" stop-color="#ed1b28"/>
      <stop offset="0.4" stop-color="#d71820"/>
      <stop offset="0.7" stop-color="#b10f15"/>
      <stop offset="1" stop-color="#dbc9c4"/>
    </linearGradient>
  </defs>
  <g id="Layer_1" data-name="Layer 1" transform="translate(0.004 0.01)">
    <g id="그룹_11355" data-name="그룹 11355" transform="translate(-0.004 -0.01)">
      <g id="그룹_11351" data-name="그룹 11351" transform="translate(99.55 37.12)">
        <path id="패스_29327" data-name="패스 29327" d="M101.447,32.383a6.012,6.012,0,0,1-.1,1.22c-.024.133-.193.157-.29.157H94.2V51.988a.337.337,0,0,1-.23.326c-.133.036-1.739.06-2.053.06s-1.909-.036-2.066-.06a.381.381,0,0,1-.193-.326V33.76H82.8c-.133,0-.29-.024-.326-.157a11.742,11.742,0,0,1-.06-1.22c0-.3.036-1.135.06-1.256s.193-.157.326-.157H101.06a.34.34,0,0,1,.29.157A7.074,7.074,0,0,1,101.447,32.383Z" transform="translate(-82.41 -30.668)" fill="#5e5f62"/>
        <path id="패스_29328" data-name="패스 29328" d="M118.86,31.24V52.017a.337.337,0,0,1-.23.326c-.133.036-1.739.06-2.053.06s-1.9-.036-2.066-.06a.381.381,0,0,1-.193-.326V42.486h-9.241v9.531a.357.357,0,0,1-.193.326c-.133.036-1.739.06-2.066.06s-1.933-.036-2.066-.06a.357.357,0,0,1-.193-.326V31.24a.307.307,0,0,1,.193-.29c.133-.06,1.739-.06,2.066-.06s1.933,0,2.066.06a.307.307,0,0,1,.193.29v8.5h9.241v-8.5a.327.327,0,0,1,.193-.29c.157-.06,1.739-.06,2.066-.06.35,0,1.933,0,2.053.06A.3.3,0,0,1,118.86,31.24Z" transform="translate(-78.636 -30.685)" fill="#5e5f62"/>
        <path id="패스_29329" data-name="패스 29329" d="M133.665,49.618a11.787,11.787,0,0,1,.06,1.256c0,.254-.036,1.1-.06,1.232a.445.445,0,0,1-.326.157H119.424c-.157,0-.254-.121-.254-.314V31.294a.291.291,0,0,1,.29-.314h13.879a.323.323,0,0,1,.326.193,11.3,11.3,0,0,1,.06,1.232c0,.254-.036,1.123-.06,1.22a.327.327,0,0,1-.326.157h-9.627V39.75H132.3a.326.326,0,0,1,.326.169c.024.1.06.93.06,1.184s-.036,1.1-.06,1.232a.39.39,0,0,1-.326.157h-8.588v6.994h9.627a.407.407,0,0,1,.326.157Z" transform="translate(-74.767 -30.666)" fill="#5e5f62"/>
        <path id="패스_29330" data-name="패스 29330" d="M150.457,50.059a13.736,13.736,0,0,0,5.931-1.836.28.28,0,0,1,.35.266,13.633,13.633,0,0,1-.1,2.8.648.648,0,0,1-.423.387,19.41,19.41,0,0,1-5.762,1.039c-7.248,0-11.656-4.288-11.656-10.98,0-5.436,4.155-11.04,12.236-11.016a18.76,18.76,0,0,1,5.871,1,.393.393,0,0,1,.29.423,8.82,8.82,0,0,1-.773,2.67c-.1.193-.29.157-.423.133a11.624,11.624,0,0,0-5.544-1.582c-3.962,0-6.728,2.863-6.728,8.371s2.706,8.347,6.728,8.347Z" transform="translate(-70.685 -30.72)" fill="#5e5f62"/>
        <path id="패스_29331" data-name="패스 29331" d="M174.718,31.24V52.017a.337.337,0,0,1-.23.326c-.121.036-1.739.06-2.053.06s-1.909-.036-2.066-.06a.357.357,0,0,1-.193-.326V42.486h-9.241v9.531a.357.357,0,0,1-.193.326c-.133.036-1.751.06-2.066.06s-1.933-.036-2.053-.06a.357.357,0,0,1-.193-.326V31.24a.307.307,0,0,1,.193-.29c.121-.06,1.739-.06,2.053-.06s1.933,0,2.066.06a.307.307,0,0,1,.193.29v8.5h9.241v-8.5a.307.307,0,0,1,.193-.29c.157-.06,1.739-.06,2.066-.06.35,0,1.933,0,2.053.06A.312.312,0,0,1,174.718,31.24Z" transform="translate(-67.019 -30.685)" fill="#5e5f62"/>
        <path id="패스_29332" data-name="패스 29332" d="M196.339,41.676a10.921,10.921,0,0,1-10.92,10.98,10.612,10.612,0,0,1-10.92-10.98A10.818,10.818,0,0,1,185.42,30.72C192.257,30.72,196.339,35.624,196.339,41.676Zm-4.832,1c0-3.708-1.486-9.47-6.378-9.47-4.059,0-5.8,3.551-5.8,7.477,0,3.684,1.45,9.47,6.354,9.47C189.708,50.156,191.508,46.64,191.508,42.678Z" transform="translate(-63.262 -30.72)" fill="#5e5f62"/>
        <path id="패스_29333" data-name="패스 29333" d="M201.962,52.69a20.347,20.347,0,0,1-6.378-1.087.588.588,0,0,1-.423-.4,10.08,10.08,0,0,1-.121-2.923c.024-.193.193-.326.35-.254a16.115,16.115,0,0,0,6.438,1.872c2.029,0,3.479-1.111,3.479-2.609,0-5.146-10.086-2.827-10.086-10.594,0-3.732,3.092-5.991,7.827-5.967a22.177,22.177,0,0,1,5.738.713.393.393,0,0,1,.29.423,7.644,7.644,0,0,1-1.16,2.742.341.341,0,0,1-.423.06,10.5,10.5,0,0,0-4.578-1.45c-2.283,0-3.346,1.063-3.346,2.573,0,4,10.11,2.778,10.11,10.606,0,4.892-4.6,6.305-7.731,6.305Z" transform="translate(-59.004 -30.718)" fill="#5e5f62"/>
        <path id="패스_29334" data-name="패스 29334" d="M224.373,31.24a.307.307,0,0,1,.193-.29,14.729,14.729,0,0,1,1.582-.06,12.936,12.936,0,0,1,1.486.06.307.307,0,0,1,.193.29V43.356c0,3.116-.616,9.3-9.084,9.3s-8.915-5.122-8.915-9.3V31.24a.3.3,0,0,1,.23-.29c.423-.06,1.7-.06,2.029-.06s1.57,0,2.09.06a.307.307,0,0,1,.193.29V42.993c0,3.8.229,6.342,4.832,6.342,5.375,0,5.182-4.179,5.182-6.342V31.24Z" transform="translate(-55.916 -30.685)" fill="#5e5f62"/>
        <path id="패스_29335" data-name="패스 29335" d="M246.283,31.242l-.121,20.643a.328.328,0,0,1-.193.314,5,5,0,0,1-1.329.193,3.238,3.238,0,0,1-1.764-.387L230.954,37.125l.35,14.882a.357.357,0,0,1-.193.326c-.133.036-1.063.06-1.353.06-.326,0-1.486-.036-1.619-.06a.319.319,0,0,1-.193-.326L227.91,31.23a.307.307,0,0,1,.193-.29,14.611,14.611,0,0,1,1.643-.06,15.939,15.939,0,0,1,1.679.06.769.769,0,0,1,.387.29l11.342,14.109-.229-14.109a.276.276,0,0,1,.193-.29,12.127,12.127,0,0,1,1.474-.06,12.525,12.525,0,0,1,1.486.06.327.327,0,0,1,.193.29Z" transform="translate(-52.157 -30.687)" fill="#5e5f62"/>
        <path id="패스_29336" data-name="패스 29336" d="M251.122,31.24V52.017a.309.309,0,0,1-.229.326c-.133.036-1.7.06-2.066.06-.314,0-1.9-.036-2.053-.06a.323.323,0,0,1-.193-.326V31.24a.307.307,0,0,1,.193-.29c.254-.06,1.739-.06,2.053-.06.362,0,1.836,0,2.066.06A.311.311,0,0,1,251.122,31.24Z" transform="translate(-48.274 -30.685)" fill="#5e5f62"/>
        <path id="패스_29337" data-name="패스 29337" d="M267.846,50.891a11.986,11.986,0,0,1-.06,1.232c-.024.085-.193.157-.326.157H254.1a.291.291,0,0,1-.29-.314V31.25a.3.3,0,0,1,.23-.29c.35-.06,1.739-.06,2.066-.06s1.7,0,2.066.06a.327.327,0,0,1,.193.29V49.478h9.108c.133,0,.29.06.326.157a11.793,11.793,0,0,1,.06,1.256Z" transform="translate(-46.771 -30.682)" fill="#5e5f62"/>
        <path id="패스_29338" data-name="패스 29338" d="M284.189,45.746c0,6.789-7.864,6.535-9.349,6.535h-6.764c-.193,0-.266-.121-.266-.314V31.311c0-.157.06-.314.266-.314,1.643-.06,5.061-.157,6.994-.157,3.6,0,7.658.773,7.658,4.892a5.346,5.346,0,0,1-3.382,4.9c1.9.314,4.832,1.643,4.832,5.122Zm-11.826-5.919h.676c2.742,0,4.868-.423,4.868-3.672s-3.092-3-5.544-2.839Zm.882,9.881c1.2,0,6.052.35,6.052-3.962,0-3.841-4.6-3.515-5.738-3.515h-1.2v7.477h.87Z" transform="translate(-43.86 -30.695)" fill="#5e5f62"/>
        <path id="패스_29339" data-name="패스 29339" d="M305.069,41.676a10.921,10.921,0,0,1-10.92,10.98,10.612,10.612,0,0,1-10.92-10.98A10.818,10.818,0,0,1,294.15,30.72C300.974,30.72,305.069,35.624,305.069,41.676Zm-4.82,1c0-3.708-1.486-9.47-6.378-9.47-4.059,0-5.8,3.551-5.8,7.477,0,3.684,1.45,9.47,6.342,9.47C298.45,50.156,300.25,46.64,300.25,42.678Z" transform="translate(-40.654 -30.72)" fill="#5e5f62"/>
      </g>
      <g id="그룹_11354" data-name="그룹 11354">
        <g id="그룹_11352" data-name="그룹 11352">
          <path id="패스_29340" data-name="패스 29340" d="M65.917,37.918a32.6,32.6,0,0,1-4.965,5.641A47.711,47.711,0,0,1,30.03,56.4C11.585,56.786-.06,44.671,4.011,29.306A32.184,32.184,0,0,1,11.053,16.55a44.288,44.288,0,0,0-9.82,17.358c-5.8,20.788,9.337,37.639,33.8,37.639s48.9-16.778,54.755-37.518H68.333a33.143,33.143,0,0,1-2.428,3.9Z" transform="translate(0.004 3.453)" fill="url(#linear-gradient)"/>
          <path id="패스_29341" data-name="패스 29341" d="M37.365,56.352c-13.5,0-21.356-9.772-17.515-21.839,3.273-10.279,13.976-18.9,25.439-21.223L49.794-.01A62.994,62.994,0,0,0,13.375,17c-1,.966-1.957,1.957-2.863,2.984A32.184,32.184,0,0,0,3.47,32.737C-.612,48.114,11.032,60.229,29.477,59.843A47.685,47.685,0,0,0,60.4,47C54.179,52.656,45.675,56.352,37.365,56.352Z" transform="translate(0.557 0.01)" fill="url(#linear-gradient-2)"/>
        </g>
        <g id="그룹_11353" data-name="그룹 11353" transform="translate(99.937 14.108)">
          <path id="패스_29342" data-name="패스 29342" d="M90.678,24.873a9.338,9.338,0,0,0,4.047-1.256c.133-.048.217.06.242.181a9.177,9.177,0,0,1-.06,1.909.456.456,0,0,1-.29.266,13.092,13.092,0,0,1-3.926.7c-4.952,0-7.96-2.923-7.96-7.489,0-3.72,2.839-7.537,8.347-7.513a12.827,12.827,0,0,1,4,.676.269.269,0,0,1,.205.29,5.574,5.574,0,0,1-.531,1.824c-.072.133-.193.109-.29.085a8,8,0,0,0-3.781-1.075c-2.706,0-4.59,1.957-4.59,5.714S87.924,24.873,90.678,24.873Z" transform="translate(-82.73 -11.67)" fill="#5e5f62"/>
          <path id="패스_29343" data-name="패스 29343" d="M104.139,20.168v6.088c0,.06-.048.181-.133.193-.169.024-1.148.036-1.341.036s-1.16-.024-1.341-.036c-.085-.024-.109-.133-.109-.193V20.868c0-.99-.133-1.884-1.425-1.884a3.737,3.737,0,0,0-2.283,1.051v6.221c0,.06-.048.181-.133.193-.169.024-1.148.036-1.341.036s-1.172-.024-1.341-.036a.22.22,0,0,1-.133-.193V11.93a.186.186,0,0,1,.133-.193c.145-.036,1.135-.036,1.341-.036s1.16,0,1.341.036a.22.22,0,0,1,.133.193v6.438a5.675,5.675,0,0,1,3.406-1.425,3.064,3.064,0,0,1,3.237,3.225Z" transform="translate(-80.27 -11.664)" fill="#5e5f62"/>
          <path id="패스_29344" data-name="패스 29344" d="M114.145,20.856c0,2.6-1.5,4.856-5.1,4.856s-5.1-2.259-5.1-4.856a5.1,5.1,0,0,1,10.195,0Zm-3,.773c0-1.365-.3-4.288-2.259-4.288-1.45,0-1.957,1.389-1.957,2.742s.3,4.288,2.259,4.288C110.642,24.371,111.149,22.982,111.149,21.629Z" transform="translate(-78.318 -10.77)" fill="#5e5f62"/>
          <path id="패스_29345" data-name="패스 29345" d="M117.576,17.711c-.531,0-1.4.133-1.4.833,0,1.534,5.146.616,5.146,4.216,0,2.525-2.851,3.008-4.336,3.008a11.922,11.922,0,0,1-3.539-.592.2.2,0,0,1-.145-.181,5.168,5.168,0,0,1,.169-.773,3.087,3.087,0,0,1,.29-.7.222.222,0,0,1,.217-.024,10.289,10.289,0,0,0,2.959.568c.58,0,1.534-.109,1.534-.882,0-1.848-4.989-.64-4.989-4.276,0-2.017,2.15-2.887,4.022-2.887a9.264,9.264,0,0,1,3.177.556.207.207,0,0,1,.157.181c0,.1-.133.507-.193.749a4.292,4.292,0,0,1-.266.749.2.2,0,0,1-.217.048,7.359,7.359,0,0,0-2.6-.592Z" transform="translate(-76.374 -10.765)" fill="#5e5f62"/>
          <path id="패스_29346" data-name="패스 29346" d="M130.945,25.332c0,.06-.024.181-.109.193-.06.024-1.1.036-1.292.036s-1.232-.024-1.292-.036c-.085-.024-.109-.133-.109-.193v-.966a5.051,5.051,0,0,1-3.3,1.341c-2.017,0-3.455-.99-3.455-3.189V16.394a.234.234,0,0,1,.133-.193c.085-.024,1.148-.048,1.341-.048s1.256.024,1.341.048a.234.234,0,0,1,.133.193v5.424c0,.99.193,1.8,1.486,1.8a3.313,3.313,0,0,0,2.2-1.039v-6.2a.234.234,0,0,1,.133-.193c.085-.024,1.135-.048,1.341-.048s1.256.024,1.341.048a.207.207,0,0,1,.109.193V25.32Z" transform="translate(-74.691 -10.74)" fill="#5e5f62"/>
          <path id="패스_29347" data-name="패스 29347" d="M140.855,19.219v6.124a.207.207,0,0,1-.109.193c-.085.024-1.148.036-1.341.036s-1.256-.024-1.341-.036a.251.251,0,0,1-.133-.193V19.92c0-.991-.109-1.872-1.425-1.872a3.618,3.618,0,0,0-2.283,1.039v6.257a.234.234,0,0,1-.133.193c-.06.024-1.123.036-1.341.036-.193,0-1.256-.024-1.341-.036a.219.219,0,0,1-.109-.193V16.537c0-.06.024-.193.133-.217a11.06,11.06,0,0,1,2.573-.048.189.189,0,0,1,.133.169V17.5a5.806,5.806,0,0,1,3.515-1.474,3.022,3.022,0,0,1,3.213,3.189Z" transform="translate(-72.631 -10.763)" fill="#5e5f62"/>
          <path id="패스_29348" data-name="패스 29348" d="M156.129,26.119a.239.239,0,0,1-.121.217,5.871,5.871,0,0,1-.725.036c-.217,0-.544-.024-.628-.036a.2.2,0,0,1-.133-.217l-.181-11.693L149.183,26.07c-.048.06-.085.145-.121.169a1.045,1.045,0,0,1-.628,0c-.048-.024-.085-.109-.109-.169l-4.965-11.185-.169,11.222c0,.085-.036.193-.121.217a3.814,3.814,0,0,1-.6.036c-.205,0-.592-.024-.676-.036s-.121-.133-.121-.217l.483-13.565a.23.23,0,0,1,.121-.193,8.322,8.322,0,0,1,.87-.048,5.45,5.45,0,0,1,.737.048c.109.024.133.121.169.193L148.978,23.8l4.9-11.258c.036-.06.085-.169.169-.193a5.865,5.865,0,0,1,.761-.048,9.162,9.162,0,0,1,.918.048.2.2,0,0,1,.121.193l.3,13.565Z" transform="translate(-70.475 -11.539)" fill="#5e5f62"/>
          <path id="패스_29349" data-name="패스 29349" d="M162.78,24.192a.341.341,0,0,1-.048.205,4.437,4.437,0,0,1-3.225,1.377c-2.73,0-4.047-2.2-4.047-4.9s1.691-4.88,4.047-4.88c2.017,0,3.358,1.534,3.358,4.421,0,.157-.024.531-.35.531h-5.6c.072,2.005,1.039,3.575,3.032,3.575a3.563,3.563,0,0,0,2.319-.833c.109-.085.181-.085.242-.048a1.437,1.437,0,0,1,.266.544Zm-5.822-4.131h4.457c-.06-1.981-.749-3.032-2.005-3.032-1.4,0-2.283,1.317-2.464,3.032Z" transform="translate(-67.607 -10.772)" fill="#5e5f62"/>
          <path id="패스_29350" data-name="패스 29350" d="M171.409,11.956V26.233a.274.274,0,0,1-.109.217,3.413,3.413,0,0,1-.568.036c-.181,0-.483-.024-.568-.036a.294.294,0,0,1-.109-.217V25.4a5.409,5.409,0,0,1-3.334,1.232c-1.739,0-3.672-1.4-3.672-4.687,0-2.355,1.739-4.965,4.566-4.965a8.067,8.067,0,0,1,2.355.459v-5.5c0-.06.024-.181.109-.217a4.1,4.1,0,0,1,.616-.036c.193,0,.507.024.592.036a.288.288,0,0,1,.133.217Zm-1.45,6.958a4.013,4.013,0,0,0-2.331-.809c-2.307,0-3,2.114-3,3.841,0,2.138,1.292,3.406,2.525,3.406a4.5,4.5,0,0,0,2.79-.906V18.913Z" transform="translate(-66.029 -11.666)" fill="#5e5f62"/>
          <path id="패스_29351" data-name="패스 29351" d="M172.12,13.482a.949.949,0,0,1,.966-.942.942.942,0,1,1,0,1.884A.956.956,0,0,1,172.12,13.482Zm1.691,12.575a.241.241,0,0,1-.133.217,3.747,3.747,0,0,1-.592.036c-.193,0-.531-.024-.616-.036a.232.232,0,0,1-.109-.217V17.13c0-.06,0-.193.109-.217a3.61,3.61,0,0,1,1.208-.048.2.2,0,0,1,.133.193v8.987Z" transform="translate(-64.143 -11.489)" fill="#5e5f62"/>
          <path id="패스_29352" data-name="패스 29352" d="M182.207,19.054v6.269a.241.241,0,0,1-.133.217,3.156,3.156,0,0,1-.556.036,5.573,5.573,0,0,1-.568-.036.232.232,0,0,1-.109-.217v-.7a4.859,4.859,0,0,1-2.839,1.1,2.45,2.45,0,0,1-2.682-2.331c0-.411-.133-1.776.64-2.138a23.928,23.928,0,0,1,4.8-1.123V18.921c0-.99-.326-1.619-1.582-1.619a4.732,4.732,0,0,0-2.839,1.075c-.133.109-.29.085-.447-.157a1.242,1.242,0,0,1-.217-.507.42.42,0,0,1,.133-.435,5.564,5.564,0,0,1,3.539-1.208c2.9,0,2.863,2.041,2.863,2.984Zm-3.781,5.484a4.216,4.216,0,0,0,2.331-.749V21.071a14.01,14.01,0,0,0-3.575.773c-.459.217-.4,1.075-.4,1.341a1.47,1.47,0,0,0,1.655,1.365Z" transform="translate(-63.479 -10.755)" fill="#5e5f62"/>
        </g>
      </g>
    </g>
  </g>
</svg>
