<svg xmlns="http://www.w3.org/2000/svg" xmlns:xlink="http://www.w3.org/1999/xlink" width="350.001" height="139.999" viewBox="0 0 350.001 139.999">
  <defs>
    <clipPath id="clip-path">
      <path id="mask" d="M175,139.5H0V-.5H350v140Z" fill="none"/>
    </clipPath>
  </defs>
  <g id="img_logo_large" data-name="img/logo/large" transform="translate(0 0.499)" clip-path="url(#clip-path)">
    <g id="ci_logo_large" transform="translate(0 0.001)">
      <g id="그룹_3310" data-name="그룹 3310">
        <g id="그룹_3309" data-name="그룹 3309">
          <g id="그룹_3308" data-name="그룹 3308">
            <rect id="사각형_2503" data-name="사각형 2503" width="34.957" height="34.958" fill="#00a497"/>
            <g id="그룹_3307" data-name="그룹 3307" transform="translate(34.958 0)">
              <path id="패스_29297" data-name="패스 29297" d="M194.568,180.578l-34.957,34.957v69.914h34.957V215.535h34.957V180.578Z" transform="translate(-159.611 -180.578)" fill="#501d83"/>
              <path id="패스_29298" data-name="패스 29298" d="M292.687,243.739H257.729v69.914H222.772v34.333a61.2,61.2,0,0,0,69.914-60.521Z" transform="translate(-187.815 -208.782)" fill="#501d83"/>
            </g>
          </g>
        </g>
      </g>
      <g id="그룹_3313" data-name="그룹 3313" transform="translate(164.87 34.924)">
        <g id="그룹_3311" data-name="그룹 3311">
          <path id="패스_29299" data-name="패스 29299" d="M394.572,243.679h29.406v6.149H412.969v29.753h-7.389V249.828H394.572Z" transform="translate(-394.572 -243.679)" fill="#501d83"/>
          <path id="패스_29300" data-name="패스 29300" d="M444.389,279.581l12.447-35.9h9.57l12.4,35.9H470.82l-2.7-8.281H455.125l-2.7,8.281ZM466.233,265.5l-4.488-13.736H461.5L457.01,265.5Z" transform="translate(-416.817 -243.679)" fill="#501d83"/>
          <path id="패스_29301" data-name="패스 29301" d="M513.917,243.679h24.1v6.149H521.355v8.728h15.422V264.7H521.355v8.728h16.711v6.149h-24.15Z" transform="translate(-447.864 -243.679)" fill="#501d83"/>
          <path id="패스_29302" data-name="패스 29302" d="M588.065,243.679v25.042c0,6.967-4.934,11.356-12.15,11.356-6.5,0-11.579-3.421-11.554-10.512H571.8c.049,2.851,1.785,4.512,4.463,4.512,2.851,0,4.414-1.835,4.414-5.356V243.679Z" transform="translate(-470.39 -243.679)" fill="#501d83"/>
          <path id="패스_29303" data-name="패스 29303" d="M614.446,279.581l12.447-35.9h9.571l12.4,35.9h-7.984l-2.7-8.281H625.182l-2.7,8.281ZM636.29,265.5,631.8,251.762h-.248L627.067,265.5Z" transform="translate(-492.755 -243.679)" fill="#501d83"/>
          <path id="패스_29304" data-name="패스 29304" d="M683.974,243.679h24.1v6.149H691.412v8.728h15.422V264.7H691.412v8.728h16.712v6.149h-24.15Z" transform="translate(-523.802 -243.679)" fill="#501d83"/>
        </g>
        <g id="그룹_3312" data-name="그룹 3312" transform="translate(5.938 47.65)">
          <path id="패스_29305" data-name="패스 29305" d="M418.908,344.233a4.529,4.529,0,0,1-9.052,0V330.322H405.3V344.6c0,4.814,3.615,8.033,9.082,8.019,5.452.015,9.112-3.2,9.112-8.019V330.322h-4.586Z" transform="translate(-405.3 -330.019)" fill="#501d83"/>
          <path id="패스_29306" data-name="패스 29306" d="M459.915,344.294H459.7l-9.6-13.972H446.1v21.991h4.556V338.341h.182l9.659,13.972h3.949V330.322h-4.526Z" transform="translate(-423.517 -330.019)" fill="#501d83"/>
          <rect id="사각형_2504" data-name="사각형 2504" width="4.556" height="21.991" transform="translate(45.309 0.304)" fill="#501d83"/>
          <path id="패스_29307" data-name="패스 29307" d="M509.867,347.089h-.213l-5.346-16.766h-5.1l7.624,21.99h5.862l7.593-21.99h-5.042Z" transform="translate(-447.233 -330.019)" fill="#501d83"/>
          <path id="패스_29308" data-name="패스 29308" d="M545.663,343.2h9.446v-3.766h-9.446v-5.346h10.206v-3.766H541.107v21.991H555.9v-3.766H545.663Z" transform="translate(-465.943 -330.019)" fill="#501d83"/>
          <path id="패스_29309" data-name="패스 29309" d="M591.86,337.491c0-4.359-2.87-7.168-7.867-7.168h-8.626v21.99h4.556v-7.806H583.4l4.207,7.806h5.042l-4.678-8.55A6.355,6.355,0,0,0,591.86,337.491Zm-8.717,3.311h-3.22v-6.743h3.22c2.7.015,4.024,1.215,4.009,3.432C587.167,339.693,585.846,340.8,583.143,340.8Z" transform="translate(-481.242 -330.019)" fill="#501d83"/>
          <path id="패스_29310" data-name="패스 29310" d="M620.517,339.342l-1.974-.486c-1.9-.426-3.539-1.139-3.523-2.734.015-1.458,1.306-2.521,3.614-2.521,2.233,0,3.615,1.018,3.8,2.764H626.8c-.061-3.887-3.265-6.591-8.14-6.591-4.814,0-8.337,2.658-8.322,6.651,0,3.219,2.278,5.072,5.983,5.984l2.4.577c2.4.592,3.766,1.291,3.766,2.794,0,1.64-1.549,2.764-3.948,2.764-2.43,0-4.192-1.124-4.344-3.341h-4.435c.137,4.723,3.523,7.183,8.839,7.168,5.361.015,8.489-2.566,8.5-6.591C627.092,342.121,624.283,340.207,620.517,339.342Z" transform="translate(-496.601 -329.774)" fill="#501d83"/>
          <rect id="사각형_2505" data-name="사각형 2505" width="4.556" height="21.991" transform="translate(133.817 0.304)" fill="#501d83"/>
          <path id="패스_29311" data-name="패스 29311" d="M692.9,330.322l-5.042,9.477h-.213l-5.072-9.477h-23v3.766h6.743v18.224h4.526V334.089h6.743v-3.511l7.874,13.9v7.836h4.556v-7.836l8.019-14.154Z" transform="translate(-518.845 -330.019)" fill="#501d83"/>
        </g>
      </g>
    </g>
  </g>
</svg>
