<svg xmlns="http://www.w3.org/2000/svg" width="300" height="300.001" viewBox="0 0 300 300.001">
  <g id="bg_circle_1" transform="translate(-535 -1528)">
    <rect id="base" width="300" height="300" transform="translate(535 1528)" fill="#fff" opacity="0"/>
    <path id="빼기_18" data-name="빼기 18" d="M-2428-3864a151.115,151.115,0,0,1-30.23-3.047,149.257,149.257,0,0,1-28.156-8.74,150.028,150.028,0,0,1-25.479-13.83,151.09,151.09,0,0,1-22.2-18.316,151.093,151.093,0,0,1-18.316-22.2,149.991,149.991,0,0,1-13.83-25.479,149.248,149.248,0,0,1-8.74-28.156A151.111,151.111,0,0,1-2578-4014a151.113,151.113,0,0,1,3.048-30.231,149.25,149.25,0,0,1,8.74-28.157,150,150,0,0,1,13.83-25.48,151.051,151.051,0,0,1,18.316-22.2,151.037,151.037,0,0,1,22.2-18.317,150.038,150.038,0,0,1,25.479-13.83,149.243,149.243,0,0,1,28.156-8.74A151.129,151.129,0,0,1-2428-4164a150.162,150.162,0,0,1,42.885,6.219,149.275,149.275,0,0,1,38.041,17.46,150.7,150.7,0,0,1,31.4,26.9,150.173,150.173,0,0,1,22.962,34.55A152.707,152.707,0,0,0-2307-4014a152.706,152.706,0,0,0,14.287,64.867,150.171,150.171,0,0,1-22.962,34.55,150.711,150.711,0,0,1-31.4,26.9,149.276,149.276,0,0,1-38.041,17.46A150.15,150.15,0,0,1-2428-3864Z" transform="translate(3113 5692)" fill="#501d83"/>
  </g>
</svg>
