<svg xmlns="http://www.w3.org/2000/svg" xmlns:xlink="http://www.w3.org/1999/xlink" width="564" height="100" viewBox="0 0 564 100">
  <defs>
    <clipPath id="clip-path">
      <rect id="사각형_2505" data-name="사각형 2505" width="512.7" height="99.557" transform="translate(0 0.001)" fill="#501d83"/>
    </clipPath>
  </defs>
  <g id="ci_business" data-name="ci/business" transform="translate(-100 -1339.022)">
    <rect id="base" width="564" height="100" transform="translate(100 1339.022)" fill="none"/>
    <g id="business_innovation" data-name="business innovation" transform="translate(100 1339.022)">
      <line id="선_1036" data-name="선 1036" y2="49.591" transform="translate(267.322 25.077)" fill="none" stroke="#501d83" stroke-width="2"/>
      <g id="그룹_3204" data-name="그룹 3204" transform="translate(0 -0.001)">
        <g id="그룹_3203" data-name="그룹 3203" clip-path="url(#clip-path)">
          <path id="패스_29565" data-name="패스 29565" d="M291.791,28.248c-1.913,0-2.984.882-3,2.09-.012,1.323,1.347,1.915,2.923,2.268l1.636.4c3.124.716,5.454,2.3,5.465,5.339-.011,3.336-2.606,5.478-7.052,5.465-4.407.013-7.216-2.028-7.33-5.943h3.677c.126,1.838,1.588,2.77,3.6,2.77,1.989,0,3.273-.932,3.273-2.292,0-1.246-1.133-1.826-3.123-2.317l-1.989-.478c-3.074-.757-4.964-2.293-4.964-4.962-.011-3.314,2.91-5.517,6.9-5.517,4.043,0,6.7,2.241,6.751,5.465h-3.626c-.153-1.448-1.3-2.292-3.15-2.292" fill="#501d83"/>
          <path id="패스_29566" data-name="패스 29566" d="M300.642,36.761c-.013-4.181,2.555-7.052,6.7-7.052,3.525,0,5.918,2.052,6.07,5.188h-3.5a2.5,2.5,0,0,0-2.519-2.292c-1.787.013-2.972,1.511-2.972,4.106,0,2.645,1.158,4.156,2.972,4.156A2.468,2.468,0,0,0,309.91,38.6h3.5c-.163,3.1-2.444,5.226-6.07,5.24-4.194-.014-6.713-2.91-6.7-7.079" fill="#501d83"/>
          <path id="패스_29567" data-name="패스 29567" d="M319.441,43.562h-3.727V25.327h3.626v6.951h.152a4.036,4.036,0,0,1,4.08-2.569c2.86,0,4.735,1.927,4.735,5.139v8.714H324.58V35.5c0-1.7-.907-2.694-2.469-2.694a2.576,2.576,0,0,0-2.67,2.846Z" fill="#501d83"/>
          <path id="패스_29568" data-name="패스 29568" d="M330.609,36.761c-.012-4.218,2.568-7.052,6.7-7.052s6.713,2.834,6.727,7.052c-.014,4.233-2.582,7.066-6.727,7.079-4.131-.013-6.711-2.846-6.7-7.079m6.726,4.183c1.9-.013,2.908-1.789,2.9-4.183.012-2.4-.994-4.205-2.9-4.205-1.953,0-2.948,1.8-2.948,4.205s.995,4.17,2.948,4.183" fill="#501d83"/>
          <path id="패스_29569" data-name="패스 29569" d="M345.807,36.761c-.012-4.218,2.568-7.052,6.7-7.052s6.713,2.834,6.727,7.052c-.014,4.233-2.582,7.066-6.727,7.079-4.131-.013-6.711-2.846-6.7-7.079m6.726,4.183c1.9-.013,2.908-1.789,2.9-4.183.012-2.4-.994-4.205-2.9-4.205-1.953,0-2.948,1.8-2.948,4.205s.995,4.17,2.948,4.183" fill="#501d83"/>
          <rect id="사각형_2498" data-name="사각형 2498" width="3.727" height="18.235" transform="translate(361.56 25.327)" fill="#501d83"/>
          <path id="패스_29570" data-name="패스 29570" d="M373.563,36.761c-.014-4.218,2.568-7.052,6.7-7.052s6.713,2.834,6.725,7.052c-.012,4.233-2.582,7.066-6.725,7.079-4.131-.013-6.713-2.846-6.7-7.079m6.724,4.183c1.9-.013,2.91-1.789,2.9-4.183.014-2.4-.994-4.205-2.9-4.205-1.951,0-2.948,1.8-2.948,4.205s1,4.17,2.948,4.183" fill="#501d83"/>
          <path id="패스_29571" data-name="패스 29571" d="M396.594,32.682h-2.721v10.88h-3.727V32.682h-1.94v-2.8h1.94V28.854c0-2.885,1.738-4.385,4.483-4.385a9.838,9.838,0,0,1,2.217.227v2.822c-.542-.051-.932-.063-1.134-.076-1.2.013-1.839.467-1.839,1.612v.831h2.721Z" fill="#501d83"/>
          <path id="패스_29572" data-name="패스 29572" d="M404.789,25.327h7.254c4.017,0,6.058,1.939,6.046,4.685a3.865,3.865,0,0,1-3.275,3.9v.177a4.256,4.256,0,0,1,4.005,4.434c-.013,2.9-2.178,5.036-6.3,5.036h-7.733Zm6.7,7.631c1.587.013,2.784-.88,2.77-2.342.014-1.322-.97-2.216-2.694-2.216h-3v4.558Zm.278,7.481c2.191.013,3.134-.894,3.123-2.268.011-1.535-1.158-2.618-3.022-2.618h-3.3v4.886Z" fill="#501d83"/>
          <path id="패스_29573" data-name="패스 29573" d="M429.886,29.884h3.727V43.561h-3.576V41.094h-.151a4.211,4.211,0,0,1-4.158,2.645c-2.732,0-4.609-1.94-4.609-5.139V29.884h3.729v8.06a2.361,2.361,0,0,0,2.393,2.645,2.641,2.641,0,0,0,2.645-2.845Z" fill="#501d83"/>
          <path id="패스_29574" data-name="패스 29574" d="M442.06,32.354c-1.208.013-2.128.579-2.115,1.41-.013.617.465,1.1,1.763,1.361l2.442.5c2.658.554,3.943,1.737,3.956,3.7-.013,2.694-2.431,4.495-6.071,4.508-3.689-.013-5.855-1.663-6.172-4.333h3.754c.177,1.071,1.046,1.626,2.418,1.637,1.361-.011,2.268-.555,2.268-1.435,0-.7-.58-1.147-1.864-1.41l-2.267-.453c-2.607-.517-3.943-1.853-3.929-3.88-.014-2.62,2.24-4.257,5.767-4.257,3.451,0,5.591,1.637,5.793,4.232h-3.5a2.051,2.051,0,0,0-2.243-1.587" fill="#501d83"/>
          <path id="패스_29575" data-name="패스 29575" d="M452.249,24.294a1.907,1.907,0,1,1-2.041,1.915,1.992,1.992,0,0,1,2.041-1.915m-1.866,5.591h3.729V43.562h-3.729Z" fill="#501d83"/>
          <path id="패스_29576" data-name="패스 29576" d="M460.73,43.562H457V29.885h3.552v2.393h.152a4.133,4.133,0,0,1,4.105-2.569c2.86,0,4.723,1.951,4.71,5.139v8.714h-3.7V35.5c-.014-1.686-.919-2.694-2.468-2.694a2.552,2.552,0,0,0-2.62,2.846Z" fill="#501d83"/>
          <path id="패스_29577" data-name="패스 29577" d="M471.848,36.786c-.013-4.219,2.593-7.077,6.6-7.077,3.59,0,6.423,2.267,6.423,6.926v1.058h-9.344a3.032,3.032,0,0,0,3.147,3.35,2.64,2.64,0,0,0,2.544-1.386h3.552c-.53,2.533-2.8,4.17-6.172,4.183-4.194-.013-6.762-2.721-6.749-7.054m9.495-1.435a2.72,2.72,0,0,0-2.82-2.847,2.927,2.927,0,0,0-3,2.847Z" fill="#501d83"/>
          <path id="패스_29578" data-name="패스 29578" d="M492.765,32.354c-1.21.013-2.128.579-2.117,1.41-.011.617.467,1.1,1.764,1.361l2.443.5c2.658.554,3.943,1.737,3.954,3.7-.011,2.694-2.429,4.495-6.069,4.508-3.691-.013-5.857-1.663-6.172-4.333h3.754c.175,1.071,1.044,1.626,2.418,1.637,1.359-.011,2.266-.555,2.266-1.435,0-.7-.579-1.147-1.864-1.41l-2.267-.453c-2.607-.517-3.941-1.853-3.929-3.88-.012-2.62,2.242-4.257,5.768-4.257,3.45,0,5.592,1.637,5.794,4.232h-3.5a2.05,2.05,0,0,0-2.241-1.587" fill="#501d83"/>
          <path id="패스_29579" data-name="패스 29579" d="M506.654,32.354c-1.208.013-2.128.579-2.115,1.41-.013.617.465,1.1,1.762,1.361l2.443.5c2.658.554,3.943,1.737,3.956,3.7-.013,2.694-2.431,4.495-6.071,4.508-3.689-.013-5.855-1.663-6.172-4.333h3.754c.177,1.071,1.046,1.626,2.418,1.637,1.361-.011,2.268-.555,2.268-1.435,0-.7-.58-1.147-1.864-1.41l-2.267-.453c-2.607-.517-3.943-1.853-3.929-3.88-.014-2.62,2.24-4.257,5.767-4.257,3.451,0,5.591,1.637,5.793,4.232h-3.5a2.051,2.051,0,0,0-2.243-1.587" fill="#501d83"/>
          <rect id="사각형_2499" data-name="사각형 2499" width="3.777" height="18.235" transform="translate(285.041 56.248)" fill="#501d83"/>
          <path id="패스_29580" data-name="패스 29580" d="M295.537,74.482H291.81V60.805h3.552V63.2h.15a4.138,4.138,0,0,1,4.107-2.569c2.858,0,4.721,1.951,4.71,5.139v8.714h-3.7v-8.06c-.012-1.686-.919-2.694-2.468-2.694a2.552,2.552,0,0,0-2.62,2.846Z" fill="#501d83"/>
          <path id="패스_29581" data-name="패스 29581" d="M310.937,74.482H307.21V60.805h3.552V63.2h.15a4.138,4.138,0,0,1,4.107-2.569c2.858,0,4.721,1.951,4.71,5.139v8.714h-3.7v-8.06c-.012-1.686-.919-2.694-2.468-2.694a2.552,2.552,0,0,0-2.62,2.846Z" fill="#501d83"/>
          <path id="패스_29582" data-name="패스 29582" d="M322.056,67.681c-.012-4.218,2.568-7.052,6.7-7.052s6.713,2.834,6.727,7.052c-.014,4.233-2.582,7.066-6.727,7.079-4.131-.013-6.711-2.846-6.7-7.079m6.726,4.183c1.9-.013,2.908-1.789,2.9-4.183.012-2.4-.994-4.2-2.9-4.2-1.953,0-2.948,1.8-2.948,4.2s.995,4.17,2.948,4.183" fill="#501d83"/>
          <path id="패스_29583" data-name="패스 29583" d="M345.239,74.482h-4.181l-4.786-13.677H340.2l2.871,9.824h.151l2.872-9.824h3.955Z" fill="#501d83"/>
          <path id="패스_29584" data-name="패스 29584" d="M355.9,66.447c.982-.063,2.82-.151,3.4-.176V65.162c-.012-1.145-.793-1.8-2.192-1.812a2.058,2.058,0,0,0-2.265,1.511H351.3c.227-2.368,2.292-4.232,5.918-4.232,2.986,0,5.806,1.336,5.795,4.634v9.219h-3.527V72.594h-.1a4.2,4.2,0,0,1-4.005,2.14c-2.619.013-4.547-1.372-4.558-4.08.011-3.047,2.456-4.043,5.087-4.207m.53,5.718A2.643,2.643,0,0,0,359.3,69.6V68.6c-.566.025-2.165.112-2.8.164-1.3.112-2.115.729-2.115,1.787s.844,1.6,2.041,1.612" fill="#501d83"/>
          <path id="패스_29585" data-name="패스 29585" d="M373.042,63.6h-2.569v6.675c-.011,1.1.53,1.36,1.285,1.385.379,0,1.032-.038,1.486-.076v2.948a11.913,11.913,0,0,1-1.989.125c-2.7.012-4.533-1.2-4.509-3.854V63.6h-1.89v-2.8h1.89V57.531h3.727v3.274h2.569Z" fill="#501d83"/>
          <path id="패스_29586" data-name="패스 29586" d="M377.24,55.214a1.907,1.907,0,1,1-2.041,1.915,1.993,1.993,0,0,1,2.041-1.915m-1.864,5.591H379.1V74.482h-3.727Z" fill="#501d83"/>
          <path id="패스_29587" data-name="패스 29587" d="M381.44,67.681c-.012-4.218,2.568-7.052,6.7-7.052s6.713,2.834,6.727,7.052c-.014,4.233-2.582,7.066-6.727,7.079-4.131-.013-6.711-2.846-6.7-7.079m6.726,4.183c1.9-.013,2.908-1.789,2.9-4.183.012-2.4-.994-4.2-2.9-4.2-1.953,0-2.948,1.8-2.948,4.2s1,4.17,2.948,4.183" fill="#501d83"/>
          <path id="패스_29588" data-name="패스 29588" d="M400.919,74.482h-3.727V60.805h3.552V63.2h.15A4.138,4.138,0,0,1,405,60.629c2.858,0,4.721,1.951,4.71,5.139v8.714h-3.7v-8.06c-.012-1.686-.919-2.694-2.468-2.694a2.552,2.552,0,0,0-2.62,2.846Z" fill="#501d83"/>
          <path id="패스_29589" data-name="패스 29589" d="M117.479,24.866h20.937v4.378h-7.838V50.428h-5.261V29.244h-7.838Z" fill="#501d83"/>
          <path id="패스_29590" data-name="패스 29590" d="M137.109,50.428l8.862-25.562h6.815l8.826,25.562h-5.684L154,44.532h-9.251l-1.924,5.9ZM152.662,40.4l-3.2-9.78h-.177L146.1,40.4Z" fill="#501d83"/>
          <path id="패스_29591" data-name="패스 29591" d="M164.508,24.866h17.159v4.378H169.8v6.214h10.981v4.378H169.8V46.05h11.9v4.378H164.508Z" fill="#501d83"/>
          <path id="패스_29592" data-name="패스 29592" d="M201.263,24.866V42.7c0,4.961-3.513,8.085-8.65,8.085-4.625,0-8.244-2.436-8.227-7.485h5.3a2.984,2.984,0,0,0,3.178,3.213c2.03,0,3.142-1.306,3.142-3.813V24.866Z" fill="#501d83"/>
          <path id="패스_29593" data-name="패스 29593" d="M204.122,50.428l8.862-25.562H219.8l8.826,25.562h-5.684l-1.924-5.9h-9.251l-1.924,5.9ZM219.675,40.4l-3.2-9.78H216.3l-3.195,9.78Z" fill="#501d83"/>
          <path id="패스_29594" data-name="패스 29594" d="M231.521,24.866H248.68v4.378H236.817v6.214H247.8v4.378H236.817V46.05h11.9v4.378H231.521Z" fill="#501d83"/>
          <path id="패스_29595" data-name="패스 29595" d="M131.4,68.914a3.224,3.224,0,0,1-6.445,0V59.009h-3.243V69.174c0,3.427,2.573,5.72,6.466,5.709,3.882.011,6.488-2.282,6.488-5.709V59.009H131.4Z" fill="#501d83"/>
          <path id="패스_29596" data-name="패스 29596" d="M147.622,68.957h-.151l-6.834-9.948h-2.855V74.666h3.244V64.718h.13l6.877,9.948h2.811V59.009h-3.222Z" fill="#501d83"/>
          <rect id="사각형_2500" data-name="사각형 2500" width="3.244" height="15.657" transform="translate(153.966 59.009)" fill="#501d83"/>
          <path id="패스_29597" data-name="패스 29597" d="M166.3,70.946h-.151l-3.807-11.937H158.71l5.428,15.657h4.174l5.407-15.657h-3.59Z" fill="#501d83"/>
          <path id="패스_29598" data-name="패스 29598" d="M178.466,68.178h6.726V65.5h-6.726V61.69h7.266V59.009h-10.51V74.666h10.532V71.984h-7.288Z" fill="#501d83"/>
          <path id="패스_29599" data-name="패스 29599" d="M200.466,64.113c0-3.1-2.044-5.1-5.6-5.1h-6.142V74.666h3.244V69.108h2.476l3,5.558h3.59L197.7,68.579a4.525,4.525,0,0,0,2.769-4.466m-6.207,2.357h-2.292v-4.8h2.292c1.925.011,2.865.865,2.855,2.444.01,1.568-.93,2.357-2.855,2.357" fill="#501d83"/>
          <path id="패스_29600" data-name="패스 29600" d="M209.933,65.605l-1.406-.346c-1.351-.3-2.519-.811-2.508-1.946.011-1.038.93-1.795,2.573-1.795,1.59,0,2.574.724,2.7,1.968h3.115c-.044-2.768-2.325-4.693-5.8-4.693-3.428,0-5.936,1.892-5.926,4.736,0,2.292,1.622,3.611,4.261,4.26l1.708.411c1.709.422,2.682.919,2.682,1.99,0,1.168-1.1,1.968-2.812,1.968-1.73,0-2.984-.8-3.092-2.379h-3.158c.1,3.363,2.509,5.114,6.294,5.1,3.817.01,6.044-1.828,6.055-4.693-.011-2.606-2.011-3.969-4.693-4.585" fill="#501d83"/>
          <rect id="사각형_2501" data-name="사각형 2501" width="3.244" height="15.657" transform="translate(216.983 59.009)" fill="#501d83"/>
          <path id="패스_29601" data-name="패스 29601" d="M245.636,59.009l-3.59,6.747h-.151l-3.612-6.747H221.907v2.682h4.8V74.666h3.222V61.691h4.8v-2.5l5.607,9.9v5.579h3.244V69.087l5.709-10.078Z" fill="#501d83"/>
          <rect id="사각형_2502" data-name="사각형 2502" width="24.89" height="24.89" transform="translate(0 0)" fill="#009b88"/>
          <path id="패스_29602" data-name="패스 29602" d="M49.779,0,24.89,24.889V74.668H49.779V24.889H74.668V0Z" fill="#321f78"/>
          <path id="패스_29603" data-name="패스 29603" d="M99.558,24.89H74.668V74.669H49.779V99.114A44.04,44.04,0,0,0,56,99.558,43.557,43.557,0,0,0,99.558,56.023Z" fill="#321f78"/>
          <path id="패스_29604" data-name="패스 29604" d="M49.779,49.779V24.889h24.89Z" fill="#ff6727"/>
          <rect id="사각형_2503" data-name="사각형 2503" width="24.89" height="24.89" transform="translate(0 0)" fill="#009b88"/>
          <path id="패스_29605" data-name="패스 29605" d="M49.779,0,24.89,24.889V74.668H49.779V24.889H74.668V0Z" fill="#321f78"/>
          <path id="패스_29606" data-name="패스 29606" d="M99.558,24.89H74.668V74.669H49.779V99.114A44.04,44.04,0,0,0,56,99.558,43.557,43.557,0,0,0,99.558,56.023Z" fill="#321f78"/>
          <rect id="사각형_2504" data-name="사각형 2504" width="24.89" height="24.89" transform="translate(0 0)" fill="#00a497"/>
          <path id="패스_29607" data-name="패스 29607" d="M49.779,0,24.89,24.889V74.668H49.779V24.889H74.668V0Z" fill="#501d83"/>
          <path id="패스_29608" data-name="패스 29608" d="M99.558,24.89H74.668V74.669H49.779V99.114A44.04,44.04,0,0,0,56,99.558,43.557,43.557,0,0,0,99.558,56.023Z" fill="#501d83"/>
        </g>
      </g>
    </g>
  </g>
</svg>
