<svg xmlns="http://www.w3.org/2000/svg" width="1400" height="1644" viewBox="0 0 1400 1644">
  <g id="diagram_organization" data-name="diagram/organization" transform="translate(-260 382)">
    <g id="bottom" transform="translate(0 -711)">
      <path id="line" d="M10414,15231l-492-120" transform="translate(-8962 -14262)" fill="none" stroke="#999" stroke-linecap="round" stroke-width="1"/>
      <path id="line-2" data-name="line" d="M9850,15231l492-120" transform="translate(-9382 -14262)" fill="none" stroke="#999" stroke-linecap="round" stroke-width="1"/>
      <rect id="line-3" data-name="line" width="1" height="440" transform="translate(960 529)" fill="#999"/>
      <g id="item" transform="translate(882 -262)">
        <circle id="oval" cx="110" cy="110" r="110" transform="translate(460 1231)" fill="#999"/>
        <path id="부속기관" d="M.814-6.27v1.606H8.558V1.694h1.98V-4.664h7.854V-6.27ZM2.992-8.492H16.17v-8.426H14.19v2.53H4.972v-2.53H2.992Zm1.98-1.628v-2.662H14.19v2.662Zm15.07,2.068v1.606H37.62V-8.052H29.788v-2.86h-1.98v2.86Zm1.012-3.41L21.8-9.856c3.058-.506,5.764-1.98,7-4.136,1.232,2.156,3.938,3.63,6.974,4.136l.77-1.606c-3.674-.484-6.732-2.64-6.732-5.148V-17.4H27.786v.792C27.786-14.1,24.728-11.946,21.054-11.462ZM22-3.058H33.418V1.694h2V-4.664H22ZM53.218-17.732v19.4h2.024v-19.4ZM39.446-3.454,40.5-1.87c6.6-3.19,9-8.1,9-13.794H40.37v1.628h7.106C47.08-9.482,44.594-5.94,39.446-3.454ZM59.51-16.236v1.628h7.744a23.7,23.7,0,0,1-.506,4.95l1.958.22a27.211,27.211,0,0,0,.506-5.72v-1.078ZM58.344-7.744l.22,1.628a73.126,73.126,0,0,0,12.012-.792L70.444-8.36c-1.936.264-4.092.418-6.16.506V-11.88H62.3v4.092C60.874-7.744,59.532-7.744,58.344-7.744Zm2.926,9.02H74.316V-.374H63.272v-4.07h-2ZM71.676-3.146H73.7V-9.834h2.662v-1.65H73.7v-6.248H71.676Z" transform="translate(532 1349)" fill="#fff"/>
      </g>
      <g id="item-2" data-name="item" transform="translate(390 -262)">
        <circle id="oval-2" data-name="oval" cx="110" cy="110" r="110" transform="translate(460 1231)" fill="#999"/>
        <path id="School" d="M.858-15.752v1.606H12.32v-1.606H7.59v-2.09h-2v2.09ZM1.914-9.7c0,2.134,1.892,3.5,4.664,3.5,2.794,0,4.686-1.364,4.686-3.5s-1.892-3.542-4.686-3.542C3.806-13.244,1.914-11.836,1.914-9.7ZM3.256-2.97H13.9V1.694h2.024V-4.6H3.256ZM3.828-9.7c0-1.232,1.1-1.98,2.75-1.98s2.75.748,2.75,1.98c0,1.188-1.1,1.98-2.75,1.98S3.828-8.514,3.828-9.7ZM13.9-5.588h2.024V-10.78h2.794v-1.672H15.928V-17.71H13.9Zm6.138-.682v1.606h7.744V1.694h1.98V-4.664H37.62V-6.27ZM22.22-8.492H35.4v-8.426h-1.98v2.53H24.2v-2.53H22.22ZM24.2-10.12v-2.662h9.218v2.662Z" transform="translate(551 1349)" fill="#fff"/>
      </g>
      <g id="item-3" data-name="item" transform="translate(-102 -262)">
        <circle id="oval-3" data-name="oval" cx="110" cy="110" r="110" transform="translate(460 1231)" fill="#999"/>
        <path id="대학본부" d="M15.4-17.732v7.7H12.892v-7.282h-1.87v18h1.87V-8.36H15.4V1.672h1.914v-19.4ZM1.5-3.014H2.772A34.486,34.486,0,0,0,9.9-3.564l-.22-1.65a32.134,32.134,0,0,1-6.2.528V-13.75H8.668v-1.628H1.5Zm18.59-12.738v1.606H31.548v-1.606h-4.73v-2.09h-2v2.09ZM21.142-9.7c0,2.134,1.892,3.5,4.664,3.5,2.794,0,4.686-1.364,4.686-3.5s-1.892-3.542-4.686-3.542C23.034-13.244,21.142-11.836,21.142-9.7ZM22.484-2.97H33.132V1.694h2.024V-4.6H22.484ZM23.056-9.7c0-1.232,1.1-1.98,2.75-1.98s2.75.748,2.75,1.98c0,1.188-1.1,1.98-2.75,1.98S23.056-8.514,23.056-9.7ZM33.132-5.588h2.024V-10.78H37.95v-1.672H35.156V-17.71H33.132ZM41.58-16.962v7.788h5.456v1.98H39.27v1.606H56.8V-7.194H49.016v-1.98h5.522v-7.788h-2v2.288H43.56v-2.288ZM41.514,1.3H54.846V-.352H43.516V-4.114h-2ZM43.56-10.758V-13.09h8.976v2.332ZM58.5-6.27v1.606h7.744V1.694h1.98V-4.664h7.854V-6.27Zm2.178-2.222H73.854v-8.426h-1.98v2.53H62.656v-2.53h-1.98Zm1.98-1.628v-2.662h9.218v2.662Z" transform="translate(532 1349)" fill="#fff"/>
      </g>
      <g id="set" transform="translate(984 8)">
        <g id="oval-4" data-name="oval" transform="translate(460 1181)" fill="#999" stroke="#fff" stroke-width="3">
          <circle cx="8" cy="8" r="8" stroke="none"/>
          <circle cx="8" cy="8" r="6.5" fill="none"/>
        </g>
        <path id="line-4" data-name="line" d="M9922,15479v-708" transform="translate(-9454 -13574.009)" fill="none" stroke="#999" stroke-width="1"/>
        <g id="items">
          <g id="item-4" data-name="item" transform="translate(0 622)">
            <rect id="base" width="416" height="60" rx="4" transform="translate(260 1283)" fill="#f3f3f3"/>
            <path id="Digital_Library" data-name="Digital Library" d="M10.7-12.9V1.248H12.16V-12.9ZM1.488-2.224H2.64a34.153,34.153,0,0,0,6.816-.464L9.312-3.92a31.445,31.445,0,0,1-6.384.464v-6.9H8.192v-1.216h-6.7Zm13.52-9.248v1.216h3.216v1.568a7.121,7.121,0,0,1-3.68,6.064l.832,1.152A7.562,7.562,0,0,0,18.96-6.016a7.123,7.123,0,0,0,3.616,4.192l.816-1.152A6.5,6.5,0,0,1,19.68-8.688v-1.568h3.232v-1.216Zm9.664,12.7h1.456V-12.88H24.672Zm4.592-13.264v6.24H30.3a35.875,35.875,0,0,0,6.144-.336L36.32-7.28a33.623,33.623,0,0,1-5.616.32V-8.432h4.56v-1.1H30.7V-10.88h4.944v-1.152Zm1.808,8.464h7.7v1.184H31.1V1.088h9.6V-.064h-8.16V-1.312h7.664V-4.7H31.072Zm5.136-4.96h2.56v3.2h1.44V-12.9h-1.44v3.184h-2.56Zm11.616-3.28v6.624h4.048v3.456H46.224V-.512H59.008V-1.728h-5.68V-5.184h4.24v-1.2H49.28v-4.24h8.144v-1.184Zm19.44,3.632v1.184H70.4v8.24h1.456v-14.16H70.4v4.736ZM60.144-2.9l.912,1.168A7.578,7.578,0,0,0,64.5-6.32,7.278,7.278,0,0,0,67.92-1.968l.864-1.168A6.911,6.911,0,0,1,65.216-9.3v-2.416H63.76V-9.3A7.311,7.311,0,0,1,60.144-2.9Zm14.784-8.912v1.184H80.56a17.235,17.235,0,0,1-.368,3.6l1.424.16a19.79,19.79,0,0,0,.368-4.16v-.784ZM74.08-5.632l.16,1.184a53.183,53.183,0,0,0,8.736-.576l-.1-1.056c-1.408.192-2.976.3-4.48.368V-8.64H76.96v2.976C75.92-5.632,74.944-5.632,74.08-5.632ZM76.208.928H85.7v-1.2H77.664v-2.96H76.208Zm7.568-3.216h1.472V-7.152h1.936v-1.2H85.248V-12.9H83.776Z" transform="translate(424 1318)" fill="#1f1f1f"/>
          </g>
          <g id="multi" transform="translate(0 304)">
            <g id="item-5" data-name="item" transform="translate(0 242)">
              <g id="base-2" data-name="base" transform="translate(260 1283)" fill="#fff" stroke="#dbdbdb" stroke-width="1">
                <rect width="416" height="60" rx="4" stroke="none"/>
                <rect x="0.5" y="0.5" width="415" height="59" rx="3.5" fill="none"/>
              </g>
              <path id="Public_Encounter_Center" data-name="Public Encounter Center" d="M11.2-12.9v5.6H9.376v-5.3H8.016V.5h1.36V-6.08H11.2v7.3h1.392V-12.9ZM1.088-2.192h.928a25.08,25.08,0,0,0,5.184-.4l-.16-1.2a23.37,23.37,0,0,1-4.512.384V-10H6.3v-1.184H1.088ZM19.136-12c-2.224,0-3.824,1.392-3.824,3.36a3.329,3.329,0,0,0,3.056,3.3v2.32c-1.344.048-2.624.048-3.728.048l.176,1.2a50.153,50.153,0,0,0,9.072-.608l-.112-1.072c-1.248.192-2.592.3-3.92.384V-5.328A3.347,3.347,0,0,0,22.928-8.64C22.928-10.608,21.328-12,19.136-12Zm-2.4,3.36a2.168,2.168,0,0,1,2.4-2.1A2.157,2.157,0,0,1,21.5-8.64a2.157,2.157,0,0,1-2.368,2.1A2.168,2.168,0,0,1,16.736-8.64Zm7.92,9.888h1.472v-14.16H24.656ZM36.5-9.664V-8.5h2.24v1.584H36.464v1.184h2.272v1.184h1.456V-12.88H38.736v3.216Zm-7.92-.688h7.872v-1.184H33.312v-1.488H31.84v1.488H28.576Zm.768,3.168c0,1.52,1.328,2.544,3.216,2.544,1.9,0,3.216-1.024,3.216-2.544,0-1.536-1.312-2.544-3.216-2.544C30.672-9.728,29.344-8.72,29.344-7.184Zm1.376,0c0-.88.72-1.456,1.84-1.456,1.1,0,1.856.576,1.856,1.456s-.752,1.456-1.856,1.456C31.44-5.728,30.72-6.3,30.72-7.184Zm.288,8.224h9.184V-3.952h-1.44v1.36h-6.3v-1.36h-1.44Zm1.44-1.152v-1.36h6.3v1.36ZM43.072-12.048v1.184H47.76v1.792H43.12v4.3h1.008A31.717,31.717,0,0,0,50.08-5.12L49.936-6.3a27.719,27.719,0,0,1-5.376.352v-2H49.2v-4.1ZM44.7-2.288h8.032V1.248h1.456v-4.72H44.7ZM50.1-6.7h2.64v2.5h1.456V-12.88H52.736v2.048H50.1v1.2h2.64v1.76H50.1Zm12.128-2.7v1.2h2.064v5.5h1.376v-9.92H64.288v3.216Zm-5.728,4,.816,1.12a5.606,5.606,0,0,0,2.752-3.168A5.1,5.1,0,0,0,62.64-4.64l.8-1.1A4.577,4.577,0,0,1,60.752-9.9v-2H59.344v2A5.1,5.1,0,0,1,56.5-5.408ZM59.168.928h9.68v-1.2H60.624V-3.584H59.168ZM67.056-2.32h1.392V-12.88H67.056ZM80.72-12.912v5.264h-2.8v1.184h2.8V1.248h1.456v-14.16ZM71.152-2.1H72.24a34.992,34.992,0,0,0,6.4-.432L78.5-3.712a31.514,31.514,0,0,1-5.9.416V-6.512h4.5V-7.68h-4.5v-2.752H77.68v-1.184H71.152Z" transform="translate(426 1318)" fill="#1f1f1f"/>
            </g>
            <g id="item-6" data-name="item" transform="translate(0 166)">
              <g id="base-3" data-name="base" transform="translate(260 1283)" fill="#fff" stroke="#dbdbdb" stroke-width="1">
                <rect width="416" height="60" rx="4" stroke="none"/>
                <rect x="0.5" y="0.5" width="415" height="59" rx="3.5" fill="none"/>
              </g>
              <path id="Design_Center" data-name="Design Center" d="M10.7-12.9V1.248H12.16V-12.9ZM1.488-2.224H2.64a34.153,34.153,0,0,0,6.816-.464L9.312-3.92a31.445,31.445,0,0,1-6.384.464v-6.9H8.192v-1.216h-6.7Zm13.344-9.248v1.216H18v1.568a7.223,7.223,0,0,1-3.664,6.064l.848,1.152a7.754,7.754,0,0,0,3.536-4.56,7.292,7.292,0,0,0,3.472,4.208l.832-1.152A6.68,6.68,0,0,1,19.44-8.688v-1.568h3.04v-1.216ZM24,1.232h1.472V-6.032h2.24V-7.248h-2.24V-12.88H24ZM38.688-12.88V-2.624H40.16V-12.88Zm-9.84,4.464A3.512,3.512,0,0,0,32.56-4.928a3.5,3.5,0,0,0,3.712-3.488,3.5,3.5,0,0,0-3.712-3.5A3.505,3.505,0,0,0,28.848-8.416Zm1.424,0a2.181,2.181,0,0,1,2.288-2.24,2.185,2.185,0,0,1,2.3,2.24,2.178,2.178,0,0,1-2.3,2.208A2.173,2.173,0,0,1,30.272-8.416ZM31.024.928h9.552v-1.2h-8.1V-3.664H31.024ZM48.24-9.408v1.2H50.3v5.5H51.68v-9.92H50.3v3.216Zm-5.728,4,.816,1.12A5.606,5.606,0,0,0,46.08-7.456,5.1,5.1,0,0,0,48.656-4.64l.8-1.1A4.577,4.577,0,0,1,46.768-9.9v-2H45.36v2A5.1,5.1,0,0,1,42.512-5.408ZM45.184.928h9.68v-1.2H46.64V-3.584H45.184ZM53.072-2.32h1.392V-12.88H53.072ZM66.736-12.912v5.264h-2.8v1.184h2.8V1.248h1.456v-14.16ZM57.168-2.1h1.088a34.992,34.992,0,0,0,6.4-.432l-.144-1.184a31.514,31.514,0,0,1-5.9.416V-6.512h4.5V-7.68h-4.5v-2.752H63.7v-1.184H57.168Z" transform="translate(433 1318)" fill="#1f1f1f"/>
            </g>
            <g id="item-7" data-name="item" transform="translate(0 90)">
              <rect id="base-4" data-name="base" width="416" height="60" rx="4" transform="translate(260 1283)" fill="#f3f3f3"/>
              <path id="University_Identity_Institute" data-name="University Identity Institute" d="M.592-4.9v1.2H3.776V1.216h1.5V-3.7H8.64V1.216h1.488V-3.7h3.248V-4.9ZM1.968-9.248c0,1.9,2.016,3.088,4.976,3.088,2.976,0,4.976-1.184,4.976-3.088s-2-3.072-4.976-3.072C3.984-12.32,1.968-11.152,1.968-9.248Zm1.5,0c0-1.168,1.392-1.92,3.472-1.92,2.1,0,3.488.752,3.488,1.92,0,1.2-1.392,1.92-3.488,1.92C4.864-7.328,3.472-8.048,3.472-9.248ZM24.736-12.9V1.216h1.44V-12.9ZM15.424-2.384h1.2a33.213,33.213,0,0,0,6.912-.672l-.192-1.232a32.218,32.218,0,0,1-6.464.656V-11.52H15.424ZM38.768-12.912v5.2h-3.1v-4.064h-1.44v3.6H30.56v-3.6H29.1v9.52h6.56V-6.528h3.1V1.248h1.456v-14.16ZM30.56-3.456V-7.024h3.664v3.568ZM46.176-11.7v2.4A7.232,7.232,0,0,1,42.432-2.88l.88,1.2a7.516,7.516,0,0,0,3.632-4.608A7.308,7.308,0,0,0,50.48-1.952l.864-1.168a6.964,6.964,0,0,1-3.7-6.176v-2.4ZM52.64,1.248H54.1v-14.16H52.64Zm4.752-12.88v9.5h1.136A37.151,37.151,0,0,0,65.3-2.576l-.144-1.168a37.207,37.207,0,0,1-6.32.416v-3.2H63.76V-7.68H58.832v-2.752h5.456v-1.2Zm9.28,12.864h1.472V-12.88H66.672Zm11.28-13.056c-2.08,0-3.584,1.9-3.584,4.944,0,3.024,1.5,4.96,3.584,4.96,2.1,0,3.584-1.936,3.584-4.96C81.536-9.92,80.048-11.824,77.952-11.824ZM75.776-6.88c0-2.24.88-3.632,2.176-3.632S80.144-9.12,80.144-6.88s-.9,3.648-2.192,3.648S75.776-4.64,75.776-6.88Zm7.856,8.112H85.1V-6.1h2.24V-7.312H85.1V-12.88H83.632ZM98.288-12.912V1.248h1.456v-14.16ZM88.656-6.88c0,3.024,1.5,4.96,3.616,4.96,2.1,0,3.616-1.936,3.616-4.96,0-3.04-1.52-4.944-3.616-4.944C90.16-11.824,88.656-9.92,88.656-6.88Zm1.408,0c0-2.24.912-3.632,2.208-3.632S94.48-9.12,94.48-6.88s-.912,3.648-2.208,3.648S90.064-4.64,90.064-6.88Zm12.768-4.8v6.928h.9a26.069,26.069,0,0,0,5.2-.4l-.144-1.168a23.253,23.253,0,0,1-4.528.416v-4.608h3.952V-11.68ZM104.88.928h9.68V-.288h-8.224V-3.632H104.88Zm2.448-8.752H110v5.008h1.376v-9.792H110v3.6h-2.672Zm5.424,5.36h1.392V-12.9h-1.392Zm4.256-9.168v9.5h1.136a37.151,37.151,0,0,0,6.768-.448l-.144-1.168a37.207,37.207,0,0,1-6.32.416v-3.2h4.928V-7.68h-4.928v-2.752H123.9v-1.2Zm9.28,12.864h1.472V-12.88h-1.472Zm4.7-12.864v9.5h1.136a37.151,37.151,0,0,0,6.768-.448l-.144-1.168a37.207,37.207,0,0,1-6.32.416v-3.2h4.928V-7.68h-4.928v-2.752h5.456v-1.2Zm9.28,12.864h1.472V-12.88h-1.472Zm14-14.128v8.32h-2.816v1.024h2.816V-2.16h1.456V-12.9Zm-10.24,6.464.192,1.2c1.136,0,2.448-.016,3.808-.08V-2.64h1.456V-5.392c1.248-.08,2.512-.208,3.712-.4l-.1-1.056A75.242,75.242,0,0,1,144.032-6.432Zm1.088-3.44c0,1.5,1.424,2.48,3.488,2.48s3.472-.976,3.472-2.48c0-1.488-1.408-2.464-3.472-2.464S145.12-11.36,145.12-9.872Zm.864,10.8h10.08v-1.2H147.44V-3.2h-1.456Zm.528-10.8c0-.848.864-1.392,2.1-1.392s2.08.544,2.08,1.392c0,.864-.848,1.392-2.08,1.392S146.512-9.008,146.512-9.872Z" transform="translate(389 1318)" fill="#1f1f1f"/>
            </g>
          </g>
          <g id="multi-2" data-name="multi" transform="translate(0 76)">
            <g id="item-8" data-name="item" transform="translate(0 242)">
              <g id="base-5" data-name="base" transform="translate(260 1283)" fill="#fff" stroke="#dbdbdb" stroke-width="1">
                <rect width="416" height="60" rx="4" stroke="none"/>
                <rect x="0.5" y="0.5" width="415" height="59" rx="3.5" fill="none"/>
              </g>
              <path id="Contents_Design_Center" data-name="Contents Design Center" d="M2.08-12.24v1.184h8.272v.048c0,.448,0,.88-.016,1.36l-8.592.256L1.936-8.16l8.336-.4a16.764,16.764,0,0,1-.3,2.112l1.44.1a21.553,21.553,0,0,0,.384-4.656V-12.24ZM.608-4.288h12.72V-5.456H7.136V-7.424H5.664v1.968H.608ZM2.192,1.024h9.9v-1.2H3.648V-3.152H2.192ZM20.64-8.928v1.184h1.728v5.072h1.376v-9.936H22.368v3.68ZM15.2-4.576h.912a24.339,24.339,0,0,0,5.152-.368L21.136-6.1a23.65,23.65,0,0,1-4.528.352V-7.632h3.376V-8.784H16.608V-10.56h3.92v-1.184H15.2Zm2.1,5.5h9.616v-1.2h-8.16v-3.2H17.3ZM25.1-2.32h1.408V-12.9H25.1Zm3.456.56V-.544H41.344V-1.76Zm.672-3.408.576,1.184a7.079,7.079,0,0,0,5.136-3.344A7.142,7.142,0,0,0,40.1-3.984l.544-1.184c-2.832-.48-4.912-2.24-4.944-4.384H40.16V-10.72H35.68v-1.888H34.224v1.888h-4.48v1.168h4.48C34.192-7.408,32.08-5.648,29.232-5.168ZM52.656-12.9V1.248h1.456V-12.9ZM43.44-2.224h1.152a34.153,34.153,0,0,0,6.816-.464L51.264-3.92a31.445,31.445,0,0,1-6.384.464v-6.9h5.264v-1.216h-6.7Zm13.344-9.248v1.216h3.168v1.568a7.223,7.223,0,0,1-3.664,6.064l.848,1.152a7.754,7.754,0,0,0,3.536-4.56,7.292,7.292,0,0,0,3.472,4.208l.832-1.152a6.68,6.68,0,0,1-3.584-5.712v-1.568h3.04v-1.216Zm9.168,12.7h1.472V-6.032h2.24V-7.248h-2.24V-12.88H65.952ZM80.64-12.88V-2.624h1.472V-12.88ZM70.8-8.416a3.512,3.512,0,0,0,3.712,3.488,3.5,3.5,0,0,0,3.712-3.488,3.5,3.5,0,0,0-3.712-3.5A3.505,3.505,0,0,0,70.8-8.416Zm1.424,0a2.181,2.181,0,0,1,2.288-2.24,2.185,2.185,0,0,1,2.3,2.24,2.178,2.178,0,0,1-2.3,2.208A2.173,2.173,0,0,1,72.224-8.416ZM72.976.928h9.552v-1.2h-8.1V-3.664H72.976ZM90.192-9.408v1.2h2.064v5.5h1.376v-9.92H92.256v3.216Zm-5.728,4,.816,1.12a5.606,5.606,0,0,0,2.752-3.168A5.1,5.1,0,0,0,90.608-4.64l.8-1.1A4.577,4.577,0,0,1,88.72-9.9v-2H87.312v2A5.1,5.1,0,0,1,84.464-5.408ZM87.136.928h9.68v-1.2H88.592V-3.584H87.136ZM95.024-2.32h1.392V-12.88H95.024Zm13.664-10.592v5.264h-2.8v1.184h2.8V1.248h1.456v-14.16ZM99.12-2.1h1.088a34.992,34.992,0,0,0,6.4-.432l-.144-1.184a31.514,31.514,0,0,1-5.9.416V-6.512h4.5V-7.68h-4.5v-2.752h5.088v-1.184H99.12Z" transform="translate(412 1318)" fill="#1f1f1f"/>
            </g>
            <g id="item-9" data-name="item" transform="translate(0 166)">
              <g id="base-6" data-name="base" transform="translate(260 1283)" fill="#fff" stroke="#dbdbdb" stroke-width="1">
                <rect width="416" height="60" rx="4" stroke="none"/>
                <rect x="0.5" y="0.5" width="415" height="59" rx="3.5" fill="none"/>
              </g>
              <path id="Education_Media_Center" data-name="Education Media Center" d="M1.888-11.536v1.2H10.48v.32A30.248,30.248,0,0,1,10-3.856l1.44.16a31.186,31.186,0,0,0,.5-6.32v-1.52ZM.592-.688H13.36V-1.9H8.56V-6.512H7.12V-1.9H5.056V-6.512H3.616V-1.9H.592ZM14.576-6.144V-4.96h3.28V-3.3H16v1.168h8.3v3.36H25.76V-3.3H24.032V-4.96h3.3V-6.144Zm1.376-3.712c0,1.712,1.952,2.736,4.992,2.736,3.056,0,5.008-1.024,5.008-2.736,0-1.7-1.952-2.7-5.008-2.7C17.9-12.56,15.952-11.552,15.952-9.856Zm1.5,0c0-.992,1.328-1.568,3.488-1.568,2.176,0,3.5.576,3.5,1.568,0,1.008-1.328,1.568-3.5,1.568C18.784-8.288,17.456-8.848,17.456-9.856ZM19.312-3.3V-4.96h3.3V-3.3Zm10.016-8.24v9.264h6.56v-9.264Zm1.44,8.08v-6.912h3.7v6.912Zm7.9,4.7h1.456v-14.16H38.672ZM52.656-12.9V1.248h1.456V-12.9ZM43.44-2.224h1.152a34.153,34.153,0,0,0,6.816-.464L51.264-3.92a31.445,31.445,0,0,1-6.384.464v-6.9h5.264v-1.216h-6.7Zm16.864-9.6c-2.064,0-3.536,1.9-3.536,4.944,0,3.024,1.472,4.96,3.536,4.96,1.952,0,3.392-1.728,3.536-4.48h2.9V1.248h1.456v-14.16H66.736v5.344H63.824C63.616-10.208,62.208-11.824,60.3-11.824ZM58.144-6.88c0-2.24.88-3.632,2.16-3.632,1.3,0,2.16,1.392,2.16,3.632S61.6-3.232,60.3-3.232C59.024-3.232,58.144-4.64,58.144-6.88ZM76.208-9.408v1.2h2.064v5.5h1.376v-9.92H78.272v3.216Zm-5.728,4,.816,1.12a5.606,5.606,0,0,0,2.752-3.168A5.1,5.1,0,0,0,76.624-4.64l.8-1.1A4.577,4.577,0,0,1,74.736-9.9v-2H73.328v2A5.1,5.1,0,0,1,70.48-5.408ZM73.152.928h9.68v-1.2H74.608V-3.584H73.152ZM81.04-2.32h1.392V-12.88H81.04ZM94.7-12.912v5.264H91.9v1.184h2.8V1.248H96.16v-14.16ZM85.136-2.1h1.088a34.992,34.992,0,0,0,6.4-.432L92.48-3.712a31.513,31.513,0,0,1-5.9.416V-6.512h4.5V-7.68h-4.5v-2.752h5.088v-1.184H85.136Z" transform="translate(419 1318)" fill="#1f1f1f"/>
            </g>
            <g id="item-10" data-name="item" transform="translate(0 90)">
              <rect id="base-7" data-name="base" width="416" height="60" rx="4" transform="translate(260 1283)" fill="#f3f3f3"/>
              <path id="Education_Contents_Institute" data-name="Education Contents Institute" d="M1.888-11.536v1.2H10.48v.32A30.248,30.248,0,0,1,10-3.856l1.44.16a31.186,31.186,0,0,0,.5-6.32v-1.52ZM.592-.688H13.36V-1.9H8.56V-6.512H7.12V-1.9H5.056V-6.512H3.616V-1.9H.592ZM14.576-6.144V-4.96h3.28V-3.3H16v1.168h8.3v3.36H25.76V-3.3H24.032V-4.96h3.3V-6.144Zm1.376-3.712c0,1.712,1.952,2.736,4.992,2.736,3.056,0,5.008-1.024,5.008-2.736,0-1.7-1.952-2.7-5.008-2.7C17.9-12.56,15.952-11.552,15.952-9.856Zm1.5,0c0-.992,1.328-1.568,3.488-1.568,2.176,0,3.5.576,3.5,1.568,0,1.008-1.328,1.568-3.5,1.568C18.784-8.288,17.456-8.848,17.456-9.856ZM19.312-3.3V-4.96h3.3V-3.3ZM30.048-12.24v1.184H38.32v.048c0,.448,0,.88-.016,1.36l-8.592.256L29.9-8.16l8.336-.4a16.764,16.764,0,0,1-.3,2.112l1.44.1a21.553,21.553,0,0,0,.384-4.656V-12.24ZM28.576-4.288H41.3V-5.456H35.1V-7.424H33.632v1.968H28.576ZM30.16,1.024h9.9v-1.2H31.616V-3.152H30.16ZM48.608-8.928v1.184h1.728v5.072h1.376v-9.936H50.336v3.68Zm-5.44,4.352h.912a24.339,24.339,0,0,0,5.152-.368L49.1-6.1a23.65,23.65,0,0,1-4.528.352V-7.632h3.376V-8.784H44.576V-10.56H48.5v-1.184H43.168Zm2.1,5.5H54.88v-1.2H46.72v-3.2H45.264ZM53.072-2.32H54.48V-12.9H53.072Zm3.456.56V-.544H69.312V-1.76ZM57.2-5.168l.576,1.184a7.079,7.079,0,0,0,5.136-3.344,7.142,7.142,0,0,0,5.152,3.344l.544-1.184c-2.832-.48-4.912-2.24-4.944-4.384h4.464V-10.72h-4.48v-1.888H62.192v1.888h-4.48v1.168h4.48C62.16-7.408,60.048-5.648,57.2-5.168ZM80.672-12.9v8.32H77.856v1.024h2.816V-2.16h1.456V-12.9ZM70.432-6.432l.192,1.2c1.136,0,2.448-.016,3.808-.08V-2.64h1.456V-5.392c1.248-.08,2.512-.208,3.712-.4l-.1-1.056A75.242,75.242,0,0,1,70.432-6.432Zm1.088-3.44c0,1.5,1.424,2.48,3.488,2.48s3.472-.976,3.472-2.48c0-1.488-1.408-2.464-3.472-2.464S71.52-11.36,71.52-9.872Zm.864,10.8h10.08v-1.2H73.84V-3.2H72.384Zm.528-10.8c0-.848.864-1.392,2.1-1.392s2.08.544,2.08,1.392c0,.864-.848,1.392-2.08,1.392S72.912-9.008,72.912-9.872Z" transform="translate(426 1318)" fill="#1f1f1f"/>
            </g>
          </g>
          <g id="item-11" data-name="item" transform="translate(0 90)">
            <rect id="base-8" data-name="base" width="416" height="60" rx="4" transform="translate(260 1283)" fill="#f3f3f3"/>
            <path id="Student_Success_Institute" data-name="Student Success Institute" d="M.624-11.456v1.168H8.96v-1.168H5.52v-1.52H4.064v1.52Zm.768,4.4c0,1.552,1.376,2.544,3.392,2.544,2.032,0,3.408-.992,3.408-2.544S6.816-9.632,4.784-9.632C2.768-9.632,1.392-8.608,1.392-7.056Zm.976,4.9h7.744V1.232h1.472V-3.344H2.368Zm.416-4.9c0-.9.8-1.44,2-1.44s2,.544,2,1.44c0,.864-.8,1.44-2,1.44S2.784-6.192,2.784-7.056Zm7.328,2.992h1.472V-7.84h2.032V-9.056H11.584V-12.88H10.112Zm7.312-7.968v1.84a4.759,4.759,0,0,1-2.9,4.224L15.3-4.832a5.39,5.39,0,0,0,2.848-3.056,4.9,4.9,0,0,0,2.72,2.64l.768-1.1a4.2,4.2,0,0,1-2.8-3.84v-1.84ZM17.072-1.36c0,1.616,1.824,2.56,4.736,2.56,2.928,0,4.752-.944,4.752-2.56,0-1.6-1.824-2.544-4.752-2.544C18.9-3.9,17.072-2.96,17.072-1.36Zm1.44,0c0-.9,1.248-1.424,3.3-1.424,2.064,0,3.28.528,3.28,1.424C25.088-.448,23.872.1,21.808.1,19.76.1,18.512-.448,18.512-1.36ZM22.08-4.64h1.376V-7.984h1.632v3.792H26.5V-12.88H25.088v3.7H23.456v-3.424H22.08ZM32.048-12.1V-10.7a5.028,5.028,0,0,1-3.536,4.768l.768,1.184a5.893,5.893,0,0,0,3.536-3.5A5.583,5.583,0,0,0,36.1-5.168L36.88-6.32A4.708,4.708,0,0,1,33.5-10.768V-12.1ZM30.784-1.472C30.784.24,32.592,1.2,35.536,1.2c2.928,0,4.72-.96,4.72-2.672,0-1.7-1.792-2.688-4.72-2.688C32.592-4.16,30.784-3.168,30.784-1.472Zm1.472,0c0-.976,1.2-1.536,3.28-1.536,2.048,0,3.28.56,3.28,1.536S37.584.064,35.536.064C33.456.064,32.256-.5,32.256-1.472Zm3.52-7.312h2.96V-4.56h1.456v-8.32H38.736V-10h-2.96ZM48.864-4c-3.008,0-4.928.976-4.928,2.608s1.92,2.608,4.928,2.608S53.808.24,53.808-1.392,51.872-4,48.864-4Zm-6.3-1.2H55.28V-6.368H49.12V-9.024H47.68v2.656H42.56Zm1.488-5.808H52.24v.016a13.142,13.142,0,0,1-.368,3.584l1.44.16a13.513,13.513,0,0,0,.384-3.744v-1.2H44.048Zm1.344,9.616c0-.928,1.328-1.488,3.472-1.488s3.488.56,3.488,1.488S51.008.1,48.864.1,45.392-.464,45.392-1.392Zm21.3-11.5v8.32H63.872v1.024h2.816V-2.16h1.456V-12.9ZM56.448-6.432l.192,1.2c1.136,0,2.448-.016,3.808-.08V-2.64H61.9V-5.392c1.248-.08,2.512-.208,3.712-.4l-.1-1.056A75.242,75.242,0,0,1,56.448-6.432Zm1.088-3.44c0,1.5,1.424,2.48,3.488,2.48S64.5-8.368,64.5-9.872c0-1.488-1.408-2.464-3.472-2.464S57.536-11.36,57.536-9.872ZM58.4.928H68.48v-1.2H59.856V-3.2H58.4Zm.528-10.8c0-.848.864-1.392,2.1-1.392s2.08.544,2.08,1.392c0,.864-.848,1.392-2.08,1.392S58.928-9.008,58.928-9.872Z" transform="translate(433 1318)" fill="#1f1f1f"/>
          </g>
          <g id="item-12" data-name="item" transform="translate(0 14)">
            <rect id="base-9" data-name="base" width="416" height="60" rx="4" transform="translate(260 1283)" fill="#f3f3f3"/>
            <path id="Global_Initiative_Institute" data-name="Global Initiative Institute" d="M2.224-12.3v1.184h8.112a16.484,16.484,0,0,1-.32,3.424H.592v1.168H13.376V-7.7h-1.9a18.62,18.62,0,0,0,.288-3.664V-12.3ZM2.08-4.064h8.272v1.408H2.128V1.088H12.144V-.08H3.568V-1.552h8.224V-5.216H2.08Zm12.5,2.384v1.2H27.36v-1.2H21.68V-4.208h4.464V-5.392h-8.56V-7.52h8.24v-4.368H16.112V-10.7h8.256v2.032H16.144v4.464h4.08V-1.68Zm24.192-11.2v3.072H35.68v-2.448H34.24v1.92H30.688v-1.92H29.232V-6.1H35.68V-8.64h3.088V-5.6h1.44v-7.28Zm-8.08,5.616V-9.2H34.24v1.936Zm.384,3.488h7.7v1.232H31.1V1.04h9.6V-.112h-8.16v-1.36h7.664V-4.944H31.072Zm18.7-5.872v1.216h2.96v6.08h1.456V-12.88H52.736v3.232ZM42.528-5.456,43.3-4.3a5.934,5.934,0,0,0,3.456-3.584,5.872,5.872,0,0,0,3.3,3.248l.768-1.136a4.927,4.927,0,0,1-3.36-4.544v-1.728H46v1.7A5.241,5.241,0,0,1,42.528-5.456ZM45.056.928h9.472v-1.2H46.512V-3.5H45.056ZM58.128-11.808v6.624h4.048v3.456H56.528V-.512H69.312V-1.728h-5.68V-5.184h4.24v-1.2H59.584v-4.24h8.144v-1.184ZM80.672-12.9v8.32H77.856v1.024h2.816V-2.16h1.456V-12.9ZM70.432-6.432l.192,1.2c1.136,0,2.448-.016,3.808-.08V-2.64h1.456V-5.392c1.248-.08,2.512-.208,3.712-.4l-.1-1.056A75.242,75.242,0,0,1,70.432-6.432Zm1.088-3.44c0,1.5,1.424,2.48,3.488,2.48s3.472-.976,3.472-2.48c0-1.488-1.408-2.464-3.472-2.464S71.52-11.36,71.52-9.872Zm.864,10.8h10.08v-1.2H73.84V-3.2H72.384Zm.528-10.8c0-.848.864-1.392,2.1-1.392s2.08.544,2.08,1.392c0,.864-.848,1.392-2.08,1.392S72.912-9.008,72.912-9.872Z" transform="translate(426 1318)" fill="#1f1f1f"/>
          </g>
          <g id="item-13" data-name="item" transform="translate(0 -62)">
            <rect id="base-10" data-name="base" width="416" height="60" rx="4" transform="translate(260 1283)" fill="#f3f3f3"/>
            <path id="Education_Innovation_Institute" data-name="Education Innovation Institute" d="M1.888-11.536v1.2H10.48v.32A30.248,30.248,0,0,1,10-3.856l1.44.16a31.186,31.186,0,0,0,.5-6.32v-1.52ZM.592-.688H13.36V-1.9H8.56V-6.512H7.12V-1.9H5.056V-6.512H3.616V-1.9H.592ZM14.576-6.144V-4.96h3.28V-3.3H16v1.168h8.3v3.36H25.76V-3.3H24.032V-4.96h3.3V-6.144Zm1.376-3.712c0,1.712,1.952,2.736,4.992,2.736,3.056,0,5.008-1.024,5.008-2.736,0-1.7-1.952-2.7-5.008-2.7C17.9-12.56,15.952-11.552,15.952-9.856Zm1.5,0c0-.992,1.328-1.568,3.488-1.568,2.176,0,3.5.576,3.5,1.568,0,1.008-1.328,1.568-3.5,1.568C18.784-8.288,17.456-8.848,17.456-9.856ZM19.312-3.3V-4.96h3.3V-3.3Zm9.264-8.192v1.168h7.872v-1.168H33.312v-1.52H31.84v1.52Zm.768,4.512c0,1.568,1.344,2.672,3.216,2.672s3.216-1.1,3.216-2.672S34.432-9.632,32.56-9.632,29.344-8.544,29.344-6.976Zm1.376,0c0-.928.752-1.52,1.84-1.52s1.856.592,1.856,1.52S33.648-5.44,32.56-5.44,30.72-6.048,30.72-6.976Zm.016,4.992h8V1.232h1.456V-3.152H30.736Zm5.712-3.664h2.288v1.712h1.456V-12.88H38.736v3.392H36.48V-8.32h2.256v1.488H36.448ZM52.672-12.88V-2.56h1.456V-12.88ZM42.64-5.712l.768,1.152A6.012,6.012,0,0,0,46.88-8.176,5.887,5.887,0,0,0,50.3-4.8l.768-1.168a5.045,5.045,0,0,1-3.472-4.72v-1.424H46.128v1.424A5.361,5.361,0,0,1,42.64-5.712ZM44.992.928H54.56v-1.2h-8.1V-3.52H44.992ZM66.688-12.9v8.32H63.872v1.024h2.816V-2.16h1.456V-12.9ZM56.448-6.432l.192,1.2c1.136,0,2.448-.016,3.808-.08V-2.64H61.9V-5.392c1.248-.08,2.512-.208,3.712-.4l-.1-1.056A75.242,75.242,0,0,1,56.448-6.432Zm1.088-3.44c0,1.5,1.424,2.48,3.488,2.48S64.5-8.368,64.5-9.872c0-1.488-1.408-2.464-3.472-2.464S57.536-11.36,57.536-9.872ZM58.4.928H68.48v-1.2H59.856V-3.2H58.4Zm.528-10.8c0-.848.864-1.392,2.1-1.392s2.08.544,2.08,1.392c0,.864-.848,1.392-2.08,1.392S58.928-9.008,58.928-9.872Z" transform="translate(433 1318)" fill="#1f1f1f"/>
          </g>
        </g>
      </g>
      <g id="set-2" data-name="set" transform="translate(492)">
        <g id="oval-5" data-name="oval" transform="translate(460 1181)" fill="#999" stroke="#fff" stroke-width="3">
          <circle cx="8" cy="8" r="8" stroke="none"/>
          <circle cx="8" cy="8" r="6.5" fill="none"/>
        </g>
        <path id="line-5" data-name="line" d="M9922,15099v-328" transform="translate(-9454 -13574)" fill="none" stroke="#999" stroke-width="1"/>
        <g id="items-2" data-name="items">
          <g id="item-14" data-name="item" transform="translate(0 242)">
            <path id="base-11" data-name="base" d="M4,0H412a4,4,0,0,1,4,4V56a4,4,0,0,1-4,4H4a4,4,0,0,1-4-4V4A4,4,0,0,1,4,0Z" transform="translate(260 1283)" fill="#f3f3f3"/>
            <path id="School_of_Business_Innovation" data-name="School of Business Innovation" d="M10.7-12.912V1.248H12.16v-14.16ZM1.36-2.144H8.08v-9.568H6.64v3.648H2.816v-3.648H1.36ZM2.816-3.328V-6.912H6.64v3.584Zm11.76,1.5V-.608H27.36V-1.824Zm.608-3.52.592,1.168a7.479,7.479,0,0,0,5.2-3.664,7.447,7.447,0,0,0,5.248,3.632l.592-1.184c-2.64-.416-5.088-2.32-5.088-4.512v-.448h4.544v-1.2H15.648v1.2h4.544V-9.9C20.192-7.712,17.76-5.76,15.184-5.344ZM38.72-12.9V1.216h1.44V-12.9ZM29.408-2.384h1.2a33.213,33.213,0,0,0,6.912-.672l-.192-1.232a32.218,32.218,0,0,1-6.464.656V-11.52H29.408Zm18.7-9.584V-10.9c0,2.32-2.464,4.48-5.088,4.976l.64,1.2A7.575,7.575,0,0,0,48.88-8.672,7.585,7.585,0,0,0,54.1-4.72l.656-1.2c-2.656-.48-5.1-2.64-5.1-4.976v-1.072ZM42.544-.656H55.328v-1.2H42.544Zm14-10.832v1.168h7.872v-1.168H61.28v-1.52H59.808v1.52Zm.768,4.512c0,1.568,1.344,2.672,3.216,2.672s3.216-1.1,3.216-2.672S62.4-9.632,60.528-9.632,57.312-8.544,57.312-6.976Zm1.376,0c0-.928.752-1.52,1.84-1.52s1.856.592,1.856,1.52S61.616-5.44,60.528-5.44,58.688-6.048,58.688-6.976ZM58.7-1.984h8V1.232H68.16V-3.152H58.7Zm5.712-3.664H66.7v1.712H68.16V-12.88H66.7v3.392H64.448V-8.32H66.7v1.488H64.416ZM80.64-12.88V-2.56H82.1V-12.88ZM70.608-5.712l.768,1.152a6.012,6.012,0,0,0,3.472-3.616A5.887,5.887,0,0,0,78.272-4.8l.768-1.168a5.045,5.045,0,0,1-3.472-4.72v-1.424H74.1v1.424A5.361,5.361,0,0,1,70.608-5.712ZM72.96.928h9.568v-1.2h-8.1V-3.52H72.96ZM84.528-11.456v1.168h8.336v-1.168h-3.44v-1.52H87.968v1.52Zm.768,4.4c0,1.552,1.376,2.544,3.392,2.544,2.032,0,3.408-.992,3.408-2.544S90.72-9.632,88.688-9.632C86.672-9.632,85.3-8.608,85.3-7.056Zm.976,4.9h7.744V1.232h1.472V-3.344H86.272Zm.416-4.9c0-.9.8-1.44,2-1.44s2,.544,2,1.44c0,.864-.8,1.44-2,1.44S86.688-6.192,86.688-7.056Zm7.328,2.992h1.472V-7.84H97.52V-9.056H95.488V-12.88H94.016Zm4.464-.5v1.168h5.632V1.232h1.44V-3.392h5.712V-4.56Zm1.584-1.616h9.584V-12.3h-1.44v1.84h-6.7V-12.3h-1.44ZM101.5-7.36V-9.3h6.7V-7.36Z" transform="translate(412 1318)" fill="#1f1f1f"/>
          </g>
          <g id="item-15" data-name="item" transform="translate(0 166)">
            <rect id="base-12" data-name="base" width="416" height="60" rx="4" transform="translate(260 1283)" fill="#f3f3f3"/>
            <path id="School_of_Data_Science_Artificial_Intelligence" data-name="School of Data Science &amp; Artificial Intelligence" d="M11.216-12.9V1.216h1.392V-12.9ZM1.088-2.112h.928a23.442,23.442,0,0,0,5.168-.4L7.056-3.728a20.273,20.273,0,0,1-4.528.4V-10H6.416v-1.2H1.088Zm4.368-4.24h2.9V.512H9.728V-12.576H8.352v5.008h-2.9Zm19.232-6.56V1.248h1.456v-14.16ZM15.056-6.88c0,3.024,1.5,4.96,3.616,4.96,2.1,0,3.616-1.936,3.616-4.96,0-3.04-1.52-4.944-3.616-4.944C16.56-11.824,15.056-9.92,15.056-6.88Zm1.408,0c0-2.24.912-3.632,2.208-3.632S20.88-9.12,20.88-6.88s-.912,3.648-2.208,3.648S16.464-4.64,16.464-6.88Zm22.3-6.032v5.264h-2.8v1.184h2.8V1.248h1.456v-14.16ZM29.2-2.1h1.088a34.992,34.992,0,0,0,6.4-.432l-.144-1.184a31.513,31.513,0,0,1-5.9.416V-6.512h4.5V-7.68h-4.5v-2.752h5.088v-1.184H29.2Zm13.968-9.3v1.2H48.9a30.338,30.338,0,0,1-.4,5.1l1.424.128a33.318,33.318,0,0,0,.4-5.568v-.864ZM42.4-3.008l.176,1.2a55.476,55.476,0,0,0,8.656-.544l-.08-1.056c-1.392.176-2.928.272-4.432.32V-7.344H45.28v4.3C44.256-3.024,43.28-3.008,42.4-3.008Zm9.568,4.224h1.44v-7.04H55.6V-7.04H53.408V-12.9h-1.44ZM56.56-11.456v1.168H64.9v-1.168h-3.44v-1.52H60v1.52Zm.768,4.4c0,1.552,1.376,2.544,3.392,2.544,2.032,0,3.408-.992,3.408-2.544S62.752-9.632,60.72-9.632C58.7-9.632,57.328-8.608,57.328-7.056Zm.976,4.9h7.744V1.232H67.52V-3.344H58.3Zm.416-4.9c0-.9.8-1.44,2-1.44s2,.544,2,1.44c0,.864-.8,1.44-2,1.44S58.72-6.192,58.72-7.056Zm7.328,2.992H67.52V-7.84h2.032V-9.056H67.52V-12.88H66.048Zm5.088-7.328v1.2h5.728a30.337,30.337,0,0,1-.4,5.1l1.424.128a33.318,33.318,0,0,0,.4-5.568v-.864Zm-.768,8.384.176,1.2A55.475,55.475,0,0,0,79.2-2.352l-.08-1.056c-1.392.176-2.928.272-4.432.32V-7.344h-1.44v4.3C72.224-3.024,71.248-3.008,70.368-3.008Zm9.568,4.224h1.44v-7.04h2.192V-7.04H81.376V-12.9h-1.44ZM98.3-12.88V-2.624h1.472V-12.88Zm-9.84,4.464a3.512,3.512,0,0,0,3.712,3.488,3.5,3.5,0,0,0,3.712-3.488,3.5,3.5,0,0,0-3.712-3.5A3.505,3.505,0,0,0,88.464-8.416Zm1.424,0a2.181,2.181,0,0,1,2.288-2.24,2.185,2.185,0,0,1,2.3,2.24,2.178,2.178,0,0,1-2.3,2.208A2.173,2.173,0,0,1,89.888-8.416ZM90.64.928h9.552v-1.2H92.1V-3.664H90.64ZM108.48-4c-3.008,0-4.928.976-4.928,2.608s1.92,2.608,4.928,2.608,4.944-.976,4.944-2.608S111.488-4,108.48-4Zm-6.3-1.2H114.9V-6.368h-6.16V-9.024H107.3v2.656h-5.12Zm1.488-5.808h8.192v.016a13.141,13.141,0,0,1-.368,3.584l1.44.16a13.513,13.513,0,0,0,.384-3.744v-1.2h-9.648Zm1.344,9.616c0-.928,1.328-1.488,3.472-1.488s3.488.56,3.488,1.488S110.624.1,108.48.1,105.008-.464,105.008-1.392Zm11.568-10.08v1.216h3.216v1.568a7.121,7.121,0,0,1-3.68,6.064l.832,1.152a7.562,7.562,0,0,0,3.584-4.544,7.123,7.123,0,0,0,3.616,4.192l.816-1.152a6.5,6.5,0,0,1-3.712-5.712v-1.568h3.232v-1.216Zm9.664,12.7H127.7V-12.88H126.24Zm5.6-13.84v4.736h9.616V-9.056H133.3v-3.552Zm-1.7,7.456H142.9V-6.336H130.144Zm1.5,3.744c0,1.648,1.824,2.592,4.848,2.592,3.008,0,4.848-.944,4.848-2.592,0-1.632-1.84-2.56-4.848-2.56C133.472-3.968,131.648-3.04,131.648-1.408Zm1.472,0c0-.928,1.248-1.424,3.376-1.424s3.36.5,3.36,1.424S138.624.032,136.5.032,133.12-.48,133.12-1.408Zm11.024-10.048v1.168h8.336v-1.168h-3.44v-1.52h-1.456v1.52Zm.768,4.4c0,1.552,1.376,2.544,3.392,2.544,2.032,0,3.408-.992,3.408-2.544s-1.376-2.576-3.408-2.576C146.288-9.632,144.912-8.608,144.912-7.056Zm.976,4.9h7.744V1.232H155.1V-3.344h-9.216Zm.416-4.9c0-.9.8-1.44,2-1.44s2,.544,2,1.44c0,.864-.8,1.44-2,1.44S146.3-6.192,146.3-7.056Zm7.328,2.992H155.1V-7.84h2.032V-9.056H155.1V-12.88h-1.472Zm4.464-.5v1.168h5.632V1.232h1.44V-3.392h5.712V-4.56Zm1.584-1.616h9.584V-12.3h-1.44v1.84h-6.7V-12.3h-1.44Zm1.44-1.184V-9.3h6.7V-7.36Z" transform="translate(383 1318)" fill="#1f1f1f"/>
          </g>
          <g id="item-16" data-name="item" transform="translate(0 90)">
            <rect id="base-13" data-name="base" width="416" height="60" rx="4" transform="translate(260 1283)" fill="#f3f3f3"/>
            <path id="School_of_Natural_Sciences" data-name="School of Natural Sciences" d="M.848-11.472v1.216H4.016v1.568A7.223,7.223,0,0,1,.352-2.624L1.2-1.472a7.754,7.754,0,0,0,3.536-4.56A7.292,7.292,0,0,0,8.208-1.824L9.04-2.976A6.68,6.68,0,0,1,5.456-8.688v-1.568H8.5v-1.216Zm9.168,12.7h1.472V-6.032h2.24V-7.248h-2.24V-12.88H10.016ZM24.768-12.88v2.128H21.28A3.682,3.682,0,0,0,18.432-12a3.493,3.493,0,0,0-3.648,3.568A3.477,3.477,0,0,0,18.432-4.9,3.7,3.7,0,0,0,21.3-6.16h3.472V-2.5h1.456V-12.88ZM16.16-8.432A2.184,2.184,0,0,1,18.432-10.7a2.18,2.18,0,0,1,2.256,2.272A2.18,2.18,0,0,1,18.432-6.16,2.184,2.184,0,0,1,16.16-8.432Zm.976,9.36h9.472v-1.2h-8v-3.28H17.136Zm4.8-10.48h2.832V-7.36H21.936a3.343,3.343,0,0,0,.16-1.072A4.207,4.207,0,0,0,21.936-9.552Zm7.248-1.84v1.2h5.728a30.338,30.338,0,0,1-.4,5.1l1.424.128a33.318,33.318,0,0,0,.4-5.568v-.864Zm-.768,8.384.176,1.2a55.475,55.475,0,0,0,8.656-.544l-.08-1.056c-1.392.176-2.928.272-4.432.32V-7.344H31.3v4.3C30.272-3.024,29.3-3.008,28.416-3.008Zm9.568,4.224h1.44v-7.04h2.192V-7.04H39.424V-12.9h-1.44Zm4.592-12.672v1.168h8.336v-1.168h-3.44v-1.52H46.016v1.52Zm.768,4.4c0,1.552,1.376,2.544,3.392,2.544,2.032,0,3.408-.992,3.408-2.544s-1.376-2.576-3.408-2.576C44.72-9.632,43.344-8.608,43.344-7.056Zm.976,4.9h7.744V1.232h1.472V-3.344H44.32Zm.416-4.9c0-.9.8-1.44,2-1.44s2,.544,2,1.44c0,.864-.8,1.44-2,1.44S44.736-6.192,44.736-7.056Zm7.328,2.992h1.472V-7.84h2.032V-9.056H53.536V-12.88H52.064Zm4.464-.5v1.168H62.16V1.232H63.6V-3.392h5.712V-4.56Zm1.584-1.616H67.7V-12.3h-1.44v1.84h-6.7V-12.3h-1.44Zm1.44-1.184V-9.3h6.7V-7.36Z" transform="translate(433 1318)" fill="#1f1f1f"/>
          </g>
          <g id="item-17" data-name="item" transform="translate(0 14)">
            <rect id="base-14" data-name="base" width="416" height="60" rx="4" transform="translate(260 1283)" fill="#f3f3f3"/>
            <path id="School_of_Humanities_Social_Sciences" data-name="School of Humanities &amp; Social Sciences" d="M10.72-12.88V-2.624h1.472V-12.88ZM.88-8.416A3.512,3.512,0,0,0,4.592-4.928,3.5,3.5,0,0,0,8.3-8.416a3.5,3.5,0,0,0-3.712-3.5A3.505,3.505,0,0,0,.88-8.416Zm1.424,0a2.181,2.181,0,0,1,2.288-2.24,2.185,2.185,0,0,1,2.3,2.24,2.178,2.178,0,0,1-2.3,2.208A2.173,2.173,0,0,1,2.3-8.416ZM3.056.928h9.552v-1.2h-8.1V-3.664H3.056Zm11.5-6.64v1.168h5.776v2.752h1.472V-4.544h5.536V-5.712ZM16.16.944h9.776v-1.2h-8.32V-3.12H16.16Zm.032-8.16h9.5V-12.24h-9.5Zm1.424-1.168v-2.688h6.64v2.688ZM31.968-11.7v2.4a7.27,7.27,0,0,1-3.616,6.352l.88,1.184A7.62,7.62,0,0,0,32.7-6.3a7.231,7.231,0,0,0,3.328,4.272l.88-1.152A7.021,7.021,0,0,1,33.392-9.3v-2.4ZM37.984,1.232h1.472V-6.016h2.256V-7.248H39.456V-12.88H37.984ZM52.624-12.88V1.232H54.1V-12.88ZM42.608-2.608,42.8-1.392a54.029,54.029,0,0,0,9.072-.56l-.1-1.072c-1.232.16-2.544.256-3.856.32V-4.1c1.616-.224,2.672-1.184,2.672-2.56,0-1.584-1.392-2.624-3.424-2.624S43.76-8.24,43.76-6.656c0,1.392,1.056,2.352,2.688,2.56V-2.64C45.072-2.608,43.76-2.608,42.608-2.608Zm.288-7.424h8.56V-11.2H47.92v-1.664H46.448V-11.2H42.9Zm2.24,3.376c0-.928.848-1.5,2.032-1.5,1.216,0,2.048.576,2.048,1.5,0,.912-.832,1.488-2.048,1.488C45.984-5.168,45.136-5.744,45.136-6.656Zm11.424-4.8v1.168H64.9v-1.168h-3.44v-1.52H60v1.52Zm.768,4.4c0,1.552,1.376,2.544,3.392,2.544,2.032,0,3.408-.992,3.408-2.544S62.752-9.632,60.72-9.632C58.7-9.632,57.328-8.608,57.328-7.056Zm.976,4.9h7.744V1.232H67.52V-3.344H58.3Zm.416-4.9c0-.9.8-1.44,2-1.44s2,.544,2,1.44c0,.864-.8,1.44-2,1.44S58.72-6.192,58.72-7.056Zm7.328,2.992H67.52V-7.84h2.032V-9.056H67.52V-12.88H66.048Zm4.464-.5v1.168h5.632V1.232h1.44V-3.392H83.3V-4.56ZM72.1-6.176H81.68V-12.3H80.24v1.84h-6.7V-12.3H72.1Zm1.44-1.184V-9.3h6.7V-7.36Z" transform="translate(426 1318)" fill="#1f1f1f"/>
          </g>
          <g id="item-18" data-name="item" transform="translate(0 -62)">
            <rect id="base-15" data-name="base" width="416" height="60" rx="4" transform="translate(260 1283)" fill="#f3f3f3"/>
            <path id="School_of_Innovation_Foundations" data-name="School of Innovation Foundations" d="M.608-11.488v1.168H8.48v-1.168H5.344v-1.52H3.872v1.52Zm.768,4.512C1.376-5.408,2.72-4.3,4.592-4.3s3.216-1.1,3.216-2.672S6.464-9.632,4.592-9.632,1.376-8.544,1.376-6.976Zm1.376,0c0-.928.752-1.52,1.84-1.52s1.856.592,1.856,1.52S5.68-5.44,4.592-5.44,2.752-6.048,2.752-6.976Zm.016,4.992h8V1.232h1.456V-3.152H2.768ZM8.48-5.648h2.288v1.712h1.456V-12.88H10.768v3.392H8.512V-8.32h2.256v1.488H8.48ZM24.7-12.88V-2.56H26.16V-12.88ZM14.672-5.712,15.44-4.56a6.012,6.012,0,0,0,3.472-3.616A5.887,5.887,0,0,0,22.336-4.8L23.1-5.968a5.045,5.045,0,0,1-3.472-4.72v-1.424H18.16v1.424A5.361,5.361,0,0,1,14.672-5.712ZM17.024.928h9.568v-1.2H18.5V-3.52H17.024ZM38.7-12.9V1.216h1.472V-12.9ZM28.688-2.512l.768,1.152C34.256-3.68,36-7.248,36-11.392H29.36v1.184h5.168C34.24-6.9,32.432-4.32,28.688-2.512Zm13.856.768V-.528H55.328V-1.744H49.664V-4.832H48.208v3.088Zm.64-3.76.544,1.152a7.026,7.026,0,0,0,5.2-3.136,7.023,7.023,0,0,0,5.184,3.136L54.688-5.5c-2.88-.416-4.96-2.048-5.008-4.064h4.464v-1.184h-4.48V-12.64H48.208v1.888h-4.48v1.184h4.48C48.16-7.552,46.048-5.92,43.184-5.5ZM56.56-11.456v1.168H64.9v-1.168h-3.44v-1.52H60v1.52Zm.768,4.4c0,1.552,1.376,2.544,3.392,2.544,2.032,0,3.408-.992,3.408-2.544S62.752-9.632,60.72-9.632C58.7-9.632,57.328-8.608,57.328-7.056Zm.976,4.9h7.744V1.232H67.52V-3.344H58.3Zm.416-4.9c0-.9.8-1.44,2-1.44s2,.544,2,1.44c0,.864-.8,1.44-2,1.44S58.72-6.192,58.72-7.056Zm7.328,2.992H67.52V-7.84h2.032V-9.056H67.52V-12.88H66.048Zm4.464-.5v1.168h5.632V1.232h1.44V-3.392H83.3V-4.56ZM72.1-6.176H81.68V-12.3H80.24v1.84h-6.7V-12.3H72.1Zm1.44-1.184V-9.3h6.7V-7.36Z" transform="translate(426 1318)" fill="#1f1f1f"/>
          </g>
        </g>
      </g>
      <g id="set-3" data-name="set">
        <g id="oval-6" data-name="oval" transform="translate(460 1181)" fill="#999" stroke="#fff" stroke-width="3">
          <circle cx="8" cy="8" r="8" stroke="none"/>
          <circle cx="8" cy="8" r="6.5" fill="none"/>
        </g>
        <path id="line-6" data-name="line" d="M9922,15176.236V14771" transform="translate(-9454 -13574)" fill="none" stroke="#999" stroke-width="1"/>
        <g id="items-3" data-name="items">
          <g id="item-19" data-name="item" transform="translate(0 242)">
            <rect id="base-16" data-name="base" width="416" height="60" rx="4" transform="translate(260 1283)" fill="#f3f3f3"/>
            <path id="Office_of_Admissions" data-name="Office of Admissions" d="M10.72-12.88V-2.624h1.472V-12.88ZM.88-8.416A3.512,3.512,0,0,0,4.592-4.928,3.5,3.5,0,0,0,8.3-8.416a3.5,3.5,0,0,0-3.712-3.5A3.505,3.505,0,0,0,.88-8.416Zm1.424,0a2.181,2.181,0,0,1,2.288-2.24,2.185,2.185,0,0,1,2.3,2.24,2.178,2.178,0,0,1-2.3,2.208A2.173,2.173,0,0,1,2.3-8.416ZM3.056.928h9.552v-1.2h-8.1V-3.664H3.056ZM25.248-12.9v5.632h-1.7v-5.328H22.176V.528h1.376V-6.048h1.7V1.216H26.64V-12.9ZM14.384-2.752,15.3-1.616a6.685,6.685,0,0,0,2.832-4.176,6.112,6.112,0,0,0,2.784,3.664l.864-1.136C19.76-4.288,18.8-6.592,18.8-9.152v-.928h2.464v-1.2H14.752v1.2h2.64v.928C17.392-6.32,16.416-3.9,14.384-2.752ZM29.12-12.288v6.144h6.592v-6.144h-1.44v1.936h-3.7v-1.936ZM30.528-3.84h7.6v1.3H30.544V1.088h9.5V-.08H32V-1.456h7.568V-4.992h-9.04Zm.048-3.472v-1.92h3.7v1.92Zm7.52,1.68h1.472V-8.72h2.016v-1.2H39.568v-2.96H38.1Zm6.08-6.688v1.168h8.112a16.352,16.352,0,0,1-.3,3.312h-9.44v1.168h5.648v1.664h-4.16V-3.84H52.3v1.328H44.08v3.6H54.1V-.08H45.52V-1.472h8.224V-5.008h-4.1V-6.672h5.68V-7.84H53.44a18.286,18.286,0,0,0,.272-3.552v-.928Zm22.544-.592V-7.3H63.808V-6.08H66.72V1.248h1.456v-14.16ZM56.528-2.592l.8,1.12a7.035,7.035,0,0,0,3.44-4.256,6.762,6.762,0,0,0,3.472,4l.784-1.12a6.262,6.262,0,0,1-3.552-5.52v-.944h3.072v-1.152H61.472v-2.16h-1.44v2.16h-3.1v1.152h3.1v.944A6.56,6.56,0,0,1,56.528-2.592Z" transform="translate(433 1318)" fill="#1f1f1f"/>
          </g>
          <g id="item-20" data-name="item" transform="translate(0 318)">
            <rect id="base-17" data-name="base" width="416" height="60" rx="4" transform="translate(260 1283)" fill="#f3f3f3"/>
            <path id="Office_of_Admissions-2" data-name="Office of Admissions" d="M1.36-11.536v9.264H7.92v-9.264ZM2.8-3.456v-6.912H6.5v6.912Zm7.9,4.7H12.16v-14.16H10.7Zm4.3-12.64v1.184H18.88v2.72H15.024V-2.1h.944A27.168,27.168,0,0,0,21.2-2.48l-.112-1.184a28.193,28.193,0,0,1-4.656.352V-6.32h3.856v-5.072ZM21.984.5H23.36V-6.176h1.824V1.216h1.392V-12.9H25.184v5.52H23.36v-5.216H21.984ZM36.048-9.056v1.2h2.7v5.3h1.456V-12.88H38.752v3.824Zm-7.488,3.6.752,1.168a5.91,5.91,0,0,0,3.52-3.424,5.665,5.665,0,0,0,3.36,3.1l.72-1.152a4.736,4.736,0,0,1-3.376-4.272v-.576H36.56v-1.184H29.008v1.184H32.08v.592A5,5,0,0,1,28.56-5.456ZM31.12.928h9.472v-1.2H32.576V-3.456H31.12Zm12-12.976v1.168h4.928v1.712h-4.9v4.176h1.12A37.383,37.383,0,0,0,50.96-5.44l-.144-1.2a34.286,34.286,0,0,1-6.224.448V-8.048h4.9v-4ZM44.32-2.4h7.76V1.232h1.472V-3.584H44.32Zm7.76-1.9h1.472V-6.528h2.032V-7.744H53.552V-9.5h2.032v-1.2H53.552V-12.88H52.08Zm14.64-8.608V-7.3H63.808V-6.08H66.72V1.248h1.456v-14.16ZM56.528-2.592l.8,1.12a7.035,7.035,0,0,0,3.44-4.256,6.762,6.762,0,0,0,3.472,4l.784-1.12a6.262,6.262,0,0,1-3.552-5.52v-.944h3.072v-1.152H61.472v-2.16h-1.44v2.16h-3.1v1.152h3.1v.944A6.56,6.56,0,0,1,56.528-2.592Z" transform="translate(433 1318)" fill="#1f1f1f"/>
          </g>
          <g id="multi-3" data-name="multi">
            <g id="item-21" data-name="item" transform="translate(0 166)">
              <g id="base-18" data-name="base" transform="translate(260 1283)" fill="#fff" stroke="#dbdbdb" stroke-width="1">
                <rect width="416" height="60" rx="4" stroke="none"/>
                <rect x="0.5" y="0.5" width="415" height="59" rx="3.5" fill="none"/>
              </g>
              <path id="IT_Center" data-name="IT Center" d="M1.2,0H3.024V-11.12H1.2ZM4.848-9.632H7.824V0H9.648V-9.632h2.96V-11.12H4.848ZM23.7-9.408v1.2H25.76v5.5h1.376v-9.92H25.76v3.216Zm-5.728,4,.816,1.12a5.606,5.606,0,0,0,2.752-3.168A5.1,5.1,0,0,0,24.112-4.64l.8-1.1A4.577,4.577,0,0,1,22.224-9.9v-2H20.816v2A5.1,5.1,0,0,1,17.968-5.408ZM20.64.928h9.68v-1.2H22.1V-3.584H20.64ZM28.528-2.32H29.92V-12.88H28.528ZM42.192-12.912v5.264h-2.8v1.184h2.8V1.248h1.456v-14.16ZM32.624-2.1h1.088a34.992,34.992,0,0,0,6.4-.432l-.144-1.184a31.514,31.514,0,0,1-5.9.416V-6.512h4.5V-7.68h-4.5v-2.752h5.088v-1.184H32.624Z" transform="translate(446 1318)" fill="#1f1f1f"/>
            </g>
            <g id="item-22" data-name="item" transform="translate(0 90)">
              <rect id="base-19" data-name="base" width="416" height="60" rx="4" transform="translate(260 1283)" fill="#f3f3f3"/>
              <path id="Office_of_Digital_Information" data-name="Office of Digital Information" d="M10.7-12.9V1.248H12.16V-12.9ZM1.488-2.224H2.64a34.153,34.153,0,0,0,6.816-.464L9.312-3.92a31.445,31.445,0,0,1-6.384.464v-6.9H8.192v-1.216h-6.7Zm13.52-9.248v1.216h3.216v1.568a7.121,7.121,0,0,1-3.68,6.064l.832,1.152A7.562,7.562,0,0,0,18.96-6.016a7.123,7.123,0,0,0,3.616,4.192l.816-1.152A6.5,6.5,0,0,1,19.68-8.688v-1.568h3.232v-1.216Zm9.664,12.7h1.456V-12.88H24.672Zm4.592-13.264v6.24H30.3a35.875,35.875,0,0,0,6.144-.336L36.32-7.28a33.623,33.623,0,0,1-5.616.32V-8.432h4.56v-1.1H30.7V-10.88h4.944v-1.152Zm1.808,8.464h7.7v1.184H31.1V1.088h9.6V-.064h-8.16V-1.312h7.664V-4.7H31.072Zm5.136-4.96h2.56v3.2h1.44V-12.9h-1.44v3.184h-2.56ZM50.08-9.28v1.2h2.656V-4.5h1.456V-12.88H52.736v3.6ZM42.56-5.744,43.3-4.576a5.994,5.994,0,0,0,3.536-3.488A5.675,5.675,0,0,0,50.16-4.976L50.9-6.128a4.68,4.68,0,0,1-3.376-4.256v-.32h3.024v-1.2H42.992v1.2h3.072v.32A5.063,5.063,0,0,1,42.56-5.744Zm2.224,4.32c0,1.68,1.792,2.64,4.736,2.64,2.928,0,4.72-.96,4.72-2.64,0-1.664-1.792-2.656-4.72-2.656C46.576-4.08,44.784-3.088,44.784-1.424Zm1.456,0c0-.976,1.216-1.536,3.28-1.536,2.048,0,3.28.56,3.28,1.536C52.8-.464,51.568.1,49.52.1,47.456.1,46.24-.464,46.24-1.424ZM56.528-1.76V-.544H69.312V-1.76h-5.68V-4.688h4.192V-11.92H66.368v2.432H59.456V-11.92H58v7.232h4.176V-1.76Zm2.928-4.1V-8.3h6.912v2.448ZM80.7-12.912V-7.3H77.792V-6.08H80.7V1.248H82.16v-14.16ZM70.512-2.592l.8,1.12a7.035,7.035,0,0,0,3.44-4.256,6.762,6.762,0,0,0,3.472,4l.784-1.12a6.262,6.262,0,0,1-3.552-5.52v-.944h3.072v-1.152H75.456v-2.16h-1.44v2.16h-3.1v1.152h3.1v.944A6.56,6.56,0,0,1,70.512-2.592Z" transform="translate(426 1318)" fill="#1f1f1f"/>
            </g>
          </g>
          <g id="item-23" data-name="item" transform="translate(0 14)">
            <rect id="base-20" data-name="base" width="416" height="60" rx="4" transform="translate(260 1283)" fill="#f3f3f3"/>
            <path id="Office_of_Academic_Affairs" data-name="Office of Academic Affairs" d="M1.888-11.536v1.2H10.48v.32A30.248,30.248,0,0,1,10-3.856l1.44.16a31.186,31.186,0,0,0,.5-6.32v-1.52ZM.592-.688H13.36V-1.9H8.56V-6.512H7.12V-1.9H5.056V-6.512H3.616V-1.9H.592Zm13.984-4.08v1.2h5.632V1.248h1.44V-3.568H27.36v-1.2Zm1.6-1.808h9.552v-5.536H16.176ZM17.6-7.728v-3.216h6.7v3.216Zm10.992-3.728v1.168h8.336v-1.168h-3.44v-1.52H32.032v1.52Zm.768,4.4c0,1.552,1.376,2.544,3.392,2.544,2.032,0,3.408-.992,3.408-2.544s-1.376-2.576-3.408-2.576C30.736-9.632,29.36-8.608,29.36-7.056Zm.976,4.9H38.08V1.232h1.472V-3.344H30.336Zm.416-4.9c0-.9.8-1.44,2-1.44s2,.544,2,1.44c0,.864-.8,1.44-2,1.44S30.752-6.192,30.752-7.056ZM38.08-4.064h1.472V-7.84h2.032V-9.056H39.552V-12.88H38.08ZM45.952-11.7v2.4a7.27,7.27,0,0,1-3.616,6.352l.88,1.184A7.62,7.62,0,0,0,46.688-6.3a7.231,7.231,0,0,0,3.328,4.272l.88-1.152A7.021,7.021,0,0,1,47.376-9.3v-2.4ZM51.968,1.232H53.44V-6.016H55.7V-7.248H53.44V-12.88H51.968ZM66.72-12.912V-7.3H63.808V-6.08H66.72V1.248h1.456v-14.16ZM56.528-2.592l.8,1.12a7.035,7.035,0,0,0,3.44-4.256,6.762,6.762,0,0,0,3.472,4l.784-1.12a6.262,6.262,0,0,1-3.552-5.52v-.944h3.072v-1.152H61.472v-2.16h-1.44v2.16h-3.1v1.152h3.1v.944A6.56,6.56,0,0,1,56.528-2.592Z" transform="translate(433 1318)" fill="#1f1f1f"/>
          </g>
          <g id="item-24" data-name="item" transform="translate(0 -62)">
            <rect id="base-21" data-name="base" width="416" height="60" rx="4" transform="translate(260 1283)" fill="#f3f3f3"/>
            <path id="Office_of_General_Affairs_and_Planning" data-name="Office of General Affairs and Planning" d="M4-11.7v2.4A7.27,7.27,0,0,1,.384-2.944l.88,1.184A7.62,7.62,0,0,0,4.736-6.3,7.231,7.231,0,0,0,8.064-2.032l.88-1.152A7.021,7.021,0,0,1,5.424-9.3v-2.4ZM10.016,1.232h1.472V-6.016h2.256V-7.248H11.488V-12.88H10.016Zm4.56-6v1.2h5.632V1.248h1.44V-3.568H27.36v-1.2Zm1.6-1.808h9.552v-5.536H16.176ZM17.6-7.728v-3.216h6.7v3.216ZM38.7-12.9V1.216h1.472V-12.9ZM28.688-2.512l.768,1.152C34.256-3.68,36-7.248,36-11.392H29.36v1.184h5.168C34.24-6.9,32.432-4.32,28.688-2.512Zm14.368-9.152v1.088H51.3v-1.088H47.92v-1.328H46.432v1.328Zm-.448,6.72L42.8-3.808a55.4,55.4,0,0,0,8.9-.56l-.1-1.024c-1.168.16-2.432.272-3.68.336V-5.92c1.616-.176,2.656-.928,2.656-2.064,0-1.3-1.36-2.112-3.392-2.112s-3.392.816-3.392,2.112c0,1.136,1.024,1.888,2.64,2.064v.928C45.072-4.944,43.744-4.944,42.608-4.944Zm1.984,3.312h8.064V1.232h1.456v-4h-9.52Zm.592-6.352c0-.7.8-1.1,2-1.1,1.216,0,2,.4,2,1.1,0,.672-.784,1.1-2,1.1C45.984-6.88,45.184-7.312,45.184-7.984Zm7.472,4.592h1.456V-12.88H52.656Zm14.064-9.52V-7.3H63.808V-6.08H66.72V1.248h1.456v-14.16ZM56.528-2.592l.8,1.12a7.035,7.035,0,0,0,3.44-4.256,6.762,6.762,0,0,0,3.472,4l.784-1.12a6.262,6.262,0,0,1-3.552-5.52v-.944h3.072v-1.152H61.472v-2.16h-1.44v2.16h-3.1v1.152h3.1v.944A6.56,6.56,0,0,1,56.528-2.592Z" transform="translate(433 1318)" fill="#1f1f1f"/>
          </g>
        </g>
      </g>
    </g>
    <g id="middle" transform="translate(0 -717)">
      <circle id="oval-7" data-name="oval" cx="100" cy="100" r="100" transform="translate(860 595)" fill="#00a597"/>
      <path id="부총장" d="M.888-6.84v1.752H9.336V1.848H11.5V-5.088h8.568V-6.84ZM3.264-9.264H17.64v-9.192H15.48v2.76H5.424v-2.76H3.264Zm2.16-1.776v-2.9H15.48v2.9Zm16.44,2.568V-6.7H40.992V-8.472H32.52V-10.92H30.336v2.448Zm1.032-3.12.672,1.68c3.576-.336,6.552-1.536,7.848-3.5,1.32,1.968,4.272,3.168,7.872,3.5l.648-1.68c-4.128-.312-7.08-1.9-7.3-3.984h6.432V-17.3H32.52v-2.064H30.336V-17.3H23.808v1.728h6.408C30-13.488,27.048-11.9,22.9-11.592ZM24.144-1.7c0,2.256,2.688,3.5,7.272,3.5,4.56,0,7.272-1.248,7.272-3.5,0-2.3-2.712-3.552-7.272-3.552C26.832-5.256,24.144-4.008,24.144-1.7Zm2.208,0c0-1.248,1.824-1.9,5.064-1.9,3.216,0,5.04.648,5.04,1.9,0,1.2-1.824,1.872-5.04,1.872C28.176.168,26.352-.5,26.352-1.7Zm16.992-16.1v1.776h4.608v.624A7.334,7.334,0,0,1,42.72-8.592l1.1,1.728a8.567,8.567,0,0,0,5.28-5.064,8.171,8.171,0,0,0,5.04,4.392L55.2-9.216c-3.168-1.056-5.064-3.528-5.064-6.216v-.6H54.7v-1.776ZM45.552-2.16c0,2.5,2.664,3.96,6.984,3.96,4.344,0,7.008-1.464,7.008-3.96S56.88-6.1,52.536-6.1C48.216-6.1,45.552-4.656,45.552-2.16Zm2.136,0c0-1.416,1.824-2.208,4.848-2.208,3.048,0,4.848.792,4.848,2.208C57.384-.72,55.584.1,52.536.1,49.512.1,47.688-.72,47.688-2.16ZM57.12-6.624h2.208v-5.64h3.048v-1.8H59.328V-19.32H57.12Z" transform="translate(929 704)" fill="#fff"/>
    </g>
    <g id="top" transform="translate(0 -977)">
      <circle id="oval-8" data-name="oval" cx="100" cy="100" r="100" transform="translate(860 595)" fill="#501d83"/>
      <path id="President" d="M.888-8.472V-6.7H20.016V-8.472H11.544V-10.92H9.36v2.448Zm1.032-3.12.672,1.68c3.576-.336,6.552-1.536,7.848-3.5,1.32,1.968,4.272,3.168,7.872,3.5l.648-1.68c-4.128-.312-7.08-1.9-7.3-3.984H18.1V-17.3H11.544v-2.064H9.36V-17.3H2.832v1.728H9.24C9.024-13.488,6.072-11.9,1.92-11.592ZM3.168-1.7c0,2.256,2.688,3.5,7.272,3.5C15,1.8,17.712.552,17.712-1.7c0-2.3-2.712-3.552-7.272-3.552C5.856-5.256,3.168-4.008,3.168-1.7Zm2.208,0c0-1.248,1.824-1.9,5.064-1.9,3.216,0,5.04.648,5.04,1.9,0,1.2-1.824,1.872-5.04,1.872C7.2.168,5.376-.5,5.376-1.7Zm16.992-16.1v1.776h4.608v.624a7.334,7.334,0,0,1-5.232,6.816l1.1,1.728a8.567,8.567,0,0,0,5.28-5.064,8.171,8.171,0,0,0,5.04,4.392l1.056-1.68c-3.168-1.056-5.064-3.528-5.064-6.216v-.6h4.56v-1.776ZM24.576-2.16c0,2.5,2.664,3.96,6.984,3.96,4.344,0,7.008-1.464,7.008-3.96S35.9-6.1,31.56-6.1C27.24-6.1,24.576-4.656,24.576-2.16Zm2.136,0c0-1.416,1.824-2.208,4.848-2.208,3.048,0,4.848.792,4.848,2.208C36.408-.72,34.608.1,31.56.1,28.536.1,26.712-.72,26.712-2.16Zm9.432-4.464h2.208v-5.64H41.4v-1.8H38.352V-19.32H36.144Z" transform="translate(939.024 704)" fill="#fff"/>
    </g>
    <g id="side" transform="translate(-100 -599)">
      <rect id="line-7" data-name="line" width="322" height="1" transform="translate(1060 446)" fill="#999"/>
      <g id="item-25" data-name="item" transform="translate(1122 -866)">
        <rect id="base-22" data-name="base" width="280" height="60" rx="4" transform="translate(260 1283)" fill="#666"/>
        <path id="Office_of_the_President" data-name="Office of the President" d="M.814-7.766v1.628H18.348V-7.766H10.582V-10.01h-2v2.244Zm.946-2.86.616,1.54C5.654-9.394,8.382-10.494,9.57-12.3c1.21,1.8,3.916,2.9,7.216,3.212l.594-1.54c-3.784-.286-6.49-1.738-6.688-3.652h5.9v-1.584H10.582v-1.892h-2v1.892H2.6v1.584H8.47C8.272-12.364,5.566-10.912,1.76-10.626ZM2.9-1.562C2.9.506,5.368,1.65,9.57,1.65c4.18,0,6.666-1.144,6.666-3.212,0-2.112-2.486-3.256-6.666-3.256C5.368-4.818,2.9-3.674,2.9-1.562Zm2.024,0C4.928-2.706,6.6-3.3,9.57-3.3c2.948,0,4.62.594,4.62,1.738,0,1.1-1.672,1.716-4.62,1.716C6.6.154,4.928-.462,4.928-1.562ZM20.5-16.324V-14.7h4.224v.572a6.722,6.722,0,0,1-4.8,6.248l1.012,1.584a7.853,7.853,0,0,0,4.84-4.642A7.491,7.491,0,0,0,30.4-6.908l.968-1.54c-2.9-.968-4.642-3.234-4.642-5.7v-.55h4.18v-1.628ZM22.528-1.98c0,2.288,2.442,3.63,6.4,3.63,3.982,0,6.424-1.342,6.424-3.63S32.912-5.588,28.93-5.588C24.97-5.588,22.528-4.268,22.528-1.98Zm1.958,0C24.486-3.278,26.158-4,28.93-4c2.794,0,4.444.726,4.444,2.024,0,1.32-1.65,2.068-4.444,2.068C26.158.088,24.486-.66,24.486-1.98Zm8.646-4.092h2.024v-5.17H37.95v-1.65H35.156V-17.71H33.132ZM53.2-17.71v9.966h2V-17.71ZM39.336-9.438l.99,1.584a8.055,8.055,0,0,0,4.906-4.664A7.9,7.9,0,0,0,50.05-8.206l.99-1.584a6.446,6.446,0,0,1-4.818-5.94v-1.452H44.2v1.452A6.8,6.8,0,0,1,39.336-9.438ZM42.57-5.214H53.218v1.76h-10.6V1.5H55.836V-.11H44.594V-1.98H55.2v-4.8H42.57Z" transform="translate(371.158 1321)" fill="#fff"/>
      </g>
    </g>
  </g>
</svg>
