<svg xmlns="http://www.w3.org/2000/svg" width="100" height="100.13" viewBox="0 0 100 100.13">
  <g id="ico_100_layer03" data-name="ico/100/layer03" transform="translate(0 0.067)">
    <rect id="base" width="100" height="100" fill="none"/>
    <path id="path" d="M15.432,69.658l4.083-4.242a9.093,9.093,0,0,1,6.656-2.731l32.546.577a6.891,6.891,0,0,0,4.741-1.782l28.5-25.749a1.97,1.97,0,0,0,.142-2.781,2.3,2.3,0,0,0-.2-.194c-3.745-3.1-8.331-4.2-14.154-.008-4.848,3.49-13.019,9.406-16.662,12.044a7.607,7.607,0,0,0-6.683-4.074l-11.8-.211a20.655,20.655,0,0,0-27.774.432L1,53.688" transform="translate(3.225 28.991)" fill="none" stroke="#1f1f1f" stroke-linecap="round" stroke-linejoin="round" stroke-width="2"/>
    <path id="path-2" data-name="path" d="M37.658,48.986l23.291.415a1.246,1.246,0,0,0,1.27-1.224c0-.024,0-.049,0-.073-.386-7.891-6.04-8.743-7.82-8.774l-11.8-.212a20.652,20.652,0,0,0-27.778.434L1,52.3" transform="translate(3.225 30.382)" fill="none" stroke="#1f1f1f" stroke-linecap="round" stroke-linejoin="round" stroke-width="2"/>
    <path id="path-3" data-name="path" d="M65.45,21.517l6.416,2.8a.79.79,0,0,1,0,1.4L46.388,36.819a2.879,2.879,0,0,1-2.049,0L18.861,25.714a.79.79,0,0,1,0-1.4l13.3-5.8" transform="translate(9.338 24.965)" fill="none" stroke="#1f1f1f" stroke-linecap="round" stroke-linejoin="round" stroke-width="2"/>
    <path id="path-4" data-name="path" d="M78.415,16.176,47.955,29.452a3.431,3.431,0,0,1-2.449,0L15.047,16.176a.945.945,0,0,1,0-1.675L45.506,1.227a3.431,3.431,0,0,1,2.449,0L78.415,14.5A.945.945,0,0,1,78.415,16.176Z" transform="translate(7.973 20.822)" fill="#fff" stroke="#1f1f1f" stroke-linecap="round" stroke-linejoin="round" stroke-width="2"/>
    <path id="path-5" data-name="path" d="M76.159,21.228,53.371,11.986a1.5,1.5,0,0,1-.707-2.181l1.367-3.045a1.767,1.767,0,0,0-.792-2.444L44.019.3a4.519,4.519,0,0,0-3.225,0L.669,17.784a1.244,1.244,0,0,0,0,2.206L40.794,37.479a4.519,4.519,0,0,0,3.225,0L76.159,23.47a1.287,1.287,0,0,0,0-2.242" transform="translate(13 1)" fill="#501d83" stroke="#501d83" stroke-width="2"/>
  </g>
</svg>
