<svg xmlns="http://www.w3.org/2000/svg" width="60.151" height="60" viewBox="0 0 60.151 60">
  <g id="ico_60_history02" data-name="ico/60/history02" transform="translate(-318.849 -3501)">
    <rect id="base" width="60" height="60" transform="translate(319 3501)" fill="none"/>
    <g id="icon" transform="translate(-1102.332 2448.013)">
      <g id="그룹_3120" data-name="그룹 3120" transform="translate(1439.718 1083.205)">
        <g id="그룹_3118" data-name="그룹 3118" transform="translate(0 15.812)">
          <path id="패스_9804" data-name="패스 9804" d="M1500.449,1255.124a.6.6,0,0,1-.6-.576l-.037-1.037a10.231,10.231,0,0,1,10.224-10.592h6.036a10.23,10.23,0,0,1,10.224,10.592l-.037,1.037a.609.609,0,0,1-.618.576.6.6,0,0,1-.576-.618l.037-1.037a9.036,9.036,0,0,0-9.03-9.355h-6.036a9.036,9.036,0,0,0-9.03,9.355l.037,1.037a.6.6,0,0,1-.576.618Z" transform="translate(-1499.81 -1242.919)" fill="#1f1f1f" stroke="#1f1f1f" stroke-width="0.3"/>
        </g>
        <g id="그룹_3119" data-name="그룹 3119" transform="translate(6.603 0)">
          <path id="패스_9805" data-name="패스 9805" d="M1534.64,1188.721a6.646,6.646,0,1,1,6.646-6.646A6.653,6.653,0,0,1,1534.64,1188.721Zm0-12.1a5.451,5.451,0,1,0,5.451,5.451A5.457,5.457,0,0,0,1534.64,1176.625Z" transform="translate(-1527.995 -1175.43)" fill="#1f1f1f" stroke="#1f1f1f" stroke-width="0.3"/>
        </g>
      </g>
      <g id="그룹_3123" data-name="그룹 3123" transform="translate(1421.332 1072.195)">
        <g id="그룹_3121" data-name="그룹 3121" transform="translate(0 15.813)">
          <path id="패스_9806" data-name="패스 9806" d="M1421.97,1208.135a.6.6,0,0,1-.6-.578l-.034-1.039a10.226,10.226,0,0,1,10.221-10.589h6.038a10.171,10.171,0,0,1,5.853,1.838.6.6,0,0,1-.684.979,8.982,8.982,0,0,0-5.169-1.622h-6.038a9.031,9.031,0,0,0-9.027,9.353l.034,1.04a.6.6,0,0,1-.577.617Z" transform="translate(-1421.332 -1195.929)" fill="#1f1f1f" stroke="#1f1f1f" stroke-width="0.3"/>
        </g>
        <g id="그룹_3122" data-name="그룹 3122" transform="translate(6.602 0)">
          <path id="패스_9807" data-name="패스 9807" d="M1456.156,1141.726a6.646,6.646,0,1,1,6.646-6.646A6.653,6.653,0,0,1,1456.156,1141.726Zm0-12.1a5.451,5.451,0,1,0,5.451,5.451A5.457,5.457,0,0,0,1456.156,1129.63Z" transform="translate(-1449.511 -1128.435)" fill="#1f1f1f" stroke="#1f1f1f" stroke-width="0.3"/>
        </g>
      </g>
      <g id="그룹_3126" data-name="그룹 3126" transform="translate(1437.524 1054.987)">
        <g id="그룹_3124" data-name="그룹 3124" transform="translate(0)">
          <path id="패스_9808" data-name="패스 9808" d="M1509.424,1075.832a1,1,0,0,1-.685-.272l-3.2-3.009h-9.914a5.187,5.187,0,0,1-5.181-5.181v-7.2a5.186,5.186,0,0,1,5.181-5.181h17.267a5.186,5.186,0,0,1,5.18,5.181v2.765a.6.6,0,1,1-1.195,0v-2.765a3.99,3.99,0,0,0-3.986-3.986h-17.267a3.99,3.99,0,0,0-3.986,3.986v7.2a3.99,3.99,0,0,0,3.986,3.986h10.151a.6.6,0,0,1,.409.162l3.113,2.928.492-2.6a.6.6,0,0,1,.587-.486h2.513c.035,0,.07,0,.1,0a.6.6,0,0,1,.089,1.192c-.064,0-.129.005-.193.005h-2.018l-.467,2.467a1,1,0,0,1-.982.814Z" transform="translate(-1490.444 -1054.987)" fill="#1f1f1f" stroke="#1f1f1f" stroke-width="0.3"/>
        </g>
        <g id="그룹_3125" data-name="그룹 3125" transform="translate(26.051 11.167)">
          <path id="패스_9809" data-name="패스 9809" d="M1602.233,1106.292a.6.6,0,0,1-.547-.836,3.95,3.95,0,0,0,.332-1.587v-.619a.6.6,0,0,1,1.195,0v.619a5.138,5.138,0,0,1-.432,2.064A.6.6,0,0,1,1602.233,1106.292Z" transform="translate(-1601.636 -1102.653)" fill="#1f1f1f" stroke="#1f1f1f" stroke-width="0.3"/>
        </g>
      </g>
      <g id="그룹_3127" data-name="그룹 3127" transform="translate(1461.472 1072.043)">
        <path id="패스_9810" data-name="패스 9810" d="M1599.775,1148.326a.988.988,0,0,1-.167-.014,1,1,0,0,1-.724-.536l-1.062-2.111a5.186,5.186,0,0,1-5.159-5.18v-7.516a5.186,5.186,0,0,1,5.181-5.181h9.5a5.186,5.186,0,0,1,5.181,5.181v7.516a5.186,5.186,0,0,1-5.181,5.18h-4.394C1600.281,1148.227,1600.031,1148.326,1599.775,1148.326Z" transform="translate(-1592.662 -1127.787)" fill="#501d83"/>
      </g>
    </g>
  </g>
</svg>
