<svg xmlns="http://www.w3.org/2000/svg" width="60" height="60.019" viewBox="0 0 60 60.019">
  <g id="icon_60_vision02" data-name="icon/60/vision02" transform="translate(0 0.019)">
    <rect id="base" width="60" height="60" fill="none"/>
    <g id="icon" transform="translate(1)">
      <path id="path" d="M9.325,59.2V47.443A8.223,8.223,0,0,0,7.179,42.02,24.7,24.7,0,1,1,50.424,25.711c0,.519-.019,1.034-.052,1.543a4.211,4.211,0,0,0,.4,2.143L56.424,40.83a1.95,1.95,0,0,1-1.33,2.768l-3.533.777a2.008,2.008,0,0,0-1.569,1.767l-.814,8.3A5.274,5.274,0,0,1,43.929,59.2H33.379a7.668,7.668,0,0,1-7.668-7.667V50.423" transform="translate(-0.1 -0.1)" fill="none" stroke="#1f1f1f" stroke-linecap="round" stroke-linejoin="round" stroke-width="1.8"/>
      <path id="path-2" data-name="path" d="M39.075,23.95H26.842V10.613a.832.832,0,0,0-1.569-.385L14.609,30.585H26.842V43.922a.832.832,0,0,0,1.569.386Z" transform="translate(-1.454 -0.973)" fill="#00a597" stroke="#1f1f1f" stroke-linecap="round" stroke-linejoin="round" stroke-width="1.8"/>
    </g>
  </g>
</svg>
