<svg xmlns="http://www.w3.org/2000/svg" width="60" height="60" viewBox="0 0 60 60">
  <g id="ico_60_history07" data-name="ico/60/history07" transform="translate(-319 -3501)">
    <rect id="base" width="60" height="60" transform="translate(319 3501)" fill="none"/>
    <g id="icon" transform="translate(-2836.008 2134.748)">
      <g id="그룹_3136" data-name="그룹 3136" transform="translate(3157.444 1385.502)">
        <g id="그룹_3131" data-name="그룹 3131" transform="translate(15.766 0)">
          <g id="그룹_3128" data-name="그룹 3128" transform="translate(14.651 4.442)">
            <path id="패스_9811" data-name="패스 9811" d="M3280.5,1472.293a.634.634,0,0,1-.622-.509,8.1,8.1,0,0,1-.161-1.593,6.726,6.726,0,0,1,.6-2.812.635.635,0,0,1,.226-.265,11.757,11.757,0,0,0,4.849-8.109.634.634,0,0,1,1.254.192,13.071,13.071,0,0,1-5.245,8.867,5.5,5.5,0,0,0-.411,2.126,6.766,6.766,0,0,0,.137,1.343.634.634,0,0,1-.623.76Z" transform="translate(-3279.714 -1458.467)" fill="#1f1f1f" stroke="#1f1f1f" stroke-width="0.3"/>
          </g>
          <g id="그룹_3129" data-name="그룹 3129" transform="translate(3.089 12.983)">
            <path id="패스_9812" data-name="패스 9812" d="M3233.874,1502.446a.634.634,0,0,1-.344-1.168,6.729,6.729,0,0,0,1.978-7.575.634.634,0,0,1,1.152-.53,7.4,7.4,0,0,1,.168,5.418,7.281,7.281,0,0,1-2.612,3.755A.632.632,0,0,1,3233.874,1502.446Z" transform="translate(-3233.239 -1492.803)" fill="#1f1f1f" stroke="#1f1f1f" stroke-width="0.3"/>
          </g>
          <g id="그룹_3130" data-name="그룹 3130">
            <path id="패스_9813" data-name="패스 9813" d="M3231.135,1456.379h-.042c-5.311-.347-9.706-5.375-10.225-11.694v-.018c-.032-.38-.047-.78-.047-1.256a15.836,15.836,0,0,1,.162-2.254.634.634,0,0,1,1.256.181,14.547,14.547,0,0,0-.149,2.073c0,.445.014.815.044,1.163,0,.007,0,.015,0,.022.473,5.69,4.358,10.21,9.042,10.516a.634.634,0,0,1-.041,1.267Z" transform="translate(-3220.82 -1440.613)" fill="#1f1f1f" stroke="#1f1f1f" stroke-width="0.3"/>
          </g>
        </g>
        <g id="그룹_3135" data-name="그룹 3135" transform="translate(0 20.403)">
          <g id="그룹_3132" data-name="그룹 3132">
            <path id="패스_9814" data-name="패스 9814" d="M3158.08,1541.976a.651.651,0,0,1-.1-.008.634.634,0,0,1-.527-.725l1.779-11.229a.752.752,0,0,1,.021-.088,10.484,10.484,0,0,1,2.893-4.63,9.368,9.368,0,0,1,4.727-2.341,23,23,0,0,1,7.167-.087,17.124,17.124,0,0,1,3.1.75,17.642,17.642,0,0,1,2.338.984.654.654,0,0,1,.069.04,8.445,8.445,0,0,1,1.974,2.794c.649,1.184,1.631,2.974,2.316,2.974,1.088,0,1.963-1.951,2.183-2.635a.634.634,0,0,1,1.208.387c-.115.36-1.189,3.516-3.391,3.516-1.436,0-2.449-1.846-3.429-3.632a9.219,9.219,0,0,0-1.547-2.335,16.545,16.545,0,0,0-2.132-.893,15.827,15.827,0,0,0-2.876-.7,21.686,21.686,0,0,0-6.77.082,8.1,8.1,0,0,0-4.083,2.026,9.2,9.2,0,0,0-2.525,4.026l-1.772,11.184A.634.634,0,0,1,3158.08,1541.976Z" transform="translate(-3157.444 -1522.629)" fill="#1f1f1f" stroke="#1f1f1f" stroke-width="0.3"/>
          </g>
          <g id="그룹_3133" data-name="그룹 3133" transform="translate(30.908)">
            <path id="패스_9815" data-name="패스 9815" d="M3303.434,1541.976a.635.635,0,0,1-.626-.535l-1.772-11.184a9.2,9.2,0,0,0-2.527-4.028,8.1,8.1,0,0,0-4.082-2.023,21.675,21.675,0,0,0-6.766-.082,15.808,15.808,0,0,0-2.877.695,16.458,16.458,0,0,0-2.173.914.634.634,0,1,1-.576-1.13,17.667,17.667,0,0,1,2.339-.985,17.119,17.119,0,0,1,3.1-.75,22.973,22.973,0,0,1,7.163.087,9.361,9.361,0,0,1,4.725,2.339,10.481,10.481,0,0,1,2.9,4.632.638.638,0,0,1,.02.087l1.78,11.229a.634.634,0,0,1-.528.725A.645.645,0,0,1,3303.434,1541.976Z" transform="translate(-3281.688 -1522.629)" fill="#1f1f1f" stroke="#1f1f1f" stroke-width="0.3"/>
          </g>
          <g id="그룹_3134" data-name="그룹 3134" transform="translate(20.673 7.78)">
            <path id="패스_9816" data-name="패스 9816" d="M3251.352,1565.471a.634.634,0,0,1-.623-.52c-1.057-5.757-2.891-9.778-4.46-9.778s-3.407,4.021-4.463,9.778a.634.634,0,0,1-1.248-.229c.6-3.253,2.348-10.818,5.711-10.818s5.111,7.565,5.708,10.818a.635.635,0,0,1-.625.749Z" transform="translate(-3240.547 -1553.904)" fill="#1f1f1f" stroke="#1f1f1f" stroke-width="0.3"/>
          </g>
        </g>
      </g>
      <g id="그룹_3140" data-name="그룹 3140" transform="translate(3168.001 1367.252)">
        <g id="그룹_3137" data-name="그룹 3137" transform="translate(4.495 9.313)">
          <path id="패스_9817" data-name="패스 9817" d="M3229.293,1415.726a70.768,70.768,0,0,1-9.153-.594,2.328,2.328,0,0,1-2.189-2.172v-7.638a.634.634,0,1,1,1.268,0v7.638c0,.44.467.833,1.085.914a69.474,69.474,0,0,0,17.977,0c.619-.081,1.085-.474,1.085-.914V1409.6a.634.634,0,1,1,1.269,0v3.358a2.328,2.328,0,0,1-2.189,2.172A70.746,70.746,0,0,1,3229.293,1415.726Z" transform="translate(-3217.951 -1404.687)" fill="#1f1f1f" stroke="#1f1f1f" stroke-width="0.3"/>
        </g>
        <g id="그룹_3138" data-name="그룹 3138" transform="translate(0.417)">
          <path id="패스_9818" data-name="패스 9818" d="M3216.976,1382.241a6.467,6.467,0,0,1-2.736-.595l-11.748-5.524a1.48,1.48,0,0,1,0-2.751l11.748-5.524a6.587,6.587,0,0,1,5.473,0l11.748,5.524a1.48,1.48,0,0,1,0,2.751l-6.117,2.876-3.949,1.857-1.682.791A6.47,6.47,0,0,1,3216.976,1382.241Z" transform="translate(-3201.557 -1367.252)" fill="#501d83" stroke="#501d83" stroke-width="0.3"/>
        </g>
        <g id="그룹_3139" data-name="그룹 3139" transform="translate(0 11.343)">
          <path id="패스_9819" data-name="패스 9819" d="M3200.515,1418.644a.634.634,0,0,1-.635-.634v-4.528a.635.635,0,0,1,1.269,0v4.528A.635.635,0,0,1,3200.515,1418.644Z" transform="translate(-3199.88 -1412.847)" fill="#1f1f1f" stroke="#1f1f1f" stroke-width="0.3"/>
        </g>
      </g>
    </g>
  </g>
</svg>
