<svg id="ico_200_if_c_none" data-name="ico/200/if/c_none" xmlns="http://www.w3.org/2000/svg" xmlns:xlink="http://www.w3.org/1999/xlink" width="200" height="200" viewBox="0 0 200 200">
  <defs>
    <clipPath id="clip-path">
      <rect id="사각형_2472" data-name="사각형 2472" width="174.534" height="126" fill="none" stroke="#1a1a1a" stroke-width="1"/>
    </clipPath>
    <clipPath id="clip-path-2">
      <rect id="사각형_2473" data-name="사각형 2473" width="100.822" height="95.048" fill="none"/>
    </clipPath>
  </defs>
  <rect id="base" width="200" height="200" fill="#fff"/>
  <g id="column_none" transform="translate(10 37)">
    <g id="그룹_3201" data-name="그룹 3201" transform="translate(5.555)">
      <g id="그룹_3200" data-name="그룹 3200" clip-path="url(#clip-path)">
        <path id="패스_29420" data-name="패스 29420" d="M50.6,37.679l4.23-19.945C56.843,6.416,61.873,2,70.563,2H129.51" transform="translate(-2.211 -0.087)" fill="none" stroke="#1a1a1a" stroke-linecap="round" stroke-linejoin="round" stroke-width="4"/>
        <line id="선_1037" data-name="선 1037" y1="27.158" x2="5.76" transform="translate(33.38 81.195)" fill="none" stroke="#1a1a1a" stroke-linecap="round" stroke-linejoin="round" stroke-width="4"/>
        <path id="패스_29421" data-name="패스 29421" d="M129.451,108.441l19.238-90.707C150.92,5.978,155.733,2,164.423,2" transform="translate(-5.656 -0.087)" fill="none" stroke="#1a1a1a" stroke-linecap="round" stroke-linejoin="round" stroke-width="4"/>
        <path id="패스_29422" data-name="패스 29422" d="M161.434,17.734h17C178.429,9.044,173.263,2,164.574,2H132.909" transform="translate(-5.807 -0.087)" fill="none" stroke="#1a1a1a" stroke-linecap="round" stroke-linejoin="round" stroke-width="4"/>
        <line id="선_1038" data-name="선 1038" x2="51.122" transform="translate(70.587 25.505)" fill="none" stroke="#1a1a1a" stroke-linecap="round" stroke-linejoin="round" stroke-width="4"/>
        <line id="선_1039" data-name="선 1039" x2="51.122" transform="translate(67.882 38.369)" fill="none" stroke="#1a1a1a" stroke-linecap="round" stroke-linejoin="round" stroke-width="4"/>
        <line id="선_1040" data-name="선 1040" x2="21.328" transform="translate(65.196 51.233)" fill="none" stroke="#1a1a1a" stroke-linecap="round" stroke-linejoin="round" stroke-width="4"/>
        <path id="패스_29423" data-name="패스 29423" d="M123.882,113.3c-1.551,9.824-7.044,15.734-15.734,15.734H17.734A15.734,15.734,0,0,1,2,113.3H93.628c0,8.69,5.165,15.734,13.855,15.734" transform="translate(-0.087 -4.951)" fill="none" stroke="#1a1a1a" stroke-linecap="round" stroke-linejoin="round" stroke-width="4"/>
      </g>
    </g>
    <g id="그룹_3203" data-name="그룹 3203" transform="translate(0 4.913)">
      <g id="그룹_3202" data-name="그룹 3202" transform="translate(0 0)" clip-path="url(#clip-path-2)">
        <path id="패스_29424" data-name="패스 29424" d="M82.458,71.131C42.467,24.6,9.181.587,8.849.351A1.879,1.879,0,0,0,6.268.733C-.009,8.877,0,15.479,0,15.677c-.281,9.7,16.834,29.807,24.205,38a1.876,1.876,0,0,0,1.346.622l16.009.437-9.382,3.44a1.878,1.878,0,0,0-.655,3.118A58.4,58.4,0,0,0,37.98,66.8c10.032,7.073,32.914,7.677,40.418,7.677,1.347,0,2.2-.02,2.392-.024a1.88,1.88,0,0,0,1.217-.491,1.961,1.961,0,0,0,.252-.181,1.88,1.88,0,0,0,.2-2.65" transform="translate(0 0)" fill="#a192ba"/>
        <path id="패스_29425" data-name="패스 29425" d="M81.227,71.783s10.453,11.41,21.231,24.489" transform="translate(-3.549 -3.137)" fill="none" stroke="#a192ba" stroke-linecap="round" stroke-linejoin="round" stroke-width="4"/>
      </g>
    </g>
  </g>
</svg>
