<svg xmlns="http://www.w3.org/2000/svg" width="60" height="60" viewBox="0 0 60 60">
  <g id="ico_60_history09" data-name="ico/60/history09" transform="translate(-319 -3501)">
    <rect id="base" width="60" height="60" transform="translate(319 3501)" fill="none"/>
    <g id="icon" transform="translate(-1452.481 2447.873)">
      <g id="그룹_3154" data-name="그룹 3154" transform="translate(1776.563 1054.127)">
        <g id="그룹_3152" data-name="그룹 3152" transform="translate(0 15.978)">
          <path id="패스_9828" data-name="패스 9828" d="M1814.474,1130.609a.612.612,0,0,1-.612-.612c0-4.438-5.192-8.049-11.573-8.049s-11.573,3.611-11.573,8.049a.612.612,0,1,1-1.224,0c0-5.113,5.741-9.273,12.8-9.273s12.8,4.16,12.8,9.273A.612.612,0,0,1,1814.474,1130.609Z" transform="translate(-1789.492 -1120.725)" fill="#1f1f1f" stroke="#1f1f1f" stroke-width="0.3"/>
        </g>
        <g id="그룹_3153" data-name="그룹 3153" transform="translate(6.479 0)">
          <path id="패스_9829" data-name="패스 9829" d="M1822.814,1066.763a6.318,6.318,0,1,1,6.318-6.318A6.325,6.325,0,0,1,1822.814,1066.763Zm0-11.413a5.095,5.095,0,1,0,5.095,5.095A5.1,5.1,0,0,0,1822.814,1055.351Z" transform="translate(-1816.496 -1054.127)" fill="#1f1f1f" stroke="#1f1f1f" stroke-width="0.3"/>
        </g>
      </g>
      <g id="그룹_3157" data-name="그룹 3157" transform="translate(1803.276 1054.127)">
        <g id="그룹_3155" data-name="그룹 3155" transform="translate(0 15.979)">
          <path id="패스_9830" data-name="패스 9830" d="M1922.892,1130.611a.612.612,0,0,1-.612-.612c0-4.436-5.191-8.046-11.571-8.046a14,14,0,0,0-8.874,2.895.612.612,0,1,1-.784-.939,15.235,15.235,0,0,1,9.657-3.179c7.055,0,12.8,4.158,12.8,9.27A.612.612,0,0,1,1922.892,1130.611Z" transform="translate(-1900.831 -1120.73)" fill="#1f1f1f" stroke="#1f1f1f" stroke-width="0.3"/>
        </g>
        <g id="그룹_3156" data-name="그룹 3156" transform="translate(3.559 0)">
          <path id="패스_9831" data-name="패스 9831" d="M1921.984,1066.763a6.318,6.318,0,1,1,6.318-6.318A6.325,6.325,0,0,1,1921.984,1066.763Z" transform="translate(-1915.665 -1054.127)" fill="#501d83" stroke="#501d83" stroke-width="0.3"/>
        </g>
      </g>
      <g id="그룹_3161" data-name="그룹 3161" transform="translate(1772.482 1082.741)">
        <g id="그룹_3158" data-name="그룹 3158" transform="translate(0 0)">
          <path id="패스_9832" data-name="패스 9832" d="M1801.257,1202.776A28.807,28.807,0,0,1,1772.482,1174a.612.612,0,0,1,.612-.612h56.325a.612.612,0,0,1,.612.612A28.807,28.807,0,0,1,1801.257,1202.776Zm-27.544-28.162a27.551,27.551,0,0,0,55.088,0Z" transform="translate(-1772.482 -1173.39)" fill="#1f1f1f" stroke="#1f1f1f" stroke-width="0.3"/>
        </g>
        <g id="그룹_3159" data-name="그룹 3159" transform="translate(16.73 0)">
          <path id="패스_9833" data-name="패스 9833" d="M1854.258,1202.776c-6.754,0-12.045-12.639-12.045-28.774a.612.612,0,1,1,1.224,0c0,14.934,4.955,27.551,10.821,27.551s10.821-12.617,10.821-27.551a.612.612,0,1,1,1.224,0C1866.3,1190.137,1861.012,1202.776,1854.258,1202.776Z" transform="translate(-1842.214 -1173.39)" fill="#1f1f1f" stroke="#1f1f1f" stroke-width="0.3"/>
        </g>
        <g id="그룹_3160" data-name="그룹 3160" transform="translate(6.037 11.071)">
          <path id="패스_9834" data-name="패스 9834" d="M1842.507,1227.112a.613.613,0,0,1-.334-.1,41.074,41.074,0,0,0-43.58,0,.612.612,0,0,1-.669-1.025,42.3,42.3,0,0,1,44.918,0,.612.612,0,0,1-.335,1.124Z" transform="translate(-1797.647 -1219.533)" fill="#1f1f1f" stroke="#1f1f1f" stroke-width="0.3"/>
        </g>
      </g>
    </g>
  </g>
</svg>
