<svg xmlns="http://www.w3.org/2000/svg" width="60" height="60" viewBox="0 0 60 60">
  <g id="ico_60_history03" data-name="ico/60/history03" transform="translate(-319 -3501)">
    <rect id="base" width="60" height="60" transform="translate(319 3501)" fill="none"/>
    <g id="icon" transform="translate(-773.939 2113.873)">
      <g id="그룹_3099" data-name="그룹 3099" transform="translate(1096.94 1389.127)">
        <path id="패스_9789" data-name="패스 9789" d="M1143.637,1430.434h-41.1a5.6,5.6,0,0,1-5.6-5.6v-30.111a5.6,5.6,0,0,1,5.6-5.6h41.1a5.6,5.6,0,0,1,5.6,5.6v26a.609.609,0,1,1-1.219,0v-26a4.384,4.384,0,0,0-4.379-4.379h-41.1a4.384,4.384,0,0,0-4.379,4.379v30.111a4.384,4.384,0,0,0,4.379,4.379h41.1a4.384,4.384,0,0,0,4.379-4.379.609.609,0,1,1,1.219,0A5.6,5.6,0,0,1,1143.637,1430.434Z" transform="translate(-1096.94 -1389.127)" fill="#1f1f1f" stroke="#1f1f1f" stroke-width="0.3"/>
      </g>
      <g id="그룹_3091" data-name="그룹 3091" transform="translate(1104.827 1395.819)">
        <g id="그룹_3086" data-name="그룹 3086" transform="translate(0 2.837)">
          <path id="패스_9779" data-name="패스 9779" d="M821.139,518.916H788.574a2.078,2.078,0,0,1-2.076-2.076V494.207a.609.609,0,1,1,1.219,0v22.633a.858.858,0,0,0,.857.857h32.566a.858.858,0,0,0,.857-.857V494.207a.609.609,0,0,1,1.219,0v22.633A2.078,2.078,0,0,1,821.139,518.916Z" transform="translate(-786.498 -493.598)" fill="#1f1f1f" stroke="#1f1f1f" stroke-width="0.3"/>
        </g>
        <g id="그룹_3087" data-name="그룹 3087" transform="translate(4.434 0)">
          <path id="패스_9780" data-name="패스 9780" d="M806.762,505.3a1.7,1.7,0,0,1-1-.326,1.722,1.722,0,0,1-.713-1.394V485.992a2.718,2.718,0,0,1,1.862-2.583c3.521-1.172,9.822-2.8,12.456-.564a.609.609,0,0,1,.07.859c-.218.257.218,20.394,0,20.651a.609.609,0,0,1-.859.069c-1.568-1.332-5.782-1.037-11.275.79A1.726,1.726,0,0,1,806.762,505.3Z" transform="translate(-805.053 -481.729)" fill="#501d83" stroke="#501d83" stroke-width="0.3"/>
        </g>
        <g id="그룹_3088" data-name="그룹 3088" transform="translate(17.749 20.652)">
          <path id="패스_9781" data-name="패스 9781" d="M873.589,571.061a1.73,1.73,0,0,1-.546-.09c-5.492-1.826-9.707-2.121-11.274-.789a.609.609,0,1,1-.789-.928c2.633-2.238,8.929-.609,12.448.561a.5.5,0,0,0,.651-.473.609.609,0,0,1,1.219,0,1.723,1.723,0,0,1-.713,1.394A1.7,1.7,0,0,1,873.589,571.061Z" transform="translate(-860.764 -568.139)" fill="#1f1f1f" stroke="#1f1f1f" stroke-width="0.3"/>
        </g>
        <g id="그룹_3089" data-name="그룹 3089" transform="translate(17.749 0)">
          <path id="패스_9782" data-name="패스 9782" d="M874.688,499.635a.609.609,0,0,1-.609-.609V485.991a1.5,1.5,0,0,0-1.028-1.426c-5.5-1.83-9.714-2.125-11.283-.792a.609.609,0,1,1-.789-.928c2.634-2.241,8.935-.608,12.456.564a2.717,2.717,0,0,1,1.862,2.583v13.035A.609.609,0,0,1,874.688,499.635Z" transform="translate(-860.764 -481.728)" fill="#1f1f1f" stroke="#1f1f1f" stroke-width="0.3"/>
        </g>
        <g id="그룹_3090" data-name="그룹 3090" transform="translate(17.749 0.971)">
          <path id="패스_9783" data-name="패스 9783" d="M861.374,499.962a.609.609,0,0,1-.609-.609V486.4a.609.609,0,1,1,1.219,0v12.954A.609.609,0,0,1,861.374,499.962Z" transform="translate(-860.765 -485.79)" fill="#1f1f1f" stroke="#1f1f1f" stroke-width="0.3"/>
        </g>
      </g>
      <g id="그룹_3106" data-name="그룹 3106" transform="translate(1109.117 1429.215)">
        <g id="그룹_3103" data-name="그룹 3103" transform="translate(7.609 0)">
          <path id="패스_9792" data-name="패스 9792" d="M1180.338,1566.792a.61.61,0,0,1-.581-.8c.016-.05,1.6-5.018,1.423-8.49a.609.609,0,0,1,1.217-.061c.185,3.7-1.411,8.712-1.48,8.924A.61.61,0,0,1,1180.338,1566.792Z" transform="translate(-1179.728 -1556.867)" fill="#1f1f1f" stroke="#1f1f1f" stroke-width="0.3"/>
        </g>
        <g id="그룹_3104" data-name="그룹 3104" transform="translate(17.648)">
          <path id="패스_9793" data-name="패스 9793" d="M1222.6,1561.6a.609.609,0,0,1-.6-.517,18.4,18.4,0,0,1-.245-3.634.61.61,0,0,1,1.218.061,17.207,17.207,0,0,0,.232,3.388.609.609,0,0,1-.509.7A.628.628,0,0,1,1222.6,1561.6Z" transform="translate(-1221.736 -1556.866)" fill="#1f1f1f" stroke="#1f1f1f" stroke-width="0.3"/>
        </g>
        <g id="그룹_3105" data-name="그룹 3105" transform="translate(0 7.287)">
          <path id="패스_9794" data-name="패스 9794" d="M1161.861,1595.983c-8.689,0-12.961-1.069-13.852-3.466a2.555,2.555,0,0,1,.469-2.345c.626-.881,2.658-2.917,8.049-2.809a.609.609,0,0,1,.6.621.6.6,0,0,1-.622.6c-4.942-.1-6.63,1.733-7.031,2.3a1.41,1.41,0,0,0-.32,1.214c.658,1.773,4.934,2.672,12.709,2.672s12.05-.9,12.709-2.672a1.411,1.411,0,0,0-.32-1.214c-.4-.564-2.089-2.394-7.031-2.3a.609.609,0,1,1-.025-1.218c5.394-.109,7.424,1.928,8.049,2.809a2.555,2.555,0,0,1,.469,2.345C1174.821,1594.914,1170.55,1595.983,1161.861,1595.983Z" transform="translate(-1147.89 -1587.359)" fill="#1f1f1f" stroke="#1f1f1f" stroke-width="0.3"/>
        </g>
      </g>
    </g>
  </g>
</svg>
