<svg id="ico_60_learn02" data-name="ico/60/learn02" xmlns="http://www.w3.org/2000/svg" width="60" height="60" viewBox="0 0 60 60">
  <rect id="base" width="60" height="60" fill="none"/>
  <g id="icon" transform="translate(0 8)">
    <path id="패스_31044" data-name="패스 31044" d="M206.791,116.115a.922.922,0,0,1-.218-1.817c.184-.045.419-.484.53-1.362a17.513,17.513,0,0,0,.015-2.977c-.018-.341-.033-.61-.033-.82a1.452,1.452,0,0,0-.327-1.067,1.045,1.045,0,0,0-.625-.258h0a.924.924,0,0,1-.764-.367,1.806,1.806,0,0,0-1.922-.614.777.777,0,0,1-.1.025,11.124,11.124,0,0,1-3.21.065c0,1.717.951,2.168,1.116,2.234a.875.875,0,0,1,.63.874v3.235a1.837,1.837,0,0,0,.6,1.095.921.921,0,1,1-1.213,1.387,3.678,3.678,0,0,1-1.227-2.3.912.912,0,0,1-.008-.119v-2.748a3.608,3.608,0,0,1-.841-.775,5.041,5.041,0,0,1-.8-4.111.921.921,0,0,1,1.132-.744,9.563,9.563,0,0,0,3.451.1,3.69,3.69,0,0,1,3.589.964,2.8,2.8,0,0,1,1.473.735,3.188,3.188,0,0,1,.887,2.389c0,.16.014.419.03.72.115,2.123.308,5.676-1.947,6.229a.922.922,0,0,1-.22.027" transform="translate(-173.927 -92.036)" fill="#1f1f1f"/>
    <path id="패스_31045" data-name="패스 31045" d="M114.493,155.423c-.028,0-.056,0-.084,0a.922.922,0,0,1-.835-1l.815-9.018-3.988.957a3.194,3.194,0,0,1-3.626-1.7l-3.9-7.875a2.9,2.9,0,0,1,5.179-2.6l3.046,5.981,7.432-1.768a.922.922,0,0,1,.426,1.793l-8.137,1.935a.922.922,0,0,1-1.034-.478l-3.376-6.628a1.054,1.054,0,0,0-1.885.946l3.9,7.875a1.36,1.36,0,0,0,1.545.723l5.236-1.256a.922.922,0,0,1,1.133.979l-.931,10.3a.922.922,0,0,1-.917.839" transform="translate(-89.977 -116.311)" fill="#1f1f1f"/>
    <path id="패스_31046" data-name="패스 31046" d="M258.091,155.423a.922.922,0,0,1-.917-.839l-.931-10.3a.922.922,0,0,1,1.133-.979l5.236,1.256a1.361,1.361,0,0,0,1.544-.723l3.9-7.875a1.054,1.054,0,0,0-1.885-.946l-3.375,6.628a.922.922,0,0,1-1.034.478l-7.877-1.874a.922.922,0,0,1,.426-1.793l7.172,1.706,3.047-5.981a2.9,2.9,0,0,1,5.179,2.6l-3.9,7.875a3.194,3.194,0,0,1-3.626,1.7l-3.988-.957.816,9.018a.922.922,0,0,1-.835,1c-.028,0-.056,0-.084,0" transform="translate(-222.065 -116.31)" fill="#1f1f1f"/>
    <path id="패스_31047" data-name="패스 31047" d="M410.5,157.507h-3.549a.921.921,0,0,1-.922-.922V139.332a4.476,4.476,0,0,1,4.471-4.471,3.8,3.8,0,0,0,3.8-3.8.922.922,0,1,1,1.843,0v20.8a5.646,5.646,0,0,1-5.64,5.64m-2.627-1.843H410.5a3.8,3.8,0,0,0,3.8-3.8V135.232a5.619,5.619,0,0,1-3.8,1.473,2.63,2.63,0,0,0-2.627,2.627Z" transform="translate(-356.143 -114.152)" fill="#1f1f1f"/>
    <path id="패스_31048" data-name="패스 31048" d="M9.189,157.507H5.64A5.646,5.646,0,0,1,0,151.867v-20.8a.922.922,0,1,1,1.843,0,3.8,3.8,0,0,0,3.8,3.8,4.476,4.476,0,0,1,4.471,4.471v17.253a.922.922,0,0,1-.922.922M1.843,135.232v16.635a3.8,3.8,0,0,0,3.8,3.8H8.267V139.332A2.63,2.63,0,0,0,5.64,136.7a5.619,5.619,0,0,1-3.8-1.473" transform="translate(0 -114.152)" fill="#1f1f1f"/>
    <path id="패스_31049" data-name="패스 31049" d="M59.078,17.443a.921.921,0,0,1-.922-.922c0-3.811-2.852-7.441-8.031-10.219C44.765,3.427,37.618,1.843,30,1.843S15.235,3.427,9.874,6.3C4.7,9.081,1.843,12.71,1.843,16.522a.922.922,0,1,1-1.843,0C0,12,3.2,7.793,9,4.679,14.627,1.662,22.084,0,30,0S45.373,1.662,51,4.679C56.8,7.793,60,12,60,16.522a.921.921,0,0,1-.922.922" fill="#1f1f1f"/>
    <path id="패스_31050" data-name="패스 31050" d="M422.862,98.934a.92.92,0,0,1-.748-.382,12.275,12.275,0,0,0-2.137-2.246.922.922,0,1,1,1.2-1.4,14.1,14.1,0,0,1,2.428,2.564.922.922,0,0,1-.747,1.461" transform="translate(-368.094 -83.052)" fill="#1f1f1f"/>
    <path id="패스_31051" data-name="패스 31051" d="M332.565,53.607a.917.917,0,0,1-.534-.171,22.739,22.739,0,0,0-9.156-3.789.922.922,0,1,1,.323-1.815,24.593,24.593,0,0,1,9.9,4.1.921.921,0,0,1-.535,1.672" transform="translate(-282.536 -41.943)" fill="#1f1f1f"/>
    <path id="패스_31052" data-name="패스 31052" d="M377.1,106.074a.919.919,0,0,1-.715-.34,18.712,18.712,0,0,0-5.632-4.487.921.921,0,1,1,.882-1.618,20.531,20.531,0,0,1,6.18,4.942.921.921,0,0,1-.714,1.5" transform="translate(-324.773 -87.289)" fill="#1f1f1f"/>
    <path id="패스_31053" data-name="패스 31053" d="M339.13,86.994a.92.92,0,0,1-.357-.072c-.5-.21-1.015-.411-1.537-.6a.921.921,0,1,1,.624-1.734c.553.2,1.1.412,1.629.635a.922.922,0,0,1-.358,1.771" transform="translate(-295.264 -74.147)" fill="#1f1f1f"/>
    <path id="패스_31054" data-name="패스 31054" d="M375.583,248.9a.917.917,0,0,1-.481-.136,29.813,29.813,0,0,0-4.262-2.145.922.922,0,0,1,.7-1.705,31.685,31.685,0,0,1,4.526,2.279.922.922,0,0,1-.483,1.707" transform="translate(-324.773 -214.762)" fill="#1f1f1f"/>
    <path id="패스_31055" data-name="패스 31055" d="M68.2,247.764a.922.922,0,0,1-.483-1.707,31.954,31.954,0,0,1,4.933-2.443.921.921,0,1,1,.678,1.714,30.119,30.119,0,0,0-4.648,2.3.916.916,0,0,1-.481.136" transform="translate(-59.015 -213.624)" fill="#1f1f1f"/>
    <path id="패스_31056" data-name="패스 31056" d="M74.515,61.835a.922.922,0,0,1-.922-.922V53.252a.922.922,0,0,1,.251-.633c3.317-3.514,9.075-4.731,9.318-4.782a.922.922,0,0,1,1.107.9v7.8a.922.922,0,0,1-.922.922c-.509,0-5.8-5.9-7.912,3.449a.922.922,0,0,1-.922.922" transform="translate(-64.551 -41.944)" fill="#501d83"/>
  </g>
</svg>
