<svg xmlns="http://www.w3.org/2000/svg" width="92" height="86" viewBox="0 0 92 86">
  <g id="ico_hss_quote" data-name="ico/hss/quote" transform="translate(-777 -1640)">
    <g id="icon" transform="translate(828.84 1640.173)">
      <g id="box" transform="translate(0.16 45.827)" fill="none" stroke="#ce0019" stroke-width="1.5">
        <rect width="40" height="40" stroke="none"/>
        <rect x="0.75" y="0.75" width="38.5" height="38.5" fill="none"/>
      </g>
      <g id="path" transform="translate(0.16 -0.173)" fill="none">
        <path d="M.984,46H0V40A39.967,39.967,0,0,1,40,0V20.444H33.043C14.279,25.37,4.092,33.49.984,46Z" stroke="none"/>
        <path d="M 1.499999761581421 40.02848434448242 C 6.155149459838867 30.06469345092773 16.2261962890625 23.30790901184082 32.66267013549805 18.99354934692383 L 32.84991073608398 18.94440078735352 L 38.49959945678711 18.94440078735352 L 38.49959945678711 1.52839469909668 C 33.8316650390625 1.705614805221558 29.30204391479492 2.711391925811768 25.01455879211426 4.524849891662598 C 20.43022918701172 6.463850021362305 16.31275939941406 9.239999771118164 12.77650928497314 12.77618980407715 C 9.240240097045898 16.31241035461426 6.464019775390625 20.42987060546875 4.524959564208984 25.01419067382812 C 2.517739772796631 29.75967979431152 1.499999761581421 34.80149841308594 1.499999761581421 39.99959945678711 L 1.499999761581421 40.02848434448242 M 0.9841797351837158 45.99975967407227 L 0.9835897088050842 45.99900054931641 L -2.716064386731887e-07 45.99900054931641 L -2.716064386731887e-07 39.99959945678711 C -2.716064386731887e-07 34.59965896606445 1.057609677314758 29.36124038696289 3.143459796905518 24.42984962463379 C 5.158139705657959 19.66674041748047 8.042309761047363 15.38901996612549 11.71585941314697 11.71551990509033 C 15.38937950134277 8.042059898376465 19.6671199798584 5.157959938049316 24.43022918701172 3.143339872360229 C 29.36153030395508 1.057569861412048 34.59981918334961 -1.62963871730426e-07 39.99959945678711 -1.62963871730426e-07 L 39.99959945678711 20.44440078735352 L 33.04349899291992 20.44440078735352 C 14.27913951873779 25.36980056762695 4.092039585113525 33.48995971679688 0.9843697547912598 45.99900054931641 L 0.9841797351837158 45.99975967407227 Z" stroke="none" fill="#ce0019"/>
      </g>
    </g>
    <g id="icon-2" data-name="icon" transform="translate(777.253 1640.173)">
      <g id="box-2" data-name="box" transform="translate(-0.253 45.827)" fill="none" stroke="#ce0019" stroke-width="1.5">
        <rect width="40" height="40" stroke="none"/>
        <rect x="0.75" y="0.75" width="38.5" height="38.5" fill="none"/>
      </g>
      <g id="path-2" data-name="path" transform="translate(-0.253 -0.173)" fill="none">
        <path d="M.984,46H0V40A39.967,39.967,0,0,1,40,0V20.444H33.043C14.279,25.37,4.092,33.49.984,46Z" stroke="none"/>
        <path d="M 1.499999761581421 40.02848434448242 C 6.155149459838867 30.06469345092773 16.2261962890625 23.30790901184082 32.66267013549805 18.99354934692383 L 32.84991073608398 18.94440078735352 L 38.49959945678711 18.94440078735352 L 38.49959945678711 1.52839469909668 C 33.8316650390625 1.705614805221558 29.30204391479492 2.711391925811768 25.01455879211426 4.524849891662598 C 20.43022918701172 6.463850021362305 16.31275939941406 9.239999771118164 12.77650928497314 12.77618980407715 C 9.240240097045898 16.31241035461426 6.464019775390625 20.42987060546875 4.524959564208984 25.01419067382812 C 2.517739772796631 29.75967979431152 1.499999761581421 34.80149841308594 1.499999761581421 39.99959945678711 L 1.499999761581421 40.02848434448242 M 0.9841797351837158 45.99975967407227 L 0.9835897088050842 45.99900054931641 L -2.716064386731887e-07 45.99900054931641 L -2.716064386731887e-07 39.99959945678711 C -2.716064386731887e-07 34.59965896606445 1.057609677314758 29.36124038696289 3.143459796905518 24.42984962463379 C 5.158139705657959 19.66674041748047 8.042309761047363 15.38901996612549 11.71585941314697 11.71551990509033 C 15.38937950134277 8.042059898376465 19.6671199798584 5.157959938049316 24.43022918701172 3.143339872360229 C 29.36153030395508 1.057569861412048 34.59981918334961 -1.62963871730426e-07 39.99959945678711 -1.62963871730426e-07 L 39.99959945678711 20.44440078735352 L 33.04349899291992 20.44440078735352 C 14.27913951873779 25.36980056762695 4.092039585113525 33.48995971679688 0.9843697547912598 45.99900054931641 L 0.9841797351837158 45.99975967407227 Z" stroke="none" fill="#ce0019"/>
      </g>
    </g>
  </g>
</svg>
