<svg id="ico_100_edu03" data-name="ico/100/edu03" xmlns="http://www.w3.org/2000/svg" width="100" height="100" viewBox="0 0 100 100">
  <rect id="base" width="100" height="100" fill="none"/>
  <g id="icon" transform="translate(355 480)">
    <path id="패스_9428" data-name="패스 9428" d="M79.539,207.932a.986.986,0,0,1-.991-.944l-.061-1.7a16.506,16.506,0,0,1,4.755-12.235,16.957,16.957,0,0,1,12.223-5.122h10.023a16.957,16.957,0,0,1,12.222,5.121,16.505,16.505,0,0,1,4.755,12.236l-.061,1.7a1.006,1.006,0,0,1-1.027.944.984.984,0,0,1-.956-1.013l.061-1.7a14.58,14.58,0,0,0-4.2-10.806,14.977,14.977,0,0,0-10.795-4.523H95.465a14.976,14.976,0,0,0-10.8,4.523,14.578,14.578,0,0,0-4.2,10.806l.061,1.7a.984.984,0,0,1-.957,1.013h-.035" transform="translate(-402.477 -590.932)" fill="#fff"/>
    <path id="패스_9429" data-name="패스 9429" d="M117.663,142.443a11,11,0,1,1,11-11,11.012,11.012,0,0,1-11,11m0-20.022a9.022,9.022,0,1,0,9.022,9.022,9.032,9.032,0,0,0-9.022-9.022" transform="translate(-419.663 -549.443)" fill="#fff"/>
    <path id="패스_9430" data-name="패스 9430" d="M2.083,160.942A1,1,0,0,1,1.07,160l-.058-1.7a16.292,16.292,0,0,1,4.857-12.229,17.54,17.54,0,0,1,12.5-5.122h9.255a17.711,17.711,0,0,1,9.94,3.012.957.957,0,0,1,.251,1.363,1.036,1.036,0,0,1-1.413.242,15.642,15.642,0,0,0-8.778-2.658H18.371a15.492,15.492,0,0,0-11.042,4.524,14.39,14.39,0,0,0-4.289,10.8l.058,1.7a.994.994,0,0,1-.981,1.01H2.083" transform="translate(-356 -561.942)" fill="#fff"/>
    <path id="패스_9431" data-name="패스 9431" d="M39.179,95.448a11,11,0,1,1,11-11,11.012,11.012,0,0,1-11,11m0-20.022A9.022,9.022,0,1,0,48.2,84.448a9.032,9.032,0,0,0-9.022-9.022" transform="translate(-373.179 -520.448)" fill="#fff"/>
    <path id="패스_9432" data-name="패스 9432" d="M100.714,34a1.681,1.681,0,0,1-1.14-.443l-5.328-4.908H79.737a8.549,8.549,0,0,1-8.625-8.45V8.45A8.549,8.549,0,0,1,79.737,0h26.749a8.549,8.549,0,0,1,8.626,8.45V19.96a.995.995,0,0,1-1.989,0V8.45a6.577,6.577,0,0,0-6.636-6.5H79.737A6.577,6.577,0,0,0,73.1,8.45V20.2a6.577,6.577,0,0,0,6.636,6.5h14.9a1,1,0,0,1,.681.264l5.184,4.775.82-4.246a.989.989,0,0,1,.978-.793h4.184c.058,0,.117,0,.174,0a.992.992,0,0,1,1.066.9.981.981,0,0,1-.918,1.044c-.107.008-.215.009-.322.009h-3.36l-.777,4.024a1.641,1.641,0,0,1-1.12,1.248,1.7,1.7,0,0,1-.515.08" transform="translate(-400.112 -477)" fill="#fff"/>
    <path id="패스_9434" data-name="패스 9434" d="M183.506,107.8a1.694,1.694,0,0,1-.287-.024,1.717,1.717,0,0,1-1.24-.914l-1.818-3.6a8.858,8.858,0,0,1-8.833-8.828V81.628A8.859,8.859,0,0,1,180.2,72.8H196.46a8.859,8.859,0,0,1,8.869,8.828V94.436a8.859,8.859,0,0,1-8.869,8.828h-7.523l-4.243,4.061a1.721,1.721,0,0,1-1.188.475" transform="translate(-460.329 -520.8)" fill="#00a597"/>
  </g>
</svg>
