<svg id="logo_white" xmlns="http://www.w3.org/2000/svg" xmlns:xlink="http://www.w3.org/1999/xlink" width="200" height="80" viewBox="0 0 200 80">
  <defs>
    <clipPath id="clip-path">
      <rect id="mask" width="200" height="80" fill="none"/>
    </clipPath>
  </defs>
  <g id="mask-2" data-name="mask" clip-path="url(#clip-path)">
    <path id="패스_819" data-name="패스 819" d="M87.465,23.732h-20v40h-20V83.375a35.016,35.016,0,0,0,40-34.626Z" transform="translate(-7.465 -3.732)" fill="#fff"/>
    <path id="패스_820" data-name="패스 820" d="M112.017,23.71h16.824v3.518h-6.3V44.251h-4.227V27.228h-6.3Z" transform="translate(-18.017 -3.728)" fill="#fff"/>
    <path id="패스_821" data-name="패스 821" d="M130.734,44.251l7.121-20.541h5.476l7.092,20.541h-4.568l-1.546-4.738h-7.433l-1.546,4.738Zm12.5-8.057-2.568-7.859h-.142l-2.568,7.859Z" transform="translate(-20.96 -3.728)" fill="#fff"/>
    <path id="패스_822" data-name="패스 822" d="M156.859,23.71h13.788v3.518h-9.532v4.993h8.823v3.518h-8.823v4.993h9.561v3.518H156.859Z" transform="translate(-25.069 -3.728)" fill="#fff"/>
    <path id="패스_823" data-name="패스 823" d="M189.374,23.71V38.037c0,3.986-2.823,6.5-6.951,6.5-3.716,0-6.625-1.958-6.61-6.015h4.256a2.4,2.4,0,0,0,2.553,2.582c1.631,0,2.525-1.05,2.525-3.064V23.71Z" transform="translate(-28.05 -3.728)" fill="#fff"/>
    <path id="패스_824" data-name="패스 824" d="M194.632,44.251l7.12-20.541h5.476l7.092,20.541h-4.567l-1.547-4.738h-7.432l-1.547,4.738Zm12.5-8.057-2.569-7.859h-.142l-2.568,7.859Z" transform="translate(-31.009 -3.728)" fill="#fff"/>
    <path id="패스_825" data-name="패스 825" d="M220.756,23.71h13.788v3.518h-9.532v4.993h8.823v3.518h-8.823v4.993h9.561v3.518H220.756Z" transform="translate(-35.118 -3.728)" fill="#fff"/>
    <path id="패스_826" data-name="패스 826" d="M123.832,64.224a2.591,2.591,0,0,1-5.179,0V56.265h-2.607v8.167c0,2.755,2.068,4.6,5.2,4.588,3.119.009,5.213-1.833,5.213-4.588V56.265h-2.624Z" transform="translate(-18.651 -8.848)" fill="#fff"/>
    <path id="패스_827" data-name="패스 827" d="M139.283,64.259h-.121l-5.491-7.993h-2.294V68.847h2.607V60.853h.1l5.527,7.994h2.259V56.266h-2.589Z" transform="translate(-21.061 -8.848)" fill="#fff"/>
    <rect id="사각형_174" data-name="사각형 174" width="2.607" height="12.581" transform="translate(123.319 47.417)" fill="#fff"/>
    <path id="패스_828" data-name="패스 828" d="M157.431,65.858h-.121l-3.059-9.592h-2.919l4.362,12.581h3.354l4.344-12.581h-2.885Z" transform="translate(-24.199 -8.848)" fill="#fff"/>
    <path id="패스_829" data-name="패스 829" d="M169.682,63.633h5.4V61.478h-5.4V58.42h5.838V56.265h-8.445V68.846h8.463V66.692h-5.856Z" transform="translate(-26.675 -8.848)" fill="#fff"/>
    <path id="패스_830" data-name="패스 830" d="M189.384,60.366c0-2.494-1.643-4.1-4.5-4.1h-4.935V68.846h2.607V64.381h1.99l2.407,4.466h2.885l-2.676-4.892a3.635,3.635,0,0,0,2.224-3.588M184.4,62.26h-1.842V58.4H184.4c1.546.009,2.3.7,2.294,1.964.008,1.26-.748,1.894-2.294,1.894" transform="translate(-28.7 -8.848)" fill="#fff"/>
    <path id="패스_831" data-name="패스 831" d="M199.024,61.533l-1.129-.278c-1.086-.244-2.025-.651-2.016-1.564.008-.834.747-1.442,2.068-1.442,1.277,0,2.067.582,2.172,1.581h2.5c-.035-2.224-1.868-3.77-4.657-3.77-2.754,0-4.77,1.52-4.761,3.8,0,1.842,1.3,2.9,3.423,3.424l1.373.33c1.373.34,2.155.739,2.155,1.6,0,.938-.886,1.581-2.259,1.581-1.391,0-2.4-.643-2.485-1.911h-2.537c.078,2.7,2.016,4.109,5.057,4.1,3.067.008,4.857-1.468,4.866-3.77-.009-2.094-1.616-3.189-3.771-3.684" transform="translate(-30.732 -8.816)" fill="#fff"/>
    <rect id="사각형_175" data-name="사각형 175" width="2.607" height="12.581" transform="translate(173.957 47.417)" fill="#fff"/>
    <path id="패스_832" data-name="패스 832" d="M230.657,56.265l-2.885,5.422h-.121l-2.9-5.422H211.589V58.42h3.858V68.846h2.59V58.42h3.857V56.411l4.505,7.952v4.483h2.607V64.363l4.588-8.1Z" transform="translate(-33.676 -8.848)" fill="#fff"/>
    <rect id="사각형_176" data-name="사각형 176" width="20" height="20" transform="translate(0 0.001)" fill="#fff"/>
    <path id="패스_833" data-name="패스 833" d="M43.732,0l-20,20V60h20V20h20V0Z" transform="translate(-3.732 0)" fill="#fff"/>
  </g>
</svg>
