<svg id="icon_flag_hongkong" data-name="icon/flag/hongkong" xmlns="http://www.w3.org/2000/svg" xmlns:xlink="http://www.w3.org/1999/xlink" width="40" height="40" viewBox="0 0 40 40">
  <defs>
    <clipPath id="clip-path">
      <rect id="mask" width="40" height="40" fill="none"/>
    </clipPath>
  </defs>
  <g id="mask-2" data-name="mask" clip-path="url(#clip-path)">
    <g id="그룹_3357" data-name="그룹 3357">
      <g id="그룹_3356" data-name="그룹 3356" transform="translate(0 0)" clip-path="url(#clip-path)">
        <path id="패스_31435" data-name="패스 31435" d="M20,0A20,20,0,1,1,0,20,20,20,0,0,1,20,0" transform="translate(0 0)" fill="#de2910"/>
        <path id="패스_31436" data-name="패스 31436" d="M28.395,27.936c.238-.3.472-.594.712-.888-.015.379-.036.758-.051,1.136.354.134.71.267,1.063.4-.365.1-.732.2-1.1.3-.018.378-.034.756-.054,1.133-.21-.315-.416-.633-.625-.948-.367.1-.731.2-1.1.3.234-.3.475-.592.709-.89-.209-.317-.418-.632-.624-.95.356.13.71.267,1.065.4" transform="translate(-11.32 -11.238)" fill="#ffde00"/>
        <path id="패스_31437" data-name="패스 31437" d="M33.728,21.5c.133.355.26.714.393,1.07.378-.014.756-.033,1.135-.039-.3.234-.6.466-.894.7l.39,1.071c-.316-.212-.63-.428-.948-.637-.3.234-.6.468-.895.7.1-.368.216-.731.308-1.1-.316-.205-.627-.42-.94-.63l1.137-.041c.106-.364.208-.73.314-1.094" transform="translate(-13.411 -8.935)" fill="#ffde00"/>
        <path id="패스_31438" data-name="패스 31438" d="M33.085,13.721c.267.271.528.545.793.815q.51-.252,1.022-.5c-.175.334-.348.669-.53,1,.254.285.531.549.792.828-.373-.066-.748-.132-1.122-.2-.181.334-.354.671-.534,1.005-.056-.376-.106-.752-.163-1.127-.363-.066-.727-.124-1.09-.191.31-.2.663-.332.99-.507-.051-.375-.109-.75-.159-1.126" transform="translate(-13.401 -5.701)" fill="#ffde00"/>
        <path id="패스_31439" data-name="패스 31439" d="M11.813,14.008q.525-1.626,1.056-3.249c.355,1.084.7,2.169,1.059,3.252q1.709,0,3.418,0-1.379,1.007-2.764,2.008c.347,1.087.7,2.169,1.054,3.255q-1.383-1-2.762-2.008c-.929.662-1.846,1.341-2.772,2.008.348-1.087.711-2.17,1.054-3.257-.923-.666-1.842-1.337-2.763-2.005,1.141-.005,2.281,0,3.421,0" transform="translate(-3.487 -4.47)" fill="#ffde00"/>
        <path id="패스_31440" data-name="패스 31440" d="M28.4,9.143c.244-.288.493-.571.742-.855-.032.378-.067.756-.1,1.135.35.149.7.295,1.048.447-.371.084-.741.167-1.11.256-.034.377-.066.755-.1,1.132-.2-.324-.39-.651-.588-.976-.37.084-.74.17-1.109.255.247-.289.5-.572.747-.863q-.295-.484-.584-.972c.352.143.7.3,1.053.441" transform="translate(-11.294 -3.443)" fill="#ffde00"/>
      </g>
    </g>
  </g>
</svg>
