<svg xmlns="http://www.w3.org/2000/svg" width="60.302" height="60.304" viewBox="0 0 60.302 60.304">
  <g id="ico_60_history08" data-name="ico/60/history08" transform="translate(-318.847 -3500.845)">
    <rect id="base" width="60" height="60" transform="translate(319 3501)" fill="none"/>
    <g id="icon" transform="translate(-3518.43 1803.687)">
      <g id="그룹_3145" data-name="그룹 3145" transform="translate(3837.885 1697.314)">
        <g id="그룹_3141" data-name="그룹 3141" transform="translate(5.527 39.711)">
          <path id="패스_9820" data-name="패스 9820" d="M3867.119,1862.464a3.451,3.451,0,0,1-.541-.043,3.4,3.4,0,0,1-2.809-3.89.654.654,0,0,1,.033-.125l4.046-11.067a.677.677,0,0,1,1.272.465l-4.023,11a2.039,2.039,0,0,0,4.034.592.656.656,0,0,1,.04-.145l3.787-9.442a.677.677,0,0,1,1.256.5l-3.76,9.375A3.4,3.4,0,0,1,3867.119,1862.464Z" transform="translate(-3863.726 -1846.895)" fill="#1f1f1f" stroke="#1f1f1f" stroke-width="0.3"/>
        </g>
        <g id="그룹_3142" data-name="그룹 3142" transform="translate(22.578 20.845)">
          <path id="패스_9821" data-name="패스 9821" d="M3930.984,1786.457a2.969,2.969,0,0,1-1.057-.19,7.16,7.16,0,0,1-1.573-.825.677.677,0,1,1,.878-1.031,6.541,6.541,0,0,0,1.175.59,1.92,1.92,0,0,0,1.934-.436,2.042,2.042,0,0,0,.157-2.88l-4.364-4.716a.677.677,0,1,1,.994-.919l4.372,4.724a3.412,3.412,0,0,1-2.516,5.684Z" transform="translate(-3927.955 -1775.831)" fill="#1f1f1f" stroke="#1f1f1f" stroke-width="0.3"/>
        </g>
        <g id="그룹_3143" data-name="그룹 3143" transform="translate(0 14.568)">
          <path id="패스_9822" data-name="패스 9822" d="M3869.093,1788.132a3.4,3.4,0,0,1-3.187-2.212.734.734,0,0,1-.028-.1l-1.248-5.912-8.554-4.165a4.5,4.5,0,0,1-.449-.22l-.126-.06a.673.673,0,0,1-.176-.123,4.807,4.807,0,0,1-2.211-4.009l-.089-9.856-1.452.4-2.056,6.043a3.394,3.394,0,1,1-6.425-2.192l2.528-7.432a3.374,3.374,0,0,1,1.253-1.673h0c.157-.1.974-.459,8.539-3.8a.666.666,0,0,1,.072-.027,4.806,4.806,0,0,1,2.293-.61h.044a4.843,4.843,0,0,1,4.837,4.793l.129,14.264c0,.071,0,.144,0,.219,5.633,2.748,6.347,3.1,6.488,3.181h0a3.368,3.368,0,0,1,1.3,1.641.731.731,0,0,1,.023.078l1.692,7.235a3.393,3.393,0,0,1-3.192,4.533Zm-1.9-2.641a2.041,2.041,0,0,0,3.81-1.463.55.55,0,0,1-.024-.081l-1.692-7.231a2.006,2.006,0,0,0-.732-.923c-.3-.153-2.755-1.351-6.785-3.317a.677.677,0,0,1-.374-.7,3.4,3.4,0,0,0,.039-.515l-.129-14.264a3.5,3.5,0,0,0-3.483-3.452h-.032a3.46,3.46,0,0,0-1.755.5.672.672,0,0,1-.225.086c-3.129,1.381-7.676,3.389-8.2,3.631a2,2,0,0,0-.7.967l-2.529,7.434a2.04,2.04,0,1,0,3.862,1.318l2.172-6.383a.676.676,0,0,1,.463-.435l2.646-.721a.677.677,0,0,1,.855.647l.1,10.733a3.47,3.47,0,0,0,1.688,2.945.611.611,0,0,1,.065.045l.03.014a3.9,3.9,0,0,0,.382.187l8.888,4.327a.678.678,0,0,1,.366.469Z" transform="translate(-3842.908 -1752.189)" fill="#1f1f1f" stroke="#1f1f1f" stroke-width="0.3"/>
        </g>
        <g id="그룹_3144" data-name="그룹 3144" transform="translate(10.348 0)">
          <path id="패스_9823" data-name="패스 9823" d="M3887.645,1708.858a5.772,5.772,0,1,1,5.734-6.527h0a5.772,5.772,0,0,1-4.968,6.477A5.879,5.879,0,0,1,3887.645,1708.858Zm.015-10.19a4.418,4.418,0,1,0,4.377,3.841h0A4.425,4.425,0,0,0,3887.66,1698.667Z" transform="translate(-3881.885 -1697.314)" fill="#1f1f1f" stroke="#1f1f1f" stroke-width="0.3"/>
        </g>
      </g>
      <g id="그룹_3151" data-name="그룹 3151" transform="translate(-66.043 -165.133)">
        <path id="패스_9827" data-name="패스 9827" d="M3904.094,1921.127h18.89v-5.181a.668.668,0,0,1,.677-.66h18.89v-5.181a.668.668,0,0,1,.677-.66H3962.8a.66.66,0,1,1,0,1.319H3943.9v5.181a.668.668,0,0,1-.676.66h-18.891v5.181a.668.668,0,0,1-.677.66h-18.891C3903.2,1922.446,3903.154,1921.127,3904.094,1921.127Z" transform="translate(0 0)" fill="#1f1f1f" stroke="#1f1f1f" stroke-width="0.3"/>
      </g>
      <g id="그룹_3149" data-name="그룹 3149" transform="translate(3878.001 1713.854)">
        <g id="그룹_3147" data-name="그룹 3147" transform="translate(15.382 0.71)">
          <path id="패스_9825" data-name="패스 9825" d="M4022.5,1785.765a.677.677,0,0,1-.677-.677V1759.2a.677.677,0,1,1,1.354,0v25.884A.677.677,0,0,1,4022.5,1785.765Z" transform="translate(-4021.827 -1758.527)" fill="#1f1f1f" stroke="#1f1f1f" stroke-width="0.3"/>
        </g>
        <g id="그룹_3148" data-name="그룹 3148" transform="translate(0 0)">
          <path id="패스_9826" data-name="패스 9826" d="M3967.808,1769.786a8.024,8.024,0,0,1-3.539-.776.677.677,0,0,1-.2-1.073,30.991,30.991,0,0,0,3.3-4.409,57.4,57.4,0,0,1-3.411-5.988.677.677,0,0,1,.9-.91c2.347,1.124,4.725.555,7.242-.048,2.635-.631,5.361-1.283,8.141.048a.677.677,0,0,1,.384.611v11.16a.677.677,0,0,1-.969.61c-2.347-1.124-4.724-.555-7.241.048A19.922,19.922,0,0,1,3967.808,1769.786Z" transform="translate(-3963.884 -1755.853)" fill="#501d83" stroke="#501d83" stroke-width="0.3"/>
        </g>
      </g>
    </g>
  </g>
</svg>
