<svg id="ico_100_fps" data-name="ico/100/fps" xmlns="http://www.w3.org/2000/svg" xmlns:xlink="http://www.w3.org/1999/xlink" width="100" height="100" viewBox="0 0 100 100">
  <defs>
    <clipPath id="clip-path">
      <rect id="사각형_2679" data-name="사각형 2679" width="77.986" height="78.395" fill="none"/>
    </clipPath>
    <clipPath id="clip-path-2">
      <rect id="사각형_2680" data-name="사각형 2680" width="97.01" height="74.159" transform="translate(0 0)" fill="none" stroke="#501d83" stroke-width="1"/>
    </clipPath>
  </defs>
  <rect id="base" width="100" height="100" fill="none"/>
  <g id="그룹_3059" data-name="그룹 3059" transform="translate(1 12.154)">
    <g id="그룹_3058" data-name="그룹 3058" transform="translate(0 0)" clip-path="url(#clip-path)">
      <path id="패스_15874" data-name="패스 15874" d="M11.946,66a38.2,38.2,0,1,1,65.06-32.033" transform="translate(-0.01 -0.01)" fill="none" stroke="#000" stroke-linecap="round" stroke-width="2"/>
      <path id="패스_15875" data-name="패스 15875" d="M76.895,47.026a38.231,38.231,0,0,1-52.27,27.891" transform="translate(-0.249 -0.475)" fill="none" stroke="#000" stroke-linecap="round" stroke-width="2"/>
      <path id="패스_15876" data-name="패스 15876" d="M59.408,46.569C60.882,33.029,58.2,18.507,51.814,9.52,42.855-3.1,30.005-.027,23.115,16.373c-5.928,14.106-5.517,33.479.414,46.651" transform="translate(-0.191 -0.017)" fill="none" stroke="#000" stroke-linecap="round" stroke-width="2"/>
      <path id="패스_15877" data-name="패스 15877" d="M30.5,73.536c8.36,7.465,18.665,3.68,24.756-9.886" transform="translate(-0.308 -0.643)" fill="none" stroke="#000" stroke-linecap="round" stroke-width="2"/>
      <line id="선_42" data-name="선 42" y2="56.352" transform="translate(39.145 0.99)" fill="none" stroke="#000" stroke-linecap="round" stroke-width="2"/>
      <line id="선_43" data-name="선 43" y2="6.441" transform="translate(39.145 70.466)" fill="none" stroke="#000" stroke-linecap="round" stroke-width="2"/>
      <line id="선_44" data-name="선 44" x2="68.36" transform="translate(1.095 39.198)" fill="none" stroke="#000" stroke-linecap="round" stroke-width="2"/>
      <line id="선_45" data-name="선 45" x2="66.51" transform="translate(5.931 20.555)" fill="none" stroke="#000" stroke-linecap="round" stroke-width="2"/>
      <line id="선_46" data-name="선 46" x2="32.958" transform="translate(6.14 57.841)" fill="none" stroke="#000" stroke-linecap="round" stroke-width="2"/>
      <line id="선_47" data-name="선 47" x2="6.726" transform="translate(65.12 57.841)" fill="none" stroke="#000" stroke-linecap="round" stroke-width="2"/>
    </g>
  </g>
  <g id="그룹_3061" data-name="그룹 3061" transform="translate(1.99 10.175)">
    <g id="그룹_3060" data-name="그룹 3060" transform="translate(0 0)" clip-path="url(#clip-path-2)">
      <path id="패스_15878" data-name="패스 15878" d="M69.756.678a5.053,5.053,0,1,0,6.9,1.849,5.053,5.053,0,0,0-6.9-1.849" transform="translate(-0.679 0)" fill="#00a597"/>
      <path id="패스_15879" data-name="패스 15879" d="M77.007,4.224c8.585-1.319,15.045-.086,17.72,4.069,6.123,9.511-9.9,30.727-35.778,47.39S7.123,78.143,1,68.633" transform="translate(-0.01 -0.038)" fill="none" stroke="#00a597" stroke-linecap="round" stroke-width="2"/>
    </g>
  </g>
</svg>
