<svg xmlns="http://www.w3.org/2000/svg" width="60" height="60" viewBox="0 0 60 60">
  <g id="ico_60_history04" data-name="ico/60/history04" transform="translate(-319 -3501)">
    <rect id="base" width="60" height="60" transform="translate(319 3501)" fill="none"/>
    <g id="icon" transform="translate(-3518.092 2426.026)">
      <g id="그룹_3107" data-name="그룹 3107" transform="translate(3888.884 1114.415)">
        <path id="패스_9795" data-name="패스 9795" d="M4046.069,1246.881h-.082a.6.6,0,0,1,0-1.193h.082a1.582,1.582,0,0,0,1.58-1.58V1240.9a.6.6,0,1,1,1.193,0v3.208A2.776,2.776,0,0,1,4046.069,1246.881Z" transform="translate(-4045.391 -1240.304)" fill="#1f1f1f" stroke="#1f1f1f" stroke-width="0.3"/>
      </g>
      <g id="그룹_3108" data-name="그룹 3108" transform="translate(3841.092 1075.974)">
        <path id="패스_9796" data-name="패스 9796" d="M3870.71,1120.992h-26.845a2.776,2.776,0,0,1-2.772-2.772v-39.469a2.778,2.778,0,0,1,2.772-2.777h45.7a2.778,2.778,0,0,1,2.773,2.777v32.084a.6.6,0,1,1-1.193,0v-32.084a1.584,1.584,0,0,0-1.58-1.584h-45.7a1.583,1.583,0,0,0-1.58,1.584v39.469a1.581,1.581,0,0,0,1.58,1.579h26.845a.6.6,0,1,1,0,1.193Z" transform="translate(-3841.092 -1075.974)" fill="#1f1f1f" stroke="#1f1f1f" stroke-width="0.3"/>
      </g>
      <g id="그룹_3112" data-name="그룹 3112" transform="translate(3868.635 1107.567)">
        <g id="그룹_3111" data-name="그룹 3111" transform="translate(0 12.665)">
          <path id="패스_9799" data-name="패스 9799" d="M3960.7,1278.912a1.884,1.884,0,0,1-1.851-2.169l1.719-11.068a.6.6,0,0,1,1.179.183l-1.719,11.067a.685.685,0,0,0,.929.743l6.984-2.759a.6.6,0,0,1,.438,0l6.984,2.759a.685.685,0,0,0,.928-.743l-.888-5.72a.6.6,0,0,1,1.179-.183l.888,5.72a1.878,1.878,0,0,1-2.546,2.035l-6.764-2.672-6.765,2.672A1.891,1.891,0,0,1,3960.7,1278.912Z" transform="translate(-3958.831 -1265.171)" fill="#1f1f1f" stroke="#1f1f1f" stroke-width="0.3"/>
        </g>
        <g id="그룹_3109" data-name="그룹 3109" transform="translate(0.468 0)">
          <path id="패스_9797" data-name="패스 9797" d="M3969.7,1228.761a8.865,8.865,0,1,1,8.865-8.865A8.876,8.876,0,0,1,3969.7,1228.761Z" transform="translate(-3960.833 -1211.03)" fill="#501d83" stroke="#501d83" stroke-width="0.3"/>
        </g>
        <g id="그룹_3110" data-name="그룹 3110" transform="translate(3.985 8.269)">
          <path id="패스_9798" data-name="패스 9798" d="M3977.9,1250.974a.6.6,0,0,1-.416-.169,5.307,5.307,0,0,1-1.619-3.831.6.6,0,0,1,1.193,0,4.121,4.121,0,0,0,1.258,2.976.6.6,0,0,1-.417,1.024Z" transform="translate(-3975.865 -1246.377)" fill="#fff" stroke="#fff" stroke-width="0.3"/>
        </g>
      </g>
      <g id="그룹_3117" data-name="그룹 3117" transform="translate(3849.008 1085.153)">
        <g id="그룹_3113" data-name="그룹 3113" transform="translate(10.912 0)">
          <path id="패스_9800" data-name="패스 9800" d="M3934.567,1116.408h-12.394a.6.6,0,0,1,0-1.193h12.394a.6.6,0,0,1,0,1.193Z" transform="translate(-3921.577 -1115.215)" fill="#1f1f1f" stroke="#1f1f1f" stroke-width="0.3"/>
        </g>
        <g id="그룹_3114" data-name="그룹 3114" transform="translate(0 10.265)">
          <path id="패스_9801" data-name="패스 9801" d="M3909.746,1160.288h-34.217a.6.6,0,0,1,0-1.193h34.217a.6.6,0,0,1,0,1.193Z" transform="translate(-3874.932 -1159.095)" fill="#1f1f1f" stroke="#1f1f1f" stroke-width="0.3"/>
        </g>
        <g id="그룹_3115" data-name="그룹 3115" transform="translate(0 16.258)">
          <path id="패스_9802" data-name="패스 9802" d="M3899.594,1185.909h-24.067a.6.6,0,0,1,0-1.193h24.067a.6.6,0,1,1,0,1.193Z" transform="translate(-3874.93 -1184.716)" fill="#1f1f1f" stroke="#1f1f1f" stroke-width="0.3"/>
        </g>
        <g id="그룹_3116" data-name="그룹 3116" transform="translate(3.529 27.301)">
          <path id="패스_9803" data-name="패스 9803" d="M3894.193,1233.115h-3.58a.6.6,0,1,1,0-1.193h3.58a.6.6,0,1,1,0,1.193Z" transform="translate(-3890.016 -1231.922)" fill="#1f1f1f" stroke="#1f1f1f" stroke-width="0.3"/>
        </g>
      </g>
    </g>
  </g>
</svg>
