<svg xmlns="http://www.w3.org/2000/svg" width="108.001" height="100" viewBox="0 0 108.001 100">
  <g id="ico_quote" data-name="ico/quote" transform="translate(-769 -1640)">
    <g id="icon" transform="translate(62.001)">
      <g id="box" transform="translate(769 1694)" fill="none" stroke="#501d83" stroke-width="1.5">
        <rect width="46" height="46" stroke="none"/>
        <rect x="0.75" y="0.75" width="44.5" height="44.5" fill="none"/>
      </g>
      <g id="path" transform="translate(-2688 7640)" fill="none">
        <path d="M3458.132-5946H3457v-8a45.715,45.715,0,0,1,3.615-17.906,45.845,45.845,0,0,1,9.858-14.622,45.858,45.858,0,0,1,14.622-9.858A45.721,45.721,0,0,1,3503-6000v24h-8c-21.579,5.782-33.294,15.315-36.868,30Z" stroke="none"/>
        <path d="M 3458.49951171875 -5951.9208984375 C 3463.619140625 -5964.07861328125 3475.26318359375 -5972.26513671875 3494.61181640625 -5977.44970703125 L 3494.802490234375 -5977.5009765625 L 3501.500244140625 -5977.5009765625 L 3501.500244140625 -5998.4755859375 C 3496.0224609375 -5998.2958984375 3490.70703125 -5997.1298828125 3485.678955078125 -5995.00390625 C 3480.380615234375 -5992.7626953125 3475.621337890625 -5989.5537109375 3471.533203125 -5985.46630859375 C 3467.4462890625 -5981.37939453125 3464.237548828125 -5976.6201171875 3461.99609375 -5971.32080078125 C 3459.67578125 -5965.83544921875 3458.49951171875 -5960.0078125 3458.49951171875 -5953.99951171875 L 3458.49951171875 -5951.9208984375 M 3458.131591796875 -5945.99951171875 L 3458.131103515625 -5946.00048828125 L 3456.99951171875 -5946.00048828125 L 3456.99951171875 -5953.99951171875 C 3456.99951171875 -5960.20947265625 3458.2158203125 -5966.23388671875 3460.614501953125 -5971.9052734375 C 3462.93115234375 -5977.38232421875 3466.247802734375 -5982.30224609375 3470.47265625 -5986.52685546875 C 3474.69775390625 -5990.75146484375 3479.6171875 -5994.068359375 3485.094482421875 -5996.38525390625 C 3490.76611328125 -5998.78369140625 3496.79052734375 -6000 3503.000244140625 -6000 L 3503.000244140625 -5976.0009765625 L 3495 -5976.0009765625 C 3473.4208984375 -5970.21875 3461.705810546875 -5960.68603515625 3458.1318359375 -5946.00048828125 L 3458.131591796875 -5945.99951171875 Z" stroke="none" fill="#501d83"/>
      </g>
    </g>
    <g id="icon-2" data-name="icon">
      <g id="box-2" data-name="box" transform="translate(769 1694)" fill="none" stroke="#501d83" stroke-width="1.5">
        <rect width="46" height="46" stroke="none"/>
        <rect x="0.75" y="0.75" width="44.5" height="44.5" fill="none"/>
      </g>
      <g id="path-2" data-name="path" transform="translate(-2688 7640)" fill="none">
        <path d="M3458.132-5946H3457v-8a45.715,45.715,0,0,1,3.615-17.906,45.845,45.845,0,0,1,9.858-14.622,45.858,45.858,0,0,1,14.622-9.858A45.721,45.721,0,0,1,3503-6000v24h-8c-21.579,5.782-33.294,15.315-36.868,30Z" stroke="none"/>
        <path d="M 3458.49951171875 -5951.9208984375 C 3463.619140625 -5964.07861328125 3475.26318359375 -5972.26513671875 3494.61181640625 -5977.44970703125 L 3494.802490234375 -5977.5009765625 L 3501.500244140625 -5977.5009765625 L 3501.500244140625 -5998.4755859375 C 3496.0224609375 -5998.2958984375 3490.70703125 -5997.1298828125 3485.678955078125 -5995.00390625 C 3480.380615234375 -5992.7626953125 3475.621337890625 -5989.5537109375 3471.533203125 -5985.46630859375 C 3467.4462890625 -5981.37939453125 3464.237548828125 -5976.6201171875 3461.99609375 -5971.32080078125 C 3459.67578125 -5965.83544921875 3458.49951171875 -5960.0078125 3458.49951171875 -5953.99951171875 L 3458.49951171875 -5951.9208984375 M 3458.131591796875 -5945.99951171875 L 3458.131103515625 -5946.00048828125 L 3456.99951171875 -5946.00048828125 L 3456.99951171875 -5953.99951171875 C 3456.99951171875 -5960.20947265625 3458.2158203125 -5966.23388671875 3460.614501953125 -5971.9052734375 C 3462.93115234375 -5977.38232421875 3466.247802734375 -5982.30224609375 3470.47265625 -5986.52685546875 C 3474.69775390625 -5990.75146484375 3479.6171875 -5994.068359375 3485.094482421875 -5996.38525390625 C 3490.76611328125 -5998.78369140625 3496.79052734375 -6000 3503.000244140625 -6000 L 3503.000244140625 -5976.0009765625 L 3495 -5976.0009765625 C 3473.4208984375 -5970.21875 3461.705810546875 -5960.68603515625 3458.1318359375 -5946.00048828125 L 3458.131591796875 -5945.99951171875 Z" stroke="none" fill="#501d83"/>
      </g>
    </g>
  </g>
</svg>
