<svg xmlns="http://www.w3.org/2000/svg" width="100" height="100" viewBox="0 0 100 100">
  <g id="icon_100_support04" data-name="icon/100/support04" transform="translate(9 1)">
    <rect id="base" width="100" height="100" transform="translate(-9 -1)" fill="none"/>
    <g id="icon" transform="translate(-9 3)">
      <path id="패스_31085" data-name="패스 31085" d="M168.507,42.622a.935.935,0,0,1-.648-1.609c6.137-5.907,8.52-11.824,7.08-17.586-.077-.354-.163-.68-.264-1a.935.935,0,1,1,1.783-.564c.119.375.22.758.3,1.14,1.584,6.338-1.043,13.042-7.6,19.357a.933.933,0,0,1-.648.262" transform="translate(-106.113 -13.432)" fill="#1f1f1f"/>
      <path id="패스_31086" data-name="패스 31086" d="M87.536,29.191a.932.932,0,0,1-.649-.262C80.325,22.605,77.7,15.9,79.3,9.529c.849-3.953,4.009-8.389,9.138-9.322a12.6,12.6,0,0,1,11.5,3.846,12.634,12.634,0,0,1,11.55-3.83,10.712,10.712,0,0,1,5.19,2.59.935.935,0,0,1-1.248,1.394A8.771,8.771,0,0,0,111.1,2.053,10.833,10.833,0,0,0,100.654,6.06a.934.934,0,0,1-.723.342h0a.937.937,0,0,1-.723-.343,10.92,10.92,0,0,0-10.39-4.022c-4.326.788-6.973,4.542-7.7,7.916-1.452,5.793.929,11.714,7.067,17.629a.935.935,0,0,1-.649,1.609" transform="translate(-49.926)" fill="#1f1f1f"/>
      <path id="패스_31087" data-name="패스 31087" d="M19.312,148.747a5.644,5.644,0,0,1-5.648-5.643V121.177l-4.021,5.461a5.4,5.4,0,0,1-3.723,2.12,5.329,5.329,0,0,1-4.09-1.273,5.467,5.467,0,0,1-.693-7.428l10.488-14.1a9.445,9.445,0,0,1,7.511-3.75h9.37l6.912-9.155a5.4,5.4,0,0,1,3.718-2.111,5.329,5.329,0,0,1,4.089,1.273,5.468,5.468,0,0,1,.694,7.428l-9.546,12.653V142.96a5.74,5.74,0,0,1-5.212,5.771,5.661,5.661,0,0,1-5.141-2.516,5.643,5.643,0,0,1-4.706,2.532M14.6,117.394a.935.935,0,0,1,.935.935V143.1a3.775,3.775,0,0,0,7.55,0V131.5a.935.935,0,1,1,1.87,0v11.6a3.775,3.775,0,0,0,4.065,3.762A3.863,3.863,0,0,0,32.5,142.96V111.982a.937.937,0,0,1,.189-.563l9.734-12.9A3.593,3.593,0,0,0,42,93.632a3.506,3.506,0,0,0-5.093.545L29.718,103.7a.935.935,0,0,1-.746.372H19.135a7.562,7.562,0,0,0-6.013,3l-10.488,14.1a3.594,3.594,0,0,0,.414,4.889,3.507,3.507,0,0,0,5.094-.545l5.7-7.746a.936.936,0,0,1,.753-.381" transform="translate(0 -57.565)" fill="#1f1f1f"/>
      <path id="point" d="M47.92,83.535a7.82,7.82,0,1,1,7.82-7.82,7.829,7.829,0,0,1-7.82,7.82" transform="translate(-25.393 -42.994)" fill="#501d83"/>
      <path id="패스_31089" data-name="패스 31089" d="M175.554,148.746a5.642,5.642,0,0,1-4.706-2.531,5.712,5.712,0,0,1-.72.878,5.635,5.635,0,0,1-4.421,1.637,5.739,5.739,0,0,1-5.212-5.77V112.295L150.95,99.642a5.468,5.468,0,0,1,.693-7.429,5.328,5.328,0,0,1,4.089-1.273,5.4,5.4,0,0,1,3.719,2.112l6.911,9.154h9.371a9.441,9.441,0,0,1,7.507,3.746l10.495,14.11a5.466,5.466,0,0,1-.7,7.424,5.378,5.378,0,0,1-7.807-.839l-4.027-5.469V143.1a5.644,5.644,0,0,1-5.648,5.643m-3.773-5.643a3.775,3.775,0,0,0,7.55,0V118.329a.936.936,0,0,1,1.689-.555l5.709,7.754a3.508,3.508,0,0,0,5.088.538,3.6,3.6,0,0,0,.418-4.885l-10.495-14.111a7.56,7.56,0,0,0-6.009-3H165.9a.934.934,0,0,1-.746-.372l-7.193-9.526a3.507,3.507,0,0,0-5.095-.546,3.6,3.6,0,0,0-.418,4.885l9.734,12.9a.937.937,0,0,1,.188.563V142.96a3.862,3.862,0,0,0,3.481,3.9,3.774,3.774,0,0,0,4.065-3.762V131.5a.935.935,0,0,1,1.871,0Z" transform="translate(-94.867 -57.565)" fill="#1f1f1f"/>
      <path id="패스_31090" data-name="패스 31090" d="M197.732,83.535a7.82,7.82,0,1,1,7.82-7.82,7.829,7.829,0,0,1-7.82,7.82m0-13.77a5.95,5.95,0,1,0,5.949,5.95,5.957,5.957,0,0,0-5.949-5.95" transform="translate(-120.259 -42.994)" fill="#1f1f1f"/>
    </g>
  </g>
</svg>
