<svg id="icon_flag_newyork" data-name="icon/flag/newyork" xmlns="http://www.w3.org/2000/svg" xmlns:xlink="http://www.w3.org/1999/xlink" width="40" height="40" viewBox="0 0 40 40">
  <defs>
    <clipPath id="clip-path">
      <rect id="mask" width="40" height="40" fill="none"/>
    </clipPath>
  </defs>
  <g id="mask-2" data-name="mask" clip-path="url(#clip-path)">
    <path id="패스_29267" data-name="패스 29267" d="M39.54,47.1a19.626,19.626,0,0,1-1.616,3.073H4.233A19.626,19.626,0,0,1,2.617,47.1Z" transform="translate(-1.078 -19.407)" fill="#fff"/>
    <path id="패스_29268" data-name="패스 29268" d="M39.839,41.864a19.35,19.35,0,0,1-1,3.078H1.917a19.841,19.841,0,0,1-1-3.078Z" transform="translate(-0.377 -17.25)" fill="#951326"/>
    <path id="패스_29269" data-name="패스 29269" d="M39.983,36.629a19.981,19.981,0,0,1-.48,3.078H.579A19.91,19.91,0,0,1,.1,36.629Z" transform="translate(-0.041 -15.093)" fill="#fff"/>
    <path id="패스_29270" data-name="패스 29270" d="M39.057,52.327a19.678,19.678,0,0,1-2.428,3.078H7.793a19.99,19.99,0,0,1-2.428-3.078Z" transform="translate(-2.211 -21.561)" fill="#951326"/>
    <path id="패스_29271" data-name="패스 29271" d="M37.2,62.8a19.958,19.958,0,0,1-21.3,0Z" transform="translate(-6.553 -25.875)" fill="#951326"/>
    <path id="패스_29272" data-name="패스 29272" d="M38.33,57.562A19.913,19.913,0,0,1,34.56,60.64h-21.3a20.214,20.214,0,0,1-3.769-3.078Z" transform="translate(-3.912 -23.718)" fill="#fff"/>
    <path id="패스_29273" data-name="패스 29273" d="M38.33,8.313H9.494a20.108,20.108,0,0,1,3.774-3.078H34.556A20.108,20.108,0,0,1,38.33,8.313" transform="translate(-3.912 -2.157)" fill="#fff"/>
    <path id="패스_29274" data-name="패스 29274" d="M37.2,3.078H15.913a19.652,19.652,0,0,1,1.974-1.1c.063-.026.126-.058.193-.089.229-.108.463-.211.7-.314.1-.045.211-.085.314-.126A19.843,19.843,0,0,1,26.552,0h0A19.863,19.863,0,0,1,37.2,3.078" transform="translate(-6.557 0)" fill="#951326"/>
    <path id="패스_29275" data-name="패스 29275" d="M39.057,13.543H5.365c.175-.273.359-.547.552-.812a.616.616,0,0,1,.049-.068A20.349,20.349,0,0,1,7.793,10.47H36.628a19.833,19.833,0,0,1,2.428,3.073" transform="translate(-2.211 -4.314)" fill="#951326"/>
    <path id="패스_29276" data-name="패스 29276" d="M39.839,24.01H.916a20.173,20.173,0,0,1,1-3.078H38.839a19.665,19.665,0,0,1,1,3.078" transform="translate(-0.377 -8.625)" fill="#951326"/>
    <path id="패스_29277" data-name="패스 29277" d="M39.54,18.775H2.617c.081-.2.166-.4.261-.592.215-.472.449-.938.7-1.386.206-.373.426-.74.655-1.1H37.924a19.885,19.885,0,0,1,1.616,3.078" transform="translate(-1.078 -6.468)" fill="#fff"/>
    <path id="패스_29278" data-name="패스 29278" d="M39.983,29.245H.1c.009-.13.022-.256.036-.382.031-.377.081-.749.135-1.121.081-.53.183-1.059.309-1.575H39.5a19.892,19.892,0,0,1,.48,3.078" transform="translate(-0.041 -10.782)" fill="#fff"/>
    <path id="패스_29279" data-name="패스 29279" d="M40,32.937c0,.52-.019,1.032-.058,1.539H.059C.019,33.968,0,33.457,0,32.937S.019,31.909.059,31.4H39.943q.059.76.058,1.535" transform="translate(0 -12.939)" fill="#951326"/>
    <path id="패스_29280" data-name="패스 29280" d="M20,0V21.537H.058C.018,21.03,0,20.518,0,20s.018-1.028.058-1.535c.009-.13.022-.256.036-.382.031-.377.081-.749.135-1.121.08-.53.183-1.059.309-1.575a20.044,20.044,0,0,1,1-3.078c.081-.2.166-.395.26-.592.215-.471.449-.938.7-1.386.206-.373.426-.74.655-1.1.175-.273.359-.547.552-.812a.611.611,0,0,1,.049-.067A20.3,20.3,0,0,1,5.582,6.156,20.093,20.093,0,0,1,9.356,3.078a19.652,19.652,0,0,1,1.974-1.1c.062-.026.125-.058.193-.089.229-.108.463-.211.7-.314.1-.045.212-.085.315-.126A19.841,19.841,0,0,1,20,0" transform="translate(0 0)" fill="#252c58"/>
    <path id="패스_29281" data-name="패스 29281" d="M28.871,1.748l.283.861h.911l-.736.539.283.866-.74-.539-.736.539.283-.866-.736-.539h.911Z" transform="translate(-11.406 -0.72)" fill="#fff"/>
    <path id="패스_29282" data-name="패스 29282" d="M21.012,4.094l.067.215-.292-.215-.444-.323-.445.323-.292.215.068-.215.21-.651-.614-.449c.063-.026.125-.058.193-.089h.6l.1-.314c.1-.045.211-.085.314-.126l.148.44h.906l-.731.538Z" transform="translate(-7.94 -1.016)" fill="#fff"/>
    <path id="패스_29283" data-name="패스 29283" d="M28.871,9.066l.283.866h.911l-.736.534.283.866-.74-.534-.736.534.283-.866-.736-.534h.911Z" transform="translate(-11.406 -3.736)" fill="#fff"/>
    <path id="패스_29284" data-name="패스 29284" d="M20.258,9.066l.283.866h.906l-.736.534.283.866-.736-.534-.736.534.283-.866-.74-.534h.911Z" transform="translate(-7.855 -3.736)" fill="#fff"/>
    <path id="패스_29285" data-name="패스 29285" d="M11.649,9.066l.278.866h.911l-.736.534.283.866-.736-.534-.74.534.283-.866-.736-.534h.911Z" transform="translate(-4.308 -3.736)" fill="#fff"/>
    <path id="패스_29286" data-name="패스 29286" d="M28.871,16.392l.283.866h.911l-.736.534.283.866-.74-.534-.736.534.283-.866-.736-.534h.911Z" transform="translate(-11.406 -6.754)" fill="#fff"/>
    <path id="패스_29287" data-name="패스 29287" d="M20.258,16.392l.283.866h.906l-.736.534.283.866-.736-.534-.736.534.283-.866-.74-.534h.911Z" transform="translate(-7.855 -6.754)" fill="#fff"/>
    <path id="패스_29288" data-name="패스 29288" d="M11.649,16.392l.278.866h.911l-.736.534.283.866-.736-.534-.74.534.283-.866-.736-.534h.911Z" transform="translate(-4.308 -6.754)" fill="#fff"/>
    <path id="패스_29289" data-name="패스 29289" d="M3.994,18.276l.279.866-.736-.534-.476.345c.215-.471.449-.938.7-1.386l.058.175h.907Z" transform="translate(-1.261 -7.238)" fill="#fff"/>
    <path id="패스_29290" data-name="패스 29290" d="M28.871,23.71l.283.866h.911l-.736.539.283.861-.74-.534-.736.534.283-.861-.736-.539h.911Z" transform="translate(-11.406 -9.77)" fill="#fff"/>
    <path id="패스_29291" data-name="패스 29291" d="M20.258,23.71l.283.866h.906l-.736.539.283.861-.736-.534-.736.534.283-.861-.74-.539h.911Z" transform="translate(-7.855 -9.77)" fill="#fff"/>
    <path id="패스_29292" data-name="패스 29292" d="M11.649,23.71l.278.866h.911l-.736.539.283.861-.736-.534-.74.534.283-.861-.736-.539h.911Z" transform="translate(-4.308 -9.77)" fill="#fff"/>
    <path id="패스_29293" data-name="패스 29293" d="M3.036,23.71l.283.866H4.23l-.74.539.283.861-.736-.534-.736.534.283-.861-.736-.539h.906Z" transform="translate(-0.761 -9.77)" fill="#fff"/>
    <path id="패스_29294" data-name="패스 29294" d="M28.871,31.036l.283.866h.911l-.736.534.283.866-.74-.534-.736.534.283-.866-.736-.534h.911Z" transform="translate(-11.406 -12.788)" fill="#fff"/>
    <path id="패스_29295" data-name="패스 29295" d="M20.258,31.036l.283.866h.906l-.736.534.283.866-.736-.534-.736.534.283-.866-.74-.534h.911Z" transform="translate(-7.855 -12.788)" fill="#fff"/>
    <path id="패스_29296" data-name="패스 29296" d="M11.649,31.036l.278.866h.911l-.736.534.283.866-.736-.534-.74.534.283-.866-.736-.534h.911Z" transform="translate(-4.308 -12.788)" fill="#fff"/>
    <path id="패스_29297" data-name="패스 29297" d="M3.036,31.036l.283.866H4.23l-.74.534.283.866-.736-.534L2.3,33.3l.283-.866L1.847,31.9h.906Z" transform="translate(-0.761 -12.788)" fill="#fff"/>
    <path id="패스_29298" data-name="패스 29298" d="M24.566,27.373l.283.866h.91l-.736.534.279.866-.736-.534-.736.534.283-.866-.736-.534h.911Z" transform="translate(-9.632 -11.279)" fill="#fff"/>
    <path id="패스_29299" data-name="패스 29299" d="M15.954,27.373l.278.866h.911l-.735.534.282.866-.736-.534-.736.534.279-.866-.736-.534h.911Z" transform="translate(-6.082 -11.279)" fill="#fff"/>
    <path id="패스_29300" data-name="패스 29300" d="M7.341,27.373l.282.866h.911l-.736.534.278.866-.736-.534-.736.534.282-.866-.736-.534h.911Z" transform="translate(-2.535 -11.279)" fill="#fff"/>
    <path id="패스_29301" data-name="패스 29301" d="M.264,29.38l.283.866-.386-.278c.031-.377.081-.75.135-1.122H1Z" transform="translate(-0.066 -11.886)" fill="#fff"/>
    <path id="패스_29302" data-name="패스 29302" d="M24.566,20.055l.283.866h.91l-.736.534.279.866-.736-.539-.736.539.283-.866-.736-.534h.911Z" transform="translate(-9.632 -8.263)" fill="#fff"/>
    <path id="패스_29303" data-name="패스 29303" d="M15.954,20.055l.278.866h.911l-.735.534.282.866-.736-.539-.736.539.279-.866-.736-.534h.911Z" transform="translate(-6.082 -8.263)" fill="#fff"/>
    <path id="패스_29304" data-name="패스 29304" d="M7.341,20.055l.282.866h.911l-.736.534.278.866-.736-.539-.736.539.282-.866-.736-.534h.911Z" transform="translate(-2.535 -8.263)" fill="#fff"/>
    <path id="패스_29305" data-name="패스 29305" d="M24.566,12.729l.283.866h.91l-.736.534.279.866-.736-.534-.736.534.283-.866-.736-.534h.911Z" transform="translate(-9.632 -5.245)" fill="#fff"/>
    <path id="패스_29306" data-name="패스 29306" d="M15.954,12.729l.278.866h.911l-.735.534.282.866-.736-.534-.736.534.279-.866-.736-.534h.911Z" transform="translate(-6.082 -5.245)" fill="#fff"/>
    <path id="패스_29307" data-name="패스 29307" d="M7.973,14.474l.171.52-.718-.52L7.4,14.46l-.022.014-.714.52.171-.52.112-.346L6.3,13.662a.616.616,0,0,1,.049-.068h.767l.283-.866.283.866H8.6l-.736.534Z" transform="translate(-2.597 -5.245)" fill="#fff"/>
    <path id="패스_29308" data-name="패스 29308" d="M24.566,5.4l.283.866h.91l-.736.539.279.861-.736-.534-.736.534.283-.861-.736-.539h.911Z" transform="translate(-9.632 -2.226)" fill="#fff"/>
    <path id="패스_29309" data-name="패스 29309" d="M15.954,5.4l.278.866h.911l-.735.539.282.861-.736-.534-.736.534.279-.861-.736-.539h.911Z" transform="translate(-6.082 -2.226)" fill="#fff"/>
  </g>
</svg>
