<svg xmlns="http://www.w3.org/2000/svg" width="108.001" height="100" viewBox="0 0 108.001 100">
  <g id="ico_quote" data-name="ico/quote" transform="translate(-769 -1640)">
    <g id="icon" transform="translate(62.001)">
      <rect id="box" width="46" height="46" transform="translate(769 1694)" fill="#fff"/>
      <path id="path" d="M3458.132-5946H3457v-8a45.715,45.715,0,0,1,3.615-17.906,45.845,45.845,0,0,1,9.858-14.622,45.858,45.858,0,0,1,14.622-9.858A45.721,45.721,0,0,1,3503-6000v24h-8c-21.579,5.782-33.294,15.315-36.868,30Z" transform="translate(-2688 7640)" fill="#fff"/>
    </g>
    <g id="icon-2" data-name="icon">
      <rect id="box-2" data-name="box" width="46" height="46" transform="translate(769 1694)" fill="#fff"/>
      <path id="path-2" data-name="path" d="M3458.132-5946H3457v-8a45.715,45.715,0,0,1,3.615-17.906,45.845,45.845,0,0,1,9.858-14.622,45.858,45.858,0,0,1,14.622-9.858A45.721,45.721,0,0,1,3503-6000v24h-8c-21.579,5.782-33.294,15.315-36.868,30Z" transform="translate(-2688 7640)" fill="#fff"/>
    </g>
  </g>
</svg>
