<svg xmlns="http://www.w3.org/2000/svg" width="80" height="80" viewBox="0 0 80 80">
  <g id="icon_80_qrcode" data-name="icon/80/qrcode" transform="translate(-8 -8)">
    <path id="path" d="M3,27H27V3H3ZM7,7H23V23H7Zm4,4h8v8H11ZM51,27H75V3H51ZM55,7H71V23H55Zm4,4h8v8H59ZM3,75H27V51H3ZM7,55H23V71H7Zm4,4h8v8H11Zm60,8h4v8H67V63h4Zm0-12h4v4H71Zm0-4v4H67V51ZM31,59h4V75H31ZM15,31v8H7V35H3V31ZM31,19h4v4H31ZM43,7v8H39V3h8V7ZM31,7h4v4H31ZM71,39h4v8H67V43h4Zm-4-8v4H59v8H51V39h4V31ZM39,47H35V43H31V39h8Zm24,8h4v4H63Zm8-20v4H67V35ZM35,47v4H31V47ZM59,67h4v8H55V67ZM47,67h4v4H47v4H39V71h4V67Zm0-4V59h8v4Zm0-20h4V55H47v4H43v4H39V55H35V51H47V47H43V43ZM11,43v4H7V43ZM59,59H55V55h4Zm4-8H55V47h8ZM23,31h4v4H23v4h4v8H23V43H19v4H15V39h4V31Zm12,0V23H47V35H39V31h4V27H39v4Zm0-16h4v4H35ZM31,31h4v4H31ZM43,19V15h4v4Z" transform="translate(9 9)" fill="#fff"/>
    <path id="base" d="M0,0H80V80H0Z" transform="translate(8 8)" fill="none"/>
  </g>
</svg>
