<svg xmlns="http://www.w3.org/2000/svg" width="701" height="720.001" viewBox="0 0 701 720.001">
  <g id="diagram" transform="translate(-603 -4253.999)">
    <g id="career" transform="translate(39 -43)">
      <g id="txt" transform="translate(-424 581)">
        <g id="list" transform="translate(0 150)">
          <text id="Support_for_Global_Competition" data-name="Support for Global Competition" transform="translate(1227 4281)" fill="#1f1f1f" font-size="14" font-family="Poppins-Regular, Poppins"><tspan x="0" y="0">Support for Global Competition</tspan></text>
          <circle id="oval" cx="2" cy="2" r="2" transform="translate(1215 4274)" fill="#666"/>
        </g>
        <g id="list-2" data-name="list" transform="translate(0 122)">
          <text id="_1:3_Career_guidance" data-name="1:3 Career guidance" transform="translate(1227 4281)" fill="#1f1f1f" font-size="14" font-family="Poppins-Regular, Poppins"><tspan x="0" y="0">1:3 Career guidance</tspan></text>
          <circle id="oval-2" data-name="oval" cx="2" cy="2" r="2" transform="translate(1215 4274)" fill="#666"/>
        </g>
        <g id="list-3" data-name="list" transform="translate(0 94)">
          <text id="Round_table_for_Accelerating_Career" data-name="Round table for Accelerating Career" transform="translate(1227 4281)" fill="#1f1f1f" font-size="14" font-family="Poppins-Regular, Poppins"><tspan x="0" y="0">Round table for Accelerating Career</tspan></text>
          <circle id="oval-3" data-name="oval" cx="2" cy="2" r="2" transform="translate(1215 4274)" fill="#666"/>
        </g>
        <g id="list-4" data-name="list" transform="translate(0 66)">
          <text id="Navigating_my_profession" data-name="Navigating my profession" transform="translate(1227 4281)" fill="#1f1f1f" font-size="14" font-family="Poppins-Regular, Poppins"><tspan x="0" y="0">Navigating my profession</tspan></text>
          <circle id="oval-4" data-name="oval" cx="2" cy="2" r="2" transform="translate(1215 4274)" fill="#666"/>
        </g>
        <g id="list-5" data-name="list" transform="translate(0 38)">
          <text id="Exploring_meaning_and_value_of_work" data-name="Exploring meaning and value of work" transform="translate(1227 4281)" fill="#1f1f1f" font-size="14" font-family="Poppins-Regular, Poppins"><tspan x="0" y="0">Exploring meaning and value of work</tspan></text>
          <circle id="oval-5" data-name="oval" cx="2" cy="2" r="2" transform="translate(1215 4274)" fill="#666"/>
        </g>
        <g id="list-6" data-name="list" transform="translate(0 10)">
          <text id="Next_Answer_Montoring" data-name="Next Answer Montoring" transform="translate(1227 4281)" fill="#1f1f1f" font-size="14" font-family="Poppins-Regular, Poppins"><tspan x="0" y="0">Next Answer Montoring</tspan></text>
          <circle id="oval-6" data-name="oval" cx="2" cy="2" r="2" transform="translate(1215 4274)" fill="#666"/>
        </g>
      </g>
      <g id="title" transform="translate(3 35)">
        <rect id="base" width="240" height="60" rx="8" transform="translate(788 4746)" fill="#1f1f1f"/>
        <text id="Career_Development" data-name="Career Development" transform="translate(908 4782)" fill="#fff" font-size="16" font-family="Poppins-SemiBold, Poppins" font-weight="600"><tspan x="-84" y="0">Career Development</tspan></text>
      </g>
      <g id="icon_40_arrow_down" data-name="icon/40/arrow_down" transform="translate(889 4723)">
        <path id="base-2" data-name="base" d="M0,0H40V40H0Z" transform="translate(2 2)" fill="none" opacity="0"/>
        <g id="icon">
          <path id="path" d="M24.482,0,12.241,12.241,0,0" transform="translate(9.759 26.9)" fill="none" stroke="#1f1f1f" stroke-linecap="round" stroke-linejoin="round" stroke-width="2"/>
          <path id="path-2" data-name="path" d="M0,0V33.941" transform="translate(22 4.858)" fill="none" stroke="#1f1f1f" stroke-linecap="round" stroke-linejoin="round" stroke-width="2"/>
        </g>
      </g>
    </g>
    <g id="bottom" transform="translate(-117 -160)">
      <g id="txt-2" data-name="txt" transform="translate(-201 488)">
        <g id="list-7" data-name="list" transform="translate(0 52)">
          <text id="Green_Taejae" data-name="Green Taejae" transform="translate(1227 4281)" fill="#1f1f1f" font-size="13" font-family="Poppins-Regular, Poppins"><tspan x="0" y="0">Green Taejae</tspan></text>
          <circle id="oval-7" data-name="oval" cx="2" cy="2" r="2" transform="translate(1215 4274)" fill="#666"/>
        </g>
        <g id="list-8" data-name="list" transform="translate(0 29)">
          <text id="Purple_Taejae" data-name="Purple Taejae" transform="translate(1227 4281)" fill="#1f1f1f" font-size="14" font-family="Poppins-Regular, Poppins"><tspan x="0" y="0">Purple Taejae</tspan></text>
          <circle id="oval-8" data-name="oval" cx="2" cy="2" r="2" transform="translate(1215 4274)" fill="#666"/>
        </g>
        <g id="list-9" data-name="list" transform="translate(0 5)">
          <text id="Blue_Taejae" data-name="Blue Taejae" transform="translate(1227 4281)" fill="#1f1f1f" font-size="14" font-family="Poppins-Regular, Poppins"><tspan x="0" y="0">Blue Taejae</tspan></text>
          <circle id="oval-9" data-name="oval" cx="2" cy="2" r="2" transform="translate(1215 4274)" fill="#666"/>
        </g>
      </g>
    </g>
    <g id="right" transform="translate(-132 90.999)">
      <g id="txt-3" data-name="txt" transform="translate(17 -111)">
        <g id="list-10" data-name="list" transform="translate(0 138)">
          <text id="Counseling_Service" data-name="Counseling Service" transform="translate(1227 4281)" fill="#1f1f1f" font-size="14" font-family="Poppins-Regular, Poppins"><tspan x="0" y="0">Counseling Service</tspan></text>
          <circle id="oval-10" data-name="oval" cx="2" cy="2" r="2" transform="translate(1215 4274)" fill="#666"/>
        </g>
        <g id="list-11" data-name="list" transform="translate(0 110)">
          <text id="Peer_Counseling" data-name="Peer Counseling" transform="translate(1227 4281)" fill="#1f1f1f" font-size="14" font-family="Poppins-Regular, Poppins"><tspan x="0" y="0">Peer Counseling</tspan></text>
          <circle id="oval-11" data-name="oval" cx="2" cy="2" r="2" transform="translate(1215 4274)" fill="#666"/>
        </g>
        <g id="list-12" data-name="list" transform="translate(0 82)">
          <text id="Psychological_Assessments" data-name="Psychological Assessments" transform="translate(1227 4281)" fill="#1f1f1f" font-size="14" font-family="Poppins-Regular, Poppins"><tspan x="0" y="0">Psychological Assessments</tspan></text>
          <circle id="oval-12" data-name="oval" cx="2" cy="2" r="2" transform="translate(1215 4274)" fill="#666"/>
        </g>
        <g id="list-13" data-name="list" transform="translate(0 36)">
          <text id="Psychological_Wellbeing_Workshop" data-name="Psychological Wellbeing
Workshop" transform="translate(1227 4281)" fill="#1f1f1f" font-size="14" font-family="Poppins-Regular, Poppins"><tspan x="0" y="0">Psychological Wellbeing</tspan><tspan x="0" y="18">Workshop</tspan></text>
          <circle id="oval-13" data-name="oval" cx="2" cy="2" r="2" transform="translate(1215 4274)" fill="#666"/>
        </g>
        <g id="list-14" data-name="list" transform="translate(0 8)">
          <text id="Resilience_Workshop" data-name="Resilience Workshop" transform="translate(1227 4281)" fill="#1f1f1f" font-size="14" font-family="Poppins-Regular, Poppins"><tspan x="0" y="0">Resilience Workshop</tspan></text>
          <circle id="oval-14" data-name="oval" cx="2" cy="2" r="2" transform="translate(1215 4274)" fill="#666"/>
        </g>
      </g>
    </g>
    <g id="left" transform="translate(-892 25.999)">
      <g id="txt-4" data-name="txt" transform="translate(280 -44)">
        <g id="list-15" data-name="list" transform="translate(0 126)">
          <text id="Next_Answer_Lecture_Series" data-name="Next Answer Lecture Series" transform="translate(1227 4281)" fill="#1f1f1f" font-size="14" font-family="Poppins-Regular, Poppins"><tspan x="0" y="0">Next Answer Lecture Series</tspan></text>
          <circle id="oval-15" data-name="oval" cx="2" cy="2" r="2" transform="translate(1215 4274)" fill="#666"/>
        </g>
        <g id="list-16" data-name="list" transform="translate(0 98)">
          <text id="Leadership_Team_building" data-name="Leadership &amp; Team building" transform="translate(1227 4281)" fill="#1f1f1f" font-size="14" font-family="Poppins-Regular, Poppins"><tspan x="0" y="0">Leadership &amp; Team building</tspan></text>
          <circle id="oval-16" data-name="oval" cx="2" cy="2" r="2" transform="translate(1215 4274)" fill="#666"/>
        </g>
        <g id="list-17" data-name="list" transform="translate(0 52)">
          <text id="Discovering_Social_Identitly:_Belongingness" data-name="Discovering Social Identitly:
Belongingness" transform="translate(1227 4281)" fill="#1f1f1f" font-size="14" font-family="Poppins-Regular, Poppins"><tspan x="0" y="0">Discovering Social Identitly:</tspan><tspan x="0" y="18">Belongingness</tspan></text>
          <circle id="oval-17" data-name="oval" cx="2" cy="2" r="2" transform="translate(1215 4274)" fill="#666"/>
        </g>
        <g id="list-18" data-name="list" transform="translate(0 6)">
          <text id="Discovering_Personal_Identity_Who_am_I_" data-name="Discovering Personal Identity
Who am I?" transform="translate(1227 4281)" fill="#1f1f1f" font-size="14" font-family="Poppins-Regular, Poppins"><tspan x="0" y="0">Discovering Personal Identity</tspan><tspan x="0" y="18">Who am I?</tspan></text>
          <circle id="oval-18" data-name="oval" cx="2" cy="2" r="2" transform="translate(1215 4274)" fill="#666"/>
        </g>
      </g>
    </g>
    <g id="triangle" transform="translate(735 2867.001)">
      <g id="triangle-2" data-name="triangle">
        <path id="path-3" data-name="path" d="M128.909,0,0,223.339l45.521,74.646.025.014L220,0Z" transform="translate(40 1418)" fill="#501d83"/>
        <path id="패스_30692" data-name="패스 30692" d="M.005,186.463l45.675,74H304.309l45.692-74Z" transform="translate(40 1455.537)" fill="#707070"/>
        <path id="패스_30693" data-name="패스 30693" d="M114.365,0,288.819,298l45.545-74.66L205.457,0Z" transform="translate(55.636 1418)" fill="#00a597"/>
      </g>
      <text id="Social_Value" data-name="Social
Value" transform="translate(215 1675)" fill="#fff" font-size="14" font-family="Poppins-SemiBold, Poppins" font-weight="600"><tspan x="-21" y="0">Social</tspan><tspan x="-20" y="18">Value</tspan></text>
      <text id="Student_Wellness" data-name="Student
Wellness" transform="translate(292.001 1540)" fill="#fff" font-size="14" font-family="Poppins-SemiBold, Poppins" font-weight="600"><tspan x="-28" y="0">Student</tspan><tspan x="-31" y="18">Wellness</tspan></text>
      <text id="Self_Leadership" data-name="Self &amp;
Leadership" transform="translate(135.001 1540)" fill="#fff" font-size="14" font-family="Poppins-SemiBold, Poppins" font-weight="600"><tspan x="-19" y="0">Self &amp;</tspan><tspan x="-39" y="18">Leadership</tspan></text>
      <g id="txt-5" data-name="txt" transform="translate(-103.999 1242)">
        <text id="Extracurricular_Programs_at_SSI" data-name="Extracurricular
Programs at SSI" transform="translate(319 367)" fill="#666" font-size="14" font-family="Poppins-SemiBold, Poppins" font-weight="600"><tspan x="-53" y="0">Extracurricular</tspan><tspan x="-55" y="18">Programs at SSI</tspan></text>
        <text id="SSI" transform="translate(319 341)" fill="#1f1f1f" font-size="20" font-family="Poppins-Bold, Poppins" font-weight="700"><tspan x="-14" y="0">SSI</tspan></text>
      </g>
    </g>
  </g>
</svg>
