<svg id="earth_seoul_tokyo" data-name="earth/seoul/tokyo" xmlns="http://www.w3.org/2000/svg" xmlns:xlink="http://www.w3.org/1999/xlink" width="480" height="480" viewBox="0 0 480 480">
  <defs>
    <clipPath id="clip-path">
      <path id="패스_9408" data-name="패스 9408" d="M240.006,0C107.455,0,0,107.455,0,240S107.455,480,240.006,480,480,372.549,480,240,372.555,0,240.006,0Z" fill="none"/>
    </clipPath>
    <radialGradient id="radial-gradient" cx="0.529" cy="0.299" r="0.551" gradientUnits="objectBoundingBox">
      <stop offset="0" stop-color="#fff"/>
      <stop offset="1" stop-color="#f1f1f1"/>
    </radialGradient>
    <clipPath id="clip-path-2">
      <path id="패스_9410" data-name="패스 9410" d="M287.158,470.389a58.479,58.479,0,0,0-14.937,3.15c-1.59.5-1.754.894-.423.54s1.626.212.748.442-.176.47,1.463.2a135.929,135.929,0,0,0,14.831-3.378c.692-.206,1.054-.3,1.177-.334-.132.03-.492.114-.92.17-1.258.182-1.893-.4-1.6-.594.16-.1.186-.2-.218-.2-.036,0-.077,0-.119,0M146.03,462.5c.16.092,1.578.526,3.113,1.133a65.229,65.229,0,0,0,8.455,2.885c1.612.386,1.794-.15.243-.732-2.763-1.033-5.963-1.631-8.894-2.5-1.434-.43-2.781-.8-2.917-.8-.014,0-.014.006,0,.014m59.146-3.774c.744.47,1.584.846,2.379,1.271,1.458.78,3.692,1.839,5.346,1.751.305-.018.6-.044.89-.08,1.647-.2,1.3-1.623-.277-2.145-2.468-.808-4.97-1.763-7.406-2.373a2.692,2.692,0,0,0-.653-.088c-1.123,0-1.475.918-.279,1.665M244.223,187.19a11.53,11.53,0,0,0-4.048.858c-1.477.756-.3,2.133,1.3,1.685a17.772,17.772,0,0,0,3.265-1.229c1.343-.678,1.185-1.335-.093-1.335-.129,0-.271.006-.425.02M16.485,161.018c-.6.146-1.175,1.651-1.351,3.284-.957,9.083-2.719,18.059-2.126,26.8.2,2.968,1.147,5.857,1.446,8.81.316,3.174.131,6.419.718,9.285,1.094,5.325,4.766,9.483,5.913,14.906.346,1.609,1.774,2.98,3.222,2.175,2.8-1.557,3.5-5.181,4.1-8.911.261-1.619-.807-2.561-2.342-1.929-.864.358-1.721.722-2.646,1.019a2.221,2.221,0,0,1-2.856-2.381c.045-3.4-.129-6.665-.328-10.113-.277-4.784-1.875-8.474-2.409-12.622-.6-4.712.791-9.9.479-15.238-.21-3.7-1.078-8.256-.975-12.512.036-1.645.271-3.07.2-3.158a.024.024,0,0,0-.022-.01c-.1,0-.457.464-1.022.594M16.9,132.07c-1.274,2.349-2.587,4.7-3.841,7.064q-2.464,5.391-4.671,10.92c.247.032.674-.3,1.044-1.061.255-.524.514-1.059.791-1.543.811-1.431,1.972-.862,2.118.6a2.939,2.939,0,0,0,3.627,2.167l.4-.108c1.61-.416,3.734-.768,4.746-2.071a56.953,56.953,0,0,0,4.481-6.439,5.243,5.243,0,0,0-.255-5.137,33.314,33.314,0,0,1-2.3-3.326c-.809-1.439-1.883-3.138-2.9-3.35a1.227,1.227,0,0,0-.273-.028A4.065,4.065,0,0,0,16.9,132.07m11.372-2.043a1.152,1.152,0,0,0,1.135.846c.546,0,.837-.908.243-1.311a.972.972,0,0,0-.554-.168c-.461,0-.884.3-.823.632m-2.423-15.1a6.3,6.3,0,0,0,.5-.658c.7-1.029,1.444-2.051,2.055-3.076.413-.678.542-1.059.465-1.127-1.028,1.6-2.033,3.23-3.02,4.86m20.245-18.1a18.728,18.728,0,0,0-3.483,2.749c-4.28,4.638-9.584,8.266-11.476,15.27-.431,1.593.639,2.3,2.031,1.4.522-.336,1.044-.678,1.566-1.013,1.392-.9,3.1-.15,4.551.542s3.765-.418,4.705-1.775a26.843,26.843,0,0,0,1.426-2.353c.785-1.451.146-3.468-1.509-3.576-.4-.024-.819-.036-1.232-.054a2.38,2.38,0,0,1-2.086-3.33c1.167-2.431,3.249-4.56,4.968-6.5.844-.944,1.163-1.533.916-1.533a.88.88,0,0,0-.378.168M241.039,74.364a22.124,22.124,0,0,1-3.178,2.269c-1.38.97-2.551,2.049-4.139,3.04-.771.484-1.77.964-2.585,1.589-1.321,1-.17,2.261,1.434,1.819a35.1,35.1,0,0,0,8.267-3.438c1.434-.83,2.654-2.865,2.306-4.3a1.49,1.49,0,0,0-1.438-1.245.789.789,0,0,0-.668.27m56.387,135.8c-1.679-1.317-3.38-3.092-3.526-4.766-.136-1.5.835-2.875,1.4-4.46.546-1.553,1.452-2.237,2.672-1.121,1.454,1.319,2.939,3.026,3.148,4.152.307,1.633-.532,3.168-1,4.908-.287,1.083-.829,1.759-1.556,1.759a1.888,1.888,0,0,1-1.137-.472m29.649-64.951c0-.624.032-1.283.038-1.923.026-1.641-.1-2.739.372-2.563s1.191,1.7,1,3.332c-.04.342-.093.68-.156,1.015-.15.85-.483,1.3-.769,1.3-.261,0-.483-.374-.49-1.159m5.231-4.684c-.882-.952.174-2.483,1.7-3.13a70.389,70.389,0,0,0,15.8-9.907,6.576,6.576,0,0,0,2.1-4.824c0-.792.006-1.607,0-2.407-.016-1.647,1.026-2.363,2.049-1.065a15.05,15.05,0,0,1,1,1.493,10.478,10.478,0,0,1,1.426,5.535c-.829,7.246-5.779,12.742-14.093,12.028-1.465-.124-3.261-1.377-4.814-.956-1.04.284-1.479,1.323-1.841,2.357a2.072,2.072,0,0,1-1.98,1.431,1.806,1.806,0,0,1-1.337-.554m21.106-30.113c-1.63-.3-3.044-2.511-3.125-4.154l-.014-.276a1.861,1.861,0,0,1,2.749-1.885Q355.5,105.059,358,106c1.554.58,2.349,2.411.965,3.334a7.79,7.79,0,0,1-5.551,1.075m20.05-19.29c-.827-.57-.651-1.843.176-2.641s1.95.268,1.908,1.477a1.367,1.367,0,0,1-1.349,1.395,1.278,1.278,0,0,1-.734-.23m-20.6-33.827a6.777,6.777,0,0,0,.016,2.119c.045,1.185-2.075,1.829-3.728,1.631-6.036-.708-13.579-1.991-18.187.294-1.454.72-2.967,2.863-4.574,4.524-1.877,1.947-3.653,3.62-4.606,5.929a3.323,3.323,0,0,0,2.035,4.118c3.817,1.149,9.032.916,13.772,1.149a7.8,7.8,0,0,1,4.867,2.565c1.993,2.409,4.133,5.051,4.64,8.28.259,1.623-.775,1.861-1.812.576a21.317,21.317,0,0,0-4.04-3.956c-1.333-.976-2.114-.26-1.8,1.357.105.546.2,1.109.311,1.657a11.255,11.255,0,0,1-.332,5.591,55.909,55.909,0,0,1-3.645,8.212c-1.837,3.094-4.335,6.811-7.944,8.1-2.429.858-5.775-.13-8.184,1.193-2.126,1.165-4.849,6.027-5.053,7.856-.283,2.569,1.153,5.843,1.926,8.094.566,1.653,1.359,3.054,2,4.544a4.486,4.486,0,0,1-1.258,4.9,12.351,12.351,0,0,1-2.891,1.461,2.627,2.627,0,0,1-3.366-2.179c-2.387-10.753-11.85-17.565-24.521-15.532a2.415,2.415,0,0,0-1.932,3.414,9.557,9.557,0,0,0,5.694,4.628c1.574.528,2.2,1.869.7,2.561-1.117.518-2.251.936-2.585,2.157-.75,2.757,1.216,5.917,2.65,8.1,1.329,2.021,3.866,3.892,4.814,5.945,1.028,2.241.835,4.414.637,7.034a2.469,2.469,0,0,0,2.836,2.735c.75-.134,1.511-.31,2.27-.492a10.115,10.115,0,0,1,5.676.492c1.93.884,3.8,1.843,5.765,2.7a6.9,6.9,0,0,1,3.453,4.01c2.478,8.522,9.048,17.287,3.669,26.626-1.507,2.617-6.445,7.894-9.386,8.332-2.575.382-6.06-1.357-8.421-2.623a18.875,18.875,0,0,1-6.574-5.343,8.4,8.4,0,0,0-4.594-2.905c-1.976-.356-3.821-.834-5.826-1.167a2.46,2.46,0,0,0-2.915,2.627c.443,5.321,2.537,9.467,4.361,13.785a2.8,2.8,0,0,1-1.715,3.8c-4.608,1.349-10.232,1.689-15.005,2.863a4.036,4.036,0,0,0-2.806,3.844c.1,3.728.212,7.388.2,11.43a7.145,7.145,0,0,1-2.3,4.924,27.431,27.431,0,0,1-3.018,2.1c-1.677.989-4.294,2.9-6.261,3.092-1.928.186-5.308-.958-8.423-1.189a68.707,68.707,0,0,1-9.165-1.023,9.851,9.851,0,0,0-3.095.074,12.486,12.486,0,0,1-2.466.156c-3.105-.252-5.518-5.719-8.385-7.54-3.888-2.479-7.923-1.851-13.114-1.691-1.665.052-3.653,1.215-4.036,2.813a10.56,10.56,0,0,0-.178,4.114c1.121,7.46,9.491,9.909,13.242,15,1.889,2.563,2.571,6.161,4.086,9.525,1.762,3.888,4.529,7.116,5.322,11.8a8.739,8.739,0,0,0,2.68,4.666,12.427,12.427,0,0,1,4.517,7.82c.615,4.8-1.641,9.447-5.294,9.525-3.075.066-8.955-4.886-11.312-7.384a92.958,92.958,0,0,1-8.184-10.471c-4.938-6.89-10.44-12.632-14.31-18.421-.918-1.369-.324-2.035,1.177-1.339,3.736,1.739,7.24,3.7,11.834,4.594,1.632.316,3.556-.854,3.574-2.5a10.794,10.794,0,0,0-1.074-4.72c-3-5.971-10.049-10.345-10.076-19.894,0-1.639-.825-2.605-1.968-1.909a9.59,9.59,0,0,1-2.158,1.089c-2.887.894-6.866.678-10.885.462-4.642-.25-9.339-.5-12.459.962-1.527.716-3.291,2.771-4.816,4.048-3.526,2.957-6.453,5.433-10.112,8.1-1.792,1.309-3.932,3.212-5.532,3.568-3.92.872-7.673.136-11.071.954-2.173.526-4.841,3.064-6.742,4.762-5.824,5.207-9.74,10.98-13.905,16.855a9.844,9.844,0,0,1-4.689,2.969c-6.153,1.885-10.325,7.884-17.269,8.746a19.334,19.334,0,0,1-3.141.062,10.425,10.425,0,0,0-5.041.652c-2.692,1.245-3.631,4.01-5.535,6.189-2.065,2.361-6.087,4.4-6.5,7.384-.712,5.133,5.217,12.466,8.425,15.952,4.108,4.46,8.31,8.284,10.1,14.283.508,1.693.33,3.164.728,5.483,1.135,6.6,6.72,12.426,10.83,16.9,1.412,1.541,3.22,4.178,4.574,4.76,1.41.61,3.443.57,5.057.957a71.722,71.722,0,0,1,10.946,3.838A11.561,11.561,0,0,1,136.4,359.1c5.549,8.34,13.122,15.994,20.546,22.716,2.288,2.077,6.2,6.135,8.664,7.382a29.606,29.606,0,0,0,6.281,1.963c1.608.408,3.251,2.2,4.218,3.532.548.754,1.159,1.443,1.73,2.175a8.787,8.787,0,0,0,4.458,3.042,28.478,28.478,0,0,1,11.281,5.537,15.23,15.23,0,0,0,5.328,2c.324.072.666.146,1.017.208a3.91,3.91,0,0,1,3.206,3.076c.688,3.226,2.814,5.029,5.075,6.689,1.335.98,1.952,2.813,1.017,3.85a2.819,2.819,0,0,0-1.013,2.213c.164,1.263,3.057,3.136,4.335,4.522,1.345,1.467,3.69,3.434,3.849,5,.235,2.279-1.363,3.408-1.845,5.395-.382,1.6,1.5,3.152,3.16,3.148,7.052-.016,12.016-3.778,14.091-8.542,2.239-5.129-1.463-8.658-1.93-13-.17-1.637-.659-3.35-1.821-3.744s-2-2.1-2.023-3.61.655-2.519,1.371-2.021.852-.944.4-2.523c-.949-3.34-.718-6.837-1.537-10.815-1.341-6.555-6.23-11.876-6.736-19.284-.1-1.435.087-2.915,0-4.286-.556-8.686-3.9-16.428-4.814-24.526-.544-4.84-.336-11.394,1.683-14.289.92-1.315,3.336-2.4,5.055-3.568,4.568-3.106,8.965-5.9,13.179-8.768a13.054,13.054,0,0,0,3.74-4.4A168.169,168.169,0,0,1,248.675,299.3a1.824,1.824,0,0,0-1.3-3.014,28.469,28.469,0,0,1-8.464-2.809c-1.43-.844-.961-1.715.686-1.529,1.675.192,3.512.382,5.441.582,2.984.312,6.5,1.411,8.421.95,1.149-.274,3.2-2.281,3.37-3.336.524-3.114-2.634-5.157-2.895-8.514a12.426,12.426,0,0,0-1.371-5.241,15.788,15.788,0,0,1-2.409-9.253c.083-1.639-.356-4.046-1.608-5.127-2.253-1.957-5.106-3.65-6.153-6.625-2.055-5.793.237-11.758,2.108-16.72a3.539,3.539,0,0,1,3.932-2.075c6.645,1.093,13.7-1.417,18.75-3.586,1.549-.666,3.53-1.035,4.574-1.663,2.6-1.583,3.245-4.6,5.294-7.148,1.59-1.971,4.276-3.462,6.74-5,2.282-1.425,4.875-3.4,7.7-4.044,3.884-.894,7.814-.362,10.349-1.907,3.142-1.911,5.472-7.008,9.145-7.62a14.868,14.868,0,0,1,3.129.24c15.08.7,24.638-6.011,34.318-12.408a5.725,5.725,0,0,0,2.223-4.6c-.214-6.986,3.22-10.765,6.785-15.614,3.22-4.372,5.781-8.482,8.666-11.664,1.141-1.261,3.222-2.285,3.852-3.812a14.993,14.993,0,0,0,.591-4.476c.117-1.643,1.612-2.375,2.65-1.475s1.038,3.132.413,4.652c-2.179,5.333-4.254,11.146-6.546,16.066-.441.946-1,1.9-1.442,2.851-.7,1.493.781,2.873,1.991,1.745,1.4-1.307,2.191-3.522,3.548-5.315,1.736-2.3,5.14-4.648,6.02-7.378.708-2.229.279-4.985.477-7.146.6-6.465,1.5-12.923,6.02-18.093,1.359-1.555,3.105-1.663,3.847-3.334.459-1.035.275-3.09.481-4.526.56-3.948,1.958-10.039,1.2-14.047-.326-1.763-1.865-4.342-2.885-6.427-2.294-4.694-4.379-7.494-6.742-12.144-1-1.973-2.957-5.267-2.883-6.665a3.188,3.188,0,0,1,1.26-2.235c1.066-1,.661-3.058.208-4.642-.68-2.413-.522-5.485-1.1-7.872-.4-1.6-1.007-1.315-1.08.324a7.959,7.959,0,0,1-.223,1.629c-.415,1.595-2.735,1.441-3.793.178-1.185-1.415-2.32-3.034-3.459-4.526-1.479-1.939-4.562-5.269-4.572-7.856-.006-2.383,2.433-4.87,1.444-7.62-.807-2.245-5.126-5.1-8.528-5.1a3.832,3.832,0,0,0-3.989,2.956m-270.8-6.1c-1.5,1.109-2.982,2.253-4.442,3.416A240.9,240.9,0,0,0,56.8,74.212c-1,1.127-.775,1.325.441.274,2.7-2.321,5.189-5.111,7.533-7.494,1.157-1.175,1.972-2.051,1.847-1.9a6.435,6.435,0,0,0,2.409-1.213,29.131,29.131,0,0,0,3.728-3.032c1.2-1.137,1.867-2.147,1.622-2.011s.374-.914,1.632-1.989c2.11-1.8,4.638-3.376,6.546-5.145.728-.674.882-1.077.6-1.077a2.489,2.489,0,0,0-1.1.568M350.531,38.922c.583.35.732-.382.138-.768a.544.544,0,0,0-.283-.1c-.338,0-.33.586.146.872m-10.066-1.239a9.093,9.093,0,0,0,2.492.568c1.651.116,1.665-.944.036-1.3-.674-.144-1.374-.272-2.075-.392a3.715,3.715,0,0,0-.607-.054c-1.1,0-1.187.666.154,1.175m-178-.72a24.618,24.618,0,0,0-2.231,2.347,1.6,1.6,0,0,0,1.378,2.739,8.972,8.972,0,0,0,2.883-.824,2.882,2.882,0,0,0,1.181-3.84,1.7,1.7,0,0,0-1.58-1.165,2.415,2.415,0,0,0-1.63.742m192.1-2.6c-.093,1.2-1.792,1.711-2.5,1.733s.212.692,1.827,1.095c5.741,1.443,10.28,4.088,15.226,6.315,1.517.682,3.34,1.775,4.23,2.285s-.038.744-1.471-.1l-.239-.138c-1.448-.8-2.142.726-.933,1.855,1.444,1.349,3.17,2.527,4.61,3.722,1.27,1.057,1.78,2.011,1.363,1.919s-1.042,1.317-.906,2.737-2,2.149-3.52,1.889-3.16.506-3.394,1.395a5.322,5.322,0,0,0,1.222,3.942c1.792,2.229,3.655,4.388,4.707,7.344.552,1.555,1.4,2.271,1.78,1.213a4.009,4.009,0,0,0-.538-3.752c-.91-1.153-.975-2.165-.435-1.837s1.03-1.257,1.61-2.793a7.727,7.727,0,0,1,2.52-3.224c1.266-1.071,3.58-1.611,4.984-.732l.212.132c1.418.856,4.046,1.409,5.429,2.319,3.884,2.557,7.355,5.9,10.984,8.35a1.965,1.965,0,0,0,1.141.476q-1.563-1.591-3.16-3.148c-.516-.408-1.028-.8-1.483-1.175-.987-.822-1.5-1.383-1.485-1.695a241,241,0,0,0-40.857-31.134,1.755,1.755,0,0,0-.546-.136c-.362,0-.32.376-.378,1.141m-62.32-2.972a3.538,3.538,0,0,0,3.216,2.649,9.8,9.8,0,0,0,3.071-.484c1.558-.572.746-2.069-.819-2.625-1.208-.432-2.294-.979-3.522-1.389a2.543,2.543,0,0,0-.793-.142c-1.058,0-1.564.88-1.153,1.991m-36.781-1.3c.649.092,1.347.152,2.039.216,1.653.154,2.007-.512.4-.948A12.179,12.179,0,0,0,255.743,29c-.1-.006-.192-.01-.281-.01-1.4,0-1.541.866,0,1.1m22.805-1.737c-1.636.246-1.137,1.959.5,2.261.617.114,1.232.228,1.8.386,1.6.448,3.071,1.221,3.831.952s.487-1.709-.979-2.483a9.761,9.761,0,0,0-4.329-1.177,5.481,5.481,0,0,0-.819.06m-11.057-.09c-1.647.23-2.373,1.069-1.689,1.5s2.112.016,3.542-.422,1.693-1.171.028-1.2c-.067,0-.136,0-.2,0a12.546,12.546,0,0,0-1.677.126m43.309.154c-1.616.382-3.089,1.259-3,1.859s1.185,1.321,2.832,1.5c.593.068,1.187.13,1.776.2,1.651.208,2.963.094,2.567-.212s.759-.452,2.34.058a31.558,31.558,0,0,0,6.121,1.725c1.649.188,2.992-1.339,1.839-2.137-.676-.47-1.527-.864-2.209-1.261-1.343-.778-3.15-2.183-4.576-2.383a13.951,13.951,0,0,0-1.914-.124,25.558,25.558,0,0,0-5.773.768m-40.7-1.349c1.2.02,1.549-1.391-.065-1.653a2.039,2.039,0,0,0-.3-.026c-1.256,0-.763,1.659.36,1.679m28.486-2.109c-.783.584-2.775.44-4.353-.086a10.722,10.722,0,0,0-2.749-.618c-1.657-.094-1.6,1.7-.259,2.075s2.482.048,1.99-.34.761-.326,2.4-.064c.318.05.635.1.937.154,1.641.264,2.5,1.045,4.007,1.4a5.135,5.135,0,0,0,3.945-.882c.7-.582.293-1.381-1.278-1.9-.293-.1-.591-.192-.888-.284a4.606,4.606,0,0,0-1.357-.208,4,4,0,0,0-2.389.758m-21.367-.989c-1.57.548-.5,2.531,1.155,2.549a13.384,13.384,0,0,0,2.6-.228c1.632-.3,1.93-1.965.318-2.369a8.663,8.663,0,0,0-2.067-.256,6.168,6.168,0,0,0-2,.3m25.708-.19a20.19,20.19,0,0,0,5.814,1.347c1.661.128,1.908-.772.34-1.315a26.014,26.014,0,0,0-5.876-1.177c-.156-.014-.3-.02-.427-.02-1.246,0-1.248.616.15,1.165m-10.978-1.569a5.213,5.213,0,0,0,.777.264c1.612.392,1.81-1.265.218-1.743l-.354-.1a2.316,2.316,0,0,0-.564-.076c-1.151,0-1.4,1.085-.077,1.655m-23.5-.448c.14.48,1.157.58,1.94.17a.732.732,0,0,0-.4-1.4c-.888,0-1.681.748-1.541,1.229m9.078-2.1c-1.61.4-1.693,1.791-.034,1.847.223.006.453.006.688,0,1.659-.038,2.694-1.947,1.04-2.047-.071,0-.142-.006-.214-.006a6.289,6.289,0,0,0-1.479.206M216.227,14.87c-1.639.254-1.853,1.361-.218,1.671,1.242.238,2.539.268,3.752.514,2.164.44,4.088,1.5,6.261,1.9a9.789,9.789,0,0,0,1.958.08,8.794,8.794,0,0,1,2.375.158c1.711.446,2.915,2.189,4.541,3.034,1.479.756,3.016.676,3.121,1.143s1.626.842,3.293.842a108.1,108.1,0,0,1,13.767.41c1.641.214,1.705,1.091.047,1.2a39.3,39.3,0,0,1-5.636-.324c-1.655-.144-2.781,1.513-1.177,1.927a23.521,23.521,0,0,0,3.463.338,49.747,49.747,0,0,0,8.377.358c1.655-.154,3.481-1.107,3.892-1.921a1.9,1.9,0,0,1,1.214-1.051,8.875,8.875,0,0,1,2.624-.012.8.8,0,0,0,.87-.978,1,1,0,0,0-1.129-.96,19.339,19.339,0,0,1-2.126.518,35.178,35.178,0,0,1-10.335-.652c-1.622-.342-1.8-1.7-.142-1.817a15.782,15.782,0,0,1,2.949.164,8.732,8.732,0,0,0,3.92-.076,5.368,5.368,0,0,0,2.051-1.529,1.793,1.793,0,0,0-1.268-2.982c-2.66-.3-5.607.644-8.162,1.229-1.618.372-2.041-.612-.376-.66h.073c1.659-.042,1.3-1.295-.34-1.557a151.736,151.736,0,0,0-23.412-1.967,94.7,94.7,0,0,0-14.227,1m-53.219.392a12.326,12.326,0,0,1-5.46.242,8.343,8.343,0,0,0-3.724.344c-1.572.534-1.547,1.559-1.857,1.821s-.714,1.817-2.059,2.777c-1.643,1.171-3.756,1.837-5.482,2.8-1.814,1.017-3.574,2.181-5.348,3.268a7.193,7.193,0,0,0-2.83,3.626c-.342,1.139.257,1.359,1.768.676,7-3.152,14.664-6.245,24.106-6.421,1.657-.03,1.691.328.051.6-4.541.77-8.716,1.133-13.409,2.771-1.827.638-5.14,1.409-7.226,2.619-2.051,1.193-3.682,3.518-5.468,3.994a7.581,7.581,0,0,1-1.988.148c-1.137-.014-2.233-.026-2.8.732-.91,1.219-.819,3.61.777,4.07,2.688.772,6.133-1.295,8.514-1.559,2.974-.336,5.379.788,8.1,1.453,1.618.4,3.3,0,3.129-.6s.839-2,2.191-2.956a37.875,37.875,0,0,1,7.839-4.23c1.535-.626,2.7-.542,3.03-.084s2.09.742,3.75.83c4.808.248,9.712.636,14.2.766,1.663.056,3.032-.906,2.112-1.151s.063-1.149,1.685-1.5a62.387,62.387,0,0,0,9.566-3.008c1.673-.65,3.769-.706,5.771-1.191,2.045-.5,3.817-1.291,5.779-1.429,1.509-.108,2.848-.034,3.989-.136,1.659-.146,2.549-.614,2.818-.206s2,.614,3.661.51a14.371,14.371,0,0,0,5.733-1.273c1.446-.8.57-2.679-1.066-2.929-2.931-.45-6.3-.468-8.882-1.263-1.592-.48-2-1.423-1.238-1.639s.364-.762-.56-1.267a11.632,11.632,0,0,0-4.576-1.209c-2.233-.064-4.149-.052-6.077-.042-2.175.014-4.361.024-7.039-.072a1.541,1.541,0,0,1-.969-.586c-.439-.462-2.306-.648-3.963-.724-4.034-.192-8.415-.482-12.669-.482-5.087,0-9.991.414-13.885,1.907M283.084,4.743l.3.076c1.6.44,2.361,1.021,1.814.932-.524-.088-.886-.148-.208.112,2.367,1.1,6.081,1.571,9.277,1.877,1.659.16,1.7-.062.093-.5-1.25-.342-2.518-.7-3.791-1.049-2.694-.688-5.415-1.317-8.152-1.909a2.845,2.845,0,0,0-.326-.022c-.421,0-.107.19.989.482M202.811,1.189c-3.659.288-8,1.891-12.171,1.819a38.706,38.706,0,0,0-6.228.444Q178.043,4.719,171.8,6.306c-.216.058-.441.112-.7.18-2.646.684-5.28,1.431-7.887,2.2-2.537.8-4.559,1.613-4.586,2.179-.008.092.35.256.5.452.235.294,1.058.226,2.682-.128,10.238-2.245,20.093-5.069,30.753-6.281,3.386-.386,5.975-.884,8.668-.95a19.573,19.573,0,0,1,3.611.714,107.212,107.212,0,0,0,22.994,1.419c1.659-.094,1.715-.644.1-1.037-2.516-.614-5.152-1.083-7.691-1.811-1.167-.336-2.071-1.109-3.376-1.191a62.449,62.449,0,0,0-7.822.4,9.054,9.054,0,0,1-3.765-.776,3.757,3.757,0,0,0-1.887-.52c-.172,0-.366.008-.587.026" transform="translate(-8.388 -1.163)" fill="none"/>
    </clipPath>
    <radialGradient id="radial-gradient-2" cx="0.561" cy="0.835" r="0.649" gradientUnits="objectBoundingBox">
      <stop offset="0" stop-color="#f1f1f1"/>
      <stop offset="1" stop-color="#e5e5e5"/>
    </radialGradient>
    <clipPath id="clip-path-3">
      <path id="패스_9412" data-name="패스 9412" d="M263.485,462.747a33.562,33.562,0,0,1-5.055,0c-2.292-.206-3.989-1.653-5.773-1.671-1.742-.012-3.58,1.267-5.539,1.429-3.86.32-6.817-.954-10.588-1.187-2.955-.186-5.174-.084-6.989-.542a6.013,6.013,0,0,0-4.746.738,9.329,9.329,0,0,1-5.356,1.233c-2.616-.022-5.168-1.639-7.7-1.429a38.017,38.017,0,0,0-7.944,2.851c-.87.548-1.226,1.657-2.164,1.911-1.831.49-5.18-.464-7.464-.957a60.591,60.591,0,0,0-6.977-1.429c-1.135-.088-2.393-.074-3.7-.06a39.385,39.385,0,0,1-5.207-.176c-3.336-.406-6.991-2.361-9.888-2.571a2.942,2.942,0,0,0-2.828,3.08c.17,1.333.069,1.669-1.491,1.111l-.415-.144c-1.572-.53-2.573-.38-2.334-.09.168.2.188.47-.136.52-1.369.122-2.937-.686-4.327-1.195-.358-.128-1.03-.36-1.667-.574-.916-.314-.243.18,1.291.824,20.154,8.444,46.594,13.027,71.378,15.23.407.034.793.06,1.193.09,3.631.168,7.274.26,10.95.26,5.015,0,9.989-.17,14.929-.476.443-.038.882-.07,1.331-.112,15.188-1.4,29.724-3.4,42.623-7.208,1.588-.468,1.564-.546-.044-.144-1.794.454-3.661.894-5.425,1.217a22.074,22.074,0,0,0-2.66.47c.083.034-.19.006-.649-.024a16.728,16.728,0,0,0-1.831-.02c-1.357.07-1.1-.554.528-.888,5.249-1.089,10.747-1.937,15.123-3.89,1.513-.678,1.212-1.521.042-2.677a4.6,4.6,0,0,0-2.458-1.595,9.115,9.115,0,0,0-2.282-.012c-1.266.088-2.116-.47-1.792-1.021s-1.117-.922-2.779-.958c-3.38-.074-6.336-.908-8.791-1.107a19.131,19.131,0,0,0-3.384.12,19.408,19.408,0,0,1-3.354.118c-1.5-.122-2.854-1.079-4.335-1.191-.192-.014-.388-.022-.585-.022-3.2,0-6.868,1.889-10.727,2.167m133.18-53.123c-5.007,3.68-11.063,6.317-15.576,10.487-1.22,1.121-.742,1.891.817,1.331,5.47-1.949,9.435-5.637,13.242-8.935.767-.67,1.835-1.3,2.654-2.125.752-.756.615-1.263.065-1.263a2.19,2.19,0,0,0-1.2.5m-47.581,1.363c-.053.32-.087.648-.109.979-.089,1.643,1.485,2.081,2.822,1.113.924-.666,1.843-1.327,2.709-2.045,1.272-1.059.791-2.219-.835-2.547-.178-.038-.354-.068-.538-.1a2.726,2.726,0,0,0-.481-.042,3.735,3.735,0,0,0-3.566,2.647m59.069-11.9a70.765,70.765,0,0,0-5.975,7.268c-.914,1.375-.4,1.8.961.858,2.893-2,6.079-4.35,6.89-7.474.243-.928-.067-1.419-.583-1.419a1.9,1.9,0,0,0-1.293.766M50.466,318.1a21.556,21.556,0,0,1-1.2,7.742c-.686,1.643-2.4,2.821-2.646,4.288-.35,2.015.835,5.467,1.444,7.618a101.781,101.781,0,0,0,6.659,16.592,11.161,11.161,0,0,0,3.945,4.07c.409.24.829.48,1.262.706,1.467.758,2.686-.32,2.413-1.939-1.365-8.116-4.705-16.132-5.375-24.909-.146-1.895.283-3.826,0-5.717-.366-2.405-2.581-6.5-4.535-9.185-.394-.536-.787-.788-1.117-.788-.485,0-.835.546-.854,1.521m326.377-4.372c-1.117,3.754-2.662,7.08-3.912,10.7a6.89,6.89,0,0,1-3.736,3.812c-.631.222-1.25.454-1.867.69a6.752,6.752,0,0,1-5.168-.556c-.886-.48-1.823-.914-2.66-1.439-1.4-.878-1.762-3.336-1.58-4.967a20.506,20.506,0,0,0-.162-5.911,4.981,4.981,0,0,0-3.827-3.428,56.177,56.177,0,0,0-13.561-.466,5.607,5.607,0,0,0-4.28,3.03,38.387,38.387,0,0,1-1.906,4.522c-.8,1.447-3.148,1.909-4.8,1.7-.957-.128-1.968-.21-2.972-.3a10.926,10.926,0,0,0-5.567,1.265c-7.691,4.654-15.088,9.6-20.305,16.7a8.979,8.979,0,0,1-4.612,3.094c-11.989,2.561-24.487,5.671-25.462,17.707-.653,8,4.928,11.17,5.533,18.1.255,2.881-.844,4.828-1.742,6.93A3.633,3.633,0,0,0,276,389.15c1.92,1.121,4.056,2.345,6.255,2.165,3.026-.242,5.654-3.38,8.664-3.81a18.53,18.53,0,0,1,4.145.076,15.607,15.607,0,0,0,5-.076c3.676-.89,5.99-3.7,8.907-4.762a45.716,45.716,0,0,1,11.552-2.375,27.228,27.228,0,0,1,6.02,0c6.544.95,6.868,6.931,11.55,9.761,1.4.842,4.021.616,5.292,2.613.726,1.131.757,2.655.888,4.232a4.615,4.615,0,0,0,3.485,3.608c6.665,1.359,14.409,1.4,18.976-1.885,2.3-1.651,4.82-5.041,7.226-7.62,7.072-7.59,16.156-15.2,18.77-26.423,1.266-5.435.621-13.153-1.685-17.625-.967-1.863-3.046-3.46-3.849-5.239-2.5-5.5-.552-12.39-1.924-18.329-.55-2.349-1.853-4.39-2.682-6.639-.568-1.541-1.568-3.7-2.723-4.626a1.576,1.576,0,0,0-1.005-.382,2.377,2.377,0,0,0-2.027,1.915M244.25,292.457a6.458,6.458,0,0,0,2.318,2.153c5.862,3.706,15.936,4.636,23.54,4.778,1.657.038,2.138-1.025.765-1.951-3.882-2.619-9.736-3.522-15.57-4.22-2.6-.308-5.257-.4-7.845-.612-1.179-.1-2.276-.212-2.832-.212-.223,0-.358.02-.376.064m55.367-17.363c-1.159,3.876-2.112,8.9-.18,11.784.922,1.367,2.571.506,2.571-1.141,0-.846-.024-1.707.014-2.515.073-1.643,1.752-2.011,2.664-.634.3.446.595.9.92,1.319,1.024,1.295,2.589.366,2.585-1.275-.016-4.234-1.258-8.242-4.717-9.747a2.161,2.161,0,0,0-.86-.176,3.41,3.41,0,0,0-3,2.385m48.623-1.553c-.392,2.523.771,5.257,1.934,7.522a6.62,6.62,0,0,0,4.39,2.971,21,21,0,0,1,11.789,5.883,3.794,3.794,0,0,1,.119,4.776,16.921,16.921,0,0,0-1.606,1.9c-.924,1.373.558,2.523,2.221,2.573a11.37,11.37,0,0,1,8.6,4.054,20.8,20.8,0,0,0,3.977,4.114c1.371.906,2.887-.238,3.623-1.713a13.649,13.649,0,0,1,5.015-5.063,3.321,3.321,0,0,1,4.337.742,13.8,13.8,0,0,0,6.522,4.862,1.692,1.692,0,0,0,2.049-2.441c-1.258-2.905-3.121-5.391-3.344-8.973-.109-1.641-.651-4.022-1.794-5.213-7.8-8.094-21.159-13.611-36.478-11.174-1.641.264-4.042-.28-4.826-1.727-.85-1.567-1.44-3.38-2.674-4.568a1.852,1.852,0,0,0-1.309-.494,2.588,2.588,0,0,0-2.539,1.961m-61.292-28.859a82.325,82.325,0,0,1-24.8,17.093c-1.5.688-3.344,2.421-3.615,4.05-.985,5.875,1.5,14.247,5.441,15.018.965.184,2.209-.4,3.129-.48,4.572-.388,9.068,1,13.42,2.015a3.767,3.767,0,0,0,4.005-2.175c2.585-5.265,8.041-10.429,8.569-16.747.075-.914-.263-2.053-.241-3.09.1-4.492,2.525-8.678,1.926-12.857a6.583,6.583,0,0,0-2.881-4.568,1.98,1.98,0,0,0-1.015-.256,6.486,6.486,0,0,0-3.934,2M321.8,234.023c-.657.306-1.337.584-2,.882a2.587,2.587,0,0,0-1,3.906,33.428,33.428,0,0,0,2.931,3.532,2.056,2.056,0,0,0,3.532-.578c.823-2.139,1.38-4.846.817-6.892a2.06,2.06,0,0,0-2.213-1.311,5.089,5.089,0,0,0-2.069.46m-184.048.308a11.931,11.931,0,0,0-.16,6.479c.322,1.611,2.132,2.615,3.378,1.533a6.489,6.489,0,0,0,.651-8.73,2.014,2.014,0,0,0-1.626-.754,2.379,2.379,0,0,0-2.243,1.473m165.507-32.453c-.129.654-.281,1.283-.461,1.885a7,7,0,0,0,.57,5.3,12.282,12.282,0,0,0,2.9,3.148c1.343.958,2.48-.1,2.919-1.689.479-1.753,1.309-3.566,1-5.393-.229-1.317-2.061-3.63-3.819-5.031a1.624,1.624,0,0,0-1.017-.384,2.468,2.468,0,0,0-2.083,2.165m1.173-25.985c-.463,1.253-1.131,2.427-1.388,3.488-.386,1.6,1.143,1.333,1.893-.132a11.044,11.044,0,0,0,1.527-3.964c.026-.658-.2-.938-.526-.938-.479,0-1.163.624-1.507,1.547m30.709-31.858a18.909,18.909,0,0,0,.154,3.536c.281,1.621,1.634.98,1.93-.634.113-.648.233-1.285.3-1.949a4.159,4.159,0,0,0-1.321-3.524.4.4,0,0,0-.214-.072c-.494,0-.831,1.2-.85,2.643m24.824-23.326c.016.92.026,1.917.053,2.875a6.706,6.706,0,0,1-2.059,4.9,98.317,98.317,0,0,1-15.991,10.019c-1.471.77-2.27,2.505-1.335,3.6a2.381,2.381,0,0,0,3.817-.6c.457-1.133.908-2.329,1.831-2.569.85-.218,2.262.6,3.37.712a27.058,27.058,0,0,0,5.536,0c9.218-1.349,13.432-14.525,7.084-20.286a1.682,1.682,0,0,0-1.1-.51c-.718,0-1.232.738-1.208,1.861m-1.456-14.049c.006.416.014.836.034,1.253a4.816,4.816,0,0,0,3.249,4.076,8.107,8.107,0,0,0,6.41-1.351c1.3-1.027.463-3.016-1.066-3.66-1.932-.82-3.947-1.567-5.988-2.291a2.685,2.685,0,0,0-.884-.164c-1.076,0-1.77.826-1.756,2.137M302.239,27.94a8.122,8.122,0,0,0,3.059.5c1.657-.018,1.764-1.117.142-1.463-.722-.15-1.479-.272-2.217-.408a3.277,3.277,0,0,0-.554-.05c-1.258,0-1.782.868-.429,1.417M173.157,24.953c-1.137.184-2.257.342-3.3.408-7.029.464-11.84,1.429-17.089,3.57a65.359,65.359,0,0,0-9.1,4.236c-1.418.862-1.394,2.859.267,2.809,2.7-.09,5.007-3.444,7.626-4.662a48.047,48.047,0,0,1,12.275-3.568c3.358-.56,6.965-.816,10.088-1.987a6.58,6.58,0,0,0,2.427-1.353c-.134,0-1.56.272-3.2.546M25.7,318.124a35.2,35.2,0,0,1-3.358-7.974c-.465-1.579.125-1.859.949-.436A39.331,39.331,0,0,1,26.5,317.75c.267.864.253,1.321.047,1.321-.17,0-.467-.306-.844-.946M13.854,295.506c-.534-1.387-1.09-3.049-1.572-4.654-.473-1.575-.374-2.659-.184-2.055.121.366.233.79.342,1.091.585,1.549,1.287,3.528,1.871,5.457.251.824.275,1.251.158,1.251s-.334-.354-.615-1.089m-1.268-19.9a26.8,26.8,0,0,1-.469-4.17c-.057-1.647,1.173-2.085,1.8-.562a8.472,8.472,0,0,1,.382,4.756c-.146.8-.492,1.2-.839,1.2s-.714-.41-.876-1.223M65.9,131.083c-1.074-.93-1.163-2.767-.485-4.268,3.146-6.934,2.642-16.877,7.2-22.639A11.777,11.777,0,0,1,75.7,101.6c1.392-.9,2.346-.39,2.215,1.253a18.383,18.383,0,0,0,0,3.934c.168,1.1,1.013,2.463.967,3.574-.087,1.9-2.053,4.768-2.654,7.858-.734,3.806-.963,7.47-2.644,9.761a11.706,11.706,0,0,1-3.188,2.679,5.634,5.634,0,0,1-2.9.934,2.381,2.381,0,0,1-1.586-.512m-9.222-29.475a9.541,9.541,0,0,0,1.408-1.585c.933-1.359,1.2-2.7,1.353-2.577a8.368,8.368,0,0,1-.981,3.044,13.251,13.251,0,0,0-1.491,5.349c-.051,1.959.759,4.15.548,6.289a5.96,5.96,0,0,1-3.663,4.152,8.693,8.693,0,0,1-5.6.064c-1.521-.65-3.079-1.573-4.525-.752-.939.528-1.855,1.1-2.723,1.707-1.353.948-2.086.554-1.523-.987,2.2-5.993,7.027-10.351,11.33-14.733a40.8,40.8,0,0,1,3.88-3.092c.894-.718,1.111-.212.255.732s-1.236,2.415-.848,3.014a.783.783,0,0,0,.7.36,3.082,3.082,0,0,0,1.877-.984M240.718,82.452c3.046-2.645,7.167-4.23,9.708-7.382,1.032-1.291,2.585-1.585,2.931.024.928,4.394-6.772,6.837-11.834,8.534a3.148,3.148,0,0,1-.963.192c-.744,0-.783-.55.158-1.369M70.367,70.4a56.366,56.366,0,0,1,6.611-6.071c1.293-1.031,2.322-1.073,1.681-.38-.4.426-.882.862-1.23,1.177-1.98,1.793-4.608,3.576-6.793,5.5a4.071,4.071,0,0,1-1,.76c-.1,0,.142-.332.73-.989m12.815-9.691c.746-.386,1.157.286.374.494a1.715,1.715,0,0,1-.449.068c-.429,0-.5-.258.075-.562m5.567-1.979c.579-.528,1.123-.03.469.4a1.052,1.052,0,0,1-.538.2c-.271,0-.32-.252.069-.6m80.634-18.435c.49-.548,1.015-1.057,1.541-1.573,1.187-1.153,2.417-1.141,2.917.1a2.526,2.526,0,0,1-1.325,3.44,9.389,9.389,0,0,1-1.837.528,2.286,2.286,0,0,1-.376.034c-1.369,0-1.938-1.4-.92-2.531m59.2-14.693a22.764,22.764,0,0,1-2.417.014c-1.337-.024-2.567-.168-2.666-.71s-1.845.23-3.441.7c-3.059.9-6.833.984-10.009,1.429-2.99.42-5.138,1.507-8.182,2.623-2.33.848-4.837.848-7.234,1.293-1.634.3-2.856,1.743-2,2.069s-.051.844-1.709.732c-4.543-.31-8.666-.666-13.248-.754-1.657-.024-3.582-.232-3.795-.892s-1.9-.516-3.431.134a38.243,38.243,0,0,0-8.239,4.462c-1.313,1.009-2.605,2.379-2.4,2.948s-1.371.628-2.951.122c-2.854-.906-5.6-1.829-8.911-1.071-1.675.384-3.113,1.489-4.81,1.663a13.875,13.875,0,0,1-3.548-.23,14.147,14.147,0,0,0-3.429-.244c-3.054.286-5.583,1.531-8.162,2.379-1.574.522-3.143.25-3.054-.348s-1.46-.81-2.79.178a16.492,16.492,0,0,1-3.809,2.555c-.87.33-1.9.128-2.889.478-2.405.846-4.452,2.669-6.453,3.438-1.547.592-3.728.58-4.566,1.331s-1.434-.394-.465-1.735a5.664,5.664,0,0,1,3.3-2.317c3.4-.768,6.619.166,8.664-2.143a4.449,4.449,0,0,0,.886-1.837A3.787,3.787,0,0,0,116.588,39a1.556,1.556,0,0,1,.208-2.173c.805-.638.358-1.559-.512-1.443a3.423,3.423,0,0,1-.985.006c-.239-.028-.378-.06-.429.01-.1.136-.1.768-.39.578-.178-.122-.746.028-1.483.364a241.229,241.229,0,0,0-79.983,82.144c.358-.424.354-.068-.194,1a65.869,65.869,0,0,0-3.208,6.589c-.585,1.539-.059,1.751.746.314a65.594,65.594,0,0,1,3.491-5.895c.961-1.343,1.845-1.859,1.936-1.363A4.363,4.363,0,0,1,35.038,122a23.234,23.234,0,0,0-3.091,8.016c-.263,1.621,1,2.465,2.539,1.841.332-.134.678-.262,1.02-.366,1.588-.478,2.959,1.413,2.529,3-.793,2.939-2.6,5.283-3.926,7.536a60.118,60.118,0,0,1-4.3,6.551c-1.015,1.3-3.2,1.795-4.746,2.043s-3.578-.464-3.609-2.1c-.006-.3.006-.6.014-.9.057-1.645-1.157-2.141-1.962-.742-.556.97-.985,1.073-.977.548a240.21,240.21,0,0,0,30.4,237.793,39.221,39.221,0,0,0,2.909,3.174c1.187,1.151,1.881,1.121,2.375.278s-.055-2.807-.748-4.3c-1.56-3.338-2.828-6.892-4.434-10.435-1.857-4.092-4.272-8.422-5.174-12.758a34.063,34.063,0,0,0-1.6-5.667c-.9-2.049-1.7-4.044-2.609-6.1C38.4,346.6,36.1,343.6,35.549,340.6c-.6-3.28.214-6.467.72-9.043.312-1.583,1.456-3.266,1.442-4.764,0-1.093-1.054-3.206-1.685-5-3.117-8.973-6.273-15.99-8.658-24.765-.959-3.5-2.3-7.56-2.411-10.954-.174-5.493,1.934-11.366,3.854-15.952,5.589-13.387,13.689-24.04,16.608-39.446.3-1.615-.277-4.188-1.839-4.758-2.988-1.087-7.031.772-10.575,1.431-1.632.3-2.931-1.193-3.255-2.805-.87-4.366-3.655-7.986-5.035-12.518-.852-2.817-.906-5.881-1.2-9.285-.475-5.453-1.738-10.287-1.448-16.662.3-6.533.823-14.009,1.687-19.766a20.742,20.742,0,0,1,.338-2.525c.39-1.355,1.624-.2,1.554,1.441-.212,4.983.805,9.365,1,13.7.194,4.3-1.072,8.42-.72,12.62.344,4.1,2.28,8.064,2.644,12.616.307,3.8.257,7.472.241,11.55a2.25,2.25,0,0,0,2.931,2.3c8.591-2.419,16.173-8.286,22.83-13.131,2.626-1.917,5.923-3.462,7.944-5.479,1.068-1.073,1.693-2.877,2.64-4.286,2.3-3.386,5.249-6.811,6.977-10.757.655-1.5-.121-3.6-1.327-4.73-2.923-2.755-6.293-6.413-11.66-5.229a5.171,5.171,0,0,0-1.79,1.009c-.912.676-1.944-.428-2.264-2.045a77.5,77.5,0,0,0-3-9.925,4.131,4.131,0,0,1,1.477-4.456A2.363,2.363,0,0,1,57.22,160.2c.494,2.015.663,4.226,2.4,5.4,1.289.87,3.5.762,4.816,1.427,1.683.856,2.6,2.557,4.088,3.334,5.913,3.082,14.571,2.467,22.027,2.215a7.317,7.317,0,0,1,5.035,2.123c5.272,5.967,9.679,12.786,15.991,17.729a8.014,8.014,0,0,1,2.739,4.706c1.77,14.247,7.693,24.39,11.783,36.344a3.561,3.561,0,0,0,3.888,2.383,30.6,30.6,0,0,0,3.839-1.125c1.564-.552,3.548-2.2,3.9-3.81a27.854,27.854,0,0,0,.362-5.327c.113-5.265,2.486-9.817,3.609-14.687a8.352,8.352,0,0,1,3.028-4.524c7.921-5.313,15.123-13.4,24.9-17.695,3.392-1.487,8.955-3.892,12.762-3.1,1.742.366,3.833,2.631,5.532,4.05,4.978,4.16,8.674,8.834,10.442,15.43a3.764,3.764,0,0,0,3.633,2.875c1.594-.156,3.235-.476,4.853-.748a3.68,3.68,0,0,1,4.009,2.379c1.778,6.567-.063,14.651.651,21.967,1.028,10.5,9.758,13.151,10.592,22.267a2.265,2.265,0,0,1-2.945,2.361c-4.648-1.2-8.407-3.284-12.538-4.987-1.533-.636-2.14.086-1.24,1.469,4.41,6.771,10.033,12.883,14.8,19.366,4.776,6.509,9.689,13.277,17.235,17.115,1.479.75,4.094.886,5.429-.086,5.47-4,2.949-13.359-1.628-17.537a8.515,8.515,0,0,1-2.583-4.6c-.546-3.838-2.812-6.181-4.731-10.129-1.63-3.342-2.338-7.036-3.854-9.759-3.425-6.141-12.6-7.21-13.956-15.714a12.645,12.645,0,0,1,2.1-8.772,5.646,5.646,0,0,1,4.754-2.349c8.9,1.029,10.389,9.381,16.628,13.039,1.43.836,3.795.33,5.174-.586,5.539-3.7,11.433-5.835,12.5-13.949.75-5.671-2.832-9.5-5.532-12.386-2.215-2.359-6.552-5.453-6.74-8.092-.15-2.085,1.264-4.388,2.512-6.273a7.958,7.958,0,0,1,4.553-2.972c.92-.182,1.8-.368,2.7-.456a2.27,2.27,0,0,1,2.288,3.066c-.322.9-.688,1.759-.941,2.733-.407,1.6.918,2.343,2.264,1.377,3.506-2.505,6.259-5.853,10.207-8.428,4.725-3.08,10.292-4.534,15.887-6.9a35.671,35.671,0,0,0,13.237-9.523c4.483-5.125,8.882-11.028,7.94-19.92a11.316,11.316,0,0,0-2.371-5.257c-2.241-2.583-4.59-5.071-5.46-9.017a4.7,4.7,0,0,1,2.007-4.716c.271-.136.544-.272.8-.422,1.426-.842.291-2.381-1.307-2.831a8.951,8.951,0,0,1-5.536-4.132,2.216,2.216,0,0,1,1.833-3.274c12.384-1.593,21.537,4.748,23.619,15.664a2.7,2.7,0,0,0,3.324,2.345A12.181,12.181,0,0,0,326.907,137c1.258-1.079,1.133-3.508.443-5a57.081,57.081,0,0,1-3.224-9.457,9.048,9.048,0,0,1,.827-5.445c1.064-2.153,2.122-4.558,4.485-5.3,2.146-.684,4.74-.042,6.979-.72,5.3-1.593,9.085-8.868,10.832-13.567.651-1.765,2.126-4.388,2.164-6.193a11.558,11.558,0,0,0-.912-3.8c-.544-1.553.4-2.2,1.669-1.141a28.812,28.812,0,0,1,3.649,3.782c1.052,1.275,2.355,1.057,2.288-.58-.148-3.532-2.658-6.445-4.831-9.025a8.165,8.165,0,0,0-4.845-2.689c-4.541-.32-9.8.072-13.567-1.007-1.59-.456-2.747-2.657-1.992-4.114a17.356,17.356,0,0,1,3.382-4.052c1.75-1.729,3.309-4.586,5.532-5.711,4.96-2.515,12.548-.872,18.655-.372,1.659.14,3.388-.79,3.461-2a6.73,6.73,0,0,1,.267-2.155c2.045-5.143,10.478-.842,11.312,2.377a7.594,7.594,0,0,1-.55,4.628,7.161,7.161,0,0,0,.293,5.381A49.809,49.809,0,0,0,380.7,81.157c1.151,1.187,3.451,1.315,3.951-.252.655-2.063.14-4.83-.338-7.368a15.893,15.893,0,0,0-2.274-5.329c-.894-1.261-1.758-2.549-2.662-3.8a6.146,6.146,0,0,1-1.262-3.73c.107-.834,2.009-1.327,3.657-1.127l.289.032c1.651.19,3.208-1.069,3.18-2.2s.449-2.331,1.07-2.283.37-1.1-.93-2.131c-1.495-1.193-3.275-2.2-4.553-3.446-1.181-1.157-.328-1.975,1.137-1.209.643.338,1.27.686,1.9,1.043,1.442.808,1.988.266.694-.762l-.049-.042c-.837-.664-1.841-1.457-2.678-2.165-.68-.5-1.363-1-2.043-1.493-.049.05-.305-.006-.674-.248a5.072,5.072,0,0,0-1.78-.9,12.313,12.313,0,0,1-3.5-1.423,33.876,33.876,0,0,0-12.521-4.588c-1.645-.226-3.257.186-3,.7s-.935.164-2.6.124a17.511,17.511,0,0,0-2.284.146,11.476,11.476,0,0,1-3.781-.022c-2.63-.584-4.622-2.5-7.458-2.855a22.607,22.607,0,0,0-3.346.018,26.119,26.119,0,0,1-4.12-.018c-2.6-.314-5.292-1.545-8.178-2.145-4.812-.995-13.043-2.929-17.572-.95-.991.43-1.661,1.591-2.65,1.9a17.674,17.674,0,0,1-6.564.314,32.273,32.273,0,0,0-3.728-.136c-1.663.072-3.7-.28-4.5-1.389a4.374,4.374,0,0,0-1.816-1.643c-.914-.386-2.806-.392-4.329-.716-2.605-.546-5.567-1.6-7.948-.952-1.078.294-1.96,1.637-3.127,1.9-4.335,1-8.668-1.5-13.142-1.7-1.661-.074-3.884-.728-4.82-2.083-.142-.2-.275-.4-.411-.606-.92-1.369-2.937-2.805-4.594-2.7-2.543.16-5.2.836-7.841.186-1.473-.366-2.64-1.777-4.1-1.9-.174-.016-.352-.024-.532-.024-3.032,0-6.8,2.085-10.3,2.4m-6.505-7.332c-1.414.524-2.088,1.951-.607,2.477a14.039,14.039,0,0,0,2.779.572c3.765.468,8.132,1.665,11.579,1.311,1.651-.17,2.019-1.781.6-1.785a13.888,13.888,0,0,1-2.549-.006c-.809-.154-1.762-.892-2.889-1.193-1.153-.3-2.609-.148-3.611-.474-.975-.314-1.63-1.321-2.648-1.431-.123-.012-.243-.018-.362-.018a6.519,6.519,0,0,0-2.292.546m-50.268-.522c-1.153.356-.5,1.353.568.878.88-.386.71-.968-.02-.968a1.905,1.905,0,0,0-.548.09m-21.129-.354a169.124,169.124,0,0,0-19.134,8.638c-1.454.786-1.426.844.079.142,6.251-2.905,13.826-5.313,19.69-8.192a13.659,13.659,0,0,0,1.264-.694c.332-.206.251-.328-.1-.328a5.646,5.646,0,0,0-1.8.434M240.006,0a240.85,240.85,0,0,0-50.567,5.355c-1.746.412-3.465.846-5.14,1.311-1.6.442-1.572.566.061.268,7.44-1.363,15.131-2.233,22.965-3.466a14.811,14.811,0,0,1,4.313.186,15.778,15.778,0,0,0,4.272.276c8.563-.995,15.469,1.507,23.265,3.338C243.9,8.378,248.9,9.987,253.858,10.6a43.839,43.839,0,0,0,5.658.2c1.327-.012,2.66-.022,3.969.044,5.619.282,10.446,3.184,15.887,3.57a103.06,103.06,0,0,0,10.952-.208c1.661-.054,3.34-.52,3.338-1.2s1.495-1.357,3.156-1.267c2.225.116,4.29.534,6.267.722,1.655.162,1.936-.772.465-1.537-.734-.38-1.5-.736-2.251-1.093-1.5-.712-2.128-1.187-1.442-1.107s.742-.386.2-.524-.6-.454-.467-.454.34.294.72.238c.212-.03.328-.136.271-.26A240.416,240.416,0,0,0,240.006,0Z" fill="none"/>
    </clipPath>
    <radialGradient id="radial-gradient-3" cx="0.567" cy="0.323" r="0.584" gradientUnits="objectBoundingBox">
      <stop offset="0" stop-color="#fff"/>
      <stop offset="1" stop-color="#888"/>
    </radialGradient>
  </defs>
  <g id="base">
    <g id="그룹_2997" data-name="그룹 2997" clip-path="url(#clip-path)">
      <path id="패스_9407" data-name="패스 9407" d="M0,0,678.653,3.673l3.674,678.435L3.674,678.435Z" transform="translate(-242.191 225.766) rotate(-43.3)" fill="url(#radial-gradient)"/>
    </g>
  </g>
  <g id="그룹_2999" data-name="그룹 2999" transform="translate(16.968 2.327)">
    <g id="그룹_2998" data-name="그룹 2998" clip-path="url(#clip-path-2)">
      <path id="패스_9409" data-name="패스 9409" d="M0,0,611.232,3.3l3.329,615.728-611.232-3.3Z" transform="translate(-238.639 216.859) rotate(-42.572)" fill="url(#radial-gradient-2)"/>
    </g>
  </g>
  <g id="그룹_3001" data-name="그룹 3001">
    <g id="그룹_3000" data-name="그룹 3000" clip-path="url(#clip-path-3)">
      <path id="패스_9411" data-name="패스 9411" d="M0,0,628.1,3.4l3.417,630.912-628.1-3.4Z" transform="matrix(0.728, -0.685, 0.685, 0.728, -242.162, 225.301)" fill="url(#radial-gradient-3)"/>
    </g>
  </g>
</svg>
