<svg xmlns="http://www.w3.org/2000/svg" xmlns:xlink="http://www.w3.org/1999/xlink" width="138" height="208" viewBox="0 0 138 208">
  <defs>
    <clipPath id="clip-path">
      <rect id="mask" width="138" height="208" transform="translate(0.001)" fill="#fff" stroke="#707070" stroke-width="1"/>
    </clipPath>
  </defs>
  <g id="img_logo02" data-name="img/logo02" transform="translate(-0.001)" clip-path="url(#clip-path)">
    <g id="txt" transform="translate(0 155.639)">
      <g id="그룹_3323" data-name="그룹 3323">
        <path id="패스_29327" data-name="패스 29327" d="M140.714,176.251h21.919v4.582h-8.2v22.179h-5.508V180.833h-8.207Z" transform="translate(-140.714 -176.251)" fill="#501d83"/>
        <path id="패스_29328" data-name="패스 29328" d="M147.263,203.012l9.277-26.761h7.134l9.243,26.761h-5.954l-2.015-6.173h-9.682l-2.015,6.173Zm16.282-10.5L160.2,182.277h-.185l-3.346,10.238Z" transform="translate(-126.709 -176.251)" fill="#501d83"/>
        <path id="패스_29329" data-name="패스 29329" d="M156.4,176.251h17.967v4.582H161.948v6.506h11.5v4.585h-11.5v6.506H174.4v4.582h-18Z" transform="translate(-107.166 -176.251)" fill="#501d83"/>
        <path id="패스_29330" data-name="패스 29330" d="M180.7,176.251v18.667c0,5.194-3.678,8.464-9.054,8.464-4.843,0-8.631-2.552-8.615-7.837h5.546a3.126,3.126,0,0,0,3.327,3.364c2.125,0,3.289-1.368,3.289-3.992V176.251Z" transform="translate(-92.986 -176.251)" fill="#501d83"/>
        <path id="패스_29331" data-name="패스 29331" d="M169.617,203.012l9.28-26.761h7.134l9.24,26.761h-5.95l-2.015-6.173H177.62l-2.015,6.173Zm16.285-10.5-3.346-10.238h-.185l-3.346,10.238Z" transform="translate(-78.907 -176.251)" fill="#501d83"/>
        <path id="패스_29332" data-name="패스 29332" d="M178.757,176.251h17.964v4.582H184.3v6.506h11.5v4.585H184.3v6.506h12.456v4.582h-18Z" transform="translate(-59.362 -176.251)" fill="#501d83"/>
      </g>
      <g id="그룹_3324" data-name="그룹 3324" transform="translate(4.425 35.518)">
        <path id="패스_29333" data-name="패스 29333" d="M152.267,198.01a3.376,3.376,0,0,1-6.748,0V187.641h-3.4V198.28c0,3.59,2.7,5.988,6.77,5.979,4.064.009,6.792-2.388,6.792-5.979V187.641h-3.418Z" transform="translate(-142.124 -187.412)" fill="#501d83"/>
        <path id="패스_29334" data-name="패스 29334" d="M157.789,198.056h-.158l-7.155-10.415h-2.989v16.392h3.4V193.618h.136l7.2,10.415h2.943V187.641h-3.374Z" transform="translate(-130.656 -187.413)" fill="#501d83"/>
        <rect id="사각형_2510" data-name="사각형 2510" width="3.396" height="16.392" transform="translate(33.775 0.228)" fill="#501d83"/>
        <path id="패스_29335" data-name="패스 29335" d="M162.415,200.138h-.158l-3.985-12.5h-3.8l5.683,16.392h4.37l5.66-16.392h-3.758Z" transform="translate(-115.726 -187.413)" fill="#501d83"/>
        <path id="패스_29336" data-name="패스 29336" d="M163.373,197.241h7.041v-2.807h-7.041v-3.985h7.607v-2.808h-11v16.392H171v-2.807h-7.63Z" transform="translate(-103.948 -187.413)" fill="#501d83"/>
        <path id="패스_29337" data-name="패스 29337" d="M176.773,192.983c0-3.248-2.137-5.342-5.863-5.342H164.48v16.392h3.4v-5.819h2.592l3.135,5.819h3.76l-3.487-6.374A4.738,4.738,0,0,0,176.773,192.983Zm-6.5,2.47h-2.4v-5.028h2.4c2.015.012,3,.907,2.988,2.558C173.277,194.624,172.292,195.453,170.277,195.453Z" transform="translate(-94.317 -187.412)" fill="#501d83"/>
        <path id="패스_29338" data-name="패스 29338" d="M177.018,194.7l-1.472-.361c-1.415-.317-2.639-.85-2.627-2.04.013-1.086.973-1.88,2.7-1.88,1.663,0,2.693.759,2.828,2.062H181.7c-.044-2.9-2.432-4.915-6.067-4.915-3.59,0-6.217,1.984-6.2,4.959,0,2.4,1.7,3.782,4.46,4.463l1.789.43c1.789.439,2.809.96,2.809,2.081,0,1.224-1.155,2.062-2.944,2.062-1.811,0-3.126-.838-3.239-2.492H169c.1,3.521,2.627,5.354,6.588,5.345,4,.009,6.33-1.914,6.34-4.915C181.92,196.773,179.823,195.348,177.018,194.7Z" transform="translate(-84.647 -187.568)" fill="#501d83"/>
        <rect id="사각형_2511" data-name="사각형 2511" width="3.396" height="16.392" transform="translate(99.751 0.228)" fill="#501d83"/>
        <path id="패스_29339" data-name="패스 29339" d="M200.393,187.641l-3.758,7.064h-.158l-3.781-7.064H175.55v2.808h5.026v13.585h3.374V190.448h5.026v-2.617l5.869,10.361v5.841h3.4v-5.841l5.977-10.551Z" transform="translate(-70.644 -187.413)" fill="#501d83"/>
      </g>
    </g>
    <g id="symbol" transform="translate(1.601)">
      <rect id="사각형_2512" data-name="사각형 2512" width="33.944" height="33.944" fill="#00a597"/>
      <g id="그룹_3326" data-name="그룹 3326" transform="translate(33.944 0)">
        <path id="패스_29340" data-name="패스 29340" d="M185.983,126.5,152.04,160.444v67.887h33.944V160.444h33.944V126.5Z" transform="translate(-152.04 -126.501)" fill="#501d83"/>
        <path id="패스_29341" data-name="패스 29341" d="M230.742,137.316H196.8V205.2H162.855v33.34a60.063,60.063,0,0,0,8.486.606,59.4,59.4,0,0,0,59.4-59.373Z" transform="translate(-128.912 -103.373)" fill="#501d83"/>
      </g>
    </g>
  </g>
</svg>
