<svg id="earth_moscow" data-name="earth/moscow" xmlns="http://www.w3.org/2000/svg" xmlns:xlink="http://www.w3.org/1999/xlink" width="480" height="480" viewBox="0 0 480 480">
  <defs>
    <clipPath id="clip-path">
      <path id="패스_5926" data-name="패스 5926" d="M240.006,0C107.455,0,0,107.456,0,240S107.455,480,240.006,480,480,372.55,480,240,372.555,0,240.006,0Z" fill="none"/>
    </clipPath>
    <radialGradient id="radial-gradient" cx="0.529" cy="0.298" r="0.551" gradientUnits="objectBoundingBox">
      <stop offset="0" stop-color="#fff"/>
      <stop offset="1" stop-color="#efefef"/>
    </radialGradient>
    <clipPath id="clip-path-2">
      <path id="패스_5927" data-name="패스 5927" d="M336.229,457.863a24.993,24.993,0,0,1-5.241,1.887,16.526,16.526,0,0,0-4.507,1.207c-.833.542-1.052,1.083-.666,1.165a5.3,5.3,0,0,0,2.6-.556,84.941,84.941,0,0,0,8.019-3.266c.945-.462,1.226-.778.912-.778a3.605,3.605,0,0,0-1.113.342m-196.537-1.5c.154.092,1.537.6,3.046,1.287a224.78,224.78,0,0,0,41.321,14.227c4.355,1.013,8.943,2.265,13.6,2.435,1.655.06,1.723-.486.19-1.111-1.151-.46-2.274-.962-3.378-1.475-1.505-.69-2.411-1.3-2.031-1.259s-.4-1.315-1.938-1.929c-2.274-.9-5.158-.826-8.049-.454-1.649.212-2.775.622-2.454.656a9.337,9.337,0,0,1-2.516-.246c-12.372-2.363-24.1-6.709-34.945-11.176a19.273,19.273,0,0,0-2.852-.968c-.012,0-.012,0,0,.012m253.146-49.077a7.644,7.644,0,0,0-4.044,3.1c-.2.314-.407.622-.6.938-.868,1.4-.152,1.9,1.21.958a38.653,38.653,0,0,0,3.959-2.971c1.1-.989.918-2.069-.129-2.069a1.935,1.935,0,0,0-.4.044m-49.693-.08a6.778,6.778,0,0,0-3.166,3.19c-1.266,3.488-.647,8.13,2.247,9.967,1.4.892,3.635-.04,4.489-1.171s.52-3.024-.309-4.452a12.161,12.161,0,0,1-1.566-5.127c-.123-1.411-.627-2.5-1.333-2.5a.81.81,0,0,0-.362.092m-.127-10.157c-3.137,1.2-7.084,2.791-7.565,5.3a6.457,6.457,0,0,0,.425,2.823,2.5,2.5,0,0,0,3.967.742,29.125,29.125,0,0,0,2.83-3.328,24.16,24.16,0,0,0,2.6-3.788c.564-1.159-.188-1.941-1.287-1.941a2.733,2.733,0,0,0-.969.188m-301.365-28.2a136.6,136.6,0,0,0,22.029,32.843l.407.438a112.143,112.143,0,0,0,9.119,8.776c1.256,1.079,1.881,2.291,2.13,2.325l.409-.162c1.58.988,2.925,2.739,4.574,4.044C85.346,421.1,89.8,425.033,95,428.779c6.06,4.36,11.71,9.137,18.264,12.69,1.454.79,1.709.422.5-.7-6.609-6.075-14-11.726-21.163-17.235-2.745-2.105-5.047-4.67-7.705-6.665-2.436-1.823-4.584-2.559-6.259-4.762-.453-.594-.461-1.325-.963-1.9-3.105-3.582-7.031-6.441-10.351-10a254.232,254.232,0,0,1-25.3-31.562c-.437-.65-.706-.97-.789-.97s.042.394.425,1.169M463.17,310.789c-2.832.626-3.613,3.756-4.962,7.036-1.493,3.624-2.636,6.926-4.756,9.043-1.171,1.165-2.735,1.018-3.22.306s-.392-2.481.119-4.042c1.064-3.224,1.78-6.789,2.585-10.267.362-1.607-.481-2.205-1.588-.977-1.96,2.183-3.182,5.091-5.174,8.08-4.535,6.791-7.563,15.43-13,21.189-1.774,1.883-4.258,3.3-6.259,5.241a109.557,109.557,0,0,0-15.879,19.286c-4.549,7.15-6.934,16-10.594,24.522-.912,2.125-2.874,4.842-3.37,7.162-.344,1.607,1.8,3.188,3.463,3.2a14.443,14.443,0,0,0,3.275-.358c4.464-.962,6.447-3.394,9.388-6.193a43.178,43.178,0,0,1,6.5-4.76,45.929,45.929,0,0,0,6.016-5.243,18.959,18.959,0,0,1,3.831-3.228,1.328,1.328,0,0,1,1.79,1.911c-.686,1.137-.212,1.241.728.136,1.748-2.331,3.447-4.706,5.114-7.1,3.963-6.047,7.45-12.564,11.164-19.1,2.043-3.6,4.307-7.114,6.514-10.713a238.285,238.285,0,0,0,9.926-22.763l.083-.506c.255-1.625.3-3.31-.15-3.11s-.392-1.345.045-2.923c.259-.928.516-1.851.755-2.791.37-1.453-.536-3.084-1.932-3.084a1.971,1.971,0,0,0-.411.046m-.993-32.538a31.426,31.426,0,0,0-6.135,5.051c-2.743,2.659-5.8,5.161-6.981,7.618-1.252,2.6-1.523,5.409-3.131,7.854-.971,1.487-2.069,2.735-3.046,4.108-.959,1.347-.125,2.557,1.378,1.861,2.126-.975,3.736-2.837,5.261-4.654,1.05-1.267,2.527-1.045,2.921.548a14.441,14.441,0,0,1,.459,3.79c-.028,1.641.872,2.5,2,1.287,2-2.125,2.984-5.439,5.45-6.8,1.456-.8,3.524-1.875,3.37-3.514-.125-1.369-.566-2.653-.223-4.236.457-2.1,2.852-3.446,3.127-5.243.188-1.193-.532-2.959-.72-4.52-.087-.724-.061-1.511-.132-2.247-.081-.814-1-1.3-2.029-1.3a3.238,3.238,0,0,0-1.572.4m9.772-5.791a40.494,40.494,0,0,0-1.574,7.412c-.225,1.629.629,2.007,1.278.494a27,27,0,0,0,1.772-7.428,9.575,9.575,0,0,0,0-3.188l-.01,0a6.537,6.537,0,0,0-1.467,2.711m7.432-38.339a62.232,62.232,0,0,0,.251,6.449c.067.9.2,1.289.334,1.215.012-.966.034-1.929.034-2.893q0-3.026-.073-6.019a.2.2,0,0,0-.067-.012c-.235,0-.453.422-.479,1.261M7.2,193.608a4.589,4.589,0,0,0-.678,1.535c-.348,1.6,1.968,1.807,2.565.274.075-.2.148-.4.2-.6a1.31,1.31,0,0,0-1.046-1.853,1.28,1.28,0,0,0-1.046.648m14.384-13.069c-3.483,1.433-5.6,4.218-7.1,7.6-.674,1.5.255,2.371,1.475,1.259,2.144-1.971,3.589-5,6.269-5.831,1.588-.494,3.253-.932,3.095-2.039-.119-.778-1.161-1.265-2.3-1.267a3.779,3.779,0,0,0-1.432.274m-1.511-7.764c-.4.828-.757,1.7-1.119,2.563-.633,1.523-2.011,2.777-2.152,3.518a.813.813,0,0,0,1.052,1c.595-.2,1.529-1.617,2.114-3.16.439-1.149.882-2.3,1.317-3.452.583-1.543.852-2.837.676-2.962a.06.06,0,0,0-.032-.008,5.87,5.87,0,0,0-1.855,2.5M410.914,73.534c1.7,2.541,3.057,5.411,4.675,8.028.874,1.4,1.705,1.1,1.287-.484-.933-3.546-3.269-5.7-5.605-7.85a4.346,4.346,0,0,0-.963-.784c-.1,0,.113.356.607,1.091M241.558,57.471c.318,1.223,1.655,2.643,3.192,2.021l.449-.19c1.527-.654,2.231-2.057.688-2.679a14.213,14.213,0,0,0-1.681-.526,3.959,3.959,0,0,0-1.011-.138c-1.113,0-1.887.558-1.636,1.513m11.91-4.18c-.481.018-.34,1.447.67,2.629s2.223.376,1.416-.64-1.59-1.989-2.075-1.989h-.01M220.66,46.648a78.352,78.352,0,0,1-7.555,3.684,18.1,18.1,0,0,0-4.6,3.426c-1.355,1.3-2.959,2.539-3.271,4.3a7.845,7.845,0,0,0,.281,2.607c.231,1.445.528,2.013,2.138,1.609,2.6-.636,5.286-1.193,7.9-1.815,1.616-.38,1.8-.974.4-1.033s-1.647-1.181-.435-2.3a48.7,48.7,0,0,0,3.882-3.77,14.52,14.52,0,0,1,4.539-3.46c.581-.236,1.149-.5,1.705-.752,1.5-.7,1.721-2.175.3-2.873a4.67,4.67,0,0,0-2.013-.4,7.249,7.249,0,0,0-3.275.772m-112.053.212a37.2,37.2,0,0,0-4.468,2.035c-1.434.828-1.214,1.943.253,1.855s3.718-.648,4.79-1.9l.411-.486a19.31,19.31,0,0,0,2.146-2.581c0-.03-.034-.044-.087-.044a19.551,19.551,0,0,0-3.044,1.127m222.606-6.877a5.923,5.923,0,0,0,3.237,2.083c1.634.312,2.874-1.979,1.556-2.979a7.722,7.722,0,0,0-3.576-1.213,3.038,3.038,0,0,0-.413-.03c-1.335,0-1.8,1.011-.8,2.139M110.051,37.826c-.775.562-1.193.552-.922.244s-1.052.486-2.442,1.387c-2.045,1.331-4.183,2.741-6.283,4.2q-2.773,1.987-5.476,4.05a49.548,49.548,0,0,0-5.474,4.967c-1.125,1.213-.87,1.457.417.414,6.19-5.011,12.271-10.121,19.162-14.431,1-.626,1.489-1.063,1.406-1.063a1.473,1.473,0,0,0-.388.232M314.5,36.933c-1.608.4-1.543,1.1.083,1.441,1.847.38,3.657.8,5.609,1.073,1.643.232,1.908-.51.548-1.449a7.279,7.279,0,0,0-3.095-1.365,5.874,5.874,0,0,0-.732-.044,10.077,10.077,0,0,0-2.413.344M49.052,113.82c-.291-.548-.637-1.4-.166-2.021s1.485-.444,1.272.582c-.168.82-.587,1.6-.9,1.6-.079,0-.15-.048-.208-.158m-1.04-6.089c.378-.7,1.125-1.443,1.4-.952s-.006,1.139-.722,1.573a1.079,1.079,0,0,1-.534.19c-.322,0-.415-.318-.146-.81m11,3.1c-.734-.08-.916-1.187-.309-2.713a16.078,16.078,0,0,1,3.522-5.725c1.189-1.145,2.743-.352,2.126,1.177a36.379,36.379,0,0,1-2.605,4.72c-.827,1.365-1.924,2.547-2.658,2.547a.472.472,0,0,1-.075-.006m-5.731-4.979a10.514,10.514,0,0,1,2.34-3.528,9.888,9.888,0,0,1,3.2-2.535,8.2,8.2,0,0,1,1.576-.52,6.013,6.013,0,0,1-1.349,2.775c-1.157,1.585-2.516,2.964-3.8,4.41a2.013,2.013,0,0,1-1.376.774c-.542,0-.872-.472-.585-1.377m12.01-9.909c2.429-2.487,6.5-5.2,9.008-3.36,3.411,2.519-3.311,6.377-7.966,6.433h-.024c-1.643,0-2.162-1.895-1.017-3.074M125.428,78.62l.394-.476a15.835,15.835,0,0,1,4.5-3.442,15.042,15.042,0,0,1,2.737-1.169c1.61-.412,2.68,1.893,1.6,3.142a14.854,14.854,0,0,1-2.328,1.975,14.218,14.218,0,0,1-5.172,2.3l-.277.05a2.485,2.485,0,0,1-.427.038c-1.351,0-1.97-1.253-1.022-2.415m10.887,4.2a16.534,16.534,0,0,1,2.636-2.329,8.887,8.887,0,0,0,2.935-4.852,11.431,11.431,0,0,0,.036-3.578c-.255-1.625-.093-3.84,1.123-4.963.4-.368.819-.726,1.228-1.087,1.252-1.091,3.508-1.7,4.754-.774s.781,3.074.287,4.642c-.967,3.062.546,6.5,1.339,10a3.693,3.693,0,0,1-2.336,4.094,48.219,48.219,0,0,1-10.357,1.307c-.055,0-.107,0-.16,0-1.564,0-2.514-1.245-1.485-2.467m8.506-29.733c.451-.4,1.03.032.613.4a.6.6,0,0,1-.392.152c-.307,0-.536-.262-.22-.55m-9.006-7.626c1.643-.258,2.65,1.387,1.321,2.381-2.1,1.567-5.7,2.159-8.69,1.755-1.649-.218-2.974-1.717-2.446-2.6s2.134-.642,3.789-.6c.063,0,.125,0,.188,0a41.463,41.463,0,0,0,5.838-.936m32.529,1.915A1.5,1.5,0,0,1,167.8,44.5a13.385,13.385,0,0,1,8.316-1.1,1.514,1.514,0,0,1,.146,2.951,15.65,15.65,0,0,1-5.931,1.177,12.569,12.569,0,0,1-1.982-.15m-3.684-8.218a16.52,16.52,0,0,0-4.982,1.615,8.147,8.147,0,0,1-3.655.386c-.447-.012-.886-.026-1.3-.022-.815.016-1.683.12-2.573.2-1.653.162-3.253-.48-3.226-1.229s-1.786-.71-3.382-.272a19.851,19.851,0,0,1-7.084.922c-1.649-.2-2.49-1.825-1.7-2.459s-.245-1.167-1.754-.472l-.089.046c-1.5.692-2.84.594-2.537.508s-.926-.14-2.561.15a63.033,63.033,0,0,0-17.257,5.489c-1.485.74-1.655,1.559-.546,1.195s1.123.292.125,1.6l-.125.168c-.989,1.317-.732,3.634-.7,5.275a13.508,13.508,0,0,1-2.84,7.71c-2.577,2.861-7.855,4.85-12.995,6.9-4.309,1.721-8.565,4.3-13.165,5.445A13.881,13.881,0,0,0,77.1,74.8c-1.966,1.781-3.949,3.722-5.812,5.383-1.232,1.1-1.831.664-.916-.714a48.894,48.894,0,0,1,3.2-4.024c1.8-2.167,2.725-4.9,4.57-6.9,2.124-2.3,5.322-3.748,7.7-5.953,1.725-1.587,3.222-3.254,4.729-4.932,1.1-1.227.7-1.793-.55-.71l-.5.442c-1.226,1.1-2.336.914-2.027.072s-.746-1.037-2.11-.092-2.547,2.029-3.819,3.044c-1.295,1.033-1.814.538-.568-.522,1.036-.87.823-1.269.016-.766A241.156,241.156,0,0,0,52.7,88.851c.6-.62,1.321-.028.981.7-.362.78-.823.8-.538.422s-.949.246-1.98,1.535c-.878,1.091-1.715,2.229-2.6,3.326a8.018,8.018,0,0,1-1.651,1.513c-.192.254-.376.516-.57.774l.036.222A17.711,17.711,0,0,1,44.322,99.9q-1.611,2.26-3.17,4.574c-.059.6.243.886.619.52.595-.576.949.576.164,2.023-1.171,2.125-2.834,4.178-3.257,6.513-.16.9.1,1.793,0,2.625-.74,6.205-3.949,11.136-6.309,16.3a11.851,11.851,0,0,0-.874,5.711c.471,3.01,1.355,5.825,1.163,8.464-.223,3.19-2.118,6.917-3.368,10.005-1.736,4.278-4.831,8.174-4.321,13.067.176,1.637,1.234,1.657,1.9.15,2.084-4.67,4.309-9.193,6.592-13.659.744-1.467,2.531-3.422,4.173-3.658a9.308,9.308,0,0,1,7.171,2.409,6.021,6.021,0,0,0,4.94,1.345l.305-.078a5.17,5.17,0,0,1,4.871,1.179c.291.318.585.636.882.948a6.416,6.416,0,0,1,1.384,4.983c-.752,4.774,0,11.078-.943,15.934a30.561,30.561,0,0,1-4.333,10.954c-1.511,2.3-5.431,7.7-7.464,7.856-1.234.092-3.044-1.307-3.845-2.143a12.145,12.145,0,0,1-2.69-5.4,6.346,6.346,0,0,0-3.188-3.96,2.522,2.522,0,0,0-3.427,2.023,60.151,60.151,0,0,0-.364,13.655c.125,1.643-.752,3.858-2.286,4.49s-3.228,1.065-4.74,1.7a6.365,6.365,0,0,0-3.192,4.442c-.633,4.7.2,9.937-.813,14.473a11.422,11.422,0,0,1-2.887,4.7c-1.06,1.259-3.018,2.185-4.562,1.573-2.775-1.095-3.892-2.647-5.071-6.027a18.214,18.214,0,0,0-1.355-3.574c-.86-1.4-3.269-.326-3.676,1.009S.9,227.417.55,227.031l-.257.028C.107,230.977,0,234.919,0,238.891c0,1.835.032,3.662.071,5.493.354,1.233.85,2.521,1.224,3.464,1.23,3.118,1.863,7.094,2.723,10.691.91,3.812,1.319,8.25,2.891,11.188.916,1.719,2.565,3.206,3.607,4.764.589.882,1.208,1.733,1.857,2.537a7.432,7.432,0,0,0,3.945,2.493c1.076.144,2-.886,1.914-2.529-.532-9.809-6.623-15.942-7.236-25.595a81.048,81.048,0,0,1,.433-12.276c.154-1.635,1.545-2.119,3.184-2.4,1.966-.33,3.641-1.989,4.812-3.182,3.546-3.606,3.285-7.19,6.5-11.9,1.576-2.315,3.376-5.377,6.02-6.429,1.1-.44,2.561-.166,3.845-.716,3.811-1.633,4.677-8.12,8.186-8.81a5.213,5.213,0,0,1,1.709.1,7.165,7.165,0,0,0,1.179.14c8.231-.11,13.288-4.448,19.106-8.2a6.674,6.674,0,0,0,2.721-4.538c1.552-18.675,12.3-28.252,24.725-36.158a9.525,9.525,0,0,0,3.364-4.446,18.777,18.777,0,0,1,2.071-4.518c1.906-2.851,7.491-7.386,10.832-8.334,1.327-.374,2.9-.088,4.335-.476,2.555-.694,5.047-2.417,7.7-3.094,4.017-1.031,8.271-1.615,12.287-2.691a12.162,12.162,0,0,0,4.932-3.058c1.513-1.665,3.018-3.408,4.681-5.2,1.857-2,5.581-5.181,6.744-7.384,1.022-1.933,1.206-4.252,1.663-6.637.307-1.621-.526-2.411-1.962-1.585-3.744,2.151-6.584,5.185-10.79,6.879a9.483,9.483,0,0,0-4.313,3.48,38.258,38.258,0,0,1-2.614,4.186c-.985,1.325-3.332,2.359-4.863,3-2.529,1.041-5.16,2.851-7.693,3.3a17.039,17.039,0,0,1-10.286-1.561,3.374,3.374,0,0,1-1.723-4.1c1.426-4.152,2.759-8.388,4.236-12.5a5.367,5.367,0,0,1,4-3.272c5.8-.582,13.064.3,17.619-1.511,1.537-.608,2.9-2.863,3.206-4.478.144-.734.263-1.485.378-2.243.239-1.635-.4-4.07-1.825-4.918l-.326-.192c-1.424-.84-.991-2.277.621-2.669,3.406-.834,6.777-1.483,9.859-3.272,3.623-2.111,6.9-4.45,10.826-6.185,7.594-3.376,17.259-5.935,21.9-11.908.558-.718.981-1.685,1.517-2.493.892-1.341,2.049-.24,2.053,1.4l.008.082a2.228,2.228,0,0,0,3.067,2.023c.835-.32,1.671-.662,2.5-1.017.793-.34,1.649-.61,2.48-.93,1.359-.52,1.289-2.055.166-3.27a16.808,16.808,0,0,1-2.429-3.306,3.244,3.244,0,0,0-3.955-1.585c-2.68.922-5.994,1.563-8.4.676-1.554-.578-1.487-2.9-.961-4.462a10.108,10.108,0,0,1,1.782-3.794c1.491-1.631,5.11-2.135,7.7-2.851a48.987,48.987,0,0,0,7.942-2.621c4.153-2.079,7-5.359,10.614-6.99a29.968,29.968,0,0,0,4.622-2.951c1.236-.91,1.036-1.841-.591-2.167a62.93,62.93,0,0,0-12.283-1.107c-9.985,0-20.192,1.781-29.457,2.881m-27.9-4.194c-.318.288.378.748.688.33.212-.28-.034-.462-.314-.462a.564.564,0,0,0-.374.132m105.4,1.077c-1.643.264-1.81,1.033-.21,1.467,3.71.995,8.65,1,12.869,1.741a34.627,34.627,0,0,1,8.193,2.379c1.515.686,1.471,2.183-.17,2.421a26.844,26.844,0,0,1-5.708-.062,33.468,33.468,0,0,0-4.924-.152,2.123,2.123,0,0,0-1.645,3.33,9.192,9.192,0,0,0,5.838,3.174c1.632.312,3.344-.162,3.148-.846s1.4-.776,3.054-.814c4.25-.112,6.673-3.2,9.756-5.235a34.9,34.9,0,0,0,3.676-2.813c.74-.682-.18-1.475-1.816-1.761-6.59-1.133-12.677-3.9-19.4-4.374q-.7-.048-1.4-.048c-3.793,0-7.555,1.013-11.259,1.595M149.15,29.351a18.2,18.2,0,0,0-4.329,1.681c-1.424.854-.831,1.833.815,1.619,1.95-.25,3.839-.57,5.059-1.543,1.1-.872.37-1.857-.852-1.857a2.5,2.5,0,0,0-.694.1m38.879-1.215c-5.583.07-10.058-.2-14.326,1.117-2.648.826-5.642,2.749-9.3,2.785a4.835,4.835,0,0,1-3.9-1.977c-.437-.912-2.4-.61-3.793.286a45.755,45.755,0,0,1-5.864,3.43c-2.2,1-4.717,1.567-6.793,2.7-1.456.788-1.056,2.409.585,2.175,1.618-.224,3.267-.894,5-.824,2.233.088,4.226,1.525,6.5,1.665,3.536.22,6.5-.946,9.637-1.989,1.576-.526,1.936-1.3.641-1.337s-.767-1.031.894-.984c2.059.06,4.005.422,5.678-.212a4.516,4.516,0,0,0,2.053-1.9c.892-1.293,3.2-1.229,4.738-.606a12.393,12.393,0,0,0,7.389.976,5.14,5.14,0,0,0,3.208-3.37c.275-1.121-.657-1.929-2.28-1.929h-.065m166.193-.08c.908.554,1.814,1.139,2.725,1.619,1.208.638,1.469.55.744.022-1.477-.83-2.963-1.653-4.458-2.455-.028.094.289.384.989.814M158.71,24.125a6.918,6.918,0,0,0-1.137.5c-1.452.786-.87,1.633.779,1.439a11.119,11.119,0,0,0,1.46-.252c1.4-.372.714-1.783-.524-1.783a1.816,1.816,0,0,0-.579.1m15.018,1.113a3.825,3.825,0,0,1-3.423-.3,6.144,6.144,0,0,0-3.9-.36c-1.61.348-.821,2.291.815,2.6a23.426,23.426,0,0,0,9.845-.446c1.616-.386,2.822-2.793,1.163-2.863-.028,0-.057,0-.085,0-1.208,0-2.842.774-4.42,1.375m9.969-.378a7.843,7.843,0,0,0,3.508.428c1.657-.13,1.7-1.475.142-2.035a14.146,14.146,0,0,0-2.223-.6,2.014,2.014,0,0,0-.344-.03c-1.463,0-2.5,1.655-1.082,2.241m-7.232-4.14c-1.454.612-.358,1.9,1.127,1.675,1.295-.2.581-1.789-.585-1.789a1.376,1.376,0,0,0-.542.114m-8.371-.98a19.016,19.016,0,0,0-2.1.292c-1.62.362-1.036,1.785.6,1.549a8.3,8.3,0,0,0,2.067-.57c1.38-.6,1.149-1.295-.136-1.295a4.245,4.245,0,0,0-.433.024m-7-7.072a31.09,31.09,0,0,0-7.276,2.485c-1.513.68-1.463.77.162.446,2.585-.524,5.528-.794,7.663-1.593,1.371-.51,1.167-1.391-.016-1.391a2.929,2.929,0,0,0-.532.052m35.131-9.355a109.759,109.759,0,0,0-19.385,4.156c-1.6.46-1.539.76.1.542,3.322-.438,7.088-1.2,11.091-1.493,1.655-.126,2.193.344,2.577,1.021a3.192,3.192,0,0,0,3.615,1.073A5.881,5.881,0,0,0,195.71,7.6a5.877,5.877,0,0,0,1.584-2.647,3.116,3.116,0,0,1,.864-1.255c.394-.3.071-.462-.763-.462a11.607,11.607,0,0,0-1.173.072m56.435-2.157c-1.115.186-2.247,1.535-3.372,1.909-2.294.754-4.936.558-7.671.362a37.612,37.612,0,0,0-5.33-.126,38.985,38.985,0,0,0-7.434,1.387c-1.61.426-1.58.984.067,1.181a81.107,81.107,0,0,0,14.831.294c4.9-.326,9.716-2.251,13.964-2.145,4.363.106,8.6,1.915,12.9,2.727,1.626.308,3.637.518,4.052-.022s2.431-.144,4.044.27c4.782,1.223,9.659,3.546,14.625,4.168a19.346,19.346,0,0,0,4.936-.232,19.291,19.291,0,0,1,4.691-.248c4.23.488,8.142,2.625,12.277,3.1a18.582,18.582,0,0,0,2.393.072,19.584,19.584,0,0,1,1.972.034c1.651.136,3.255.54,2.953.43s-1.738-.744-3.226-1.477a57.724,57.724,0,0,0-5.611-2.389Q308.12,8.636,302.4,7.1q-2.782-.648-5.694-1.185c-7.93-1.447-16.391-3.586-23.829-3.808a26.536,26.536,0,0,0-3.532.24,27.748,27.748,0,0,1-3.932.234c-2.452-.08-5.419-.51-7.942-.708-1.541-.13-2.917-.766-4.232-.766a3.506,3.506,0,0,0-.579.046" transform="translate(0 -1.109)" fill="none"/>
    </clipPath>
    <radialGradient id="radial-gradient-2" cx="0.526" cy="0.778" r="0.593" gradientUnits="objectBoundingBox">
      <stop offset="0" stop-color="#d9d9d9"/>
      <stop offset="1" stop-color="#c9c9c9"/>
    </radialGradient>
    <clipPath id="clip-path-3">
      <path id="패스_5928" data-name="패스 5928" d="M337.849,458.461c-2.365.592-4.545,2.167-7.133,2.539-1.643.242-2.783-.784-2.122-1.209s-.666-.378-2.2.266a26.494,26.494,0,0,1-6.014,1.951c-1.636.278-2.852-.024-2.644-.366.142-.22.164-.386-.348-.33-7.039.712-13.076,3.334-19.632,4.242-1.645.232-3.8-.92-5.395-1.393a21.885,21.885,0,0,0-5.891-.468c-1,0-2,.008-2.941-.038-1.661-.084-3.39-.792-3.661-1.419s-2.092-1.125-3.75-1.079a50.568,50.568,0,0,0-8.793,1.347c-3.779.8-7.992,1.351-11.314,2.383-1.6.494-2.727,1.559-4.331,1.667-1.916.126-2.86-.97-4.335-1.191-4.58-.692-8.965,1.713-13.962,1.9a35.677,35.677,0,0,1-6.4-.52,28.037,28.037,0,0,0-7.319-.43c-.837.1-1.543.6-2.409.712a39.891,39.891,0,0,1-8.059-.086,47.473,47.473,0,0,0-7.828-.154c-1.452.136-3.026.416-4.693.524a13.431,13.431,0,0,0-4.792,1.5c-1.175.61-2.021,1.131-1.511,1.695s.437,1.349,1.738,1.871.947,1.295-.716,1.289c-5.7-.03-11.348-2.353-16.664-3.512-1.624-.356-1.679-.112-.081.356a249.527,249.527,0,0,0,47.183,8.656c1.386.116,2.79.26,4.2.414,4.614.262,9.267.412,13.958.412,4.65,0,9.267-.144,13.856-.408q.962-.1,1.924-.18a268.684,268.684,0,0,0,43.325-7.146c12.906-3.42,26.9-7.72,37.783-13.095.105-.054,1.9-.814,1.5-.814a2.91,2.91,0,0,0-.534.1m106.628-94.288c-5.4,8.975-11.16,17.447-16.972,25.615a240.06,240.06,0,0,0,29.171-46.5c-3.831,7.172-8.108,14.069-12.2,20.88M313.69,315.255l-.154.586a30.165,30.165,0,0,1-13.824,12.924,9.718,9.718,0,0,0-4.2,3.744c-2.967,6.021-4.7,13.265-5.371,21.549a4.356,4.356,0,0,0,2.613,4.046c1.04.444,2.079.89,3.192,1.277a4.9,4.9,0,0,0,4.891-1.493c4.829-6.171,8.195-15.774,11.735-23.242,1.378-2.9,4.381-5.711,5.053-8.094.906-3.22-.174-6.409-1.679-8.967-.755-1.279-1.827-2.371-2.173-2.371a.093.093,0,0,0-.085.04m154.292-20.262a7.245,7.245,0,0,0,1.121,3.1,1.692,1.692,0,0,0,3.048-1.057,5.59,5.59,0,0,0-1.473-3.66,1.453,1.453,0,0,0-1.064-.488,1.8,1.8,0,0,0-1.632,2.107m6.133-16.648c.053,1.649.255,2.637.518,2.359s.726.53.943,1.285c.127.426.455.34.761-.1a240.737,240.737,0,0,0,3.538-34.645c-1.454,10.585-6.139,19.5-5.759,31.1M39.739,372.31a283.481,283.481,0,0,0,22.447,28.68,27.637,27.637,0,0,0,2.27,2.335,17.9,17.9,0,0,0-1.885-2.247c-7.614-8.2-15.014-20.318-20.538-31.192-2.231-4.384-7.155-10.817-5.559-16,.479-1.575,1.086-3.848.69-5.443-1.163-4.68-1.883-9.267-3.552-14.035-1.833-5.219-4.636-10.625-5.061-16.424-.591-8.26,1.995-16.494-.718-23.81-.86-2.317-3.277-4.264-5.053-6.9-1.5-2.239-3.119-6.047-5.053-6.909-.643-.282-2.353-.132-3.129-.472-1.535-.672-2.719-3.023-3.858-4.764-1.311-2.015-3.184-3.608-3.845-5-1.507-3.162-1.936-7.792-2.891-11.67s-1.649-8.044-2.713-11.292a34.209,34.209,0,0,1-1.276-5.043A238.834,238.834,0,0,0,39.739,372.31M423.781,234.6a19.515,19.515,0,0,0,.087,6.141c.21,1.631,1.784,2.521,2.745,1.183a7.931,7.931,0,0,0,.186-8.016,1.527,1.527,0,0,0-1.339-.842,1.778,1.778,0,0,0-1.679,1.535M180.741,126.46a1.537,1.537,0,0,0,.441,2.957c1.517-.046,3.311-2.683,1.705-3.1a3.066,3.066,0,0,0-.759-.09,4.459,4.459,0,0,0-1.388.234M132.474,74.532a12.693,12.693,0,0,0-7.839,5.507,1.621,1.621,0,0,0,1.748,2.553c.326-.056.655-.118.991-.174a12.465,12.465,0,0,0,5.017-2.319c1.378-1.113,2.951-2.161,3.53-3.4.595-1.265-1.149-2.269-2.672-2.269a2.863,2.863,0,0,0-.775.1M48.154,95.762c-.471.894-.075.979.888-.052,3.164-3.372,5.373-7.728,8.4-11.3,3.036-3.592,6.453-6.821,9.259-10.241a7.5,7.5,0,0,0,.609-.826A242.488,242.488,0,0,0,48.154,95.762m96.368-29.4c-.688.584-1.335,1.207-1.966,1.847a5.77,5.77,0,0,0-1.068,4.94,9.917,9.917,0,0,1-.528,6.025c-.959,1.993-3.785,3.16-5.379,4.93-1.1,1.235.22,2.781,1.883,2.759a43.858,43.858,0,0,0,11.31-1.545,3.756,3.756,0,0,0,2.377-4.094c-.833-3.792-2.551-7.272-1.418-10.491.548-1.555.981-3.7-.324-4.59a4.179,4.179,0,0,0-2.286-.622,4.1,4.1,0,0,0-2.6.84m-8.251-20.242c-1.778.194-3.305.632-5.063.84a6.924,6.924,0,0,1-2.073-.226c-1.242-.254-2.472-.51-3.077.334a4.632,4.632,0,0,0-.4.666c-.757,1.457.7,3.3,2.357,3.466,3.5.34,7.723-.376,9.888-2.527,1.113-1.1.131-2.567-1.374-2.567-.085,0-.17.006-.259.014M304.63,24.408c-7.048,1.085-15.092,1.181-17.263,7.088-.562,1.543.724,3.348,2.332,3.772a18.064,18.064,0,0,0,2.781.53c1.649.178,2.83-1.129,1.887-2.191a2.989,2.989,0,0,1-.079-3.718,5.329,5.329,0,0,1,1.679-1.431c2.063-1.089,5.065-.872,7.276-1.595,1.576-.508,2.253-2.029,1.984-2.271a.732.732,0,0,0-.53-.186c-.022,0-.044,0-.069,0m-93.059-4.216c-1.647.2-2.112,1.447-.787,2.441.378.29.777.562,1.189.826a7.062,7.062,0,0,0,5.413.278,15.36,15.36,0,0,1,7.09-1,4.988,4.988,0,0,1,1.541.608c.817.424,1.414-.312.981-1.045s.989-1.477,2.652-1.447c.461.008.908.006,1.331-.026,1.655-.128,1.062-1.517-.607-1.569-1.03-.034-2.084-.05-3.154-.05a131.479,131.479,0,0,0-15.651.978m46.608,299.3A16.9,16.9,0,0,1,254.793,310c-.1-1.639,1.463-2.831,2.7-1.737,2.262,2.019,3.146,6.121,3.063,10.321-.02,1.021-.532,1.619-1.165,1.619a1.632,1.632,0,0,1-1.212-.708m-17.425-21.253a14.714,14.714,0,0,1-4.8-9.437c-.214-1.627.8-2.017,1.715-.646a55.781,55.781,0,0,1,4.345,9.019c.427.99.291,1.6-.206,1.6a1.838,1.838,0,0,1-1.054-.538m7.183-22.481c.042-1.163.247-2.337.358-3.616.146-1.637,1.27-3.794,2.913-3.538,1.661.262,2.933,1.577,3.953,3.032a2.609,2.609,0,0,1-1.145,3.8c-1.05.59-2.029,1.247-3.052,1.865a2.366,2.366,0,0,1-1.22.356,1.751,1.751,0,0,1-1.806-1.9M317.4,131.64c-1.272-.412-2.512-.858-3.728-1.327a5.58,5.58,0,0,1-3-4.106c-.71-4.252-3.087-7.454-5.8-11.08-2.175-2.917-6.54-7.152-5.294-11.67a3.42,3.42,0,0,1,1.829-1.977,3.748,3.748,0,0,1,4.388.516,79.384,79.384,0,0,0,8.882,7.15,10.527,10.527,0,0,1,3.006,4.6c1.827,4.91,7.7,9.581,7.41,13.515-.119,1.657-1.3,2.479-2.549,3.314a7.523,7.523,0,0,1-3.91,1.241,4.061,4.061,0,0,1-1.234-.178m97.667-50.766c-.477-.934-.937-1.881-1.44-2.787-.8-1.445-.548-1.681.427-.346a16.155,16.155,0,0,1,1.657,2.869c.358.814.362,1.253.17,1.253-.164,0-.467-.316-.813-.989M241.96,58.81c-.253-1.109.888-1.6,2.478-1.119l.479.15c1.582.5,1.489,1.723.051,2.263a2.74,2.74,0,0,1-.969.182,2.018,2.018,0,0,1-2.039-1.477m12.43-2.065c-.694-.9-1.133-1.917-.753-1.877s.839.826,1.442,1.611c.352.462.289.786.034.786-.174,0-.439-.152-.724-.52m79.556-14.157c-1.618-.428-2.719-1.9-3.825-3.254-1.042-1.281-.916-1.519.647-.97a20.232,20.232,0,0,1,4.068,1.771,1.315,1.315,0,0,1-.461,2.513,1.677,1.677,0,0,1-.429-.06m-10.385-23.22c3.241,1.827,8.021,2.425,12.329,3.364a9.192,9.192,0,0,1,3.423,1.609c.463.366-.542,1.027-1.622.56s-1.592-.24-1.224.214-.455,1.069-1.214,1.279a1.571,1.571,0,0,0-.568,2.287c.585.688-.318,1.717-1.082,1.969s-.032,1.657,1.43,2.173,1.26.806-.392.63c-5.035-.538-10.656.01-14.975-1.215-1.6-.45-3.129.16-2.949,1.8a7.1,7.1,0,0,0,2.648,4.854c1.276,1.047,1.238,1.487-.4,1.2-3.823-.666-7.272-2.273-11.209-1.631-1.4.234-2.429,1.6-3.847,1.9a19.116,19.116,0,0,1-5.929-.052,24.369,24.369,0,0,0-5.389-.182c-3.86.452-7.019,2.978-10.108,2.855a10.562,10.562,0,0,1-3.837-1.239c-1.521-.66-3.406.094-3.538,1.183s-1.709,1.823-3.3,2.291c-3.678,1.095-5.621,4.386-9.728,4.286-1.661-.036-3.228-.05-3.04.62s-1.26,1.2-2.893.886a8.241,8.241,0,0,1-5.106-2.745c-1.034-1.283.032-2.939,1.7-2.955,1.28-.012,2.632.078,3.973.168a24.229,24.229,0,0,0,6.807-.136c1.608-.394,1.458-2.121-.059-2.787-5.3-2.345-12.095-3.218-19.134-3.842a25.977,25.977,0,0,1-5.628-1.677c-5.7-2.119-14.026-.316-20.475.71-4.721.756-8.862.92-11.33,2.525A43.3,43.3,0,0,1,202.12,43.4c-3.52,1.585-6.293,4.58-10.379,6.727-4.218,2.209-12.406,2.531-15.643,5.471-1.185,1.079-1.711,2.763-2.239,4.39-.512,1.571-.429,4.04,1.115,4.64,2.379.916,5.8.39,8.47-.488a3.352,3.352,0,0,1,4.074,1.517c1.491,2.865,3.441,5.6,6.633,5.655,2.114.036,5.1-1.983,6.979-3.334a19.916,19.916,0,0,0,3.2-2.9c1.1-1.227,1.173-3.612,1.382-5.241.257-1.947,1.685-3.426,3.079-4.856a18.166,18.166,0,0,1,4.766-3.334c2.575-1.129,4.928-2.481,7.444-3.67a6.859,6.859,0,0,1,4.938-.192c1.216.52.548,1.557-.941,2.289-.514.258-1.009.538-1.527.8a15.323,15.323,0,0,0-4.353,3.472,50.591,50.591,0,0,1-4.282,3.964c-1.2,1.143-.6,2.655,1.046,2.8,5.571.46,11.68-1.359,16.779-1.455a18.537,18.537,0,0,1,1.936-.1c1.07.072.334,1.877-1.278,2.291-2.622.674-5.992.612-8.834,1.075-1.645.26-3.125,1.623-2.433,1.991s-.075,1.095-1.489,1.969c-4.808,2.972-8.83,8.947-14.619,9.677-1.814.236-3.443-.334-5.294-.474a49.945,49.945,0,0,0-7.58.24,59.935,59.935,0,0,1-7.238.282,3.872,3.872,0,0,1-3.413-3.23,18.924,18.924,0,0,1-.2-2.439c-.006-1.647-1.08-2.739-2.191-1.513-.922,1.021-1.513,2.4-2.484,3.566-6.083,7.334-19.868,9.255-27.919,14.759-3.168,2.169-5.98,4.18-9.392,5-1.855.45-3.8.538-5.427,1.059-1.582.5-1.489,2.419-.069,3.282l.465.286c1.4.892,1.691,3.3,1.475,4.928-.083.618-.152,1.255-.241,1.871a6.03,6.03,0,0,1-3.415,4.25c-4.713,1.573-11.8.556-17.524,1.323a5.415,5.415,0,0,0-3.843,3.458c-1.444,4.37-3.059,8.574-4.349,13.095a3.656,3.656,0,0,0,1.908,4.23,22.648,22.648,0,0,0,7.8,1.533,15.179,15.179,0,0,0,5.7-1.349,46.656,46.656,0,0,1,5-1.923,10.8,10.8,0,0,0,4.8-3.11c.949-1.311,1.8-2.727,2.628-4.158a10.1,10.1,0,0,1,4.359-3.454c5.294-2.247,9.06-7.414,14.7-9.131a49.346,49.346,0,0,1,14.562-1.955c1.665-.006,4.183.774,5.148,2.113,1.335,1.857,2.138,4.114,4.121,5.551,1.839,1.345,4.181,1.655,6.338,2.531a4.38,4.38,0,0,1,2.326,4.472c-.152.688-.322,1.363-.4,1.987-.21,1.629,2.126,2.087,3.311.938a7.139,7.139,0,0,0,1.61-2.259c.663-1.509,3.33-3.164,2.417-4.534-.653-.989-3.168-2.105-4.768-2.891-4.2-2.051-9.52-4.53-9.014-9.535a3.132,3.132,0,0,1,3.793-2.365,25.877,25.877,0,0,1,9.309,4.993c3.305,2.559,7.361,4.892,9.869,8.1,2.632,3.352,3.514,8.568,7.155,11.144a2.541,2.541,0,0,0,3.777-1.527c.813-3.35,1.228-7.864,4.236-8.424a8.571,8.571,0,0,1,4.725.938,8.441,8.441,0,0,0,4.42.964c1.2-.2,3.556-2.413,4.09-3.81.37-.958.03-1.831.239-2.853,1.252-6.169,6.149-8.314,10.525-11.82,1.293-1.035,3.607-1.6,5.185-2.117.979-.322,1.954-.826,3.02-1.219,1.558-.574,2.247.316,1.39,1.395s-.081,2.557,1.527,2.976c.7.184,1.4.364,2.075.566a4.971,4.971,0,0,0,4.663-.774c1.074-1.051,1.056-2.653.176-3.224s-.542-1.207.445-.994,2.057,1.549,2.862,2.988c3.4,6.147,12.192,6.972,16.448,12.28a2.159,2.159,0,0,1-1.361,3.444c-6.748,1.615-15.521.932-21.954-.892a11.738,11.738,0,0,0-5.662.118c-1.756.524-3.758.964-5.856,1.557-2.907.822-6.453,2.8-8.67,2.619a3.9,3.9,0,0,1-2.355-1.287,3.161,3.161,0,0,0-4.4.432c-1.8,2.691-.765,6.207,1.224,8.708,1.463,1.837,5.306,5.129,7.468,5.481,2.668.428,8.2-1.461,12.995-1.665,5.118-.226,11,.334,11.55,4.042.362,2.427-1.9,7.484-3.366,9.767s-4.648,5.863-6.985,6.187c-1.214.174-1.934-.386-2.883-.474a51.917,51.917,0,0,0-9.843.332c-3.688.368-7.24.734-10.62.142-5.9-1.027-9.631-4.79-15.887-5.479-4.655-.506-7.616,1.333-10.492,3.17-3.083,1.973-6.066,3.944-10.931,3.026-2.783-.526-4.406-3-6.736-4.052-4.665-2.091-19.219-2.529-19.735-7.378-.21-1.933,1.46-3.56,2.593-5.333.894-1.387-.334-2.8-1.988-2.873-8.783-.408-16.9-1.381-24.677-.132-5.583.906-11.178,3.616-16.606,4.526-4.907.834-7.81,2.7-11.939,3.48a20.791,20.791,0,0,0-5.636,1.743c-4.808,2.805-8.676,6.539-10.855,11.952a10.484,10.484,0,0,1-3.508,4.378c-11.882,7.43-23.558,18.916-24.628,36.07-.2,3.244.516,6.8-.241,10-.85,3.586-3.057,6.781-3.127,10.717a49.84,49.84,0,0,0,.518,6.315c.178,1.635,1.076,4,2.415,4.973,1.982,1.439,4.193,2.517,5.488,4.426,1.8,2.645,1.547,5.819,3.127,8.334,1.707,2.713,5.207,5.169,7.948,6.9,2.818,1.793,6.906,4.326,10.349,4.764,4.252.546,6.681-1.527,10.349-1.907a34.647,34.647,0,0,1,5.484.034,28.525,28.525,0,0,0,5.828-.034c5.278-.8,9.093-4.754,15.291-5.109a7.938,7.938,0,0,1,5.087,2.265c3.724,3.67,8.431,7.19,14.9,7.154,1.663,0,3.742.872,4.248,2.435a23.282,23.282,0,0,1-.2,13.439c-.528,1.555-.659,3.86.241,5.235,3.471,5.311,8.158,9.8,11.465,15.3a70.271,70.271,0,0,1,4.812,10.715c1.4,3.636,3.34,7.948,3.609,11.9.326,4.618-2.915,5.683-4.327,9.523a22.912,22.912,0,0,0-.965,10.715c1.216,8.574,10.9,13.217,13.476,20.953,1.422,4.264,1.032,7.428,2.65,10.475,4.145,7.812,11.575,12.262,14.445,21.4a5.21,5.21,0,0,0,3.663,3.5c5.441.8,11.674.082,16.792-.608,3.113-.418,6.5-.228,8.425-.951,2.179-.818,4.709-3.4,6.736-5a62.173,62.173,0,0,0,6.259-5.713c4.313-4.478,6.311-10.245,9.742-14.5a15.791,15.791,0,0,1,3.5-2.877,7.182,7.182,0,0,0,2.34-3.56,42.8,42.8,0,0,0,1.829-11.8,6.592,6.592,0,0,1,2.336-4.752A174.082,174.082,0,0,1,277.94,328.5a6.314,6.314,0,0,0,2.913-4.426c.813-12.286-3.4-22.271-2.9-34.788a12.527,12.527,0,0,1,1.8-5.489c13.3-19.754,38.667-27.56,46.048-53.167a3.655,3.655,0,0,0-1.908-4.27c-6.473-2.331-15.026,1.095-22.51,1.281-1.665.04-3.3-1.447-4.05-2.915-2.929-5.825-9.437-8.352-13.873-13.4-2.136-2.425-3.226-5.341-4.82-8.1-1.62-2.813-3.837-4.906-5.775-7.14-4.214-4.85-6.311-11.094-9.149-16.672-2.478-4.864-5.708-9.1-8.146-13.947-.742-1.475-.208-2.771,1.056-2.905a5.27,5.27,0,0,1,4,2.153c4.932,6.221,12.295,10.349,15.851,17.8,1.5,3.148,1.744,6.829,3.854,9.767,2.769,3.854,7.084,6.253,9.627,10.948,2.112,3.9,3.168,8.11,4.335,12.826a3.471,3.471,0,0,0,3.708,2.551c18.129-2.387,31.918-10.157,45.421-17.719a13.19,13.19,0,0,0,4.064-4.078c2.373-3.936,5.172-7.448,6.586-12.34a4.123,4.123,0,0,0-1.988-4.368c-5.943-3.286-14.461-7.532-21.446-4.928a3.392,3.392,0,0,1-4.129-1.2c-3.057-4.54-7.61-7.606-11.417-11.4a2.133,2.133,0,0,1,.657-3.548c.192-.1.386-.212.585-.314a5.124,5.124,0,0,1,5.217.49c2.349,2.159,4.274,5.313,7.4,6.411,2.834,1,6.077.638,8.911,1.665,2.2.794,4.013,2.405,6.016,3.1A52.971,52.971,0,0,0,355.9,172.5a105.661,105.661,0,0,0,15.772.146,9.4,9.4,0,0,1,5.395,1.665c7.268,5.751,13.383,12.646,20.9,18.145a10.278,10.278,0,0,1,3.269,4.576c3.876,12.868,10.155,23.35,13.838,36.4a3.13,3.13,0,0,0,3.7,2.287,13.185,13.185,0,0,0,1.762-.652,6.743,6.743,0,0,0,3.36-4.45,32.394,32.394,0,0,0-.127-5.493c-.241-4.628.941-9.2,1.183-14.169a10.177,10.177,0,0,1,2.061-5.157c2.806-3.44,4.434-7.374,7.347-12.1,1.857-3.014,6.3-8.642,9.867-8.1,1.086.166,2.755,2.469,3.856,3.814a42.793,42.793,0,0,1,7.739,15.908c.423,1.589,1.709,2.781,2.852,2.261s2.51.738,2.832,2.347c1.3,6.531,1.384,13.147,1.736,19.956.419,7.992,3.633,15.69,3.558,23.7-.014,1.641-1.444,2.389-2.533,1.147-.672-.768-1.236-1.637-1.849-2.457-.989-1.321-1.709-.86-1.335.738,2.527,10.779,3.538,23.062,5.48,34.423.283,1.617,1.442,1.923,2.207.468,2.077-3.928,2.943-9.643,2.417-14.683-.117-1.111-.684-2.285-.72-3.338-.109-3.076.688-5.767.477-8.808-.368-5.355-.5-11.088-1.683-15.95-1.173-4.8-3.744-8.784-4.094-13.573a40.359,40.359,0,0,1,.2-8.5c.218-1.631,1.91-2.515,2.947-1.233,1.991,2.469,2.2,6.705,3.392,9.977.56,1.547,1.616,1.273,2.328-.21a14.566,14.566,0,0,0,1.487-3.606c1.412-7.314-.152-14.441-1.685-19.76-1.064-3.684-3.255-7.37-3.609-10.954a36.363,36.363,0,0,1-.459-5.947c.131-1.635,1.634-1.365,1.831.272.111.924.182,1.883.3,2.8.208,1.631.959,1.553,1.022-.088.115-3.184-.192-6.819.026-10.045a12.277,12.277,0,0,1,.182-1.361A240.458,240.458,0,0,0,350.558,26.948c-.68-.316-1.347-.624-1.993-.91a19.678,19.678,0,0,1-3.222-1.723c-.3-.148-.6-.3-.908-.446-.251,0-.483.042-.6-.138-.194-.326-.623-.142-.979-.058a6.471,6.471,0,0,1-2.99-.608,101.867,101.867,0,0,0-15.681-4.981,3.377,3.377,0,0,0-.694-.082c-1.024,0-1.143.688.067,1.367m-42.417-.716c.9.21,1.78-.736.7-1.043a1.311,1.311,0,0,0-.356-.052c-.829,0-1.143.9-.342,1.095M160.454,13.7c-1.523.45-3.02.944-4.511,1.445a239.511,239.511,0,0,0-25.69,11.368c-2.692,1.433-5.312,2.889-7.826,4.326-12.343,7.07-24.5,15.25-33.81,24.738a13.3,13.3,0,0,0-2.336,3.962c-.4.946.694,1.063,2.061.124,5.32-3.662,10.3-7.866,15.79-10.964,2.338-1.319,5.041-1.551,7.946-2.617,3.279-1.215,6.758-3.6,11.073-4.526,3.827-.82,8.692-1.375,11.842-2.949,1.483-.746,3.771-1.891,5.158-2.8,1.341-.868,2.5-2.143,4.179-3.058,2.978-1.629,6.748-1.965,9.625-3.574,1.327-.738,2.118-2.4,3.374-3.1,1.113-.618,2.282-.96,3.261-1.469,1.479-.76,3.166-2.833,4.713-3.43,3.392-1.3,7.539-1.857,10.974-3.114,1.556-.572,1.38-1.615-.273-1.465-1.39.124-2.79.452-4.133.644-1.643.238-2.112-.172-1.111-.622s.846-1.049.15-1.317a9.117,9.117,0,0,0-3.6-1.141c-1.956-.064-3.572-.188-5.085-.138-1.663.044-1.831.06-.469-.482.488-.2.706-.318.556-.318a12.124,12.124,0,0,0-1.861.472M239.992,0A240.335,240.335,0,0,0,181,7.318c-4.733,1.233-9.3,2.607-13.636,4.15-1.566.558-1.535.642.051.156A154.445,154.445,0,0,1,190.448,6c1.643-.242,2.628.076,1.928.23s-.285.388.746.384a1.594,1.594,0,0,1,1.307,2.057,4.291,4.291,0,0,0-.279,1.451,2.892,2.892,0,0,0,.309,1.089c.235.58,1.278,1.059,2.937.958,6.57-.39,12.6-1.873,18.661-3.234,6.857-1.543,13.929-4.024,21.418-4.288,1.511-.052,3.125.03,4.735.112a42.312,42.312,0,0,0,5.816.042c1.653-.15,3.724-2.021,5.391-2.053,1.39-.018,3.04.562,4.517.706a114.064,114.064,0,0,0,13,.718c15.353-.318,31.558,5.091,44.244,8.136,1.058.254,1.432.262,1.139.094A239.688,239.688,0,0,0,239.992,0Z" transform="translate(-0.014)" fill="none"/>
    </clipPath>
    <radialGradient id="radial-gradient-3" cx="0.525" cy="0.299" r="0.543" gradientUnits="objectBoundingBox">
      <stop offset="0" stop-color="#eee"/>
      <stop offset="1" stop-color="#999"/>
    </radialGradient>
  </defs>
  <g id="base">
    <g id="그룹_1773" data-name="그룹 1773" clip-path="url(#clip-path)">
      <path id="패스_5929" data-name="패스 5929" d="M0,0,678.653,3.675l3.676,678.435L3.676,678.435Z" transform="matrix(0.728, -0.686, 0.686, 0.728, -242.192, 225.767)" fill="url(#radial-gradient)"/>
    </g>
  </g>
  <g id="그룹_1776" data-name="그룹 1776" transform="translate(0 2.219)">
    <g id="그룹_1775" data-name="그룹 1775" clip-path="url(#clip-path-2)">
      <path id="패스_5930" data-name="패스 5930" d="M0,0,673.8,3.641l3.641,673.088-673.8-3.641Z" transform="translate(-238.353 216.598) rotate(-42.572)" fill="url(#radial-gradient-2)"/>
    </g>
  </g>
  <g id="그룹_1778" data-name="그룹 1778" transform="translate(0.028)">
    <g id="그룹_1777" data-name="그룹 1777" clip-path="url(#clip-path-3)">
      <path id="패스_5931" data-name="패스 5931" d="M0,0,678.535,3.673l3.675,678.316L3.675,678.316Z" transform="matrix(0.728, -0.685, 0.685, 0.728, -242.163, 225.301)" fill="url(#radial-gradient-3)"/>
    </g>
  </g>
</svg>
