<svg xmlns="http://www.w3.org/2000/svg" xmlns:xlink="http://www.w3.org/1999/xlink" width="815.998" height="326.002" viewBox="0 0 815.998 326.002">
  <defs>
    <clipPath id="clip-path">
      <path id="mask" d="M2878,16563H2470v-326h816v326Z" transform="translate(-2238 -16154)" fill="none"/>
    </clipPath>
  </defs>
  <g id="img_logo_large" data-name="img/logo/large" transform="translate(-232 -82.998)" clip-path="url(#clip-path)">
    <g id="ci_logo_large" transform="translate(232 83)">
      <g id="그룹_3310" data-name="그룹 3310">
        <g id="그룹_3309" data-name="그룹 3309">
          <g id="그룹_3308" data-name="그룹 3308">
            <rect id="사각형_2503" data-name="사각형 2503" width="81.501" height="81.501" fill="#00a497"/>
            <g id="그룹_3307" data-name="그룹 3307" transform="translate(81.501 0.001)">
              <path id="패스_29297" data-name="패스 29297" d="M241.111,180.578l-81.5,81.5v163h81.5v-163h81.5v-81.5Z" transform="translate(-159.611 -180.578)" fill="#501d83"/>
              <path id="패스_29298" data-name="패스 29298" d="M385.773,243.739h-81.5v163h-81.5v80.044a142.672,142.672,0,0,0,163-141.1Z" transform="translate(-141.272 -162.239)" fill="#501d83"/>
            </g>
          </g>
        </g>
      </g>
      <g id="그룹_3313" data-name="그룹 3313" transform="translate(384.383 81.423)">
        <g id="그룹_3311" data-name="그룹 3311">
          <path id="패스_29299" data-name="패스 29299" d="M394.572,243.679h68.559v14.336H437.464v69.368H420.238V258.015H394.572Z" transform="translate(-394.572 -243.679)" fill="#501d83"/>
          <path id="패스_29300" data-name="패스 29300" d="M444.389,327.383l29.019-83.7H495.72l28.9,83.7H506.011l-6.3-19.307H469.419l-6.3,19.307Zm50.927-32.834-10.464-32.024h-.578l-10.462,32.024Z" transform="translate(-380.108 -243.679)" fill="#501d83"/>
          <path id="패스_29301" data-name="패스 29301" d="M513.917,243.679h56.188v14.336H531.259v20.349h35.956V292.7H531.259v20.347H570.22v14.336h-56.3Z" transform="translate(-359.92 -243.679)" fill="#501d83"/>
          <path id="패스_29302" data-name="패스 29302" d="M619.624,243.679v58.384c0,16.244-11.5,26.475-28.326,26.475-15.145,0-27-7.977-26.937-24.509H581.7c.115,6.647,4.161,10.52,10.4,10.52,6.648,0,10.29-4.277,10.29-12.487V243.679Z" transform="translate(-345.274 -243.679)" fill="#501d83"/>
          <path id="패스_29303" data-name="패스 29303" d="M614.446,327.383l29.019-83.7h22.314l28.9,83.7H676.068l-6.3-19.307H639.476l-6.3,19.307Zm50.928-32.834-10.462-32.024h-.578L643.87,294.548Z" transform="translate(-330.732 -243.679)" fill="#501d83"/>
          <path id="패스_29304" data-name="패스 29304" d="M683.974,243.679h56.188v14.336H701.316v20.349h35.955V292.7H701.316v20.347h38.962v14.336h-56.3Z" transform="translate(-310.544 -243.679)" fill="#501d83"/>
        </g>
        <g id="그룹_3312" data-name="그룹 3312" transform="translate(13.843 111.093)">
          <path id="패스_29305" data-name="패스 29305" d="M437.026,362.755c.035,5.914-4.143,10.161-10.552,10.2-6.337-.036-10.515-4.284-10.551-10.2V330.322H405.3v33.283c0,11.223,8.427,18.729,21.173,18.695,12.711.035,21.244-7.471,21.244-18.695V330.322H437.026Z" transform="translate(-405.3 -329.615)" fill="#501d83"/>
          <path id="패스_29306" data-name="패스 29306" d="M478.316,362.9h-.5l-22.377-32.574H446.1v51.269h10.622V349.017h.425l22.519,32.574h9.206V330.322H478.316Z" transform="translate(-393.455 -329.615)" fill="#501d83"/>
          <rect id="사각형_2504" data-name="사각형 2504" width="10.622" height="51.269" transform="translate(105.634 0.708)" fill="#501d83"/>
          <path id="패스_29307" data-name="패스 29307" d="M524.061,369.411h-.5L511.1,330.323h-11.9l17.774,51.269h13.667l17.7-51.269H536.6Z" transform="translate(-378.034 -329.615)" fill="#501d83"/>
          <path id="패스_29308" data-name="패스 29308" d="M551.729,360.347h22.023v-8.781H551.729V339.1h23.793v-8.781H541.107v51.269h34.486v-8.781H551.729Z" transform="translate(-365.869 -329.615)" fill="#501d83"/>
          <path id="패스_29309" data-name="패스 29309" d="M613.818,347.034c0-10.161-6.692-16.711-18.341-16.711h-20.11v51.268h10.621v-18.2H594.1l9.808,18.2h11.755l-10.906-19.933C610.6,359.143,613.818,354.045,613.818,347.034ZM593.5,354.753h-7.507v-15.72H593.5c6.3.035,9.382,2.832,9.347,8C602.877,352.169,599.8,354.753,593.5,354.753Z" transform="translate(-355.921 -329.615)" fill="#501d83"/>
          <path id="패스_29310" data-name="패스 29310" d="M634.833,352.08l-4.6-1.133c-4.426-.992-8.25-2.656-8.214-6.374.035-3.4,3.044-5.878,8.426-5.878,5.205,0,8.427,2.373,8.852,6.444h10.2c-.142-9.063-7.613-15.365-18.978-15.365-11.224,0-19.438,6.2-19.4,15.507,0,7.506,5.311,11.826,13.95,13.951l5.595,1.345c5.594,1.381,8.781,3.01,8.781,6.515,0,3.825-3.612,6.444-9.205,6.444-5.666,0-9.773-2.619-10.127-7.79h-10.34c.319,11.012,8.214,16.747,20.607,16.713,12.5.035,19.793-5.983,19.829-15.367C650.163,358.559,643.614,354.1,634.833,352.08Z" transform="translate(-345.934 -329.774)" fill="#501d83"/>
          <rect id="사각형_2505" data-name="사각형 2505" width="10.622" height="51.269" transform="translate(311.984 0.708)" fill="#501d83"/>
          <path id="패스_29311" data-name="패스 29311" d="M737.277,330.322l-11.755,22.094h-.5L713.2,330.322H659.578V339.1H675.3v42.488H685.85V339.1H701.57v-8.186l18.358,32.4v18.27H730.55v-18.27l18.7-33Z" transform="translate(-331.471 -329.615)" fill="#501d83"/>
        </g>
      </g>
    </g>
  </g>
</svg>
