<svg xmlns="http://www.w3.org/2000/svg" width="350" height="1150" viewBox="0 0 350 1150">
  <g id="img_history_mobile" data-name="img/history/mobile" transform="translate(-20 -922)">
    <rect id="base" width="350" height="1150" transform="translate(20 922)" fill="rgba(238,238,238,0.7)"/>
    <g id="items" transform="translate(-245 -3450)">
      <g id="item" transform="translate(4.999 868)">
        <g id="txt" transform="translate(84.002 -76)">
          <text id="More_Firsts_Await_We_Are_Prepared" data-name="More Firsts Await, We Are Prepared" transform="translate(284.001 4673)" fill="#1f1f1f" font-size="12" font-family="Poppins-Medium, Poppins" font-weight="500"><tspan x="0" y="13">More </tspan><tspan y="13" fill="#501d83" font-family="Poppins-MediumItalic, Poppins" font-style="italic">Firsts</tspan><tspan y="13" xml:space="preserve"> Await, We Are Prepared</tspan></text>
          <text id="From_2023_Onward" data-name="From 2023
Onward" transform="translate(284.001 4642)" fill="#1f1f1f" font-size="14" font-family="Poppins-SemiBold, Poppins" font-weight="600"><tspan x="0" y="0">From 2023</tspan><tspan x="0" y="18">Onward</tspan></text>
        </g>
        <g id="ico_60_history12" data-name="ico/60/history12" transform="translate(-34.997 1050)">
          <rect id="base-2" data-name="base" width="60" height="60" transform="translate(319 3501)" fill="none"/>
          <g id="icon" transform="translate(-3167.958 3078.893)">
            <g id="그룹_3165" data-name="그룹 3165" transform="translate(3486.956 423.314)">
              <g id="그룹_3162" data-name="그룹 3162" transform="translate(22.138 22.542)">
                <path id="패스_9835" data-name="패스 9835" d="M3574.815,522.688a7.258,7.258,0,0,1-2.513-14.067.707.707,0,0,1,.883.338.694.694,0,0,1-.307.937l-.012.006c-.023.011-.047.022-.071.031a5.858,5.858,0,1,0,7.52,7.526.7.7,0,1,1,1.314.484A7.283,7.283,0,0,1,3574.815,522.688Z" transform="translate(-3567.559 -508.574)" fill="#1f1f1f" stroke="#1f1f1f" stroke-width="0.3"/>
              </g>
              <g id="그룹_3163" data-name="그룹 3163" transform="translate(11.069 11.069)">
                <path id="패스_9836" data-name="패스 9836" d="M3545.583,503.457a18.328,18.328,0,1,1,7.825-34.9c.032.012.105.047.179.083a.706.706,0,0,1,.322.942.7.7,0,0,1-.933.319c-.05-.025-.087-.044-.126-.06a16.927,16.927,0,1,0,8.045,8.068c-.034-.08-.056-.122-.077-.166a.7.7,0,1,1,1.254-.625c.038.076.075.152.105.227a18.076,18.076,0,0,1,1.737,7.79A18.349,18.349,0,0,1,3545.583,503.457Z" transform="translate(-3527.258 -466.801)" fill="#1f1f1f" stroke="#1f1f1f" stroke-width="0.3"/>
              </g>
              <g id="그룹_3164" data-name="그룹 3164" transform="translate(0 0)">
                <path id="패스_9837" data-name="패스 9837" d="M3516.35,485.294a29.4,29.4,0,1,1,9.4-57.262.7.7,0,1,1-.447,1.327,27.956,27.956,0,1,0,17.589,17.589.7.7,0,0,1,1.328-.447,29.425,29.425,0,0,1-27.869,38.793Z" transform="translate(-3486.956 -426.501)" fill="#1f1f1f" stroke="#1f1f1f" stroke-width="0.3"/>
              </g>
            </g>
            <g id="그룹_3169" data-name="그룹 3169" transform="translate(3515.653 422.107)">
              <g id="그룹_3166" data-name="그룹 3166" transform="translate(0 7.471)">
                <path id="패스_9838" data-name="패스 9838" d="M3592.137,473.143a.7.7,0,0,1-.5-1.2l22.434-22.433a.7.7,0,1,1,.99.99l-22.433,22.433A.7.7,0,0,1,3592.137,473.143Z" transform="translate(-3591.437 -449.309)" fill="#1f1f1f" stroke="#1f1f1f" stroke-width="0.3"/>
              </g>
              <g id="그룹_3167" data-name="그룹 3167" transform="translate(12.193 0)">
                <path id="패스_9839" data-name="패스 9839" d="M3638.671,439.08a.7.7,0,0,1-.673-.508l-2.139-7.471a.7.7,0,0,1,.179-.688l8.1-8.1a.7.7,0,0,1,1.169.3l2.138,7.471a.7.7,0,0,1-.178.688l-8.1,8.1A.7.7,0,0,1,3638.671,439.08Z" transform="translate(-3635.832 -422.107)" fill="#501d83" stroke="#501d83" stroke-width="0.3"/>
              </g>
              <g id="그룹_3168" data-name="그룹 3168" transform="translate(14.332 7.471)">
                <path id="패스_9840" data-name="패스 9840" d="M3651.79,460.95a.7.7,0,0,1-.193-.027l-7.471-2.138a.7.7,0,0,1-.3-1.168l8.1-8.1a.7.7,0,0,1,.688-.178l7.471,2.138a.7.7,0,0,1,.3,1.168l-8.1,8.1A.7.7,0,0,1,3651.79,460.95Zm-6.135-3.185,5.931,1.7,6.969-6.968-5.931-1.7Z" transform="translate(-3643.619 -449.309)" fill="#1f1f1f" stroke="#1f1f1f" stroke-width="0.3"/>
              </g>
            </g>
          </g>
        </g>
      </g>
      <g id="item-2" data-name="item" transform="translate(9.001 783)">
        <g id="txt-2" data-name="txt" transform="translate(83.998 -76)">
          <text id="First_Taejae_Future_Education_Forum_Held" data-name="First Taejae Future Education Forum Held" transform="translate(280.001 4655)" fill="#501d83" font-size="12" font-family="Poppins-MediumItalic, Poppins" font-weight="500" font-style="italic"><tspan x="0" y="13">First</tspan><tspan y="13" xml:space="preserve" fill="#1f1f1f" font-family="Poppins-Medium, Poppins" font-style="normal"> Taejae Future Education Forum </tspan><tspan x="0" y="29" fill="#1f1f1f" font-family="Poppins-Medium, Poppins" font-style="normal">Held</tspan></text>
          <text id="_2023._10" data-name="2023. 10" transform="translate(280.001 4642)" fill="#1f1f1f" font-size="14" font-family="Poppins-SemiBold, Poppins" font-weight="600"><tspan x="0" y="0">2023. 10</tspan></text>
        </g>
        <g id="ico_60_history11" data-name="ico/60/history11" transform="translate(-39.001 1050)">
          <rect id="base-3" data-name="base" width="60" height="60" transform="translate(319 3501)" fill="none"/>
          <g id="icon-2" data-name="icon" transform="translate(-1452.481 2447.873)">
            <g id="그룹_3154" data-name="그룹 3154" transform="translate(1776.563 1054.127)">
              <g id="그룹_3152" data-name="그룹 3152" transform="translate(0 15.978)">
                <path id="패스_9828" data-name="패스 9828" d="M1814.474,1130.609a.612.612,0,0,1-.612-.612c0-4.438-5.192-8.049-11.573-8.049s-11.573,3.611-11.573,8.049a.612.612,0,1,1-1.224,0c0-5.113,5.741-9.273,12.8-9.273s12.8,4.16,12.8,9.273A.612.612,0,0,1,1814.474,1130.609Z" transform="translate(-1789.492 -1120.725)" fill="#1f1f1f" stroke="#1f1f1f" stroke-width="0.3"/>
              </g>
              <g id="그룹_3153" data-name="그룹 3153" transform="translate(6.479 0)">
                <path id="패스_9829" data-name="패스 9829" d="M1822.814,1066.763a6.318,6.318,0,1,1,6.318-6.318A6.325,6.325,0,0,1,1822.814,1066.763Zm0-11.413a5.095,5.095,0,1,0,5.095,5.095A5.1,5.1,0,0,0,1822.814,1055.351Z" transform="translate(-1816.496 -1054.127)" fill="#1f1f1f" stroke="#1f1f1f" stroke-width="0.3"/>
              </g>
            </g>
            <g id="그룹_3157" data-name="그룹 3157" transform="translate(1803.276 1054.127)">
              <g id="그룹_3155" data-name="그룹 3155" transform="translate(0 15.979)">
                <path id="패스_9830" data-name="패스 9830" d="M1922.892,1130.611a.612.612,0,0,1-.612-.612c0-4.436-5.191-8.046-11.571-8.046a14,14,0,0,0-8.874,2.895.612.612,0,1,1-.784-.939,15.235,15.235,0,0,1,9.657-3.179c7.055,0,12.8,4.158,12.8,9.27A.612.612,0,0,1,1922.892,1130.611Z" transform="translate(-1900.831 -1120.73)" fill="#1f1f1f" stroke="#1f1f1f" stroke-width="0.3"/>
              </g>
              <g id="그룹_3156" data-name="그룹 3156" transform="translate(3.559 0)">
                <path id="패스_9831" data-name="패스 9831" d="M1921.984,1066.763a6.318,6.318,0,1,1,6.318-6.318A6.325,6.325,0,0,1,1921.984,1066.763Z" transform="translate(-1915.665 -1054.127)" fill="#501d83" stroke="#501d83" stroke-width="0.3"/>
              </g>
            </g>
            <g id="그룹_3161" data-name="그룹 3161" transform="translate(1772.482 1082.741)">
              <g id="그룹_3158" data-name="그룹 3158" transform="translate(0 0)">
                <path id="패스_9832" data-name="패스 9832" d="M1801.257,1202.776A28.807,28.807,0,0,1,1772.482,1174a.612.612,0,0,1,.612-.612h56.325a.612.612,0,0,1,.612.612A28.807,28.807,0,0,1,1801.257,1202.776Zm-27.544-28.162a27.551,27.551,0,0,0,55.088,0Z" transform="translate(-1772.482 -1173.39)" fill="#1f1f1f" stroke="#1f1f1f" stroke-width="0.3"/>
              </g>
              <g id="그룹_3159" data-name="그룹 3159" transform="translate(16.73 0)">
                <path id="패스_9833" data-name="패스 9833" d="M1854.258,1202.776c-6.754,0-12.045-12.639-12.045-28.774a.612.612,0,1,1,1.224,0c0,14.934,4.955,27.551,10.821,27.551s10.821-12.617,10.821-27.551a.612.612,0,1,1,1.224,0C1866.3,1190.137,1861.012,1202.776,1854.258,1202.776Z" transform="translate(-1842.214 -1173.39)" fill="#1f1f1f" stroke="#1f1f1f" stroke-width="0.3"/>
              </g>
              <g id="그룹_3160" data-name="그룹 3160" transform="translate(6.037 11.071)">
                <path id="패스_9834" data-name="패스 9834" d="M1842.507,1227.112a.613.613,0,0,1-.334-.1,41.074,41.074,0,0,0-43.58,0,.612.612,0,0,1-.669-1.025,42.3,42.3,0,0,1,44.918,0,.612.612,0,0,1-.335,1.124Z" transform="translate(-1797.647 -1219.533)" fill="#1f1f1f" stroke="#1f1f1f" stroke-width="0.3"/>
              </g>
            </g>
          </g>
        </g>
      </g>
      <g id="item-3" data-name="item" transform="translate(-2.001 699)">
        <g id="txt-3" data-name="txt" transform="translate(84.001 -76)">
          <text id="First_Fall_Semester_Start_Off" data-name="First Fall Semester Start Off" transform="translate(291.001 4655)" fill="#501d83" font-size="12" font-family="Poppins-MediumItalic, Poppins" font-weight="500" font-style="italic"><tspan x="0" y="13">First </tspan><tspan y="13" fill="#1f1f1f" font-family="Poppins-Medium, Poppins" font-style="normal">Fall Semester Start Off</tspan></text>
          <text id="_2023._09" data-name="2023. 09" transform="translate(291.001 4642)" fill="#1f1f1f" font-size="14" font-family="Poppins-SemiBold, Poppins" font-weight="600"><tspan x="0" y="0">2023. 09</tspan></text>
        </g>
        <g id="ico_60_history10" data-name="ico/60/history10" transform="translate(-27.998 1050)">
          <rect id="base-4" data-name="base" width="60" height="60" transform="translate(319 3501)" fill="none"/>
          <g id="icon-3" data-name="icon" transform="translate(-3518.43 1803.687)">
            <g id="그룹_3145" data-name="그룹 3145" transform="translate(3837.885 1697.314)">
              <g id="그룹_3141" data-name="그룹 3141" transform="translate(5.527 39.711)">
                <path id="패스_9820" data-name="패스 9820" d="M3867.119,1862.464a3.451,3.451,0,0,1-.541-.043,3.4,3.4,0,0,1-2.809-3.89.654.654,0,0,1,.033-.125l4.046-11.067a.677.677,0,0,1,1.272.465l-4.023,11a2.039,2.039,0,0,0,4.034.592.656.656,0,0,1,.04-.145l3.787-9.442a.677.677,0,0,1,1.256.5l-3.76,9.375A3.4,3.4,0,0,1,3867.119,1862.464Z" transform="translate(-3863.726 -1846.895)" fill="#1f1f1f" stroke="#1f1f1f" stroke-width="0.3"/>
              </g>
              <g id="그룹_3142" data-name="그룹 3142" transform="translate(22.578 20.845)">
                <path id="패스_9821" data-name="패스 9821" d="M3930.984,1786.457a2.969,2.969,0,0,1-1.057-.19,7.16,7.16,0,0,1-1.573-.825.677.677,0,1,1,.878-1.031,6.541,6.541,0,0,0,1.175.59,1.92,1.92,0,0,0,1.934-.436,2.042,2.042,0,0,0,.157-2.88l-4.364-4.716a.677.677,0,1,1,.994-.919l4.372,4.724a3.412,3.412,0,0,1-2.516,5.684Z" transform="translate(-3927.955 -1775.831)" fill="#1f1f1f" stroke="#1f1f1f" stroke-width="0.3"/>
              </g>
              <g id="그룹_3143" data-name="그룹 3143" transform="translate(0 14.568)">
                <path id="패스_9822" data-name="패스 9822" d="M3869.093,1788.132a3.4,3.4,0,0,1-3.187-2.212.734.734,0,0,1-.028-.1l-1.248-5.912-8.554-4.165a4.5,4.5,0,0,1-.449-.22l-.126-.06a.673.673,0,0,1-.176-.123,4.807,4.807,0,0,1-2.211-4.009l-.089-9.856-1.452.4-2.056,6.043a3.394,3.394,0,1,1-6.425-2.192l2.528-7.432a3.374,3.374,0,0,1,1.253-1.673h0c.157-.1.974-.459,8.539-3.8a.666.666,0,0,1,.072-.027,4.806,4.806,0,0,1,2.293-.61h.044a4.843,4.843,0,0,1,4.837,4.793l.129,14.264c0,.071,0,.144,0,.219,5.633,2.748,6.347,3.1,6.488,3.181h0a3.368,3.368,0,0,1,1.3,1.641.731.731,0,0,1,.023.078l1.692,7.235a3.393,3.393,0,0,1-3.192,4.533Zm-1.9-2.641a2.041,2.041,0,0,0,3.81-1.463.55.55,0,0,1-.024-.081l-1.692-7.231a2.006,2.006,0,0,0-.732-.923c-.3-.153-2.755-1.351-6.785-3.317a.677.677,0,0,1-.374-.7,3.4,3.4,0,0,0,.039-.515l-.129-14.264a3.5,3.5,0,0,0-3.483-3.452h-.032a3.46,3.46,0,0,0-1.755.5.672.672,0,0,1-.225.086c-3.129,1.381-7.676,3.389-8.2,3.631a2,2,0,0,0-.7.967l-2.529,7.434a2.04,2.04,0,1,0,3.862,1.318l2.172-6.383a.676.676,0,0,1,.463-.435l2.646-.721a.677.677,0,0,1,.855.647l.1,10.733a3.47,3.47,0,0,0,1.688,2.945.611.611,0,0,1,.065.045l.03.014a3.9,3.9,0,0,0,.382.187l8.888,4.327a.678.678,0,0,1,.366.469Z" transform="translate(-3842.908 -1752.189)" fill="#1f1f1f" stroke="#1f1f1f" stroke-width="0.3"/>
              </g>
              <g id="그룹_3144" data-name="그룹 3144" transform="translate(10.348 0)">
                <path id="패스_9823" data-name="패스 9823" d="M3887.645,1708.858a5.772,5.772,0,1,1,5.734-6.527h0a5.772,5.772,0,0,1-4.968,6.477A5.879,5.879,0,0,1,3887.645,1708.858Zm.015-10.19a4.418,4.418,0,1,0,4.377,3.841h0A4.425,4.425,0,0,0,3887.66,1698.667Z" transform="translate(-3881.885 -1697.314)" fill="#1f1f1f" stroke="#1f1f1f" stroke-width="0.3"/>
              </g>
            </g>
            <g id="그룹_3151" data-name="그룹 3151" transform="translate(-66.043 -165.133)">
              <path id="패스_9827" data-name="패스 9827" d="M3904.094,1921.127h18.89v-5.181a.668.668,0,0,1,.677-.66h18.89v-5.181a.668.668,0,0,1,.677-.66H3962.8a.66.66,0,1,1,0,1.319H3943.9v5.181a.668.668,0,0,1-.676.66h-18.891v5.181a.668.668,0,0,1-.677.66h-18.891C3903.2,1922.446,3903.154,1921.127,3904.094,1921.127Z" transform="translate(0 0)" fill="#1f1f1f" stroke="#1f1f1f" stroke-width="0.3"/>
            </g>
            <g id="그룹_3149" data-name="그룹 3149" transform="translate(3878.001 1713.854)">
              <g id="그룹_3147" data-name="그룹 3147" transform="translate(15.382 0.71)">
                <path id="패스_9825" data-name="패스 9825" d="M4022.5,1785.765a.677.677,0,0,1-.677-.677V1759.2a.677.677,0,1,1,1.354,0v25.884A.677.677,0,0,1,4022.5,1785.765Z" transform="translate(-4021.827 -1758.527)" fill="#1f1f1f" stroke="#1f1f1f" stroke-width="0.3"/>
              </g>
              <g id="그룹_3148" data-name="그룹 3148" transform="translate(0 0)">
                <path id="패스_9826" data-name="패스 9826" d="M3967.808,1769.786a8.024,8.024,0,0,1-3.539-.776.677.677,0,0,1-.2-1.073,30.991,30.991,0,0,0,3.3-4.409,57.4,57.4,0,0,1-3.411-5.988.677.677,0,0,1,.9-.91c2.347,1.124,4.725.555,7.242-.048,2.635-.631,5.361-1.283,8.141.048a.677.677,0,0,1,.384.611v11.16a.677.677,0,0,1-.969.61c-2.347-1.124-4.724-.555-7.241.048A19.922,19.922,0,0,1,3967.808,1769.786Z" transform="translate(-3963.884 -1755.853)" fill="#501d83" stroke="#501d83" stroke-width="0.3"/>
              </g>
            </g>
          </g>
        </g>
      </g>
      <g id="item-4" data-name="item" transform="translate(7.997 614)">
        <g id="txt-4" data-name="txt" transform="translate(84 -76)">
          <text id="First_Taejae_Matriculation_Ceremony_Held" data-name="First Taejae Matriculation Ceremony Held" transform="translate(281.003 4655)" fill="#501d83" font-size="12" font-family="Poppins-MediumItalic, Poppins" font-weight="500" font-style="italic"><tspan x="0" y="13">First</tspan><tspan y="13" xml:space="preserve" fill="#1f1f1f" font-family="Poppins-Medium, Poppins" font-style="normal"> Taejae Matriculation </tspan><tspan x="0" y="29" fill="#1f1f1f" font-family="Poppins-Medium, Poppins" font-style="normal">Ceremony Held</tspan></text>
          <text id="_2023._08" data-name="2023. 08" transform="translate(281.003 4642)" fill="#1f1f1f" font-size="14" font-family="Poppins-SemiBold, Poppins" font-weight="600"><tspan x="0" y="0">2023. 08</tspan></text>
        </g>
        <g id="ico_60_history09" data-name="ico/60/history09" transform="translate(-37.997 1050)">
          <rect id="base-5" data-name="base" width="60" height="60" transform="translate(319 3501)" fill="none"/>
          <g id="icon-4" data-name="icon" transform="translate(-2836.008 2134.748)">
            <g id="그룹_3136" data-name="그룹 3136" transform="translate(3157.444 1385.502)">
              <g id="그룹_3131" data-name="그룹 3131" transform="translate(15.766 0)">
                <g id="그룹_3128" data-name="그룹 3128" transform="translate(14.651 4.442)">
                  <path id="패스_9811" data-name="패스 9811" d="M3280.5,1472.293a.634.634,0,0,1-.622-.509,8.1,8.1,0,0,1-.161-1.593,6.726,6.726,0,0,1,.6-2.812.635.635,0,0,1,.226-.265,11.757,11.757,0,0,0,4.849-8.109.634.634,0,0,1,1.254.192,13.071,13.071,0,0,1-5.245,8.867,5.5,5.5,0,0,0-.411,2.126,6.766,6.766,0,0,0,.137,1.343.634.634,0,0,1-.623.76Z" transform="translate(-3279.714 -1458.467)" fill="#1f1f1f" stroke="#1f1f1f" stroke-width="0.3"/>
                </g>
                <g id="그룹_3129" data-name="그룹 3129" transform="translate(3.089 12.983)">
                  <path id="패스_9812" data-name="패스 9812" d="M3233.874,1502.446a.634.634,0,0,1-.344-1.168,6.729,6.729,0,0,0,1.978-7.575.634.634,0,0,1,1.152-.53,7.4,7.4,0,0,1,.168,5.418,7.281,7.281,0,0,1-2.612,3.755A.632.632,0,0,1,3233.874,1502.446Z" transform="translate(-3233.239 -1492.803)" fill="#1f1f1f" stroke="#1f1f1f" stroke-width="0.3"/>
                </g>
                <g id="그룹_3130" data-name="그룹 3130">
                  <path id="패스_9813" data-name="패스 9813" d="M3231.135,1456.379h-.042c-5.311-.347-9.706-5.375-10.225-11.694v-.018c-.032-.38-.047-.78-.047-1.256a15.836,15.836,0,0,1,.162-2.254.634.634,0,0,1,1.256.181,14.547,14.547,0,0,0-.149,2.073c0,.445.014.815.044,1.163,0,.007,0,.015,0,.022.473,5.69,4.358,10.21,9.042,10.516a.634.634,0,0,1-.041,1.267Z" transform="translate(-3220.82 -1440.613)" fill="#1f1f1f" stroke="#1f1f1f" stroke-width="0.3"/>
                </g>
              </g>
              <g id="그룹_3135" data-name="그룹 3135" transform="translate(0 20.403)">
                <g id="그룹_3132" data-name="그룹 3132">
                  <path id="패스_9814" data-name="패스 9814" d="M3158.08,1541.976a.651.651,0,0,1-.1-.008.634.634,0,0,1-.527-.725l1.779-11.229a.752.752,0,0,1,.021-.088,10.484,10.484,0,0,1,2.893-4.63,9.368,9.368,0,0,1,4.727-2.341,23,23,0,0,1,7.167-.087,17.124,17.124,0,0,1,3.1.75,17.642,17.642,0,0,1,2.338.984.654.654,0,0,1,.069.04,8.445,8.445,0,0,1,1.974,2.794c.649,1.184,1.631,2.974,2.316,2.974,1.088,0,1.963-1.951,2.183-2.635a.634.634,0,0,1,1.208.387c-.115.36-1.189,3.516-3.391,3.516-1.436,0-2.449-1.846-3.429-3.632a9.219,9.219,0,0,0-1.547-2.335,16.545,16.545,0,0,0-2.132-.893,15.827,15.827,0,0,0-2.876-.7,21.686,21.686,0,0,0-6.77.082,8.1,8.1,0,0,0-4.083,2.026,9.2,9.2,0,0,0-2.525,4.026l-1.772,11.184A.634.634,0,0,1,3158.08,1541.976Z" transform="translate(-3157.444 -1522.629)" fill="#1f1f1f" stroke="#1f1f1f" stroke-width="0.3"/>
                </g>
                <g id="그룹_3133" data-name="그룹 3133" transform="translate(30.908)">
                  <path id="패스_9815" data-name="패스 9815" d="M3303.434,1541.976a.635.635,0,0,1-.626-.535l-1.772-11.184a9.2,9.2,0,0,0-2.527-4.028,8.1,8.1,0,0,0-4.082-2.023,21.675,21.675,0,0,0-6.766-.082,15.808,15.808,0,0,0-2.877.695,16.458,16.458,0,0,0-2.173.914.634.634,0,1,1-.576-1.13,17.667,17.667,0,0,1,2.339-.985,17.119,17.119,0,0,1,3.1-.75,22.973,22.973,0,0,1,7.163.087,9.361,9.361,0,0,1,4.725,2.339,10.481,10.481,0,0,1,2.9,4.632.638.638,0,0,1,.02.087l1.78,11.229a.634.634,0,0,1-.528.725A.645.645,0,0,1,3303.434,1541.976Z" transform="translate(-3281.688 -1522.629)" fill="#1f1f1f" stroke="#1f1f1f" stroke-width="0.3"/>
                </g>
                <g id="그룹_3134" data-name="그룹 3134" transform="translate(20.673 7.78)">
                  <path id="패스_9816" data-name="패스 9816" d="M3251.352,1565.471a.634.634,0,0,1-.623-.52c-1.057-5.757-2.891-9.778-4.46-9.778s-3.407,4.021-4.463,9.778a.634.634,0,0,1-1.248-.229c.6-3.253,2.348-10.818,5.711-10.818s5.111,7.565,5.708,10.818a.635.635,0,0,1-.625.749Z" transform="translate(-3240.547 -1553.904)" fill="#1f1f1f" stroke="#1f1f1f" stroke-width="0.3"/>
                </g>
              </g>
            </g>
            <g id="그룹_3140" data-name="그룹 3140" transform="translate(3168.001 1367.252)">
              <g id="그룹_3137" data-name="그룹 3137" transform="translate(4.495 9.313)">
                <path id="패스_9817" data-name="패스 9817" d="M3229.293,1415.726a70.768,70.768,0,0,1-9.153-.594,2.328,2.328,0,0,1-2.189-2.172v-7.638a.634.634,0,1,1,1.268,0v7.638c0,.44.467.833,1.085.914a69.474,69.474,0,0,0,17.977,0c.619-.081,1.085-.474,1.085-.914V1409.6a.634.634,0,1,1,1.269,0v3.358a2.328,2.328,0,0,1-2.189,2.172A70.746,70.746,0,0,1,3229.293,1415.726Z" transform="translate(-3217.951 -1404.687)" fill="#1f1f1f" stroke="#1f1f1f" stroke-width="0.3"/>
              </g>
              <g id="그룹_3138" data-name="그룹 3138" transform="translate(0.417)">
                <path id="패스_9818" data-name="패스 9818" d="M3216.976,1382.241a6.467,6.467,0,0,1-2.736-.595l-11.748-5.524a1.48,1.48,0,0,1,0-2.751l11.748-5.524a6.587,6.587,0,0,1,5.473,0l11.748,5.524a1.48,1.48,0,0,1,0,2.751l-6.117,2.876-3.949,1.857-1.682.791A6.47,6.47,0,0,1,3216.976,1382.241Z" transform="translate(-3201.557 -1367.252)" fill="#501d83" stroke="#501d83" stroke-width="0.3"/>
              </g>
              <g id="그룹_3139" data-name="그룹 3139" transform="translate(0 11.343)">
                <path id="패스_9819" data-name="패스 9819" d="M3200.515,1418.644a.634.634,0,0,1-.635-.634v-4.528a.635.635,0,0,1,1.269,0v4.528A.635.635,0,0,1,3200.515,1418.644Z" transform="translate(-3199.88 -1412.847)" fill="#1f1f1f" stroke="#1f1f1f" stroke-width="0.3"/>
              </g>
            </g>
          </g>
        </g>
      </g>
      <g id="item-5" data-name="item" transform="translate(20.997 529)">
        <g id="txt-5" data-name="txt" transform="translate(84 -76)">
          <text id="First_12-week_Intensive_Training_Course_for_Faculty_Conducted" data-name="First 12-week Intensive Training Course for Faculty Conducted" transform="translate(268.003 4655)" fill="#501d83" font-size="12" font-family="Poppins-MediumItalic, Poppins" font-weight="500" font-style="italic"><tspan x="0" y="13">First</tspan><tspan y="13" xml:space="preserve" fill="#1f1f1f" font-family="Poppins-Medium, Poppins" font-style="normal"> 12-week Intensive Training </tspan><tspan x="0" y="29" fill="#1f1f1f" font-family="Poppins-Medium, Poppins" font-style="normal">Course for Faculty Conducted</tspan></text>
          <text id="_2023._07" data-name="2023. 07" transform="translate(268.003 4642)" fill="#1f1f1f" font-size="14" font-family="Poppins-SemiBold, Poppins" font-weight="600"><tspan x="0" y="0">2023. 07</tspan></text>
        </g>
        <g id="ico_60_history08" data-name="ico/60/history08" transform="translate(-50.997 1050)">
          <rect id="base-6" data-name="base" width="60" height="60" transform="translate(319 3501)" fill="none"/>
          <g id="icon-5" data-name="icon" transform="translate(319.216 3506)">
            <rect id="box" width="46" height="24" transform="translate(11.786 2)" fill="none" stroke="#1f1f1f" stroke-linecap="round" stroke-linejoin="round" stroke-width="1.6"/>
            <path id="path" d="M16.57,17.606a7.195,7.195,0,1,1,7.195-7.194A7.2,7.2,0,0,1,16.57,17.606Z" transform="translate(-5.285 -4.217)" fill="#eee"/>
            <path id="path-2" data-name="path" d="M13.486,11.422A4.1,4.1,0,1,1,17.6,7.32,4.112,4.112,0,0,1,13.486,11.422Z" transform="translate(-2.202 -1.139)" fill="#eee" stroke="#1f1f1f" stroke-linecap="round" stroke-linejoin="round" stroke-width="1.6"/>
            <path id="path-3" data-name="path" d="M37.037,46.46a3.8,3.8,0,1,1,3.808-3.8A3.81,3.81,0,0,1,37.037,46.46Z" transform="translate(-6.418 -7.515)" fill="#501d83" stroke="#501d83" stroke-linecap="round" stroke-linejoin="round" stroke-width="1.6"/>
            <path id="path-4" data-name="path" d="M42.664,52.292H30.241A3.935,3.935,0,0,0,26.3,56.223v4.9" transform="translate(-5.085 -10.123)" fill="none" stroke="#1f1f1f" stroke-width="1.6"/>
            <path id="path-5" data-name="path" d="M60.3,46.46a3.8,3.8,0,1,1,3.808-3.8A3.81,3.81,0,0,1,60.3,46.46Z" transform="translate(-10.895 -7.515)" fill="#501d83" stroke="#501d83" stroke-linecap="round" stroke-linejoin="round" stroke-width="1.6"/>
            <path id="path-6" data-name="path" d="M68.348,61.122v-4.9a3.935,3.935,0,0,0-3.938-3.931H53.5a3.935,3.935,0,0,0-3.938,3.931v4.9" transform="translate(-9.562 -10.123)" fill="none" stroke="#1f1f1f" stroke-linecap="square" stroke-width="1.6"/>
            <line id="line" y2="4.375" transform="translate(41.758 16.764)" fill="none" stroke="#1f1f1f" stroke-linecap="round" stroke-linejoin="round" stroke-width="1.6"/>
            <line id="line-2" data-name="line" y2="8.241" transform="translate(46.747 12.898)" fill="none" stroke="#1f1f1f" stroke-linecap="round" stroke-linejoin="round" stroke-width="1.6"/>
            <line id="line-3" data-name="line" y2="12.106" transform="translate(51.736 9.033)" fill="none" stroke="#1f1f1f" stroke-linecap="round" stroke-linejoin="round" stroke-width="1.6"/>
            <path id="path-7" data-name="path" d="M24.972,63.249h0Z" transform="translate(-3.753 -12.25)" fill="none" stroke="#1f1f1f" stroke-linecap="round" stroke-linejoin="round" stroke-width="1.6"/>
            <path id="path-8" data-name="path" d="M15.846,54.258l2.343-32.926H31.236a2.2,2.2,0,1,0,0-4.4H5.149A4.467,4.467,0,0,0,1,21.52c0,.04,0,.111,0,.214l.883,12.417c.21,1.991,2.208,3.133,4.4,3.042l.033.031,1.2,17.034H1" transform="translate(-0.214 -3.26)" fill="#eee"/>
            <path id="path-9" data-name="path" d="M15.846,54.258l2.343-32.926H31.236a2.2,2.2,0,1,0,0-4.4H5.149A4.467,4.467,0,0,0,1,21.52c0,.04,0,.111,0,.214l.883,12.417c.21,1.991,2.208,3.133,4.4,3.042l.033.031,1.2,17.034H1" transform="translate(-0.214 -3.26)" fill="none" stroke="#1f1f1f" stroke-linecap="round" stroke-linejoin="round" stroke-width="1.6"/>
            <line id="line-4" data-name="line" x1="0.991" y1="14.029" transform="translate(5.113 19.934)" fill="none" stroke="#1f1f1f" stroke-linecap="round" stroke-linejoin="round" stroke-width="1.6"/>
          </g>
        </g>
      </g>
      <g id="item-6" data-name="item" transform="translate(-4.003 444)">
        <g id="txt-6" data-name="txt" transform="translate(84 -76)">
          <text id="First_Freshman_Class_Selection_Process_Begun" data-name="First Freshman Class Selection Process Begun" transform="translate(293.003 4655)" fill="#501d83" font-size="12" font-family="Poppins-MediumItalic, Poppins" font-weight="500" font-style="italic"><tspan x="0" y="13">First </tspan><tspan y="13" fill="#1f1f1f" font-family="Poppins-Medium, Poppins" font-style="normal">Freshman Class Selection </tspan><tspan x="0" y="29" fill="#1f1f1f" font-family="Poppins-Medium, Poppins" font-style="normal">Process Begun</tspan></text>
          <text id="_2023._06" data-name="2023. 06" transform="translate(293.003 4642)" fill="#1f1f1f" font-size="14" font-family="Poppins-SemiBold, Poppins" font-weight="600"><tspan x="0" y="0">2023. 06</tspan></text>
        </g>
        <g id="ico_60_history07" data-name="ico/60/history07" transform="translate(-25.997 1050)">
          <rect id="base-7" data-name="base" width="60" height="60" transform="translate(319 3501)" fill="none"/>
          <g id="icon-6" data-name="icon" transform="translate(-2154.421 1793.722)">
            <g id="그룹_3066" data-name="그룹 3066" transform="translate(2478.421 1728.907)">
              <g id="그룹_3058" data-name="그룹 3058" transform="translate(33.704 0)">
                <path id="패스_9759" data-name="패스 9759" d="M2629.167,1796.925a.636.636,0,0,1-.635-.636v-3.166a3.842,3.842,0,0,0-3.836-3.84H2614.25a.636.636,0,0,1,0-1.271H2624.7a5.115,5.115,0,0,1,5.107,5.112v3.166A.636.636,0,0,1,2629.167,1796.925Z" transform="translate(-2613.615 -1788.012)" fill="#1f1f1f" stroke="#1f1f1f" stroke-width="0.3"/>
              </g>
              <g id="그룹_3059" data-name="그룹 3059" transform="translate(0 0)">
                <path id="패스_9760" data-name="패스 9760" d="M2523.206,1824.383h-39.678a5.113,5.113,0,0,1-5.107-5.107v-26.153a5.115,5.115,0,0,1,5.107-5.112h14.93a.636.636,0,0,1,0,1.271h-14.93a3.842,3.842,0,0,0-3.835,3.84v26.153a3.84,3.84,0,0,0,3.835,3.835h39.678a3.84,3.84,0,0,0,3.835-3.835v-18.583a.636.636,0,1,1,1.271,0v18.583A5.113,5.113,0,0,1,2523.206,1824.383Z" transform="translate(-2478.421 -1788.012)" fill="#1f1f1f" stroke="#1f1f1f" stroke-width="0.3"/>
              </g>
              <g id="그룹_3062" data-name="그룹 3062" transform="translate(5.528 8.4)">
                <path id="패스_9761" data-name="패스 9761" d="M2518.915,1880.751l-17.288-.029c-.344,0-.692-.082-.8-.417a5.1,5.1,0,0,1-.234-1.521c0-3.792,4.3-6.878,9.579-6.878s9.58,3.085,9.58,6.878a5.1,5.1,0,0,1-.234,1.521A.636.636,0,0,1,2518.915,1880.751Z" transform="translate(-2500.597 -1859.392)" fill="#501d83"/>
                <path id="패스_9762" data-name="패스 9762" d="M2524.577,1831.3a4.8,4.8,0,1,1,4.8-4.8A4.8,4.8,0,0,1,2524.577,1831.3Z" transform="translate(-2514.998 -1821.707)" fill="#501d83"/>
              </g>
              <g id="그룹_3065" data-name="그룹 3065" transform="translate(32.231 14.42)">
                <g id="그룹_3063" data-name="그룹 3063">
                  <path id="패스_9763" data-name="패스 9763" d="M2617.528,1847.125h-9.187a.636.636,0,1,1,0-1.271h9.187a.636.636,0,0,1,0,1.271Z" transform="translate(-2607.705 -1845.854)" fill="#1f1f1f" stroke="#1f1f1f" stroke-width="0.3"/>
                </g>
                <g id="그룹_3064" data-name="그룹 3064" transform="translate(0 8.048)">
                  <path id="패스_9764" data-name="패스 9764" d="M2617.528,1879.409h-9.187a.636.636,0,1,1,0-1.271h9.187a.636.636,0,0,1,0,1.271Z" transform="translate(-2607.705 -1878.137)" fill="#1f1f1f" stroke="#1f1f1f" stroke-width="0.3"/>
                </g>
              </g>
            </g>
            <g id="그룹_3067" data-name="그룹 3067" transform="translate(2497.764 1719.165)">
              <path id="패스_9765" data-name="패스 9765" d="M2561.612,1764.645c-2.518,0-4.128-.81-4.92-2.477-.682-1.436-.682-3.35-.682-5.376s0-3.945.682-5.38c.792-1.667,2.4-2.477,4.92-2.477s4.128.81,4.92,2.477c.683,1.435.683,3.349.683,5.376l-.636,0,.636,0c0,2.026,0,3.941-.683,5.376C2565.74,1763.835,2564.131,1764.645,2561.612,1764.645Zm0-14.438c-2.6,0-3.384.936-3.772,1.751a21.174,21.174,0,0,0,0,9.665c.388.815,1.167,1.751,3.772,1.751s3.385-.936,3.772-1.751a12.39,12.39,0,0,0,.559-4.831v0a12.386,12.386,0,0,0-.559-4.83C2565,1751.142,2564.218,1750.207,2561.612,1750.207Z" transform="translate(-2556.01 -1748.935)" fill="#1f1f1f" stroke="#1f1f1f" stroke-width="0.3"/>
            </g>
            <g id="그룹_3070" data-name="그룹 3070" transform="translate(2481.216 1709.278)">
              <g id="그룹_3068" data-name="그룹 3068" transform="translate(11.523 0)">
                <path id="패스_9766" data-name="패스 9766" d="M2546.37,1720.435a.634.634,0,0,1-.449-.186l-9.887-9.887a.636.636,0,1,1,.9-.9l9.885,9.885a.636.636,0,0,1-.449,1.086Z" transform="translate(-2535.848 -1709.278)" fill="#1f1f1f" stroke="#1f1f1f" stroke-width="0.3"/>
              </g>
              <g id="그룹_3069" data-name="그룹 3069" transform="translate(0)">
                <path id="패스_9767" data-name="패스 9767" d="M2502.651,1722.935a.635.635,0,0,1-.449-.186l-12.385-12.386a.635.635,0,0,1,.9-.9l12.386,12.385a.636.636,0,0,1-.45,1.085Z" transform="translate(-2489.63 -1709.278)" fill="#1f1f1f" stroke="#1f1f1f" stroke-width="0.3"/>
              </g>
            </g>
            <g id="그룹_3074" data-name="그룹 3074" transform="translate(2506.022 1709.278)">
              <g id="그룹_3071" data-name="그룹 3071" transform="translate(5.839 10.209)">
                <path id="패스_9768" data-name="패스 9768" d="M2613.192,1753.677a.636.636,0,0,1-.449-1.085l2.175-2.176a.636.636,0,0,1,.9.9l-2.175,2.176A.634.634,0,0,1,2613.192,1753.677Z" transform="translate(-2612.556 -1750.23)" fill="#1f1f1f" stroke="#1f1f1f" stroke-width="0.3"/>
              </g>
              <g id="그룹_3072" data-name="그룹 3072" transform="translate(10.681)">
                <path id="패스_9769" data-name="패스 9769" d="M2632.611,1718.092a.636.636,0,0,1-.449-1.085l7.54-7.542a.636.636,0,1,1,.9.9l-7.54,7.543A.633.633,0,0,1,2632.611,1718.092Z" transform="translate(-2631.975 -1709.278)" fill="#1f1f1f" stroke="#1f1f1f" stroke-width="0.3"/>
              </g>
              <g id="그룹_3073" data-name="그룹 3073" transform="translate(0 0)">
                <path id="패스_9770" data-name="패스 9770" d="M2589.769,1717.252a.635.635,0,0,1-.448-1.087l.657-.653,6.043-6.048a.636.636,0,1,1,.9.9l-6.7,6.7A.634.634,0,0,1,2589.769,1717.252Z" transform="translate(-2589.133 -1709.278)" fill="#1f1f1f" stroke="#1f1f1f" stroke-width="0.3"/>
              </g>
            </g>
          </g>
        </g>
      </g>
      <g id="item-7" data-name="item" transform="translate(2.997 359)">
        <g id="txt-7" data-name="txt" transform="translate(84 -76)">
          <text id="First_Press_Conference_Unveiling_Taejae_Blueprints_Held" data-name="First Press Conference Unveiling Taejae Blueprints Held" transform="translate(286.003 4655)" fill="#501d83" font-size="12" font-family="Poppins-MediumItalic, Poppins" font-weight="500" font-style="italic"><tspan x="0" y="13">First</tspan><tspan y="13" xml:space="preserve" fill="#1f1f1f" font-family="Poppins-Medium, Poppins" font-style="normal"> Press Conference Unveiling </tspan><tspan x="0" y="29" fill="#1f1f1f" font-family="Poppins-Medium, Poppins" font-style="normal">Taejae Blueprints Held</tspan></text>
          <text id="_2023._05" data-name="2023. 05" transform="translate(314.003 4642)" fill="#1f1f1f" font-size="14" font-family="Poppins-SemiBold, Poppins" font-weight="600"><tspan x="-28" y="0">2023. 05</tspan></text>
        </g>
        <g id="ico_60_history06" data-name="ico/60/history06" transform="translate(-32.997 1050)">
          <rect id="base-8" data-name="base" width="60" height="60" transform="translate(319 3501)" fill="none"/>
          <g id="ico_60_history02" data-name="ico/60/history02">
            <rect id="base-9" data-name="base" width="60" height="60" transform="translate(319 3501)" fill="none"/>
            <g id="icon-7" data-name="icon" transform="translate(-1788.37 2445.2)">
              <g id="그룹_3037" data-name="그룹 3037" transform="translate(2123.728 1056.8)">
                <g id="그룹_3035" data-name="그룹 3035" transform="translate(4.434)">
                  <g id="그룹_3033" data-name="그룹 3033" transform="translate(0 12.162)">
                    <path id="패스_9743" data-name="패스 9743" d="M2188.9,1110.311a.656.656,0,0,1-.578-.964,10.575,10.575,0,0,1,18.262,0,.655.655,0,0,1-.271.886C2205.993,1110.4,2189.134,1110.311,2188.9,1110.311Z" transform="translate(-2188.245 -1104.107)" fill="#501d83"/>
                  </g>
                  <g id="그룹_3034" data-name="그룹 3034" transform="translate(4.483)">
                    <path id="패스_9744" data-name="패스 9744" d="M2210.406,1066.251a4.725,4.725,0,1,1,4.725-4.726A4.731,4.731,0,0,1,2210.406,1066.251Z" transform="translate(-2205.681 -1056.8)" fill="#501d83"/>
                  </g>
                </g>
                <g id="그룹_3036" data-name="그룹 3036" transform="translate(0 17.574)">
                  <path id="패스_9745" data-name="패스 9745" d="M2193.213,1142.021a.655.655,0,0,1-.656-.656v-10.527a.655.655,0,0,1,.656-.656h3.758v-3.712h-24.661v3.712h3.763a.655.655,0,0,1,.656.656v10.522a.656.656,0,0,1-1.311,0v-9.867h-3.763a.655.655,0,0,1-.656-.656v-5.023a.655.655,0,0,1,.656-.656h25.972a.655.655,0,0,1,.656.656v5.023a.656.656,0,0,1-.656.656h-3.758v9.872A.656.656,0,0,1,2193.213,1142.021Z" transform="translate(-2170.998 -1125.159)" fill="#1f1f1f" stroke="#1f1f1f" stroke-width="0.3"/>
                </g>
              </g>
              <g id="그룹_3047" data-name="그룹 3047" transform="translate(2107.37 1090.02)">
                <g id="그룹_3040" data-name="그룹 3040" transform="translate(18.375 0.855)">
                  <g id="그룹_3038" data-name="그룹 3038" transform="translate(0 14.334)">
                    <path id="패스_9746" data-name="패스 9746" d="M2201.437,1254.665a.656.656,0,0,1-.656-.656c0-7.052-7.894-7.6-10.314-7.6s-10.314.548-10.314,7.6a.656.656,0,0,1-1.311,0c0-5.5,4.454-8.911,11.625-8.911s11.625,3.414,11.625,8.911A.655.655,0,0,1,2201.437,1254.665Z" transform="translate(-2178.843 -1245.098)" fill="#1f1f1f" stroke="#1f1f1f" stroke-width="0.3"/>
                  </g>
                  <g id="그룹_3039" data-name="그룹 3039" transform="translate(5.852)">
                    <path id="패스_9747" data-name="패스 9747" d="M2207.379,1200.889a5.773,5.773,0,1,1,5.772-5.773A5.779,5.779,0,0,1,2207.379,1200.889Zm0-10.234a4.462,4.462,0,1,0,4.461,4.462A4.467,4.467,0,0,0,2207.379,1190.654Z" transform="translate(-2201.606 -1189.343)" fill="#1f1f1f" stroke="#1f1f1f" stroke-width="0.3"/>
                  </g>
                </g>
                <g id="그룹_3043" data-name="그룹 3043" transform="translate(0 0)">
                  <g id="그룹_3041" data-name="그룹 3041" transform="translate(0 12.781)">
                    <path id="패스_9748" data-name="패스 9748" d="M2108.026,1244.406a.655.655,0,0,1-.656-.656c0-4.948,4-8.021,10.436-8.021a16.472,16.472,0,0,1,7.3,1.831.655.655,0,1,1-.675,1.124,15.212,15.212,0,0,0-6.627-1.644c-2.141,0-9.125.484-9.125,6.71A.655.655,0,0,1,2108.026,1244.406Z" transform="translate(-2107.37 -1235.73)" fill="#1f1f1f" stroke="#1f1f1f" stroke-width="0.3"/>
                  </g>
                  <g id="그룹_3042" data-name="그룹 3042" transform="translate(5.216)">
                    <path id="패스_9749" data-name="패스 9749" d="M2132.878,1196.454a5.219,5.219,0,1,1,5.219-5.219A5.225,5.225,0,0,1,2132.878,1196.454Zm0-9.127a3.908,3.908,0,1,0,3.908,3.908A3.913,3.913,0,0,0,2132.878,1187.327Z" transform="translate(-2127.659 -1186.016)" fill="#1f1f1f" stroke="#1f1f1f" stroke-width="0.3"/>
                  </g>
                </g>
                <g id="그룹_3046" data-name="그룹 3046" transform="translate(41.943 0)">
                  <g id="그룹_3044" data-name="그룹 3044" transform="translate(0 12.781)">
                    <path id="패스_9750" data-name="패스 9750" d="M2287.918,1244.406a.655.655,0,0,1-.656-.656c0-6.226-6.984-6.71-9.125-6.71a15.213,15.213,0,0,0-6.627,1.644.655.655,0,1,1-.675-1.124,16.474,16.474,0,0,1,7.3-1.831c6.437,0,10.436,3.073,10.436,8.021A.655.655,0,0,1,2287.918,1244.406Z" transform="translate(-2270.518 -1235.73)" fill="#1f1f1f" stroke="#1f1f1f" stroke-width="0.3"/>
                  </g>
                  <g id="그룹_3045" data-name="그룹 3045" transform="translate(2.402)">
                    <path id="패스_9751" data-name="패스 9751" d="M2285.08,1196.454a5.219,5.219,0,1,1,5.219-5.219A5.225,5.225,0,0,1,2285.08,1196.454Zm0-9.127a3.908,3.908,0,1,0,3.908,3.908A3.912,3.912,0,0,0,2285.08,1187.327Z" transform="translate(-2279.861 -1186.016)" fill="#1f1f1f" stroke="#1f1f1f" stroke-width="0.3"/>
                  </g>
                </g>
              </g>
            </g>
          </g>
        </g>
      </g>
      <g id="item-8" data-name="item" transform="translate(26.997 274)">
        <g id="txt-8" data-name="txt" transform="translate(84 -76)">
          <text id="Taejae_University_Establishment_Approved_by_Ministry_of_Education" data-name="Taejae University Establishment Approved by Ministry of Education" transform="translate(262.003 4655)" fill="#1f1f1f" font-size="12" font-family="Poppins-Medium, Poppins" font-weight="500"><tspan x="0" y="13">Taejae University Establishment </tspan><tspan x="0" y="29">Approved by Ministry of Education</tspan></text>
          <text id="_2023._04" data-name="2023. 04" transform="translate(262.003 4642)" fill="#1f1f1f" font-size="14" font-family="Poppins-SemiBold, Poppins" font-weight="600"><tspan x="0" y="0">2023. 04</tspan></text>
        </g>
        <g id="ico_60_history05" data-name="ico/60/history05" transform="translate(-56.997 1050)">
          <rect id="base-10" data-name="base" width="60" height="60" transform="translate(319 3501)" fill="none"/>
          <g id="icon-8" data-name="icon" transform="translate(-3518.092 2426.026)">
            <g id="그룹_3107" data-name="그룹 3107" transform="translate(3888.884 1114.415)">
              <path id="패스_9795" data-name="패스 9795" d="M4046.069,1246.881h-.082a.6.6,0,0,1,0-1.193h.082a1.582,1.582,0,0,0,1.58-1.58V1240.9a.6.6,0,1,1,1.193,0v3.208A2.776,2.776,0,0,1,4046.069,1246.881Z" transform="translate(-4045.391 -1240.304)" fill="#1f1f1f" stroke="#1f1f1f" stroke-width="0.3"/>
            </g>
            <g id="그룹_3108" data-name="그룹 3108" transform="translate(3841.092 1075.974)">
              <path id="패스_9796" data-name="패스 9796" d="M3870.71,1120.992h-26.845a2.776,2.776,0,0,1-2.772-2.772v-39.469a2.778,2.778,0,0,1,2.772-2.777h45.7a2.778,2.778,0,0,1,2.773,2.777v32.084a.6.6,0,1,1-1.193,0v-32.084a1.584,1.584,0,0,0-1.58-1.584h-45.7a1.583,1.583,0,0,0-1.58,1.584v39.469a1.581,1.581,0,0,0,1.58,1.579h26.845a.6.6,0,1,1,0,1.193Z" transform="translate(-3841.092 -1075.974)" fill="#1f1f1f" stroke="#1f1f1f" stroke-width="0.3"/>
            </g>
            <g id="그룹_3112" data-name="그룹 3112" transform="translate(3868.635 1107.567)">
              <g id="그룹_3111" data-name="그룹 3111" transform="translate(0 12.665)">
                <path id="패스_9799" data-name="패스 9799" d="M3960.7,1278.912a1.884,1.884,0,0,1-1.851-2.169l1.719-11.068a.6.6,0,0,1,1.179.183l-1.719,11.067a.685.685,0,0,0,.929.743l6.984-2.759a.6.6,0,0,1,.438,0l6.984,2.759a.685.685,0,0,0,.928-.743l-.888-5.72a.6.6,0,0,1,1.179-.183l.888,5.72a1.878,1.878,0,0,1-2.546,2.035l-6.764-2.672-6.765,2.672A1.891,1.891,0,0,1,3960.7,1278.912Z" transform="translate(-3958.831 -1265.171)" fill="#1f1f1f" stroke="#1f1f1f" stroke-width="0.3"/>
              </g>
              <g id="그룹_3109" data-name="그룹 3109" transform="translate(0.468 0)">
                <path id="패스_9797" data-name="패스 9797" d="M3969.7,1228.761a8.865,8.865,0,1,1,8.865-8.865A8.876,8.876,0,0,1,3969.7,1228.761Z" transform="translate(-3960.833 -1211.03)" fill="#501d83" stroke="#501d83" stroke-width="0.3"/>
              </g>
              <g id="그룹_3110" data-name="그룹 3110" transform="translate(3.985 8.269)">
                <path id="패스_9798" data-name="패스 9798" d="M3977.9,1250.974a.6.6,0,0,1-.416-.169,5.307,5.307,0,0,1-1.619-3.831.6.6,0,0,1,1.193,0,4.121,4.121,0,0,0,1.258,2.976.6.6,0,0,1-.417,1.024Z" transform="translate(-3975.865 -1246.377)" fill="#fff" stroke="#fff" stroke-width="0.3"/>
              </g>
            </g>
            <g id="그룹_3117" data-name="그룹 3117" transform="translate(3849.008 1085.153)">
              <g id="그룹_3113" data-name="그룹 3113" transform="translate(10.912 0)">
                <path id="패스_9800" data-name="패스 9800" d="M3934.567,1116.408h-12.394a.6.6,0,0,1,0-1.193h12.394a.6.6,0,0,1,0,1.193Z" transform="translate(-3921.577 -1115.215)" fill="#1f1f1f" stroke="#1f1f1f" stroke-width="0.3"/>
              </g>
              <g id="그룹_3114" data-name="그룹 3114" transform="translate(0 10.265)">
                <path id="패스_9801" data-name="패스 9801" d="M3909.746,1160.288h-34.217a.6.6,0,0,1,0-1.193h34.217a.6.6,0,0,1,0,1.193Z" transform="translate(-3874.932 -1159.095)" fill="#1f1f1f" stroke="#1f1f1f" stroke-width="0.3"/>
              </g>
              <g id="그룹_3115" data-name="그룹 3115" transform="translate(0 16.258)">
                <path id="패스_9802" data-name="패스 9802" d="M3899.594,1185.909h-24.067a.6.6,0,0,1,0-1.193h24.067a.6.6,0,1,1,0,1.193Z" transform="translate(-3874.93 -1184.716)" fill="#1f1f1f" stroke="#1f1f1f" stroke-width="0.3"/>
              </g>
              <g id="그룹_3116" data-name="그룹 3116" transform="translate(3.529 27.301)">
                <path id="패스_9803" data-name="패스 9803" d="M3894.193,1233.115h-3.58a.6.6,0,1,1,0-1.193h3.58a.6.6,0,1,1,0,1.193Z" transform="translate(-3890.016 -1231.922)" fill="#1f1f1f" stroke="#1f1f1f" stroke-width="0.3"/>
              </g>
            </g>
          </g>
        </g>
      </g>
      <g id="item-9" data-name="item" transform="translate(-17.003 190)">
        <g id="txt-9" data-name="txt" transform="translate(84 -76)">
          <text id="AI-driven_Digital_Library_Established" data-name="AI-driven Digital Library Established" transform="translate(306.003 4655)" fill="#1f1f1f" font-size="12" font-family="Poppins-Medium, Poppins" font-weight="500"><tspan x="0" y="13">AI-driven Digital Library Established</tspan></text>
          <text id="_2023._03" data-name="2023. 03" transform="translate(306.003 4642)" fill="#1f1f1f" font-size="14" font-family="Poppins-SemiBold, Poppins" font-weight="600"><tspan x="0" y="0">2023. 03</tspan></text>
        </g>
        <g id="ico_60_history04" data-name="ico/60/history04" transform="translate(-12.997 1050.001)">
          <rect id="base-11" data-name="base" width="60" height="60" transform="translate(319 3501)" fill="none"/>
          <g id="icon-9" data-name="icon" transform="translate(-773.939 2113.873)">
            <g id="그룹_3099" data-name="그룹 3099" transform="translate(1096.94 1389.127)">
              <path id="패스_9789" data-name="패스 9789" d="M1143.637,1430.434h-41.1a5.6,5.6,0,0,1-5.6-5.6v-30.111a5.6,5.6,0,0,1,5.6-5.6h41.1a5.6,5.6,0,0,1,5.6,5.6v26a.609.609,0,1,1-1.219,0v-26a4.384,4.384,0,0,0-4.379-4.379h-41.1a4.384,4.384,0,0,0-4.379,4.379v30.111a4.384,4.384,0,0,0,4.379,4.379h41.1a4.384,4.384,0,0,0,4.379-4.379.609.609,0,1,1,1.219,0A5.6,5.6,0,0,1,1143.637,1430.434Z" transform="translate(-1096.94 -1389.127)" fill="#1f1f1f" stroke="#1f1f1f" stroke-width="0.3"/>
            </g>
            <g id="그룹_3091" data-name="그룹 3091" transform="translate(1104.827 1395.819)">
              <g id="그룹_3086" data-name="그룹 3086" transform="translate(0 2.837)">
                <path id="패스_9779" data-name="패스 9779" d="M821.139,518.916H788.574a2.078,2.078,0,0,1-2.076-2.076V494.207a.609.609,0,1,1,1.219,0v22.633a.858.858,0,0,0,.857.857h32.566a.858.858,0,0,0,.857-.857V494.207a.609.609,0,0,1,1.219,0v22.633A2.078,2.078,0,0,1,821.139,518.916Z" transform="translate(-786.498 -493.598)" fill="#1f1f1f" stroke="#1f1f1f" stroke-width="0.3"/>
              </g>
              <g id="그룹_3087" data-name="그룹 3087" transform="translate(4.434 0)">
                <path id="패스_9780" data-name="패스 9780" d="M806.762,505.3a1.7,1.7,0,0,1-1-.326,1.722,1.722,0,0,1-.713-1.394V485.992a2.718,2.718,0,0,1,1.862-2.583c3.521-1.172,9.822-2.8,12.456-.564a.609.609,0,0,1,.07.859c-.218.257.218,20.394,0,20.651a.609.609,0,0,1-.859.069c-1.568-1.332-5.782-1.037-11.275.79A1.726,1.726,0,0,1,806.762,505.3Z" transform="translate(-805.053 -481.729)" fill="#501d83" stroke="#501d83" stroke-width="0.3"/>
              </g>
              <g id="그룹_3088" data-name="그룹 3088" transform="translate(17.749 20.652)">
                <path id="패스_9781" data-name="패스 9781" d="M873.589,571.061a1.73,1.73,0,0,1-.546-.09c-5.492-1.826-9.707-2.121-11.274-.789a.609.609,0,1,1-.789-.928c2.633-2.238,8.929-.609,12.448.561a.5.5,0,0,0,.651-.473.609.609,0,0,1,1.219,0,1.723,1.723,0,0,1-.713,1.394A1.7,1.7,0,0,1,873.589,571.061Z" transform="translate(-860.764 -568.139)" fill="#1f1f1f" stroke="#1f1f1f" stroke-width="0.3"/>
              </g>
              <g id="그룹_3089" data-name="그룹 3089" transform="translate(17.749 0)">
                <path id="패스_9782" data-name="패스 9782" d="M874.688,499.635a.609.609,0,0,1-.609-.609V485.991a1.5,1.5,0,0,0-1.028-1.426c-5.5-1.83-9.714-2.125-11.283-.792a.609.609,0,1,1-.789-.928c2.634-2.241,8.935-.608,12.456.564a2.717,2.717,0,0,1,1.862,2.583v13.035A.609.609,0,0,1,874.688,499.635Z" transform="translate(-860.764 -481.728)" fill="#1f1f1f" stroke="#1f1f1f" stroke-width="0.3"/>
              </g>
              <g id="그룹_3090" data-name="그룹 3090" transform="translate(17.749 0.971)">
                <path id="패스_9783" data-name="패스 9783" d="M861.374,499.962a.609.609,0,0,1-.609-.609V486.4a.609.609,0,1,1,1.219,0v12.954A.609.609,0,0,1,861.374,499.962Z" transform="translate(-860.765 -485.79)" fill="#1f1f1f" stroke="#1f1f1f" stroke-width="0.3"/>
              </g>
            </g>
            <g id="그룹_3106" data-name="그룹 3106" transform="translate(1109.117 1429.215)">
              <g id="그룹_3103" data-name="그룹 3103" transform="translate(7.609 0)">
                <path id="패스_9792" data-name="패스 9792" d="M1180.338,1566.792a.61.61,0,0,1-.581-.8c.016-.05,1.6-5.018,1.423-8.49a.609.609,0,0,1,1.217-.061c.185,3.7-1.411,8.712-1.48,8.924A.61.61,0,0,1,1180.338,1566.792Z" transform="translate(-1179.728 -1556.867)" fill="#1f1f1f" stroke="#1f1f1f" stroke-width="0.3"/>
              </g>
              <g id="그룹_3104" data-name="그룹 3104" transform="translate(17.648)">
                <path id="패스_9793" data-name="패스 9793" d="M1222.6,1561.6a.609.609,0,0,1-.6-.517,18.4,18.4,0,0,1-.245-3.634.61.61,0,0,1,1.218.061,17.207,17.207,0,0,0,.232,3.388.609.609,0,0,1-.509.7A.628.628,0,0,1,1222.6,1561.6Z" transform="translate(-1221.736 -1556.866)" fill="#1f1f1f" stroke="#1f1f1f" stroke-width="0.3"/>
              </g>
              <g id="그룹_3105" data-name="그룹 3105" transform="translate(0 7.287)">
                <path id="패스_9794" data-name="패스 9794" d="M1161.861,1595.983c-8.689,0-12.961-1.069-13.852-3.466a2.555,2.555,0,0,1,.469-2.345c.626-.881,2.658-2.917,8.049-2.809a.609.609,0,0,1,.6.621.6.6,0,0,1-.622.6c-4.942-.1-6.63,1.733-7.031,2.3a1.41,1.41,0,0,0-.32,1.214c.658,1.773,4.934,2.672,12.709,2.672s12.05-.9,12.709-2.672a1.411,1.411,0,0,0-.32-1.214c-.4-.564-2.089-2.394-7.031-2.3a.609.609,0,1,1-.025-1.218c5.394-.109,7.424,1.928,8.049,2.809a2.555,2.555,0,0,1,.469,2.345C1174.821,1594.914,1170.55,1595.983,1161.861,1595.983Z" transform="translate(-1147.89 -1587.359)" fill="#1f1f1f" stroke="#1f1f1f" stroke-width="0.3"/>
              </g>
            </g>
          </g>
        </g>
      </g>
      <g id="item-10" data-name="item" transform="translate(-9 105)">
        <g id="txt-10" data-name="txt" transform="translate(84 -76)">
          <text id="First_Taejae_Multidisciplinary_Forum_Held" data-name="First Taejae Multidisciplinary Forum Held" transform="translate(298 4655)" fill="#501d83" font-size="12" font-family="Poppins-MediumItalic, Poppins" font-weight="500" font-style="italic"><tspan x="0" y="13">First</tspan><tspan y="13" xml:space="preserve" fill="#1f1f1f" font-family="Poppins-Medium, Poppins" font-style="normal"> Taejae Multidisciplinary Forum </tspan><tspan x="0" y="29" fill="#1f1f1f" font-family="Poppins-Medium, Poppins" font-style="normal">Held</tspan></text>
          <text id="_2022._06" data-name="2022. 06" transform="translate(298 4642)" fill="#1f1f1f" font-size="14" font-family="Poppins-SemiBold, Poppins" font-weight="600"><tspan x="0" y="0">2022. 06</tspan></text>
        </g>
        <g id="ico_60_history03" data-name="ico/60/history03" transform="translate(-21 1050)">
          <rect id="base-12" data-name="base" width="60" height="60" transform="translate(319 3501)" fill="none"/>
          <g id="icon-10" data-name="icon" transform="translate(-1102.332 2448.013)">
            <g id="그룹_3120" data-name="그룹 3120" transform="translate(1439.718 1083.205)">
              <g id="그룹_3118" data-name="그룹 3118" transform="translate(0 15.812)">
                <path id="패스_9804" data-name="패스 9804" d="M1500.449,1255.124a.6.6,0,0,1-.6-.576l-.037-1.037a10.231,10.231,0,0,1,10.224-10.592h6.036a10.23,10.23,0,0,1,10.224,10.592l-.037,1.037a.609.609,0,0,1-.618.576.6.6,0,0,1-.576-.618l.037-1.037a9.036,9.036,0,0,0-9.03-9.355h-6.036a9.036,9.036,0,0,0-9.03,9.355l.037,1.037a.6.6,0,0,1-.576.618Z" transform="translate(-1499.81 -1242.919)" fill="#1f1f1f" stroke="#1f1f1f" stroke-width="0.3"/>
              </g>
              <g id="그룹_3119" data-name="그룹 3119" transform="translate(6.603 0)">
                <path id="패스_9805" data-name="패스 9805" d="M1534.64,1188.721a6.646,6.646,0,1,1,6.646-6.646A6.653,6.653,0,0,1,1534.64,1188.721Zm0-12.1a5.451,5.451,0,1,0,5.451,5.451A5.457,5.457,0,0,0,1534.64,1176.625Z" transform="translate(-1527.995 -1175.43)" fill="#1f1f1f" stroke="#1f1f1f" stroke-width="0.3"/>
              </g>
            </g>
            <g id="그룹_3123" data-name="그룹 3123" transform="translate(1421.332 1072.195)">
              <g id="그룹_3121" data-name="그룹 3121" transform="translate(0 15.813)">
                <path id="패스_9806" data-name="패스 9806" d="M1421.97,1208.135a.6.6,0,0,1-.6-.578l-.034-1.039a10.226,10.226,0,0,1,10.221-10.589h6.038a10.171,10.171,0,0,1,5.853,1.838.6.6,0,0,1-.684.979,8.982,8.982,0,0,0-5.169-1.622h-6.038a9.031,9.031,0,0,0-9.027,9.353l.034,1.04a.6.6,0,0,1-.577.617Z" transform="translate(-1421.332 -1195.929)" fill="#1f1f1f" stroke="#1f1f1f" stroke-width="0.3"/>
              </g>
              <g id="그룹_3122" data-name="그룹 3122" transform="translate(6.602 0)">
                <path id="패스_9807" data-name="패스 9807" d="M1456.156,1141.726a6.646,6.646,0,1,1,6.646-6.646A6.653,6.653,0,0,1,1456.156,1141.726Zm0-12.1a5.451,5.451,0,1,0,5.451,5.451A5.457,5.457,0,0,0,1456.156,1129.63Z" transform="translate(-1449.511 -1128.435)" fill="#1f1f1f" stroke="#1f1f1f" stroke-width="0.3"/>
              </g>
            </g>
            <g id="그룹_3126" data-name="그룹 3126" transform="translate(1437.524 1054.987)">
              <g id="그룹_3124" data-name="그룹 3124" transform="translate(0)">
                <path id="패스_9808" data-name="패스 9808" d="M1509.424,1075.832a1,1,0,0,1-.685-.272l-3.2-3.009h-9.914a5.187,5.187,0,0,1-5.181-5.181v-7.2a5.186,5.186,0,0,1,5.181-5.181h17.267a5.186,5.186,0,0,1,5.18,5.181v2.765a.6.6,0,1,1-1.195,0v-2.765a3.99,3.99,0,0,0-3.986-3.986h-17.267a3.99,3.99,0,0,0-3.986,3.986v7.2a3.99,3.99,0,0,0,3.986,3.986h10.151a.6.6,0,0,1,.409.162l3.113,2.928.492-2.6a.6.6,0,0,1,.587-.486h2.513c.035,0,.07,0,.1,0a.6.6,0,0,1,.089,1.192c-.064,0-.129.005-.193.005h-2.018l-.467,2.467a1,1,0,0,1-.982.814Z" transform="translate(-1490.444 -1054.987)" fill="#1f1f1f" stroke="#1f1f1f" stroke-width="0.3"/>
              </g>
              <g id="그룹_3125" data-name="그룹 3125" transform="translate(26.051 11.167)">
                <path id="패스_9809" data-name="패스 9809" d="M1602.233,1106.292a.6.6,0,0,1-.547-.836,3.95,3.95,0,0,0,.332-1.587v-.619a.6.6,0,0,1,1.195,0v.619a5.138,5.138,0,0,1-.432,2.064A.6.6,0,0,1,1602.233,1106.292Z" transform="translate(-1601.636 -1102.653)" fill="#1f1f1f" stroke="#1f1f1f" stroke-width="0.3"/>
              </g>
            </g>
            <g id="그룹_3127" data-name="그룹 3127" transform="translate(1461.472 1072.043)">
              <path id="패스_9810" data-name="패스 9810" d="M1599.775,1148.326a.988.988,0,0,1-.167-.014,1,1,0,0,1-.724-.536l-1.062-2.111a5.186,5.186,0,0,1-5.159-5.18v-7.516a5.186,5.186,0,0,1,5.181-5.181h9.5a5.186,5.186,0,0,1,5.181,5.181v7.516a5.186,5.186,0,0,1-5.181,5.18h-4.394C1600.281,1148.227,1600.031,1148.326,1599.775,1148.326Z" transform="translate(-1592.662 -1127.787)" fill="#501d83"/>
            </g>
          </g>
        </g>
      </g>
      <g id="item-11" data-name="item" transform="translate(19 18)">
        <g id="txt-11" data-name="txt" transform="translate(84 -76)">
          <text id="MOU_with_Active_Learning_Science_Inc._Signed" data-name="MOU with Active Learning Science, Inc. Signed" transform="translate(270 4657)" fill="#1f1f1f" font-size="12" font-family="Poppins-Medium, Poppins" font-weight="500"><tspan x="0" y="13">MOU with Active Learning Science, </tspan><tspan x="0" y="29">Inc. Signed</tspan></text>
          <text id="_2022._05" data-name="2022. 05" transform="translate(270 4644)" fill="#1f1f1f" font-size="14" font-family="Poppins-SemiBold, Poppins" font-weight="600"><tspan x="0" y="0">2022. 05</tspan></text>
        </g>
        <g id="ico_60_history02-2" data-name="ico/60/history02" transform="translate(-49 1052)">
          <rect id="base-13" data-name="base" width="60" height="60" transform="translate(319 3501)" fill="none"/>
          <g id="icon-11" data-name="icon" transform="translate(321.003 3503)">
            <path id="path-10" data-name="path" d="M183.271,75.3a.59.59,0,0,1-.581-.5l-1.529-9.825a.589.589,0,1,1,1.164-.184l1.529,9.825a.591.591,0,0,1-.583.685" transform="translate(-139.302 -49.329)" fill="#1f1f1f" stroke="#1f1f1f" stroke-width="0.3"/>
            <path id="path-11" data-name="path" d="M49.365,102.4a2.608,2.608,0,0,1-2.568-2.219L40.718,61.162a.6.6,0,0,1,.219-.559.586.586,0,0,1,.591-.081,3.161,3.161,0,0,0,1.719.225.593.593,0,0,1,.181,1.173,4.219,4.219,0,0,1-1.4-.019L47.96,100a1.426,1.426,0,0,0,1.566,1.207l27.747-3.038a1.438,1.438,0,0,0,1.256-1.654l-.192-1.226A.589.589,0,1,1,79.5,95.1l.192,1.226A2.623,2.623,0,0,1,77.4,99.349l-27.747,3.038a2.605,2.605,0,0,1-.29.016" transform="translate(-31.306 -46.404)" fill="#1f1f1f" stroke="#1f1f1f" stroke-width="0.3"/>
            <path id="path-12" data-name="path" d="M7.073,53.939A2.312,2.312,0,0,1,4.8,51.982L.046,21.42c0-.014,0-.028-.006-.041a7.143,7.143,0,0,1-.031-1.122,7.609,7.609,0,0,1,6.6-7.011l.059-.009c.192-.025.359-.046.529-.055a.593.593,0,0,1,.061,1.185c-.14.007-.277.025-.418.044l-.061.009a6.423,6.423,0,0,0-5.59,5.894,6.05,6.05,0,0,0,.024.913l0,.024L5.965,51.8a1.124,1.124,0,0,0,1.272.942l2.9-.434a.593.593,0,0,1,.174,1.174l-2.9.434a2.309,2.309,0,0,1-.338.025" transform="translate(0 -10.114)" fill="#1f1f1f" stroke="#1f1f1f" stroke-width="0.3"/>
            <path id="path-13" data-name="path" d="M34.115,15.524a.594.594,0,0,1-.091-1.179c1.18-.188,2.085-1.936,2.2-4.252,0-.1.007-.2.007-.309,0-3.23-2.288-5.356-5.971-5.547a6.4,6.4,0,0,0-.9.015.593.593,0,0,1-.1-1.182,7.71,7.71,0,0,1,1.065-.018c4.307.224,7.089,2.866,7.089,6.732,0,.119,0,.242-.008.36a8,8,0,0,1-1.17,3.967l26.784-2.817c1.137-.185,2.034-1.932,2.15-4.243,0-.1.008-.205.008-.308,0-3.231-2.288-5.356-5.971-5.547a7.043,7.043,0,0,0-.976.019L37.6,3.385a.593.593,0,0,1-.122-1.18L58.11.034A8,8,0,0,1,59.26.01c4.309.224,7.092,2.867,7.092,6.733,0,.117,0,.239-.009.356-.149,2.979-1.394,5.083-3.172,5.372l-28.994,3.05a.551.551,0,0,1-.062,0" transform="translate(-22.084 0)" fill="#1f1f1f" stroke="#1f1f1f" stroke-width="0.3"/>
            <path id="path-14" data-name="path" d="M96.166,107.994a.594.594,0,0,1-.068-1.183l11.124-1.321a.593.593,0,0,1,.138,1.179L96.235,107.99a.542.542,0,0,1-.07,0" transform="translate(-73.496 -80.94)" fill="#1f1f1f" stroke="#1f1f1f" stroke-width="0.3"/>
            <path id="path-15" data-name="path" d="M81.788,139.737a.594.594,0,0,1-.068-1.183l19.56-2.323a.593.593,0,0,1,.138,1.179l-19.56,2.323a.639.639,0,0,1-.07,0" transform="translate(-62.44 -104.527)" fill="#1f1f1f" stroke="#1f1f1f" stroke-width="0.3"/>
            <path id="path-16" data-name="path" d="M137.022,202.485a.584.584,0,0,1-.268-.065.6.6,0,0,1-.256-.8,2.875,2.875,0,0,1,1.828-1.539,4.3,4.3,0,0,1,3.259.619,1.82,1.82,0,0,0,2.089-.282.586.586,0,0,1,.831.065.6.6,0,0,1-.064.837,2.969,2.969,0,0,1-3.493.379,3.126,3.126,0,0,0-2.315-.472,1.682,1.682,0,0,0-1.085.933.589.589,0,0,1-.525.323" transform="translate(-104.912 -153.439)" fill="#1f1f1f" stroke="#1f1f1f" stroke-width="0.3"/>
            <path id="point" d="M180.966,118.85a1.776,1.776,0,0,1-1.761-1.591l-.268-2.5a8.407,8.407,0,0,1,.634-4.207l6.74-15.669a2.3,2.3,0,0,1,3.033-1.208l2.824,1.232a2.33,2.33,0,0,1,1.2,3.055l-6.74,15.669a8.343,8.343,0,0,1-2.613,3.343h0l-1.992,1.512a1.746,1.746,0,0,1-1.058.361m2.7-2.347h0Z" transform="translate(-137.561 -71.73)" fill="#501d83"/>
          </g>
        </g>
      </g>
      <g id="item-12" data-name="item" transform="translate(-16 -68)">
        <g id="txt-12" data-name="txt" transform="translate(7.997)">
          <text id="Taejae_University_Foundation_Established" data-name="Taejae University Foundation 
Established" transform="translate(381.003 4582)" fill="#1f1f1f" font-size="12" font-family="Poppins-Medium, Poppins" font-weight="500"><tspan x="0" y="13">Taejae University Foundation </tspan><tspan x="0" y="29">Established</tspan></text>
          <text id="_2022._01" data-name="2022. 01" transform="translate(381.003 4569)" fill="#1f1f1f" font-size="14" font-family="Poppins-SemiBold, Poppins" font-weight="600"><tspan x="0" y="0">2022. 01</tspan></text>
        </g>
        <g id="ico_60_history01" data-name="ico/60/history01" transform="translate(-14 1053)">
          <rect id="base-14" data-name="base" width="60" height="60" transform="translate(319 3501)" fill="none"/>
          <g id="icon-12" data-name="icon" transform="translate(-1443.445 2126.446)">
            <g id="그룹_3050" data-name="그룹 3050" transform="translate(1762.446 1402.205)">
              <g id="그룹_3048" data-name="그룹 3048" transform="translate(0 7.861)">
                <path id="패스_9752" data-name="패스 9752" d="M1781.169,1531.431a.589.589,0,0,1-.581-.5l-1.087-6.977a.589.589,0,0,1,.194-.533l8.549-7.5a1.716,1.716,0,0,0-1.988-2.777l-5.994,3.47a13.58,13.58,0,0,1-3.975,1.535l-8.138,1.737a5.716,5.716,0,0,0-4.516,5.978l.313,4.934a.589.589,0,0,1-1.175.074l-.313-4.935a6.888,6.888,0,0,1,5.443-7.2l8.139-1.737a12.4,12.4,0,0,0,3.63-1.4l5.994-3.47a2.893,2.893,0,0,1,3.354,4.681l-8.305,7.282,1.037,6.657a.589.589,0,0,1-.491.672A.607.607,0,0,1,1781.169,1531.431Z" transform="translate(-1762.446 -1511.744)" fill="#1f1f1f" stroke="#1f1f1f" stroke-width="0.3"/>
              </g>
              <g id="그룹_3049" data-name="그룹 3049" transform="translate(3.834)">
                <path id="패스_9753" data-name="패스 9753" d="M1784.549,1488.681a5.5,5.5,0,1,1,.677-.042A5.5,5.5,0,0,1,1784.549,1488.681Zm.006-9.815a4.387,4.387,0,0,0-.532.032,4.319,4.319,0,1,0,4.815,3.757h0A4.325,4.325,0,0,0,1784.555,1478.866Z" transform="translate(-1779.057 -1477.688)" fill="#1f1f1f" stroke="#1f1f1f" stroke-width="0.3"/>
              </g>
            </g>
            <g id="그룹_3054" data-name="그룹 3054" transform="translate(1797.004 1402.206)">
              <g id="그룹_3051" data-name="그룹 3051" transform="translate(1.951 8.523)">
                <path id="패스_9754" data-name="패스 9754" d="M1943.195,1533.641h-.038a.589.589,0,0,1-.55-.625l.313-4.935a5.716,5.716,0,0,0-4.517-5.978l-8.136-1.737a13.576,13.576,0,0,1-3.976-1.536l-5.379-3.116a.589.589,0,1,1,.59-1.018l5.379,3.116a12.407,12.407,0,0,0,3.632,1.4l8.137,1.737a6.888,6.888,0,0,1,5.444,7.2l-.313,4.936A.589.589,0,0,1,1943.195,1533.641Z" transform="translate(-1920.618 -1514.616)" fill="#1f1f1f" stroke="#1f1f1f" stroke-width="0.3"/>
              </g>
              <g id="그룹_3052" data-name="그룹 3052" transform="translate(0 13.068)">
                <path id="패스_9755" data-name="패스 9755" d="M1918.883,1548.784a.606.606,0,0,1-.091-.007.589.589,0,0,1-.491-.672l1.037-6.657-6.972-6.113a.589.589,0,1,1,.776-.885l7.216,6.326a.589.589,0,0,1,.194.533l-1.087,6.977A.588.588,0,0,1,1918.883,1548.784Z" transform="translate(-1912.165 -1534.303)" fill="#1f1f1f" stroke="#1f1f1f" stroke-width="0.3"/>
              </g>
              <g id="그룹_3053" data-name="그룹 3053" transform="translate(10.614 0)">
                <path id="패스_9756" data-name="패스 9756" d="M1963.647,1488.683a5.5,5.5,0,0,1-5.458-6.169h0a5.5,5.5,0,1,1,5.458,6.169Zm-4.29-6.025h0a4.319,4.319,0,1,0,4.815-3.757A4.324,4.324,0,0,0,1959.358,1482.657Z" transform="translate(-1958.148 -1477.691)" fill="#1f1f1f" stroke="#1f1f1f" stroke-width="0.3"/>
              </g>
            </g>
            <g id="그룹_3057" data-name="그룹 3057" transform="translate(1779.066 1379.553)">
              <g id="그룹_3055" data-name="그룹 3055" transform="translate(7.755 7.804)">
                <path id="패스_9757" data-name="패스 9757" d="M1868.638,1455.76a.582.582,0,0,1-.232-.048.588.588,0,0,1-.308-.773l17.691-41.218a.588.588,0,1,1,1.081.464l-17.691,41.218A.588.588,0,0,1,1868.638,1455.76Z" transform="translate(-1868.049 -1413.364)" fill="#1f1f1f" stroke="#1f1f1f" stroke-width="0.3"/>
              </g>
              <g id="그룹_3056" data-name="그룹 3056" transform="translate(0 0)">
                <path id="패스_9758" data-name="패스 9758" d="M1854.827,1401.721a.588.588,0,0,1-.439-.2,10.8,10.8,0,0,0-4.809-3.034c-.308-.1-3.566-.887-3.887-.947-.391-.073-.784-.143-1.177-.214-3.341-.6-6.8-1.215-9.526-3.57a1.536,1.536,0,0,1-.532-1.315,1.581,1.581,0,0,1,.767-1.218c1.448-.859,3.018-1.908,4.792-3.2-.244-2.39-.4-4.732-.488-7.148a1.276,1.276,0,0,1,2.078-1.037c2.458,2.014,5.527,2.563,8.776,3.144,3.777.676,7.683,1.374,10.542,4.568a.587.587,0,0,1,.1.625l-5.659,13.186a.588.588,0,0,1-.446.349A.624.624,0,0,1,1854.827,1401.721Z" transform="translate(-1834.45 -1379.553)" fill="#501d83"/>
              </g>
            </g>
          </g>
        </g>
      </g>
    </g>
    <g id="txt-13" data-name="txt" transform="translate(-254 -3553)">
      <text id="Full_of_Firsts" data-name="Full of Firsts" transform="translate(298 4558)" fill="#1f1f1f" font-size="19" font-family="Poppins-Medium, Poppins" font-weight="500"><tspan x="0" y="0">Full of </tspan><tspan y="0" fill="#501d83" font-family="Poppins-MediumItalic, Poppins" font-style="italic">Firsts</tspan></text>
      <text id="Taejae_Early_Origins" data-name="Taejae Early Origins" transform="translate(298 4530)" fill="#1f1f1f" font-size="22" font-family="Poppins-SemiBold, Poppins" font-weight="600"><tspan x="0" y="0">Taejae Early Origins</tspan></text>
    </g>
  </g>
</svg>
