<svg xmlns="http://www.w3.org/2000/svg" width="1400" height="887" viewBox="0 0 1400 887">
  <g id="img_history_graph" transform="translate(-260 -3864)">
    <path id="path" d="M2977-6980l155-18,372-6,404-82,346-490v610H2977Z" transform="translate(-2594 11440)" fill="#999"/>
    <path id="path-2" data-name="path" d="M2854-6980h553l12.1-2.4,6.236,2.4h3.08l6.39-3.713,3.849,3.713h151.773l39.429-4.429,11-3.143,8.286,3.143H3659l7.572-3.143h18.286l4.428-4.857h10.286l4.286-7.143,3,1.428,4-3,6,8.714,7-5.714h4l9.714,5.714,7,4.857h10.286l6.714-4.857h6.286l2.143-4.286h5l8.714-4.429,5.143,1.572,8.571-9h9.857l3,4.143,16.857-14h11.572l1.857,2.714,3.857-6.857,6.286,2.428,4-5.286,2.857,5.286,11.571-26,4.429,3.714h5.143l7.428-13,6,13h4.143l5.572,14.572h11.571l3.143,5.286,7-11.429,2.571,3,8.143-11.429,4.429,8.429,20.857-25.571,4,2.428,5.571-15.428,5,8.571,4.143-15.143,4.572,3.429,5.714-6.429,11.428,17,5.286-7.428,9.286,19.571,4.857-11,3.286,12.571,4.143-5.714,2,4.143,9.571-14.571L4045-7064l11.572-27.571h3.857l2.857-6.286,3.857,8.428,4.286-18.143,4,7.428,3.286-13.857,9.857,5,2.428-9.286,6,10.714,2.857-19h6.857l2.714-33.143h2.857l3.143,5.714,6.857,51.429,11.714-34,4.143,20.286s5-31.285,5.428-30.571,4.143,4.714,4.143,4.714l14.429-79.571,7,43.571,10-85.571,5.428-119,6.429,63.571,7.429-80.428,6,43.428,5.428-34.857,3.857,21.857,8.429-85.286,3.714,31.572L4234.714-7536l6.143,39.143,3.143-29,6.143,103L4254-7419v730H2854Z" transform="translate(-2594 11440)" fill="#eee"/>
  </g>
</svg>
