<svg xmlns="http://www.w3.org/2000/svg" width="1400" height="864" viewBox="0 0 1400 864">
  <g id="diagram_curriculum" data-name="diagram/curriculum" transform="translate(-260 -1966)">
    <g id="year" transform="translate(0 19)">
      <g id="_4" data-name="4" transform="translate(1053)">
        <rect id="base" width="347" height="65" transform="translate(260 2746)" fill="#5e5e5e"/>
      </g>
      <g id="_3" data-name="3" transform="translate(702)">
        <rect id="base-2" data-name="base" width="347" height="65" transform="translate(260 2746)" fill="#5e5e5e"/>
      </g>
      <g id="_2" data-name="2" transform="translate(351)">
        <rect id="base-3" data-name="base" width="347" height="65" transform="translate(260 2746)" fill="#5e5e5e"/>
      </g>
      <g id="_1" data-name="1">
        <rect id="base-4" data-name="base" width="347" height="65" transform="translate(260 2746)" fill="#5e5e5e"/>
      </g>
    </g>
    <g id="divider" transform="translate(0 58.62)">
      <rect id="divider-2" data-name="divider" width="1" height="795" transform="translate(345 1911.38)" fill="#dbdbdb"/>
      <rect id="divider-3" data-name="divider" width="1" height="795" transform="translate(521 1911.38)" fill="#dbdbdb"/>
      <rect id="divider-4" data-name="divider" width="1" height="795" transform="translate(696 1911.38)" fill="#dbdbdb"/>
      <rect id="divider-5" data-name="divider" width="1" height="795" transform="translate(872 1911.38)" fill="#dbdbdb"/>
      <rect id="divider-6" data-name="divider" width="1" height="795" transform="translate(1047 1911.38)" fill="#dbdbdb"/>
      <rect id="divider-7" data-name="divider" width="1" height="795" transform="translate(1223 1911.38)" fill="#dbdbdb"/>
      <rect id="divider-8" data-name="divider" width="1" height="795" transform="translate(1398 1911.38)" fill="#dbdbdb"/>
      <rect id="divider-9" data-name="divider" width="1" height="795" transform="translate(1574 1911.38)" fill="#dbdbdb"/>
    </g>
    <g id="second_language" data-name="second language" transform="translate(0 57)">
      <g id="_1y-2" data-name="1y-2" transform="translate(1053.5 -240)">
        <rect id="base-5" data-name="base" width="171.5" height="212" rx="4" transform="translate(435 2696)" fill="#00a597"/>
      </g>
      <g id="_2y-1" data-name="2y-1" transform="translate(702)">
        <g id="_2y-2" data-name="2y-2" transform="translate(176 -78)">
          <rect id="base-6" data-name="base" width="171.5" height="50" rx="4" transform="translate(435 2696)" fill="#89d3ce"/>
        </g>
        <g id="_2y-2-2" data-name="2y-2" transform="translate(176 -132)">
          <rect id="base-7" data-name="base" width="171.5" height="50" rx="4" transform="translate(435 2696)" fill="#63c6be"/>
        </g>
        <g id="_2y-2-3" data-name="2y-2" transform="translate(176 -186)">
          <rect id="base-8" data-name="base" width="171.5" height="50" rx="4" transform="translate(435 2696)" fill="#32b5aa"/>
        </g>
        <g id="_2y-1-2" data-name="2y-1" transform="translate(176 -240)">
          <rect id="base-9" data-name="base" width="171.5" height="50" rx="4" transform="translate(435 2696)" fill="#00a597"/>
        </g>
      </g>
      <g id="_2y-1-3" data-name="2y-1" transform="translate(526.5)">
        <g id="_2y-2-4" data-name="2y-2" transform="translate(176 -78)">
          <rect id="base-10" data-name="base" width="171.5" height="50" rx="4" transform="translate(435 2696)" fill="#89d3ce"/>
        </g>
        <g id="_2y-2-5" data-name="2y-2" transform="translate(176 -132)">
          <rect id="base-11" data-name="base" width="171.5" height="50" rx="4" transform="translate(435 2696)" fill="#63c6be"/>
        </g>
        <g id="_2y-2-6" data-name="2y-2" transform="translate(176 -186)">
          <rect id="base-12" data-name="base" width="171.5" height="50" rx="4" transform="translate(435 2696)" fill="#32b5aa"/>
        </g>
        <g id="_2y-1-4" data-name="2y-1" transform="translate(176 -240)">
          <rect id="base-13" data-name="base" width="171.5" height="50" rx="4" transform="translate(435 2696)" fill="#00a597"/>
        </g>
      </g>
      <g id="_2y-1-5" data-name="2y-1" transform="translate(351)">
        <g id="_2y-2-7" data-name="2y-2" transform="translate(176 -78)">
          <rect id="base-14" data-name="base" width="171.5" height="50" rx="4" transform="translate(435 2696)" fill="#89d3ce"/>
        </g>
        <g id="_2y-2-8" data-name="2y-2" transform="translate(176 -132)">
          <rect id="base-15" data-name="base" width="171.5" height="50" rx="4" transform="translate(435 2696)" fill="#63c6be"/>
        </g>
        <g id="_2y-2-9" data-name="2y-2" transform="translate(176 -186)">
          <rect id="base-16" data-name="base" width="171.5" height="50" rx="4" transform="translate(435 2696)" fill="#32b5aa"/>
        </g>
        <g id="_2y-1-6" data-name="2y-1" transform="translate(176 -240)">
          <rect id="base-17" data-name="base" width="171.5" height="50" rx="4" transform="translate(435 2696)" fill="#00a597"/>
        </g>
      </g>
      <g id="_2y-1-7" data-name="2y-1" transform="translate(175.5)">
        <g id="_2y-2-10" data-name="2y-2" transform="translate(176 -78)">
          <rect id="base-18" data-name="base" width="171.5" height="50" rx="4" transform="translate(435 2696)" fill="#89d3ce"/>
        </g>
        <g id="_2y-2-11" data-name="2y-2" transform="translate(176 -132)">
          <rect id="base-19" data-name="base" width="171.5" height="50" rx="4" transform="translate(435 2696)" fill="#63c6be"/>
        </g>
        <g id="_2y-2-12" data-name="2y-2" transform="translate(176 -186)">
          <rect id="base-20" data-name="base" width="171.5" height="50" rx="4" transform="translate(435 2696)" fill="#32b5aa"/>
        </g>
        <g id="_2y-1-8" data-name="2y-1" transform="translate(176 -240)">
          <rect id="base-21" data-name="base" width="171.5" height="50" rx="4" transform="translate(435 2696)" fill="#00a597"/>
        </g>
      </g>
      <g id="_2y-1-9" data-name="2y-1">
        <g id="_2y-2-13" data-name="2y-2" transform="translate(176 -78)">
          <rect id="base-22" data-name="base" width="171.5" height="50" rx="4" transform="translate(435 2696)" fill="#89d3ce"/>
        </g>
        <g id="_2y-2-14" data-name="2y-2" transform="translate(176 -132)">
          <rect id="base-23" data-name="base" width="171.5" height="50" rx="4" transform="translate(435 2696)" fill="#63c6be"/>
        </g>
        <g id="_2y-2-15" data-name="2y-2" transform="translate(176 -186)">
          <rect id="base-24" data-name="base" width="171.5" height="50" rx="4" transform="translate(435 2696)" fill="#32b5aa"/>
        </g>
        <g id="_2y-1-10" data-name="2y-1" transform="translate(176 -240)">
          <rect id="base-25" data-name="base" width="171.5" height="50" rx="4" transform="translate(435 2696)" fill="#00a597"/>
        </g>
      </g>
      <g id="_1y-2-2" data-name="1y-2" transform="translate(0.5 -240)">
        <rect id="base-26" data-name="base" width="171.5" height="212" rx="4" transform="translate(435 2696)" fill="#00a597"/>
      </g>
    </g>
    <rect id="divider-10" data-name="divider" width="1400" height="1" transform="translate(260 2508)" fill="#5e5e5e"/>
    <g id="second_language-2" data-name="second language" transform="translate(0 -2)">
      <g id="_2y-1-11" data-name="2y-1" transform="translate(176 -240)">
        <rect id="base-27" data-name="base" width="171.5" height="50" rx="4" transform="translate(435 2696)" fill="#97999b"/>
      </g>
      <g id="_1y-2-3" data-name="1y-2" transform="translate(0.5 -240)">
        <rect id="base-28" data-name="base" width="171.5" height="50" rx="4" transform="translate(435 2696)" fill="#97999b"/>
      </g>
      <g id="_1y-1" data-name="1y-1" transform="translate(0 -240)">
        <rect id="base-29" data-name="base" width="171.5" height="50" rx="4" transform="translate(260 2696)" fill="#97999b"/>
      </g>
    </g>
    <rect id="divider-11" data-name="divider" width="1400" height="1" transform="translate(260 2449)" fill="#5e5e5e"/>
    <g id="그룹_3056" data-name="그룹 3056" transform="translate(0 11)">
      <g id="_4y-2" data-name="4y-2" transform="translate(1053.5 -789)">
        <rect id="base-30" data-name="base" width="171.5" height="70" rx="4" transform="translate(435 2793)" fill="#501d83"/>
      </g>
      <g id="_4y-1-2" data-name="4y-1-2" transform="translate(878 -753)">
        <rect id="base-31" data-name="base" width="171.5" height="70" rx="4" transform="translate(435 2790)" fill="#501d83"/>
      </g>
      <g id="_4y-1-2-2" data-name="4y-1-2" transform="translate(878 -676)">
        <rect id="base-32" data-name="base" width="171.5" height="70" rx="4" transform="translate(435 2787)" fill="#72489a"/>
      </g>
      <g id="_3y-2-3" data-name="3y-2-3" transform="translate(702.5 -605)">
        <rect id="base-33" data-name="base" width="171.5" height="70" rx="4" transform="translate(435 2679)" fill="#501d83"/>
      </g>
      <g id="_3y-2-2" data-name="3y-2-2" transform="translate(702.5 -528)">
        <rect id="base-34" data-name="base" width="171.5" height="70" rx="4" transform="translate(435 2676)" fill="#72489a"/>
      </g>
      <g id="_3y-2-1" data-name="3y-2-1" transform="translate(702.5 -474)">
        <rect id="base-35" data-name="base" width="171.5" height="50" rx="4" transform="translate(435 2696)" fill="#9374b2"/>
      </g>
      <g id="_3y-1-2" data-name="3y-1-2" transform="translate(527 -528)">
        <rect id="base-36" data-name="base" width="171.5" height="70" rx="4" transform="translate(435 2730)" fill="#501d83"/>
      </g>
      <g id="_3y-1-1" data-name="3y-1-1" transform="translate(527 -420)">
        <rect id="base-37" data-name="base" width="171.5" height="50" rx="4" transform="translate(435 2696)" fill="#9374b2"/>
      </g>
      <g id="_2y-2-2-2" data-name="2y-2-2" transform="translate(351.5 -420)">
        <rect id="base-38" data-name="base" width="171.5" height="50" rx="4" transform="translate(435 2696)" fill="#9374b2"/>
      </g>
      <g id="_2y-2-1" data-name="2y-2-1" transform="translate(351.5 -366)">
        <rect id="base-39" data-name="base" width="171.5" height="50" rx="4" transform="translate(435 2696)" fill="#9374b2"/>
      </g>
      <g id="_2y-1-12" data-name="2y-1" transform="translate(176 -366)">
        <rect id="base-40" data-name="base" width="171.5" height="50" rx="4" transform="translate(435 2696)" fill="#9374b2"/>
      </g>
      <g id="_1y-2-4" data-name="1y-2" transform="translate(0.5 -312)">
        <rect id="base-41" data-name="base" width="171.5" height="50" rx="4" transform="translate(435 2696)" fill="#b6a0cb"/>
      </g>
      <g id="_1y-1-2" data-name="1y-1" transform="translate(0 -312)">
        <rect id="base-42" data-name="base" width="171.5" height="50" rx="4" transform="translate(260 2696)" fill="#b6a0cb"/>
      </g>
    </g>
    <g id="contury" transform="translate(-0.5 -1895)">
      <g id="arrow" transform="translate(260.5 3862)">
        <rect id="arrow-2" data-name="arrow" width="1400" height="1" transform="translate(0 3)" fill="#1f1f1f"/>
        <path id="패스_15863" data-name="패스 15863" d="M0,0,7.828,4.5,0,9Z" transform="translate(1223 -1)" fill="#1f1f1f"/>
        <path id="패스_15865" data-name="패스 15865" d="M0,0,7.828,4.5,0,9Z" transform="translate(872 -1)" fill="#1f1f1f"/>
        <path id="패스_15866" data-name="패스 15866" d="M0,0,7.828,4.5,0,9Z" transform="translate(696 -1)" fill="#1f1f1f"/>
        <path id="패스_15873" data-name="패스 15873" d="M0,0,7.828,4.5,0,9Z" transform="translate(521 -1)" fill="#1f1f1f"/>
        <path id="패스_15864" data-name="패스 15864" d="M0,0,7.828,4.5,0,9Z" transform="translate(1047 -1)" fill="#1f1f1f"/>
        <circle id="타원_64" data-name="타원 64" cx="3.5" cy="3.5" r="3.5" transform="translate(1393)" fill="#1f1f1f"/>
      </g>
    </g>
  </g>
</svg>
