<svg id="logo_white_open" xmlns="http://www.w3.org/2000/svg" xmlns:xlink="http://www.w3.org/1999/xlink" width="130" height="52" viewBox="0 0 130 52">
  <defs>
    <clipPath id="clip-path">
      <rect id="mask" width="130" height="52" fill="none"/>
    </clipPath>
  </defs>
  <g id="mask-2" data-name="mask" clip-path="url(#clip-path)">
    <path id="패스_819" data-name="패스 819" d="M73.465,23.732h-13v26h-13V62.5a22.76,22.76,0,0,0,26-22.507Z" transform="translate(-21.465 -10.732)" fill="#fff"/>
    <path id="패스_820" data-name="패스 820" d="M112.017,23.71h10.936V26h-4.094V37.061h-2.748V26h-4.094Z" transform="translate(-50.917 -10.722)" fill="#fff"/>
    <path id="패스_821" data-name="패스 821" d="M130.734,37.062l4.629-13.352h3.559l4.61,13.352h-2.969l-1.005-3.08h-4.831l-1.005,3.08Zm8.124-5.237-1.669-5.108H137.1l-1.669,5.108Z" transform="translate(-59.381 -10.722)" fill="#fff"/>
    <path id="패스_822" data-name="패스 822" d="M156.859,23.71h8.962V26h-6.2v3.246h5.735v2.286h-5.735v3.246h6.215v2.287h-8.981Z" transform="translate(-71.195 -10.722)" fill="#fff"/>
    <path id="패스_823" data-name="패스 823" d="M184.628,23.71v9.313c0,2.591-1.835,4.223-4.518,4.223-2.416,0-4.306-1.272-4.3-3.91h2.766a1.559,1.559,0,0,0,1.66,1.678c1.06,0,1.641-.683,1.641-1.992V23.71Z" transform="translate(-79.767 -10.722)" fill="#fff"/>
    <path id="패스_824" data-name="패스 824" d="M194.632,37.062,199.26,23.71h3.559l4.61,13.352h-2.968l-1.006-3.08h-4.831l-1.006,3.08Zm8.124-5.237-1.67-5.108h-.092l-1.669,5.108Z" transform="translate(-88.277 -10.722)" fill="#fff"/>
    <path id="패스_825" data-name="패스 825" d="M220.756,23.71h8.962V26h-6.2v3.246h5.735v2.286h-5.735v3.246h6.215v2.287h-8.981Z" transform="translate(-100.091 -10.722)" fill="#fff"/>
    <path id="패스_826" data-name="패스 826" d="M121.107,61.438a1.684,1.684,0,0,1-3.366,0V56.265h-1.694v5.309c0,1.791,1.344,2.988,3.378,2.982s3.389-1.191,3.389-2.982V56.265h-1.706Z" transform="translate(-52.739 -25.444)" fill="#fff"/>
    <path id="패스_827" data-name="패스 827" d="M136.515,61.461h-.079l-3.569-5.2h-1.491v8.178h1.694v-5.2h.067l3.592,5.2H138.2V56.266h-1.683Z" transform="translate(-59.671 -25.444)" fill="#fff"/>
    <rect id="사각형_174" data-name="사각형 174" width="1.694" height="8.178" transform="translate(80.157 30.821)" fill="#fff"/>
    <path id="패스_828" data-name="패스 828" d="M155.3,62.5h-.079l-1.988-6.235h-1.9l2.835,8.178h2.18l2.824-8.178H157.3Z" transform="translate(-68.696 -25.444)" fill="#fff"/>
    <path id="패스_829" data-name="패스 829" d="M168.77,61.054h3.513v-1.4H168.77V57.666h3.795v-1.4h-5.489v8.178h5.5v-1.4H168.77Z" transform="translate(-75.815 -25.444)" fill="#fff"/>
    <path id="패스_830" data-name="패스 830" d="M186.081,58.93c0-1.621-1.068-2.665-2.926-2.665h-3.208v8.178h1.694v-2.9h1.293l1.564,2.9h1.875l-1.739-3.18a2.363,2.363,0,0,0,1.446-2.332m-3.242,1.231h-1.2V57.654h1.2c1.005.006,1.5.452,1.491,1.276s-.486,1.231-1.491,1.231" transform="translate(-81.637 -25.444)" fill="#fff"/>
    <path id="패스_831" data-name="패스 831" d="M196.871,59.617l-.734-.181c-.706-.158-1.316-.423-1.31-1.017.005-.542.485-.937,1.344-.937.83,0,1.344.379,1.412,1.028h1.626c-.022-1.446-1.214-2.451-3.027-2.451-1.79,0-3.1.988-3.095,2.473,0,1.2.847,1.887,2.225,2.226l.892.214c.892.221,1.4.48,1.4,1.04,0,.61-.576,1.028-1.468,1.028s-1.559-.418-1.615-1.242h-1.649c.051,1.756,1.31,2.671,3.287,2.665,1.993.005,3.157-.954,3.163-2.451-.006-1.361-1.051-2.073-2.451-2.395" transform="translate(-87.481 -25.351)" fill="#fff"/>
    <rect id="사각형_175" data-name="사각형 175" width="1.694" height="8.178" transform="translate(113.072 30.821)" fill="#fff"/>
    <path id="패스_832" data-name="패스 832" d="M223.983,56.265l-1.875,3.524h-.079l-1.887-3.524h-8.554v1.4H214.1v6.777h1.683V57.666h2.507V56.36l2.928,5.169v2.914h1.694V61.529l2.982-5.264Z" transform="translate(-95.946 -25.444)" fill="#fff"/>
    <rect id="사각형_176" data-name="사각형 176" width="13" height="13" transform="translate(0 0.001)" fill="#fff"/>
    <path id="패스_833" data-name="패스 833" d="M36.732,0l-13,13V39h13V13h13V0Z" transform="translate(-10.732 0)" fill="#fff"/>
  </g>
</svg>
