<svg id="school_of_natural_sciences" data-name="school of natural sciences" xmlns="http://www.w3.org/2000/svg" width="304" height="142.149" viewBox="0 0 304 142.149">
  <g id="그룹_569" data-name="그룹 569">
    <g id="그룹_556" data-name="그룹 556" transform="translate(143.261 30.324)">
      <g id="그룹_555" data-name="그룹 555">
        <g id="그룹_553" data-name="그룹 553">
          <path id="패스_1768" data-name="패스 1768" d="M1152.148,2160.972h25.531v5.338h-9.559v25.833H1161.7V2166.31h-9.557Z" transform="translate(-1152.148 -2160.972)" fill="#501d83"/>
          <path id="패스_1769" data-name="패스 1769" d="M1163.032,2192.143l10.806-31.171h8.31l10.764,31.171h-6.933l-2.344-7.19h-11.281l-2.347,7.19ZM1182,2179.916l-3.9-11.927h-.216l-3.9,11.927Z" transform="translate(-1139.093 -2160.972)" fill="#501d83"/>
          <path id="패스_1770" data-name="패스 1770" d="M1178.222,2160.972h20.926v5.338h-14.466v7.578h13.39v5.34h-13.39v7.578h14.508v5.338h-20.968Z" transform="translate(-1120.873 -2160.972)" fill="#501d83"/>
          <path id="패스_1771" data-name="패스 1771" d="M1209.823,2160.972v21.742c0,6.051-4.282,9.86-10.549,9.86-5.639,0-10.053-2.972-10.031-9.128h6.46a3.637,3.637,0,0,0,3.873,3.917c2.477,0,3.833-1.592,3.833-4.65v-21.742Z" transform="translate(-1107.653 -2160.972)" fill="#501d83"/>
          <path id="패스_1772" data-name="패스 1772" d="M1200.186,2192.143l10.806-31.171h8.309l10.764,31.171h-6.931l-2.347-7.19h-11.281l-2.347,7.19Zm18.966-12.227-3.9-11.927h-.216l-3.9,11.927Z" transform="translate(-1094.528 -2160.972)" fill="#501d83"/>
          <path id="패스_1773" data-name="패스 1773" d="M1215.376,2160.972H1236.3v5.338h-14.466v7.578h13.39v5.34h-13.39v7.578h14.51v5.338h-20.97Z" transform="translate(-1076.308 -2160.972)" fill="#501d83"/>
        </g>
        <g id="그룹_554" data-name="그룹 554" transform="translate(5.156 41.372)">
          <path id="패스_1774" data-name="패스 1774" d="M1166.306,2191.979a3.932,3.932,0,0,1-7.859,0V2179.9h-3.955V2192.3c0,4.179,3.136,6.974,7.885,6.961,4.733.013,7.911-2.782,7.911-6.961V2179.9h-3.983Z" transform="translate(-1154.492 -2179.638)" fill="#501d83"/>
          <path id="패스_1775" data-name="패스 1775" d="M1175.4,2192.033h-.184l-8.334-12.131H1163.4v19.093h3.956v-12.131h.158l8.386,12.131h3.428V2179.9h-3.93Z" transform="translate(-1143.802 -2179.639)" fill="#501d83"/>
          <rect id="사각형_177" data-name="사각형 177" width="3.956" height="19.093" transform="translate(39.338 0.263)" fill="#501d83"/>
          <path id="패스_1776" data-name="패스 1776" d="M1184.265,2194.459h-.185l-4.642-14.557h-4.43l6.619,19.093h5.09l6.593-19.093h-4.378Z" transform="translate(-1129.883 -2179.639)" fill="#501d83"/>
          <path id="패스_1777" data-name="패스 1777" d="M1188.119,2191.083h8.2v-3.271h-8.2v-4.642h8.861v-3.27h-12.817v19.093h12.843v-3.27h-8.887Z" transform="translate(-1118.903 -2179.639)" fill="#501d83"/>
          <path id="패스_1778" data-name="패스 1778" d="M1205.967,2186.125c0-3.783-2.492-6.222-6.829-6.222h-7.489v19.091h3.955v-6.777h3.02l3.654,6.777h4.377l-4.06-7.423A5.515,5.515,0,0,0,1205.967,2186.125ZM1198.4,2189h-2.8v-5.855h2.8c2.347.014,3.495,1.056,3.482,2.98C1201.893,2188.036,1200.745,2189,1198.4,2189Z" transform="translate(-1109.925 -2179.638)" fill="#501d83"/>
          <path id="패스_1779" data-name="패스 1779" d="M1208.5,2188.09l-1.715-.422c-1.647-.37-3.073-.99-3.06-2.373.013-1.268,1.135-2.191,3.138-2.191,1.938,0,3.139.884,3.3,2.4h3.8c-.051-3.374-2.833-5.721-7.067-5.721-4.179,0-7.239,2.308-7.225,5.773,0,2.8,1.977,4.406,5.2,5.2l2.083.5c2.083.515,3.271,1.122,3.271,2.426,0,1.425-1.346,2.4-3.429,2.4-2.11,0-3.638-.976-3.77-2.9h-3.851c.119,4.1,3.059,6.235,7.674,6.222,4.654.013,7.371-2.228,7.384-5.723C1214.208,2190.5,1211.768,2188.839,1208.5,2188.09Z" transform="translate(-1100.911 -2179.782)" fill="#501d83"/>
          <rect id="사각형_178" data-name="사각형 178" width="3.956" height="19.093" transform="translate(116.186 0.263)" fill="#501d83"/>
          <path id="패스_1780" data-name="패스 1780" d="M1238.983,2179.9l-4.378,8.228h-.184l-4.4-8.228h-19.97v3.27h5.854v15.823h3.929v-15.823h5.854v-3.048l6.837,12.068v6.8h3.956v-6.8l6.962-12.289Z" transform="translate(-1087.856 -2179.639)" fill="#501d83"/>
        </g>
      </g>
    </g>
    <g id="그룹_568" data-name="그룹 568">
      <g id="그룹_559" data-name="그룹 559">
        <g id="그룹_558" data-name="그룹 558">
          <rect id="사각형_179" data-name="사각형 179" width="30.352" height="30.352" fill="#118f82"/>
          <g id="그룹_557" data-name="그룹 557" transform="translate(30.352 0.001)">
            <path id="패스_1781" data-name="패스 1781" d="M1131.165,2147.186l-30.351,30.352v60.7h30.351v-60.7h30.352v-30.352Z" transform="translate(-1100.813 -2147.186)" fill="#371c66"/>
            <path id="패스_1782" data-name="패스 1782" d="M1175.316,2160.985h-30.353v60.7h-30.35V2251.5a53.136,53.136,0,0,0,60.7-52.547Z" transform="translate(-1084.261 -2130.633)" fill="#371c66"/>
          </g>
          <path id="패스_1783" data-name="패스 1783" d="M1114.613,2191.336v-30.352h30.352Z" transform="translate(-1053.909 -2130.633)" fill="#319626"/>
        </g>
      </g>
      <g id="그룹_563" data-name="그룹 563">
        <g id="그룹_562" data-name="그룹 562">
          <g id="그룹_561" data-name="그룹 561">
            <rect id="사각형_180" data-name="사각형 180" width="30.352" height="30.352" fill="#118f82"/>
            <g id="그룹_560" data-name="그룹 560" transform="translate(30.352 0.001)">
              <path id="패스_1784" data-name="패스 1784" d="M1131.165,2147.186l-30.351,30.352v60.7h30.351v-60.7h30.352v-30.352Z" transform="translate(-1100.813 -2147.186)" fill="#371c66"/>
              <path id="패스_1785" data-name="패스 1785" d="M1175.316,2160.985h-30.353v60.7h-30.35V2251.5a53.136,53.136,0,0,0,60.7-52.547Z" transform="translate(-1084.261 -2130.633)" fill="#371c66"/>
            </g>
          </g>
        </g>
      </g>
      <g id="그룹_567" data-name="그룹 567">
        <g id="그룹_566" data-name="그룹 566">
          <g id="그룹_565" data-name="그룹 565">
            <rect id="사각형_181" data-name="사각형 181" width="30.352" height="30.352" fill="#00a497"/>
            <g id="그룹_564" data-name="그룹 564" transform="translate(30.352 0.001)">
              <path id="패스_1786" data-name="패스 1786" d="M1131.165,2147.186l-30.351,30.352v60.7h30.351v-60.7h30.352v-30.352Z" transform="translate(-1100.813 -2147.186)" fill="#501d83"/>
              <path id="패스_1787" data-name="패스 1787" d="M1175.316,2160.985h-30.353v60.7h-30.35V2251.5a53.136,53.136,0,0,0,60.7-52.547Z" transform="translate(-1084.261 -2130.633)" fill="#501d83"/>
            </g>
          </g>
        </g>
      </g>
    </g>
  </g>
  <g id="그룹_570" data-name="그룹 570" transform="translate(149.043 108.739)">
    <path id="패스_1788" data-name="패스 1788" d="M1159.658,2198.912c-1.269,0-1.982.583-1.991,1.388-.006.875.9,1.269,1.94,1.5l1.084.269c2.074.475,3.621,1.531,3.629,3.543-.009,2.212-1.729,3.636-4.68,3.626-2.923.009-4.788-1.346-4.863-3.946h2.439c.086,1.221,1.053,1.839,2.391,1.839,1.32,0,2.173-.618,2.173-1.52,0-.827-.752-1.212-2.074-1.54l-1.318-.315c-2.041-.5-3.292-1.524-3.292-3.292-.009-2.2,1.929-3.66,4.579-3.66,2.681,0,4.445,1.485,4.478,3.625h-2.406C1161.646,2199.473,1160.885,2198.912,1159.658,2198.912Z" transform="translate(-1154.777 -2196.405)" fill="#501d83"/>
    <path id="패스_1789" data-name="패스 1789" d="M1159.675,2202.885c-.007-2.776,1.7-4.68,4.447-4.68,2.338,0,3.928,1.361,4.027,3.444h-2.323a1.661,1.661,0,0,0-1.669-1.522c-1.188.009-1.975,1-1.975,2.723,0,1.758.77,2.759,1.975,2.759a1.636,1.636,0,0,0,1.669-1.5h2.323c-.108,2.054-1.621,3.469-4.027,3.478C1161.338,2207.574,1159.668,2205.652,1159.675,2202.885Z" transform="translate(-1148.902 -2194.729)" fill="#501d83"/>
    <path id="패스_1790" data-name="패스 1790" d="M1166.705,2208.983h-2.474v-12.1h2.409v4.612h.1a2.679,2.679,0,0,1,2.708-1.7c1.9,0,3.143,1.279,3.143,3.411v5.783h-2.474v-5.349a1.568,1.568,0,0,0-1.636-1.788,1.709,1.709,0,0,0-1.773,1.89Z" transform="translate(-1143.437 -2196.315)" fill="#501d83"/>
    <path id="패스_1791" data-name="패스 1791" d="M1168.734,2202.885c-.009-2.8,1.7-4.68,4.447-4.68s4.454,1.882,4.463,4.68c-.009,2.806-1.713,4.689-4.463,4.7C1170.439,2207.574,1168.725,2205.691,1168.734,2202.885Zm4.463,2.776c1.263-.009,1.929-1.188,1.922-2.776s-.66-2.791-1.922-2.791c-1.293,0-1.955,1.194-1.955,2.791S1171.9,2205.652,1173.2,2205.66Z" transform="translate(-1138.036 -2194.729)" fill="#501d83"/>
    <path id="패스_1792" data-name="패스 1792" d="M1173.329,2202.885c-.009-2.8,1.7-4.68,4.445-4.68s4.456,1.882,4.465,4.68c-.009,2.806-1.716,4.689-4.465,4.7C1175.034,2207.574,1173.32,2205.691,1173.329,2202.885Zm4.463,2.776c1.26-.009,1.929-1.188,1.922-2.776s-.662-2.791-1.922-2.791c-1.3,0-1.958,1.194-1.958,2.791S1176.5,2205.652,1177.792,2205.66Z" transform="translate(-1132.524 -2194.729)" fill="#501d83"/>
    <path id="패스_1793" data-name="패스 1793" d="M1180.565,2208.983h-2.474v-12.1h2.474Z" transform="translate(-1126.813 -2196.315)" fill="#501d83"/>
    <path id="패스_1794" data-name="패스 1794" d="M1181.719,2202.885c-.007-2.8,1.707-4.68,4.447-4.68s4.454,1.882,4.463,4.68c-.009,2.806-1.713,4.689-4.463,4.7C1183.426,2207.574,1181.712,2205.691,1181.719,2202.885Zm4.465,2.776c1.26-.009,1.929-1.188,1.922-2.776s-.662-2.791-1.922-2.791c-1.3,0-1.958,1.194-1.958,2.791S1184.889,2205.652,1186.184,2205.66Z" transform="translate(-1122.461 -2194.729)" fill="#501d83"/>
    <path id="패스_1795" data-name="패스 1795" d="M1191.712,2202.075h-1.8v7.218h-2.474v-7.218h-1.287v-1.856h1.287v-.687a2.68,2.68,0,0,1,2.976-2.908,6.44,6.44,0,0,1,1.471.149v1.872c-.359-.033-.62-.042-.752-.048-.8.006-1.221.308-1.221,1.069v.552h1.8Z" transform="translate(-1117.15 -2196.624)" fill="#501d83"/>
    <path id="패스_1796" data-name="패스 1796" d="M1201.256,2208.983h-2.175l-5.314-7.687h-.1v7.688h-2.507v-12.1h2.206l5.281,7.689h.116v-7.689h2.492Z" transform="translate(-1111.137 -2196.315)" fill="#501d83"/>
    <path id="패스_1797" data-name="패스 1797" d="M1199.838,2202.066c.651-.044,1.87-.1,2.254-.119v-.734c-.009-.759-.526-1.194-1.454-1.2a1.369,1.369,0,0,0-1.5,1h-2.356c.152-1.57,1.522-2.808,3.926-2.808,1.984,0,3.853.886,3.845,3.077v6.117h-2.338v-1.256h-.066a2.791,2.791,0,0,1-2.659,1.423c-1.738.009-3.016-.911-3.024-2.708C1196.471,2202.836,1198.092,2202.174,1199.838,2202.066Zm.35,3.794a1.755,1.755,0,0,0,1.9-1.707v-.66c-.376.018-1.436.077-1.854.11-.86.075-1.4.483-1.4,1.186S1199.4,2205.851,1200.188,2205.861Z" transform="translate(-1104.777 -2194.729)" fill="#501d83"/>
    <path id="패스_1798" data-name="패스 1798" d="M1206.137,2201.3h-1.7v4.427c-.009.726.35.9.853.919.251,0,.684-.026.986-.051v1.955a8.063,8.063,0,0,1-1.322.084c-1.786.006-3.007-.794-2.991-2.558V2201.3h-1.251v-1.856h1.251v-2.173h2.474v2.173h1.7Z" transform="translate(-1099.685 -2195.849)" fill="#501d83"/>
    <path id="패스_1799" data-name="패스 1799" d="M1209.7,2198.258h2.474v9.075H1209.8v-1.639h-.1a2.793,2.793,0,0,1-2.758,1.755c-1.812,0-3.059-1.287-3.059-3.409v-5.782h2.474v5.347a1.568,1.568,0,0,0,1.588,1.755,1.756,1.756,0,0,0,1.755-1.888Z" transform="translate(-1095.873 -2194.664)" fill="#501d83"/>
    <path id="패스_1800" data-name="패스 1800" d="M1208.533,2198.332h2.391v1.57h.1a2.209,2.209,0,0,1,2.188-1.7,4.022,4.022,0,0,1,.785.081v2.208a4.263,4.263,0,0,0-1.051-.134,1.839,1.839,0,0,0-1.94,1.889v5.165h-2.474Z" transform="translate(-1090.298 -2194.738)" fill="#501d83"/>
    <path id="패스_1801" data-name="패스 1801" d="M1214.633,2202.066c.651-.044,1.869-.1,2.254-.119v-.734c-.009-.759-.526-1.194-1.454-1.2a1.369,1.369,0,0,0-1.5,1h-2.356c.15-1.57,1.52-2.808,3.926-2.808,1.984,0,3.853.886,3.844,3.077v6.117h-2.338v-1.256h-.066a2.79,2.79,0,0,1-2.659,1.423c-1.74.009-3.018-.911-3.024-2.708C1211.264,2202.836,1212.887,2202.174,1214.633,2202.066Zm.35,3.794a1.755,1.755,0,0,0,1.9-1.707v-.66c-.376.018-1.436.077-1.854.11-.86.075-1.4.483-1.4,1.186S1214.191,2205.851,1214.983,2205.861Z" transform="translate(-1087.031 -2194.729)" fill="#501d83"/>
    <path id="패스_1802" data-name="패스 1802" d="M1218.272,2208.983H1215.8v-12.1h2.474Z" transform="translate(-1081.584 -2196.315)" fill="#501d83"/>
    <path id="패스_1803" data-name="패스 1803" d="M1159.658,2208.258c-1.269,0-1.982.585-1.991,1.388-.006.877.9,1.269,1.94,1.5l1.084.269c2.074.475,3.621,1.528,3.629,3.541-.009,2.215-1.729,3.638-4.68,3.629-2.923.009-4.788-1.348-4.863-3.946h2.439c.086,1.218,1.053,1.839,2.391,1.839,1.32,0,2.173-.621,2.173-1.522,0-.827-.752-1.212-2.074-1.538l-1.318-.317c-2.041-.5-3.292-1.521-3.292-3.292-.009-2.2,1.929-3.66,4.579-3.66,2.681,0,4.445,1.487,4.478,3.627h-2.406C1161.646,2208.819,1160.885,2208.258,1159.658,2208.258Z" transform="translate(-1154.777 -2185.194)" fill="#501d83"/>
    <path id="패스_1804" data-name="패스 1804" d="M1159.675,2212.231c-.007-2.775,1.7-4.68,4.447-4.68,2.338,0,3.928,1.361,4.027,3.442h-2.323a1.66,1.66,0,0,0-1.669-1.52c-1.188.009-1.975,1-1.975,2.725,0,1.755.77,2.756,1.975,2.756a1.636,1.636,0,0,0,1.669-1.5h2.323c-.108,2.057-1.621,3.471-4.027,3.478C1161.338,2216.921,1159.668,2215,1159.675,2212.231Z" transform="translate(-1148.902 -2183.518)" fill="#501d83"/>
    <path id="패스_1805" data-name="패스 1805" d="M1165.533,2205.917a1.264,1.264,0,1,1-1.355,1.271A1.324,1.324,0,0,1,1165.533,2205.917Zm-1.238,3.71h2.474v9.075h-2.474Z" transform="translate(-1143.501 -2185.478)" fill="#501d83"/>
    <path id="패스_1806" data-name="패스 1806" d="M1166.065,2212.25c-.009-2.8,1.722-4.7,4.379-4.7,2.382,0,4.263,1.5,4.263,4.6v.7h-6.2a2.013,2.013,0,0,0,2.09,2.224,1.751,1.751,0,0,0,1.687-.919h2.358c-.352,1.678-1.856,2.767-4.1,2.774C1167.763,2216.921,1166.056,2215.122,1166.065,2212.25Zm6.3-.955a1.8,1.8,0,0,0-1.872-1.887,1.94,1.94,0,0,0-1.988,1.887Z" transform="translate(-1141.237 -2183.518)" fill="#501d83"/>
    <path id="패스_1807" data-name="패스 1807" d="M1173.18,2216.743h-2.474v-9.075h2.356v1.588h.1a2.746,2.746,0,0,1,2.723-1.7c1.9,0,3.134,1.3,3.128,3.412v5.78h-2.457V2211.4a1.582,1.582,0,0,0-1.639-1.79,1.7,1.7,0,0,0-1.738,1.891Z" transform="translate(-1135.672 -2183.518)" fill="#501d83"/>
    <path id="패스_1808" data-name="패스 1808" d="M1175.193,2212.231c-.009-2.775,1.7-4.68,4.447-4.68,2.338,0,3.928,1.361,4.027,3.442h-2.323a1.661,1.661,0,0,0-1.672-1.52c-1.188.009-1.973,1-1.973,2.725,0,1.755.768,2.756,1.973,2.756a1.637,1.637,0,0,0,1.672-1.5h2.323c-.108,2.057-1.623,3.471-4.027,3.478C1176.856,2216.921,1175.184,2215,1175.193,2212.231Z" transform="translate(-1130.289 -2183.518)" fill="#501d83"/>
    <path id="패스_1809" data-name="패스 1809" d="M1179.582,2212.25c-.009-2.8,1.722-4.7,4.379-4.7,2.382,0,4.26,1.5,4.26,4.6v.7h-6.2a2.014,2.014,0,0,0,2.09,2.224,1.753,1.753,0,0,0,1.689-.919h2.355c-.352,1.678-1.856,2.767-4.093,2.774C1181.278,2216.921,1179.573,2215.122,1179.582,2212.25Zm6.3-.955a1.8,1.8,0,0,0-1.874-1.887,1.942,1.942,0,0,0-1.988,1.887Z" transform="translate(-1125.024 -2183.518)" fill="#501d83"/>
    <path id="패스_1810" data-name="패스 1810" d="M1188.143,2209.307c-.8.009-1.414.382-1.406.935-.009.411.31.728,1.173.9l1.621.334c1.764.367,2.615,1.153,2.622,2.457-.007,1.788-1.61,2.984-4.027,2.991-2.448-.007-3.884-1.1-4.093-2.875h2.49c.117.71.693,1.078,1.6,1.086.9-.008,1.507-.367,1.507-.955,0-.466-.385-.759-1.238-.932l-1.5-.3c-1.729-.343-2.615-1.229-2.607-2.576-.009-1.738,1.487-2.824,3.825-2.824,2.29,0,3.713,1.086,3.845,2.809h-2.321A1.364,1.364,0,0,0,1188.143,2209.307Z" transform="translate(-1119.687 -2183.518)" fill="#501d83"/>
  </g>
  <g id="그룹_571" data-name="그룹 571" transform="translate(148.416 100.397)">
    <rect id="사각형_182" data-name="사각형 182" width="154.883" height="0.728" fill="#501d83"/>
  </g>
</svg>
