<svg id="logo_intro_01" xmlns="http://www.w3.org/2000/svg" xmlns:xlink="http://www.w3.org/1999/xlink" width="530" height="100" viewBox="0 0 530 100">
  <defs>
    <clipPath id="clip-path">
      <rect id="사각형_2470" data-name="사각형 2470" width="529.459" height="99.557" transform="translate(0 0.001)" fill="#501d83"/>
    </clipPath>
  </defs>
  <rect id="base" width="530" height="100" fill="#fff"/>
  <line id="선_1032" data-name="선 1032" y2="49.591" transform="translate(267.322 25.077)" fill="none" stroke="#501d83" stroke-width="2"/>
  <g id="그룹_3195" data-name="그룹 3195" clip-path="url(#clip-path)">
    <g id="그룹_3461" data-name="그룹 3461">
      <path id="패스_29394" data-name="패스 29394" d="M117.479,24.866h20.937v4.378h-7.838V50.428h-5.261V29.244h-7.838Z" fill="#501d83"/>
      <path id="패스_29395" data-name="패스 29395" d="M137.109,50.428l8.862-25.562h6.815l8.826,25.562h-5.684L154,44.532h-9.251l-1.924,5.9ZM152.662,40.4l-3.2-9.78h-.177L146.1,40.4Z" fill="#501d83"/>
      <path id="패스_29396" data-name="패스 29396" d="M164.508,24.866h17.159v4.378H169.8v6.214h10.981v4.378H169.8V46.05h11.9v4.378H164.508Z" fill="#501d83"/>
      <path id="패스_29397" data-name="패스 29397" d="M201.263,24.866V42.7c0,4.961-3.513,8.085-8.65,8.085-4.625,0-8.244-2.436-8.227-7.485h5.3a2.984,2.984,0,0,0,3.178,3.213c2.03,0,3.142-1.306,3.142-3.813V24.866Z" fill="#501d83"/>
      <path id="패스_29398" data-name="패스 29398" d="M204.122,50.428l8.862-25.562H219.8l8.826,25.562h-5.684l-1.924-5.9h-9.251l-1.924,5.9ZM219.675,40.4l-3.2-9.78H216.3l-3.2,9.78Z" fill="#501d83"/>
      <path id="패스_29399" data-name="패스 29399" d="M231.521,24.866H248.68v4.378H236.817v6.214H247.8v4.378H236.817V46.05h11.9v4.378h-17.2Z" fill="#501d83"/>
      <path id="패스_29400" data-name="패스 29400" d="M131.4,68.914a3.224,3.224,0,0,1-6.445,0V59.009h-3.243V69.174c0,3.427,2.573,5.72,6.466,5.709,3.882.011,6.488-2.282,6.488-5.709V59.009H131.4Z" fill="#501d83"/>
      <path id="패스_29401" data-name="패스 29401" d="M147.622,68.957h-.151l-6.834-9.948h-2.855V74.666h3.244V64.718h.13l6.877,9.948h2.811V59.009h-3.222Z" fill="#501d83"/>
      <rect id="사각형_2465" data-name="사각형 2465" width="3.244" height="15.657" transform="translate(153.966 59.01)" fill="#501d83"/>
      <path id="패스_29402" data-name="패스 29402" d="M166.3,70.946h-.151l-3.807-11.937H158.71l5.428,15.657h4.174l5.407-15.657h-3.59Z" fill="#501d83"/>
      <path id="패스_29403" data-name="패스 29403" d="M178.466,68.178h6.726V65.5h-6.726V61.69h7.266V59.009h-10.51V74.666h10.532V71.984h-7.288Z" fill="#501d83"/>
      <path id="패스_29404" data-name="패스 29404" d="M200.466,64.113c0-3.1-2.044-5.1-5.6-5.1h-6.142V74.666h3.244V69.108h2.476l3,5.558h3.59L197.7,68.579a4.525,4.525,0,0,0,2.769-4.466m-6.207,2.357H191.97v-4.8h2.292c1.925.011,2.865.865,2.855,2.444.01,1.568-.93,2.357-2.855,2.357" fill="#501d83"/>
      <path id="패스_29405" data-name="패스 29405" d="M209.933,65.605l-1.406-.346c-1.351-.3-2.519-.811-2.508-1.946.011-1.038.93-1.795,2.573-1.795,1.59,0,2.574.724,2.7,1.968h3.115c-.044-2.768-2.325-4.693-5.8-4.693-3.428,0-5.936,1.892-5.926,4.736,0,2.292,1.622,3.611,4.261,4.26l1.708.411c1.709.422,2.682.919,2.682,1.99,0,1.168-1.1,1.968-2.812,1.968-1.73,0-2.984-.8-3.092-2.379H202.27c.1,3.363,2.509,5.114,6.294,5.1,3.817.01,6.044-1.828,6.055-4.693-.011-2.606-2.011-3.969-4.693-4.585" fill="#501d83"/>
      <rect id="사각형_2466" data-name="사각형 2466" width="3.244" height="15.657" transform="translate(216.983 59.01)" fill="#501d83"/>
      <path id="패스_29406" data-name="패스 29406" d="M245.636,59.009l-3.59,6.747H241.9l-3.612-6.747H221.907v2.682h4.8V74.666h3.222V61.691h4.8v-2.5l5.607,9.9V74.67h3.244V69.087l5.709-10.078Z" fill="#501d83"/>
    </g>
    <g id="그룹_3462" data-name="그룹 3462">
      <path id="패스_29409" data-name="패스 29409" d="M49.779,49.779V24.889h24.89Z" fill="#a192bb"/>
      <path id="패스_29414" data-name="패스 29414" d="M0,0H24.89V24.89H0Z" fill="#00a497"/>
      <path id="패스_29412" data-name="패스 29412" d="M49.779,0,24.89,24.889V74.668H49.779V24.889H74.668V0Z" fill="#501d83"/>
      <path id="패스_29413" data-name="패스 29413" d="M99.558,24.89H74.668V74.669H49.779V99.114A44.04,44.04,0,0,0,56,99.558,43.557,43.557,0,0,0,99.558,56.022Z" fill="#501d83"/>
      <rect id="사각형_2467" data-name="사각형 2467" width="24.89" height="24.89" fill="#009b88"/>
      <path id="패스_29407" data-name="패스 29407" d="M49.779,0,24.89,24.889V74.668H49.779V24.889H74.668V0Z" fill="#321f78"/>
      <path id="패스_29408" data-name="패스 29408" d="M99.558,24.89H74.668V74.669H49.779V99.114A44.04,44.04,0,0,0,56,99.558,43.557,43.557,0,0,0,99.558,56.022Z" fill="#321f78"/>
      <rect id="사각형_2468" data-name="사각형 2468" width="24.89" height="24.89" fill="#009b88"/>
      <path id="패스_29410" data-name="패스 29410" d="M49.779,0,24.89,24.889V74.668H49.779V24.889H74.668V0Z" fill="#321f78"/>
      <path id="패스_29411" data-name="패스 29411" d="M99.558,24.89H74.668V74.669H49.779V99.114A44.04,44.04,0,0,0,56,99.558,43.557,43.557,0,0,0,99.558,56.022Z" fill="#321f78"/>
    </g>
    <path id="패스_31402" data-name="패스 31402" d="M.792-17.64v2.352H12.624V-17.64H8.352v-2.04h-3v2.04ZM1.8-10.416c0,2.376,2.16,4.128,5.016,4.128,2.9,0,5.04-1.752,5.04-4.128s-2.136-4.1-5.04-4.1C3.96-14.52,1.8-12.792,1.8-10.416ZM4.08-2.472H15.7V2.016h3v-6.84H4.08Zm.5-7.944c0-1.176.936-1.848,2.232-1.848,1.32,0,2.28.672,2.28,1.848s-.96,1.848-2.28,1.848C5.52-8.568,4.584-9.24,4.584-10.416ZM12.792-8.16h2.9v2.328h3V-19.488h-3v4.848H12.84v2.352H15.7v1.776h-2.9Zm23.76-11.328V-3.816h3V-19.488ZM21.648-9.072,23.184-6.72a8.643,8.643,0,0,0,5.16-4.872A8.264,8.264,0,0,0,33.336-7.08l1.536-2.376a6.871,6.871,0,0,1-5.04-6.744v-2.136H26.808V-16.2A7.4,7.4,0,0,1,21.648-9.072Zm3.624,10.68H40.1V-.768H28.248V-5.3H25.272ZM57.6-19.512v21.5h2.976v-21.5ZM42.768-4.032,44.3-1.68c7.608-3.672,9.888-9.048,9.888-15.6H43.872V-14.9h7.272C50.688-10.1,48.288-6.648,42.768-4.032ZM63.7-2.928V-.48H83.16V-2.928H74.9v-4.2H71.928v4.2Zm.648-5.832,1.08,2.352c3.816-.5,6.576-2.112,7.992-4.32,1.44,2.208,4.176,3.816,7.968,4.32l1.1-2.352c-4.872-.6-7.3-3-7.536-5.424h6.5v-2.4H74.9v-2.64H71.928v2.64H65.376v2.4h6.5C71.64-11.76,69.192-9.36,64.344-8.76Zm20.328-8.832v2.352H97.32v-2.352H92.472v-2.04H89.5v2.04Zm1.056,7.032c0,2.376,2.16,3.96,5.28,3.96,3.1,0,5.256-1.584,5.256-3.96s-2.16-3.96-5.256-3.96C87.888-14.52,85.728-12.936,85.728-10.56ZM87.24-2.736H98.568V2.016h2.976V-5.112H87.24Zm1.344-7.824c0-1.128.96-1.7,2.424-1.7,1.416,0,2.4.576,2.4,1.7,0,1.1-.984,1.728-2.4,1.728C89.544-8.832,88.584-9.456,88.584-10.56Zm9.984,4.536h2.976V-11.5h2.9V-13.92h-2.9v-5.568H98.568Zm7.08-1.032v2.328h8.16V2.016h2.976V-4.728h8.328V-7.056Zm2.232-2.112h14.9v-9.48h-2.928v2.472h-9.048v-2.472H107.88Zm2.928-2.376v-2.3h9.048v2.3Z" transform="translate(284 57)" fill="#501d83"/>
  </g>
</svg>
