<svg id="hss" xmlns="http://www.w3.org/2000/svg" xmlns:xlink="http://www.w3.org/1999/xlink" width="564" height="100" viewBox="0 0 564 100">
  <defs>
    <clipPath id="clip-path">
      <rect id="사각형_2478" data-name="사각형 2478" width="563.708" height="99.557" transform="translate(0 0.001)" fill="#501d83"/>
    </clipPath>
  </defs>
  <rect id="base" width="564" height="100" fill="#fff"/>
  <line id="선_1033" data-name="선 1033" y2="49.591" transform="translate(267.321 25.076)" fill="none" stroke="#501d83" stroke-width="2"/>
  <g id="그룹_3197" data-name="그룹 3197" clip-path="url(#clip-path)">
    <path id="패스_29415" data-name="패스 29415" d="M291.792,28.248c-1.916,0-2.987.88-3,2.09-.014,1.323,1.347,1.915,2.921,2.268l1.637.4c3.123.718,5.453,2.305,5.466,5.339-.013,3.338-2.606,5.48-7.054,5.467-4.407.013-7.216-2.028-7.328-5.945h3.677c.127,1.839,1.588,2.77,3.6,2.77,1.989,0,3.273-.931,3.273-2.292,0-1.246-1.131-1.825-3.123-2.317l-1.989-.478c-3.074-.755-4.962-2.293-4.962-4.962-.013-3.312,2.91-5.517,6.9-5.517,4.043,0,6.7,2.243,6.751,5.467h-3.628c-.151-1.448-1.3-2.292-3.147-2.292" fill="#501d83"/>
    <path id="패스_29416" data-name="패스 29416" d="M300.641,36.761c-.012-4.183,2.556-7.054,6.7-7.054,3.527,0,5.92,2.054,6.07,5.19h-3.5a2.5,2.5,0,0,0-2.519-2.292c-1.789.012-2.972,1.511-2.972,4.1,0,2.644,1.158,4.155,2.972,4.155A2.468,2.468,0,0,0,309.91,38.6h3.5c-.163,3.1-2.442,5.226-6.07,5.238-4.194-.012-6.711-2.91-6.7-7.077" fill="#501d83"/>
    <path id="패스_29417" data-name="패스 29417" d="M319.442,43.562h-3.729V25.325h3.628v6.953h.151a4.035,4.035,0,0,1,4.081-2.571c2.858,0,4.735,1.929,4.735,5.139v8.716h-3.729V35.5c0-1.7-.9-2.7-2.467-2.7a2.577,2.577,0,0,0-2.67,2.846Z" fill="#501d83"/>
    <path id="패스_29418" data-name="패스 29418" d="M330.61,36.761c-.014-4.218,2.568-7.054,6.7-7.054s6.713,2.836,6.725,7.054c-.012,4.231-2.582,7.066-6.725,7.077-4.131-.011-6.713-2.846-6.7-7.077m6.724,4.181c1.9-.013,2.91-1.789,2.9-4.181.014-2.406-.994-4.207-2.9-4.207-1.951,0-2.948,1.8-2.948,4.207s1,4.168,2.948,4.181" fill="#501d83"/>
    <path id="패스_29419" data-name="패스 29419" d="M345.808,36.761c-.014-4.218,2.568-7.054,6.7-7.054s6.713,2.836,6.725,7.054c-.012,4.231-2.582,7.066-6.725,7.077-4.131-.011-6.713-2.846-6.7-7.077m6.724,4.181c1.9-.013,2.91-1.789,2.9-4.181.014-2.406-.994-4.207-2.9-4.207-1.951,0-2.948,1.8-2.948,4.207s1,4.168,2.948,4.181" fill="#501d83"/>
    <rect id="사각형_2471" data-name="사각형 2471" width="3.729" height="18.237" transform="translate(361.558 25.325)" fill="#501d83"/>
    <path id="패스_29420" data-name="패스 29420" d="M373.561,36.761c-.012-4.218,2.568-7.054,6.7-7.054s6.713,2.836,6.727,7.054c-.014,4.231-2.582,7.066-6.727,7.077-4.131-.011-6.711-2.846-6.7-7.077m6.726,4.181c1.9-.013,2.908-1.789,2.9-4.181.012-2.406-.994-4.207-2.9-4.207-1.953,0-2.948,1.8-2.948,4.207s1,4.168,2.948,4.181" fill="#501d83"/>
    <path id="패스_29421" data-name="패스 29421" d="M396.592,32.68h-2.719V43.562h-3.729V32.68H388.2v-2.8h1.94V28.852c0-2.885,1.738-4.383,4.483-4.383a9.813,9.813,0,0,1,2.217.227v2.82c-.542-.049-.932-.063-1.134-.074-1.195.011-1.837.465-1.837,1.612v.831h2.719Z" fill="#501d83"/>
    <path id="패스_29422" data-name="패스 29422" d="M404.79,25.325h3.777v7.557h7.909V25.325h3.8V43.562h-3.8V36h-7.909v7.557H404.79Z" fill="#501d83"/>
    <path id="패스_29423" data-name="패스 29423" d="M432.025,29.884h3.727V43.561h-3.576V41.092h-.151a4.211,4.211,0,0,1-4.158,2.645c-2.732,0-4.609-1.94-4.609-5.137V29.884h3.729v8.06a2.362,2.362,0,0,0,2.393,2.645,2.644,2.644,0,0,0,2.645-2.847Z" fill="#501d83"/>
    <path id="패스_29424" data-name="패스 29424" d="M438.633,29.884h3.552v2.393h.15a3.839,3.839,0,0,1,3.8-2.57,3.635,3.635,0,0,1,3.727,2.57h.127a4.181,4.181,0,0,1,4.13-2.57c2.532,0,4.308,1.675,4.308,4.661v9.193H454.7V35.1a2.05,2.05,0,0,0-2.14-2.317,2.154,2.154,0,0,0-2.216,2.418v8.363h-3.628V35A2.031,2.031,0,0,0,444.6,32.78a2.318,2.318,0,0,0-2.243,2.569v8.212h-3.727Z" fill="#501d83"/>
    <path id="패스_29425" data-name="패스 29425" d="M465.711,35.527c.983-.063,2.822-.151,3.4-.178V34.242c-.014-1.147-.793-1.8-2.192-1.814a2.062,2.062,0,0,0-2.267,1.511H461.1c.227-2.366,2.292-4.232,5.92-4.232,2.984,0,5.806,1.336,5.793,4.636v9.219h-3.527v-1.89h-.1a4.2,4.2,0,0,1-4.006,2.142c-2.62.013-4.546-1.372-4.559-4.08.013-3.049,2.456-4.043,5.087-4.207m.53,5.718a2.647,2.647,0,0,0,2.872-2.57V37.68c-.566.025-2.167.114-2.8.164-1.3.114-2.117.73-2.117,1.789s.844,1.6,2.041,1.612" fill="#501d83"/>
    <path id="패스_29426" data-name="패스 29426" d="M479.376,43.562h-3.729V29.885H479.2v2.393h.152a4.135,4.135,0,0,1,4.1-2.571c2.86,0,4.723,1.953,4.71,5.139v8.716h-3.7V35.5c-.014-1.688-.919-2.7-2.468-2.7a2.553,2.553,0,0,0-2.62,2.846Z" fill="#501d83"/>
    <path id="패스_29427" data-name="패스 29427" d="M492.912,24.292a1.907,1.907,0,1,1-2.041,1.915,1.994,1.994,0,0,1,2.041-1.915m-1.865,5.593h3.729V43.562h-3.729Z" fill="#501d83"/>
    <path id="패스_29428" data-name="패스 29428" d="M504.869,32.68H502.3v6.675c-.013,1.1.528,1.36,1.285,1.385.377,0,1.032-.038,1.486-.074v2.946a11.726,11.726,0,0,1-1.991.125c-2.695.014-4.533-1.2-4.509-3.852v-7.2h-1.888v-2.8h1.888V26.611H502.3v3.274h2.569Z" fill="#501d83"/>
    <path id="패스_29429" data-name="패스 29429" d="M509.067,24.292a1.907,1.907,0,1,1-2.041,1.915,1.994,1.994,0,0,1,2.041-1.915M507.2,29.885h3.729V43.562H507.2Z" fill="#501d83"/>
    <path id="패스_29430" data-name="패스 29430" d="M513.266,36.786c-.013-4.219,2.593-7.079,6.6-7.079,3.59,0,6.423,2.267,6.423,6.928v1.058h-9.344a3.033,3.033,0,0,0,3.147,3.35,2.647,2.647,0,0,0,2.544-1.386h3.552c-.53,2.531-2.795,4.169-6.172,4.181-4.194-.012-6.762-2.719-6.749-7.052m9.495-1.437a2.717,2.717,0,0,0-2.82-2.845,2.924,2.924,0,0,0-3,2.845Z" fill="#501d83"/>
    <path id="패스_29431" data-name="패스 29431" d="M534.183,32.352c-1.21.013-2.128.579-2.117,1.412-.011.617.467,1.1,1.765,1.359l2.442.5c2.658.554,3.943,1.737,3.954,3.7-.011,2.694-2.429,4.5-6.069,4.508-3.691-.011-5.857-1.661-6.172-4.331h3.754c.175,1.069,1.044,1.624,2.418,1.637,1.359-.013,2.266-.555,2.266-1.437,0-.705-.579-1.145-1.864-1.41l-2.267-.453c-2.607-.517-3.941-1.851-3.929-3.88-.012-2.618,2.242-4.257,5.768-4.257,3.45,0,5.592,1.639,5.794,4.232h-3.5a2.052,2.052,0,0,0-2.241-1.587" fill="#501d83"/>
    <path id="패스_29432" data-name="패스 29432" d="M547.915,38.726c0-2.128,1.347-3.413,3.337-4.787a6.815,6.815,0,0,1-1.75-4.18,4.657,4.657,0,0,1,4.962-4.686c2.921.014,4.722,1.978,4.711,4.282a5.048,5.048,0,0,1-2.418,4.207l-1.071.781,3.047,3.5A6.658,6.658,0,0,0,559.5,34.7h3.1a9.259,9.259,0,0,1-1.637,5.716l2.746,3.15H559.8l-1.12-1.259a7.613,7.613,0,0,1-4.672,1.535c-3.779-.011-6.1-2.24-6.1-5.112m6.271,2.09a4.678,4.678,0,0,0,2.481-.756l-3.487-3.891-.128.088a3.038,3.038,0,0,0-1.511,2.267,2.364,2.364,0,0,0,2.645,2.292m-.3-8.6.957-.642a2.327,2.327,0,0,0,1.335-2.016,1.551,1.551,0,0,0-1.688-1.462,1.718,1.718,0,0,0-1.789,1.713,4.366,4.366,0,0,0,1.185,2.407" fill="#501d83"/>
    <path id="패스_29433" data-name="패스 29433" d="M291.792,59.168c-1.916,0-2.987.88-3,2.09-.014,1.323,1.347,1.915,2.921,2.268l1.637.4c3.123.718,5.453,2.305,5.466,5.339-.013,3.338-2.606,5.48-7.054,5.467-4.407.013-7.216-2.028-7.328-5.945h3.677c.127,1.839,1.588,2.77,3.6,2.77,1.989,0,3.273-.931,3.273-2.292,0-1.246-1.131-1.825-3.123-2.317l-1.989-.478c-3.074-.755-4.962-2.293-4.962-4.962-.013-3.312,2.91-5.517,6.9-5.517,4.043,0,6.7,2.243,6.751,5.467h-3.628c-.151-1.448-1.3-2.292-3.147-2.292" fill="#501d83"/>
    <path id="패스_29434" data-name="패스 29434" d="M300.641,67.681c-.012-4.218,2.568-7.054,6.7-7.054s6.713,2.836,6.727,7.054c-.014,4.231-2.582,7.066-6.727,7.077-4.131-.011-6.711-2.846-6.7-7.077m6.726,4.181c1.9-.013,2.908-1.789,2.9-4.181.012-2.406-.994-4.207-2.9-4.207-1.953,0-2.948,1.8-2.948,4.207s.995,4.168,2.948,4.181" fill="#501d83"/>
    <path id="패스_29435" data-name="패스 29435" d="M315.839,67.681c-.011-4.183,2.557-7.054,6.7-7.054,3.527,0,5.92,2.054,6.07,5.19h-3.5a2.5,2.5,0,0,0-2.519-2.292c-1.789.012-2.972,1.511-2.972,4.1,0,2.644,1.158,4.155,2.972,4.155a2.469,2.469,0,0,0,2.519-2.265h3.5c-.163,3.1-2.442,5.226-6.07,5.238-4.194-.012-6.711-2.91-6.7-7.077" fill="#501d83"/>
    <path id="패스_29436" data-name="패스 29436" d="M332.776,55.212a1.907,1.907,0,1,1-2.04,1.915,1.993,1.993,0,0,1,2.04-1.915m-1.865,5.593h3.729V74.482h-3.729Z" fill="#501d83"/>
    <path id="패스_29437" data-name="패스 29437" d="M341.962,66.447c.982-.063,2.82-.151,3.4-.178V65.162c-.012-1.147-.793-1.8-2.192-1.814a2.06,2.06,0,0,0-2.265,1.511h-3.552c.227-2.366,2.292-4.232,5.918-4.232,2.986,0,5.806,1.336,5.8,4.636v9.219h-3.527v-1.89h-.1a4.2,4.2,0,0,1-4,2.142c-2.619.013-4.547-1.372-4.558-4.08.011-3.049,2.456-4.043,5.087-4.207m.53,5.718a2.646,2.646,0,0,0,2.87-2.57v-1c-.566.025-2.165.114-2.8.164-1.3.114-2.115.73-2.115,1.789s.844,1.6,2.041,1.612" fill="#501d83"/>
    <rect id="사각형_2472" data-name="사각형 2472" width="3.727" height="18.237" transform="translate(351.898 56.245)" fill="#501d83"/>
    <path id="패스_29438" data-name="패스 29438" d="M371.28,59.168c-1.915,0-2.986.88-3,2.09-.014,1.323,1.347,1.915,2.921,2.268l1.637.4c3.123.718,5.453,2.305,5.466,5.339-.013,3.338-2.606,5.48-7.054,5.467-4.407.013-7.216-2.028-7.328-5.945H367.6c.126,1.839,1.588,2.77,3.6,2.77,1.989,0,3.273-.931,3.273-2.292,0-1.246-1.131-1.825-3.123-2.317l-1.989-.478c-3.074-.755-4.962-2.293-4.962-4.962-.013-3.312,2.91-5.517,6.9-5.517,4.043,0,6.7,2.243,6.751,5.467h-3.628c-.151-1.448-1.3-2.292-3.148-2.292" fill="#501d83"/>
    <path id="패스_29439" data-name="패스 29439" d="M380.129,67.681c-.011-4.183,2.557-7.054,6.7-7.054,3.527,0,5.92,2.054,6.07,5.19h-3.5a2.5,2.5,0,0,0-2.519-2.292c-1.789.012-2.972,1.511-2.972,4.1,0,2.644,1.158,4.155,2.972,4.155A2.469,2.469,0,0,0,389.4,69.52h3.5c-.163,3.1-2.442,5.226-6.07,5.238-4.194-.012-6.711-2.91-6.7-7.077" fill="#501d83"/>
    <path id="패스_29440" data-name="패스 29440" d="M397.067,55.212a1.907,1.907,0,1,1-2.041,1.915,1.994,1.994,0,0,1,2.041-1.915M395.2,60.805h3.729V74.482H395.2Z" fill="#501d83"/>
    <path id="패스_29441" data-name="패스 29441" d="M401.267,67.706c-.013-4.219,2.593-7.079,6.6-7.079,3.59,0,6.423,2.267,6.423,6.928v1.058h-9.344a3.033,3.033,0,0,0,3.147,3.35,2.647,2.647,0,0,0,2.544-1.386h3.552c-.53,2.531-2.795,4.169-6.172,4.181-4.194-.012-6.762-2.719-6.749-7.052m9.495-1.437a2.717,2.717,0,0,0-2.82-2.845,2.924,2.924,0,0,0-3,2.845Z" fill="#501d83"/>
    <path id="패스_29442" data-name="패스 29442" d="M420.344,74.482h-3.729V60.805h3.552V63.2h.152a4.135,4.135,0,0,1,4.105-2.571c2.86,0,4.723,1.953,4.71,5.139v8.716h-3.7v-8.06c-.014-1.688-.919-2.7-2.468-2.7a2.553,2.553,0,0,0-2.62,2.846Z" fill="#501d83"/>
    <path id="패스_29443" data-name="패스 29443" d="M431.463,67.681c-.013-4.183,2.555-7.054,6.7-7.054,3.525,0,5.918,2.054,6.07,5.19h-3.5a2.5,2.5,0,0,0-2.519-2.292c-1.787.012-2.972,1.511-2.972,4.1,0,2.644,1.158,4.155,2.972,4.155a2.466,2.466,0,0,0,2.519-2.265h3.5c-.163,3.1-2.444,5.226-6.07,5.238-4.194-.012-6.713-2.91-6.7-7.077" fill="#501d83"/>
    <path id="패스_29444" data-name="패스 29444" d="M445.98,67.706c-.011-4.219,2.6-7.079,6.6-7.079,3.59,0,6.423,2.267,6.423,6.928v1.058h-9.344a3.033,3.033,0,0,0,3.148,3.35,2.642,2.642,0,0,0,2.543-1.386H458.9c-.528,2.531-2.8,4.169-6.17,4.181-4.194-.012-6.762-2.719-6.751-7.052m9.5-1.437a2.717,2.717,0,0,0-2.822-2.845,2.925,2.925,0,0,0-3,2.845Z" fill="#501d83"/>
    <path id="패스_29445" data-name="패스 29445" d="M466.9,63.272c-1.208.013-2.128.579-2.115,1.412-.013.617.465,1.1,1.762,1.359l2.443.5c2.658.554,3.943,1.737,3.956,3.7-.013,2.694-2.431,4.5-6.071,4.508-3.689-.011-5.855-1.661-6.172-4.331h3.754c.177,1.069,1.046,1.624,2.418,1.637,1.361-.013,2.268-.555,2.268-1.437,0-.705-.58-1.145-1.864-1.41l-2.267-.453c-2.607-.517-3.943-1.851-3.929-3.88-.014-2.618,2.24-4.257,5.767-4.257,3.451,0,5.591,1.639,5.793,4.232h-3.5a2.053,2.053,0,0,0-2.243-1.587" fill="#501d83"/>
    <path id="패스_29446" data-name="패스 29446" d="M117.479,24.866h20.937v4.378h-7.838V50.428h-5.261V29.244h-7.838Z" fill="#501d83"/>
    <path id="패스_29447" data-name="패스 29447" d="M137.109,50.428l8.862-25.562h6.815l8.826,25.562h-5.684L154,44.532h-9.251l-1.924,5.9ZM152.662,40.4l-3.2-9.78h-.177L146.1,40.4Z" fill="#501d83"/>
    <path id="패스_29448" data-name="패스 29448" d="M164.508,24.866h17.159v4.378H169.8v6.214h10.981v4.378H169.8V46.05h11.9v4.378H164.508Z" fill="#501d83"/>
    <path id="패스_29449" data-name="패스 29449" d="M201.263,24.866V42.7c0,4.961-3.513,8.085-8.65,8.085-4.625,0-8.244-2.436-8.227-7.485h5.3a2.984,2.984,0,0,0,3.178,3.213c2.03,0,3.142-1.306,3.142-3.813V24.866Z" fill="#501d83"/>
    <path id="패스_29450" data-name="패스 29450" d="M204.122,50.428l8.862-25.562H219.8l8.826,25.562h-5.684l-1.924-5.9h-9.251l-1.924,5.9ZM219.675,40.4l-3.2-9.78H216.3l-3.195,9.78Z" fill="#501d83"/>
    <path id="패스_29451" data-name="패스 29451" d="M231.521,24.866H248.68v4.378H236.817v6.214H247.8v4.378H236.817V46.05h11.9v4.378H231.521Z" fill="#501d83"/>
    <path id="패스_29452" data-name="패스 29452" d="M131.4,68.914a3.224,3.224,0,0,1-6.445,0V59.009h-3.243V69.174c0,3.427,2.573,5.72,6.466,5.709,3.882.011,6.488-2.282,6.488-5.709V59.009H131.4Z" fill="#501d83"/>
    <path id="패스_29453" data-name="패스 29453" d="M147.622,68.957h-.151l-6.834-9.948h-2.855V74.666h3.244V64.718h.13l6.877,9.948h2.811V59.009h-3.222Z" fill="#501d83"/>
    <rect id="사각형_2473" data-name="사각형 2473" width="3.244" height="15.657" transform="translate(153.966 59.009)" fill="#501d83"/>
    <path id="패스_29454" data-name="패스 29454" d="M166.3,70.946h-.151l-3.807-11.937H158.71l5.428,15.657h4.174l5.407-15.657h-3.59Z" fill="#501d83"/>
    <path id="패스_29455" data-name="패스 29455" d="M178.466,68.178h6.726V65.5h-6.726V61.69h7.266V59.009h-10.51V74.666h10.532V71.984h-7.288Z" fill="#501d83"/>
    <path id="패스_29456" data-name="패스 29456" d="M200.466,64.113c0-3.1-2.044-5.1-5.6-5.1h-6.142V74.666h3.244V69.108h2.476l3,5.558h3.59L197.7,68.579a4.525,4.525,0,0,0,2.769-4.466m-6.207,2.357h-2.292v-4.8h2.292c1.925.011,2.865.865,2.855,2.444.01,1.568-.93,2.357-2.855,2.357" fill="#501d83"/>
    <path id="패스_29457" data-name="패스 29457" d="M209.933,65.605l-1.406-.346c-1.351-.3-2.519-.811-2.508-1.946.011-1.038.93-1.795,2.573-1.795,1.59,0,2.574.724,2.7,1.968h3.115c-.044-2.768-2.325-4.693-5.8-4.693-3.428,0-5.936,1.892-5.926,4.736,0,2.292,1.622,3.611,4.261,4.26l1.708.411c1.709.422,2.682.919,2.682,1.99,0,1.168-1.1,1.968-2.812,1.968-1.73,0-2.984-.8-3.092-2.379h-3.158c.1,3.363,2.509,5.114,6.294,5.1,3.817.01,6.044-1.828,6.055-4.693-.011-2.606-2.011-3.969-4.693-4.585" fill="#501d83"/>
    <rect id="사각형_2474" data-name="사각형 2474" width="3.244" height="15.657" transform="translate(216.983 59.009)" fill="#501d83"/>
    <path id="패스_29458" data-name="패스 29458" d="M245.636,59.009l-3.59,6.747h-.151l-3.612-6.747H221.907v2.682h4.8V74.666h3.222V61.691h4.8v-2.5l5.607,9.9v5.579h3.244V69.087l5.709-10.078Z" fill="#501d83"/>
    <rect id="사각형_2475" data-name="사각형 2475" width="24.89" height="24.89" transform="translate(0 0)" fill="#009b88"/>
    <path id="패스_29459" data-name="패스 29459" d="M49.779,0,24.89,24.889V74.668H49.779V24.889H74.668V0Z" fill="#321f78"/>
    <path id="패스_29460" data-name="패스 29460" d="M99.558,24.89H74.668V74.669H49.779V99.114A44.04,44.04,0,0,0,56,99.558,43.557,43.557,0,0,0,99.558,56.023Z" fill="#321f78"/>
    <path id="패스_29461" data-name="패스 29461" d="M49.779,49.779V24.889h24.89Z" fill="#ce0019"/>
    <rect id="사각형_2476" data-name="사각형 2476" width="24.89" height="24.89" transform="translate(0 0)" fill="#009b88"/>
    <path id="패스_29462" data-name="패스 29462" d="M49.779,0,24.89,24.889V74.668H49.779V24.889H74.668V0Z" fill="#501d83"/>
    <path id="패스_29463" data-name="패스 29463" d="M99.558,24.89H74.668V74.669H49.779V99.114A44.04,44.04,0,0,0,56,99.558,43.557,43.557,0,0,0,99.558,56.023Z" fill="#321f78"/>
    <rect id="사각형_2477" data-name="사각형 2477" width="24.89" height="24.89" transform="translate(0 0)" fill="#00a497"/>
    <path id="패스_29464" data-name="패스 29464" d="M49.779,0,24.89,24.889V74.668H49.779V24.889H74.668V0Z" fill="#501d83"/>
    <path id="패스_29465" data-name="패스 29465" d="M99.558,24.89H74.668V74.669H49.779V99.114A44.04,44.04,0,0,0,56,99.558,43.557,43.557,0,0,0,99.558,56.023Z" fill="#501d83"/>
  </g>
</svg>
