<svg xmlns="http://www.w3.org/2000/svg" xmlns:xlink="http://www.w3.org/1999/xlink" width="108" height="56" viewBox="0 0 108 56">
  <defs>
    <clipPath id="clip-path">
      <rect id="mask" width="108" height="56" transform="translate(0 -8)" fill="none"/>
    </clipPath>
  </defs>
  <g id="partner_udemy" transform="translate(8 9)">
    <g id="mask-2" data-name="mask" transform="translate(-8 -1)" clip-path="url(#clip-path)">
      <g id="logo-udemy">
        <path id="패스_31288" data-name="패스 31288" d="M16.529,9.544,8.264,4.772,0,9.544V4.772L8.265,0l8.266,4.772V9.544Z" fill="#a435f0"/>
        <path id="패스_31289" data-name="패스 31289" d="M0,12.554H4.329V23.073a3.85,3.85,0,0,0,3.935,4.042A3.872,3.872,0,0,0,12.2,23.036V12.554h4.329V23.323a7.121,7.121,0,0,1-2.361,5.76,8.885,8.885,0,0,1-5.941,1.968,8.712,8.712,0,0,1-5.9-1.968A7.028,7.028,0,0,1,0,23.43V12.554ZM53.96,25.627a6.553,6.553,0,0,1-4.506,1.739c-3.106,0-5.188-1.769-5.424-4.509H58.019s.094-.885.094-1.715a8.961,8.961,0,0,0-2.506-6.476,8.384,8.384,0,0,0-6.4-2.612,9.02,9.02,0,0,0-9.446,9.518v.141A8.948,8.948,0,0,0,42.4,28.475a9.611,9.611,0,0,0,6.906,2.54,10.075,10.075,0,0,0,7.865-3.532L53.96,25.627Zm-8.228-8.78A5.54,5.54,0,0,1,49.2,15.7a4.617,4.617,0,0,1,3.185,1.181,3.52,3.52,0,0,1,1.355,2.612h-9.6a3.931,3.931,0,0,1,1.592-2.647Zm51.809,16.6C95.785,37.593,93.947,39,91.129,39H89.176V35.165h1.579c.969,0,1.871-.365,2.729-2.346l.859-1.984L86.936,12.554h4.4L96.6,25.721,102,12.554h4.4L97.542,33.445ZM33.385,5.649v8.538a8.917,8.917,0,0,0-5.76-2.027,8.571,8.571,0,0,0-6.44,2.718,9.261,9.261,0,0,0-2.576,6.691,9.4,9.4,0,0,0,2.576,6.727,8.669,8.669,0,0,0,6.44,2.685,8.291,8.291,0,0,0,5.76-2.054v1.66h4.294V5.65H33.385ZM32.1,25.505a5.343,5.343,0,0,1-3.9,1.575,5.181,5.181,0,0,1-3.828-1.575,5.463,5.463,0,0,1-1.5-3.935,5.459,5.459,0,0,1,1.5-3.936A5.18,5.18,0,0,1,28.2,16.06a5.342,5.342,0,0,1,3.9,1.574,5.263,5.263,0,0,1,1.612,3.936A5.262,5.262,0,0,1,32.1,25.505ZM80.261,12.2a7.514,7.514,0,0,0-6.118,2.656A5.112,5.112,0,0,0,69.314,12.2a6.084,6.084,0,0,0-4.866,2.235V12.556H60.192V30.588h4.256V20.211c0-2.433,1.5-4.186,3.506-4.186,2.041,0,3.221,1.539,3.221,4.007V30.587h4.258V20.21c0-2.468,1.466-4.186,3.576-4.186,2.04,0,3.22,1.539,3.22,4.006V30.585h4.294V19.423c0-4.7-2.527-7.226-6.262-7.226Z" transform="translate(0 0.997)"/>
      </g>
    </g>
  </g>
</svg>
