<svg xmlns="http://www.w3.org/2000/svg" xmlns:xlink="http://www.w3.org/1999/xlink" width="148" height="56" viewBox="0 0 148 56">
  <defs>
    <clipPath id="clip-path">
      <rect id="mask" width="148" height="56" transform="translate(0 -8)" fill="#666"/>
    </clipPath>
    <clipPath id="clip-path-2">
      <rect id="사각형_2761" data-name="사각형 2761" width="147.31" height="40" fill="none"/>
    </clipPath>
  </defs>
  <g id="partner_hallym" transform="translate(0 10)">
    <g id="mask-2" data-name="mask" transform="translate(0 -2)" clip-path="url(#clip-path)">
      <g id="icon">
        <g id="그룹_3347" data-name="그룹 3347" transform="translate(0 0)" clip-path="url(#clip-path-2)">
          <path id="패스_31307" data-name="패스 31307" d="M97.807,17.387A1.216,1.216,0,0,0,99,16.257V8.242H96.154V15.4h-10.3v-1.76H93.08V8.242H83.011v2.082h7.205v1.418H83.011v4.094a1.733,1.733,0,0,0,.344,1.211,1.378,1.378,0,0,0,1.008.339Z" transform="translate(-13.959 -1.386)" fill="#001f5e"/>
          <path id="패스_31308" data-name="패스 31308" d="M84.149,25.546a1.655,1.655,0,0,0,.345,1.19,1.461,1.461,0,0,0,1.03.3H97.816a1.425,1.425,0,0,0,1.01-.3,1.591,1.591,0,0,0,.364-1.19V20.708H84.149Zm2.846-2.862h9.351v2.381H86.995Z" transform="translate(-14.15 -3.483)" fill="#001f5e"/>
          <path id="패스_31309" data-name="패스 31309" d="M58.58,12.883a4.257,4.257,0,0,0,1.593,3.388,5.43,5.43,0,0,0,7.033,0A4.218,4.218,0,0,0,68.8,12.883a3.344,3.344,0,0,0-.242-1.25,4.048,4.048,0,0,0-.645-1.049h1.514V8.607H65.2V7.033H62.164V8.607H57.936v1.976h1.431a4.809,4.809,0,0,0-.586,1.089,3.862,3.862,0,0,0-.2,1.21m3.448-1.523a2.378,2.378,0,0,1,3.284,0,2.3,2.3,0,0,1,0,3.356,2.348,2.348,0,0,1-3.284-3.356" transform="translate(-9.742 -1.183)" fill="#001f5e"/>
          <path id="패스_31310" data-name="패스 31310" d="M73.937,12.543v-4.3H71.092v14.64H61.743V19.113H58.9v4.357a1.68,1.68,0,0,0,.362,1.214,1.4,1.4,0,0,0,1.009.3l12.6,0a1.03,1.03,0,0,0,1.066-1.082V14.666h2.3V12.543Z" transform="translate(-9.904 -1.387)" fill="#001f5e"/>
          <path id="패스_31311" data-name="패스 31311" d="M122.932,25.484v0a1.237,1.237,0,0,0,1.239-1.239v-16H117.62V19.6h-6.552V10.344h5.187v-2.1H108.2V20.191a1.747,1.747,0,0,0,.342,1.212,1.478,1.478,0,0,0,1.029.3h8.045v3.773h1.445a1.238,1.238,0,0,0,1.209-1.237V10.419h1.181V25.484Z" transform="translate(-18.195 -1.386)" fill="#001f5e"/>
          <path id="패스_31312" data-name="패스 31312" d="M172.133,22.927l0-14.685H157.362v2.1h11.923V22.008h-2.55l-.007-5.706h-2.815v5.706h-2.023V16.3h-2.823v5.706h-2.7v2.1h14.611a1.209,1.209,0,0,0,1.158-1.182" transform="translate(-26.294 -1.386)" fill="#001f5e"/>
          <path id="패스_31313" data-name="패스 31313" d="M148.748,10.941v-2.7H145.9V18.1H133.721v2.1H145.9v5.267h1.79a1.238,1.238,0,0,0,1.051-1.223h0V13.043h2.3v-2.1Z" transform="translate(-22.486 -1.385)" fill="#001f5e"/>
          <path id="패스_31314" data-name="패스 31314" d="M143.5,8.65h-4.227V7.076h-3.033V8.65h-4.226v1.976h1.638a3.747,3.747,0,0,0-.853,2.357c0,2.312,2.213,4.189,4.945,4.189s4.949-1.877,4.949-4.189a3.753,3.753,0,0,0-.855-2.357H143.5Zm-5.756,6.689a2.407,2.407,0,1,1,2.347-2.408,2.376,2.376,0,0,1-2.347,2.408" transform="translate(-22.199 -1.19)" fill="#001f5e"/>
          <path id="패스_31315" data-name="패스 31315" d="M58.849,33.457h1.34V35.8H62.77v-2.34h1.335v5.909H62.77V36.734H60.189v2.632h-1.34Z" transform="translate(-9.896 -5.626)" fill="#001f5e"/>
          <path id="패스_31316" data-name="패스 31316" d="M69.519,34.388l1.743,4.977h1.416l-2.329-5.908H68.674l-2.326,5.908H67.8Z" transform="translate(-11.157 -5.626)" fill="#001f5e"/>
          <path id="패스_31317" data-name="패스 31317" d="M132.3,38.436l-1.741-4.979h-1.418l2.327,5.909h1.677l2.323-5.909h-1.452Z" transform="translate(-21.716 -5.626)" fill="#001f5e"/>
          <path id="패스_31318" data-name="패스 31318" d="M75.005,33.457h1.337v4.971h2.781v.937H75.005Z" transform="translate(-12.613 -5.626)" fill="#001f5e"/>
          <path id="패스_31319" data-name="패스 31319" d="M81.362,33.457H82.7v4.971h2.783v.937H81.362Z" transform="translate(-13.682 -5.626)" fill="#001f5e"/>
          <path id="패스_31320" data-name="패스 31320" d="M87.983,36.868l-2.057-3.411h1.463l1.31,2.4,1.363-2.4h1.453l-2.2,3.509v2.4H87.983Z" transform="translate(-14.449 -5.626)" fill="#001f5e"/>
          <path id="패스_31321" data-name="패스 31321" d="M93.9,33.457h1.771l1.407,4.357h.02l1.468-4.357h1.834v5.909H99.227V34.672h-.017L97.65,39.366h-1.2l-1.532-4.694H94.9v4.694h-1Z" transform="translate(-15.791 -5.626)" fill="#001f5e"/>
          <path id="패스_31322" data-name="패스 31322" d="M108.78,33.457v3.605c0,.921.408,1.47,1.417,1.47s1.417-.549,1.417-1.47V33.457h1.337v4c0,1.381-1.117,2.01-2.754,2.01s-2.755-.629-2.755-2.01v-4Z" transform="translate(-18.067 -5.626)" fill="#001f5e"/>
          <path id="패스_31323" data-name="패스 31323" d="M116.639,33.457h1.629l2.895,4.446h.02V33.457h1.179v5.909h-1.6l-2.921-4.376h-.018v4.376h-1.178Z" transform="translate(-19.614 -5.626)" fill="#001f5e"/>
          <rect id="사각형_2757" data-name="사각형 2757" width="1.338" height="5.908" transform="translate(104.889 27.831)" fill="#001f5e"/>
          <path id="패스_31324" data-name="패스 31324" d="M142.785,34.4H139.81v1.54H142.4v.869H139.81v1.622h2.976v.937h-4.313V33.457h4.313Z" transform="translate(-23.285 -5.626)" fill="#001f5e"/>
          <path id="패스_31325" data-name="패스 31325" d="M153.509,38.131a3.932,3.932,0,0,0,1.579.38c.413,0,.936-.159.936-.655,0-.848-2.417-1.645-2.417-3.045,0-.761.542-1.479,1.974-1.479a6.909,6.909,0,0,1,1.409.159l.134,1.036a3.689,3.689,0,0,0-1.239-.255c-.675,0-.94.361-.94.628,0,.937,2.416,1.576,2.416,3.01,0,.691-.486,1.542-2.027,1.542a7.683,7.683,0,0,1-1.68-.231Z" transform="translate(-25.814 -5.605)" fill="#001f5e"/>
          <rect id="사각형_2758" data-name="사각형 2758" width="1.341" height="5.908" transform="translate(133.453 27.831)" fill="#001f5e"/>
          <path id="패스_31326" data-name="패스 31326" d="M163.905,33.457h5v.94h-1.833v4.969h-1.338V34.4h-1.833Z" transform="translate(-27.562 -5.626)" fill="#001f5e"/>
          <path id="패스_31327" data-name="패스 31327" d="M172.429,36.868l-2.058-3.411h1.463l1.31,2.4,1.365-2.4h1.45l-2.2,3.509v2.4h-1.333Z" transform="translate(-28.649 -5.626)" fill="#001f5e"/>
          <path id="패스_31328" data-name="패스 31328" d="M149.245,36.645c.909-.233,1.489-.636,1.489-1.691,0-.973-.792-1.5-1.943-1.5h-2.7v5.909h1.269V34.327h1.185c.727,0,.921.4.921.823,0,.7-.537.947-1.2.947l-.578,0,1.97,3.267h1.41Z" transform="translate(-24.566 -5.626)" fill="#001f5e"/>
          <path id="패스_31329" data-name="패스 31329" d="M35.145,23.23c-.031,0-.057.011-.082.017s-.058.013-.087.02c.018.275.028.552.028.832A13.692,13.692,0,0,1,8.667,29.35c-.045-.031-.092-.059-.132-.093s-.085-.066-.126-.1A13.862,13.862,0,0,0,35.176,24.1c0-.292-.013-.581-.031-.868" transform="translate(-1.414 -3.907)" fill="#001f5e"/>
          <path id="패스_31330" data-name="패스 31330" d="M21.218,7.606A13.88,13.88,0,0,0,7.859,17.782c.028,0,.053.007.081.007s.058.007.087.012A13.687,13.687,0,0,1,32.69,14c.043.014.087.025.134.042s.075.022.116.037A13.862,13.862,0,0,0,21.218,7.606" transform="translate(-1.322 -1.279)" fill="#001f5e"/>
          <path id="패스_31331" data-name="패스 31331" d="M21.317,8.37a13.2,13.2,0,0,1,10.748,5.548l.248.058A13.36,13.36,0,0,0,8.453,17.949c.051.012.109.027.162.037a13.221,13.221,0,0,1,12.7-9.615" transform="translate(-1.421 -1.379)" fill="#001f5e"/>
          <path id="패스_31332" data-name="패스 31332" d="M21.461,37.491A13.385,13.385,0,0,0,34.83,24.122c0-.253-.007-.5-.019-.75-.055.014-.114.027-.166.044q.014.352.014.706A13.2,13.2,0,0,1,9.55,29.807l-.038-.021c-.071-.035-.139-.074-.206-.109a13.384,13.384,0,0,0,12.156,7.814" transform="translate(-1.565 -3.93)" fill="#001f5e"/>
          <path id="패스_31333" data-name="패스 31333" d="M17.457,4.961a.3.3,0,0,0,.17-.367l-.735-1.826-.644.26L16.9,4.657,14.554,5.6l-.16-.4,1.645-.659-.493-1.229-2.292.921.19.475,1.642-.661.128.324-1.64.66.374.929a.414.414,0,0,0,.187.245.329.329,0,0,0,.262-.015Z" transform="translate(-2.229 -0.466)" fill="#001f5e"/>
          <path id="패스_31334" data-name="패스 31334" d="M15.1,8.086a.379.379,0,0,0,.188.239.364.364,0,0,0,.262-.026l2.8-1.124a.371.371,0,0,0,.2-.161.4.4,0,0,0-.026-.3l-.442-1.1L14.65,6.984Zm.386-.914,2.129-.854.22.542L15.7,7.714Z" transform="translate(-2.463 -0.944)" fill="#001f5e"/>
          <path id="패스_31335" data-name="패스 31335" d="M7.661,10.219a1.03,1.03,0,0,0,.858.318,1.256,1.256,0,0,0,.837-.378,1.279,1.279,0,0,0,.4-.834,1.034,1.034,0,0,0-.306-.863.8.8,0,0,0-.257-.181A1.089,1.089,0,0,0,8.9,8.209l.265-.26L8.823,7.6l-.744.73-.27-.276-.529.522.269.276-.742.729.342.344L7.4,9.679a1.193,1.193,0,0,0,.083.292.91.91,0,0,0,.178.248M8,9.358a.569.569,0,0,1,.178-.4.576.576,0,0,1,.4-.169.569.569,0,0,1,.418.171.549.549,0,0,1,.16.42.557.557,0,0,1-.171.4.545.545,0,0,1-.4.166.555.555,0,0,1-.408-.176A.548.548,0,0,1,8,9.358" transform="translate(-1.145 -1.279)" fill="#001f5e"/>
          <path id="패스_31336" data-name="패스 31336" d="M10.61,7.336l-.74-.749-.5.487,2.521,2.563-1.638,1.612-.65-.663-.5.49.749.763a.42.42,0,0,0,.274.151.331.331,0,0,0,.227-.121L12.565,9.7a.256.256,0,0,0,0-.374L10.976,7.71l.4-.4-.364-.373Z" transform="translate(-1.532 -1.108)" fill="#001f5e"/>
          <path id="패스_31337" data-name="패스 31337" d="M24.761,6.105v0a.3.3,0,0,0,.3-.3V1.873H23.457v2.79H21.848V2.389h1.274V1.873H21.146V4.805a.421.421,0,0,0,.084.3.35.35,0,0,0,.253.076h1.974V6.1h.355a.3.3,0,0,0,.3-.3V2.406H24.4v3.7Z" transform="translate(-3.556 -0.315)" fill="#001f5e"/>
          <path id="패스_31338" data-name="패스 31338" d="M36.917,11.571l2.477-2.619L36.76,6.46l-.354.376,2.125,2.009-1.966,2.081-.452-.429.957-1.021L36.571,9l-.962,1.017-.364-.341.962-1.017-.5-.475-.962,1.018-.487-.457-.35.373,2.6,2.466a.3.3,0,0,0,.405-.017" transform="translate(-5.702 -1.087)" fill="#001f5e"/>
          <path id="패스_31339" data-name="패스 31339" d="M32.74,4.778l.241-.618-.65-.258-.888,2.253-2.785-1.1-.186.48,2.782,1.1-.478,1.2L31.187,8a.3.3,0,0,0,.349-.183L32.55,5.256l.522.207.19-.478Z" transform="translate(-4.788 -0.656)" fill="#001f5e"/>
          <path id="패스_31340" data-name="패스 31340" d="M31.879,3.632l-.966-.382.142-.359-.693-.274-.14.36-.965-.38-.178.45.375.148a.932.932,0,0,0-.411.461,1.136,1.136,0,0,0,.751,1.4A1.129,1.129,0,0,0,31.3,4.55a.906.906,0,0,0,.021-.616l.38.148ZM29.962,4.641a.591.591,0,1,1,.753-.338.585.585,0,0,1-.753.338" transform="translate(-4.874 -0.437)" fill="#001f5e"/>
          <path id="패스_31341" data-name="패스 31341" d="M7.251,22.513c1.434.14,1.312.576,2.33,1.594,1.362,1.354,2.7,1.427,3.641.682a4.7,4.7,0,0,1-1.6-1c-1.026-.967-1.314-2.25-4.356-1.373-.136.04-.1.086-.014.093" transform="translate(-1.206 -3.721)" fill="#009f99"/>
          <path id="패스_31342" data-name="패스 31342" d="M39.745,19.937c-4.635-2.064-9.371-.9-13.179,2.507-3.711,3.315-6.248,7.22-11.226,7.3,3.811,1.323,11.326.829,15.446-3.292.11-.116.027-.1-.044-.062-2.382,1.443-6.156,2.154-7.783,1.62,4.317-2.793,7.762-7.68,16.765-7.892.332-.034.318-.049.021-.186" transform="translate(-2.58 -3.181)" fill="#009f99"/>
          <path id="패스_31343" data-name="패스 31343" d="M13.118,28.528a4.233,4.233,0,0,1-2.224-.807,13.258,13.258,0,0,1-1.859-1.8,4.15,4.15,0,0,0-4.712-.756c-.119.048-.146.1-.025.111,1.995.1,1.926.344,3.6,2.2a5.631,5.631,0,0,0,5.216,1.046" transform="translate(-0.71 -4.166)" fill="#009f99"/>
          <path id="패스_31344" data-name="패스 31344" d="M34.851,16.638A10.913,10.913,0,0,0,28.9,15.127a7.27,7.27,0,0,0-3.678,1.333c-.557.358-.941.627-1.274.876-.028.019-.155.118-.194.146a9.261,9.261,0,0,1-2.527,1.355c-.187.056-.356.1-.489.139,1.734-2.222,3.6-4.346,5.911-5.247a.071.071,0,0,0,0-.139c-2.806-.7-5.743-.308-8.053,3.245-2.635,4.048-4.208,8.875-7.85,7.127C13,26.1,15.777,25.178,18.164,22.285c.334-.409.67-.835,1.012-1.274l.4-.517a7.8,7.8,0,0,0,2.455-.562l-.785,1.079c-2.612,3.583-6.114,7.878-11.312,5.756,6,3.993,10.49-1.752,12.725-3.849,2.762-2.592,5.533-5.914,12.2-6.1.152,0,.263-.023,0-.181" transform="translate(-1.67 -2.237)" fill="#004b9e"/>
          <path id="패스_31345" data-name="패스 31345" d="M5.691,30.034l.247.578-1.013.431.546,1.278,1.012-.429.245.579L4.172,33.555l-.247-.578,1.137-.482-.543-1.28L3.383,31.7l-.245-.58Z" transform="translate(-0.528 -5.051)" fill="#001f5e"/>
          <path id="패스_31346" data-name="패스 31346" d="M6.044,36.809l.37.555L8.035,34.8l-.412-.615-3,.5.381.569,2.446-.537Z" transform="translate(-0.778 -5.75)" fill="#001f5e"/>
          <path id="패스_31347" data-name="패스 31347" d="M9.2,36.107l.426.462L7.9,38.151l.883.962-.324.3L7.152,37.987Z" transform="translate(-1.203 -6.072)" fill="#001f5e"/>
          <path id="패스_31348" data-name="패스 31348" d="M10.979,37.929l.482.4-1.494,1.8,1.006.838-.283.338L9.2,40.062Z" transform="translate(-1.547 -6.378)" fill="#001f5e"/>
          <path id="패스_31349" data-name="패스 31349" d="M12.457,40.95,12.5,39.08l.579.369L13,40.732l1.146-.606.577.364-1.755.836-.611.953-.528-.339Z" transform="translate(-1.989 -6.572)" fill="#001f5e"/>
          <path id="패스_31350" data-name="패스 31350" d="M15.131,40.826l.774.309-.148,2.146.007,0,1.4-1.645.8.319-1.031,2.579-.512-.207.819-2.047-.007,0-1.5,1.776-.522-.207.154-2.317-.012,0-.819,2.05L14.1,43.4Z" transform="translate(-2.371 -6.866)" fill="#001f5e"/>
          <path id="패스_31351" data-name="패스 31351" d="M21.264,42.665l-.155,1.686a.666.666,0,1,0,1.325.122l.156-1.688.625.057-.168,1.874c-.061.646-.61.893-1.374.824s-1.265-.414-1.206-1.06l.17-1.873Z" transform="translate(-3.441 -7.165)" fill="#001f5e"/>
          <path id="패스_31352" data-name="패스 31352" d="M24.269,42.837l.763-.082L26.6,44.692l0,0-.216-2.079.551-.057.29,2.763-.751.08-1.579-1.9h-.011l.217,2.046-.552.058Z" transform="translate(-4.081 -7.156)" fill="#001f5e"/>
          <rect id="사각형_2759" data-name="사각형 2759" width="0.629" height="2.777" transform="translate(23.313 35.248) rotate(-13.926)" fill="#001f5e"/>
          <path id="패스_31353" data-name="패스 31353" d="M28.89,42.021l.6-.235,1.714,1.772-.042-2.421.6-.236-.065,3-.673.265Z" transform="translate(-4.858 -6.878)" fill="#001f5e"/>
          <path id="패스_31354" data-name="패스 31354" d="M34.35,39.952l-1.2.718.37.621,1.051-.625.21.349-1.051.626.391.655,1.2-.718.225.379L33.8,43l-1.422-2.383,1.742-1.042Z" transform="translate(-5.445 -6.654)" fill="#001f5e"/>
          <path id="패스_31355" data-name="패스 31355" d="M34.86,39.073l.972-.813c.415-.348.858-.4,1.15-.044a.765.765,0,0,1-.041,1.082l1.378.506-.508.423-1.581-.683c.066-.044.158-.1.206-.136.239-.2.359-.488.15-.742a.365.365,0,0,0-.579-.018L35.578,39,37.1,40.823l-.46.383Z" transform="translate(-5.862 -6.386)" fill="#001f5e"/>
          <path id="패스_31356" data-name="패스 31356" d="M38.726,38.667a1.9,1.9,0,0,0,.628-.435c.132-.146.238-.378.063-.533-.293-.266-1.333.329-1.823-.108-.267-.238-.35-.654.1-1.155a2.921,2.921,0,0,1,.5-.445l.4.279a1.813,1.813,0,0,0-.477.355c-.21.235-.166.442-.072.525.326.294,1.308-.352,1.808.1.245.216.39.655-.092,1.194a3.846,3.846,0,0,1-.609.518Z" transform="translate(-6.285 -6.052)" fill="#001f5e"/>
          <rect id="사각형_2760" data-name="사각형 2760" width="0.629" height="2.776" transform="translate(32.228 29.469) rotate(-54.145)" fill="#001f5e"/>
          <path id="패스_31357" data-name="패스 31357" d="M39.354,34.242,40.517,32.2l.385.215-.428.75,2.03,1.156-.311.547-2.029-1.156-.428.748Z" transform="translate(-6.618 -5.415)" fill="#001f5e"/>
          <path id="패스_31358" data-name="패스 31358" d="M42.475,31.668l-1.843.314.251-.64,1.274-.163-.813-1.007.246-.637,1.16,1.563,1.051.41-.23.585Z" transform="translate(-6.833 -4.967)" fill="#001f5e"/>
          <path id="패스_31359" data-name="패스 31359" d="M20,0A20,20,0,1,0,40,20,20,20,0,0,0,20,0m0,39.465A19.464,19.464,0,1,1,39.464,20,19.465,19.465,0,0,1,20,39.465" transform="translate(0 0)" fill="#001f5e"/>
        </g>
      </g>
    </g>
  </g>
</svg>
