<svg xmlns="http://www.w3.org/2000/svg" xmlns:xlink="http://www.w3.org/1999/xlink" width="123" height="56" viewBox="0 0 123 56">
  <defs>
    <clipPath id="clip-path">
      <rect id="mask" width="123" height="56" transform="translate(0 -4)" fill="none"/>
    </clipPath>
  </defs>
  <g id="partner_fci" transform="translate(0 4)">
    <g id="mask-2" data-name="mask" clip-path="url(#clip-path)">
      <g id="icon">
        <rect id="사각형_2740" data-name="사각형 2740" width="12" height="12" fill="#799f51"/>
        <path id="패스_31234" data-name="패스 31234" d="M73.753,0l-12,12V36h12V12h12V0Z" transform="translate(-49.753 -0.001)" fill="#002c77"/>
        <path id="패스_31235" data-name="패스 31235" d="M147.506,61.753h-12v24h-12V97.539a21.006,21.006,0,0,0,24-20.776Z" transform="translate(-99.506 -49.753)" fill="#002c77"/>
        <path id="패스_31236" data-name="패스 31236" d="M292.323,0h10.095V2.111h-3.779V12.325H296.1V2.111h-3.779Z" transform="translate(-235.518)" fill="#231916"/>
        <path id="패스_31237" data-name="패스 31237" d="M341.028,12.325,345.3,0h3.285l4.256,12.325H350.1l-.928-2.843h-4.46l-.928,2.843Zm7.5-4.835-1.541-4.715H346.9L345.36,7.49Z" transform="translate(-274.758)" fill="#231916"/>
        <path id="패스_31238" data-name="패스 31238" d="M409.006,0h8.273V2.111h-5.72v3h5.294V7.218H411.56v3H417.3v2.111h-8.29Z" transform="translate(-329.526)" fill="#231916"/>
        <path id="패스_31239" data-name="패스 31239" d="M466.462,0V8.6c0,2.392-1.694,3.9-4.171,3.9-2.23,0-3.975-1.175-3.966-3.609h2.553a1.439,1.439,0,0,0,1.532,1.549c.979,0,1.515-.63,1.515-1.839V0Z" transform="translate(-369.262)" fill="#231916"/>
        <path id="패스_31240" data-name="패스 31240" d="M507.294,12.325,511.567,0h3.285l4.256,12.325h-2.741l-.928-2.843h-4.46l-.928,2.843Zm7.5-4.835-1.541-4.715h-.085L511.626,7.49Z" transform="translate(-408.715)" fill="#231916"/>
        <path id="패스_31241" data-name="패스 31241" d="M575.272,0h8.273V2.111h-5.72v3h5.294V7.218h-5.294v3h5.737v2.111h-8.29Z" transform="translate(-463.482)" fill="#231916"/>
        <path id="패스_31242" data-name="패스 31242" d="M301.128,83.931h4.944v1.285h-3.389V87.04h3.068v1.285h-3.068v3.11h-1.555Z" transform="translate(-242.612 -67.621)" fill="#231916"/>
        <path id="패스_31243" data-name="패스 31243" d="M338.059,83.931V88.8c0,1.643-1.249,2.742-3.109,2.736s-3.1-1.093-3.1-2.736V83.931h1.555v4.747a1.545,1.545,0,0,0,3.089,0V83.931Z" transform="translate(-267.364 -67.621)" fill="#231916"/>
        <path id="패스_31244" data-name="패스 31244" d="M368.814,83.931h6.146v1.285h-2.3v6.219h-1.544V85.216h-2.3Z" transform="translate(-297.145 -67.621)" fill="#231916"/>
        <path id="패스_31245" data-name="패스 31245" d="M411.612,83.931V88.8c0,1.643-1.249,2.742-3.109,2.736s-3.1-1.093-3.1-2.736V83.931h1.555v4.747a1.545,1.545,0,0,0,3.089,0V83.931Z" transform="translate(-326.624 -67.621)" fill="#231916"/>
        <path id="패스_31246" data-name="패스 31246" d="M443.86,83.931H446.8a2.374,2.374,0,0,1,2.685,2.446,2.168,2.168,0,0,1-1.327,2.14l1.6,2.918h-1.721L446.6,88.771h-1.187v2.664H443.86Zm2.653,3.576c.922,0,1.373-.378,1.368-1.13s-.446-1.166-1.368-1.171h-1.1v2.3Z" transform="translate(-357.607 -67.621)" fill="#231916"/>
        <path id="패스_31247" data-name="패스 31247" d="M478.37,83.931h5.037v1.285h-3.482V87.04h3.223v1.285h-3.223V90.15h3.493v1.285H478.37Z" transform="translate(-385.411 -67.621)" fill="#231916"/>
        <path id="패스_31248" data-name="패스 31248" d="M304.652,144.092c-1.166.005-1.938.9-1.938,2.477,0,1.617.783,2.472,1.928,2.477a1.559,1.559,0,0,0,1.648-1.285l1.576.01a3.087,3.087,0,0,1-3.244,2.653c-2.006,0-3.493-1.415-3.493-3.856s1.513-3.856,3.493-3.856a3.024,3.024,0,0,1,3.244,2.716H306.29a1.546,1.546,0,0,0-1.638-1.337" transform="translate(-242.611 -114.98)" fill="#231916"/>
        <path id="패스_31249" data-name="패스 31249" d="M344.166,150.425c-2,0-3.514-1.415-3.514-3.856s1.513-3.856,3.514-3.856c1.985,0,3.5,1.4,3.5,3.856s-1.518,3.856-3.5,3.856m0-1.379c1.156-.005,1.923-.876,1.917-2.477s-.762-2.472-1.917-2.477-1.928.871-1.928,2.477.762,2.472,1.928,2.477" transform="translate(-274.455 -114.981)" fill="#231916"/>
        <path id="패스_31250" data-name="패스 31250" d="M388.782,150.751h-1.347l-3.3-4.768h-.062v4.768h-1.555v-7.5h1.368l3.275,4.768h.073v-4.768h1.544Z" transform="translate(-308.188 -115.41)" fill="#231916"/>
        <path id="패스_31251" data-name="패스 31251" d="M422.991,144.019c-.788,0-1.228.363-1.233.86-.005.544.554.788,1.2.933l.674.166c1.285.3,2.244.948,2.249,2.2-.005,1.373-1.073,2.254-2.9,2.249-1.814.005-2.97-.834-3.016-2.446h1.513c.052.757.653,1.14,1.482,1.14s1.347-.383,1.347-.943c0-.513-.466-.751-1.285-.954l-.819-.2c-1.264-.311-2.042-.943-2.042-2.042-.005-1.363,1.2-2.27,2.84-2.27,1.664,0,2.757.923,2.778,2.249h-1.493c-.062-.6-.534-.943-1.3-.943" transform="translate(-338.355 -114.98)" fill="#231916"/>
        <path id="패스_31252" data-name="패스 31252" d="M455.648,143.247h5.037v1.285H457.2v1.824h3.223v1.285H457.2v1.824H460.7v1.285h-5.048Z" transform="translate(-367.104 -115.41)" fill="#231916"/>
        <path id="패스_31253" data-name="패스 31253" d="M494.071,150.751h-1.347l-3.3-4.768h-.062v4.768H487.81v-7.5h1.368l3.275,4.768h.073v-4.768h1.544Z" transform="translate(-393.018 -115.41)" fill="#231916"/>
        <path id="패스_31254" data-name="패스 31254" d="M528.28,144.019c-.788,0-1.228.363-1.233.86-.005.544.554.788,1.2.933l.674.166c1.285.3,2.244.948,2.249,2.2-.005,1.373-1.073,2.254-2.9,2.249-1.814.005-2.97-.834-3.016-2.446h1.513c.052.757.653,1.14,1.482,1.14s1.347-.383,1.347-.943c0-.513-.466-.751-1.285-.954l-.819-.2c-1.264-.311-2.042-.943-2.042-2.042-.005-1.363,1.2-2.27,2.84-2.27,1.664,0,2.757.923,2.778,2.249h-1.493c-.062-.6-.534-.943-1.3-.943" transform="translate(-423.184 -114.98)" fill="#231916"/>
        <path id="패스_31255" data-name="패스 31255" d="M567.146,143.247v4.872c0,1.643-1.249,2.742-3.109,2.736s-3.1-1.093-3.1-2.736v-4.872h1.555v4.747a1.545,1.545,0,0,0,3.089,0v-4.747Z" transform="translate(-451.934 -115.41)" fill="#231916"/>
        <path id="패스_31256" data-name="패스 31256" d="M601.139,144.019c-.788,0-1.228.363-1.233.86-.005.544.554.788,1.2.933l.674.166c1.285.3,2.244.948,2.249,2.2-.005,1.373-1.073,2.254-2.9,2.249-1.814.005-2.97-.834-3.016-2.446h1.513c.052.757.653,1.14,1.482,1.14s1.347-.383,1.347-.943c0-.513-.466-.751-1.285-.954l-.819-.2c-1.264-.311-2.042-.943-2.042-2.042-.005-1.363,1.2-2.27,2.84-2.27,1.664,0,2.757.923,2.778,2.249h-1.493c-.062-.6-.534-.943-1.3-.943" transform="translate(-481.885 -114.98)" fill="#231916"/>
        <rect id="사각형_2741" data-name="사각형 2741" width="1.555" height="7.504" transform="translate(58.517 39.363)" fill="#231916"/>
        <path id="패스_31257" data-name="패스 31257" d="M321.9,210.066h-1.347l-3.3-4.768h-.062v4.768h-1.555v-7.5H317l3.275,4.768h.073v-4.768H321.9Z" transform="translate(-254.301 -163.199)" fill="#231916"/>
        <path id="패스_31258" data-name="패스 31258" d="M356.106,203.335c-.788,0-1.228.363-1.233.86-.005.544.554.788,1.2.933l.674.166c1.285.3,2.244.948,2.249,2.2-.005,1.373-1.073,2.254-2.9,2.249-1.814.005-2.97-.834-3.016-2.446h1.513c.052.757.653,1.14,1.482,1.14s1.347-.383,1.347-.943c0-.513-.466-.751-1.285-.954l-.819-.2c-1.264-.311-2.042-.943-2.042-2.042-.005-1.363,1.2-2.27,2.84-2.27,1.664,0,2.757.923,2.778,2.249H357.4c-.062-.6-.534-.943-1.3-.943" transform="translate(-284.468 -162.77)" fill="#231916"/>
        <path id="패스_31259" data-name="패스 31259" d="M387.269,202.562h6.146v1.285h-2.3v6.219H389.57v-6.219h-2.3Z" transform="translate(-312.014 -163.199)" fill="#231916"/>
        <rect id="사각형_2742" data-name="사각형 2742" width="1.555" height="7.504" transform="translate(82.365 39.363)" fill="#231916"/>
        <path id="패스_31260" data-name="패스 31260" d="M436.873,202.562h6.146v1.285h-2.3v6.219h-1.544v-6.219h-2.3Z" transform="translate(-351.979 -163.199)" fill="#231916"/>
        <path id="패스_31261" data-name="패스 31261" d="M479.671,202.562v4.872c0,1.643-1.249,2.742-3.109,2.736s-3.1-1.093-3.1-2.736v-4.872h1.555v4.747a1.545,1.545,0,0,0,3.089,0v-4.747Z" transform="translate(-381.458 -163.199)" fill="#231916"/>
        <path id="패스_31262" data-name="패스 31262" d="M510.426,202.562h6.146v1.285h-2.3v6.219h-1.544v-6.219h-2.3Z" transform="translate(-411.237 -163.199)" fill="#231916"/>
        <path id="패스_31263" data-name="패스 31263" d="M547.015,202.562h5.037v1.285H548.57v1.824h3.223v1.285H548.57v1.824h3.493v1.285h-5.048Z" transform="translate(-440.717 -163.199)" fill="#231916"/>
      </g>
    </g>
  </g>
</svg>
