<svg xmlns="http://www.w3.org/2000/svg" xmlns:xlink="http://www.w3.org/1999/xlink" width="140" height="56" viewBox="0 0 140 56">
  <defs>
    <clipPath id="clip-path">
      <rect id="mask" width="140" height="56" transform="translate(-1 -14)" fill="none"/>
    </clipPath>
  </defs>
  <g id="partner_engageli" transform="translate(1 14)">
    <g id="mask-2" data-name="mask" clip-path="url(#clip-path)">
      <g id="logo" transform="translate(-1 -4)">
        <path id="패스_31279" data-name="패스 31279" d="M4.372,91.2A4.394,4.394,0,0,0,5.9,94.241a4.813,4.813,0,0,0,3.17,1.084,5.266,5.266,0,0,0,2.733-.651,7.792,7.792,0,0,0,1.968-1.7l3.133,2.349A8.87,8.87,0,0,1,13.481,98a10.161,10.161,0,0,1-3.971.8,10.571,10.571,0,0,1-3.716-.651A8.924,8.924,0,0,1,2.769,96.3a9.033,9.033,0,0,1-2.04-2.855A9.439,9.439,0,0,1,0,89.687a9.18,9.18,0,0,1,.729-3.723,8.719,8.719,0,0,1,5.064-4.735,10.572,10.572,0,0,1,3.716-.651,8.217,8.217,0,0,1,3.316.651,6.773,6.773,0,0,1,2.587,1.807A8.037,8.037,0,0,1,17.088,86a11.911,11.911,0,0,1,.619,4.012V91.2Zm8.963-3.253a4.006,4.006,0,0,0-1.2-3,4.487,4.487,0,0,0-3.243-1.12,4.332,4.332,0,0,0-3.133,1.12,5.036,5.036,0,0,0-1.385,3Z" transform="translate(0 -71.036)" fill="#1d3557"/>
        <path id="패스_31280" data-name="패스 31280" d="M401.271,81.012v15.8a14.255,14.255,0,0,1-.583,4.229,8.048,8.048,0,0,1-4.882,5.277,12.145,12.145,0,0,1-4.409.723,17.028,17.028,0,0,1-4.627-.614,10.362,10.362,0,0,1-4.044-2.241l2.623-3.542a10.694,10.694,0,0,0,2.733,1.843,7.8,7.8,0,0,0,3.279.651,6.934,6.934,0,0,0,2.623-.434,4.108,4.108,0,0,0,1.712-1.193,4.258,4.258,0,0,0,.911-1.843,8.768,8.768,0,0,0,.292-2.349V96.048h-.073a5.886,5.886,0,0,1-2.514,1.916,8.709,8.709,0,0,1-3.206.614,8.494,8.494,0,0,1-6.34-2.6,8.394,8.394,0,0,1-1.749-2.819,9.667,9.667,0,0,1-.619-3.47,10.739,10.739,0,0,1,.583-3.578,8.254,8.254,0,0,1,1.712-2.892,7.955,7.955,0,0,1,2.7-1.916,8.773,8.773,0,0,1,3.643-.723,8.322,8.322,0,0,1,3.461.723,5.607,5.607,0,0,1,2.55,2.313h.073v-2.6Zm-9.327,3.47a5.411,5.411,0,0,0-2.113.4,4.653,4.653,0,0,0-1.64,1.048,4.85,4.85,0,0,0-1.057,1.627,5.757,5.757,0,0,0-.364,2.1,4.723,4.723,0,0,0,1.457,3.542,5.105,5.105,0,0,0,1.64,1.084,5.219,5.219,0,0,0,2.04.4,5.51,5.51,0,0,0,2.15-.4,4.9,4.9,0,0,0,1.64-1.048,4.607,4.607,0,0,0,1.057-1.627,5.551,5.551,0,0,0,.364-2.024,4.811,4.811,0,0,0-5.174-5.1Z" transform="translate(-337.114 -71.036)" fill="#1d3557"/>
        <path id="패스_31281" data-name="패스 31281" d="M573.522,95.976h-.109a5.738,5.738,0,0,1-2.4,2.169,7.776,7.776,0,0,1-3.206.651,8.77,8.77,0,0,1-2.368-.325,6.64,6.64,0,0,1-2.04-.976,5.117,5.117,0,0,1-1.421-1.626,4.585,4.585,0,0,1-.547-2.277,5.1,5.1,0,0,1,.51-2.386,4.809,4.809,0,0,1,1.348-1.663,6.955,6.955,0,0,1,2-1.084,12.687,12.687,0,0,1,2.332-.578,17.279,17.279,0,0,1,2.478-.253q1.239-.072,2.332-.072h1.093v-.47a2.762,2.762,0,0,0-1.13-2.422,4.729,4.729,0,0,0-2.878-.831,6.6,6.6,0,0,0-2.587.506,6.31,6.31,0,0,0-2.077,1.3l-2.3-2.277a8.5,8.5,0,0,1,3.388-2.133,12.8,12.8,0,0,1,4.044-.651,9.817,9.817,0,0,1,3.133.434,6.64,6.64,0,0,1,2.113,1.048,4.457,4.457,0,0,1,1.275,1.518,5.846,5.846,0,0,1,.656,1.7,8.45,8.45,0,0,1,.255,1.7q.036.8.036,1.41v9.976h-3.935Zm-.255-5.386h-.911q-.911,0-2.04.072a10.267,10.267,0,0,0-2.15.361,4.5,4.5,0,0,0-1.676.8,1.683,1.683,0,0,0-.692,1.446,2.034,2.034,0,0,0,.255,1.048,2.826,2.826,0,0,0,.729.687,3.3,3.3,0,0,0,.984.434,5.608,5.608,0,0,0,1.093.108,4.551,4.551,0,0,0,3.316-1.048,3.938,3.938,0,0,0,1.093-2.928Z" transform="translate(-494.941 -71.036)" fill="#1d3557"/>
        <path id="패스_31282" data-name="패스 31282" d="M735.707,81.012v15.8a14.251,14.251,0,0,1-.583,4.229,8.047,8.047,0,0,1-4.882,5.277,12.144,12.144,0,0,1-4.409.723,17.028,17.028,0,0,1-4.627-.614,10.362,10.362,0,0,1-4.044-2.241l2.623-3.542a10.693,10.693,0,0,0,2.733,1.843,7.8,7.8,0,0,0,3.279.651,6.934,6.934,0,0,0,2.623-.434,4.109,4.109,0,0,0,1.713-1.193,4.259,4.259,0,0,0,.911-1.843,8.773,8.773,0,0,0,.291-2.349V96.048h-.073a5.887,5.887,0,0,1-2.514,1.916,8.709,8.709,0,0,1-3.206.614,8.494,8.494,0,0,1-6.34-2.6,8.394,8.394,0,0,1-1.749-2.819,9.668,9.668,0,0,1-.619-3.47,10.742,10.742,0,0,1,.583-3.578,8.254,8.254,0,0,1,1.712-2.892,7.955,7.955,0,0,1,2.7-1.916,8.773,8.773,0,0,1,3.643-.723,8.322,8.322,0,0,1,3.461.723,5.607,5.607,0,0,1,2.55,2.313h.073v-2.6Zm-9.327,3.47a5.411,5.411,0,0,0-2.113.4,4.655,4.655,0,0,0-1.64,1.048,4.853,4.853,0,0,0-1.057,1.627,5.758,5.758,0,0,0-.364,2.1,4.722,4.722,0,0,0,1.457,3.542,5.105,5.105,0,0,0,1.64,1.084,5.219,5.219,0,0,0,2.04.4,5.51,5.51,0,0,0,2.15-.4,4.9,4.9,0,0,0,1.64-1.048,4.607,4.607,0,0,0,1.057-1.627,5.55,5.55,0,0,0,.364-2.024,4.811,4.811,0,0,0-5.174-5.1Z" transform="translate(-631.946 -71.036)" fill="#1d3557"/>
        <path id="패스_31283" data-name="패스 31283" d="M902.7,91.2a4.394,4.394,0,0,0,1.53,3.036,4.813,4.813,0,0,0,3.17,1.084,5.266,5.266,0,0,0,2.733-.651,7.769,7.769,0,0,0,1.967-1.7l3.133,2.349A8.863,8.863,0,0,1,911.8,98a10.158,10.158,0,0,1-3.971.8,10.571,10.571,0,0,1-3.716-.651,8.924,8.924,0,0,1-3.024-1.843,9.032,9.032,0,0,1-2.04-2.855,9.44,9.44,0,0,1-.729-3.759,9.18,9.18,0,0,1,.729-3.723,8.719,8.719,0,0,1,5.064-4.735,10.573,10.573,0,0,1,3.716-.651,8.214,8.214,0,0,1,3.315.651,6.772,6.772,0,0,1,2.587,1.807A8.038,8.038,0,0,1,915.412,86a11.9,11.9,0,0,1,.619,4.012V91.2Zm8.963-3.253a4.005,4.005,0,0,0-1.2-3,4.488,4.488,0,0,0-3.243-1.12,4.332,4.332,0,0,0-3.133,1.12,5.037,5.037,0,0,0-1.385,3Z" transform="translate(-791.943 -71.036)" fill="#1d3557"/>
        <path id="패스_31284" data-name="패스 31284" d="M279.783,101.106V84.886c0-1.081-.8-1.3-1.6-.649-2.837,2.307-8.457,6.809-9.309,7.5s-.532,1.274,0,1.73c3.191,2.739,8.777,7.637,9.309,8.069S279.783,101.971,279.783,101.106Z" transform="translate(-236.575 -73.94)" fill="#1d3557"/>
        <path id="패스_31285" data-name="패스 31285" d="M171.076,80.892V97.112c0,1.081.8,1.3,1.6.649,2.837-2.307,8.458-6.809,9.309-7.5s.532-1.273,0-1.73c-3.192-2.739-8.777-7.637-9.309-8.069S171.076,80.027,171.076,80.892Z" transform="translate(-150.817 -70.681)" fill="#1d3557"/>
        <path id="패스_31286" data-name="패스 31286" d="M1070.69,0h4.372V27.325h-4.372Z" transform="translate(-943.898)" fill="#2287ba"/>
        <path id="패스_31287" data-name="패스 31287" d="M1133.989,21.008h4.372V38.357h-4.372Zm-.619-5.892a2.462,2.462,0,0,1,.765-1.807,2.734,2.734,0,0,1,2-.8,2.8,2.8,0,0,1,2,.759,2.329,2.329,0,0,1,.837,1.843,2.437,2.437,0,0,1-.837,1.88,2.883,2.883,0,0,1-2,.723,2.8,2.8,0,0,1-2-.759A2.582,2.582,0,0,1,1133.37,15.117Z" transform="translate(-999.155 -11.032)" fill="#2287ba"/>
      </g>
    </g>
  </g>
</svg>
